<svg width="1440" height="219" viewBox="0 0 1440 219" fill="none" xmlns="http://www.w3.org/2000/svg">
<rect x="-183.43" y="112.512" width="1668" height="92" transform="rotate(-3.37176 -183.43 112.512)" fill="#231F20"/>
<path d="M-384.39 182.452L-393.398 182.983L-394.895 157.572L-385.813 157.037C-383.257 156.887 -381.027 157.266 -379.122 158.175C-377.218 159.075 -375.714 160.443 -374.61 162.279C-373.497 164.114 -372.863 166.351 -372.708 168.99C-372.552 171.637 -372.918 173.941 -373.807 175.902C-374.688 177.863 -376.029 179.407 -377.83 180.534C-379.623 181.661 -381.809 182.3 -384.39 182.452ZM-388.297 178.063L-384.885 177.862C-383.297 177.769 -381.977 177.409 -380.927 176.782C-379.869 176.147 -379.102 175.218 -378.626 173.995C-378.142 172.763 -377.956 171.2 -378.068 169.305C-378.179 167.428 -378.546 165.91 -379.17 164.751C-379.787 163.592 -380.653 162.764 -381.77 162.265C-382.886 161.766 -384.239 161.564 -385.827 161.657L-389.251 161.859L-388.297 178.063ZM-364.103 155.758L-362.606 181.169L-367.978 181.485L-369.475 156.075L-364.103 155.758ZM-358.186 180.908L-359.683 155.498L-349.509 154.898C-347.639 154.788 -346.064 154.973 -344.782 155.454C-343.5 155.935 -342.516 156.649 -341.83 157.596C-341.143 158.535 -340.763 159.641 -340.688 160.915C-340.629 161.908 -340.776 162.792 -341.129 163.568C-341.482 164.336 -341.992 164.98 -342.659 165.501C-343.317 166.013 -344.084 166.394 -344.957 166.645L-344.942 166.893C-343.972 166.877 -343.05 167.097 -342.177 167.552C-341.295 168.006 -340.563 168.673 -339.98 169.552C-339.397 170.422 -339.069 171.482 -338.996 172.731C-338.916 174.079 -339.18 175.302 -339.788 176.4C-340.388 177.49 -341.319 178.379 -342.582 179.068C-343.844 179.756 -345.427 180.157 -347.329 180.269L-358.186 180.908ZM-353.072 176.2L-348.692 175.941C-347.195 175.853 -346.12 175.504 -345.467 174.892C-344.815 174.273 -344.517 173.483 -344.573 172.524C-344.615 171.821 -344.821 171.21 -345.192 170.693C-345.562 170.175 -346.071 169.782 -346.718 169.513C-347.356 169.243 -348.105 169.134 -348.966 169.185L-353.47 169.45L-353.072 176.2ZM-353.684 165.814L-349.701 165.58C-348.965 165.536 -348.319 165.37 -347.763 165.08C-347.2 164.781 -346.767 164.382 -346.464 163.883C-346.153 163.383 -346.018 162.798 -346.057 162.128C-346.111 161.21 -346.482 160.489 -347.168 159.965C-347.847 159.44 -348.781 159.213 -349.972 159.283L-354.054 159.524L-353.684 165.814ZM-331.211 153.82L-329.714 179.231L-335.086 179.547L-336.583 154.137L-331.211 153.82ZM-325.293 178.97L-326.791 153.56L-321.418 153.243L-320.182 174.224L-309.288 173.583L-309.027 178.012L-325.293 178.97ZM-300.441 177.506L-306.198 177.845L-298.923 151.918L-292 151.51L-281.743 176.405L-287.5 176.744L-295.02 157.515L-295.219 157.527L-300.441 177.506ZM-301.39 167.539L-287.791 166.738L-287.544 170.932L-301.143 171.733L-301.39 167.539ZM-278.685 176.224L-280.182 150.814L-270.008 150.215C-268.138 150.104 -266.563 150.29 -265.281 150.77C-264 151.251 -263.015 151.965 -262.329 152.912C-261.643 153.851 -261.262 154.958 -261.187 156.231C-261.128 157.224 -261.276 158.108 -261.628 158.884C-261.981 159.652 -262.491 160.297 -263.158 160.817C-263.817 161.329 -264.583 161.71 -265.456 161.961L-265.441 162.209C-264.471 162.194 -263.549 162.413 -262.676 162.868C-261.794 163.322 -261.062 163.989 -260.479 164.868C-259.896 165.738 -259.568 166.798 -259.495 168.047C-259.415 169.395 -259.679 170.618 -260.287 171.717C-260.887 172.806 -261.818 173.695 -263.081 174.384C-264.343 175.072 -265.926 175.473 -267.828 175.585L-278.685 176.224ZM-273.571 171.516L-269.191 171.258C-267.694 171.169 -266.619 170.82 -265.966 170.209C-265.314 169.589 -265.016 168.8 -265.072 167.84C-265.114 167.137 -265.32 166.527 -265.691 166.009C-266.062 165.491 -266.57 165.098 -267.217 164.829C-267.855 164.559 -268.605 164.45 -269.465 164.501L-273.969 164.766L-273.571 171.516ZM-274.183 161.131L-270.2 160.896C-269.464 160.853 -268.818 160.686 -268.263 160.396C-267.699 160.097 -267.266 159.698 -266.963 159.199C-266.653 158.699 -266.517 158.114 -266.556 157.444C-266.61 156.526 -266.981 155.805 -267.667 155.281C-268.346 154.756 -269.28 154.529 -270.472 154.6L-274.554 154.84L-274.183 161.131ZM-242.867 155.949C-243.025 154.954 -243.497 154.201 -244.282 153.692C-245.068 153.182 -246.106 152.965 -247.396 153.041C-248.273 153.092 -249.006 153.26 -249.595 153.544C-250.185 153.819 -250.628 154.182 -250.926 154.631C-251.215 155.079 -251.343 155.577 -251.311 156.123C-251.3 156.579 -251.182 156.97 -250.955 157.297C-250.72 157.623 -250.409 157.9 -250.022 158.126C-249.636 158.344 -249.193 158.529 -248.695 158.683C-248.196 158.828 -247.667 158.946 -247.105 159.037L-244.79 159.449C-243.667 159.632 -242.63 159.902 -241.679 160.261C-240.728 160.62 -239.896 161.082 -239.182 161.646C-238.468 162.21 -237.901 162.89 -237.481 163.687C-237.052 164.483 -236.802 165.411 -236.732 166.469C-236.648 168.025 -236.966 169.396 -237.684 170.584C-238.395 171.763 -239.468 172.71 -240.904 173.426C-242.331 174.132 -244.079 174.547 -246.147 174.668C-248.198 174.789 -250.003 174.58 -251.562 174.041C-253.113 173.502 -254.351 172.641 -255.275 171.459C-256.192 170.268 -256.725 168.759 -256.874 166.934L-251.675 166.627C-251.567 167.476 -251.281 168.173 -250.818 168.718C-250.346 169.255 -249.738 169.647 -248.993 169.893C-248.24 170.131 -247.401 170.223 -246.474 170.168C-245.564 170.115 -244.782 169.936 -244.128 169.632C-243.465 169.327 -242.961 168.928 -242.617 168.434C-242.273 167.941 -242.118 167.388 -242.154 166.776C-242.188 166.205 -242.386 165.736 -242.748 165.367C-243.102 164.998 -243.609 164.695 -244.271 164.461C-244.924 164.225 -245.72 164.023 -246.659 163.854L-249.467 163.322C-251.64 162.928 -253.38 162.212 -254.686 161.177C-255.992 160.142 -256.696 158.685 -256.798 156.807C-256.897 155.269 -256.567 153.901 -255.808 152.702C-255.04 151.503 -253.947 150.538 -252.529 149.807C-251.112 149.076 -249.476 148.656 -247.623 148.547C-245.738 148.436 -244.073 148.662 -242.628 149.224C-241.176 149.786 -240.023 150.618 -239.169 151.722C-238.316 152.825 -237.832 154.133 -237.718 155.645L-242.867 155.949ZM-142.817 168.22L-151.825 168.75L-153.322 143.34L-144.24 142.805C-141.684 142.654 -139.453 143.033 -137.549 143.942C-135.645 144.842 -134.141 146.21 -133.037 148.046C-131.924 149.881 -131.29 152.118 -131.135 154.757C-130.979 157.404 -131.345 159.708 -132.234 161.67C-133.114 163.631 -134.455 165.175 -136.256 166.302C-138.049 167.428 -140.236 168.068 -142.817 168.22ZM-146.724 163.831L-143.311 163.63C-141.723 163.536 -140.404 163.176 -139.354 162.55C-138.295 161.915 -137.528 160.985 -137.053 159.762C-136.569 158.53 -136.383 156.967 -136.495 155.073C-136.605 153.195 -136.973 151.677 -137.597 150.519C-138.213 149.36 -139.08 148.531 -140.196 148.032C-141.313 147.534 -142.666 147.331 -144.254 147.425L-147.678 147.626L-146.724 163.831ZM-122.53 141.526L-121.033 166.936L-126.405 167.253L-127.902 141.842L-122.53 141.526ZM-116.612 166.676L-118.109 141.265L-107.935 140.666C-106.066 140.556 -104.49 140.741 -103.209 141.222C-101.927 141.702 -100.943 142.416 -100.256 143.363C-99.5701 144.302 -99.1895 145.409 -99.1145 146.683C-99.056 147.675 -99.2031 148.56 -99.5558 149.336C-99.909 150.104 -100.419 150.748 -101.085 151.268C-101.744 151.78 -102.51 152.162 -103.384 152.412L-103.369 152.661C-102.399 152.645 -101.477 152.864 -100.603 153.319C-99.7218 153.774 -98.9894 154.44 -98.4065 155.319C-97.8239 156.189 -97.4959 157.249 -97.4223 158.498C-97.3429 159.846 -97.607 161.07 -98.2146 162.168C-98.8144 163.257 -99.7457 164.146 -101.008 164.835C-102.271 165.524 -103.853 165.924 -105.756 166.036L-116.612 166.676ZM-111.499 161.967L-107.119 161.709C-105.622 161.621 -104.547 161.271 -103.894 160.66C-103.241 160.04 -102.943 159.251 -103 158.291C-103.041 157.588 -103.247 156.978 -103.618 156.46C-103.989 155.943 -104.498 155.549 -105.144 155.28C-105.783 155.011 -106.532 154.901 -107.392 154.952L-111.896 155.217L-111.499 161.967ZM-112.111 151.582L-108.128 151.347C-107.392 151.304 -106.746 151.137 -106.19 150.847C-105.627 150.548 -105.194 150.149 -104.891 149.65C-104.58 149.15 -104.444 148.565 -104.484 147.895C-104.538 146.977 -104.908 146.256 -105.595 145.732C-106.273 145.208 -107.208 144.981 -108.399 145.051L-112.481 145.291L-112.111 151.582ZM-89.6374 139.588L-88.1403 164.998L-93.5128 165.315L-95.0099 139.904L-89.6374 139.588ZM-83.7202 164.738L-85.2173 139.327L-79.8448 139.011L-78.6087 159.992L-67.715 159.35L-67.454 163.779L-83.7202 164.738ZM-58.868 163.274L-64.6251 163.613L-57.3501 137.686L-50.4267 137.278L-40.17 162.172L-45.927 162.511L-53.4471 143.282L-53.6456 143.294L-58.868 163.274ZM-59.8163 153.307L-46.2177 152.506L-45.9706 156.699L-59.5692 157.501L-59.8163 153.307ZM-37.1115 161.992L-38.6086 136.581L-28.4345 135.982C-26.5651 135.872 -24.9896 136.057 -23.7079 136.538C-22.4263 137.018 -21.4421 137.732 -20.7555 138.679C-20.0693 139.618 -19.6887 140.725 -19.6137 141.999C-19.5552 142.991 -19.7023 143.876 -20.055 144.652C-20.4082 145.42 -20.918 146.064 -21.5846 146.585C-22.2433 147.097 -23.0094 147.478 -23.8828 147.728L-23.8682 147.977C-22.8979 147.961 -21.9761 148.181 -21.1027 148.635C-20.221 149.09 -19.4886 149.756 -18.9056 150.635C-18.3231 151.505 -17.9951 152.565 -17.9215 153.814C-17.8421 155.162 -18.1062 156.386 -18.7138 157.484C-19.3136 158.573 -20.2448 159.463 -21.5074 160.151C-22.77 160.84 -24.3525 161.24 -26.255 161.352L-37.1115 161.992ZM-31.9979 157.283L-27.6181 157.025C-26.1209 156.937 -25.0458 156.587 -24.3929 155.976C-23.7405 155.356 -23.4425 154.567 -23.4991 153.607C-23.5405 152.904 -23.7466 152.294 -24.1174 151.776C-24.4882 151.259 -24.997 150.865 -25.6437 150.596C-26.2821 150.327 -27.0314 150.217 -27.8916 150.268L-32.3956 150.533L-31.9979 157.283ZM-32.6097 146.898L-28.6269 146.663C-27.8908 146.62 -27.2449 146.453 -26.6892 146.163C-26.1258 145.864 -25.6928 145.465 -25.3902 144.966C-25.0793 144.466 -24.9436 143.882 -24.9831 143.212C-25.0372 142.293 -25.4075 141.572 -26.0941 141.048C-26.7725 140.524 -27.7072 140.297 -28.8983 140.367L-32.9804 140.607L-32.6097 146.898ZM-1.29379 141.716C-1.45202 140.721 -1.92382 139.969 -2.70919 139.459C-3.49456 138.949 -4.53243 138.732 -5.82281 138.808C-6.6996 138.86 -7.43261 139.028 -8.02181 139.311C-8.61151 139.587 -9.05499 139.949 -9.35224 140.398C-9.64122 140.847 -9.76963 141.344 -9.73746 141.89C-9.7272 142.346 -9.60869 142.737 -9.38192 143.064C-9.14687 143.391 -8.83593 143.667 -8.44909 143.893C-8.06273 144.111 -7.62018 144.297 -7.12143 144.45C-6.62317 144.595 -6.09328 144.713 -5.53177 144.805L-3.21664 145.216C-2.09362 145.399 -1.05671 145.67 -0.10592 146.029C0.844871 146.388 1.67719 146.849 2.39104 147.413C3.10489 147.977 3.67205 148.657 4.09252 149.454C4.52126 150.251 4.77096 151.178 4.84161 152.237C4.92496 153.792 4.60735 155.164 3.8888 156.352C3.17803 157.531 2.10499 158.478 0.669672 159.193C-0.757858 159.9 -2.50558 160.314 -4.57349 160.436C-6.62486 160.557 -8.43005 160.348 -9.98907 159.809C-11.5398 159.269 -12.7775 158.408 -13.7021 157.226C-14.6189 156.035 -15.1518 154.527 -15.3009 152.701L-10.1022 152.395C-9.99405 153.243 -9.70813 153.94 -9.24438 154.486C-8.77284 155.022 -8.16459 155.414 -7.41963 155.661C-6.66689 155.899 -5.8273 155.99 -4.90088 155.936C-3.991 155.882 -3.20885 155.703 -2.55445 155.399C-1.89177 155.094 -1.3882 154.695 -1.04376 154.202C-0.699311 153.708 -0.54512 153.156 -0.581182 152.544C-0.614808 151.973 -0.812643 151.503 -1.17469 151.134C-1.52846 150.765 -2.03598 150.463 -2.69725 150.228C-3.35024 149.992 -4.14653 149.79 -5.08612 149.622L-7.89392 149.09C-10.067 148.695 -11.8065 147.98 -13.1126 146.945C-14.4186 145.909 -15.1228 144.453 -15.2252 142.574C-15.3241 141.036 -14.9938 139.668 -14.2344 138.47C-13.4667 137.271 -12.374 136.306 -10.9562 135.575C-9.53838 134.844 -7.90306 134.424 -6.05021 134.314C-4.16427 134.203 -2.49921 134.429 -1.05502 134.991C0.397442 135.553 1.55045 136.386 2.40399 137.489C3.25754 138.593 3.74131 139.901 3.8553 141.413L-1.29379 141.716ZM98.7564 153.987L89.7486 154.518L88.2515 129.107L97.3337 128.572C99.8897 128.422 102.12 128.801 104.024 129.709C105.928 130.61 107.433 131.978 108.537 133.814C109.649 135.649 110.283 137.886 110.439 140.524C110.595 143.171 110.228 145.476 109.339 147.437C108.459 149.398 107.118 150.942 105.317 152.069C103.524 153.196 101.337 153.835 98.7564 153.987ZM94.8498 149.598L98.2618 149.397C99.85 149.303 101.169 148.943 102.22 148.317C103.278 147.682 104.045 146.753 104.521 145.53C105.004 144.298 105.19 142.734 105.079 140.84C104.968 138.963 104.6 137.445 103.976 136.286C103.36 135.127 102.494 134.298 101.377 133.8C100.26 133.301 98.9077 133.099 97.3196 133.192L93.8951 133.394L94.8498 149.598ZM119.044 127.293L120.541 152.704L115.168 153.02L113.671 127.61L119.044 127.293ZM124.961 152.443L123.464 127.033L133.638 126.433C135.507 126.323 137.083 126.508 138.365 126.989C139.646 127.47 140.63 128.183 141.317 129.131C142.003 130.07 142.384 131.176 142.459 132.45C142.517 133.443 142.37 134.327 142.017 135.103C141.664 135.871 141.154 136.515 140.488 137.036C139.829 137.548 139.063 137.929 138.19 138.18L138.204 138.428C139.175 138.412 140.096 138.632 140.97 139.087C141.851 139.541 142.584 140.208 143.167 141.086C143.749 141.957 144.077 143.016 144.151 144.265C144.23 145.614 143.966 146.837 143.359 147.935C142.759 149.025 141.828 149.914 140.565 150.602C139.302 151.291 137.72 151.691 135.817 151.803L124.961 152.443ZM130.075 147.734L134.454 147.476C135.952 147.388 137.027 147.038 137.68 146.427C138.332 145.808 138.63 145.018 138.573 144.059C138.532 143.356 138.326 142.745 137.955 142.228C137.584 141.71 137.075 141.317 136.429 141.048C135.79 140.778 135.041 140.669 134.181 140.719L129.677 140.985L130.075 147.734ZM129.463 137.349L133.446 137.115C134.182 137.071 134.828 136.905 135.383 136.615C135.947 136.316 136.38 135.917 136.682 135.417C136.993 134.918 137.129 134.333 137.089 133.663C137.035 132.745 136.665 132.024 135.978 131.5C135.3 130.975 134.365 130.748 133.174 130.818L129.092 131.059L129.463 137.349ZM151.936 125.355L153.433 150.766L148.061 151.082L146.563 125.672L151.936 125.355ZM157.853 150.505L156.356 125.095L161.728 124.778L162.965 145.759L173.858 145.117L174.119 149.547L157.853 150.505ZM182.705 149.041L176.948 149.38L184.223 123.453L191.147 123.045L201.403 147.939L195.646 148.279L188.126 129.05L187.928 129.061L182.705 149.041ZM181.757 139.074L195.356 138.273L195.603 142.467L182.004 143.268L181.757 139.074ZM204.462 147.759L202.965 122.349L213.139 121.749C215.008 121.639 216.584 121.824 217.865 122.305C219.147 122.786 220.131 123.5 220.818 124.447C221.504 125.386 221.885 126.492 221.96 127.766C222.018 128.759 221.871 129.643 221.518 130.419C221.165 131.187 220.655 131.831 219.989 132.352C219.33 132.864 218.564 133.245 217.691 133.496L217.705 133.744C218.675 133.728 219.597 133.948 220.471 134.403C221.352 134.857 222.085 135.524 222.668 136.402C223.25 137.273 223.578 138.333 223.652 139.582C223.731 140.93 223.467 142.153 222.86 143.251C222.26 144.341 221.328 145.23 220.066 145.919C218.803 146.607 217.221 147.008 215.318 147.12L204.462 147.759ZM209.575 143.05L213.955 142.792C215.452 142.704 216.527 142.354 217.18 141.743C217.833 141.124 218.131 140.334 218.074 139.375C218.033 138.672 217.827 138.061 217.456 137.544C217.085 137.026 216.576 136.633 215.93 136.364C215.291 136.094 214.542 135.985 213.682 136.035L209.178 136.301L209.575 143.05ZM208.964 132.665L212.946 132.431C213.683 132.387 214.328 132.221 214.884 131.931C215.447 131.632 215.88 131.233 216.183 130.734C216.494 130.234 216.63 129.649 216.59 128.979C216.536 128.061 216.166 127.34 215.479 126.816C214.801 126.291 213.866 126.064 212.675 126.134L208.593 126.375L208.964 132.665ZM240.279 127.484C240.121 126.489 239.649 125.736 238.864 125.226C238.079 124.716 237.041 124.5 235.75 124.576C234.874 124.627 234.141 124.795 233.551 125.079C232.962 125.354 232.518 125.716 232.221 126.166C231.932 126.614 231.804 127.111 231.836 127.657C231.846 128.113 231.965 128.505 232.191 128.832C232.426 129.158 232.737 129.435 233.124 129.661C233.511 129.879 233.953 130.064 234.452 130.217C234.95 130.362 235.48 130.481 236.042 130.572L238.357 130.983C239.48 131.166 240.517 131.437 241.467 131.796C242.418 132.155 243.25 132.617 243.964 133.181C244.678 133.744 245.245 134.425 245.666 135.222C246.095 136.018 246.344 136.946 246.415 138.004C246.498 139.559 246.181 140.931 245.462 142.119C244.751 143.298 243.678 144.245 242.243 144.961C240.815 145.667 239.068 146.081 237 146.203C234.948 146.324 233.143 146.115 231.584 145.576C230.033 145.037 228.796 144.176 227.871 142.993C226.954 141.802 226.421 140.294 226.272 138.469L231.471 138.162C231.579 139.011 231.865 139.708 232.329 140.253C232.8 140.79 233.409 141.181 234.154 141.428C234.906 141.666 235.746 141.758 236.672 141.703C237.582 141.649 238.364 141.471 239.019 141.166C239.682 140.862 240.185 140.463 240.53 139.969C240.874 139.476 241.028 138.923 240.992 138.311C240.958 137.74 240.761 137.27 240.399 136.902C240.045 136.532 239.537 136.23 238.876 135.995C238.223 135.76 237.427 135.558 236.487 135.389L233.679 134.857C231.506 134.462 229.767 133.747 228.461 132.712C227.155 131.677 226.45 130.22 226.348 128.342C226.249 126.804 226.579 125.435 227.339 124.237C228.107 123.038 229.199 122.073 230.617 121.342C232.035 120.611 233.67 120.191 235.523 120.082C237.409 119.971 239.074 120.196 240.518 120.759C241.971 121.321 243.124 122.153 243.977 123.257C244.831 124.36 245.315 125.668 245.429 127.18L240.279 127.484ZM340.33 139.754L331.322 140.285L329.825 114.875L338.907 114.34C341.463 114.189 343.693 114.568 345.598 115.477C347.502 116.377 349.006 117.745 350.11 119.581C351.223 121.416 351.856 123.653 352.012 126.292C352.168 128.939 351.801 131.243 350.913 133.204C350.032 135.165 348.691 136.709 346.89 137.836C345.097 138.963 342.91 139.602 340.33 139.754ZM336.423 135.365L339.835 135.164C341.423 135.071 342.743 134.711 343.793 134.085C344.851 133.449 345.618 132.52 346.094 131.297C346.578 130.065 346.764 128.502 346.652 126.608C346.541 124.73 346.174 123.212 345.549 122.053C344.933 120.895 344.067 120.066 342.95 119.567C341.833 119.068 340.481 118.866 338.893 118.959L335.468 119.161L336.423 135.365ZM360.617 113.06L362.114 138.471L356.742 138.787L355.245 113.377L360.617 113.06ZM366.534 138.211L365.037 112.8L375.211 112.201C377.081 112.09 378.656 112.276 379.938 112.756C381.22 113.237 382.204 113.951 382.89 114.898C383.576 115.837 383.957 116.944 384.032 118.217C384.091 119.21 383.943 120.094 383.591 120.871C383.238 121.638 382.728 122.283 382.061 122.803C381.402 123.315 380.636 123.697 379.763 123.947L379.778 124.195C380.748 124.18 381.67 124.399 382.543 124.854C383.425 125.309 384.157 125.975 384.74 126.854C385.323 127.724 385.651 128.784 385.724 130.033C385.804 131.381 385.54 132.604 384.932 133.703C384.332 134.792 383.401 135.681 382.138 136.37C380.876 137.058 379.293 137.459 377.391 137.571L366.534 138.211ZM371.648 133.502L376.028 133.244C377.525 133.155 378.6 132.806 379.253 132.195C379.905 131.575 380.203 130.786 380.147 129.826C380.105 129.123 379.899 128.513 379.528 127.995C379.158 127.477 378.649 127.084 378.002 126.815C377.364 126.545 376.614 126.436 375.754 126.487L371.25 126.752L371.648 133.502ZM371.036 123.117L375.019 122.882C375.755 122.839 376.401 122.672 376.957 122.382C377.52 122.083 377.953 121.684 378.256 121.185C378.566 120.685 378.702 120.1 378.663 119.43C378.609 118.512 378.238 117.791 377.552 117.267C376.873 116.743 375.939 116.515 374.747 116.586L370.665 116.826L371.036 123.117ZM393.509 111.123L395.006 136.533L389.634 136.85L388.137 111.439L393.509 111.123ZM399.426 136.273L397.929 110.862L403.302 110.546L404.538 131.527L415.432 130.885L415.693 135.314L399.426 136.273ZM424.279 134.808L418.521 135.148L425.796 109.22L432.72 108.812L442.977 133.707L437.22 134.046L429.7 114.817L429.501 114.829L424.279 134.808ZM423.33 124.842L436.929 124.04L437.176 128.234L423.577 129.035L423.33 124.842ZM446.035 133.527L444.538 108.116L454.712 107.517C456.581 107.407 458.157 107.592 459.439 108.072C460.72 108.553 461.704 109.267 462.391 110.214C463.077 111.153 463.458 112.26 463.533 113.534C463.591 114.526 463.444 115.411 463.092 116.187C462.738 116.954 462.229 117.599 461.562 118.119C460.903 118.631 460.137 119.013 459.264 119.263L459.278 119.511C460.249 119.496 461.17 119.715 462.044 120.17C462.926 120.625 463.658 121.291 464.241 122.17C464.823 123.04 465.151 124.1 465.225 125.349C465.305 126.697 465.04 127.921 464.433 129.019C463.833 130.108 462.902 130.997 461.639 131.686C460.377 132.375 458.794 132.775 456.892 132.887L446.035 133.527ZM451.149 128.818L455.529 128.56C457.026 128.472 458.101 128.122 458.754 127.511C459.406 126.891 459.704 126.102 459.648 125.142C459.606 124.439 459.4 123.829 459.029 123.311C458.658 122.793 458.15 122.4 457.503 122.131C456.865 121.862 456.115 121.752 455.255 121.803L450.751 122.068L451.149 128.818ZM450.537 118.433L454.52 118.198C455.256 118.155 455.902 117.988 456.457 117.698C457.021 117.399 457.454 117 457.756 116.501C458.067 116.001 458.203 115.416 458.163 114.746C458.109 113.828 457.739 113.107 457.052 112.583C456.374 112.059 455.439 111.832 454.248 111.902L450.166 112.142L450.537 118.433ZM481.853 113.251C481.695 112.256 481.223 111.504 480.437 110.994C479.652 110.484 478.614 110.267 477.324 110.343C476.447 110.395 475.714 110.562 475.125 110.846C474.535 111.122 474.092 111.484 473.794 111.933C473.505 112.382 473.377 112.879 473.409 113.425C473.419 113.881 473.538 114.272 473.765 114.599C474 114.926 474.311 115.202 474.697 115.428C475.084 115.646 475.526 115.832 476.025 115.985C476.523 116.13 477.053 116.248 477.615 116.339L479.93 116.751C481.053 116.934 482.09 117.205 483.041 117.564C483.991 117.923 484.824 118.384 485.538 118.948C486.251 119.512 486.819 120.192 487.239 120.989C487.668 121.786 487.918 122.713 487.988 123.771C488.072 125.327 487.754 126.699 487.035 127.886C486.325 129.065 485.252 130.013 483.816 130.728C482.389 131.435 480.641 131.849 478.573 131.971C476.522 132.092 474.717 131.882 473.158 131.343C471.607 130.804 470.369 129.943 469.445 128.761C468.528 127.57 467.995 126.062 467.846 124.236L473.044 123.93C473.153 124.778 473.438 125.475 473.902 126.021C474.374 126.557 474.982 126.949 475.727 127.195C476.48 127.433 477.319 127.525 478.246 127.47C479.156 127.417 479.938 127.238 480.592 126.934C481.255 126.629 481.758 126.23 482.103 125.737C482.447 125.243 482.601 124.69 482.565 124.078C482.532 123.508 482.334 123.038 481.972 122.669C481.618 122.3 481.111 121.998 480.449 121.763C479.796 121.527 479 121.325 478.06 121.156L475.253 120.625C473.08 120.23 471.34 119.515 470.034 118.479C468.728 117.444 468.024 115.987 467.921 114.109C467.822 112.571 468.153 111.203 468.912 110.004C469.68 108.805 470.773 107.84 472.19 107.109C473.608 106.379 475.244 105.958 477.096 105.849C478.982 105.738 480.647 105.964 482.092 106.526C483.544 107.088 484.697 107.921 485.551 109.024C486.404 110.128 486.888 111.435 487.002 112.948L481.853 113.251ZM581.903 125.522L572.895 126.052L571.398 100.642L580.48 100.107C583.036 99.9563 585.266 100.335 587.171 101.244C589.075 102.145 590.579 103.513 591.683 105.348C592.796 107.184 593.43 109.421 593.585 112.059C593.741 114.706 593.375 117.01 592.486 118.972C591.605 120.933 590.265 122.477 588.463 123.604C586.671 124.73 584.484 125.37 581.903 125.522ZM577.996 121.133L581.408 120.932C582.997 120.838 584.316 120.478 585.366 119.852C586.425 119.217 587.192 118.288 587.667 117.064C588.151 115.832 588.337 114.269 588.225 112.375C588.115 110.497 587.747 108.979 587.123 107.821C586.507 106.662 585.64 105.833 584.523 105.334C583.407 104.836 582.054 104.633 580.466 104.727L577.042 104.929L577.996 121.133ZM602.19 98.8278L603.687 124.238L598.315 124.555L596.818 99.1444L602.19 98.8278ZM608.108 123.978L606.61 98.5674L616.785 97.968C618.654 97.8579 620.229 98.0431 621.511 98.5237C622.793 99.0043 623.777 99.7183 624.464 100.666C625.15 101.605 625.53 102.711 625.605 103.985C625.664 104.977 625.517 105.862 625.164 106.638C624.811 107.406 624.301 108.05 623.634 108.571C622.976 109.083 622.21 109.464 621.336 109.715L621.351 109.963C622.321 109.947 623.243 110.167 624.116 110.622C624.998 111.076 625.73 111.742 626.313 112.621C626.896 113.492 627.224 114.551 627.298 115.8C627.377 117.149 627.113 118.372 626.505 119.47C625.905 120.56 624.974 121.449 623.712 122.137C622.449 122.826 620.867 123.226 618.964 123.338L608.108 123.978ZM613.221 119.269L617.601 119.011C619.098 118.923 620.173 118.573 620.826 117.962C621.479 117.343 621.777 116.553 621.72 115.594C621.679 114.89 621.472 114.28 621.102 113.762C620.731 113.245 620.222 112.851 619.575 112.582C618.937 112.313 618.188 112.203 617.327 112.254L612.824 112.519L613.221 119.269ZM612.609 108.884L616.592 108.649C617.328 108.606 617.974 108.439 618.53 108.149C619.093 107.851 619.526 107.451 619.829 106.952C620.14 106.453 620.275 105.868 620.236 105.198C620.182 104.279 619.812 103.558 619.125 103.034C618.447 102.51 617.512 102.283 616.321 102.353L612.239 102.594L612.609 108.884ZM635.082 96.89L636.58 122.3L631.207 122.617L629.71 97.2065L635.082 96.89ZM641 122.04L639.503 96.6295L644.875 96.313L646.111 117.294L657.005 116.652L657.266 121.082L641 122.04ZM665.852 120.576L660.095 120.915L667.37 94.9877L674.293 94.5798L684.55 119.474L678.793 119.813L671.273 100.585L671.074 100.596L665.852 120.576ZM664.904 110.609L678.502 109.808L678.749 114.002L665.151 114.803L664.904 110.609ZM687.608 119.294L686.111 93.8835L696.285 93.2841C698.155 93.174 699.73 93.3592 701.012 93.8398C702.294 94.3204 703.278 95.0344 703.964 95.9817C704.651 96.9207 705.031 98.0271 705.106 99.301C705.165 100.294 705.018 101.178 704.665 101.954C704.312 102.722 703.802 103.366 703.135 103.887C702.477 104.399 701.71 104.78 700.837 105.031L700.852 105.279C701.822 105.263 702.744 105.483 703.617 105.938C704.499 106.392 705.231 107.059 705.814 107.937C706.397 108.808 706.725 109.867 706.798 111.116C706.878 112.465 706.614 113.688 706.006 114.786C705.406 115.876 704.475 116.765 703.212 117.453C701.95 118.142 700.367 118.542 698.465 118.654L687.608 119.294ZM692.722 114.585L697.102 114.327C698.599 114.239 699.674 113.889 700.327 113.278C700.979 112.659 701.277 111.869 701.221 110.91C701.179 110.207 700.973 109.596 700.602 109.079C700.232 108.561 699.723 108.167 699.076 107.898C698.438 107.629 697.688 107.52 696.828 107.57L692.324 107.836L692.722 114.585ZM692.11 104.2L696.093 103.966C696.829 103.922 697.475 103.755 698.031 103.465C698.594 103.167 699.027 102.768 699.33 102.268C699.641 101.769 699.776 101.184 699.737 100.514C699.683 99.5956 699.312 98.8745 698.626 98.3506C697.947 97.8261 697.013 97.5989 695.822 97.6691L691.74 97.9096L692.11 104.2ZM723.426 99.0184C723.268 98.0234 722.796 97.271 722.011 96.7611C721.225 96.2513 720.187 96.0344 718.897 96.1104C718.02 96.1621 717.287 96.3297 716.698 96.6135C716.108 96.8889 715.665 97.2512 715.368 97.7003C715.079 98.149 714.95 98.6463 714.982 99.1922C714.993 99.6481 715.111 100.04 715.338 100.367C715.573 100.693 715.884 100.969 716.271 101.196C716.657 101.413 717.1 101.599 717.598 101.752C718.097 101.897 718.627 102.015 719.188 102.107L721.503 102.518C722.626 102.701 723.663 102.972 724.614 103.331C725.565 103.69 726.397 104.151 727.111 104.715C727.825 105.279 728.392 105.96 728.812 106.757C729.241 107.553 729.491 108.48 729.561 109.539C729.645 111.094 729.327 112.466 728.609 113.654C727.898 114.833 726.825 115.78 725.39 116.495C723.962 117.202 722.214 117.616 720.146 117.738C718.095 117.859 716.29 117.65 714.731 117.111C713.18 116.571 711.942 115.711 711.018 114.528C710.101 113.337 709.568 111.829 709.419 110.003L714.618 109.697C714.726 110.546 715.012 111.243 715.475 111.788C715.947 112.325 716.555 112.716 717.3 112.963C718.053 113.201 718.893 113.292 719.819 113.238C720.729 113.184 721.511 113.005 722.165 112.701C722.828 112.396 723.332 111.997 723.676 111.504C724.021 111.011 724.175 110.458 724.139 109.846C724.105 109.275 723.907 108.805 723.545 108.436C723.191 108.067 722.684 107.765 722.023 107.53C721.37 107.295 720.573 107.093 719.634 106.924L716.826 106.392C714.653 105.997 712.913 105.282 711.607 104.247C710.301 103.211 709.597 101.755 709.495 99.8766C709.396 98.3385 709.726 96.9703 710.485 95.7718C711.253 94.5728 712.346 93.6078 713.764 92.8769C715.181 92.1459 716.817 91.7259 718.67 91.6167C720.556 91.5056 722.221 91.7312 723.665 92.2935C725.117 92.8554 726.27 93.6881 727.124 94.7915C727.977 95.895 728.461 97.2028 728.575 98.7151L723.426 99.0184ZM823.476 111.289L814.468 111.82L812.971 86.4094L822.054 85.8743C824.61 85.7237 826.84 86.1028 828.744 87.0115C830.648 87.912 832.152 89.2801 833.257 91.1158C834.369 92.9511 835.003 95.188 835.159 97.8267C835.314 100.474 834.948 102.778 834.059 104.739C833.179 106.7 831.838 108.244 830.037 109.371C828.244 110.498 826.057 111.137 823.476 111.289ZM819.57 106.9L822.982 106.699C824.57 106.606 825.889 106.246 826.94 105.619C827.998 104.984 828.765 104.055 829.241 102.832C829.724 101.6 829.91 100.037 829.798 98.1425C829.688 96.2648 829.32 94.7467 828.696 93.5883C828.08 92.4293 827.213 91.6005 826.097 91.1019C824.98 90.6033 823.628 90.4007 822.039 90.4943L818.615 90.6961L819.57 106.9ZM843.764 84.5953L845.261 110.006L839.888 110.322L838.391 84.9118L843.764 84.5953ZM849.681 109.745L848.184 84.3348L858.358 83.7354C860.227 83.6253 861.803 83.8105 863.084 84.2911C864.366 84.7717 865.35 85.4857 866.037 86.433C866.723 87.372 867.104 88.4784 867.179 89.7522C867.237 90.7448 867.09 91.6292 866.737 92.4053C866.384 93.1731 865.874 93.8174 865.208 94.3381C864.549 94.85 863.783 95.2313 862.91 95.482L862.924 95.7301C863.894 95.7145 864.816 95.9341 865.69 96.389C866.571 96.8433 867.304 97.5099 867.887 98.3886C868.469 99.259 868.797 100.319 868.871 101.568C868.95 102.916 868.686 104.139 868.079 105.237C867.479 106.327 866.548 107.216 865.285 107.905C864.022 108.593 862.44 108.994 860.537 109.106L849.681 109.745ZM854.794 105.037L859.174 104.779C860.671 104.69 861.747 104.341 862.399 103.729C863.052 103.11 863.35 102.32 863.293 101.361C863.252 100.658 863.046 100.047 862.675 99.5298C862.304 99.0121 861.795 98.6188 861.149 98.3498C860.51 98.0803 859.761 97.9709 858.901 98.0215L854.397 98.2869L854.794 105.037ZM854.183 94.6515L858.165 94.4169C858.902 94.3735 859.547 94.2068 860.103 93.9167C860.667 93.6179 861.1 93.2189 861.402 92.7196C861.713 92.2199 861.849 91.635 861.809 90.965C861.755 90.0469 861.385 89.3258 860.698 88.8018C860.02 88.2774 859.085 88.0502 857.894 88.1204L853.812 88.3609L854.183 94.6515ZM876.656 82.6574L878.153 108.068L872.78 108.384L871.283 82.9739L876.656 82.6574ZM882.573 107.807L881.076 82.3969L886.448 82.0804L887.684 103.061L898.578 102.42L898.839 106.849L882.573 107.807ZM907.425 106.343L901.668 106.682L908.943 80.7551L915.866 80.3472L926.123 105.242L920.366 105.581L912.846 86.352L912.648 86.3637L907.425 106.343ZM906.477 96.3764L920.075 95.5752L920.323 99.769L906.724 100.57L906.477 96.3764ZM929.182 105.061L927.685 79.6509L937.859 79.0515C939.728 78.9414 941.304 79.1266 942.585 79.6072C943.867 80.0878 944.851 80.8018 945.538 81.7491C946.224 82.6881 946.604 83.7945 946.679 85.0684C946.738 86.061 946.591 86.9453 946.238 87.7214C945.885 88.4893 945.375 89.1335 944.709 89.6542C944.05 90.1661 943.284 90.5474 942.41 90.7981L942.425 91.0463C943.395 91.0306 944.317 91.2502 945.19 91.7051C946.072 92.1594 946.805 92.826 947.388 93.7047C947.97 94.5751 948.298 95.6348 948.372 96.8838C948.451 98.2321 948.187 99.4554 947.579 100.554C946.98 101.643 946.048 102.532 944.786 103.221C943.523 103.909 941.941 104.31 940.038 104.422L929.182 105.061ZM934.295 100.353L938.675 100.095C940.172 100.006 941.247 99.6567 941.9 99.0455C942.553 98.4261 942.851 97.6366 942.794 96.6771C942.753 95.974 942.547 95.3636 942.176 94.8459C941.805 94.3282 941.296 93.9349 940.649 93.6659C940.011 93.3964 939.262 93.287 938.402 93.3376L933.898 93.603L934.295 100.353ZM933.683 89.9676L937.666 89.733C938.402 89.6896 939.048 89.5229 939.604 89.2328C940.167 88.934 940.6 88.535 940.903 88.0357C941.214 87.536 941.35 86.9511 941.31 86.2811C941.256 85.363 940.886 84.6419 940.199 84.118C939.521 83.5935 938.586 83.3664 937.395 83.4365L933.313 83.677L933.683 89.9676ZM964.999 84.7859C964.841 83.7908 964.369 83.0384 963.584 82.5285C962.799 82.0187 961.761 81.8018 960.47 81.8778C959.594 81.9295 958.861 82.0971 958.271 82.3809C957.682 82.6563 957.238 83.0186 956.941 83.4677C956.652 83.9164 956.524 84.4137 956.556 84.9596C956.566 85.4155 956.684 85.807 956.911 86.1339C957.146 86.4604 957.457 86.7367 957.844 86.9629C958.23 87.1809 958.673 87.3665 959.172 87.5197C959.67 87.6646 960.2 87.7828 960.761 87.8743L963.077 88.2857C964.2 88.4685 965.236 88.7395 966.187 89.0985C967.138 89.4575 967.97 89.9189 968.684 90.4828C969.398 91.0466 969.965 91.727 970.386 92.524C970.814 93.3205 971.064 94.2479 971.135 95.3061C971.218 96.8617 970.901 98.2334 970.182 99.4211C969.471 100.6 968.398 101.547 966.963 102.263C965.535 102.969 963.788 103.384 961.72 103.505C959.668 103.626 957.863 103.417 956.304 102.878C954.753 102.339 953.516 101.478 952.591 100.296C951.674 99.1046 951.141 97.5963 950.992 95.7707L956.191 95.4644C956.299 96.313 956.585 97.01 957.049 97.5554C957.52 98.092 958.129 98.4837 958.874 98.7303C959.626 98.9682 960.466 99.0598 961.392 99.0052C962.302 98.9516 963.084 98.7727 963.739 98.4686C964.401 98.1639 964.905 97.7649 965.249 97.2715C965.594 96.778 965.748 96.2253 965.712 95.6132C965.678 95.0424 965.481 94.5727 965.118 94.2039C964.765 93.8346 964.257 93.5325 963.596 93.2975C962.943 93.0621 962.147 92.86 961.207 92.6913L958.399 92.1595C956.226 91.7646 954.487 91.0495 953.181 90.0142C951.875 88.9789 951.17 87.5221 951.068 85.644C950.969 84.1059 951.299 82.7377 952.059 81.5392C952.826 80.3402 953.919 79.3752 955.337 78.6443C956.755 77.9133 958.39 77.4933 960.243 77.3841C962.129 77.273 963.794 77.4986 965.238 78.0609C966.691 78.6228 967.844 79.4555 968.697 80.5589C969.551 81.6624 970.034 82.9702 970.148 84.4825L964.999 84.7859ZM1065.05 97.0566L1056.04 97.5873L1054.54 72.1768L1063.63 71.6417C1066.18 71.4911 1068.41 71.8702 1070.32 72.7789C1072.22 73.6794 1073.73 75.0475 1074.83 76.8832C1075.94 78.7185 1076.58 80.9554 1076.73 83.5941C1076.89 86.241 1076.52 88.5452 1075.63 90.5066C1074.75 92.4676 1073.41 94.0116 1071.61 95.1387C1069.82 96.2652 1067.63 96.9045 1065.05 97.0566ZM1061.14 92.6676L1064.55 92.4666C1066.14 92.373 1067.46 92.0131 1068.51 91.3868C1069.57 90.7517 1070.34 89.8225 1070.81 88.5992C1071.3 87.3672 1071.48 85.8041 1071.37 83.9099C1071.26 82.0322 1070.89 80.5141 1070.27 79.3557C1069.65 78.1967 1068.79 77.3679 1067.67 76.8693C1066.55 76.3707 1065.2 76.1681 1063.61 76.2617L1060.19 76.4635L1061.14 92.6676ZM1085.34 70.3627L1086.83 95.7731L1081.46 96.0897L1079.96 70.6792L1085.34 70.3627ZM1091.25 95.5127L1089.76 70.1022L1099.93 69.5028C1101.8 69.3927 1103.38 69.5779 1104.66 70.0585C1105.94 70.5391 1106.92 71.2531 1107.61 72.2004C1108.3 73.1394 1108.68 74.2458 1108.75 75.5197C1108.81 76.5122 1108.66 77.3966 1108.31 78.1727C1107.96 78.9406 1107.45 79.5848 1106.78 80.1055C1106.12 80.6174 1105.36 80.9987 1104.48 81.2494L1104.5 81.4976C1105.47 81.4819 1106.39 81.7015 1107.26 82.1564C1108.14 82.6107 1108.88 83.2773 1109.46 84.156C1110.04 85.0264 1110.37 86.0861 1110.44 87.3351C1110.52 88.6834 1110.26 89.9066 1109.65 91.0049C1109.05 92.0944 1108.12 92.9834 1106.86 93.672C1105.6 94.3607 1104.01 94.761 1102.11 94.8731L1091.25 95.5127ZM1096.37 90.804L1100.75 90.5459C1102.24 90.4577 1103.32 90.108 1103.97 89.4968C1104.63 88.8773 1104.92 88.0879 1104.87 87.1283C1104.83 86.4253 1104.62 85.8149 1104.25 85.2972C1103.88 84.7795 1103.37 84.3862 1102.72 84.1172C1102.08 83.8477 1101.33 83.7383 1100.47 83.7889L1095.97 84.0543L1096.37 90.804ZM1095.76 80.4189L1099.74 80.1843C1100.47 80.1409 1101.12 79.9742 1101.68 79.6841C1102.24 79.3853 1102.67 78.9863 1102.98 78.487C1103.29 77.9873 1103.42 77.4024 1103.38 76.7324C1103.33 75.8143 1102.96 75.0932 1102.27 74.5692C1101.59 74.0448 1100.66 73.8176 1099.47 73.8878L1095.39 74.1283L1095.76 80.4189ZM1118.23 68.4248L1119.73 93.8353L1114.35 94.1518L1112.86 68.7413L1118.23 68.4248ZM1124.15 93.5748L1122.65 68.1643L1128.02 67.8478L1129.26 88.8288L1140.15 88.187L1140.41 92.6165L1124.15 93.5748ZM1149 92.1106L1143.24 92.4498L1150.52 66.5225L1157.44 66.1146L1167.7 91.009L1161.94 91.3482L1154.42 72.1194L1154.22 72.1311L1149 92.1106ZM1148.05 82.1438L1161.65 81.3427L1161.9 85.5364L1148.3 86.3376L1148.05 82.1438ZM1170.75 90.8288L1169.26 65.4183L1179.43 64.8189C1181.3 64.7088 1182.88 64.894 1184.16 65.3746C1185.44 65.8552 1186.42 66.5692 1187.11 67.5165C1187.8 68.4555 1188.18 69.5619 1188.25 70.8358C1188.31 71.8284 1188.16 72.7127 1187.81 73.4888C1187.46 74.2567 1186.95 74.9009 1186.28 75.4216C1185.62 75.9335 1184.86 76.3148 1183.98 76.5655L1184 76.8137C1184.97 76.798 1185.89 77.0176 1186.76 77.4725C1187.65 77.9268 1188.38 78.5934 1188.96 79.4721C1189.54 80.3425 1189.87 81.4022 1189.94 82.6512C1190.02 83.9995 1189.76 85.2228 1189.15 86.321C1188.55 87.4105 1187.62 88.2995 1186.36 88.9881C1185.1 89.6768 1183.51 90.0771 1181.61 90.1892L1170.75 90.8288ZM1175.87 86.1201L1180.25 85.862C1181.75 85.7738 1182.82 85.4241 1183.47 84.8129C1184.13 84.1935 1184.42 83.404 1184.37 82.4445C1184.33 81.7414 1184.12 81.131 1183.75 80.6133C1183.38 80.0956 1182.87 79.7023 1182.22 79.4333C1181.58 79.1638 1180.84 79.0544 1179.97 79.105L1175.47 79.3704L1175.87 86.1201ZM1175.26 75.735L1179.24 75.5004C1179.98 75.457 1180.62 75.2903 1181.18 75.0002C1181.74 74.7014 1182.17 74.3024 1182.48 73.8032C1182.79 73.3034 1182.92 72.7185 1182.88 72.0485C1182.83 71.1304 1182.46 70.4093 1181.77 69.8854C1181.09 69.3609 1180.16 69.1338 1178.97 69.2039L1174.89 69.4444L1175.26 75.735ZM1206.57 70.5533C1206.41 69.5582 1205.94 68.8058 1205.16 68.2959C1204.37 67.7861 1203.33 67.5692 1202.04 67.6452C1201.17 67.6969 1200.43 67.8645 1199.84 68.1483C1199.25 68.4237 1198.81 68.786 1198.51 69.2352C1198.23 69.6838 1198.1 70.1811 1198.13 70.727C1198.14 71.1829 1198.26 71.5744 1198.48 71.9013C1198.72 72.2278 1199.03 72.5041 1199.42 72.7303C1199.8 72.9483 1200.25 73.1339 1200.75 73.2871C1201.24 73.432 1201.77 73.5502 1202.33 73.6417L1204.65 74.0531C1205.77 74.2359 1206.81 74.5069 1207.76 74.8659C1208.71 75.2249 1209.54 75.6863 1210.26 76.2502C1210.97 76.814 1211.54 77.4944 1211.96 78.2914C1212.39 79.0879 1212.64 80.0153 1212.71 81.0735C1212.79 82.6291 1212.47 84.0008 1211.76 85.1886C1211.04 86.3676 1209.97 87.3148 1208.54 88.0302C1207.11 88.7368 1205.36 89.151 1203.29 89.2729C1201.24 89.3937 1199.44 89.1847 1197.88 88.6457C1196.33 88.1062 1195.09 87.2454 1194.16 86.0631C1193.25 84.872 1192.71 83.3637 1192.57 81.5381L1197.76 81.2318C1197.87 82.0804 1198.16 82.7774 1198.62 83.3228C1199.09 83.8594 1199.7 84.2511 1200.45 84.4977C1201.2 84.7356 1202.04 84.8272 1202.97 84.7726C1203.88 84.719 1204.66 84.5401 1205.31 84.236C1205.97 83.9313 1206.48 83.5323 1206.82 83.0389C1207.17 82.5454 1207.32 81.9927 1207.29 81.3806C1207.25 80.8098 1207.05 80.3401 1206.69 79.9713C1206.34 79.602 1205.83 79.2999 1205.17 79.0649C1204.52 78.8295 1203.72 78.6274 1202.78 78.4587L1199.97 77.9269C1197.8 77.532 1196.06 76.8169 1194.75 75.7816C1193.45 74.7463 1192.74 73.2895 1192.64 71.4114C1192.54 69.8734 1192.87 68.5051 1193.63 67.3066C1194.4 66.1076 1195.49 65.1426 1196.91 64.4117C1198.33 63.6807 1199.96 63.2607 1201.82 63.1515C1203.7 63.0404 1205.37 63.266 1206.81 63.8284C1208.26 64.3902 1209.42 65.2229 1210.27 66.3263C1211.12 67.4298 1211.61 68.7376 1211.72 70.2499L1206.57 70.5533ZM1306.62 82.824L1297.62 83.3547L1296.12 57.9442L1305.2 57.4091C1307.76 57.2585 1309.99 57.6376 1311.89 58.5464C1313.79 59.4468 1315.3 60.8149 1316.4 62.6506C1317.52 64.4859 1318.15 66.7228 1318.31 69.3615C1318.46 72.0084 1318.09 74.3126 1317.21 76.274C1316.33 78.235 1314.98 79.779 1313.18 80.9061C1311.39 82.0326 1309.2 82.6719 1306.62 82.824ZM1302.72 78.435L1306.13 78.234C1307.72 78.1404 1309.04 77.7805 1310.09 77.1542C1311.14 76.5191 1311.91 75.5899 1312.39 74.3666C1312.87 73.1346 1313.06 71.5715 1312.95 69.6773C1312.83 67.7996 1312.47 66.2815 1311.84 65.1231C1311.23 63.9641 1310.36 63.1353 1309.24 62.6367C1308.13 62.1381 1306.77 61.9355 1305.19 62.0291L1301.76 62.2309L1302.72 78.435ZM1326.91 56.1301L1328.41 81.5405L1323.03 81.8571L1321.54 56.4466L1326.91 56.1301ZM1332.83 81.2801L1331.33 55.8696L1341.5 55.2702C1343.37 55.1601 1344.95 55.3453 1346.23 55.8259C1347.51 56.3065 1348.5 57.0205 1349.18 57.9678C1349.87 58.9068 1350.25 60.0132 1350.33 61.2871C1350.38 62.2796 1350.24 63.164 1349.88 63.9401C1349.53 64.708 1349.02 65.3522 1348.35 65.8729C1347.7 66.3848 1346.93 66.7661 1346.06 67.0168L1346.07 67.265C1347.04 67.2493 1347.96 67.4689 1348.84 67.9238C1349.72 68.3781 1350.45 69.0447 1351.03 69.9234C1351.62 70.7938 1351.94 71.8535 1352.02 73.1025C1352.1 74.4508 1351.83 75.6741 1351.23 76.7723C1350.63 77.8618 1349.69 78.7508 1348.43 79.4394C1347.17 80.1281 1345.59 80.5284 1343.68 80.6405L1332.83 81.2801ZM1337.94 76.5714L1342.32 76.3133C1343.82 76.2251 1344.89 75.8754 1345.55 75.2642C1346.2 74.6447 1346.5 73.8553 1346.44 72.8958C1346.4 72.1927 1346.19 71.5823 1345.82 71.0646C1345.45 70.5469 1344.94 70.1536 1344.3 69.8846C1343.66 69.6151 1342.91 69.5057 1342.05 69.5563L1337.54 69.8217L1337.94 76.5714ZM1337.33 66.1863L1341.31 65.9517C1342.05 65.9083 1342.69 65.7416 1343.25 65.4515C1343.81 65.1527 1344.25 64.7537 1344.55 64.2544C1344.86 63.7547 1345 63.1698 1344.96 62.4998C1344.9 61.5817 1344.53 60.8606 1343.84 60.3367C1343.17 59.8122 1342.23 59.585 1341.04 59.6552L1336.96 59.8957L1337.33 66.1863ZM1359.8 54.1922L1361.3 79.6027L1355.93 79.9192L1354.43 54.5087L1359.8 54.1922ZM1365.72 79.3422L1364.22 53.9318L1369.59 53.6152L1370.83 74.5962L1381.72 73.9544L1381.99 78.3839L1365.72 79.3422ZM1390.57 77.878L1384.81 78.2172L1392.09 52.2899L1399.01 51.882L1409.27 76.7764L1403.51 77.1156L1395.99 57.8868L1395.79 57.8985L1390.57 77.878ZM1389.62 67.9112L1403.22 67.1101L1403.47 71.3038L1389.87 72.105L1389.62 67.9112ZM1412.33 76.5962L1410.83 51.1857L1421.01 50.5863C1422.87 50.4762 1424.45 50.6614 1425.73 51.142C1427.01 51.6226 1428 52.3366 1428.68 53.2839C1429.37 54.2229 1429.75 55.3293 1429.83 56.6032C1429.88 57.5958 1429.74 58.4801 1429.38 59.2562C1429.03 60.0241 1428.52 60.6683 1427.86 61.189C1427.2 61.701 1426.43 62.0823 1425.56 62.3329L1425.57 62.5811C1426.54 62.5654 1427.46 62.785 1428.34 63.2399C1429.22 63.6942 1429.95 64.3608 1430.53 65.2395C1431.12 66.1099 1431.44 67.1696 1431.52 68.4186C1431.6 69.7669 1431.33 70.9902 1430.73 72.0884C1430.13 73.1779 1429.19 74.0669 1427.93 74.7556C1426.67 75.4442 1425.09 75.8445 1423.18 75.9566L1412.33 76.5962ZM1417.44 71.8875L1421.82 71.6294C1423.32 71.5412 1424.39 71.1915 1425.05 70.5803C1425.7 69.9609 1426 69.1714 1425.94 68.2119C1425.9 67.5088 1425.69 66.8984 1425.32 66.3807C1424.95 65.863 1424.44 65.4697 1423.8 65.2007C1423.16 64.9312 1422.41 64.8218 1421.55 64.8724L1417.04 65.1378L1417.44 71.8875ZM1416.83 61.5024L1420.81 61.2678C1421.55 61.2244 1422.19 61.0577 1422.75 60.7676C1423.31 60.4688 1423.75 60.0698 1424.05 59.5706C1424.36 59.0708 1424.5 58.4859 1424.46 57.8159C1424.4 56.8978 1424.03 56.1767 1423.35 55.6528C1422.67 55.1283 1421.73 54.9012 1420.54 54.9713L1416.46 55.2118L1416.83 61.5024ZM1448.15 56.3207C1447.99 55.3256 1447.52 54.5732 1446.73 54.0633C1445.95 53.5535 1444.91 53.3366 1443.62 53.4126C1442.74 53.4643 1442.01 53.632 1441.42 53.9157C1440.83 54.1911 1440.38 54.5534 1440.09 55.0026C1439.8 55.4512 1439.67 55.9485 1439.7 56.4944C1439.71 56.9503 1439.83 57.3418 1440.06 57.6687C1440.29 57.9952 1440.6 58.2715 1440.99 58.4977C1441.38 58.7157 1441.82 58.9013 1442.32 59.0545C1442.82 59.1995 1443.35 59.3176 1443.91 59.4091L1446.22 59.8205C1447.35 60.0033 1448.38 60.2743 1449.33 60.6333C1450.28 60.9923 1451.12 61.4537 1451.83 62.0176C1452.54 62.5814 1453.11 63.2618 1453.53 64.0588C1453.96 64.8553 1454.21 65.7827 1454.28 66.8409C1454.36 68.3965 1454.05 69.7682 1453.33 70.956C1452.62 72.135 1451.54 73.0822 1450.11 73.7976C1448.68 74.5042 1446.93 74.9184 1444.87 75.0403C1442.81 75.1611 1441.01 74.9521 1439.45 74.4131C1437.9 73.8736 1436.66 73.0128 1435.74 71.8305C1434.82 70.6394 1434.29 69.1311 1434.14 67.3055L1439.34 66.9992C1439.45 67.8478 1439.73 68.5448 1440.2 69.0902C1440.67 69.6268 1441.28 70.0185 1442.02 70.2651C1442.77 70.503 1443.61 70.5946 1444.54 70.54C1445.45 70.4864 1446.23 70.3075 1446.89 70.0034C1447.55 69.6987 1448.05 69.2997 1448.4 68.8063C1448.74 68.3128 1448.89 67.7601 1448.86 67.148C1448.82 66.5772 1448.63 66.1075 1448.27 65.7387C1447.91 65.3694 1447.4 65.0673 1446.74 64.8324C1446.09 64.5969 1445.29 64.3948 1444.35 64.2261L1441.55 63.6943C1439.37 63.2994 1437.63 62.5843 1436.33 61.549C1435.02 60.5137 1434.32 59.0569 1434.21 57.1788C1434.12 55.6408 1434.45 54.2725 1435.21 53.074C1435.97 51.875 1437.07 50.9101 1438.48 50.1791C1439.9 49.4481 1441.54 49.0281 1443.39 48.9189C1445.28 48.8078 1446.94 49.0334 1448.38 49.5958C1449.84 50.1576 1450.99 50.9903 1451.84 52.0937C1452.7 53.1972 1453.18 54.505 1453.3 56.0173L1448.15 56.3207ZM1548.2 68.5914L1539.19 69.1221L1537.69 43.7116L1546.77 43.1765C1549.33 43.0259 1551.56 43.405 1553.46 44.3138C1555.37 45.2142 1556.87 46.5823 1557.98 48.418C1559.09 50.2533 1559.72 52.4902 1559.88 55.1289C1560.03 57.7758 1559.67 60.08 1558.78 62.0414C1557.9 64.0024 1556.56 65.5464 1554.76 66.6735C1552.96 67.8 1550.78 68.4393 1548.2 68.5914ZM1544.29 64.2024L1547.7 64.0014C1549.29 63.9078 1550.61 63.5479 1551.66 62.9216C1552.72 62.2865 1553.48 61.3573 1553.96 60.134C1554.44 58.902 1554.63 57.3389 1554.52 55.4447C1554.41 53.567 1554.04 52.0489 1553.42 50.8905C1552.8 49.7315 1551.93 48.9027 1550.82 48.4041C1549.7 47.9055 1548.35 47.7029 1546.76 47.7965L1543.33 47.9983L1544.29 64.2024ZM1568.48 41.8975L1569.98 67.3079L1564.61 67.6245L1563.11 42.214L1568.48 41.8975ZM1574.4 67.0475L1572.9 41.637L1583.08 41.0376C1584.95 40.9275 1586.52 41.1127 1587.8 41.5933C1589.09 42.0739 1590.07 42.7879 1590.76 43.7352C1591.44 44.6742 1591.82 45.7806 1591.9 47.0545C1591.96 48.0471 1591.81 48.9314 1591.46 49.7075C1591.1 50.4754 1590.59 51.1196 1589.93 51.6403C1589.27 52.1522 1588.5 52.5335 1587.63 52.7842L1587.64 53.0324C1588.61 53.0167 1589.54 53.2363 1590.41 53.6912C1591.29 54.1455 1592.02 54.8121 1592.61 55.6908C1593.19 56.5612 1593.52 57.6209 1593.59 58.8699C1593.67 60.2182 1593.41 61.4415 1592.8 62.5397C1592.2 63.6292 1591.27 64.5182 1590 65.2068C1588.74 65.8955 1587.16 66.2958 1585.26 66.4079L1574.4 67.0475ZM1579.51 62.3388L1583.89 62.0807C1585.39 61.9925 1586.47 61.6428 1587.12 61.0316C1587.77 60.4122 1588.07 59.6227 1588.01 58.6632C1587.97 57.9601 1587.77 57.3497 1587.39 56.832C1587.02 56.3143 1586.52 55.921 1585.87 55.652C1585.23 55.3825 1584.48 55.2731 1583.62 55.3237L1579.12 55.5891L1579.51 62.3388ZM1578.9 51.9537L1582.89 51.7191C1583.62 51.6757 1584.27 51.509 1584.82 51.2189C1585.39 50.9201 1585.82 50.5211 1586.12 50.0218C1586.43 49.5221 1586.57 48.9372 1586.53 48.2672C1586.48 47.3491 1586.1 46.628 1585.42 46.1041C1584.74 45.5796 1583.81 45.3525 1582.61 45.4226L1578.53 45.6631L1578.9 51.9537ZM1601.38 39.9596L1602.87 65.3701L1597.5 65.6866L1596 40.2761L1601.38 39.9596ZM1607.29 65.1096L1605.8 39.6992L1611.17 39.3826L1612.4 60.3637L1623.3 59.7218L1623.56 64.1513L1607.29 65.1096ZM1632.14 63.6454L1626.39 63.9846L1633.66 38.0573L1640.59 37.6494L1650.84 62.5438L1645.09 62.883L1637.57 43.6542L1637.37 43.6659L1632.14 63.6454ZM1631.2 53.6786L1644.8 52.8775L1645.04 57.0712L1631.44 57.8724L1631.2 53.6786ZM1653.9 62.3636L1652.4 36.9531L1662.58 36.3537C1664.45 36.2436 1666.02 36.4288 1667.31 36.9094C1668.59 37.3901 1669.57 38.104 1670.26 39.0513C1670.94 39.9903 1671.32 41.0967 1671.4 42.3706C1671.46 43.3632 1671.31 44.2475 1670.96 45.0236C1670.6 45.7915 1670.1 46.4357 1669.43 46.9564C1668.77 47.4684 1668 47.8497 1667.13 48.1003L1667.14 48.3485C1668.12 48.3328 1669.04 48.5524 1669.91 49.0073C1670.79 49.4616 1671.52 50.1282 1672.11 51.0069C1672.69 51.8773 1673.02 52.937 1673.09 54.186C1673.17 55.5343 1672.91 56.7576 1672.3 57.8558C1671.7 58.9453 1670.77 59.8343 1669.51 60.523C1668.24 61.2116 1666.66 61.6119 1664.76 61.724L1653.9 62.3636ZM1659.02 57.6549L1663.39 57.3968C1664.89 57.3086 1665.97 56.9589 1666.62 56.3477C1667.27 55.7283 1667.57 54.9388 1667.51 53.9793C1667.47 53.2762 1667.27 52.6658 1666.9 52.1481C1666.52 51.6304 1666.02 51.2371 1665.37 50.9681C1664.73 50.6986 1663.98 50.5892 1663.12 50.6399L1658.62 50.9052L1659.02 57.6549ZM1658.4 47.2698L1662.39 47.0352C1663.12 46.9918 1663.77 46.8251 1664.32 46.535C1664.89 46.2362 1665.32 45.8372 1665.62 45.338C1665.93 44.8382 1666.07 44.2534 1666.03 43.5833C1665.98 42.6652 1665.61 41.9441 1664.92 41.4202C1664.24 40.8957 1663.31 40.6686 1662.11 40.7387L1658.03 40.9792L1658.4 47.2698ZM1689.72 42.0881C1689.56 41.093 1689.09 40.3406 1688.3 39.8307C1687.52 39.3209 1686.48 39.104 1685.19 39.18C1684.31 39.2317 1683.58 39.3994 1682.99 39.6831C1682.4 39.9585 1681.96 40.3208 1681.66 40.77C1681.37 41.2186 1681.24 41.7159 1681.28 42.2618C1681.29 42.7177 1681.4 43.1092 1681.63 43.4361C1681.87 43.7626 1682.18 44.0389 1682.56 44.2651C1682.95 44.4831 1683.39 44.6687 1683.89 44.8219C1684.39 44.9669 1684.92 45.085 1685.48 45.1765L1687.8 45.5879C1688.92 45.7707 1689.96 46.0417 1690.91 46.4007C1691.86 46.7597 1692.69 47.2211 1693.4 47.785C1694.12 48.3488 1694.69 49.0292 1695.11 49.8262C1695.53 50.6227 1695.78 51.5501 1695.85 52.6083C1695.94 54.1639 1695.62 55.5356 1694.9 56.7234C1694.19 57.9024 1693.12 58.8496 1691.68 59.565C1690.26 60.2716 1688.51 60.6858 1686.44 60.8077C1684.39 60.9285 1682.58 60.7195 1681.02 60.1805C1679.47 59.641 1678.24 58.7802 1677.31 57.5979C1676.39 56.4069 1675.86 54.8985 1675.71 53.0729L1680.91 52.7666C1681.02 53.6152 1681.3 54.3122 1681.77 54.8576C1682.24 55.3942 1682.85 55.7859 1683.59 56.0325C1684.35 56.2704 1685.19 56.362 1686.11 56.3074C1687.02 56.2538 1687.8 56.0749 1688.46 55.7708C1689.12 55.4661 1689.62 55.0671 1689.97 54.5737C1690.31 54.0802 1690.47 53.5275 1690.43 52.9154C1690.4 52.3446 1690.2 51.8749 1689.84 51.5061C1689.48 51.1368 1688.98 50.8347 1688.32 50.5998C1687.66 50.3643 1686.87 50.1622 1685.93 49.9935L1683.12 49.4617C1680.95 49.0668 1679.21 48.3517 1677.9 47.3164C1676.59 46.2811 1675.89 44.8243 1675.79 42.9462C1675.69 41.4082 1676.02 40.0399 1676.78 38.8414C1677.55 37.6424 1678.64 36.6775 1680.06 35.9465C1681.47 35.2155 1683.11 34.7955 1684.96 34.6863C1686.85 34.5752 1688.51 34.8008 1689.96 35.3632C1691.41 35.925 1692.56 36.7577 1693.42 37.8611C1694.27 38.9646 1694.75 40.2724 1694.87 41.7847L1689.72 42.0881Z" fill="white"/>
<path d="M284.696 110.164C284.929 109.204 286.266 109.128 286.606 110.056L290.97 121.952C291.079 122.25 291.323 122.478 291.627 122.568L303.268 125.984C304.171 126.249 304.242 127.499 303.375 127.865L292.197 132.579C291.905 132.702 291.688 132.957 291.613 133.265L288.627 145.579C288.394 146.54 287.057 146.616 286.716 145.688L282.353 133.791C282.244 133.494 282 133.266 281.695 133.176L270.054 129.76C269.152 129.495 269.081 128.244 269.947 127.879L281.126 123.165C281.418 123.042 281.635 122.787 281.709 122.479L284.696 110.164Z" fill="white"/>
<path d="M529.272 95.755C529.505 94.7943 530.842 94.7182 531.183 95.6464L535.546 107.543C535.655 107.841 535.899 108.069 536.203 108.158L547.845 111.574C548.747 111.839 548.818 113.09 547.952 113.455L536.773 118.17C536.481 118.293 536.264 118.547 536.19 118.855L533.203 131.17C532.97 132.131 531.633 132.207 531.292 131.279L526.929 119.382C526.82 119.084 526.576 118.856 526.272 118.767L514.63 115.351C513.728 115.086 513.657 113.835 514.523 113.47L525.702 108.755C525.994 108.632 526.211 108.378 526.285 108.07L529.272 95.755Z" fill="white"/>
<path d="M770.853 81.5219C771.086 80.5611 772.423 80.485 772.764 81.4132L777.127 93.3098C777.236 93.6074 777.48 93.8357 777.785 93.9249L789.426 97.3412C790.328 97.606 790.399 98.8567 789.533 99.2222L778.354 103.936C778.062 104.06 777.845 104.314 777.771 104.622L774.784 116.937C774.551 117.898 773.214 117.974 772.874 117.045L768.51 105.149C768.401 104.851 768.157 104.623 767.853 104.534L756.211 101.117C755.309 100.853 755.238 99.6019 756.105 99.2365L767.283 94.5222C767.575 94.399 767.792 94.1446 767.867 93.8365L770.853 81.5219Z" fill="white"/>
<path d="M1012.43 67.2887C1012.67 66.3279 1014 66.2519 1014.34 67.1801L1018.71 79.0766C1018.82 79.3743 1019.06 79.6025 1019.37 79.6918L1031.01 83.108C1031.91 83.3728 1031.98 84.6236 1031.11 84.989L1019.94 89.7032C1019.64 89.8264 1019.43 90.0808 1019.35 90.3889L1016.37 102.704C1016.13 103.664 1014.8 103.74 1014.45 102.812L1010.09 90.9157C1009.98 90.618 1009.74 90.3898 1009.43 90.3005L997.793 86.8843C996.89 86.6194 996.819 85.3687 997.686 85.0033L1008.86 80.2891C1009.16 80.1659 1009.37 79.9115 1009.45 79.6033L1012.43 67.2887Z" fill="white"/>
<path d="M1254.02 53.0558C1254.25 52.095 1255.59 52.019 1255.93 52.9472L1260.29 64.8437C1260.4 65.1414 1260.64 65.3696 1260.95 65.4589L1272.59 68.8751C1273.49 69.1399 1273.56 70.3907 1272.69 70.7561L1261.52 75.4703C1261.22 75.5935 1261.01 75.8479 1260.93 76.156L1257.95 88.4706C1257.71 89.4314 1256.38 89.5075 1256.04 88.5793L1251.67 76.6828C1251.56 76.3851 1251.32 76.1569 1251.01 76.0676L1239.37 72.6513C1238.47 72.3865 1238.4 71.1358 1239.27 70.7704L1250.45 66.0562C1250.74 65.933 1250.95 65.6785 1251.03 65.3704L1254.02 53.0558Z" fill="white"/>
<path d="M44.1138 124.339C44.3468 123.378 45.684 123.302 46.0244 124.23L50.388 136.127C50.4972 136.424 50.741 136.653 51.0453 136.742L62.6865 140.158C63.5888 140.423 63.6599 141.674 62.7934 142.039L51.6147 146.753C51.3226 146.876 51.1062 147.131 51.0314 147.439L48.0449 159.754C47.8119 160.714 46.4747 160.79 46.1343 159.862L41.7707 147.966C41.6615 147.668 41.4176 147.44 41.1134 147.351L29.4722 143.934C28.5699 143.669 28.4988 142.419 29.3652 142.053L40.544 137.339C40.8361 137.216 41.0525 136.962 41.1273 136.653L44.1138 124.339Z" fill="white"/>
</svg>
