<svg width="1440" height="220" viewBox="0 0 1440 220" fill="none" xmlns="http://www.w3.org/2000/svg">
<rect x="-170.82" y="120.259" width="1668" height="92" transform="rotate(-3.37176 -170.82 120.259)" fill="#065097"/>
<path d="M-244.825 185.724L-253.833 186.255L-255.33 160.845L-246.247 160.31C-243.691 160.159 -241.461 160.538 -239.557 161.447C-237.653 162.347 -236.149 163.715 -235.044 165.551C-233.932 167.386 -233.298 169.623 -233.143 172.262C-232.987 174.909 -233.353 177.213 -234.242 179.174C-235.122 181.135 -236.463 182.679 -238.264 183.806C-240.057 184.933 -242.244 185.572 -244.825 185.724ZM-248.731 181.335L-245.319 181.134C-243.731 181.041 -242.412 180.681 -241.361 180.055C-240.303 179.419 -239.536 178.49 -239.06 177.267C-238.577 176.035 -238.391 174.472 -238.503 172.578C-238.613 170.7 -238.981 169.182 -239.605 168.023C-240.221 166.865 -241.088 166.036 -242.204 165.537C-243.321 165.038 -244.673 164.836 -246.262 164.93L-249.686 165.131L-248.731 181.335ZM-224.537 159.03L-223.04 184.441L-228.413 184.757L-229.91 159.347L-224.537 159.03ZM-218.62 184.181L-220.117 158.77L-209.943 158.171C-208.074 158.06 -206.498 158.246 -205.217 158.726C-203.935 159.207 -202.951 159.921 -202.264 160.868C-201.578 161.807 -201.197 162.914 -201.122 164.187C-201.064 165.18 -201.211 166.064 -201.564 166.841C-201.917 167.608 -202.427 168.253 -203.093 168.773C-203.752 169.285 -204.518 169.667 -205.391 169.917L-205.377 170.165C-204.407 170.15 -203.485 170.369 -202.611 170.824C-201.73 171.279 -200.997 171.945 -200.414 172.824C-199.832 173.694 -199.504 174.754 -199.43 176.003C-199.351 177.351 -199.615 178.574 -200.222 179.673C-200.822 180.762 -201.754 181.651 -203.016 182.34C-204.279 183.028 -205.861 183.429 -207.764 183.541L-218.62 184.181ZM-213.507 179.472L-209.127 179.214C-207.63 179.126 -206.555 178.776 -205.902 178.165C-205.249 177.545 -204.951 176.756 -205.008 175.796C-205.049 175.093 -205.255 174.483 -205.626 173.965C-205.997 173.447 -206.506 173.054 -207.152 172.785C-207.791 172.515 -208.54 172.406 -209.4 172.457L-213.904 172.722L-213.507 179.472ZM-214.118 169.087L-210.136 168.852C-209.399 168.809 -208.754 168.642 -208.198 168.352C-207.634 168.053 -207.201 167.654 -206.899 167.155C-206.588 166.655 -206.452 166.07 -206.492 165.4C-206.546 164.482 -206.916 163.761 -207.603 163.237C-208.281 162.713 -209.216 162.485 -210.407 162.556L-214.489 162.796L-214.118 169.087ZM-191.645 157.093L-190.148 182.503L-195.521 182.82L-197.018 157.409L-191.645 157.093ZM-185.728 182.243L-187.225 156.832L-181.853 156.516L-180.617 177.497L-169.723 176.855L-169.462 181.284L-185.728 182.243ZM-160.876 180.778L-166.633 181.118L-159.358 155.19L-152.435 154.782L-142.178 179.677L-147.935 180.016L-155.455 160.787L-155.653 160.799L-160.876 180.778ZM-161.824 170.812L-148.226 170.01L-147.979 174.204L-161.577 175.005L-161.824 170.812ZM-139.119 179.497L-140.616 154.086L-130.442 153.487C-128.573 153.377 -126.997 153.562 -125.716 154.042C-124.434 154.523 -123.45 155.237 -122.763 156.184C-122.077 157.123 -121.697 158.23 -121.622 159.504C-121.563 160.496 -121.71 161.381 -122.063 162.157C-122.416 162.924 -122.926 163.569 -123.592 164.089C-124.251 164.601 -125.017 164.983 -125.891 165.233L-125.876 165.481C-124.906 165.466 -123.984 165.685 -123.111 166.14C-122.229 166.595 -121.496 167.261 -120.913 168.14C-120.331 169.01 -120.003 170.07 -119.929 171.319C-119.85 172.667 -120.114 173.891 -120.722 174.989C-121.321 176.078 -122.253 176.967 -123.515 177.656C-124.778 178.345 -126.36 178.745 -128.263 178.857L-139.119 179.497ZM-134.006 174.788L-129.626 174.53C-128.129 174.442 -127.054 174.092 -126.401 173.481C-125.748 172.861 -125.45 172.072 -125.507 171.112C-125.548 170.409 -125.754 169.799 -126.125 169.281C-126.496 168.763 -127.005 168.37 -127.652 168.101C-128.29 167.832 -129.039 167.722 -129.9 167.773L-134.403 168.038L-134.006 174.788ZM-134.618 164.403L-130.635 164.168C-129.899 164.125 -129.253 163.958 -128.697 163.668C-128.134 163.369 -127.701 162.97 -127.398 162.471C-127.087 161.971 -126.951 161.386 -126.991 160.716C-127.045 159.798 -127.415 159.077 -128.102 158.553C-128.78 158.029 -129.715 157.802 -130.906 157.872L-134.988 158.112L-134.618 164.403ZM-103.302 159.221C-103.46 158.226 -103.932 157.474 -104.717 156.964C-105.502 156.454 -106.54 156.237 -107.831 156.313C-108.707 156.365 -109.44 156.532 -110.03 156.816C-110.619 157.092 -111.063 157.454 -111.36 157.903C-111.649 158.352 -111.777 158.849 -111.745 159.395C-111.735 159.851 -111.617 160.242 -111.39 160.569C-111.155 160.896 -110.844 161.172 -110.457 161.398C-110.071 161.616 -109.628 161.802 -109.129 161.955C-108.631 162.1 -108.101 162.218 -107.54 162.309L-105.224 162.721C-104.101 162.904 -103.065 163.175 -102.114 163.534C-101.163 163.893 -100.331 164.354 -99.6168 164.918C-98.903 165.482 -98.3358 166.162 -97.9153 166.959C-97.4866 167.756 -97.2369 168.683 -97.1663 169.741C-97.0829 171.297 -97.4005 172.669 -98.1191 173.856C-98.8298 175.035 -99.9029 175.983 -101.338 176.698C-102.766 177.405 -104.513 177.819 -106.581 177.941C-108.633 178.062 -110.438 177.852 -111.997 177.313C-113.548 176.774 -114.785 175.913 -115.71 174.731C-116.627 173.54 -117.16 172.032 -117.309 170.206L-112.11 169.9C-112.002 170.748 -111.716 171.445 -111.252 171.991C-110.781 172.527 -110.172 172.919 -109.427 173.165C-108.675 173.403 -107.835 173.495 -106.909 173.44C-105.999 173.387 -105.217 173.208 -104.562 172.904C-103.9 172.599 -103.396 172.2 -103.052 171.707C-102.707 171.213 -102.553 170.66 -102.589 170.048C-102.623 169.478 -102.821 169.008 -103.183 168.639C-103.536 168.27 -104.044 167.968 -104.705 167.733C-105.358 167.497 -106.154 167.295 -107.094 167.126L-109.902 166.595C-112.075 166.2 -113.814 165.485 -115.12 164.449C-116.426 163.414 -117.131 161.957 -117.233 160.079C-117.332 158.541 -117.002 157.173 -116.242 155.974C-115.475 154.775 -114.382 153.81 -112.964 153.079C-111.546 152.349 -109.911 151.928 -108.058 151.819C-106.172 151.708 -104.507 151.934 -103.063 152.496C-101.61 153.058 -100.457 153.891 -99.6039 154.994C-98.7503 156.098 -98.2666 157.405 -98.1526 158.918L-103.302 159.221ZM-3.25149 171.492L-12.2593 172.023L-13.7564 146.612L-4.67414 146.077C-2.1182 145.926 0.11203 146.305 2.01655 147.214C3.92058 148.115 5.42469 149.483 6.52889 151.318C7.64136 153.154 8.27532 155.391 8.43078 158.029C8.58673 160.676 8.22031 162.98 7.33153 164.942C6.45102 166.903 5.11018 168.447 3.309 169.574C1.51609 170.7 -0.670737 171.34 -3.25149 171.492ZM-7.15808 167.103L-3.74603 166.902C-2.15787 166.808 -0.838569 166.448 0.211878 165.822C1.27011 165.187 2.0371 164.258 2.51285 163.034C2.99639 161.802 3.18236 160.239 3.07076 158.345C2.96013 156.467 2.59263 154.949 1.96826 153.791C1.35215 152.632 0.485737 151.803 -0.630987 151.305C-1.74771 150.806 -3.10015 150.603 -4.68831 150.697L-8.11276 150.899L-7.15808 167.103ZM17.0358 144.798L18.5329 170.208L13.1605 170.525L11.6634 145.114L17.0358 144.798ZM22.9531 169.948L21.456 144.537L31.6301 143.938C33.4995 143.828 35.075 144.013 36.3567 144.494C37.6384 144.974 38.6225 145.688 39.3092 146.636C39.9953 147.575 40.3759 148.681 40.4509 149.955C40.5094 150.947 40.3623 151.832 40.0096 152.608C39.6565 153.376 39.1466 154.02 38.48 154.541C37.8213 155.053 37.0552 155.434 36.1818 155.685L36.1964 155.933C37.1667 155.917 38.0885 156.137 38.9619 156.592C39.8436 157.046 40.576 157.712 41.159 158.591C41.7415 159.462 42.0695 160.521 42.1431 161.77C42.2226 163.119 41.9585 164.342 41.3508 165.44C40.751 166.53 39.8198 167.419 38.5572 168.107C37.2946 168.796 35.7121 169.196 33.8096 169.308L22.9531 169.948ZM28.0667 165.239L32.4466 164.981C33.9437 164.893 35.0188 164.543 35.6717 163.932C36.3241 163.313 36.6221 162.523 36.5655 161.564C36.5241 160.86 36.318 160.25 35.9472 159.732C35.5764 159.215 35.0676 158.821 34.421 158.552C33.7825 158.283 33.0332 158.173 32.173 158.224L27.6691 158.489L28.0667 165.239ZM27.4549 154.854L31.4377 154.619C32.1739 154.576 32.8198 154.409 33.3754 154.119C33.9388 153.821 34.3718 153.421 34.6744 152.922C34.9853 152.423 35.121 151.838 35.0815 151.168C35.0274 150.249 34.6571 149.528 33.9705 149.004C33.2922 148.48 32.3574 148.253 31.1663 148.323L27.0843 148.564L27.4549 154.854ZM49.928 142.86L51.4251 168.27L46.0527 168.587L44.5556 143.176L49.928 142.86ZM55.8453 168.01L54.3482 142.6L59.7206 142.283L60.9567 163.264L71.8505 162.622L72.1114 167.052L55.8453 168.01ZM80.6974 166.546L74.9403 166.885L82.2153 140.958L89.1387 140.55L99.3954 165.444L93.6384 165.783L86.1184 146.555L85.9199 146.566L80.6974 166.546ZM79.7491 156.579L93.3477 155.778L93.5948 159.972L79.9962 160.773L79.7491 156.579ZM102.454 165.264L100.957 139.854L111.131 139.254C113 139.144 114.576 139.329 115.858 139.81C117.139 140.29 118.123 141.004 118.81 141.952C119.496 142.891 119.877 143.997 119.952 145.271C120.01 146.264 119.863 147.148 119.51 147.924C119.157 148.692 118.647 149.336 117.981 149.857C117.322 150.369 116.556 150.75 115.683 151.001L115.697 151.249C116.667 151.233 117.589 151.453 118.463 151.908C119.344 152.362 120.077 153.029 120.66 153.907C121.242 154.778 121.57 155.837 121.644 157.086C121.723 158.435 121.459 159.658 120.852 160.756C120.252 161.846 119.321 162.735 118.058 163.423C116.795 164.112 115.213 164.512 113.31 164.624L102.454 165.264ZM107.568 160.555L111.947 160.297C113.445 160.209 114.52 159.859 115.173 159.248C115.825 158.629 116.123 157.839 116.066 156.88C116.025 156.177 115.819 155.566 115.448 155.049C115.077 154.531 114.568 154.137 113.922 153.868C113.283 153.599 112.534 153.49 111.674 153.54L107.17 153.806L107.568 160.555ZM106.956 150.17L110.938 149.936C111.675 149.892 112.321 149.725 112.876 149.435C113.44 149.137 113.873 148.738 114.175 148.238C114.486 147.739 114.622 147.154 114.582 146.484C114.528 145.566 114.158 144.845 113.471 144.321C112.793 143.796 111.858 143.569 110.667 143.639L106.585 143.88L106.956 150.17ZM138.272 144.988C138.113 143.993 137.642 143.241 136.856 142.731C136.071 142.221 135.033 142.004 133.743 142.08C132.866 142.132 132.133 142.3 131.544 142.583C130.954 142.859 130.51 143.221 130.213 143.67C129.924 144.119 129.796 144.616 129.828 145.162C129.838 145.618 129.957 146.01 130.184 146.337C130.419 146.663 130.729 146.939 131.116 147.166C131.503 147.383 131.945 147.569 132.444 147.722C132.942 147.867 133.472 147.985 134.034 148.077L136.349 148.488C137.472 148.671 138.509 148.942 139.46 149.301C140.41 149.66 141.243 150.121 141.956 150.685C142.67 151.249 143.237 151.93 143.658 152.727C144.087 153.523 144.336 154.45 144.407 155.509C144.49 157.064 144.173 158.436 143.454 159.624C142.743 160.803 141.67 161.75 140.235 162.465C138.808 163.172 137.06 163.586 134.992 163.708C132.941 163.829 131.135 163.62 129.576 163.081C128.026 162.541 126.788 161.681 125.863 160.498C124.947 159.307 124.414 157.799 124.265 155.973L129.463 155.667C129.571 156.516 129.857 157.213 130.321 157.758C130.793 158.295 131.401 158.686 132.146 158.933C132.899 159.171 133.738 159.262 134.665 159.208C135.574 159.154 136.357 158.975 137.011 158.671C137.674 158.367 138.177 157.967 138.522 157.474C138.866 156.981 139.02 156.428 138.984 155.816C138.951 155.245 138.753 154.775 138.391 154.406C138.037 154.037 137.529 153.735 136.868 153.5C136.215 153.265 135.419 153.063 134.479 152.894L131.672 152.362C129.498 151.967 127.759 151.252 126.453 150.217C125.147 149.181 124.443 147.725 124.34 145.847C124.241 144.309 124.572 142.94 125.331 141.742C126.099 140.543 127.191 139.578 128.609 138.847C130.027 138.116 131.662 137.696 133.515 137.587C135.401 137.476 137.066 137.701 138.51 138.264C139.963 138.825 141.116 139.658 141.969 140.762C142.823 141.865 143.307 143.173 143.421 144.685L138.272 144.988ZM238.322 157.259L229.314 157.79L227.817 132.379L236.899 131.844C239.455 131.694 241.685 132.073 243.59 132.982C245.494 133.882 246.998 135.25 248.102 137.086C249.215 138.921 249.849 141.158 250.004 143.797C250.16 146.444 249.794 148.748 248.905 150.709C248.024 152.67 246.683 154.214 244.882 155.341C243.089 156.468 240.903 157.107 238.322 157.259ZM234.415 152.87L237.827 152.669C239.415 152.576 240.735 152.216 241.785 151.589C242.843 150.954 243.61 150.025 244.086 148.802C244.57 147.57 244.756 146.007 244.644 144.112C244.533 142.235 244.166 140.717 243.542 139.558C242.925 138.399 242.059 137.571 240.942 137.072C239.826 136.573 238.473 136.371 236.885 136.464L233.461 136.666L234.415 152.87ZM258.609 130.565L260.106 155.976L254.734 156.292L253.237 130.882L258.609 130.565ZM264.526 155.715L263.029 130.305L273.203 129.705C275.073 129.595 276.648 129.781 277.93 130.261C279.212 130.742 280.196 131.456 280.882 132.403C281.569 133.342 281.949 134.448 282.024 135.722C282.083 136.715 281.936 137.599 281.583 138.375C281.23 139.143 280.72 139.787 280.053 140.308C279.395 140.82 278.628 141.201 277.755 141.452L277.77 141.7C278.74 141.684 279.662 141.904 280.535 142.359C281.417 142.813 282.149 143.48 282.732 144.359C283.315 145.229 283.643 146.289 283.716 147.538C283.796 148.886 283.532 150.109 282.924 151.207C282.324 152.297 281.393 153.186 280.13 153.875C278.868 154.563 277.285 154.964 275.383 155.076L264.526 155.715ZM269.64 151.007L274.02 150.749C275.517 150.66 276.592 150.311 277.245 149.699C277.897 149.08 278.195 148.29 278.139 147.331C278.097 146.628 277.891 146.017 277.52 145.5C277.15 144.982 276.641 144.589 275.994 144.32C275.356 144.05 274.607 143.941 273.746 143.992L269.242 144.257L269.64 151.007ZM269.028 140.622L273.011 140.387C273.747 140.343 274.393 140.177 274.949 139.887C275.512 139.588 275.945 139.189 276.248 138.69C276.559 138.19 276.694 137.605 276.655 136.935C276.601 136.017 276.23 135.296 275.544 134.772C274.865 134.247 273.931 134.02 272.74 134.09L268.658 134.331L269.028 140.622ZM291.501 128.627L292.998 154.038L287.626 154.354L286.129 128.944L291.501 128.627ZM297.419 153.777L295.921 128.367L301.294 128.05L302.53 149.031L313.424 148.39L313.685 152.819L297.419 153.777ZM322.271 152.313L316.514 152.652L323.789 126.725L330.712 126.317L340.969 151.212L335.212 151.551L327.692 132.322L327.493 132.334L322.271 152.313ZM321.322 142.346L334.921 141.545L335.168 145.739L321.569 146.54L321.322 142.346ZM344.027 151.031L342.53 125.621L352.704 125.022C354.574 124.911 356.149 125.097 357.431 125.577C358.712 126.058 359.697 126.772 360.383 127.719C361.069 128.658 361.45 129.765 361.525 131.038C361.584 132.031 361.436 132.915 361.084 133.691C360.731 134.459 360.221 135.104 359.554 135.624C358.895 136.136 358.129 136.517 357.256 136.768L357.271 137.016C358.241 137.001 359.163 137.22 360.036 137.675C360.918 138.129 361.65 138.796 362.233 139.675C362.816 140.545 363.144 141.605 363.217 142.854C363.297 144.202 363.033 145.425 362.425 146.524C361.825 147.613 360.894 148.502 359.631 149.191C358.369 149.879 356.786 150.28 354.884 150.392L344.027 151.031ZM349.141 146.323L353.521 146.065C355.018 145.976 356.093 145.627 356.746 145.016C357.398 144.396 357.696 143.607 357.64 142.647C357.598 141.944 357.392 141.334 357.021 140.816C356.65 140.298 356.142 139.905 355.495 139.636C354.857 139.366 354.107 139.257 353.247 139.308L348.743 139.573L349.141 146.323ZM348.529 135.938L352.512 135.703C353.248 135.66 353.894 135.493 354.449 135.203C355.013 134.904 355.446 134.505 355.749 134.006C356.059 133.506 356.195 132.921 356.156 132.251C356.102 131.333 355.731 130.612 355.045 130.088C354.366 129.564 353.432 129.336 352.24 129.407L348.158 129.647L348.529 135.938ZM379.845 130.756C379.687 129.761 379.215 129.008 378.43 128.499C377.644 127.989 376.606 127.772 375.316 127.848C374.439 127.899 373.706 128.067 373.117 128.351C372.527 128.626 372.084 128.989 371.786 129.438C371.497 129.886 371.369 130.384 371.401 130.93C371.412 131.386 371.53 131.777 371.757 132.104C371.992 132.43 372.303 132.707 372.69 132.933C373.076 133.151 373.519 133.336 374.017 133.49C374.516 133.635 375.045 133.753 375.607 133.844L377.922 134.256C379.045 134.439 380.082 134.709 381.033 135.068C381.984 135.427 382.816 135.889 383.53 136.453C384.244 137.017 384.811 137.697 385.231 138.494C385.66 139.29 385.91 140.218 385.98 141.276C386.064 142.832 385.746 144.203 385.028 145.391C384.317 146.57 383.244 147.517 381.808 148.233C380.381 148.939 378.633 149.354 376.565 149.475C374.514 149.596 372.709 149.387 371.15 148.848C369.599 148.309 368.361 147.448 367.437 146.266C366.52 145.075 365.987 143.566 365.838 141.741L371.037 141.434C371.145 142.283 371.431 142.98 371.894 143.525C372.366 144.062 372.974 144.454 373.719 144.7C374.472 144.938 375.311 145.03 376.238 144.975C377.148 144.922 377.93 144.743 378.584 144.439C379.247 144.134 379.751 143.735 380.095 143.241C380.439 142.748 380.594 142.195 380.558 141.583C380.524 141.012 380.326 140.543 379.964 140.174C379.61 139.805 379.103 139.503 378.441 139.268C377.788 139.032 376.992 138.83 376.053 138.661L373.245 138.129C371.072 137.735 369.332 137.019 368.026 135.984C366.72 134.949 366.016 133.492 365.914 131.614C365.815 130.076 366.145 128.708 366.904 127.509C367.672 126.31 368.765 125.345 370.183 124.614C371.6 123.883 373.236 123.463 375.089 123.354C376.974 123.243 378.64 123.469 380.084 124.031C381.536 124.593 382.689 125.425 383.543 126.529C384.396 127.632 384.88 128.94 384.994 130.452L379.845 130.756ZM479.895 143.027L470.887 143.557L469.39 118.147L478.472 117.612C481.028 117.461 483.259 117.84 485.163 118.749C487.067 119.649 488.571 121.018 489.675 122.853C490.788 124.688 491.422 126.925 491.577 129.564C491.733 132.211 491.367 134.515 490.478 136.477C489.598 138.438 488.257 139.982 486.456 141.109C484.663 142.235 482.476 142.875 479.895 143.027ZM475.989 138.638L479.401 138.437C480.989 138.343 482.308 137.983 483.358 137.357C484.417 136.722 485.184 135.793 485.659 134.569C486.143 133.337 486.329 131.774 486.217 129.88C486.107 128.002 485.739 126.484 485.115 125.326C484.499 124.167 483.632 123.338 482.516 122.839C481.399 122.341 480.046 122.138 478.458 122.232L475.034 122.433L475.989 138.638ZM500.182 116.333L501.679 141.743L496.307 142.06L494.81 116.649L500.182 116.333ZM506.1 141.483L504.603 116.072L514.777 115.473C516.646 115.363 518.222 115.548 519.503 116.029C520.785 116.509 521.769 117.223 522.456 118.17C523.142 119.109 523.522 120.216 523.598 121.49C523.656 122.482 523.509 123.367 523.156 124.143C522.803 124.911 522.293 125.555 521.627 126.076C520.968 126.587 520.202 126.969 519.328 127.219L519.343 127.468C520.313 127.452 521.235 127.672 522.109 128.126C522.99 128.581 523.723 129.247 524.306 130.126C524.888 130.996 525.216 132.056 525.29 133.305C525.369 134.653 525.105 135.877 524.497 136.975C523.898 138.064 522.966 138.953 521.704 139.642C520.441 140.331 518.859 140.731 516.956 140.843L506.1 141.483ZM511.213 136.774L515.593 136.516C517.09 136.428 518.165 136.078 518.818 135.467C519.471 134.847 519.769 134.058 519.712 133.098C519.671 132.395 519.465 131.785 519.094 131.267C518.723 130.75 518.214 130.356 517.568 130.087C516.929 129.818 516.18 129.708 515.32 129.759L510.816 130.024L511.213 136.774ZM510.601 126.389L514.584 126.154C515.32 126.111 515.966 125.944 516.522 125.654C517.085 125.355 517.518 124.956 517.821 124.457C518.132 123.957 518.268 123.372 518.228 122.702C518.174 121.784 517.804 121.063 517.117 120.539C516.439 120.015 515.504 119.788 514.313 119.858L510.231 120.098L510.601 126.389ZM533.075 114.395L534.572 139.805L529.199 140.122L527.702 114.711L533.075 114.395ZM538.992 139.545L537.495 114.134L542.867 113.818L544.103 134.799L554.997 134.157L555.258 138.586L538.992 139.545ZM563.844 138.081L558.087 138.42L565.362 112.493L572.285 112.085L582.542 136.979L576.785 137.318L569.265 118.089L569.066 118.101L563.844 138.081ZM562.896 128.114L576.494 127.313L576.741 131.506L563.143 132.308L562.896 128.114ZM585.6 136.799L584.103 111.388L594.277 110.789C596.147 110.679 597.722 110.864 599.004 111.345C600.286 111.825 601.27 112.539 601.957 113.486C602.643 114.426 603.023 115.532 603.098 116.806C603.157 117.798 603.01 118.683 602.657 119.459C602.304 120.227 601.794 120.871 601.127 121.392C600.469 121.904 599.703 122.285 598.829 122.536L598.844 122.784C599.814 122.768 600.736 122.988 601.609 123.442C602.491 123.897 603.223 124.563 603.806 125.442C604.389 126.312 604.717 127.372 604.791 128.621C604.87 129.97 604.606 131.193 603.998 132.291C603.398 133.38 602.467 134.27 601.205 134.958C599.942 135.647 598.359 136.047 596.457 136.159L585.6 136.799ZM590.714 132.09L595.094 131.832C596.591 131.744 597.666 131.394 598.319 130.783C598.972 130.163 599.269 129.374 599.213 128.414C599.172 127.711 598.965 127.101 598.595 126.583C598.224 126.066 597.715 125.672 597.068 125.403C596.43 125.134 595.681 125.024 594.82 125.075L590.316 125.34L590.714 132.09ZM590.102 121.705L594.085 121.47C594.821 121.427 595.467 121.26 596.023 120.97C596.586 120.671 597.019 120.272 597.322 119.773C597.633 119.273 597.768 118.689 597.729 118.019C597.675 117.1 597.304 116.379 596.618 115.855C595.94 115.331 595.005 115.104 593.814 115.174L589.732 115.414L590.102 121.705ZM621.418 116.523C621.26 115.528 620.788 114.776 620.003 114.266C619.217 113.756 618.18 113.539 616.889 113.615C616.012 113.667 615.279 113.835 614.69 114.118C614.1 114.394 613.657 114.756 613.36 115.205C613.071 115.654 612.942 116.151 612.975 116.697C612.985 117.153 613.103 117.544 613.33 117.871C613.565 118.198 613.876 118.474 614.263 118.7C614.649 118.918 615.092 119.104 615.591 119.257C616.089 119.402 616.619 119.52 617.18 119.612L619.495 120.023C620.618 120.206 621.655 120.477 622.606 120.836C623.557 121.195 624.389 121.656 625.103 122.22C625.817 122.784 626.384 123.464 626.805 124.261C627.233 125.058 627.483 125.985 627.554 127.044C627.637 128.599 627.319 129.971 626.601 131.159C625.89 132.338 624.817 133.285 623.382 134C621.954 134.707 620.206 135.121 618.139 135.243C616.087 135.364 614.282 135.155 612.723 134.616C611.172 134.076 609.935 133.215 609.01 132.033C608.093 130.842 607.56 129.334 607.411 127.508L612.61 127.202C612.718 128.05 613.004 128.747 613.468 129.293C613.939 129.829 614.547 130.221 615.292 130.468C616.045 130.706 616.885 130.797 617.811 130.743C618.721 130.689 619.503 130.51 620.158 130.206C620.82 129.901 621.324 129.502 621.668 129.009C622.013 128.515 622.167 127.963 622.131 127.351C622.097 126.78 621.899 126.31 621.537 125.941C621.184 125.572 620.676 125.27 620.015 125.035C619.362 124.8 618.565 124.597 617.626 124.429L614.818 123.897C612.645 123.502 610.905 122.787 609.599 121.752C608.293 120.716 607.589 119.26 607.487 117.381C607.388 115.843 607.718 114.475 608.478 113.277C609.245 112.078 610.338 111.113 611.756 110.382C613.174 109.651 614.809 109.231 616.662 109.122C618.548 109.01 620.213 109.236 621.657 109.798C623.109 110.36 624.262 111.193 625.116 112.296C625.97 113.4 626.453 114.708 626.567 116.22L621.418 116.523ZM721.468 128.794L712.461 129.325L710.963 103.914L720.046 103.379C722.602 103.229 724.832 103.608 726.736 104.516C728.64 105.417 730.145 106.785 731.249 108.621C732.361 110.456 732.995 112.693 733.151 115.331C733.307 117.978 732.94 120.283 732.051 122.244C731.171 124.205 729.83 125.749 728.029 126.876C726.236 128.003 724.049 128.642 721.468 128.794ZM717.562 124.405L720.974 124.204C722.562 124.11 723.881 123.75 724.932 123.124C725.99 122.489 726.757 121.56 727.233 120.337C727.716 119.105 727.902 117.541 727.791 115.647C727.68 113.77 727.313 112.252 726.688 111.093C726.072 109.934 725.206 109.105 724.089 108.607C722.972 108.108 721.62 107.906 720.032 107.999L716.607 108.201L717.562 124.405ZM741.756 102.1L743.253 127.511L737.88 127.827L736.383 102.417L741.756 102.1ZM747.673 127.25L746.176 101.84L756.35 101.24C758.219 101.13 759.795 101.315 761.077 101.796C762.358 102.277 763.342 102.99 764.029 103.938C764.715 104.877 765.096 105.983 765.171 107.257C765.229 108.25 765.082 109.134 764.73 109.91C764.376 110.678 763.866 111.322 763.2 111.843C762.541 112.355 761.775 112.736 760.902 112.987L760.916 113.235C761.887 113.219 762.808 113.439 763.682 113.894C764.564 114.348 765.296 115.015 765.879 115.893C766.461 116.764 766.789 117.824 766.863 119.073C766.942 120.421 766.678 121.644 766.071 122.742C765.471 123.832 764.54 124.721 763.277 125.409C762.014 126.098 760.432 126.498 758.529 126.611L747.673 127.25ZM752.787 122.541L757.166 122.283C758.664 122.195 759.739 121.845 760.392 121.234C761.044 120.615 761.342 119.825 761.285 118.866C761.244 118.163 761.038 117.552 760.667 117.035C760.296 116.517 759.788 116.124 759.141 115.855C758.502 115.585 757.753 115.476 756.893 115.526L752.389 115.792L752.787 122.541ZM752.175 112.156L756.158 111.922C756.894 111.878 757.54 111.712 758.095 111.422C758.659 111.123 759.092 110.724 759.394 110.224C759.705 109.725 759.841 109.14 759.801 108.47C759.747 107.552 759.377 106.831 758.69 106.307C758.012 105.782 757.077 105.555 755.886 105.625L751.804 105.866L752.175 112.156ZM774.648 100.162L776.145 125.573L770.773 125.889L769.275 100.479L774.648 100.162ZM780.565 125.312L779.068 99.9018L784.44 99.5852L785.677 120.566L796.57 119.924L796.831 124.354L780.565 125.312ZM805.417 123.848L799.66 124.187L806.935 98.2599L813.859 97.852L824.115 122.746L818.358 123.086L810.838 103.857L810.64 103.869L805.417 123.848ZM804.469 113.881L818.068 113.08L818.315 117.274L804.716 118.075L804.469 113.881ZM827.174 122.566L825.677 97.1558L835.851 96.5563C837.72 96.4462 839.296 96.6314 840.577 97.112C841.859 97.5927 842.843 98.3066 843.53 99.2539C844.216 100.193 844.597 101.299 844.672 102.573C844.73 103.566 844.583 104.45 844.23 105.226C843.877 105.994 843.367 106.638 842.701 107.159C842.042 107.671 841.276 108.052 840.403 108.303L840.417 108.551C841.387 108.535 842.309 108.755 843.183 109.21C844.064 109.664 844.797 110.331 845.38 111.209C845.962 112.08 846.29 113.14 846.364 114.389C846.443 115.737 846.179 116.96 845.572 118.058C844.972 119.148 844.04 120.037 842.778 120.726C841.515 121.414 839.933 121.815 838.03 121.927L827.174 122.566ZM832.287 117.857L836.667 117.599C838.164 117.511 839.239 117.162 839.892 116.55C840.545 115.931 840.843 115.141 840.786 114.182C840.745 113.479 840.539 112.868 840.168 112.351C839.797 111.833 839.288 111.44 838.642 111.171C838.003 110.901 837.254 110.792 836.394 110.842L831.89 111.108L832.287 117.857ZM831.676 107.472L835.658 107.238C836.395 107.194 837.04 107.028 837.596 106.738C838.159 106.439 838.593 106.04 838.895 105.541C839.206 105.041 839.342 104.456 839.302 103.786C839.248 102.868 838.878 102.147 838.191 101.623C837.513 101.098 836.578 100.871 835.387 100.941L831.305 101.182L831.676 107.472ZM862.992 102.291C862.833 101.296 862.361 100.543 861.576 100.033C860.791 99.5235 859.753 99.3066 858.462 99.3826C857.586 99.4343 856.853 99.602 856.263 99.8857C855.674 100.161 855.23 100.523 854.933 100.973C854.644 101.421 854.516 101.918 854.548 102.464C854.558 102.92 854.677 103.312 854.903 103.639C855.138 103.965 855.449 104.242 855.836 104.468C856.223 104.686 856.665 104.871 857.164 105.025C857.662 105.169 858.192 105.288 858.754 105.379L861.069 105.79C862.192 105.973 863.229 106.244 864.179 106.603C865.13 106.962 865.962 107.424 866.676 107.988C867.39 108.551 867.957 109.232 868.378 110.029C868.807 110.825 869.056 111.753 869.127 112.811C869.21 114.367 868.893 115.738 868.174 116.926C867.463 118.105 866.39 119.052 864.955 119.768C863.527 120.474 861.78 120.888 859.712 121.01C857.66 121.131 855.855 120.922 854.296 120.383C852.745 119.844 851.508 118.983 850.583 117.8C849.666 116.609 849.133 115.101 848.984 113.276L854.183 112.969C854.291 113.818 854.577 114.515 855.041 115.06C855.512 115.597 856.121 115.988 856.866 116.235C857.618 116.473 858.458 116.565 859.384 116.51C860.294 116.456 861.076 116.278 861.731 115.973C862.394 115.669 862.897 115.27 863.242 114.776C863.586 114.283 863.74 113.73 863.704 113.118C863.67 112.547 863.473 112.077 863.111 111.709C862.757 111.339 862.249 111.037 861.588 110.802C860.935 110.567 860.139 110.365 859.199 110.196L856.391 109.664C854.218 109.269 852.479 108.554 851.173 107.519C849.867 106.484 849.162 105.027 849.06 103.149C848.961 101.611 849.291 100.242 850.051 99.044C850.819 97.845 851.911 96.8801 853.329 96.1491C854.747 95.4181 856.382 94.9981 858.235 94.8889C860.121 94.7778 861.786 95.0034 863.23 95.5658C864.683 96.1276 865.836 96.9603 866.689 98.0637C867.543 99.1672 868.027 100.475 868.141 101.987L862.992 102.291ZM963.042 114.561L954.034 115.092L952.537 89.6816L961.619 89.1465C964.175 88.996 966.405 89.375 968.31 90.2838C970.214 91.1842 971.718 92.5523 972.822 94.388C973.935 96.2233 974.568 98.4602 974.724 101.099C974.88 103.746 974.513 106.05 973.625 108.011C972.744 109.972 971.403 111.516 969.602 112.643C967.809 113.77 965.622 114.409 963.042 114.561ZM959.135 110.172L962.547 109.971C964.135 109.878 965.455 109.518 966.505 108.892C967.563 108.257 968.33 107.327 968.806 106.104C969.29 104.872 969.476 103.309 969.364 101.415C969.253 99.537 968.886 98.019 968.261 96.8605C967.645 95.7015 966.779 94.8727 965.662 94.3741C964.545 93.8755 963.193 93.673 961.605 93.7665L958.18 93.9683L959.135 110.172ZM983.329 87.8675L984.826 113.278L979.454 113.594L977.957 88.184L983.329 87.8675ZM989.246 113.018L987.749 87.607L997.923 87.0076C999.793 86.8975 1001.37 87.0827 1002.65 87.5633C1003.93 88.044 1004.92 88.7579 1005.6 89.7052C1006.29 90.6442 1006.67 91.7506 1006.74 93.0245C1006.8 94.0171 1006.66 94.9014 1006.3 95.6775C1005.95 96.4454 1005.44 97.0896 1004.77 97.6103C1004.11 98.1223 1003.35 98.5036 1002.47 98.7542L1002.49 99.0024C1003.46 98.9867 1004.38 99.2063 1005.26 99.6612C1006.14 100.116 1006.87 100.782 1007.45 101.661C1008.03 102.531 1008.36 103.591 1008.44 104.84C1008.52 106.188 1008.25 107.411 1007.64 108.51C1007.04 109.599 1006.11 110.488 1004.85 111.177C1003.59 111.865 1002.01 112.266 1000.1 112.378L989.246 113.018ZM994.36 108.309L998.74 108.051C1000.24 107.963 1001.31 107.613 1001.96 107.002C1002.62 106.382 1002.92 105.593 1002.86 104.633C1002.82 103.93 1002.61 103.32 1002.24 102.802C1001.87 102.284 1001.36 101.891 1000.71 101.622C1000.08 101.352 999.326 101.243 998.466 101.294L993.962 101.559L994.36 108.309ZM993.748 97.9237L997.731 97.6891C998.467 97.6457 999.113 97.479 999.669 97.1889C1000.23 96.8901 1000.66 96.4911 1000.97 95.9919C1001.28 95.4921 1001.41 94.9073 1001.37 94.2372C1001.32 93.3191 1000.95 92.598 1000.26 92.0741C999.585 91.5496 998.651 91.3225 997.459 91.3926L993.377 91.6331L993.748 97.9237ZM1016.22 85.9296L1017.72 111.34L1012.35 111.657L1010.85 86.2461L1016.22 85.9296ZM1022.14 111.08L1020.64 85.6692L1026.01 85.3526L1027.25 106.334L1038.14 105.692L1038.4 110.121L1022.14 111.08ZM1046.99 109.615L1041.23 109.955L1048.51 84.0273L1055.43 83.6194L1065.69 108.514L1059.93 108.853L1052.41 89.6242L1052.21 89.6359L1046.99 109.615ZM1046.04 99.6486L1059.64 98.8475L1059.89 103.041L1046.29 103.842L1046.04 99.6486ZM1068.75 108.334L1067.25 82.9232L1077.42 82.3237C1079.29 82.2136 1080.87 82.3988 1082.15 82.8794C1083.43 83.3601 1084.42 84.074 1085.1 85.0213C1085.79 85.9603 1086.17 87.0667 1086.24 88.3406C1086.3 89.3332 1086.16 90.2175 1085.8 90.9936C1085.45 91.7615 1084.94 92.4057 1084.27 92.9264C1083.62 93.4384 1082.85 93.8197 1081.98 94.0703L1081.99 94.3185C1082.96 94.3028 1083.88 94.5224 1084.76 94.9773C1085.64 95.4317 1086.37 96.0982 1086.95 96.9769C1087.54 97.8473 1087.86 98.907 1087.94 100.156C1088.02 101.504 1087.75 102.728 1087.14 103.826C1086.54 104.915 1085.61 105.804 1084.35 106.493C1083.09 107.182 1081.51 107.582 1079.6 107.694L1068.75 108.334ZM1073.86 103.625L1078.24 103.367C1079.74 103.279 1080.81 102.929 1081.47 102.318C1082.12 101.698 1082.42 100.909 1082.36 99.9493C1082.32 99.2462 1082.11 98.6358 1081.74 98.1181C1081.37 97.6004 1080.86 97.2071 1080.21 96.9381C1079.58 96.6686 1078.83 96.5592 1077.97 96.6099L1073.46 96.8752L1073.86 103.625ZM1073.25 93.2398L1077.23 93.0052C1077.97 92.9618 1078.61 92.7951 1079.17 92.505C1079.73 92.2062 1080.17 91.8072 1080.47 91.308C1080.78 90.8082 1080.91 90.2234 1080.88 89.5534C1080.82 88.6352 1080.45 87.9141 1079.76 87.3902C1079.09 86.8657 1078.15 86.6386 1076.96 86.7087L1072.88 86.9492L1073.25 93.2398ZM1104.56 88.0581C1104.41 87.063 1103.93 86.3106 1103.15 85.8008C1102.36 85.2909 1101.33 85.074 1100.04 85.15C1099.16 85.2017 1098.43 85.3694 1097.84 85.6531C1097.25 85.9285 1096.8 86.2908 1096.51 86.74C1096.22 87.1886 1096.09 87.6859 1096.12 88.2318C1096.13 88.6877 1096.25 89.0792 1096.48 89.4061C1096.71 89.7326 1097.02 90.0089 1097.41 90.2352C1097.8 90.4531 1098.24 90.6387 1098.74 90.7919C1099.24 90.9369 1099.77 91.0551 1100.33 91.1465L1102.64 91.5579C1103.76 91.7407 1104.8 92.0117 1105.75 92.3707C1106.7 92.7297 1107.54 93.1911 1108.25 93.755C1108.96 94.3188 1109.53 94.9993 1109.95 95.7962C1110.38 96.5927 1110.63 97.5201 1110.7 98.5784C1110.78 100.134 1110.47 101.506 1109.75 102.693C1109.04 103.872 1107.96 104.82 1106.53 105.535C1105.1 106.242 1103.35 106.656 1101.29 106.778C1099.23 106.899 1097.43 106.689 1095.87 106.151C1094.32 105.611 1093.08 104.75 1092.16 103.568C1091.24 102.377 1090.71 100.869 1090.56 99.0429L1095.76 98.7367C1095.86 99.5852 1096.15 100.282 1096.61 100.828C1097.09 101.364 1097.69 101.756 1098.44 102.003C1099.19 102.24 1100.03 102.332 1100.96 102.277C1101.87 102.224 1102.65 102.045 1103.3 101.741C1103.97 101.436 1104.47 101.037 1104.81 100.544C1105.16 100.05 1105.31 99.4975 1105.28 98.8854C1105.24 98.3147 1105.05 97.8449 1104.68 97.4761C1104.33 97.1068 1103.82 96.8047 1103.16 96.5698C1102.51 96.3343 1101.71 96.1322 1100.77 95.9635L1097.96 95.4317C1095.79 95.0368 1094.05 94.3217 1092.75 93.2864C1091.44 92.2511 1090.74 90.7944 1090.63 88.9162C1090.53 87.3782 1090.86 86.0099 1091.62 84.8114C1092.39 83.6124 1093.48 82.6475 1094.9 81.9165C1096.32 81.1855 1097.96 80.7655 1099.81 80.6563C1101.69 80.5452 1103.36 80.7708 1104.8 81.3332C1106.26 81.895 1107.41 82.7277 1108.26 83.8311C1109.12 84.9346 1109.6 86.2425 1109.71 87.7547L1104.56 88.0581ZM1204.61 100.329L1195.61 100.86L1194.11 75.449L1203.19 74.9139C1205.75 74.7634 1207.98 75.1424 1209.88 76.0512C1211.79 76.9516 1213.29 78.3197 1214.4 80.1555C1215.51 81.9907 1216.14 84.2276 1216.3 86.8663C1216.45 89.5132 1216.09 91.8174 1215.2 93.7788C1214.32 95.7398 1212.98 97.2838 1211.18 98.4109C1209.38 99.5374 1207.2 100.177 1204.61 100.329ZM1200.71 95.9398L1204.12 95.7388C1205.71 95.6452 1207.03 95.2853 1208.08 94.659C1209.14 94.0239 1209.9 93.0947 1210.38 91.8714C1210.86 90.6394 1211.05 89.0763 1210.94 87.1821C1210.83 85.3044 1210.46 83.7864 1209.83 82.6279C1209.22 81.4689 1208.35 80.6401 1207.24 80.1415C1206.12 79.6429 1204.77 79.4404 1203.18 79.5339L1199.75 79.7357L1200.71 95.9398ZM1224.9 73.6349L1226.4 99.0454L1221.03 99.3619L1219.53 73.9514L1224.9 73.6349ZM1230.82 98.7849L1229.32 73.3745L1239.5 72.775C1241.37 72.6649 1242.94 72.8501 1244.22 73.3307C1245.5 73.8114 1246.49 74.5253 1247.18 75.4726C1247.86 76.4116 1248.24 77.518 1248.32 78.7919C1248.38 79.7845 1248.23 80.6688 1247.88 81.4449C1247.52 82.2128 1247.01 82.857 1246.35 83.3777C1245.69 83.8897 1244.92 84.271 1244.05 84.5216L1244.06 84.7698C1245.03 84.7541 1245.95 84.9737 1246.83 85.4286C1247.71 85.8829 1248.44 86.5495 1249.03 87.4282C1249.61 88.2986 1249.94 89.3583 1250.01 90.6073C1250.09 91.9556 1249.82 93.1789 1249.22 94.2771C1248.62 95.3666 1247.69 96.2556 1246.42 96.9443C1245.16 97.6329 1243.58 98.0332 1241.68 98.1453L1230.82 98.7849ZM1235.93 94.0762L1240.31 93.8181C1241.81 93.7299 1242.89 93.3802 1243.54 92.769C1244.19 92.1496 1244.49 91.3601 1244.43 90.4006C1244.39 89.6975 1244.18 89.0871 1243.81 88.5694C1243.44 88.0517 1242.93 87.6584 1242.29 87.3894C1241.65 87.1199 1240.9 87.0105 1240.04 87.0612L1235.54 87.3265L1235.93 94.0762ZM1235.32 83.6911L1239.3 83.4565C1240.04 83.4131 1240.69 83.2464 1241.24 82.9563C1241.81 82.6575 1242.24 82.2585 1242.54 81.7593C1242.85 81.2595 1242.99 80.6747 1242.95 80.0047C1242.89 79.0865 1242.52 78.3654 1241.84 77.8415C1241.16 77.317 1240.22 77.0899 1239.03 77.16L1234.95 77.4005L1235.32 83.6911ZM1257.79 71.697L1259.29 97.1075L1253.92 97.424L1252.42 72.0135L1257.79 71.697ZM1263.71 96.847L1262.21 71.4366L1267.59 71.12L1268.82 92.1011L1279.72 91.4592L1279.98 95.8887L1263.71 96.847ZM1288.56 95.3829L1282.81 95.722L1290.08 69.7947L1297.01 69.3868L1307.26 94.2812L1301.5 94.6204L1293.98 75.3916L1293.79 75.4033L1288.56 95.3829ZM1287.62 85.416L1301.21 84.6149L1301.46 88.8086L1287.86 89.6098L1287.62 85.416ZM1310.32 94.101L1308.82 68.6906L1319 68.0911C1320.87 67.981 1322.44 68.1662 1323.72 68.6469C1325.01 69.1275 1325.99 69.8414 1326.68 70.7887C1327.36 71.7277 1327.74 72.8341 1327.82 74.108C1327.88 75.1006 1327.73 75.9849 1327.38 76.761C1327.02 77.5289 1326.51 78.1731 1325.85 78.6938C1325.19 79.2058 1324.42 79.5871 1323.55 79.8377L1323.56 80.0859C1324.53 80.0702 1325.46 80.2898 1326.33 80.7447C1327.21 81.1991 1327.94 81.8656 1328.53 82.7443C1329.11 83.6147 1329.44 84.6744 1329.51 85.9234C1329.59 87.2717 1329.33 88.495 1328.72 89.5932C1328.12 90.6827 1327.19 91.5718 1325.92 92.2604C1324.66 92.949 1323.08 93.3493 1321.18 93.4614L1310.32 94.101ZM1315.43 89.3923L1319.81 89.1342C1321.31 89.046 1322.39 88.6963 1323.04 88.0851C1323.69 87.4657 1323.99 86.6762 1323.93 85.7167C1323.89 85.0136 1323.69 84.4032 1323.31 83.8855C1322.94 83.3678 1322.43 82.9745 1321.79 82.7055C1321.15 82.436 1320.4 82.3266 1319.54 82.3773L1315.04 82.6426L1315.43 89.3923ZM1314.82 79.0072L1318.8 78.7726C1319.54 78.7292 1320.19 78.5625 1320.74 78.2724C1321.31 77.9736 1321.74 77.5746 1322.04 77.0754C1322.35 76.5756 1322.49 75.9908 1322.45 75.3208C1322.39 74.4026 1322.02 73.6815 1321.34 73.1576C1320.66 72.6331 1319.72 72.406 1318.53 72.4761L1314.45 72.7166L1314.82 79.0072ZM1346.14 73.8255C1345.98 72.8304 1345.51 72.078 1344.72 71.5682C1343.94 71.0583 1342.9 70.8414 1341.61 70.9174C1340.73 70.9691 1340 71.1368 1339.41 71.4205C1338.82 71.6959 1338.38 72.0582 1338.08 72.5074C1337.79 72.956 1337.66 73.4533 1337.69 73.9992C1337.7 74.4551 1337.82 74.8466 1338.05 75.1735C1338.29 75.5 1338.6 75.7763 1338.98 76.0026C1339.37 76.2205 1339.81 76.4061 1340.31 76.5593C1340.81 76.7043 1341.34 76.8225 1341.9 76.9139L1344.22 77.3253C1345.34 77.5081 1346.38 77.7791 1347.33 78.1381C1348.28 78.4971 1349.11 78.9585 1349.82 79.5224C1350.54 80.0862 1351.1 80.7667 1351.52 81.5636C1351.95 82.3601 1352.2 83.2875 1352.27 84.3458C1352.36 85.9013 1352.04 87.273 1351.32 88.4608C1350.61 89.6398 1349.54 90.587 1348.1 91.3024C1346.67 92.009 1344.93 92.4233 1342.86 92.5451C1340.81 92.6659 1339 92.4569 1337.44 91.9179C1335.89 91.3784 1334.65 90.5176 1333.73 89.3353C1332.81 88.1443 1332.28 86.6359 1332.13 84.8103L1337.33 84.5041C1337.44 85.3526 1337.72 86.0496 1338.19 86.595C1338.66 87.1317 1339.27 87.5233 1340.01 87.7699C1340.76 88.0078 1341.6 88.0994 1342.53 88.0448C1343.44 87.9912 1344.22 87.8123 1344.88 87.5082C1345.54 87.2035 1346.04 86.8045 1346.39 86.3111C1346.73 85.8177 1346.89 85.2649 1346.85 84.6528C1346.82 84.0821 1346.62 83.6123 1346.26 83.2435C1345.9 82.8742 1345.4 82.5721 1344.73 82.3372C1344.08 82.1017 1343.29 81.8996 1342.35 81.7309L1339.54 81.1991C1337.36 80.8042 1335.63 80.0891 1334.32 79.0538C1333.01 78.0185 1332.31 76.5618 1332.21 74.6836C1332.11 73.1456 1332.44 71.7773 1333.2 70.5788C1333.97 69.3798 1335.06 68.4149 1336.48 67.6839C1337.89 66.9529 1339.53 66.5329 1341.38 66.4237C1343.27 66.3126 1344.93 66.5382 1346.38 67.1006C1347.83 67.6624 1348.98 68.4951 1349.84 69.5985C1350.69 70.702 1351.17 72.0099 1351.29 73.5221L1346.14 73.8255ZM1446.19 86.0962L1437.18 86.6269L1435.68 61.2164L1444.77 60.6813C1447.32 60.5308 1449.55 60.9098 1451.46 61.8186C1453.36 62.719 1454.86 64.0871 1455.97 65.9229C1457.08 67.7581 1457.72 69.995 1457.87 72.6337C1458.03 75.2806 1457.66 77.5848 1456.77 79.5462C1455.89 81.5072 1454.55 83.0512 1452.75 84.1783C1450.96 85.3049 1448.77 85.9442 1446.19 86.0962ZM1442.28 81.7072L1445.69 81.5062C1447.28 81.4126 1448.6 81.0527 1449.65 80.4264C1450.71 79.7913 1451.48 78.8621 1451.95 77.6389C1452.44 76.4068 1452.62 74.8437 1452.51 72.9495C1452.4 71.0718 1452.03 69.5538 1451.41 68.3953C1450.79 67.2363 1449.93 66.4075 1448.81 65.9089C1447.69 65.4103 1446.34 65.2078 1444.75 65.3013L1441.33 65.5031L1442.28 81.7072ZM1466.48 59.4023L1467.97 84.8128L1462.6 85.1293L1461.1 59.7188L1466.48 59.4023ZM1472.39 84.5523L1470.9 59.1419L1481.07 58.5424C1482.94 58.4323 1484.51 58.6175 1485.8 59.0981C1487.08 59.5788 1488.06 60.2927 1488.75 61.24C1489.44 62.179 1489.82 63.2854 1489.89 64.5593C1489.95 65.5519 1489.8 66.4362 1489.45 67.2123C1489.1 67.9802 1488.59 68.6244 1487.92 69.1451C1487.26 69.6571 1486.49 70.0384 1485.62 70.289L1485.64 70.5372C1486.61 70.5215 1487.53 70.7411 1488.4 71.196C1489.28 71.6504 1490.02 72.3169 1490.6 73.1956C1491.18 74.066 1491.51 75.1257 1491.58 76.3747C1491.66 77.723 1491.4 78.9463 1490.79 80.0445C1490.19 81.134 1489.26 82.023 1488 82.7117C1486.73 83.4003 1485.15 83.8006 1483.25 83.9127L1472.39 84.5523ZM1477.51 79.8436L1481.89 79.5855C1483.38 79.4973 1484.46 79.1476 1485.11 78.5364C1485.76 77.917 1486.06 77.1275 1486.01 76.168C1485.96 75.4649 1485.76 74.8545 1485.39 74.3368C1485.02 73.8191 1484.51 73.4258 1483.86 73.1568C1483.22 72.8873 1482.47 72.7779 1481.61 72.8286L1477.11 73.0939L1477.51 79.8436ZM1476.89 69.4585L1480.88 69.2239C1481.61 69.1805 1482.26 69.0138 1482.82 68.7237C1483.38 68.4249 1483.81 68.0259 1484.11 67.5267C1484.43 67.0269 1484.56 66.4421 1484.52 65.7721C1484.47 64.8539 1484.1 64.1328 1483.41 63.6089C1482.73 63.0844 1481.8 62.8573 1480.61 62.9274L1476.52 63.1679L1476.89 69.4585ZM1499.37 57.4644L1500.86 82.8749L1495.49 83.1914L1494 57.7809L1499.37 57.4644ZM1505.28 82.6145L1503.79 57.204L1509.16 56.8874L1510.4 77.8685L1521.29 77.2266L1521.55 81.6561L1505.28 82.6145ZM1530.14 81.1503L1524.38 81.4894L1531.66 55.5621L1538.58 55.1542L1548.84 80.0486L1543.08 80.3878L1535.56 61.159L1535.36 61.1707L1530.14 81.1503ZM1529.19 71.1834L1542.79 70.3823L1543.03 74.576L1529.44 75.3772L1529.19 71.1834ZM1551.89 79.8684L1550.4 54.458L1560.57 53.8585C1562.44 53.7484 1564.02 53.9336 1565.3 54.4143C1566.58 54.8949 1567.56 55.6088 1568.25 56.5561C1568.94 57.4951 1569.32 58.6015 1569.39 59.8754C1569.45 60.868 1569.3 61.7523 1568.95 62.5284C1568.6 63.2963 1568.09 63.9405 1567.42 64.4612C1566.76 64.9732 1566 65.3545 1565.12 65.6051L1565.14 65.8533C1566.11 65.8376 1567.03 66.0572 1567.9 66.5121C1568.78 66.9665 1569.52 67.633 1570.1 68.5117C1570.68 69.3821 1571.01 70.4418 1571.08 71.6908C1571.16 73.0391 1570.9 74.2624 1570.29 75.3606C1569.69 76.4501 1568.76 77.3392 1567.5 78.0278C1566.24 78.7164 1564.65 79.1167 1562.75 79.2288L1551.89 79.8684ZM1557.01 75.1597L1561.39 74.9016C1562.88 74.8134 1563.96 74.4637 1564.61 73.8525C1565.26 73.2331 1565.56 72.4436 1565.51 71.4841C1565.46 70.781 1565.26 70.1706 1564.89 69.6529C1564.52 69.1353 1564.01 68.7419 1563.36 68.4729C1562.72 68.2034 1561.97 68.094 1561.11 68.1447L1556.61 68.41L1557.01 75.1597ZM1556.4 64.7746L1560.38 64.54C1561.11 64.4966 1561.76 64.3299 1562.32 64.0399C1562.88 63.741 1563.31 63.342 1563.61 62.8428C1563.93 62.343 1564.06 61.7582 1564.02 61.0882C1563.97 60.17 1563.6 59.4489 1562.91 58.925C1562.23 58.4005 1561.3 58.1734 1560.11 58.2435L1556.02 58.484L1556.4 64.7746ZM1587.71 59.5929C1587.55 58.5979 1587.08 57.8454 1586.3 57.3356C1585.51 56.8257 1584.47 56.6088 1583.18 56.6848C1582.31 56.7365 1581.57 56.9042 1580.98 57.1879C1580.39 57.4633 1579.95 57.8256 1579.65 58.2748C1579.36 58.7234 1579.24 59.2207 1579.27 59.7666C1579.28 60.2225 1579.4 60.614 1579.62 60.9409C1579.86 61.2674 1580.17 61.5437 1580.56 61.77C1580.94 61.9879 1581.38 62.1735 1581.88 62.3267C1582.38 62.4717 1582.91 62.5899 1583.47 62.6813L1585.79 63.0927C1586.91 63.2756 1587.95 63.5465 1588.9 63.9055C1589.85 64.2645 1590.68 64.7259 1591.4 65.2898C1592.11 65.8536 1592.68 66.5341 1593.1 67.331C1593.53 68.1275 1593.78 69.0549 1593.85 70.1132C1593.93 71.6687 1593.61 73.0404 1592.89 74.2282C1592.18 75.4072 1591.11 76.3544 1589.67 77.0698C1588.25 77.7764 1586.5 78.1907 1584.43 78.3125C1582.38 78.4333 1580.58 78.2243 1579.02 77.6853C1577.47 77.1459 1576.23 76.285 1575.3 75.1027C1574.39 73.9117 1573.85 72.4033 1573.7 70.5778L1578.9 70.2715C1579.01 71.12 1579.3 71.817 1579.76 72.3624C1580.23 72.8991 1580.84 73.2907 1581.59 73.5373C1582.34 73.7752 1583.18 73.8668 1584.1 73.8122C1585.01 73.7586 1585.8 73.5797 1586.45 73.2756C1587.11 72.9709 1587.62 72.5719 1587.96 72.0785C1588.31 71.5851 1588.46 71.0323 1588.42 70.4202C1588.39 69.8495 1588.19 69.3797 1587.83 69.0109C1587.48 68.6416 1586.97 68.3395 1586.31 68.1046C1585.65 67.8691 1584.86 67.667 1583.92 67.4983L1581.11 66.9665C1578.94 66.5716 1577.2 65.8565 1575.89 64.8212C1574.59 63.7859 1573.88 62.3292 1573.78 60.451C1573.68 58.913 1574.01 57.5447 1574.77 56.3462C1575.54 55.1472 1576.63 54.1823 1578.05 53.4513C1579.47 52.7203 1581.1 52.3003 1582.95 52.1911C1584.84 52.08 1586.51 52.3056 1587.95 52.868C1589.4 53.4298 1590.56 54.2625 1591.41 55.3659C1592.26 56.4694 1592.75 57.7773 1592.86 59.2895L1587.71 59.5929ZM1687.76 71.8636L1678.75 72.3943L1677.26 46.9838L1686.34 46.4487C1688.89 46.2982 1691.13 46.6772 1693.03 47.586C1694.93 48.4864 1696.44 49.8545 1697.54 51.6903C1698.65 53.5255 1699.29 55.7624 1699.44 58.4011C1699.6 61.048 1699.23 63.3522 1698.34 65.3137C1697.46 67.2746 1696.12 68.8186 1694.32 69.9457C1692.53 71.0723 1690.34 71.7116 1687.76 71.8636ZM1683.85 67.4746L1687.27 67.2736C1688.86 67.18 1690.17 66.8201 1691.22 66.1938C1692.28 65.5587 1693.05 64.6295 1693.53 63.4063C1694.01 62.1742 1694.2 60.6111 1694.08 58.7169C1693.97 56.8392 1693.61 55.3212 1692.98 54.1627C1692.37 53.0037 1691.5 52.175 1690.38 51.6763C1689.27 51.1777 1687.91 50.9752 1686.32 51.0687L1682.9 51.2705L1683.85 67.4746ZM1708.05 45.1697L1709.55 70.5802L1704.17 70.8967L1702.68 45.4862L1708.05 45.1697ZM1713.97 70.3197L1712.47 44.9093L1722.64 44.3098C1724.51 44.1997 1726.09 44.3849 1727.37 44.8655C1728.65 45.3462 1729.64 46.0601 1730.32 47.0074C1731.01 47.9464 1731.39 49.0528 1731.46 50.3267C1731.52 51.3193 1731.38 52.2036 1731.02 52.9797C1730.67 53.7476 1730.16 54.3918 1729.49 54.9125C1728.83 55.4245 1728.07 55.8058 1727.19 56.0564L1727.21 56.3046C1728.18 56.2889 1729.1 56.5085 1729.97 56.9634C1730.86 57.4178 1731.59 58.0843 1732.17 58.963C1732.75 59.8334 1733.08 60.8931 1733.16 62.1421C1733.24 63.4904 1732.97 64.7137 1732.36 65.8119C1731.76 66.9014 1730.83 67.7905 1729.57 68.4791C1728.31 69.1677 1726.73 69.568 1724.82 69.6801L1713.97 70.3197ZM1719.08 65.611L1723.46 65.3529C1724.96 65.2647 1726.03 64.915 1726.68 64.3038C1727.34 63.6844 1727.64 62.8949 1727.58 61.9354C1727.54 61.2323 1727.33 60.6219 1726.96 60.1042C1726.59 59.5865 1726.08 59.1932 1725.43 58.9242C1724.8 58.6547 1724.05 58.5453 1723.19 58.596L1718.68 58.8613L1719.08 65.611ZM1718.47 55.2259L1722.45 54.9913C1723.19 54.9479 1723.83 54.7812 1724.39 54.4911C1724.95 54.1923 1725.38 53.7933 1725.69 53.2941C1726 52.7943 1726.13 52.2095 1726.09 51.5395C1726.04 50.6213 1725.67 49.9002 1724.98 49.3763C1724.31 48.8518 1723.37 48.6247 1722.18 48.6948L1718.1 48.9353L1718.47 55.2259ZM1740.94 43.2318L1742.44 68.6423L1737.07 68.9588L1735.57 43.5483L1740.94 43.2318ZM1746.86 68.3819L1745.36 42.9714L1750.73 42.6548L1751.97 63.6359L1762.86 62.994L1763.12 67.4235L1746.86 68.3819ZM1771.71 66.9177L1765.95 67.2568L1773.23 41.3295L1780.15 40.9216L1790.41 65.816L1784.65 66.1552L1777.13 46.9264L1776.93 46.9381L1771.71 66.9177ZM1770.76 56.9509L1784.36 56.1497L1784.61 60.3434L1771.01 61.1446L1770.76 56.9509ZM1793.47 65.6358L1791.97 40.2254L1802.14 39.6259C1804.01 39.5158 1805.59 39.701 1806.87 40.1817C1808.15 40.6623 1809.14 41.3762 1809.82 42.3235C1810.51 43.2625 1810.89 44.3689 1810.96 45.6428C1811.02 46.6354 1810.88 47.5197 1810.52 48.2958C1810.17 49.0637 1809.66 49.7079 1808.99 50.2286C1808.34 50.7406 1807.57 51.1219 1806.7 51.3725L1806.71 51.6207C1807.68 51.605 1808.6 51.8246 1809.48 52.2795C1810.36 52.7339 1811.09 53.4004 1811.67 54.2791C1812.26 55.1495 1812.58 56.2092 1812.66 57.4582C1812.74 58.8065 1812.47 60.0298 1811.86 61.128C1811.26 62.2175 1810.33 63.1066 1809.07 63.7952C1807.81 64.4838 1806.23 64.8841 1804.32 64.9962L1793.47 65.6358ZM1798.58 60.9271L1802.96 60.669C1804.46 60.5808 1805.53 60.2311 1806.19 59.6199C1806.84 59.0005 1807.14 58.211 1807.08 57.2515C1807.04 56.5484 1806.83 55.938 1806.46 55.4203C1806.09 54.9027 1805.58 54.5093 1804.93 54.2403C1804.3 53.9708 1803.55 53.8614 1802.69 53.9121L1798.18 54.1774L1798.58 60.9271ZM1797.97 50.542L1801.95 50.3074C1802.69 50.264 1803.33 50.0973 1803.89 49.8073C1804.45 49.5085 1804.89 49.1094 1805.19 48.6102C1805.5 48.1104 1805.63 47.5256 1805.6 46.8556C1805.54 45.9374 1805.17 45.2164 1804.48 44.6924C1803.81 44.1679 1802.87 43.9408 1801.68 44.011L1797.6 44.2515L1797.97 50.542ZM1829.28 45.3603C1829.13 44.3653 1828.65 43.6128 1827.87 43.103C1827.08 42.5931 1826.05 42.3762 1824.76 42.4522C1823.88 42.5039 1823.15 42.6716 1822.56 42.9553C1821.97 43.2308 1821.52 43.593 1821.23 44.0422C1820.94 44.4908 1820.81 44.9881 1820.84 45.534C1820.85 45.9899 1820.97 46.3814 1821.2 46.7083C1821.43 47.0348 1821.74 47.3111 1822.13 47.5374C1822.52 47.7553 1822.96 47.9409 1823.46 48.0941C1823.96 48.2391 1824.49 48.3573 1825.05 48.4487L1827.36 48.8601C1828.48 49.043 1829.52 49.3139 1830.47 49.6729C1831.42 50.0319 1832.26 50.4933 1832.97 51.0572C1833.68 51.621 1834.25 52.3015 1834.67 53.0984C1835.1 53.8949 1835.35 54.8223 1835.42 55.8806C1835.5 57.4361 1835.19 58.8078 1834.47 59.9956C1833.76 61.1746 1832.68 62.1218 1831.25 62.8372C1829.82 63.5438 1828.07 63.9581 1826 64.0799C1823.95 64.2008 1822.15 63.9917 1820.59 63.4527C1819.04 62.9133 1817.8 62.0524 1816.88 60.8701C1815.96 59.6791 1815.43 58.1708 1815.28 56.3452L1820.48 56.0389C1820.58 56.8874 1820.87 57.5844 1821.33 58.1298C1821.81 58.6665 1822.41 59.0581 1823.16 59.3047C1823.91 59.5426 1824.75 59.6342 1825.68 59.5796C1826.59 59.526 1827.37 59.3471 1828.02 59.043C1828.69 58.7383 1829.19 58.3393 1829.53 57.8459C1829.88 57.3525 1830.03 56.7997 1830 56.1876C1829.96 55.6169 1829.77 55.1471 1829.4 54.7783C1829.05 54.409 1828.54 54.1069 1827.88 53.872C1827.23 53.6365 1826.43 53.4344 1825.49 53.2657L1822.68 52.7339C1820.51 52.339 1818.77 51.6239 1817.47 50.5886C1816.16 49.5533 1815.46 48.0966 1815.35 46.2184C1815.25 44.6804 1815.58 43.3121 1816.34 42.1136C1817.11 40.9146 1818.2 39.9497 1819.62 39.2187C1821.04 38.4878 1822.68 38.0677 1824.53 37.9585C1826.41 37.8474 1828.08 38.073 1829.52 38.6354C1830.98 39.1972 1832.13 40.0299 1832.98 41.1333C1833.84 42.2368 1834.32 43.5447 1834.43 45.0569L1829.28 45.3603Z" fill="white"/>
<path d="M427.111 112.984C426.43 111.127 423.755 111.279 423.289 113.201L420.303 125.516L409.124 130.23L409.513 131.151L409.124 130.23C407.391 130.961 407.533 133.462 409.338 133.992L409.62 133.032L409.338 133.992L420.979 137.408L425.343 149.305C426.024 151.161 428.698 151.009 429.164 149.087L432.151 136.773L443.329 132.058C445.062 131.328 444.92 128.826 443.116 128.296L431.474 124.88L427.111 112.984Z" fill="white" stroke="white" stroke-width="2"/>
<path d="M671.687 98.5742C671.006 96.7179 668.332 96.87 667.866 98.7916L664.879 111.106L653.7 115.82L654.089 116.742L653.7 115.82C651.967 116.551 652.11 119.053 653.914 119.582L654.196 118.623L653.914 119.582L665.555 122.999L669.919 134.895C670.6 136.751 673.274 136.599 673.74 134.678L676.727 122.363L687.906 117.649C689.639 116.918 689.496 114.417 687.692 113.887L676.05 110.471L671.687 98.5742Z" fill="white" stroke="white" stroke-width="2"/>
<path d="M913.268 84.3411C912.587 82.4847 909.913 82.6368 909.447 84.5584L906.46 96.873L895.281 101.587L895.67 102.509L895.281 101.587C893.548 102.318 893.691 104.82 895.495 105.349L895.777 104.39L895.495 105.349L907.137 108.765L911.5 120.662C912.181 122.518 914.855 122.366 915.321 120.445L918.308 108.13L929.487 103.416C931.22 102.685 931.077 100.183 929.273 99.6539L917.632 96.2376L913.268 84.3411Z" fill="white" stroke="white" stroke-width="2"/>
<path d="M1154.85 70.1079C1154.17 68.2516 1151.49 68.4037 1151.03 70.3253L1148.04 82.6399L1136.86 87.3541L1137.25 88.2755L1136.86 87.3541C1135.13 88.0849 1135.27 90.5864 1137.08 91.116L1137.36 90.1565L1137.08 91.116L1148.72 94.5323L1153.08 106.429C1153.76 108.285 1156.44 108.133 1156.9 106.211L1159.89 93.8968L1171.07 89.1826C1172.8 88.4518 1172.66 85.9503 1170.85 85.4207L1159.21 82.0045L1154.85 70.1079Z" fill="white" stroke="white" stroke-width="2"/>
<path d="M1396.43 55.875C1395.75 54.0187 1393.07 54.1708 1392.61 56.0924L1389.62 68.407L1378.44 73.1212L1378.83 74.0426L1378.44 73.1212C1376.71 73.852 1376.85 76.3535 1378.66 76.8831L1378.94 75.9236L1378.66 76.8831L1390.3 80.2993L1394.66 92.1959C1395.34 94.0522 1398.02 93.9001 1398.48 91.9785L1401.47 79.6639L1412.65 74.9497C1414.38 74.2189 1414.24 71.7174 1412.43 71.1878L1400.79 67.7716L1396.43 55.875Z" fill="white" stroke="white" stroke-width="2"/>
<path d="M186.529 127.158C185.848 125.302 183.173 125.454 182.707 127.375L179.721 139.69L168.542 144.404L168.931 145.326L168.542 144.404C166.809 145.135 166.951 147.636 168.756 148.166L169.038 147.207L168.756 148.166L180.397 151.582L184.761 163.479C185.442 165.335 188.116 165.183 188.582 163.262L191.569 150.947L202.747 146.233C204.48 145.502 204.338 143 202.533 142.471L190.892 139.055L186.529 127.158Z" fill="white" stroke="white" stroke-width="2"/>
</svg>
