<svg width="1378" height="189" viewBox="0 0 1378 189" fill="none" xmlns="http://www.w3.org/2000/svg">
<path fill-rule="evenodd" clip-rule="evenodd" d="M1450.36 0H-76.5V113.556H-40.0315C-40.1892 115.225 -40.2694 116.911 -40.2694 118.611C-40.2694 157.486 1.67337 189 53.4124 189C105.139 189 147.074 157.501 147.094 118.64C147.115 157.501 189.05 189 240.776 189C292.515 189 334.458 157.486 334.458 118.611C334.458 157.486 376.401 189 428.14 189C479.879 189 521.822 157.486 521.822 118.611C521.822 157.486 563.765 189 615.504 189C660.493 189 698.075 165.172 707.115 133.397C716.156 165.172 753.738 189 798.727 189C850.466 189 892.409 157.486 892.409 118.611C892.409 116.911 892.328 115.225 892.171 113.556H892.647C892.489 115.225 892.409 116.911 892.409 118.611C892.409 157.486 934.352 189 986.091 189C1037.83 189 1079.77 157.486 1079.77 118.611C1079.77 116.911 1079.69 115.225 1079.53 113.556H1080.01C1079.85 115.225 1079.77 116.911 1079.77 118.611C1079.77 157.486 1121.72 189 1173.45 189C1225.16 189 1267.08 157.53 1267.14 118.692C1267.19 157.53 1309.11 189 1360.82 189C1412.56 189 1454.5 157.486 1454.5 118.611C1454.5 111.385 1453.05 104.414 1450.36 97.8522V0ZM1267.37 113.556H1266.9C1267.05 115.199 1267.13 116.858 1267.14 118.53C1267.14 116.858 1267.22 115.199 1267.37 113.556ZM522.06 113.556C521.902 115.225 521.822 116.911 521.822 118.611C521.822 116.911 521.742 115.225 521.584 113.556H522.06ZM334.696 113.556C334.538 115.225 334.458 116.911 334.458 118.611C334.458 116.911 334.378 115.225 334.22 113.556H334.696ZM147.332 113.556H146.856C147.013 115.216 147.093 116.892 147.094 118.582C147.095 116.892 147.175 115.216 147.332 113.556Z" fill="#F16923"/>
</svg>
