<svg width="1378" height="774" viewBox="0 0 1378 774" fill="none" xmlns="http://www.w3.org/2000/svg">
<g filter="url(#filter0_d_285_21)">
<rect x="-76.5" y="4" width="1499" height="715" fill="#F16923"/>
</g>
<path fill-rule="evenodd" clip-rule="evenodd" d="M1450.36 585H-76.5V698.556H-40.0315C-40.1892 700.225 -40.2694 701.911 -40.2694 703.611C-40.2694 742.486 1.67337 774 53.4124 774C105.139 774 147.074 742.501 147.094 703.64C147.115 742.501 189.05 774 240.776 774C292.515 774 334.458 742.486 334.458 703.611C334.458 742.486 376.401 774 428.14 774C479.879 774 521.822 742.486 521.822 703.611C521.822 742.486 563.765 774 615.504 774C660.493 774 698.075 750.172 707.115 718.397C716.156 750.172 753.738 774 798.727 774C850.466 774 892.409 742.486 892.409 703.611C892.409 701.911 892.328 700.225 892.171 698.556H892.647C892.489 700.225 892.409 701.911 892.409 703.611C892.409 742.486 934.352 774 986.091 774C1037.83 774 1079.77 742.486 1079.77 703.611C1079.77 701.911 1079.69 700.225 1079.53 698.556H1080.01C1079.85 700.225 1079.77 701.911 1079.77 703.611C1079.77 742.486 1121.72 774 1173.45 774C1225.16 774 1267.08 742.53 1267.14 703.692C1267.19 742.53 1309.11 774 1360.82 774C1412.56 774 1454.5 742.486 1454.5 703.611C1454.5 696.385 1453.05 689.414 1450.36 682.852V585ZM1267.37 698.556H1266.9C1267.05 700.199 1267.13 701.858 1267.14 703.53C1267.14 701.858 1267.22 700.199 1267.37 698.556ZM522.06 698.556C521.902 700.225 521.822 701.911 521.822 703.611C521.822 701.911 521.742 700.225 521.584 698.556H522.06ZM334.696 698.556C334.538 700.225 334.458 701.911 334.458 703.611C334.458 701.911 334.378 700.225 334.22 698.556H334.696ZM147.332 698.556H146.856C147.013 700.216 147.093 701.892 147.094 703.582C147.095 701.892 147.175 700.216 147.332 698.556Z" fill="#F16923"/>
<rect x="95" y="567" width="352" height="58" rx="29" fill="white"/>
<path d="M136.427 590.84C136.294 590.348 136.099 589.914 135.841 589.539C135.583 589.156 135.267 588.832 134.892 588.566C134.517 588.301 134.087 588.102 133.603 587.969C133.119 587.828 132.587 587.758 132.009 587.758C130.845 587.758 129.837 588.039 128.986 588.602C128.142 589.164 127.49 589.984 127.029 591.062C126.568 592.133 126.337 593.434 126.337 594.965C126.337 596.504 126.56 597.816 127.005 598.902C127.451 599.988 128.095 600.816 128.939 601.387C129.783 601.957 130.806 602.242 132.009 602.242C133.072 602.242 133.97 602.07 134.705 601.727C135.447 601.375 136.009 600.879 136.392 600.238C136.775 599.598 136.966 598.844 136.966 597.977L138.044 598.105H132.208V593.875H142.556V597.051C142.556 599.199 142.099 601.039 141.185 602.57C140.279 604.102 139.029 605.277 137.435 606.098C135.849 606.918 134.025 607.328 131.962 607.328C129.673 607.328 127.662 606.832 125.927 605.84C124.193 604.848 122.841 603.434 121.873 601.598C120.904 599.754 120.419 597.566 120.419 595.035C120.419 593.066 120.712 591.32 121.298 589.797C121.884 588.266 122.701 586.969 123.748 585.906C124.802 584.844 126.021 584.039 127.404 583.492C128.794 582.945 130.291 582.672 131.892 582.672C133.283 582.672 134.576 582.871 135.771 583.27C136.974 583.668 138.037 584.23 138.958 584.957C139.888 585.684 140.642 586.547 141.22 587.547C141.798 588.547 142.158 589.645 142.298 590.84H136.427ZM145.975 607V589H151.542V592.281H151.729C152.057 591.094 152.592 590.211 153.334 589.633C154.077 589.047 154.94 588.754 155.924 588.754C156.19 588.754 156.463 588.773 156.745 588.812C157.026 588.844 157.288 588.895 157.53 588.965V593.945C157.256 593.852 156.897 593.777 156.452 593.723C156.014 593.668 155.624 593.641 155.28 593.641C154.6 593.641 153.987 593.793 153.44 594.098C152.901 594.395 152.475 594.812 152.163 595.352C151.858 595.883 151.706 596.508 151.706 597.227V607H145.975ZM167.333 607.34C165.442 607.34 163.817 606.953 162.458 606.18C161.106 605.398 160.063 604.312 159.329 602.922C158.602 601.523 158.239 599.902 158.239 598.059C158.239 596.207 158.602 594.586 159.329 593.195C160.063 591.797 161.106 590.711 162.458 589.937C163.817 589.156 165.442 588.766 167.333 588.766C169.223 588.766 170.844 589.156 172.196 589.937C173.555 590.711 174.598 591.797 175.325 593.195C176.059 594.586 176.426 596.207 176.426 598.059C176.426 599.902 176.059 601.523 175.325 602.922C174.598 604.312 173.555 605.398 172.196 606.18C170.844 606.953 169.223 607.34 167.333 607.34ZM167.368 603.016C168.055 603.016 168.637 602.805 169.114 602.383C169.59 601.961 169.954 601.375 170.204 600.625C170.461 599.875 170.59 599.008 170.59 598.023C170.59 597.023 170.461 596.148 170.204 595.398C169.954 594.648 169.59 594.062 169.114 593.641C168.637 593.219 168.055 593.008 167.368 593.008C166.657 593.008 166.055 593.219 165.563 593.641C165.079 594.062 164.708 594.648 164.45 595.398C164.2 596.148 164.075 597.023 164.075 598.023C164.075 599.008 164.2 599.875 164.45 600.625C164.708 601.375 165.079 601.961 165.563 602.383C166.055 602.805 166.657 603.016 167.368 603.016ZM182.338 607L177.651 589H183.405L185.831 600.531H185.983L188.584 589H194.198L196.87 600.449H197.022L199.377 589H205.131L200.432 607H194.303L191.491 596.512H191.292L188.479 607H182.338ZM213.736 587.711V583H234.021V587.711H226.744V607H221.025V587.711H213.736ZM242.646 607.34C240.755 607.34 239.13 606.953 237.771 606.18C236.419 605.398 235.376 604.312 234.642 602.922C233.916 601.523 233.552 599.902 233.552 598.059C233.552 596.207 233.916 594.586 234.642 593.195C235.376 591.797 236.419 590.711 237.771 589.937C239.13 589.156 240.755 588.766 242.646 588.766C244.537 588.766 246.158 589.156 247.509 589.937C248.869 590.711 249.912 591.797 250.638 593.195C251.373 594.586 251.74 596.207 251.74 598.059C251.74 599.902 251.373 601.523 250.638 602.922C249.912 604.312 248.869 605.398 247.509 606.18C246.158 606.953 244.537 607.34 242.646 607.34ZM242.681 603.016C243.369 603.016 243.951 602.805 244.427 602.383C244.904 601.961 245.267 601.375 245.517 600.625C245.775 599.875 245.904 599.008 245.904 598.023C245.904 597.023 245.775 596.148 245.517 595.398C245.267 594.648 244.904 594.062 244.427 593.641C243.951 593.219 243.369 593.008 242.681 593.008C241.97 593.008 241.369 593.219 240.876 593.641C240.392 594.062 240.021 594.648 239.763 595.398C239.513 596.148 239.388 597.023 239.388 598.023C239.388 599.008 239.513 599.875 239.763 600.625C240.021 601.375 240.392 601.961 240.876 602.383C241.369 602.805 241.97 603.016 242.681 603.016ZM263.066 614.125C261.355 614.125 259.89 613.887 258.671 613.41C257.453 612.934 256.496 612.281 255.8 611.453C255.105 610.625 254.687 609.688 254.546 608.641L259.972 608.336C260.074 608.703 260.261 609.023 260.535 609.297C260.816 609.57 261.179 609.781 261.625 609.93C262.078 610.078 262.609 610.152 263.218 610.152C264.179 610.152 264.972 609.918 265.597 609.449C266.23 608.988 266.546 608.18 266.546 607.023V603.859H266.347C266.121 604.414 265.777 604.91 265.316 605.348C264.855 605.785 264.281 606.129 263.593 606.379C262.914 606.629 262.132 606.754 261.25 606.754C259.937 606.754 258.734 606.449 257.64 605.84C256.554 605.223 255.683 604.27 255.027 602.98C254.378 601.684 254.054 600.016 254.054 597.977C254.054 595.875 254.39 594.145 255.062 592.785C255.734 591.418 256.613 590.406 257.699 589.75C258.792 589.094 259.968 588.766 261.226 588.766C262.171 588.766 262.98 588.93 263.652 589.258C264.332 589.578 264.89 589.992 265.328 590.5C265.765 591.008 266.097 591.535 266.324 592.082H266.488V589H272.195V607.07C272.195 608.594 271.812 609.879 271.046 610.926C270.281 611.973 269.21 612.766 267.835 613.305C266.46 613.852 264.871 614.125 263.066 614.125ZM263.242 602.582C263.937 602.582 264.531 602.398 265.023 602.031C265.515 601.664 265.894 601.137 266.16 600.449C266.425 599.762 266.558 598.937 266.558 597.977C266.558 597 266.425 596.16 266.16 595.457C265.902 594.746 265.523 594.199 265.023 593.816C264.531 593.434 263.937 593.242 263.242 593.242C262.531 593.242 261.929 593.437 261.437 593.828C260.945 594.219 260.57 594.77 260.312 595.48C260.062 596.184 259.937 597.016 259.937 597.977C259.937 598.937 260.066 599.762 260.324 600.449C260.582 601.137 260.953 601.664 261.437 602.031C261.929 602.398 262.531 602.582 263.242 602.582ZM284.262 607.34C282.379 607.34 280.754 606.969 279.387 606.227C278.028 605.477 276.981 604.41 276.247 603.027C275.52 601.637 275.157 599.984 275.157 598.07C275.157 596.211 275.524 594.586 276.258 593.195C276.993 591.797 278.028 590.711 279.364 589.937C280.7 589.156 282.274 588.766 284.086 588.766C285.368 588.766 286.54 588.965 287.602 589.363C288.665 589.762 289.583 590.352 290.356 591.133C291.129 591.914 291.731 592.879 292.161 594.027C292.59 595.168 292.805 596.477 292.805 597.953V599.383H277.161V596.055H287.473C287.465 595.445 287.321 594.902 287.04 594.426C286.758 593.949 286.372 593.578 285.879 593.312C285.395 593.039 284.836 592.902 284.204 592.902C283.563 592.902 282.989 593.047 282.481 593.336C281.973 593.617 281.571 594.004 281.274 594.496C280.977 594.98 280.821 595.531 280.805 596.148V599.535C280.805 600.27 280.95 600.914 281.239 601.469C281.528 602.016 281.938 602.441 282.469 602.746C283 603.051 283.633 603.203 284.368 603.203C284.875 603.203 285.336 603.133 285.75 602.992C286.165 602.852 286.52 602.645 286.817 602.371C287.114 602.098 287.336 601.762 287.485 601.363L292.747 601.516C292.528 602.695 292.047 603.723 291.305 604.598C290.571 605.465 289.606 606.141 288.411 606.625C287.215 607.102 285.833 607.34 284.262 607.34ZM305.892 589V593.219H294.537V589H305.892ZM296.916 584.687H302.646V601.34C302.646 601.691 302.701 601.977 302.81 602.195C302.927 602.406 303.095 602.559 303.314 602.652C303.533 602.738 303.794 602.781 304.099 602.781C304.318 602.781 304.548 602.762 304.791 602.723C305.041 602.676 305.228 602.637 305.353 602.605L306.22 606.742C305.947 606.82 305.56 606.918 305.06 607.035C304.568 607.152 303.978 607.227 303.291 607.258C301.947 607.32 300.794 607.164 299.833 606.789C298.88 606.406 298.15 605.812 297.642 605.008C297.142 604.203 296.9 603.191 296.916 601.973V584.687ZM314.933 596.734V607H309.203V583H314.746V592.305H314.945C315.351 591.195 316.015 590.328 316.937 589.703C317.867 589.078 319.003 588.766 320.347 588.766C321.613 588.766 322.714 589.047 323.652 589.609C324.589 590.164 325.316 590.949 325.832 591.965C326.355 592.98 326.613 594.168 326.605 595.527V607H320.875V596.652C320.882 595.652 320.632 594.871 320.125 594.309C319.617 593.746 318.902 593.465 317.98 593.465C317.378 593.465 316.847 593.598 316.386 593.863C315.933 594.121 315.578 594.492 315.32 594.977C315.07 595.461 314.941 596.047 314.933 596.734ZM338.596 607.34C336.713 607.34 335.088 606.969 333.721 606.227C332.362 605.477 331.315 604.41 330.581 603.027C329.854 601.637 329.491 599.984 329.491 598.07C329.491 596.211 329.858 594.586 330.592 593.195C331.327 591.797 332.362 590.711 333.698 589.937C335.034 589.156 336.608 588.766 338.42 588.766C339.702 588.766 340.874 588.965 341.936 589.363C342.999 589.762 343.917 590.352 344.69 591.133C345.463 591.914 346.065 592.879 346.495 594.027C346.924 595.168 347.139 596.477 347.139 597.953V599.383H331.495V596.055H341.807C341.799 595.445 341.655 594.902 341.374 594.426C341.092 593.949 340.706 593.578 340.213 593.312C339.729 593.039 339.17 592.902 338.538 592.902C337.897 592.902 337.323 593.047 336.815 593.336C336.307 593.617 335.905 594.004 335.608 594.496C335.311 594.98 335.155 595.531 335.139 596.148V599.535C335.139 600.27 335.284 600.914 335.573 601.469C335.862 602.016 336.272 602.441 336.803 602.746C337.334 603.051 337.967 603.203 338.702 603.203C339.209 603.203 339.67 603.133 340.084 602.992C340.499 602.852 340.854 602.645 341.151 602.371C341.448 602.098 341.67 601.762 341.819 601.363L347.081 601.516C346.862 602.695 346.381 603.723 345.639 604.598C344.905 605.465 343.94 606.141 342.745 606.625C341.549 607.102 340.167 607.34 338.596 607.34ZM350.066 607V589H355.632V592.281H355.82C356.148 591.094 356.683 590.211 357.425 589.633C358.167 589.047 359.031 588.754 360.015 588.754C360.281 588.754 360.554 588.773 360.835 588.812C361.117 588.844 361.378 588.895 361.621 588.965V593.945C361.347 593.852 360.988 593.777 360.542 593.723C360.105 593.668 359.714 593.641 359.371 593.641C358.691 593.641 358.078 593.793 357.531 594.098C356.992 594.395 356.566 594.812 356.253 595.352C355.949 595.883 355.796 596.508 355.796 597.227V607H350.066Z" fill="#231F20"/>
<path d="M421.414 599.414C422.195 598.633 422.195 597.367 421.414 596.586L408.686 583.858C407.905 583.077 406.639 583.077 405.858 583.858C405.077 584.639 405.077 585.905 405.858 586.686L417.172 598L405.858 609.314C405.077 610.095 405.077 611.361 405.858 612.142C406.639 612.923 407.905 612.923 408.686 612.142L421.414 599.414ZM380 600H420V596H380V600Z" fill="#231F20"/>
<defs>
<filter id="filter0_d_285_21" x="-82.5" y="0" width="1511" height="727" filterUnits="userSpaceOnUse" color-interpolation-filters="sRGB">
<feFlood flood-opacity="0" result="BackgroundImageFix"/>
<feColorMatrix in="SourceAlpha" type="matrix" values="0 0 0 0 0 0 0 0 0 0 0 0 0 0 0 0 0 0 127 0" result="hardAlpha"/>
<feOffset dy="2"/>
<feGaussianBlur stdDeviation="3"/>
<feComposite in2="hardAlpha" operator="out"/>
<feColorMatrix type="matrix" values="0 0 0 0 0 0 0 0 0 0 0 0 0 0 0 0 0 0 0.15 0"/>
<feBlend mode="normal" in2="BackgroundImageFix" result="effect1_dropShadow_285_21"/>
<feBlend mode="normal" in="SourceGraphic" in2="effect1_dropShadow_285_21" result="shape"/>
</filter>
</defs>
</svg>
