<svg width="120" height="109" viewBox="0 0 120 109" fill="none" xmlns="http://www.w3.org/2000/svg">
<path d="M90.9093 94.6656L88.6495 91.3651C90.3278 90.2159 92.2239 89.4945 93.9387 88.9672C95.1824 88.5848 96.5368 88.2477 97.7582 87.9437C98.1871 87.837 98.5997 87.7343 98.9853 87.6352C102.442 86.7466 104.144 85.9893 104.917 84.9906C105.61 84.0941 105.853 82.5221 105.688 79.1729C105.671 78.8159 105.649 78.4318 105.625 78.0299C105.557 76.8298 105.479 75.4709 105.484 74.2015C105.492 72.4613 105.644 70.4715 106.311 68.54C106.967 66.6389 108.086 64.9844 109.147 63.6221C109.889 62.6677 110.758 61.67 111.537 60.7754C111.841 60.4262 112.132 60.0927 112.396 59.7837C114.623 57.1751 115.452 55.6818 115.452 54.4998C115.452 53.3178 114.623 51.8245 112.396 49.216C112.132 48.9069 111.841 48.5733 111.537 48.224C110.758 47.3295 109.889 46.3319 109.147 45.3776C108.086 44.0155 106.967 42.361 106.311 40.46L106.311 40.4599C105.644 38.5284 105.492 36.5386 105.484 34.7983C105.479 33.5291 105.557 32.1704 105.626 30.9704C105.649 30.5683 105.671 30.1841 105.688 29.827C105.853 26.4778 105.61 24.9058 104.917 24.0093L108.081 21.5619L104.917 24.0093C104.144 23.0105 102.442 22.2532 98.9854 21.3647C98.5998 21.2656 98.1873 21.1629 97.7583 21.0561C96.5369 20.7522 95.1825 20.4151 93.9388 20.0327C92.2241 19.5054 90.3279 18.784 88.6496 17.6348C86.9687 16.4839 85.6458 14.9911 84.577 13.6021C83.8183 12.6161 83.0619 11.5077 82.3865 10.5179C82.1386 10.1547 81.9017 9.80743 81.6795 9.48809C79.7653 6.73655 78.4881 5.4355 77.1358 5.02238C75.8471 4.62871 73.996 4.985 70.6625 6.17044C70.3144 6.29422 69.9455 6.42938 69.5586 6.57109C66.8686 7.55646 63.3132 8.85884 59.8965 8.85884C56.4797 8.85884 52.9243 7.55646 50.2343 6.57109C49.8475 6.42938 49.4785 6.29422 49.1304 6.17043C45.797 4.98501 43.9459 4.62872 42.6572 5.02237L90.9093 94.6656ZM90.9093 94.6656L88.6494 91.3651C86.9685 92.516 85.6456 94.0088 84.5769 95.3978C83.8181 96.3838 83.0617 97.4923 82.3863 98.4821C82.1384 98.8453 81.9015 99.1925 81.6794 99.5118C79.7652 102.263 78.488 103.564 77.1357 103.978C75.8471 104.371 73.996 104.015 70.6625 102.829C70.3145 102.706 69.9455 102.571 69.5587 102.429C66.8687 101.443 63.3132 100.141 59.8965 100.141C56.4797 100.141 52.9243 101.443 50.2343 102.429C49.8474 102.571 49.4785 102.706 49.1304 102.829C45.7969 104.015 43.9459 104.371 42.6572 103.978C41.3048 103.564 40.0276 102.263 38.1134 99.5118C37.8913 99.1925 37.6543 98.8453 37.4065 98.4821C36.7311 97.4923 35.9747 96.3838 35.2159 95.3978C34.1471 94.0088 32.8243 92.516 31.1433 91.3651C29.465 90.2159 27.5689 89.4945 25.8542 88.9672C24.6104 88.5848 23.2559 88.2477 22.0345 87.9437C21.6056 87.837 21.1931 87.7343 20.8075 87.6352C17.3509 86.7467 15.6488 85.9894 14.8762 84.9907C14.1828 84.0943 13.9401 82.5222 14.1047 79.173C14.1222 78.816 14.1443 78.4318 14.1673 78.0299C14.2362 76.8298 14.3142 75.471 14.3088 74.2017C14.3013 72.4615 14.1489 70.4716 13.4824 68.5402L13.4823 68.5401C12.8262 66.639 11.7066 64.9845 10.6463 63.6222C9.90347 62.6679 9.03463 61.6702 8.25561 60.7757C7.95147 60.4264 7.66102 60.0929 7.39711 59.7838C5.16974 57.1752 4.34033 55.6819 4.34033 54.4999C4.34033 53.318 5.16974 51.8247 7.39711 49.2161C7.66101 48.907 7.95145 48.5735 8.25558 48.2243C9.0346 47.3297 9.90345 46.332 10.6463 45.3776C11.7066 44.0154 12.8262 42.3609 13.4823 40.4598C14.1489 38.5284 14.3014 36.5385 14.3089 34.7982C14.3143 33.5288 14.2363 32.17 14.1675 30.9699C14.1444 30.568 14.1224 30.1839 14.1048 29.8269C13.9402 26.4776 14.1829 24.9056 14.8763 24.0092C15.6489 23.0104 17.3511 22.2531 20.8076 21.3646C21.1932 21.2655 21.6058 21.1628 22.0348 21.056C23.2561 20.7521 24.6105 20.415 25.8542 20.0326C27.5689 19.5054 29.4651 18.784 31.1434 17.6349L31.1435 17.6348C32.8244 16.4839 34.1473 14.9911 35.2161 13.6021C35.9748 12.616 36.7313 11.5075 37.4067 10.5177C37.6545 10.1545 37.8914 9.80737 38.1136 9.48808C40.0277 6.73654 41.3049 5.4355 42.6572 5.02238L90.9093 94.6656Z" fill="#065097" stroke="white" stroke-width="8"/>
<path d="M47.1558 68.2315L50.1754 70.8132L52.7776 67.8113L79.2251 37.3022L81.771 39.2557L50.578 75.2389L35.5549 62.3945L37.714 60.1592L47.1558 68.2315Z" fill="white" stroke="white" stroke-width="8"/>
</svg>
