<svg width="465" height="476" viewBox="0 0 465 476" fill="none" xmlns="http://www.w3.org/2000/svg">
<circle cx="154.521" cy="213.424" r="14.7746" transform="rotate(-11.082 154.521 213.424)" stroke="white" stroke-width="5"/>
<path d="M140.333 118.586C143.172 133.079 133.517 147.246 118.659 150.156C103.801 153.066 89.5152 143.588 86.6766 129.096C83.8381 114.604 93.4928 100.437 108.351 97.5267C123.209 94.6166 137.494 104.094 140.333 118.586Z" stroke="white" stroke-width="5"/>
<path d="M206.736 20.4162C206.359 29.4394 198.592 36.5174 189.299 36.1288C180.006 35.7401 172.858 28.0384 173.235 19.0153C173.612 9.99212 181.379 2.91414 190.672 3.30275C199.965 3.69137 207.114 11.3931 206.736 20.4162Z" stroke="white" stroke-width="5"/>
<path d="M276.646 42.5331C276.379 48.9195 270.878 53.9511 264.268 53.6747C257.659 53.3983 252.597 47.925 252.864 41.5385C253.131 35.152 258.632 30.1205 265.242 30.3969C271.851 30.6733 276.913 36.1466 276.646 42.5331Z" stroke="white" stroke-width="5"/>
<path d="M339.739 311.109L263.482 203.207C262.388 201.656 261.697 199.855 261.474 197.969L253.797 133.092C253.058 126.847 257.512 121.189 263.749 120.451C269.987 119.713 274.441 114.056 273.702 107.81L272.548 98.061C271.809 91.8158 266.157 87.3544 259.92 88.0925L186.868 96.7374C180.63 97.4756 176.176 103.133 176.915 109.378L178.069 119.128C178.808 125.373 184.459 129.834 190.697 129.096C196.934 128.358 202.586 132.819 203.325 139.065L211.012 204.025C211.229 205.857 210.996 207.713 210.339 209.437L163.336 332.231C158.034 346.075 169.332 360.607 184.039 358.867L325.989 342.068C340.818 340.313 348.37 323.315 339.744 311.108L339.739 311.109Z" stroke="white" stroke-width="5" stroke-miterlimit="10"/>
<path d="M200.19 233.885C200.19 233.885 202.623 232.695 229.846 242.784C257.074 252.872 280.246 233.496 280.246 233.496" stroke="white" stroke-width="5" stroke-miterlimit="10"/>
<path d="M222.138 299.654C229.852 298.741 235.085 289.375 233.826 278.734C232.567 268.093 225.292 260.207 217.578 261.12C209.863 262.033 204.63 271.399 205.889 282.04C207.148 292.681 214.423 300.567 222.138 299.654Z" stroke="white" stroke-width="5" stroke-miterlimit="10"/>
<path d="M225.51 299.255C231.362 298.563 235.29 291.1 234.282 282.587C233.275 274.075 227.714 267.735 221.862 268.428C216.009 269.12 212.081 276.583 213.089 285.096C214.096 293.608 219.657 299.948 225.51 299.255Z" fill="white"/>
<path d="M282.292 259.446C276.121 263.09 269.95 266.729 263.779 270.373L261.563 271.68C260.579 272.26 259.584 272.752 259.084 273.891C258.584 275.03 258.833 276.425 259.614 277.383C260.317 278.236 261.34 278.692 262.276 279.207C265.288 280.862 268.345 282.418 271.451 283.869C274.931 285.499 278.47 286.993 282.05 288.358C283.202 288.794 284.65 288.396 285.119 287.113C285.545 285.948 285.126 284.351 283.895 283.886C278.026 281.652 272.279 279.059 266.692 276.116C266.03 275.766 265.368 275.415 264.714 275.059C264.352 274.86 263.99 274.661 263.628 274.462C263.462 274.374 263.3 274.275 263.135 274.191C262.862 274.031 262.873 274.044 263.172 274.23L263.038 274.128C263.557 274.703 263.695 275.623 263.149 276.294C262.796 276.73 262.919 276.503 263.094 276.389C263.382 276.202 262.505 276.735 263.15 276.348C263.317 276.249 263.484 276.151 263.651 276.052L265.968 274.688C268.785 273.024 271.603 271.364 274.42 269.7C277.642 267.8 280.86 265.901 284.082 264.002C284.635 263.675 285.073 263.357 285.336 262.719C285.566 262.165 285.596 261.382 285.346 260.82C284.866 259.743 283.427 258.789 282.293 259.461L282.292 259.446Z" fill="white"/>
<path d="M239.724 318.518L239.723 318.518C238.966 318.592 238.205 318.669 237.441 318.747C234.469 319.051 231.46 319.358 228.465 319.429C228.465 319.429 228.465 319.429 228.465 319.429L228.453 318.929C225.185 319.006 221.844 318.602 219.151 316.588C217.871 315.63 219.411 313.684 220.686 314.637L239.724 318.518ZM239.724 318.518C239.986 318.493 240.248 318.467 240.51 318.442C244.166 318.087 247.887 317.726 251.497 316.76L251.497 316.76C254.757 315.886 257.838 314.412 260.586 312.461L260.296 312.053L260.586 312.461C263.593 310.326 266.199 307.592 268.171 304.469L268.172 304.469C268.623 303.753 268.671 302.719 267.854 302.067L267.854 302.067L267.852 302.066C267.496 301.785 267.02 301.669 266.583 301.707C266.141 301.745 265.664 301.948 265.379 302.395L265.378 302.397C262.182 307.452 257.302 311.287 251.615 313.111C248.337 314.161 244.871 314.507 241.394 314.855C241.233 314.871 241.072 314.887 240.912 314.903L240.84 314.91C237.238 315.272 233.598 315.637 229.979 315.878L229.978 315.878C226.817 316.091 223.47 316.093 220.986 314.237M239.724 318.518L220.986 314.237M220.986 314.237C220.553 313.914 220.072 313.823 219.626 313.916C219.194 314.006 218.823 314.263 218.568 314.586C218.313 314.909 218.149 315.329 218.172 315.771C218.196 316.228 218.418 316.664 218.852 316.988L220.986 314.237Z" fill="white" stroke="white"/>
<path d="M267.667 337.94L267.667 337.94C269.781 335.911 270.933 333.323 271.704 330.595L271.704 330.595C272.524 327.694 273.202 324.704 273.583 321.693C274.388 315.366 273.613 308.285 269.204 303.216L269.204 303.216C268.633 302.559 267.614 302.268 266.796 302.897C266.43 303.177 266.203 303.61 266.133 304.045C266.063 304.484 266.144 304.987 266.484 305.378L266.484 305.378C269.715 309.089 270.696 314.201 270.354 319.117C270.158 321.929 269.61 324.707 268.938 327.462L268.937 327.462C268.352 329.874 267.756 332.293 266.346 334.197C263.584 337.916 258.627 338.867 254.209 337.931C249.794 336.997 245.793 334.491 242.767 331.16C239.447 327.503 237.207 322.902 236.571 317.974L236.571 317.974C236.5 317.436 236.233 317.025 235.855 316.769C235.488 316.52 235.045 316.437 234.635 316.485C234.226 316.534 233.815 316.718 233.519 317.049C233.215 317.389 233.061 317.855 233.132 318.393L233.158 318.592L233.164 318.597C234.563 328.805 241.994 337.985 251.813 340.917C257.133 342.51 263.399 342.035 267.667 337.94Z" fill="white" stroke="white"/>
<path d="M307.974 345.237L307.975 345.235C308.23 344.787 308.672 344.576 309.096 344.541C309.512 344.507 309.957 344.636 310.284 344.923L310.286 344.925L310.286 344.925C311.015 345.571 310.984 346.566 310.594 347.262C308.62 350.781 308.639 355.345 308.657 359.604C308.658 359.733 308.659 359.862 308.659 359.99M307.974 345.237L311.119 395.77C312.86 400.2 315.126 404.409 317.925 408.152L317.925 408.152C318.234 408.565 318.644 408.786 319.08 408.813C319.503 408.84 319.9 408.681 320.2 408.432C320.805 407.931 321.109 406.969 320.466 406.107L320.466 406.107C315.814 399.882 312.803 392.392 311.067 384.597C309.331 376.798 308.691 368.239 308.659 359.99M307.974 345.237C305.854 349.01 305.518 353.436 305.482 357.701C305.446 361.968 305.54 366.361 305.861 370.687L305.861 370.687M307.974 345.237L305.861 370.687M308.659 359.99L308.159 359.992M308.659 359.99L308.159 359.992M308.159 359.992C308.191 368.263 308.833 376.859 310.579 384.705C312.326 392.551 315.362 400.112 320.065 406.407M308.159 359.992C308.158 359.846 308.158 359.698 308.157 359.551C308.139 355.338 308.118 350.654 310.158 347.017C310.468 346.464 310.458 345.746 309.954 345.299C309.52 344.917 308.725 344.928 308.41 345.482C306.357 349.136 306.018 353.448 305.982 357.705L320.065 406.407M320.065 406.407C320.98 407.632 319.24 409.074 318.326 407.853C315.556 404.149 313.311 399.98 311.584 395.587L320.065 406.407ZM305.861 370.687C306.496 379.202 307.989 387.816 311.119 395.77L305.861 370.687Z" fill="white" stroke="white"/>
<path d="M317.751 407.488C317.754 407.514 317.758 407.54 317.762 407.565C315.586 407.025 313.639 405.802 311.889 404.286L311.889 404.286C310.791 403.335 309.816 402.265 308.849 401.153C308.626 400.896 308.403 400.637 308.179 400.377C307.438 399.515 306.685 398.64 305.885 397.81C303.786 395.63 301.314 393.925 298.227 393.34L298.227 393.34C295.498 392.824 292.634 393.213 290.086 394.189C287.532 395.168 285.119 396.849 283.321 398.989L283.321 398.989C281.379 401.299 280.123 404.103 279.413 406.983C277.96 412.86 278.859 419.227 281.116 424.734L281.116 424.734C283.403 430.309 287.273 435.315 292.404 438.582C297.383 441.756 303.195 443.309 309.035 443.582C312.009 443.721 314.986 443.57 317.93 443.148C320.865 442.728 324.147 442.031 327.075 440.899C330.025 439.758 332.709 437.949 334.762 435.457C336.633 433.191 337.96 430.511 338.918 427.782L338.446 427.616L338.918 427.782C339.953 424.83 340.704 421.703 341.069 418.588L341.069 418.588C341.453 415.303 341.313 411.705 339.657 408.646C338.233 406.015 335.923 403.844 332.872 403.163L332.872 403.163C331.216 402.796 329.585 402.953 328.018 403.311C326.814 403.586 325.618 403.989 324.475 404.374C324.142 404.486 323.813 404.596 323.49 404.702L323.49 404.702C322.086 405.162 320.711 405.528 319.282 405.59L319.282 405.59C318.775 405.612 318.365 405.893 318.104 406.24C317.845 406.584 317.698 407.039 317.751 407.488ZM320.39 408.925C321.683 408.783 322.917 408.446 324.113 408.066C324.584 407.917 325.045 407.762 325.501 407.609C326.457 407.288 327.393 406.973 328.36 406.727C329.652 406.399 330.948 406.248 332.203 406.508C333.234 406.724 334.171 407.284 334.979 408.02L334.979 408.02C337.072 409.923 337.822 412.549 337.868 415.387C337.915 418.23 337.255 421.223 336.59 423.78L336.59 423.78C335.291 428.79 332.952 433.732 328.511 436.445C326.057 437.941 323.132 438.705 320.261 439.287L320.261 439.287C317.636 439.824 314.968 440.144 312.292 440.221L312.291 440.221C307.062 440.374 301.741 439.516 297.023 437.263L297.023 437.263C292.195 434.959 288.23 431.096 285.68 426.39L285.68 426.39C283.122 421.676 281.732 416.179 282.232 410.84L282.232 410.839C282.699 405.812 284.912 400.993 289.265 398.372C291.182 397.219 293.412 396.567 295.649 396.522C297.852 396.478 300.135 397.283 301.913 398.735L301.914 398.735C302.964 399.591 303.884 400.594 304.791 401.649C305.032 401.929 305.273 402.214 305.515 402.501C306.178 403.285 306.851 404.081 307.564 404.827C309.508 406.861 311.82 408.847 314.531 410.056L314.531 410.056C315.8 410.62 317.16 411.009 318.544 411.174L318.544 411.174C319.648 411.304 320.315 410.489 320.436 409.697C320.474 409.445 320.463 409.179 320.39 408.925ZM340.572 418.53C340.951 415.288 340.802 411.812 339.217 408.884C337.843 406.345 335.637 404.293 332.763 403.651L340.572 418.53Z" fill="white" stroke="white"/>
<path d="M207.959 354.14L207.961 354.138C208.238 353.685 208.708 353.476 209.148 353.439C209.583 353.402 210.054 353.524 210.404 353.812L210.406 353.813L210.406 353.813C211.199 354.472 211.158 355.506 210.724 356.226C208.526 359.872 208.51 364.576 208.495 368.967C208.494 369.101 208.494 369.234 208.493 369.367M207.959 354.14L205.119 367.016C205.042 371.473 205.113 375.948 205.43 380.406L205.43 380.406C206.059 389.184 207.63 398.057 211.006 406.236C212.884 410.791 215.34 415.113 218.386 418.95L218.386 418.951C218.721 419.372 219.159 419.585 219.612 419.608C220.052 419.631 220.471 419.473 220.793 419.221C221.116 418.969 221.37 418.601 221.452 418.168C221.536 417.721 221.428 417.246 221.093 416.823L221.093 416.823C216.031 410.441 212.783 402.742 210.94 394.719L210.94 394.719C209.036 386.436 208.462 377.874 208.493 369.367M207.959 354.14C205.599 358.047 205.194 362.615 205.119 367.016L205.619 367.024M207.959 354.14L210.452 394.831C208.537 386.498 207.961 377.894 207.993 369.365M208.493 369.367L207.993 369.365M208.493 369.367L207.993 369.365M207.993 369.365C207.994 369.214 207.994 369.062 207.995 368.91C208.009 364.565 208.024 359.735 210.296 355.968C210.641 355.395 210.636 354.655 210.086 354.198C209.612 353.808 208.738 353.825 208.387 354.399C206.101 358.184 205.693 362.634 205.619 367.024M205.619 367.024C205.542 371.471 205.613 375.93 205.929 380.371L205.619 367.024Z" fill="white" stroke="white"/>
<path d="M217.933 417.099C215.717 416.534 213.731 415.259 211.945 413.678L211.944 413.677C210.825 412.688 209.831 411.574 208.846 410.418C208.619 410.151 208.391 409.881 208.163 409.611C207.408 408.715 206.641 407.806 205.826 406.943C203.684 404.674 201.175 402.904 198.038 402.29L198.037 402.29C195.262 401.747 192.353 402.143 189.765 403.149C187.173 404.158 184.725 405.897 182.905 408.11L182.905 408.11C180.939 410.499 179.672 413.403 178.958 416.386C177.498 422.472 178.427 429.073 180.733 434.788L180.733 434.788C183.069 440.572 187.011 445.772 192.232 449.173C197.297 452.478 203.207 454.104 209.143 454.402C212.165 454.554 215.19 454.405 218.181 453.975C221.162 453.546 224.496 452.831 227.469 451.664C230.464 450.488 233.185 448.619 235.264 446.041C237.158 443.696 238.499 440.921 239.465 438.094L238.991 437.933L239.465 438.094C240.509 435.036 241.263 431.795 241.626 428.568L241.626 428.567C242.007 425.162 241.856 421.437 240.168 418.266C238.718 415.539 236.369 413.283 233.268 412.569L233.267 412.568C231.584 412.183 229.926 412.342 228.335 412.709C227.111 412.992 225.898 413.406 224.737 413.803C224.399 413.918 224.065 414.032 223.737 414.141L223.737 414.141C222.312 414.615 220.915 414.99 219.463 415.052L219.463 415.052C218.947 415.073 218.532 415.364 218.27 415.72C218.009 416.075 217.864 416.539 217.918 416.997C217.922 417.032 217.927 417.066 217.933 417.099ZM220.636 419.289C220.675 419.025 220.661 418.744 220.582 418.478C221.9 418.334 223.157 417.988 224.375 417.595C224.853 417.441 225.321 417.282 225.785 417.124C226.755 416.793 227.705 416.47 228.687 416.217C229.999 415.88 231.314 415.727 232.59 415.999C233.639 416.226 234.594 416.809 235.419 417.577L235.419 417.577C237.556 419.562 238.326 422.296 238.381 425.246C238.436 428.2 237.772 431.307 237.103 433.957L237.103 433.957C235.794 439.155 233.428 444.281 228.919 447.085C226.429 448.631 223.46 449.416 220.544 450.012L220.544 450.012C217.878 450.563 215.168 450.888 212.449 450.961L212.448 450.961C207.135 451.106 201.726 450.203 196.925 447.853C192.136 445.51 187.969 441.429 185.364 436.537C182.75 431.626 181.323 425.924 181.818 420.379L181.818 420.379C182.28 415.158 184.52 410.159 188.938 407.45C190.884 406.258 193.147 405.587 195.42 405.546C197.658 405.506 199.981 406.347 201.794 407.859L201.795 407.86C202.865 408.751 203.803 409.795 204.728 410.893C204.974 411.184 205.219 411.48 205.467 411.779C206.141 412.593 206.827 413.421 207.553 414.196C209.533 416.309 211.886 418.374 214.643 419.635L214.643 419.636C215.933 420.224 217.316 420.631 218.722 420.805L218.723 420.805C219.259 420.871 219.72 420.707 220.058 420.402C220.385 420.106 220.576 419.697 220.636 419.289Z" fill="white" stroke="white"/>
<path d="M304.801 263.647C304.915 264.614 305.765 265.086 306.558 265.064L306.558 265.065C310.413 264.96 314.242 264.859 318.033 265.283C319.905 265.492 321.764 265.817 323.554 266.342L323.555 266.342C325.434 266.891 327.262 267.616 329.106 268.356L329.106 268.356C335.931 271.095 342.672 274.086 348.065 279.019L348.065 279.019C350.94 281.646 353.406 284.756 355.304 288.145C355.679 288.817 356.476 289.342 357.396 288.978L357.397 288.978C357.788 288.822 358.104 288.489 358.278 288.12C358.453 287.748 358.519 287.259 358.272 286.813L358.271 286.811C356.417 283.5 354.151 280.483 351.463 277.788C348.771 275.088 345.627 272.809 342.297 270.899L342.297 270.899C338.894 268.948 335.295 267.374 331.685 265.901L331.685 265.901C327.944 264.375 324.142 262.9 320.047 262.284C315.479 261.594 310.836 261.722 306.295 261.847L306.273 261.848L306.273 261.848L306.271 261.848C305.78 261.863 305.386 262.136 305.138 262.465C304.893 262.791 304.751 263.223 304.801 263.647Z" fill="white" stroke="white"/>
<path d="M351.781 308.582L361.238 313.87C364.064 315.45 367.636 314.44 369.216 311.614L384.533 284.219C386.113 281.393 385.103 277.822 382.277 276.242L372.82 270.954C369.994 269.374 366.423 270.384 364.843 273.21L349.525 300.605C347.945 303.43 348.955 307.002 351.781 308.582Z" stroke="white" stroke-width="5" stroke-miterlimit="10"/>
<path d="M368.817 307.937C368.818 307.943 368.819 307.948 368.82 307.953C369.885 314.124 369.706 320.371 369.524 326.675L369.523 326.722C369.341 333.032 369.161 339.4 370.273 345.705L370.273 345.705C370.687 348.052 371.46 350.601 373.345 352.379C375.588 354.5 378.796 354.376 381.281 352.995C385.922 350.418 388.456 345.059 389.532 340.244L389.532 340.244C390.582 335.526 390.476 330.621 390.019 325.865C396.753 327.087 403.888 324.611 408.616 319.677C410.11 318.119 411.32 316.29 412.174 314.32L412.174 314.319C412.389 313.825 412.365 313.337 412.166 312.929C411.972 312.532 411.63 312.242 411.253 312.079C410.876 311.916 410.43 311.866 410.008 311.997C409.574 312.131 409.201 312.447 408.986 312.941L408.985 312.942C406.44 318.797 400.202 322.552 393.837 322.741C392.11 322.792 390.321 322.533 388.674 321.977C388.092 321.78 387.467 321.874 386.998 322.198C386.517 322.529 386.21 323.097 386.291 323.784C386.833 328.36 387.149 332.977 386.495 337.508C385.89 341.678 384.353 345.98 381.207 348.812C380.461 349.481 379.528 350.113 378.579 350.407C377.645 350.697 376.736 350.652 375.936 350.041C374.586 349.008 374.033 347.049 373.718 345.241L373.718 345.24C372.699 339.464 372.832 333.537 372.993 327.635L372.993 327.635C373.001 327.346 373.009 327.057 373.016 326.767C373.193 320.369 373.371 313.868 372.263 307.476C372.072 306.371 371.087 305.947 370.281 306.041C369.874 306.088 369.462 306.267 369.169 306.597C368.865 306.939 368.726 307.405 368.817 307.937Z" fill="white" stroke="white" stroke-linejoin="round"/>
<path d="M408.545 361.566L408.545 361.566C407.275 361.039 406.295 360.08 405.486 359.037C404.871 358.243 404.331 357.366 403.837 356.563C403.685 356.317 403.538 356.078 403.394 355.851C397.628 346.747 393.755 336.538 392.048 325.922C392.037 325.892 392.029 325.86 392.023 325.827C391.939 325.298 392.085 324.836 392.389 324.499C392.682 324.174 393.092 323.996 393.497 323.949C394.298 323.855 395.28 324.274 395.457 325.38L395.457 325.38C396.327 330.814 397.785 336.14 399.816 341.262L399.816 341.262C401.616 345.809 403.844 350.188 406.495 354.307L406.495 354.308C406.585 354.448 406.675 354.588 406.764 354.728C407.322 355.604 407.87 356.463 408.5 357.235C408.729 357.513 409.005 357.825 409.308 358.07C409.617 358.321 409.901 358.459 410.145 358.474C410.165 358.475 410.258 358.473 410.403 358.203C410.539 357.951 410.633 357.616 410.705 357.323C410.988 356.149 411.22 354.966 411.403 353.774L411.403 353.773C412.862 344.346 411.127 334.579 406.574 326.195L406.573 326.193C406.34 325.76 406.377 325.293 406.53 324.916C406.682 324.543 406.962 324.215 407.302 324.017L407.303 324.016C408.14 323.53 408.975 323.876 409.497 324.411C409.497 324.411 409.497 324.411 409.497 324.411L421.149 336.347L408.545 361.566ZM408.545 361.566C409.833 362.1 411.382 362.011 412.51 361.024C413.606 360.065 413.945 358.666 414.216 357.5L414.216 357.499C415.401 352.375 415.667 347.035 415.075 341.824M408.545 361.566L413.271 333.196M415.075 341.824C414.744 338.902 414.14 336.008 413.271 333.196M415.075 341.824L414.578 341.88L415.075 341.824C415.075 341.824 415.075 341.824 415.075 341.824ZM413.271 333.196C414.863 334.827 416.455 336.459 418.047 338.092L418.047 338.092C418.477 338.531 418.905 338.981 419.337 339.433C420.592 340.749 421.874 342.092 423.27 343.283M413.271 333.196L424.274 302.224C423.635 302.06 423.126 301.542 422.93 300.959C422.829 300.66 422.804 300.321 422.907 299.99C423.011 299.653 423.238 299.361 423.577 299.147C425.037 298.219 426.597 297.602 428.169 297.086C428.885 296.85 429.609 296.634 430.327 296.42C430.396 296.4 430.464 296.379 430.533 296.359C431.321 296.123 432.101 295.888 432.871 295.625C434.241 295.157 435.528 294.637 436.59 293.77C437.464 293.053 438.197 292.139 438.664 291.127L438.664 291.125C439.044 290.31 439.214 289.471 439.109 288.734C439.007 288.014 438.641 287.364 437.881 286.881C437.199 286.449 436.334 286.323 435.379 286.389C434.427 286.456 433.437 286.711 432.545 286.991C431.348 287.368 430.179 287.83 428.991 288.299L428.989 288.3C427.807 288.766 426.605 289.241 425.367 289.631C422.683 290.477 419.929 291.114 417.148 291.527C406.043 293.177 394.379 291.309 384.48 286.075L384.479 286.074C383.724 285.673 383.203 284.778 383.621 283.832C383.805 283.415 384.169 283.096 384.57 282.929C384.975 282.76 385.478 282.721 385.932 282.959L385.934 282.96L385.934 282.96C391.517 285.912 397.637 287.742 403.946 288.406C409.542 288.994 415.234 288.64 420.718 287.37C423.389 286.75 425.974 285.854 428.524 284.817L428.524 284.817C430.853 283.871 433.53 282.929 436.084 282.98C438.677 283.031 441.307 284.436 442.242 287.02C443.169 289.58 442.223 292.284 440.774 294.308L440.774 294.308C439.042 296.726 436.502 298.046 433.816 298.931M423.27 343.283C423.27 343.283 423.27 343.283 423.27 343.283L423.595 342.903L423.27 343.283ZM423.27 343.283C424.882 344.662 426.904 345.905 429.185 346.097L429.185 346.097C433.903 346.489 437.514 342.667 438.582 338.562M438.582 338.562C439.876 333.59 437.158 328.546 434.416 324.837L434.416 324.837C432.376 322.081 430.039 319.533 427.47 317.244M438.582 338.562L438.098 338.436M438.582 338.562C438.582 338.562 438.582 338.562 438.582 338.562L438.098 338.436M427.47 317.244C427.669 317.31 427.868 317.38 428.066 317.452C429.379 317.933 430.644 318.528 431.908 319.123C432.594 319.445 433.279 319.768 433.973 320.072M427.47 317.244C427.087 317.117 426.704 317.002 426.319 316.903M427.47 317.244C427.168 316.975 426.864 316.71 426.556 316.448C428.479 316.957 430.339 317.832 432.151 318.684C432.832 319.004 433.506 319.321 434.174 319.615M433.973 320.072C437.488 321.616 441.48 322.477 445.371 321.41C449.325 320.327 452.079 316.597 451.243 312.421M433.973 320.072L434.174 319.615M433.973 320.072C433.973 320.072 433.973 320.072 433.973 320.072L434.174 319.615M451.243 312.421C450.279 307.6 446.138 304.781 441.855 303.34L441.855 303.339C439.865 302.672 437.812 302.159 435.788 301.654C435.134 301.49 434.484 301.328 433.84 301.161L433.839 301.161C433.178 300.991 432.517 300.821 431.857 300.651C431.175 300.475 430.493 300.3 429.812 300.125M451.243 312.421C451.243 312.421 451.243 312.421 451.243 312.421L450.753 312.519M451.243 312.421L450.753 312.519M429.812 300.125C430.364 299.954 430.922 299.794 431.484 299.633C431.546 299.615 431.608 299.597 431.67 299.58C432.386 299.374 433.107 299.165 433.816 298.931M429.812 300.125C429.509 300.047 429.206 299.969 428.903 299.891L429.812 300.125ZM433.816 298.931C433.816 298.931 433.816 298.931 433.816 298.931L433.66 298.456L433.816 298.931ZM447.525 311.945C446.125 308.446 442.321 306.937 438.647 305.933C435.383 305.041 432.105 304.212 428.821 303.381C427.306 302.998 425.79 302.614 424.274 302.224L447.525 311.945ZM447.525 311.945C448.069 313.309 448.084 314.848 447.389 316.028C446.745 317.121 445.703 317.741 444.392 318.124L444.392 318.124C441.486 318.976 438.158 318.147 435.272 316.874L435.271 316.873C434.684 316.615 434.088 316.34 433.484 316.063C431.94 315.352 430.345 314.619 428.724 314.061C426.451 313.279 424.06 312.815 421.531 313.203C421.531 313.203 421.531 313.203 421.531 313.203L421.607 313.698M447.525 311.945L433.88 340.524C432.922 341.764 431.595 342.616 430.038 342.695L430.038 342.695C428.481 342.775 427.002 341.886 425.728 340.839L425.726 340.838C424.47 339.812 423.347 338.638 422.206 337.444C421.857 337.079 421.506 336.712 421.149 336.348L420.791 336.697C421.139 337.053 421.484 337.413 421.83 337.775C422.976 338.973 424.128 340.177 425.41 341.225C426.702 342.286 428.308 343.285 430.064 343.195C433.535 343.019 435.869 339.39 435.93 336.217M421.607 313.698C420.608 313.85 420.081 315.224 420.985 315.861C421.122 315.957 421.258 316.054 421.395 316.152C421.401 316.261 421.444 316.366 421.518 316.451C421.631 316.579 421.801 316.64 421.969 316.615C421.986 316.612 422.003 316.61 422.019 316.607C425.175 318.944 428.04 321.635 430.529 324.661C433.2 327.902 436.007 331.838 435.93 336.217M421.607 313.698C421.785 313.67 421.962 313.647 422.139 313.629M421.607 313.698L422.139 313.629M435.93 336.217L435.43 336.207C435.43 336.207 435.43 336.208 435.43 336.208L435.93 336.217ZM426.319 316.903L431.73 301.135C432.392 301.305 433.053 301.475 433.715 301.645C434.368 301.814 435.024 301.978 435.681 302.142C437.7 302.647 439.727 303.153 441.696 303.813C445.912 305.233 449.841 307.958 450.753 312.519M426.319 316.903C429.187 319.351 431.781 322.116 434.014 325.134C436.748 328.833 439.329 333.705 438.098 338.436M426.319 316.903L429.227 345.598C433.621 345.964 437.068 342.395 438.098 338.436M434.174 319.615C437.633 321.133 441.501 321.953 445.239 320.928C448.977 319.904 451.53 316.401 450.753 312.519M439.118 291.336C439.932 289.586 439.924 287.585 438.149 286.459C436.534 285.437 434.203 285.947 432.395 286.514C431.18 286.897 429.997 287.364 428.814 287.831C427.626 288.3 426.438 288.769 425.216 289.154C422.557 289.993 419.829 290.624 417.074 291.033L439.118 291.336ZM439.118 291.336C438.616 292.423 437.833 293.397 436.906 294.157C435.771 295.084 434.411 295.627 433.033 296.098C432.185 296.388 431.327 296.644 430.471 296.899C428.608 297.455 426.754 298.008 425.024 298.895L439.118 291.336ZM435.07 317.331C437.99 318.62 441.454 319.507 444.532 318.604C445.913 318.201 447.088 317.524 447.82 316.282L435.07 317.331ZM435.07 317.331C434.467 317.065 433.861 316.787 433.252 316.506C429.939 314.983 426.519 313.41 422.842 313.575M435.07 317.331L422.842 313.575M422.139 313.629C422.195 313.564 422.267 313.515 422.349 313.486C422.502 313.432 422.671 313.455 422.803 313.548C422.816 313.557 422.829 313.566 422.842 313.575M422.139 313.629L422.842 313.575" fill="white" stroke="white" stroke-linejoin="round"/>
<path d="M166.095 290.763L166.095 290.763C169.837 289.461 173.389 287.648 176.956 285.808L176.956 285.802L177.265 285.644C177.725 285.408 178.225 285.465 178.621 285.654C179.014 285.842 179.356 286.183 179.523 286.609L179.524 286.612C179.883 287.544 179.413 288.478 178.639 288.877C174.414 291.059 170.108 293.277 165.499 294.644L165.498 294.644C161.214 295.914 156.86 296.17 152.493 296.326C148.286 296.478 144.035 296.507 139.807 296.055C131.805 295.2 124.153 292.234 117.624 287.177L117.624 287.177C117.2 286.848 116.985 286.411 116.959 285.959C116.933 285.52 117.084 285.099 117.329 284.772C117.574 284.444 117.934 284.18 118.363 284.087C118.806 283.991 119.281 284.087 119.705 284.415L166.095 290.763ZM166.095 290.763C162.16 292.137 158.139 292.571 153.947 292.749L153.947 292.749M166.095 290.763L153.947 292.749M153.947 292.749C146.096 293.084 138.134 293.136 130.672 290.448L130.672 290.448M153.947 292.749L130.672 290.448M130.672 290.448C126.754 289.037 123.052 287.008 119.706 284.416L130.672 290.448Z" fill="white" stroke="white"/>
<path d="M114.055 264.976L103.253 264.139C100.025 263.889 97.2054 266.302 96.9553 269.53L94.5304 300.823C94.2803 304.051 96.6942 306.87 99.922 307.12L110.725 307.957C113.953 308.208 116.772 305.794 117.022 302.566L119.447 271.273C119.697 268.045 117.283 265.226 114.055 264.976Z" stroke="white" stroke-width="5" stroke-miterlimit="10"/>
<path d="M98.7405 273.388C98.7254 273.343 98.7037 273.299 98.6757 273.259C95.4346 268.621 93.0811 263.513 90.8043 258.314C90.5391 257.708 90.2749 257.101 90.0105 256.493C88.01 251.898 85.9941 247.266 83.4158 242.921C82.0848 240.675 80.6026 238.229 78.4447 236.491L78.4446 236.491C76.402 234.846 73.5313 234.036 70.9663 235.373L70.9659 235.373C68.3229 236.754 66.9607 239.486 66.2176 242.066C65.4662 244.676 65.3187 247.587 65.6689 250.329L65.6689 250.329C66.3906 255.943 68.9043 261.14 71.7428 265.939C65.1075 267.612 59.5157 272.871 57.3648 279.263L57.3648 279.263C56.6553 281.373 56.3221 283.531 56.3731 285.751L56.3731 285.753C56.3877 286.277 56.6852 286.695 57.0419 286.956C57.3963 287.216 57.8618 287.362 58.3147 287.308C59.3577 287.185 59.8675 286.289 59.8502 285.436L59.8502 285.434C59.7 279.204 63.8603 273.121 69.5288 270.394L98.7405 273.388ZM98.7405 273.388C98.9823 273.796 99.0338 274.232 98.9359 274.633C98.8313 275.062 98.5634 275.423 98.2332 275.669C97.9034 275.915 97.4801 276.067 97.04 276.033C96.5843 275.998 96.1556 275.764 95.8464 275.32C92.33 270.282 89.7925 264.692 87.3727 259.143L87.3726 259.143C87.1659 258.669 86.9599 258.194 86.754 257.719C84.8586 253.35 82.9677 248.991 80.5514 244.919L80.551 244.919C80.5076 244.845 80.4628 244.769 80.4167 244.691C79.5868 243.284 78.3219 241.14 76.8071 239.671C76.0089 238.897 75.1863 238.356 74.3686 238.181C73.5821 238.013 72.741 238.17 71.8378 238.918L71.8377 238.918C70.2447 240.237 69.5354 242.558 69.1863 244.667L69.1863 244.667C68.7826 247.096 68.9657 249.579 69.4997 252.007C70.6103 257.053 73.1993 261.755 75.9552 266.184L75.9555 266.184C76.2719 266.694 76.3304 267.321 76.1279 267.852C75.9184 268.401 75.4326 268.833 74.7298 268.906M98.7405 273.388L74.7298 268.906M74.7298 268.906C72.9138 269.097 71.1773 269.604 69.5292 270.394L74.7298 268.906Z" fill="white" stroke="white" stroke-linejoin="round"/>
<path d="M41.4449 288.713C38.0381 287.647 34.7376 286.219 31.6468 284.426L31.6467 284.426C27.9896 282.304 24.0452 279.247 22.8045 274.777L22.8045 274.777C21.7862 271.108 22.6544 266.389 26.0663 264.076L26.0666 264.076C28.4099 262.49 31.0353 262.512 33.5527 263.108C35.4452 263.555 37.3428 264.346 39.0601 265.062C39.6079 265.29 40.1373 265.51 40.6424 265.71C42.2472 266.342 43.8515 266.974 45.4555 267.607C46.074 267.85 46.6925 268.094 47.3109 268.338C45.4592 266.245 43.7904 263.988 42.3342 261.603L42.3342 261.603C39.5846 257.099 37.5765 252.194 36.417 247.039L36.4169 247.039C36.4106 247.011 36.4043 246.982 36.3979 246.954C36.2656 246.366 36.1165 245.702 36.0595 245.038C35.9994 244.339 36.0371 243.601 36.3232 242.904C36.8949 241.509 38.2372 240.682 39.6909 240.662C41.0749 240.64 42.3601 241.115 43.5309 241.74C44.4132 242.21 45.2651 242.786 46.0554 243.321C46.306 243.49 46.5505 243.656 46.7878 243.812L41.4449 288.713ZM41.4449 288.713C41.1059 288.75 40.7631 288.778 40.4171 288.799C39.3202 288.865 38.2036 288.858 37.0862 288.84C36.8977 288.837 36.709 288.834 36.5203 288.831C35.5967 288.814 34.6742 288.798 33.7833 288.819C30.2698 288.9 26.4162 289.857 23.6666 292.33L23.6665 292.33C22.3333 293.53 21.3128 295.044 20.9298 296.872L20.9297 296.873C20.4956 298.959 21.0579 301.097 22.2204 302.8L22.2205 302.8C24.996 306.863 30.0403 307.674 34.387 307.249L34.3873 307.249C36.4634 307.044 38.5326 306.655 40.568 306.272C41.2115 306.151 41.8515 306.031 42.4873 305.917C43.7941 305.685 45.1017 305.452 46.4092 305.218C46.0091 305.585 45.5989 305.948 45.1851 306.314C44.849 306.611 44.5104 306.911 44.1729 307.216C42.2032 308.998 40.2998 310.955 39.4607 313.737C38.7802 315.992 38.6531 318.666 39.8895 320.878L39.8895 320.878C41.2616 323.332 44.0992 324.456 46.772 323.79C49.7339 323.055 51.9989 320.731 53.8931 318.692C55.7909 316.65 57.7591 314.721 59.9429 313.002C64.2364 309.624 69.0833 307.014 74.2422 305.239L74.0796 304.767L74.2422 305.239C80.0648 303.236 86.2851 302.341 92.4225 302.724C93.2663 302.777 94.1664 302.29 94.3223 301.281L94.3228 301.278C94.3879 300.836 94.2571 300.375 94.0128 300.018C93.7665 299.659 93.3648 299.353 92.8484 299.317L92.8452 299.317C81.761 298.63 70.6468 301.672 61.3601 307.761C59.1249 309.223 57.0099 310.869 55.0368 312.675C54.1185 313.516 53.2411 314.449 52.3719 315.373C52.3007 315.449 52.2297 315.525 52.1586 315.6C51.214 316.603 50.2728 317.59 49.2663 318.47C48.4756 319.16 47.5328 319.861 46.5611 320.25C45.598 320.635 44.6634 320.694 43.8089 320.201L43.8082 320.2C42.5393 319.471 42.1983 317.789 42.4143 316.106C42.7241 313.713 44.1031 311.933 45.9268 310.239C46.4125 309.788 46.9193 309.341 47.4323 308.888C49.185 307.343 51.0092 305.734 52.3036 303.683L52.3036 303.683C52.6588 303.12 52.6619 302.396 52.3991 301.842C52.122 301.257 51.519 300.815 50.701 300.962C50.4963 300.998 50.2917 301.035 50.0871 301.072L50.0115 300.936L49.9054 301.104C48.7005 301.321 47.4965 301.54 46.293 301.758C43.0459 302.349 39.8017 302.939 36.549 303.479C32.7102 304.115 28.5274 304.438 25.7129 301.672C24.6887 300.663 24.066 299.249 24.2053 297.952L24.2054 297.952C24.326 296.817 24.9079 295.791 25.7818 295.009L25.7829 295.008C27.9993 293.013 31.0645 292.294 34.0862 292.225L34.0865 292.225C34.9014 292.206 35.74 292.208 36.5887 292.211C38.1826 292.216 39.8121 292.221 41.3872 292.082C43.5789 291.89 45.7489 291.417 47.7646 290.262L47.9488 290.297L47.9174 290.173C48.0972 290.066 48.2757 289.954 48.4528 289.836C49.1231 289.39 49.26 288.647 49.0822 288.037C48.9093 287.444 48.4185 286.889 47.7215 286.755L47.7213 286.755C43.3868 285.925 39.1914 284.488 35.251 282.487C31.8815 280.774 28.3225 278.604 26.6414 275.241L26.6413 275.241C25.3807 272.724 25.4504 269.277 27.4501 267.336C28.6512 266.175 30.3646 265.982 32.1109 266.311L32.112 266.311C33.858 266.635 35.5276 267.322 37.2303 268.023C37.698 268.216 38.1681 268.409 38.643 268.597L38.6431 268.597L54.2443 274.748" fill="white" stroke="white"/>
<circle cx="358.799" cy="115.269" r="37.2839" transform="rotate(-11.082 358.799 115.269)" stroke="white" stroke-width="5"/>
</svg>
