<svg width="137" height="200" viewBox="0 0 137 200" fill="none" xmlns="http://www.w3.org/2000/svg">
<path d="M92.2951 3H41.5492C31.2127 3 22.8333 11.3794 22.8333 21.7158V34.7701C22.8333 39.9383 27.023 44.128 32.1913 44.128C37.3595 44.128 41.5492 48.3177 41.5492 53.4859V83.5386C41.5492 85.9568 41.1106 88.355 40.2548 90.6167L10.2462 169.922C5.29528 183.006 14.9624 197 28.9518 197H108.048C122.038 197 131.705 183.006 126.754 169.922L96.7452 90.6167C95.8894 88.355 95.4508 85.9568 95.4508 83.5386V52.5501C95.4508 47.8987 99.2215 44.128 103.873 44.128C108.524 44.128 112.295 40.3573 112.295 35.7059V23C112.295 11.9543 103.341 3 92.2951 3Z" stroke="#231F20" stroke-width="5"/>
<path d="M83.1918 117H54.7371C50.6252 117 46.9324 119.517 45.4292 123.344L27.3631 169.344C24.7867 175.904 29.6231 183 36.671 183H100.541C107.531 183 112.364 176.011 109.898 169.471L92.5484 123.471C91.0798 119.577 87.3533 117 83.1918 117Z" fill="#231F20"/>
<path d="M57.5 155.5C57.5 159.81 53.8053 163.5 49 163.5C44.1947 163.5 40.5 159.81 40.5 155.5C40.5 151.19 44.1947 147.5 49 147.5C53.8053 147.5 57.5 151.19 57.5 155.5Z" stroke="white" stroke-width="5"/>
<circle cx="89.5" cy="162.5" r="5" stroke="white" stroke-width="5"/>
<circle cx="75" cy="141" r="12.5" stroke="white" stroke-width="5"/>
</svg>
