<svg width="275" height="209" viewBox="0 0 275 209" fill="none" xmlns="http://www.w3.org/2000/svg">
<path d="M42.6902 54.5533C17.6031 77.5131 5.19756 108.213 14.1298 138.32C15.3522 149.757 18.3766 166.743 23.5525 180.754C26.1384 187.753 29.3254 194.19 33.222 198.821C37.1272 203.461 42.0325 206.597 47.9409 206.119C52.4445 205.755 55.8846 203.32 58.3919 199.77C60.8512 196.289 62.4806 191.663 63.5494 186.554C65.6705 176.417 65.7367 163.602 64.9457 151.853C65.0592 151.781 65.2345 151.696 65.4664 151.635C65.6909 151.577 65.8791 151.565 66.0104 151.571C71.9572 164.369 79.5311 177.987 87.5717 187.066C91.6103 191.627 95.9573 195.263 100.476 196.936C105.175 198.676 109.98 198.245 114.384 194.842C123.26 187.986 126.816 177.799 127.498 167.298C127.7 164.184 127.652 161.018 127.411 157.864C129.486 161.593 131.729 165.091 134.11 168.122C137.303 172.186 140.881 175.584 144.809 177.488C148.838 179.441 153.218 179.802 157.651 177.768C161.344 176.075 163.993 172.982 165.86 169.216C167.72 165.464 168.874 160.912 169.539 156.014C170.855 146.325 170.315 134.803 169.062 124.289C169.203 124.178 169.437 124.04 169.753 123.935C170.071 123.829 170.344 123.8 170.524 123.805C176.456 134.021 183.836 144.593 191.674 151.609C199.469 158.586 208.671 162.809 217.414 157.675C222.797 154.514 225.987 149.174 227.713 142.979C229.434 136.8 229.765 129.557 229.286 122.174C228.344 107.624 224.22 91.9622 220.585 81.515L257.14 71.5416C259.587 70.874 261.171 68.1825 260.075 65.6069C251.356 45.1191 215.348 16.2378 148.931 16.1491C105.815 16.0915 67.799 31.5737 42.6902 54.5533ZM66.1817 151.596C66.1816 151.596 66.1814 151.596 66.1811 151.596L66.1817 151.596Z" fill="#F16923" stroke="white" stroke-width="5"/>
<path d="M160.19 68.7206C161.194 77.7067 159.168 87.3705 160.598 96.0219" stroke="white" stroke-width="4" stroke-linecap="round"/>
<path d="M110.013 79.7516C108.527 89.079 109.101 99.0726 110.641 108.385" stroke="white" stroke-width="4" stroke-linecap="round"/>
<path d="M60.0562 92.1144C59.6995 100.847 59.2047 109.574 58.9114 118.304" stroke="white" stroke-width="4" stroke-linecap="round"/>
</svg>
