<svg width="1440" height="189" viewBox="0 0 1440 189" fill="none" xmlns="http://www.w3.org/2000/svg">
<path fill-rule="evenodd" clip-rule="evenodd" d="M1441.98 0H-39V113.556H-3.62724C-3.78022 115.225 -3.85801 116.911 -3.85801 118.611C-3.85801 157.486 36.8246 189 87.0091 189C137.194 189 177.876 157.486 177.876 118.611C177.876 157.486 218.559 189 268.743 189C318.928 189 359.611 157.486 359.611 118.611C359.611 157.486 400.293 189 450.478 189C500.662 189 541.345 157.486 541.345 118.611C541.345 157.486 582.027 189 632.212 189C675.849 189 712.302 165.172 721.071 133.397C729.84 165.172 766.293 189 809.93 189C860.115 189 900.797 157.486 900.797 118.611C900.797 116.911 900.719 115.225 900.566 113.556H901.028C900.875 115.225 900.797 116.911 900.797 118.611C900.797 157.486 941.48 189 991.664 189C1041.85 189 1082.53 157.486 1082.53 118.611C1082.53 157.486 1123.21 189 1173.4 189C1223.58 189 1264.27 157.486 1264.27 118.611C1264.27 157.486 1304.95 189 1355.13 189C1405.32 189 1446 157.486 1446 118.611C1446 111.385 1444.59 104.414 1441.98 97.8522V0ZM1264.5 113.556C1264.34 115.225 1264.27 116.911 1264.27 118.611C1264.27 116.911 1264.19 115.225 1264.04 113.556H1264.5ZM1082.76 113.556C1082.61 115.225 1082.53 116.911 1082.53 118.611C1082.53 116.911 1082.45 115.225 1082.3 113.556H1082.76ZM541.576 113.556C541.423 115.225 541.345 116.911 541.345 118.611C541.345 116.911 541.267 115.225 541.114 113.556H541.576ZM359.841 113.556C359.688 115.225 359.611 116.911 359.611 118.611C359.611 116.911 359.533 115.225 359.38 113.556H359.841ZM178.107 113.556C177.954 115.225 177.876 116.911 177.876 118.611C177.876 116.911 177.798 115.225 177.645 113.556H178.107Z" fill="#F16923"/>
</svg>
