<svg width="161" height="159" viewBox="0 0 161 159" fill="none" xmlns="http://www.w3.org/2000/svg">
<g clip-path="url(#clip0_11_41)">
<path d="M97.9637 11.794C96.2275 2.86691 84.0969 1.34735 80.2123 9.57038C79.3954 11.2998 76.8803 11.4334 75.8994 9.67314C71.5354 1.84114 59.479 3.90207 58.3451 13.02C58.1159 14.863 55.7825 15.8065 54.2885 14.4194C47.7908 8.38686 36.858 13.9043 38.6423 22.9926C38.9955 24.7917 37.0879 26.404 35.2522 25.5481C27.23 21.8082 18.5113 30.4187 23.0379 38.5089C23.9417 40.1242 22.6153 42.2059 20.6508 41.9581C11.7937 40.8407 6.30043 51.7903 13.0603 58.0442C14.4577 59.337 13.7891 61.6847 11.9026 62.0383C2.97479 63.7115 1.45261 75.8631 9.69182 79.6868C11.4328 80.4948 11.5017 82.9348 9.82858 83.843C1.73495 88.2363 4.3576 100.203 13.2166 101.304C15.1816 101.549 15.9535 103.893 14.6792 105.236C8.29693 111.959 14.6223 122.455 23.3191 120.809C25.3093 120.432 26.7602 122.465 25.9741 124.122C22.0032 132.489 31.2373 140.533 39.0222 136.289C40.8122 135.314 42.8408 136.804 42.6083 138.646C41.4581 147.762 52.6336 152.733 58.7947 146.22C60.1794 144.756 62.5838 145.506 62.949 147.383C64.6852 156.31 76.8158 157.83 80.7003 149.607C81.5173 147.877 84.0324 147.744 85.0132 149.504C89.3773 157.336 101.434 155.275 102.568 146.157C102.797 144.314 105.13 143.371 106.624 144.758C113.122 150.79 124.055 145.273 122.27 136.184C121.917 134.385 123.825 132.773 125.661 133.629C133.683 137.369 142.401 128.758 137.875 120.668C136.971 119.053 138.297 116.971 140.262 117.219C149.119 118.336 154.612 107.387 147.852 101.133C146.455 99.84 147.124 97.4923 149.01 97.1388C157.938 95.4655 159.46 83.3139 151.221 79.4903C149.48 78.6823 149.411 76.2422 151.084 75.334C159.178 70.9407 156.555 58.9745 147.696 57.8726C145.731 57.6282 144.959 55.2837 146.233 53.9413C152.616 47.2176 146.29 36.7225 137.594 38.3681C135.603 38.7447 134.153 36.7117 134.939 35.0554C138.909 26.688 129.675 18.6443 121.89 22.8877C120.1 23.8634 118.072 22.3735 118.304 20.531C119.455 11.415 108.279 6.44391 102.118 12.9575C100.733 14.4214 98.3288 13.6715 97.9637 11.794Z" stroke="#F16923" stroke-width="7"/>
<path d="M27.5352 61.2774L36.2738 62.3721L40.4426 74.8049L40.6681 74.8331L47.7748 63.8128L56.5133 64.9074L43.4355 83.3683L42.2984 92.4451L34.5183 91.4705L35.6554 82.3937L27.5352 61.2774ZM76.1503 67.3673L83.9868 68.349L81.6704 86.8408C81.395 89.0395 80.6304 90.8764 79.3768 92.3513C78.1337 93.818 76.5225 94.8712 74.5432 95.5108C72.565 96.141 70.3403 96.3013 67.8691 95.9918C65.3791 95.6799 63.2533 94.9746 61.4917 93.8759C59.7314 92.7678 58.4297 91.3497 57.5868 89.6217C56.7545 87.8855 56.4761 85.918 56.7515 83.7193L59.0679 65.2274L66.9044 66.2091L64.6727 84.0244C64.5609 84.9171 64.6582 85.7405 64.9645 86.4946C65.2721 87.2394 65.7488 87.8526 66.3947 88.3344C67.05 88.8173 67.8239 89.1147 68.7166 89.2265C69.6186 89.3395 70.442 89.2422 71.1868 88.9347C71.9315 88.6271 72.5448 88.1504 73.0265 87.5045C73.5095 86.8492 73.8068 86.0753 73.9186 85.1826L76.1503 67.3673ZM87.7112 68.8155L97.4646 70.0373L102.125 87.2272L102.464 87.2696L111.221 71.7605L120.974 72.9822L117.358 101.848L109.691 100.887L111.781 84.1993L111.556 84.1711L103.066 99.8282L98.4435 99.2491L94.0928 81.869L93.8673 81.8408L91.7627 98.6413L84.0954 97.6808L87.7112 68.8155ZM133.821 74.5915L130.602 94.3446L124.175 93.5395L125.928 73.6028L133.821 74.5915ZM126.202 103.414C125.112 103.277 124.225 102.779 123.54 101.921C122.866 101.054 122.603 100.071 122.75 98.9727C122.875 97.9004 123.37 97.0319 124.236 96.3673C125.111 95.7039 126.094 95.4405 127.184 95.577C128.217 95.7065 129.081 96.2012 129.775 97.0612C130.479 97.9223 130.768 98.8891 130.643 99.9614C130.542 100.693 130.266 101.336 129.814 101.89C129.374 102.437 128.835 102.851 128.199 103.134C127.563 103.407 126.898 103.501 126.202 103.414Z" fill="#F16923"/>
</g>
<defs>
<clipPath id="clip0_11_41">
<rect width="161" height="159" fill="white"/>
</clipPath>
</defs>
</svg>
