<svg width="1440" height="2258" viewBox="0 0 1440 2258" fill="none" xmlns="http://www.w3.org/2000/svg">
<circle cx="229" cy="967" r="441" fill="#231F20"/>
<path d="M57.4722 708.947L48.4925 695.453C46.9077 693.072 43.2058 694.049 43.0025 696.902L41.8506 713.07L29.443 722.294C27.2714 723.908 28.1787 727.346 30.8641 727.679L46.2075 729.579L55.1872 743.073C56.772 745.455 60.4738 744.478 60.6771 741.625L61.829 725.457L74.2366 716.233C76.4082 714.618 75.501 711.181 72.8156 710.848L57.4722 708.947Z" stroke="white" stroke-width="4"/>
<path d="M1284 781.5C1284 939.73 1155.73 1068 997.5 1068C839.27 1068 711 939.73 711 781.5C711 623.27 839.27 495 997.5 495C1155.73 495 1284 623.27 1284 781.5Z" fill="#065097"/>
<path d="M1252.47 790.947L1243.49 777.453C1241.91 775.072 1238.21 776.049 1238 778.902L1236.85 795.07L1224.44 804.294C1222.27 805.908 1223.18 809.346 1225.86 809.679L1241.21 811.579L1250.19 825.073C1251.77 827.455 1255.47 826.478 1255.68 823.625L1256.83 807.457L1269.24 798.233C1271.41 796.618 1270.5 793.181 1267.82 792.848L1252.47 790.947Z" stroke="white" stroke-width="4"/>
<circle cx="217.5" cy="1581.5" r="49.5" fill="#F16923"/>
<circle cx="485.754" cy="1831.75" r="425.754" fill="#065097"/>
<circle cx="1192" cy="1436" r="343" fill="#F16923"/>
<path d="M1219.92 1050.91L1215.98 992.575C1215.38 983.537 1203.66 980.399 1198.62 987.921L1166.04 1036.48L1111.38 1043.04C1102.87 1044.06 1099.95 1054.93 1106.81 1060.07L1150.87 1093.09L1154.81 1151.43C1155.42 1160.46 1167.13 1163.6 1172.17 1156.08L1204.75 1107.52L1259.42 1100.96C1267.92 1099.94 1270.84 1089.07 1263.98 1083.93L1219.92 1050.91Z" fill="white" stroke="#231F20" stroke-width="17"/>
<path d="M117.61 2047.36L68.8446 1974.68C62.2038 1964.78 46.7948 1968.91 45.9927 1980.8L40.1027 2068.13L-25.7763 2117.49C-34.7991 2124.25 -30.965 2138.56 -19.7704 2139.91L61.9641 2149.72L110.729 2222.4C117.37 2232.3 132.779 2228.17 133.581 2216.28L139.471 2128.95L205.35 2079.58C214.373 2072.82 210.539 2058.51 199.344 2057.17L117.61 2047.36Z" fill="white" stroke="#065097" stroke-width="23"/>
<circle cx="-27.5" cy="1526.5" r="154.5" fill="#231F20"/>
<circle cx="176" cy="1460" r="45" fill="#065097"/>
<circle cx="11" cy="1743" r="45" fill="#F16923"/>
<circle cx="1015.5" cy="1844.5" r="56.5" fill="#F16923"/>
<circle cx="1400.5" cy="1799.5" r="56.5" fill="#065097"/>
<circle cx="956" cy="1752" r="25" fill="#065097"/>
<circle cx="768" cy="1124" r="109" fill="#231F20"/>
<circle cx="565" cy="1349" r="53" fill="#231F20"/>
<circle cx="651" cy="1223" r="33" fill="#065097"/>
<circle cx="718.5" cy="971.5" r="38.5" fill="#F16923"/>
<circle cx="609.5" cy="645.5" r="49.5" fill="#F16923"/>
<circle cx="736" cy="1349" r="106" fill="#F16923"/>
<circle cx="938" cy="1125" r="47" fill="#F16923"/>
<circle cx="854" cy="1248" r="25" fill="#065097"/>
<circle cx="709" cy="616" r="25" fill="#231F20"/>
<circle cx="808" cy="1488" r="25" fill="#065097"/>
<circle cx="1375" cy="985" r="126" fill="#F16923"/>
<circle cx="1363.5" cy="769.5" r="56.5" fill="#065097"/>
<circle cx="663" cy="735" r="33" fill="#065097"/>
<circle cx="65" cy="194" r="33" fill="#065097"/>
<circle cx="47.5" cy="485.5" r="38.5" fill="#065097"/>
<circle cx="114" cy="337" r="82" fill="#231F20"/>
<circle cx="1329" cy="340" r="82" fill="#F16923"/>
<circle cx="1358" cy="571" r="109" fill="#231F20"/>
<circle cx="1223.5" cy="454.5" r="38.5" fill="#F16923"/>
<circle cx="1367.5" cy="130.5" r="38.5" fill="#F16923"/>
<circle cx="174.5" cy="468.5" r="38.5" fill="#F16923"/>
<circle cx="1268.5" cy="159.5" r="31.5" fill="#065097"/>
<circle cx="1420.5" cy="232.5" r="31.5" fill="#065097"/>
<circle cx="1331.5" cy="31.5" r="31.5" fill="#231F20"/>
<circle cx="1210" cy="532" r="25" fill="#231F20"/>
<path d="M206.911 142.899L201.364 101.254C200.42 94.1648 191.033 92.2939 187.443 98.4793L166.354 134.816L127.404 142.086C120.754 143.327 119.016 152.044 124.682 155.74L157.869 177.388L163.416 219.033C164.361 226.121 173.747 227.992 177.337 221.807L198.426 185.471L237.377 178.2C244.027 176.959 245.764 168.242 240.098 164.546L206.911 142.899Z" fill="white" stroke="#065097" stroke-width="13"/>
<path d="M313.48 569.617L292.045 515.217C288.724 506.789 276.613 507.349 274.084 516.047L257.76 572.193L207.656 595.018C199.858 598.57 200.378 609.817 208.471 612.635L260.467 630.739L281.902 685.139C285.222 693.567 297.333 693.007 299.862 684.309L316.187 628.163L366.291 605.338C374.088 601.786 373.569 590.539 365.476 587.721L313.48 569.617Z" fill="white" stroke="#F16923" stroke-width="17"/>
</svg>
