<svg width="1747" height="2258" viewBox="0 0 1747 2258" fill="none" xmlns="http://www.w3.org/2000/svg">
<circle cx="441" cy="967" r="441" fill="#231F20"/>
<path d="M269.472 708.947L260.493 695.453C258.908 693.072 255.206 694.049 255.003 696.902L253.851 713.07L241.443 722.294C239.271 723.908 240.179 727.346 242.864 727.679L258.207 729.579L267.187 743.073C268.772 745.455 272.474 744.478 272.677 741.625L273.829 725.457L286.237 716.233C288.408 714.618 287.501 711.181 284.816 710.848L269.472 708.947Z" stroke="white" stroke-width="4"/>
<path d="M1496 781.5C1496 939.73 1367.73 1068 1209.5 1068C1051.27 1068 923 939.73 923 781.5C923 623.27 1051.27 495 1209.5 495C1367.73 495 1496 623.27 1496 781.5Z" fill="#065097"/>
<path d="M1464.47 790.947L1455.49 777.453C1453.91 775.072 1450.21 776.049 1450 778.902L1448.85 795.07L1436.44 804.294C1434.27 805.908 1435.18 809.346 1437.86 809.679L1453.21 811.579L1462.19 825.073C1463.77 827.455 1467.47 826.478 1467.68 823.625L1468.83 807.457L1481.24 798.233C1483.41 796.618 1482.5 793.181 1479.82 792.848L1464.47 790.947Z" stroke="white" stroke-width="4"/>
<circle cx="429.5" cy="1581.5" r="49.5" fill="#F16923"/>
<circle cx="697.754" cy="1831.75" r="425.754" fill="#065097"/>
<circle cx="1404" cy="1436" r="343" fill="#F16923"/>
<path d="M1431.92 1050.91L1427.98 992.575C1427.38 983.537 1415.66 980.399 1410.62 987.921L1378.04 1036.48L1323.38 1043.04C1314.87 1044.06 1311.95 1054.93 1318.81 1060.07L1362.87 1093.09L1366.81 1151.43C1367.42 1160.46 1379.13 1163.6 1384.17 1156.08L1416.75 1107.52L1471.42 1100.96C1479.92 1099.94 1482.84 1089.07 1475.98 1083.93L1431.92 1050.91Z" fill="white" stroke="#231F20" stroke-width="17"/>
<path d="M329.61 2047.36L280.845 1974.68C274.204 1964.78 258.795 1968.91 257.993 1980.8L252.103 2068.13L186.224 2117.49C177.201 2124.25 181.035 2138.56 192.23 2139.91L273.964 2149.72L322.729 2222.4C329.37 2232.3 344.779 2228.17 345.581 2216.28L351.471 2128.95L417.35 2079.58C426.373 2072.82 422.539 2058.51 411.344 2057.17L329.61 2047.36Z" fill="white" stroke="#065097" stroke-width="23"/>
<circle cx="184.5" cy="1526.5" r="154.5" fill="#231F20"/>
<circle cx="388" cy="1460" r="45" fill="#065097"/>
<circle cx="223" cy="1743" r="45" fill="#F16923"/>
<circle cx="1227.5" cy="1844.5" r="56.5" fill="#F16923"/>
<circle cx="1612.5" cy="1799.5" r="56.5" fill="#065097"/>
<circle cx="1168" cy="1752" r="25" fill="#065097"/>
<circle cx="980" cy="1124" r="109" fill="#231F20"/>
<circle cx="777" cy="1349" r="53" fill="#231F20"/>
<circle cx="863" cy="1223" r="33" fill="#065097"/>
<circle cx="930.5" cy="971.5" r="38.5" fill="#F16923"/>
<circle cx="821.5" cy="645.5" r="49.5" fill="#F16923"/>
<circle cx="948" cy="1349" r="106" fill="#F16923"/>
<circle cx="1150" cy="1125" r="47" fill="#F16923"/>
<circle cx="1066" cy="1248" r="25" fill="#065097"/>
<circle cx="921" cy="616" r="25" fill="#231F20"/>
<circle cx="1020" cy="1488" r="25" fill="#065097"/>
<circle cx="1587" cy="985" r="126" fill="#F16923"/>
<circle cx="1575.5" cy="769.5" r="56.5" fill="#065097"/>
<circle cx="875" cy="735" r="33" fill="#065097"/>
<circle cx="277" cy="194" r="33" fill="#065097"/>
<circle cx="259.5" cy="485.5" r="38.5" fill="#065097"/>
<circle cx="326" cy="337" r="82" fill="#231F20"/>
<circle cx="1541" cy="340" r="82" fill="#F16923"/>
<circle cx="1570" cy="571" r="109" fill="#231F20"/>
<circle cx="1435.5" cy="454.5" r="38.5" fill="#F16923"/>
<circle cx="1579.5" cy="130.5" r="38.5" fill="#F16923"/>
<circle cx="386.5" cy="468.5" r="38.5" fill="#F16923"/>
<circle cx="1480.5" cy="159.5" r="31.5" fill="#065097"/>
<circle cx="1632.5" cy="232.5" r="31.5" fill="#065097"/>
<circle cx="1543.5" cy="31.5" r="31.5" fill="#231F20"/>
<circle cx="1422" cy="532" r="25" fill="#231F20"/>
<path d="M418.911 142.899L413.364 101.254C412.42 94.1648 403.033 92.2939 399.443 98.4793L378.354 134.816L339.404 142.086C332.754 143.327 331.016 152.044 336.682 155.74L369.869 177.388L375.416 219.033C376.361 226.121 385.747 227.992 389.337 221.807L410.426 185.471L449.377 178.2C456.027 176.959 457.764 168.242 452.098 164.546L418.911 142.899Z" fill="white" stroke="#065097" stroke-width="13"/>
<path d="M525.48 569.617L504.045 515.217C500.724 506.789 488.613 507.349 486.084 516.047L469.76 572.193L419.656 595.018C411.858 598.57 412.378 609.817 420.471 612.635L472.467 630.739L493.902 685.139C497.222 693.567 509.333 693.007 511.862 684.309L528.187 628.163L578.291 605.338C586.088 601.786 585.569 590.539 577.476 587.721L525.48 569.617Z" fill="white" stroke="#F16923" stroke-width="17"/>
</svg>
