<svg width="509" height="542" viewBox="0 0 509 542" fill="none" xmlns="http://www.w3.org/2000/svg">
<path d="M597.463 132.337C590.622 139.441 583.749 146.561 576.102 152.823C572.398 155.854 568.487 158.661 564.368 161.109C559.866 163.782 555.106 165.981 550.297 168.021C531.224 176.107 511.319 183.943 490.407 184.984C478.574 185.576 466.732 184.143 455.373 180.771C452.802 180.004 451.704 184.027 454.267 184.784C464.627 187.857 475.461 189.381 486.271 189.265C497.081 189.148 507.716 187.291 518.068 184.335C528.419 181.378 538.347 177.439 548.241 173.351C553.292 171.269 558.335 169.145 563.162 166.564C567.597 164.19 571.791 161.409 575.777 158.353C584.723 151.482 592.595 143.388 600.409 135.285C602.264 133.353 599.327 130.405 597.463 132.337Z" fill="#F16924"/>
<path d="M380.988 286.273L380.014 282.225C415.106 273.798 410.229 251.505 410.005 250.564L409.497 248.44L411.636 248.024L450.372 240.704C454.866 239.455 458.61 236.515 460.94 232.435C463.279 228.329 463.886 223.566 462.646 219.036L444.464 152.615C441.893 143.221 432.173 137.675 422.795 140.24L406.21 144.804C405.969 144.87 405.536 145.012 404.895 145.295C401.209 146.944 394.136 151.599 389.118 155.671L386.496 152.44C391.173 148.643 398.704 143.513 403.198 141.498C403.897 141.181 404.537 140.948 405.095 140.79L421.688 136.226C433.28 133.045 445.296 139.907 448.467 151.516L466.649 217.937C468.18 223.541 467.431 229.42 464.544 234.492C461.656 239.572 456.979 243.211 451.379 244.743L451.213 244.785L414.357 251.746C414.665 254.978 414.565 261.381 410.496 268.077C405.245 276.704 395.309 282.833 380.963 286.281L380.988 286.273Z" fill="#F16924"/>
<path d="M323.17 150.941V150.958C323.311 151.199 323.486 151.399 323.711 151.541C323.911 151.724 324.144 151.849 324.418 151.915C324.693 151.999 324.967 152.015 325.25 151.949C325.525 151.932 325.783 151.857 326.024 151.699L326.449 151.374C326.707 151.116 326.881 150.808 326.981 150.458L327.056 149.909C327.056 149.534 326.956 149.184 326.773 148.859V148.843C326.632 148.601 326.457 148.401 326.232 148.26C326.033 148.076 325.8 147.952 325.525 147.885C325.25 147.802 324.976 147.785 324.693 147.852C324.418 147.868 324.16 147.943 323.919 148.101L323.494 148.426C323.237 148.684 323.062 148.993 322.962 149.342L322.887 149.892C322.887 150.267 322.987 150.616 323.17 150.941Z" fill="#F16924"/>
<path d="M413.824 249.023C410.72 242.27 407.616 235.516 404.512 228.762C404.071 227.805 403.63 226.847 403.198 225.898C402.89 225.231 402.083 224.89 401.4 224.865C400.11 224.823 398.812 224.69 397.531 224.54C397.131 224.49 396.732 224.44 396.332 224.39C397.056 224.482 396.349 224.39 396.183 224.365C395.891 224.324 395.6 224.282 395.317 224.232C393.07 223.882 390.832 223.433 388.627 222.883C385.931 222.209 383.276 221.384 380.696 220.368C380.405 220.252 380.114 220.135 379.823 220.018C379.781 220.002 379.207 219.76 379.623 219.935C379.448 219.86 379.273 219.785 379.099 219.71C378.4 219.402 377.701 219.077 377.01 218.736C375.67 218.078 374.355 217.354 373.082 216.571C370.394 214.905 368.43 213.381 366.184 211.05C363.937 208.718 362.273 206.328 360.825 203.247C357.429 195.993 357.571 187.066 359.144 178.972C360.009 174.517 361.366 170.278 363.82 166.497C364.303 165.748 364.777 165.106 365.143 164.665C365.676 164.024 366.234 163.416 366.841 162.841C367.124 162.566 367.415 162.3 367.715 162.05C367.848 161.934 367.989 161.825 368.123 161.709C368.214 161.634 368.306 161.559 368.397 161.492C368.231 161.625 368.206 161.642 368.322 161.55C368.93 161.101 369.562 160.684 370.211 160.301C371.967 159.277 371.251 156.371 369.163 156.421C362.281 156.579 355.424 155.996 348.592 155.23C342.642 154.564 336.717 153.731 331.242 151.158C325.733 148.568 321.09 144.579 318.485 139.008C316.188 134.078 315.847 128.115 318.527 123.269C320.973 118.838 325.375 115.907 329.985 114.067C335.378 111.918 341.136 110.894 346.853 110.078C354.159 109.037 361.599 108.479 368.963 109.145C375.354 109.728 381.87 111.269 387.37 114.7C392.005 117.589 395.833 121.67 398.479 126.45C399.802 128.84 400.801 131.38 401.458 134.036C401.983 136.151 402.149 138.083 402.124 140.24C402.124 140.99 402.074 141.747 402.124 142.489C402.266 145.153 406.426 145.17 406.285 142.489C406.202 140.84 406.418 139.174 406.285 137.525C406.044 134.444 405.195 131.338 404.038 128.482C401.733 122.802 398.072 117.697 393.287 113.833C381.662 104.44 365.676 103.79 351.43 105.331C344.839 106.047 338.115 106.963 331.783 109.003C326.332 110.761 320.815 113.475 317.129 117.997C313.026 123.027 311.67 129.406 313.051 135.727C314.432 142.047 318.568 147.818 323.927 151.682C329.503 155.705 336.326 157.803 343.075 158.736C349.824 159.668 356.439 160.326 363.13 160.543C365.152 160.609 367.166 160.618 369.188 160.568L368.139 156.687C361.773 160.41 358.012 167.055 356.065 174C354.633 179.088 353.926 184.551 353.934 189.831C353.934 193.928 354.517 198.075 355.873 201.956C360.417 214.98 372.525 222.617 385.24 226.264C390.449 227.755 395.991 228.821 401.417 229.004L399.619 227.971C402.723 234.725 405.827 241.479 408.931 248.232C409.372 249.19 409.813 250.148 410.246 251.097C410.712 252.121 412.193 252.371 413.092 251.846C414.14 251.23 414.307 250.023 413.841 248.998L413.824 249.023Z" fill="#F16924"/>
<path d="M246.454 400.768C240.438 400.768 234.405 400.111 228.538 399.361C223.895 398.77 220.233 395.181 219.634 390.642C219.634 390.609 219.617 390.534 219.617 390.501C219.068 386.187 219.309 380.208 219.559 373.879C219.817 367.441 220.075 360.796 219.617 354.734C218.952 345.94 215.64 340.169 199.421 333.015C193.738 330.509 175.455 307.4 173.733 284.441C172.135 263.155 154.044 257.976 143.243 254.886C140.372 254.062 138.291 253.645 136.619 253.312C130.727 252.138 128.763 251.455 118.486 242.461C111.887 236.682 110.148 233.434 108.883 231.061C107.635 228.712 106.944 227.422 100.312 224.107C94.8034 221.351 86.5651 221.009 77.037 220.618C64.4882 220.102 50.2668 219.51 37.4351 213.14C30.1621 209.534 19.2942 195.785 8.77586 182.494C7.58589 180.987 6.41256 179.505 5.25587 178.056C2.78439 174.95 2.31006 170.802 3.99932 167.213C4.87308 165.373 5.76349 163.541 6.64556 161.709C9.98248 154.822 13.1363 148.31 15.2833 141.681C17.555 134.677 18.9614 126.991 20.3261 119.555C22.8392 105.847 25.4438 91.6738 33.5323 80.5398C41.7123 69.2892 54.4109 62.444 66.6934 55.8236C73.309 52.2594 80.1493 48.5702 86.0242 44.2982C91.7993 40.0927 97.0918 35.0046 102.7 29.6167C112.803 19.9067 123.255 9.87198 136.669 5.50833C149.492 1.33621 163.655 3.22658 177.353 5.05032C184.975 6.06629 192.855 7.11555 200.428 7.11555C208.001 7.11555 215.881 6.06629 223.503 5.05032C237.201 3.22658 251.364 1.33621 264.187 5.50833C277.601 9.86365 288.045 19.9067 298.156 29.6167C303.764 35.0046 309.057 40.0927 314.832 44.2982C320.707 48.5702 327.547 52.2594 334.163 55.8236C346.445 62.444 359.144 69.2892 367.324 80.5398C372.932 88.2511 376.419 96.1873 378.641 106.264C378.94 107.613 378.083 108.945 376.744 109.245C375.396 109.536 374.064 108.687 373.765 107.346C371.701 97.9778 368.472 90.6245 363.288 83.4878C355.774 73.1533 343.583 66.5911 331.791 60.2372C325.034 56.5897 318.036 52.8256 311.894 48.3537C305.845 43.9484 300.178 38.5022 294.694 33.2308C284.999 23.9123 274.972 14.2773 262.648 10.2717C250.898 6.44935 237.916 8.18149 224.161 10.0136C216.38 11.0545 208.325 12.1204 200.428 12.1204C192.531 12.1204 184.484 11.0462 176.695 10.0136C162.948 8.18149 149.967 6.44935 138.217 10.2717C125.892 14.2773 115.865 23.9123 106.171 33.2308C100.687 38.4939 95.0197 43.9401 88.97 48.3537C82.8204 52.8256 75.8304 56.598 69.0733 60.2372C57.2818 66.5911 45.0908 73.1616 37.5765 83.4878C30.1538 93.6974 27.7655 106.697 25.2441 120.462C23.8544 128.057 22.4065 135.91 20.0348 143.23C17.7797 150.192 14.4012 157.162 11.1392 163.899C10.2571 165.714 9.37501 167.538 8.5179 169.362C7.64414 171.21 7.89378 173.351 9.16697 174.95C10.3237 176.407 11.5053 177.898 12.6953 179.405C22.3981 191.663 33.3908 205.562 39.6652 208.676C51.5483 214.58 65.2039 215.147 77.2534 215.638C87.364 216.054 96.0849 216.413 102.559 219.652C110.24 223.491 111.579 225.506 113.302 228.721C114.45 230.869 115.873 233.534 121.782 238.714C131.476 247.2 132.774 247.458 137.601 248.424C139.365 248.774 141.553 249.215 144.624 250.089C155.891 253.312 176.862 259.316 178.726 284.074C180.398 306.35 198.414 327.111 201.452 328.452C217.845 335.68 223.687 342.226 224.61 354.367C225.093 360.713 224.81 367.825 224.569 374.087C224.327 380.199 224.094 385.979 224.602 389.959C224.91 392.291 226.799 394.115 229.195 394.415C240.338 395.83 252.096 396.929 262.664 393.498C274.989 389.493 285.016 379.858 294.71 370.539C300.194 365.268 305.861 359.83 311.911 355.416C318.061 350.936 325.051 347.172 331.816 343.525C343.599 337.171 355.79 330.609 363.304 320.282C370.727 310.064 373.115 297.065 375.637 283.3C377.027 275.705 378.475 267.844 380.846 260.532C383.101 253.57 386.48 246.617 389.733 239.888C391.964 235.291 394.269 230.528 396.208 225.789C399.969 216.629 401.716 209.034 401.716 201.881C401.716 188.623 395.625 176.057 389.733 163.891C388.335 161.009 386.896 158.028 385.564 155.097C384.99 153.839 385.548 152.357 386.804 151.791C388.061 151.216 389.542 151.774 390.108 153.031C391.414 155.913 392.846 158.861 394.227 161.717C400.36 174.383 406.709 187.483 406.709 201.881C406.709 209.709 404.837 217.912 400.818 227.688C398.812 232.568 396.474 237.398 394.219 242.07C390.882 248.948 387.736 255.452 385.581 262.081C383.309 269.084 381.903 276.771 380.538 284.207C378.025 297.915 375.421 312.088 367.332 323.23C359.152 334.473 346.453 341.318 334.171 347.93C327.555 351.494 320.707 355.183 314.832 359.464C309.057 363.669 303.764 368.757 298.156 374.145C288.053 383.855 277.601 393.89 264.187 398.254C258.429 400.127 252.454 400.777 246.462 400.777L246.454 400.768Z" fill="#F16924"/>
<path d="M105.871 139.441C111.721 136.193 118.744 139.274 124.303 141.673C127.623 143.105 130.985 144.571 134.572 145.162C138.15 145.753 141.678 145.395 145.257 145.012C148.901 144.629 152.904 144.146 156.324 145.778C157.339 146.261 158.571 146.061 159.17 145.029C159.703 144.121 159.445 142.664 158.421 142.181C151.348 138.816 143.958 141.922 136.586 141.256C129.213 140.59 123.022 135.693 115.823 134.361C111.713 133.595 107.494 133.778 103.766 135.843C101.419 137.142 103.516 140.74 105.863 139.441H105.871Z" fill="#F16924"/>
<path d="M227.256 205.57C230.918 206.736 234.596 207.977 237.908 209.967C241.336 212.032 243.716 214.822 245.331 218.478C247.095 222.475 248.343 226.531 251.064 230.028C253.611 233.293 256.889 235.882 260.301 238.189C264.578 241.079 269.08 243.652 273.482 246.342C275.779 247.741 277.868 244.135 275.579 242.744C271.593 240.321 267.557 237.964 263.646 235.424C260.251 233.218 256.964 230.769 254.401 227.596C251.73 224.29 250.607 220.202 248.909 216.379C247.211 212.557 244.424 209.243 240.787 206.869C237.001 204.404 232.632 202.914 228.355 201.556C225.8 200.74 224.702 204.762 227.248 205.57H227.256Z" fill="#F16924"/>
<path d="M215.69 60.6869C221.481 58.7049 227.539 60.7951 232.324 64.2427C237.117 67.6904 240.421 72.7952 245.123 76.3594C247.752 78.358 250.765 79.6404 254.085 79.8403C256.756 79.9985 256.748 75.8347 254.085 75.6765C248.551 75.3517 244.549 70.4468 241.037 66.7077C236.66 62.0526 231.742 57.9637 225.409 56.3815C221.856 55.4905 218.078 55.4905 214.591 56.6813C213.526 57.0477 212.827 58.1136 213.135 59.2462C213.418 60.2788 214.624 61.0616 215.698 60.7035L215.69 60.6869Z" fill="#F16924"/>
<path d="M133.698 104.582C121.54 104.582 111.646 95.8625 111.646 85.1366C111.646 74.4107 121.54 65.6917 133.698 65.6917C145.856 65.6917 155.75 74.4107 155.75 85.1366C155.75 95.8625 145.856 104.582 133.698 104.582ZM133.698 69.8639C123.829 69.8639 115.807 76.7175 115.807 85.145C115.807 93.5725 123.829 100.426 133.698 100.426C143.567 100.426 151.589 93.5725 151.589 85.145C151.589 76.7175 143.567 69.8639 133.698 69.8639Z" fill="#F16924"/>
<path d="M188.903 273.698C176.745 273.698 166.851 264.979 166.851 254.253C166.851 243.527 176.745 234.808 188.903 234.808C201.06 234.808 210.955 243.527 210.955 254.253C210.955 264.979 201.06 273.698 188.903 273.698ZM188.903 238.972C179.033 238.972 171.012 245.826 171.012 254.253C171.012 262.681 179.033 269.534 188.903 269.534C198.772 269.534 206.794 262.681 206.794 254.253C206.794 245.826 198.772 238.972 188.903 238.972Z" fill="#F16924"/>
<path d="M290.625 198.075C278.467 198.075 268.573 189.265 268.573 178.43C268.573 167.596 278.467 158.786 290.625 158.786C302.782 158.786 312.677 167.596 312.677 178.43C312.677 189.265 302.782 198.075 290.625 198.075ZM290.625 162.95C280.755 162.95 272.733 169.895 272.733 178.43C272.733 186.966 280.755 193.911 290.625 193.911C300.494 193.911 308.516 186.966 308.516 178.43C308.516 169.895 300.494 162.95 290.625 162.95Z" fill="#F16924"/>
<path d="M277.743 246.292C285.673 244.726 294.011 248.182 299.296 254.128C302.117 257.301 303.731 261.082 304.48 265.229C305.395 270.3 305.487 275.622 308.041 280.235C310.729 285.09 315.814 288.138 321.281 288.638C322.404 288.738 323.361 287.605 323.361 286.556C323.361 285.348 322.404 284.574 321.281 284.474C316.879 284.074 313.018 281.184 311.162 277.212C309.023 272.624 309.265 267.261 308.133 262.406C306.111 253.687 299.379 246.825 291.182 243.594C286.564 241.77 281.496 241.32 276.636 242.278C275.529 242.495 274.905 243.81 275.18 244.843C275.496 245.992 276.636 246.517 277.743 246.3V246.292Z" fill="#F16924"/>
<path d="M55.06 257.892C51.5899 257.892 47.6122 255.66 44.6498 253.995C43.4348 253.312 42.2865 252.671 41.6124 252.421C36.4947 250.522 37.0023 234.184 37.0107 234.025C37.1188 232.343 37.3685 228.404 40.1895 227.746C41.8621 227.355 43.3599 228.296 44.6415 230.536C45.7565 232.493 49.6593 232.476 53.1044 232.468C57.1903 232.46 61.4176 232.435 63.3149 235.616C66.6435 241.187 63.3731 251.78 59.6285 255.927C58.347 257.351 56.7659 257.892 55.0516 257.892H55.06ZM43.7344 247.882C44.6997 248.29 45.8231 248.915 47.0963 249.631C49.3764 250.914 54.7188 253.912 55.9254 252.579C58.7714 249.423 60.8933 241.287 59.0376 238.173C58.5966 237.431 55.035 237.448 53.1377 237.456C49.3681 237.456 44.8578 237.49 41.9453 234.983C41.8371 239.255 42.6693 246.167 43.7344 247.874V247.882Z" fill="#F16924"/>
<path d="M128.772 301.154C126.367 301.154 123.513 299.663 120.151 297.898C117.904 296.724 115.357 295.391 112.886 294.509C108.517 292.943 102.409 293.901 97.0252 294.742C91.0338 295.674 86.3071 296.416 83.4196 294.109C79.4253 290.911 73.7584 275.563 77.3532 269.001C78.1438 267.552 80.6236 264.396 86.4985 266.403C89.3112 267.361 92.9227 265.82 96.7423 264.196C102.343 261.806 108.692 259.1 115.058 263.08C120.001 266.17 132.45 281.018 133.598 292.893C133.831 295.316 133.864 298.722 131.435 300.363C130.619 300.912 129.737 301.146 128.78 301.146L128.772 301.154ZM107.119 288.671C109.715 288.671 112.245 288.971 114.567 289.803C117.363 290.803 120.067 292.218 122.456 293.468C124.453 294.509 127.39 296.049 128.564 296.141C128.655 295.808 128.772 295.017 128.614 293.368C127.615 283.075 116.148 269.651 112.395 267.311C108.234 264.712 103.591 266.686 98.6812 268.785C94.1626 270.708 89.4943 272.699 84.8758 271.125C82.3461 270.259 81.9051 271.058 81.722 271.4C79.5584 275.347 84.1436 288.288 86.5318 290.203C87.6968 291.136 92.6398 290.37 96.243 289.803C99.7297 289.254 103.483 288.671 107.111 288.671H107.119Z" fill="#F16924"/>
<path d="M32.1925 309.398C31.7348 309.398 31.2938 309.365 30.8694 309.282C28.4062 308.815 26.7836 307.042 26.4091 304.41C25.5187 298.198 26.3675 291.277 26.4091 290.986C26.5006 290.253 26.9084 289.595 27.5325 289.196C28.1566 288.796 28.9222 288.688 29.6212 288.904C33.5406 290.112 42.5944 293.509 41.9287 298.931C41.6957 300.829 41.8538 301.729 41.962 302.386C42.0868 303.086 42.2615 304.135 41.6208 305.276C40.7637 306.792 36.0204 309.382 32.1925 309.382V309.398ZM31.1024 294.758C30.9693 297.165 30.911 300.588 31.3604 303.702C31.4353 304.252 31.5684 304.302 31.635 304.318C32.7584 304.735 35.5544 303.652 36.9774 302.82C36.8442 301.945 36.7028 300.604 36.9691 298.414C36.6362 297.523 34.1148 295.999 31.1107 294.75L31.1024 294.758Z" fill="#F16924"/>
<path d="M137.226 363.07C135.479 363.07 133.357 362.303 130.902 361.421C129.92 361.063 128.572 360.58 127.648 360.338C127.282 360.813 126.775 361.162 126.167 361.346C122.556 362.437 115.416 355.966 112.27 351.211C108.434 345.407 108.268 339.869 111.796 335.622C112.67 334.573 115.324 331.375 118.553 332.208C119.943 332.566 120.916 333.582 121.532 334.722H133.681C137.925 334.722 145.248 341.726 145.248 348.888C145.248 352.743 143.368 354.717 142.119 356.024C141.013 357.182 140.763 357.498 140.963 358.631C141.312 360.596 140.405 361.704 139.831 362.178C139.09 362.803 138.217 363.053 137.218 363.053L137.226 363.07ZM126.791 355.192C128.356 355.192 130.261 355.883 132.6 356.724C133.54 357.065 134.888 357.548 135.928 357.831C136.003 355.233 137.426 353.734 138.524 352.585C139.581 351.478 140.272 350.745 140.272 348.896C140.272 344.507 135.154 339.877 133.673 339.727H119.818C118.619 339.727 117.596 338.878 117.363 337.704C117.338 337.579 117.28 337.421 117.221 337.279C116.905 337.496 116.373 337.937 115.632 338.828C114.167 340.593 113.876 342.675 114.767 345.19C116.456 350.012 121.773 354.6 124.328 356.049C124.42 355.974 124.511 355.899 124.611 355.825C125.252 355.375 125.967 355.192 126.783 355.192H126.791Z" fill="#F16924"/>
<path d="M597.463 132.337C590.622 139.441 583.749 146.561 576.102 152.823C572.398 155.854 568.487 158.661 564.368 161.109C559.866 163.782 555.106 165.981 550.297 168.021C531.224 176.107 511.319 183.943 490.407 184.984C478.574 185.576 466.732 184.143 455.373 180.771C452.802 180.004 451.704 184.027 454.267 184.784C464.627 187.857 475.461 189.381 486.271 189.265C497.081 189.148 507.716 187.291 518.068 184.335C528.419 181.378 538.347 177.439 548.241 173.351C553.292 171.269 558.335 169.145 563.162 166.564C567.597 164.19 571.791 161.409 575.777 158.353C584.723 151.482 592.595 143.388 600.409 135.285C602.264 133.353 599.327 130.405 597.463 132.337Z" stroke="#F16924" stroke-width="5" stroke-linecap="round" stroke-linejoin="round"/>
<path d="M380.988 286.273L380.014 282.225C415.106 273.798 410.229 251.505 410.005 250.564L409.497 248.44L411.636 248.024L450.372 240.704C454.866 239.455 458.61 236.515 460.94 232.435C463.279 228.329 463.886 223.566 462.646 219.036L444.464 152.615C441.893 143.221 432.173 137.675 422.795 140.24L406.21 144.804C405.969 144.87 405.536 145.012 404.895 145.295C401.209 146.944 394.136 151.599 389.118 155.671L386.496 152.44C391.173 148.643 398.704 143.513 403.198 141.498C403.897 141.181 404.537 140.948 405.095 140.79L421.688 136.226C433.28 133.045 445.296 139.907 448.467 151.516L466.649 217.937C468.18 223.541 467.431 229.42 464.544 234.492C461.656 239.572 456.979 243.211 451.379 244.743L451.213 244.785L414.357 251.746C414.665 254.978 414.565 261.381 410.496 268.077C405.245 276.704 395.309 282.833 380.963 286.281L380.988 286.273Z" stroke="#F16924" stroke-width="5" stroke-linecap="round" stroke-linejoin="round"/>
<path d="M323.17 150.941V150.958C323.311 151.199 323.486 151.399 323.711 151.541C323.911 151.724 324.144 151.849 324.418 151.915C324.693 151.999 324.967 152.015 325.25 151.949C325.525 151.932 325.783 151.857 326.024 151.699L326.449 151.374C326.707 151.116 326.881 150.808 326.981 150.458L327.056 149.909C327.056 149.534 326.956 149.184 326.773 148.859V148.843C326.632 148.601 326.457 148.401 326.232 148.26C326.033 148.076 325.8 147.952 325.525 147.885C325.25 147.802 324.976 147.785 324.693 147.852C324.418 147.868 324.16 147.943 323.919 148.101L323.494 148.426C323.237 148.684 323.062 148.993 322.962 149.342L322.887 149.892C322.887 150.267 322.987 150.616 323.17 150.941Z" stroke="#F16924" stroke-width="5" stroke-linecap="round" stroke-linejoin="round"/>
<path d="M413.824 249.023C410.72 242.27 407.616 235.516 404.512 228.762C404.071 227.805 403.63 226.847 403.198 225.898C402.89 225.231 402.083 224.89 401.4 224.865C400.11 224.823 398.812 224.69 397.531 224.54C397.131 224.49 396.732 224.44 396.332 224.39C397.056 224.482 396.349 224.39 396.183 224.365C395.891 224.324 395.6 224.282 395.317 224.232C393.07 223.882 390.832 223.433 388.627 222.883C385.931 222.209 383.276 221.384 380.696 220.368C380.405 220.252 380.114 220.135 379.823 220.018C379.781 220.002 379.207 219.76 379.623 219.935C379.448 219.86 379.273 219.785 379.099 219.71C378.4 219.402 377.701 219.077 377.01 218.736C375.67 218.078 374.355 217.354 373.082 216.571C370.394 214.905 368.43 213.381 366.184 211.05C363.937 208.718 362.273 206.328 360.825 203.247C357.429 195.993 357.571 187.066 359.144 178.972C360.009 174.517 361.366 170.278 363.82 166.497C364.303 165.748 364.777 165.106 365.143 164.665C365.676 164.024 366.234 163.416 366.841 162.841C367.124 162.566 367.415 162.3 367.715 162.05C367.848 161.934 367.989 161.825 368.123 161.709C368.214 161.634 368.306 161.559 368.397 161.492C368.231 161.625 368.206 161.642 368.322 161.55C368.93 161.101 369.562 160.684 370.211 160.301C371.967 159.277 371.251 156.371 369.163 156.421C362.281 156.579 355.424 155.996 348.592 155.23C342.642 154.564 336.717 153.731 331.242 151.158C325.733 148.568 321.09 144.579 318.485 139.008C316.188 134.078 315.847 128.115 318.527 123.269C320.973 118.838 325.375 115.907 329.985 114.067C335.378 111.918 341.136 110.894 346.853 110.078C354.159 109.037 361.599 108.479 368.963 109.145C375.354 109.728 381.87 111.269 387.37 114.7C392.005 117.589 395.833 121.67 398.479 126.45C399.802 128.84 400.801 131.38 401.458 134.036C401.983 136.151 402.149 138.083 402.124 140.24C402.124 140.99 402.074 141.747 402.124 142.489C402.266 145.153 406.426 145.17 406.285 142.489C406.202 140.84 406.418 139.174 406.285 137.525C406.044 134.444 405.195 131.338 404.038 128.482C401.733 122.802 398.072 117.697 393.287 113.833C381.662 104.44 365.676 103.79 351.43 105.331C344.839 106.047 338.115 106.963 331.783 109.003C326.332 110.761 320.815 113.475 317.129 117.997C313.026 123.027 311.67 129.406 313.051 135.727C314.432 142.047 318.568 147.818 323.927 151.682C329.503 155.705 336.326 157.803 343.075 158.736C349.824 159.668 356.439 160.326 363.13 160.543C365.152 160.609 367.166 160.618 369.188 160.568L368.139 156.687C361.773 160.41 358.012 167.055 356.065 174C354.633 179.088 353.926 184.551 353.934 189.831C353.934 193.928 354.517 198.075 355.873 201.956C360.417 214.98 372.525 222.617 385.24 226.264C390.449 227.755 395.991 228.821 401.417 229.004L399.619 227.971C402.723 234.725 405.827 241.479 408.931 248.232C409.372 249.19 409.813 250.148 410.246 251.097C410.712 252.121 412.193 252.371 413.092 251.846C414.14 251.23 414.307 250.023 413.841 248.998L413.824 249.023Z" stroke="#F16924" stroke-width="5" stroke-linecap="round" stroke-linejoin="round"/>
<path d="M246.454 400.768C240.438 400.768 234.405 400.111 228.538 399.361C223.895 398.77 220.233 395.181 219.634 390.642C219.634 390.609 219.617 390.534 219.617 390.501C219.068 386.187 219.309 380.208 219.559 373.879C219.817 367.441 220.075 360.796 219.617 354.734C218.952 345.94 215.64 340.169 199.421 333.015C193.738 330.509 175.455 307.4 173.733 284.441C172.135 263.155 154.044 257.976 143.243 254.886C140.372 254.062 138.291 253.645 136.619 253.312C130.727 252.138 128.763 251.455 118.486 242.461C111.887 236.682 110.148 233.434 108.883 231.061C107.635 228.712 106.944 227.422 100.312 224.107C94.8034 221.351 86.5651 221.009 77.037 220.618C64.4882 220.102 50.2668 219.51 37.4351 213.14C30.1621 209.534 19.2942 195.785 8.77586 182.494C7.58589 180.987 6.41256 179.505 5.25587 178.056C2.78439 174.95 2.31006 170.802 3.99932 167.213C4.87308 165.373 5.76349 163.541 6.64556 161.709C9.98248 154.822 13.1363 148.31 15.2833 141.681C17.555 134.677 18.9614 126.991 20.3261 119.555C22.8392 105.847 25.4438 91.6738 33.5323 80.5398C41.7123 69.2892 54.4109 62.444 66.6934 55.8236C73.309 52.2594 80.1493 48.5702 86.0242 44.2982C91.7993 40.0927 97.0918 35.0046 102.7 29.6167C112.803 19.9067 123.255 9.87198 136.669 5.50833C149.492 1.33621 163.655 3.22658 177.353 5.05032C184.975 6.06629 192.855 7.11555 200.428 7.11555C208.001 7.11555 215.881 6.06629 223.503 5.05032C237.201 3.22658 251.364 1.33621 264.187 5.50833C277.601 9.86365 288.045 19.9067 298.156 29.6167C303.764 35.0046 309.057 40.0927 314.832 44.2982C320.707 48.5702 327.547 52.2594 334.163 55.8236C346.445 62.444 359.144 69.2892 367.324 80.5398C372.932 88.2511 376.419 96.1873 378.641 106.264C378.94 107.613 378.083 108.945 376.744 109.245C375.396 109.536 374.064 108.687 373.765 107.346C371.701 97.9778 368.472 90.6245 363.288 83.4878C355.774 73.1533 343.583 66.5911 331.791 60.2372C325.034 56.5897 318.036 52.8256 311.894 48.3537C305.845 43.9484 300.178 38.5022 294.694 33.2308C284.999 23.9123 274.972 14.2773 262.648 10.2717C250.898 6.44935 237.916 8.18149 224.161 10.0136C216.38 11.0545 208.325 12.1204 200.428 12.1204C192.531 12.1204 184.484 11.0462 176.695 10.0136C162.948 8.18149 149.967 6.44935 138.217 10.2717C125.892 14.2773 115.865 23.9123 106.171 33.2308C100.687 38.4939 95.0197 43.9401 88.97 48.3537C82.8204 52.8256 75.8304 56.598 69.0733 60.2372C57.2818 66.5911 45.0908 73.1616 37.5765 83.4878C30.1538 93.6974 27.7655 106.697 25.2441 120.462C23.8544 128.057 22.4065 135.91 20.0348 143.23C17.7797 150.192 14.4012 157.162 11.1392 163.899C10.2571 165.714 9.37501 167.538 8.5179 169.362C7.64414 171.21 7.89378 173.351 9.16697 174.95C10.3237 176.407 11.5053 177.898 12.6953 179.405C22.3981 191.663 33.3908 205.562 39.6652 208.676C51.5483 214.58 65.2039 215.147 77.2534 215.638C87.364 216.054 96.0849 216.413 102.559 219.652C110.24 223.491 111.579 225.506 113.302 228.721C114.45 230.869 115.873 233.534 121.782 238.714C131.476 247.2 132.774 247.458 137.601 248.424C139.365 248.774 141.553 249.215 144.624 250.089C155.891 253.312 176.862 259.316 178.726 284.074C180.398 306.35 198.414 327.111 201.452 328.452C217.845 335.68 223.687 342.226 224.61 354.367C225.093 360.713 224.81 367.825 224.569 374.087C224.327 380.199 224.094 385.979 224.602 389.959C224.91 392.291 226.799 394.115 229.195 394.415C240.338 395.83 252.096 396.929 262.664 393.498C274.989 389.493 285.016 379.858 294.71 370.539C300.194 365.268 305.861 359.83 311.911 355.416C318.061 350.936 325.051 347.172 331.816 343.525C343.599 337.171 355.79 330.609 363.304 320.282C370.727 310.064 373.115 297.065 375.637 283.3C377.027 275.705 378.475 267.844 380.846 260.532C383.101 253.57 386.48 246.617 389.733 239.888C391.964 235.291 394.269 230.528 396.208 225.789C399.969 216.629 401.716 209.034 401.716 201.881C401.716 188.623 395.625 176.057 389.733 163.891C388.335 161.009 386.896 158.028 385.564 155.097C384.99 153.839 385.548 152.357 386.804 151.791C388.061 151.216 389.542 151.774 390.108 153.031C391.414 155.913 392.846 158.861 394.227 161.717C400.36 174.383 406.709 187.483 406.709 201.881C406.709 209.709 404.837 217.912 400.818 227.688C398.812 232.568 396.474 237.398 394.219 242.07C390.882 248.948 387.736 255.452 385.581 262.081C383.309 269.084 381.903 276.771 380.538 284.207C378.025 297.915 375.421 312.088 367.332 323.23C359.152 334.473 346.453 341.318 334.171 347.93C327.555 351.494 320.707 355.183 314.832 359.464C309.057 363.669 303.764 368.757 298.156 374.145C288.053 383.855 277.601 393.89 264.187 398.254C258.429 400.127 252.454 400.777 246.462 400.777L246.454 400.768Z" stroke="#F16924" stroke-width="5" stroke-linecap="round" stroke-linejoin="round"/>
<path d="M105.871 139.441C111.721 136.193 118.744 139.274 124.303 141.673C127.623 143.105 130.985 144.571 134.572 145.162C138.15 145.753 141.678 145.395 145.257 145.012C148.901 144.629 152.904 144.146 156.324 145.778C157.339 146.261 158.571 146.061 159.17 145.029C159.703 144.121 159.445 142.664 158.421 142.181C151.348 138.816 143.958 141.922 136.586 141.256C129.213 140.59 123.022 135.693 115.823 134.361C111.713 133.595 107.494 133.778 103.766 135.843C101.419 137.142 103.516 140.74 105.863 139.441H105.871Z" stroke="#F16924" stroke-width="5" stroke-linecap="round" stroke-linejoin="round"/>
<path d="M227.256 205.57C230.918 206.736 234.596 207.977 237.908 209.967C241.336 212.032 243.716 214.822 245.331 218.478C247.095 222.475 248.343 226.531 251.064 230.028C253.611 233.293 256.889 235.882 260.301 238.189C264.578 241.079 269.08 243.652 273.482 246.342C275.779 247.741 277.868 244.135 275.579 242.744C271.593 240.321 267.557 237.964 263.646 235.424C260.251 233.218 256.964 230.769 254.401 227.596C251.73 224.29 250.607 220.202 248.909 216.379C247.211 212.557 244.424 209.243 240.787 206.869C237.001 204.404 232.632 202.914 228.355 201.556C225.8 200.74 224.702 204.762 227.248 205.57H227.256Z" stroke="#F16924" stroke-width="5" stroke-linecap="round" stroke-linejoin="round"/>
<path d="M215.69 60.6869C221.481 58.7049 227.539 60.7951 232.324 64.2427C237.117 67.6904 240.421 72.7952 245.123 76.3594C247.752 78.358 250.765 79.6404 254.085 79.8403C256.756 79.9985 256.748 75.8347 254.085 75.6765C248.551 75.3517 244.549 70.4468 241.037 66.7077C236.66 62.0526 231.742 57.9637 225.409 56.3815C221.856 55.4905 218.078 55.4905 214.591 56.6813C213.526 57.0477 212.827 58.1136 213.135 59.2462C213.418 60.2788 214.624 61.0616 215.698 60.7035L215.69 60.6869Z" stroke="#F16924" stroke-width="5" stroke-linecap="round" stroke-linejoin="round"/>
<path d="M133.698 104.582C121.54 104.582 111.646 95.8625 111.646 85.1366C111.646 74.4107 121.54 65.6917 133.698 65.6917C145.856 65.6917 155.75 74.4107 155.75 85.1366C155.75 95.8625 145.856 104.582 133.698 104.582ZM133.698 69.8639C123.829 69.8639 115.807 76.7175 115.807 85.145C115.807 93.5725 123.829 100.426 133.698 100.426C143.567 100.426 151.589 93.5725 151.589 85.145C151.589 76.7175 143.567 69.8639 133.698 69.8639Z" stroke="#F16924" stroke-width="5" stroke-linecap="round" stroke-linejoin="round"/>
<path d="M188.903 273.698C176.745 273.698 166.851 264.979 166.851 254.253C166.851 243.527 176.745 234.808 188.903 234.808C201.06 234.808 210.955 243.527 210.955 254.253C210.955 264.979 201.06 273.698 188.903 273.698ZM188.903 238.972C179.033 238.972 171.012 245.826 171.012 254.253C171.012 262.681 179.033 269.534 188.903 269.534C198.772 269.534 206.794 262.681 206.794 254.253C206.794 245.826 198.772 238.972 188.903 238.972Z" stroke="#F16924" stroke-width="5" stroke-linecap="round" stroke-linejoin="round"/>
<path d="M290.625 198.075C278.467 198.075 268.573 189.265 268.573 178.43C268.573 167.596 278.467 158.786 290.625 158.786C302.782 158.786 312.677 167.596 312.677 178.43C312.677 189.265 302.782 198.075 290.625 198.075ZM290.625 162.95C280.755 162.95 272.733 169.895 272.733 178.43C272.733 186.966 280.755 193.911 290.625 193.911C300.494 193.911 308.516 186.966 308.516 178.43C308.516 169.895 300.494 162.95 290.625 162.95Z" stroke="#F16924" stroke-width="5" stroke-linecap="round" stroke-linejoin="round"/>
<path d="M277.743 246.292C285.673 244.726 294.011 248.182 299.296 254.128C302.117 257.301 303.731 261.082 304.48 265.229C305.395 270.3 305.487 275.622 308.041 280.235C310.729 285.09 315.814 288.138 321.281 288.638C322.404 288.738 323.361 287.605 323.361 286.556C323.361 285.348 322.404 284.574 321.281 284.474C316.879 284.074 313.018 281.184 311.162 277.212C309.023 272.624 309.265 267.261 308.133 262.406C306.111 253.687 299.379 246.825 291.182 243.594C286.564 241.77 281.496 241.32 276.636 242.278C275.529 242.495 274.905 243.81 275.18 244.843C275.496 245.992 276.636 246.517 277.743 246.3V246.292Z" stroke="#F16924" stroke-width="5" stroke-linecap="round" stroke-linejoin="round"/>
<path d="M55.06 257.892C51.5899 257.892 47.6122 255.66 44.6498 253.995C43.4348 253.312 42.2865 252.671 41.6124 252.421C36.4947 250.522 37.0023 234.184 37.0107 234.025C37.1188 232.343 37.3685 228.404 40.1895 227.746C41.8621 227.355 43.3599 228.296 44.6415 230.536C45.7565 232.493 49.6593 232.476 53.1044 232.468C57.1903 232.46 61.4176 232.435 63.3149 235.616C66.6435 241.187 63.3731 251.78 59.6285 255.927C58.347 257.351 56.7659 257.892 55.0516 257.892H55.06ZM43.7344 247.882C44.6997 248.29 45.8231 248.915 47.0963 249.631C49.3764 250.914 54.7188 253.912 55.9254 252.579C58.7714 249.423 60.8933 241.287 59.0376 238.173C58.5966 237.431 55.035 237.448 53.1377 237.456C49.3681 237.456 44.8578 237.49 41.9453 234.983C41.8371 239.255 42.6693 246.167 43.7344 247.874V247.882Z" stroke="#F16924" stroke-width="5" stroke-linecap="round" stroke-linejoin="round"/>
<path d="M128.772 301.154C126.367 301.154 123.513 299.663 120.151 297.898C117.904 296.724 115.357 295.391 112.886 294.509C108.517 292.943 102.409 293.901 97.0252 294.742C91.0338 295.674 86.3071 296.416 83.4196 294.109C79.4253 290.911 73.7584 275.563 77.3532 269.001C78.1438 267.552 80.6236 264.396 86.4985 266.403C89.3112 267.361 92.9227 265.82 96.7423 264.196C102.343 261.806 108.692 259.1 115.058 263.08C120.001 266.17 132.45 281.018 133.598 292.893C133.831 295.316 133.864 298.722 131.435 300.363C130.619 300.912 129.737 301.146 128.78 301.146L128.772 301.154ZM107.119 288.671C109.715 288.671 112.245 288.971 114.567 289.803C117.363 290.803 120.067 292.218 122.456 293.468C124.453 294.509 127.39 296.049 128.564 296.141C128.655 295.808 128.772 295.017 128.614 293.368C127.615 283.075 116.148 269.651 112.395 267.311C108.234 264.712 103.591 266.686 98.6812 268.785C94.1626 270.708 89.4943 272.699 84.8758 271.125C82.3461 270.259 81.9051 271.058 81.722 271.4C79.5584 275.347 84.1436 288.288 86.5318 290.203C87.6968 291.136 92.6398 290.37 96.243 289.803C99.7297 289.254 103.483 288.671 107.111 288.671H107.119Z" stroke="#F16924" stroke-width="5" stroke-linecap="round" stroke-linejoin="round"/>
<path d="M32.1925 309.398C31.7348 309.398 31.2938 309.365 30.8694 309.282C28.4062 308.815 26.7836 307.042 26.4091 304.41C25.5187 298.198 26.3675 291.277 26.4091 290.986C26.5006 290.253 26.9084 289.595 27.5325 289.196C28.1566 288.796 28.9222 288.688 29.6212 288.904C33.5406 290.112 42.5944 293.509 41.9287 298.931C41.6957 300.829 41.8538 301.729 41.962 302.386C42.0868 303.086 42.2615 304.135 41.6208 305.276C40.7637 306.792 36.0204 309.382 32.1925 309.382V309.398ZM31.1024 294.758C30.9693 297.165 30.911 300.588 31.3604 303.702C31.4353 304.252 31.5684 304.302 31.635 304.318C32.7584 304.735 35.5544 303.652 36.9774 302.82C36.8442 301.945 36.7028 300.604 36.9691 298.414C36.6362 297.523 34.1148 295.999 31.1107 294.75L31.1024 294.758Z" stroke="#F16924" stroke-width="5" stroke-linecap="round" stroke-linejoin="round"/>
<path d="M137.226 363.07C135.479 363.07 133.357 362.303 130.902 361.421C129.92 361.063 128.572 360.58 127.648 360.338C127.282 360.813 126.775 361.162 126.167 361.346C122.556 362.437 115.416 355.966 112.27 351.211C108.434 345.407 108.268 339.869 111.796 335.622C112.67 334.573 115.324 331.375 118.553 332.208C119.943 332.566 120.916 333.582 121.532 334.722H133.681C137.925 334.722 145.248 341.726 145.248 348.888C145.248 352.743 143.368 354.717 142.119 356.024C141.013 357.182 140.763 357.498 140.963 358.631C141.312 360.596 140.405 361.704 139.831 362.178C139.09 362.803 138.217 363.053 137.218 363.053L137.226 363.07ZM126.791 355.192C128.356 355.192 130.261 355.883 132.6 356.724C133.54 357.065 134.888 357.548 135.928 357.831C136.003 355.233 137.426 353.734 138.524 352.585C139.581 351.478 140.272 350.745 140.272 348.896C140.272 344.507 135.154 339.877 133.673 339.727H119.818C118.619 339.727 117.596 338.878 117.363 337.704C117.338 337.579 117.28 337.421 117.221 337.279C116.905 337.496 116.373 337.937 115.632 338.828C114.167 340.593 113.876 342.675 114.767 345.19C116.456 350.012 121.773 354.6 124.328 356.049C124.42 355.974 124.511 355.899 124.611 355.825C125.252 355.375 125.967 355.192 126.783 355.192H126.791Z" stroke="#F16924" stroke-width="5" stroke-linecap="round" stroke-linejoin="round"/>
<path d="M347.022 478.62L349.56 481.03L347.022 478.62C341.069 484.891 346.977 494.652 355.061 493.122C356.533 492.844 357.564 494.347 357.004 495.526C353.301 503.329 361.912 510.802 369.148 506.858C370.474 506.135 371.939 507.25 371.772 508.568C370.701 517.062 381.108 521.679 386.839 515.621C387.859 514.542 389.613 515.108 389.877 516.465C391.493 524.775 402.785 526.189 406.4 518.535C406.991 517.285 408.83 517.169 409.553 518.466C413.612 525.751 424.837 523.844 425.894 515.348C426.058 514.03 427.752 513.31 428.859 514.338C434.899 519.945 445.087 514.827 443.423 506.352C443.171 505.071 444.541 503.868 445.898 504.501C453.355 507.978 461.489 499.976 457.267 492.43C456.62 491.275 457.565 489.75 459.006 489.931C467.245 490.971 472.373 480.782 466.071 474.951C465.061 474.017 465.542 472.315 466.911 472.059C475.224 470.501 476.641 459.186 468.969 455.625C467.706 455.039 467.659 453.272 468.869 452.615C476.414 448.519 473.958 437.38 465.718 436.355C464.276 436.176 463.737 434.465 464.648 433.505C470.601 427.233 464.692 417.473 456.609 419.002C455.137 419.281 454.106 417.778 454.666 416.598C458.369 408.796 449.758 401.323 442.522 405.267C441.196 405.99 439.731 404.874 439.897 403.556C440.969 395.063 430.561 390.446 424.831 396.504C423.811 397.583 422.057 397.017 421.793 395.66C420.177 387.35 408.885 385.936 405.269 393.59C404.679 394.84 402.839 394.956 402.116 393.658C398.058 386.374 386.833 388.281 385.776 396.777C385.612 398.095 383.917 398.815 382.811 397.787C376.771 392.18 366.583 397.298 368.247 405.773C368.499 407.054 367.129 408.256 365.771 407.624C358.314 404.147 350.181 412.149 354.403 419.695C355.049 420.85 354.105 422.375 352.663 422.193C344.425 421.154 339.297 431.343 345.599 437.173C346.609 438.108 346.127 439.81 344.759 440.066C336.446 441.624 335.028 452.939 342.701 456.499C343.963 457.085 344.01 458.853 342.801 459.51C335.255 463.605 337.712 474.745 345.952 475.769C347.394 475.949 347.933 477.66 347.022 478.62Z" stroke="#F16923" stroke-width="7"/>
<path d="M352.951 437.599L361.69 438.694L365.859 451.127L366.084 451.155L373.191 440.134L381.929 441.229L368.851 459.69L367.714 468.767L359.934 467.792L361.071 458.715L352.951 437.599ZM401.566 443.689L409.403 444.671L407.086 463.162C406.811 465.361 406.046 467.198 404.793 468.673C403.55 470.14 401.938 471.193 399.959 471.832C397.981 472.463 395.756 472.623 393.285 472.313C390.795 472.002 388.669 471.296 386.908 470.198C385.147 469.089 383.846 467.671 383.003 465.943C382.17 464.207 381.892 462.24 382.167 460.041L384.484 441.549L392.32 442.531L390.089 460.346C389.977 461.239 390.074 462.062 390.381 462.816C390.688 463.561 391.165 464.174 391.811 464.656C392.466 465.139 393.24 465.436 394.133 465.548C395.035 465.661 395.858 465.564 396.603 465.256C397.348 464.949 397.961 464.472 398.443 463.826C398.925 463.171 399.223 462.397 399.335 461.504L401.566 443.689ZM413.127 445.137L422.881 446.359L427.541 463.549L427.88 463.591L436.637 448.082L446.39 449.304L442.774 478.169L435.107 477.209L437.197 460.521L436.972 460.493L428.482 476.15L423.859 475.571L419.509 458.191L419.283 458.162L417.179 474.963L409.511 474.003L413.127 445.137ZM459.237 450.913L456.018 470.666L449.591 469.861L451.344 449.925L459.237 450.913ZM451.618 479.735C450.528 479.599 449.641 479.101 448.956 478.242C448.282 477.375 448.019 476.393 448.166 475.294C448.291 474.222 448.786 473.354 449.652 472.689C450.527 472.026 451.51 471.762 452.6 471.899C453.633 472.028 454.497 472.523 455.191 473.383C455.895 474.244 456.184 475.211 456.059 476.283C455.958 477.015 455.682 477.658 455.23 478.212C454.79 478.758 454.251 479.173 453.614 479.456C452.979 479.729 452.314 479.822 451.618 479.735Z" fill="#F16923"/>
</svg>
