<svg width="1440" height="220" viewBox="0 0 1440 220" fill="none" xmlns="http://www.w3.org/2000/svg">
<rect x="-125.821" y="120.257" width="1668" height="92" transform="rotate(-3.37176 -125.821 120.257)" fill="#F16923"/>
<path d="M-199.825 185.722L-208.833 186.253L-210.33 160.842L-201.248 160.307C-198.692 160.157 -196.462 160.536 -194.557 161.445C-192.653 162.345 -191.149 163.713 -190.045 165.549C-188.932 167.384 -188.298 169.621 -188.143 172.26C-187.987 174.907 -188.353 177.211 -189.242 179.172C-190.123 181.133 -191.464 182.677 -193.265 183.804C-195.058 184.931 -197.245 185.57 -199.825 185.722ZM-203.732 181.333L-200.32 181.132C-198.732 181.039 -197.412 180.679 -196.362 180.052C-195.304 179.417 -194.537 178.488 -194.061 177.265C-193.577 176.033 -193.391 174.47 -193.503 172.575C-193.614 170.698 -193.981 169.18 -194.606 168.021C-195.222 166.862 -196.088 166.034 -197.205 165.535C-198.321 165.036 -199.674 164.834 -201.262 164.927L-204.687 165.129L-203.732 181.333ZM-179.538 159.028L-178.041 184.439L-183.413 184.755L-184.91 159.345L-179.538 159.028ZM-173.621 184.178L-175.118 158.768L-164.944 158.168C-163.074 158.058 -161.499 158.244 -160.217 158.724C-158.935 159.205 -157.951 159.919 -157.265 160.866C-156.578 161.805 -156.198 162.911 -156.123 164.185C-156.064 165.178 -156.211 166.062 -156.564 166.838C-156.917 167.606 -157.427 168.25 -158.094 168.771C-158.753 169.283 -159.519 169.664 -160.392 169.915L-160.377 170.163C-159.407 170.147 -158.485 170.367 -157.612 170.822C-156.73 171.276 -155.998 171.943 -155.415 172.822C-154.832 173.692 -154.504 174.752 -154.431 176.001C-154.351 177.349 -154.615 178.572 -155.223 179.67C-155.823 180.76 -156.754 181.649 -158.017 182.338C-159.279 183.026 -160.862 183.427 -162.764 183.539L-173.621 184.178ZM-168.507 179.47L-164.127 179.212C-162.63 179.123 -161.555 178.774 -160.902 178.162C-160.25 177.543 -159.952 176.753 -160.008 175.794C-160.05 175.091 -160.256 174.48 -160.627 173.963C-160.997 173.445 -161.506 173.052 -162.153 172.783C-162.791 172.513 -163.541 172.404 -164.401 172.455L-168.905 172.72L-168.507 179.47ZM-169.119 169.085L-165.136 168.85C-164.4 168.806 -163.754 168.64 -163.198 168.35C-162.635 168.051 -162.202 167.652 -161.899 167.153C-161.588 166.653 -161.453 166.068 -161.492 165.398C-161.546 164.48 -161.917 163.759 -162.603 163.235C-163.282 162.71 -164.216 162.483 -165.407 162.553L-169.49 162.794L-169.119 169.085ZM-146.646 157.09L-145.149 182.501L-150.521 182.817L-152.018 157.407L-146.646 157.09ZM-140.729 182.24L-142.226 156.83L-136.853 156.513L-135.617 177.494L-124.723 176.853L-124.462 181.282L-140.729 182.24ZM-115.876 180.776L-121.633 181.115L-114.358 155.188L-107.435 154.78L-97.1783 179.675L-102.935 180.014L-110.455 160.785L-110.654 160.797L-115.876 180.776ZM-116.825 170.809L-103.226 170.008L-102.979 174.202L-116.578 175.003L-116.825 170.809ZM-94.1199 179.494L-95.617 154.084L-85.4429 153.485C-83.5735 153.374 -81.9979 153.56 -80.7163 154.04C-79.4346 154.521 -78.4505 155.235 -77.7638 156.182C-77.0777 157.121 -76.6971 158.228 -76.622 159.501C-76.5635 160.494 -76.7106 161.378 -77.0633 162.154C-77.4165 162.922 -77.9264 163.567 -78.5929 164.087C-79.2517 164.599 -80.0178 164.98 -80.8911 165.231L-80.8765 165.479C-79.9063 165.464 -78.9845 165.683 -78.111 166.138C-77.2293 166.592 -76.497 167.259 -75.914 168.138C-75.3315 169.008 -75.0034 170.068 -74.9298 171.317C-74.8504 172.665 -75.1145 173.888 -75.7221 174.987C-76.322 176.076 -77.2532 176.965 -78.5158 177.654C-79.7784 178.342 -81.3609 178.743 -83.2634 178.855L-94.1199 179.494ZM-89.0062 174.786L-84.6264 174.528C-83.1292 174.439 -82.0542 174.09 -81.4013 173.479C-80.7488 172.859 -80.4509 172.07 -80.5074 171.11C-80.5488 170.407 -80.755 169.797 -81.1258 169.279C-81.4966 168.761 -82.0053 168.368 -82.652 168.099C-83.2904 167.829 -84.0397 167.72 -84.9 167.771L-89.4039 168.036L-89.0062 174.786ZM-89.6181 164.401L-85.6353 164.166C-84.8991 164.123 -84.2532 163.956 -83.6976 163.666C-83.1342 163.367 -82.7011 162.968 -82.3985 162.469C-82.0877 161.969 -81.952 161.384 -81.9914 160.714C-82.0455 159.796 -82.4159 159.075 -83.1025 158.551C-83.7808 158.026 -84.7155 157.799 -85.9066 157.87L-89.9887 158.11L-89.6181 164.401ZM-58.3021 159.219C-58.4604 158.224 -58.9322 157.471 -59.7175 156.962C-60.5029 156.452 -61.5408 156.235 -62.8312 156.311C-63.708 156.362 -64.441 156.53 -65.0302 156.814C-65.6199 157.089 -66.0633 157.452 -66.3606 157.901C-66.6496 158.349 -66.778 158.847 -66.7458 159.393C-66.7356 159.849 -66.617 160.24 -66.3903 160.567C-66.1552 160.893 -65.8443 161.17 -65.4574 161.396C-65.0711 161.614 -64.6285 161.799 -64.1298 161.953C-63.6315 162.098 -63.1016 162.216 -62.5401 162.307L-60.225 162.719C-59.102 162.902 -58.0651 163.172 -57.1143 163.531C-56.1635 163.89 -55.3312 164.352 -54.6173 164.916C-53.9035 165.48 -53.3363 166.16 -52.9158 166.957C-52.4871 167.753 -52.2374 168.681 -52.1667 169.739C-52.0834 171.295 -52.401 172.666 -53.1195 173.854C-53.8303 175.033 -54.9034 175.98 -56.3387 176.696C-57.7662 177.402 -59.5139 177.817 -61.5818 177.938C-63.6332 178.059 -65.4384 177.85 -66.9974 177.311C-68.5482 176.772 -69.7858 175.911 -70.7104 174.729C-71.6272 173.538 -72.1602 172.029 -72.3092 170.204L-67.1105 169.897C-67.0024 170.746 -66.7165 171.443 -66.2527 171.988C-65.7812 172.525 -65.1729 172.917 -64.428 173.163C-63.6752 173.401 -62.8357 173.493 -61.9092 173.438C-60.9993 173.385 -60.2172 173.206 -59.5628 172.902C-58.9001 172.597 -58.3966 172.198 -58.0521 171.704C-57.7077 171.211 -57.5535 170.658 -57.5895 170.046C-57.6232 169.475 -57.821 169.006 -58.183 168.637C-58.5368 168.268 -59.0443 167.966 -59.7056 167.731C-60.3586 167.495 -61.1549 167.293 -62.0945 167.124L-64.9023 166.592C-67.0753 166.198 -68.8149 165.482 -70.1209 164.447C-71.427 163.412 -72.1312 161.955 -72.2335 160.077C-72.3324 158.539 -72.0022 157.171 -71.2428 155.972C-70.4751 154.773 -69.3823 153.808 -67.9645 153.077C-66.5467 152.346 -64.9114 151.926 -63.0586 151.817C-61.1726 151.706 -59.5076 151.932 -58.0634 152.494C-56.6109 153.056 -55.4579 153.888 -54.6044 154.992C-53.7508 156.095 -53.267 157.403 -53.153 158.915L-58.3021 159.219ZM41.748 171.49L32.7402 172.02L31.2431 146.61L40.3254 146.075C42.8813 145.924 45.1115 146.303 47.0161 147.212C48.9201 148.112 50.4242 149.481 51.5284 151.316C52.6409 153.151 53.2748 155.388 53.4303 158.027C53.5862 160.674 53.2198 162.978 52.331 164.94C51.4505 166.901 50.1097 168.445 48.3085 169.572C46.5156 170.698 44.3288 171.338 41.748 171.49ZM37.8414 167.101L41.2535 166.9C42.8416 166.806 44.1609 166.446 45.2114 165.82C46.2696 165.185 47.0366 164.256 47.5124 163.032C47.9959 161.8 48.1819 160.237 48.0703 158.343C47.9596 156.465 47.5921 154.947 46.9678 153.789C46.3517 152.63 45.4852 151.801 44.3685 151.302C43.2518 150.804 41.8994 150.601 40.3112 150.695L36.8867 150.896L37.8414 167.101ZM62.0353 144.796L63.5324 170.206L58.16 170.523L56.6629 145.112L62.0353 144.796ZM67.9526 169.946L66.4555 144.535L76.6296 143.936C78.499 143.826 80.0745 144.011 81.3562 144.492C82.6379 144.972 83.622 145.686 84.3087 146.633C84.9948 147.572 85.3754 148.679 85.4505 149.953C85.5089 150.945 85.3618 151.83 85.0091 152.606C84.656 153.374 84.1461 154.018 83.4795 154.539C82.8208 155.05 82.0547 155.432 81.1813 155.682L81.196 155.931C82.1662 155.915 83.088 156.134 83.9614 156.589C84.8431 157.044 85.5755 157.71 86.1585 158.589C86.741 159.459 87.069 160.519 87.1426 161.768C87.2221 163.116 86.958 164.34 86.3503 165.438C85.7505 166.527 84.8193 167.416 83.5567 168.105C82.2941 168.794 80.7116 169.194 78.8091 169.306L67.9526 169.946ZM73.0662 165.237L77.4461 164.979C78.9432 164.891 80.0183 164.541 80.6712 163.93C81.3236 163.31 81.6216 162.521 81.5651 161.561C81.5236 160.858 81.3175 160.248 80.9467 159.73C80.5759 159.213 80.0671 158.819 79.4205 158.55C78.7821 158.281 78.0327 158.171 77.1725 158.222L72.6686 158.487L73.0662 165.237ZM72.4544 154.852L76.4372 154.617C77.1734 154.574 77.8193 154.407 78.3749 154.117C78.9383 153.818 79.3713 153.419 79.6739 152.92C79.9848 152.42 80.1205 151.835 80.081 151.165C80.0269 150.247 79.6566 149.526 78.97 149.002C78.2917 148.478 77.3569 148.251 76.1658 148.321L72.0838 148.561L72.4544 154.852ZM94.9275 142.858L96.4246 168.268L91.0522 168.585L89.5551 143.174L94.9275 142.858ZM100.845 168.008L99.3477 142.597L104.72 142.281L105.956 163.262L116.85 162.62L117.111 167.049L100.845 168.008ZM125.697 166.544L119.94 166.883L127.215 140.956L134.138 140.548L144.395 165.442L138.638 165.781L131.118 146.552L130.919 146.564L125.697 166.544ZM124.749 156.577L138.347 155.776L138.594 159.969L124.996 160.771L124.749 156.577ZM147.453 165.262L145.956 139.851L156.13 139.252C158 139.142 159.575 139.327 160.857 139.808C162.139 140.288 163.123 141.002 163.809 141.949C164.496 142.889 164.876 143.995 164.951 145.269C165.01 146.261 164.863 147.146 164.51 147.922C164.157 148.69 163.647 149.334 162.98 149.855C162.322 150.367 161.556 150.748 160.682 150.999L160.697 151.247C161.667 151.231 162.589 151.451 163.462 151.905C164.344 152.36 165.076 153.026 165.659 153.905C166.242 154.775 166.57 155.835 166.643 157.084C166.723 158.433 166.459 159.656 165.851 160.754C165.251 161.843 164.32 162.733 163.058 163.421C161.795 164.11 160.212 164.51 158.31 164.622L147.453 165.262ZM152.567 160.553L156.947 160.295C158.444 160.207 159.519 159.857 160.172 159.246C160.824 158.626 161.122 157.837 161.066 156.877C161.024 156.174 160.818 155.564 160.448 155.046C160.077 154.529 159.568 154.135 158.921 153.866C158.283 153.597 157.534 153.487 156.673 153.538L152.169 153.803L152.567 160.553ZM151.955 150.168L155.938 149.933C156.674 149.89 157.32 149.723 157.876 149.433C158.439 149.134 158.872 148.735 159.175 148.236C159.486 147.736 159.621 147.152 159.582 146.482C159.528 145.563 159.157 144.842 158.471 144.318C157.792 143.794 156.858 143.567 155.667 143.637L151.585 143.877L151.955 150.168ZM183.271 144.986C183.113 143.991 182.641 143.239 181.856 142.729C181.07 142.219 180.033 142.002 178.742 142.078C177.865 142.13 177.132 142.298 176.543 142.581C175.953 142.857 175.51 143.219 175.213 143.668C174.924 144.117 174.795 144.614 174.827 145.16C174.838 145.616 174.956 146.007 175.183 146.334C175.418 146.661 175.729 146.937 176.116 147.163C176.502 147.381 176.945 147.567 177.444 147.72C177.942 147.865 178.472 147.983 179.033 148.075L181.348 148.486C182.471 148.669 183.508 148.94 184.459 149.299C185.41 149.658 186.242 150.119 186.956 150.683C187.67 151.247 188.237 151.927 188.657 152.724C189.086 153.521 189.336 154.448 189.407 155.507C189.49 157.062 189.172 158.434 188.454 159.622C187.743 160.801 186.67 161.748 185.235 162.463C183.807 163.17 182.059 163.584 179.991 163.706C177.94 163.827 176.135 163.618 174.576 163.079C173.025 162.539 171.787 161.678 170.863 160.496C169.946 159.305 169.413 157.797 169.264 155.971L174.463 155.665C174.571 156.513 174.857 157.21 175.321 157.756C175.792 158.292 176.4 158.684 177.145 158.931C177.898 159.169 178.738 159.26 179.664 159.206C180.574 159.152 181.356 158.973 182.01 158.669C182.673 158.364 183.177 157.965 183.521 157.472C183.866 156.978 184.02 156.426 183.984 155.814C183.95 155.243 183.752 154.773 183.39 154.404C183.036 154.035 182.529 153.733 181.868 153.498C181.215 153.263 180.418 153.06 179.479 152.892L176.671 152.36C174.498 151.965 172.758 151.25 171.452 150.215C170.146 149.179 169.442 147.723 169.34 145.844C169.241 144.306 169.571 142.938 170.331 141.74C171.098 140.541 172.191 139.576 173.609 138.845C175.027 138.114 176.662 137.694 178.515 137.585C180.401 137.473 182.066 137.699 183.51 138.261C184.962 138.823 186.115 139.656 186.969 140.759C187.822 141.863 188.306 143.171 188.42 144.683L183.271 144.986ZM283.321 157.257L274.313 157.788L272.816 132.377L281.899 131.842C284.455 131.692 286.685 132.071 288.589 132.979C290.493 133.88 291.997 135.248 293.102 137.084C294.214 138.919 294.848 141.156 295.004 143.794C295.16 146.441 294.793 148.746 293.904 150.707C293.024 152.668 291.683 154.212 289.882 155.339C288.089 156.466 285.902 157.105 283.321 157.257ZM279.415 152.868L282.827 152.667C284.415 152.573 285.734 152.213 286.785 151.587C287.843 150.952 288.61 150.023 289.086 148.8C289.569 147.568 289.755 146.004 289.644 144.11C289.533 142.233 289.165 140.715 288.541 139.556C287.925 138.397 287.059 137.568 285.942 137.07C284.825 136.571 283.473 136.369 281.884 136.462L278.46 136.664L279.415 152.868ZM303.609 130.563L305.106 155.974L299.733 156.29L298.236 130.88L303.609 130.563ZM309.526 155.713L308.029 130.303L318.203 129.703C320.072 129.593 321.648 129.778 322.929 130.259C324.211 130.74 325.195 131.453 325.882 132.401C326.568 133.34 326.949 134.446 327.024 135.72C327.082 136.713 326.935 137.597 326.582 138.373C326.229 139.141 325.719 139.785 325.053 140.306C324.394 140.818 323.628 141.199 322.755 141.45L322.769 141.698C323.739 141.682 324.661 141.902 325.535 142.357C326.416 142.811 327.149 143.478 327.732 144.356C328.314 145.227 328.642 146.287 328.716 147.536C328.795 148.884 328.531 150.107 327.924 151.205C327.324 152.295 326.393 153.184 325.13 153.872C323.867 154.561 322.285 154.961 320.382 155.073L309.526 155.713ZM314.64 151.004L319.019 150.746C320.517 150.658 321.592 150.308 322.244 149.697C322.897 149.078 323.195 148.288 323.138 147.329C323.097 146.626 322.891 146.015 322.52 145.498C322.149 144.98 321.64 144.587 320.994 144.318C320.355 144.048 319.606 143.939 318.746 143.989L314.242 144.255L314.64 151.004ZM314.028 140.619L318.01 140.385C318.747 140.341 319.393 140.175 319.948 139.885C320.512 139.586 320.945 139.187 321.247 138.687C321.558 138.188 321.694 137.603 321.654 136.933C321.6 136.015 321.23 135.294 320.543 134.77C319.865 134.245 318.93 134.018 317.739 134.088L313.657 134.329L314.028 140.619ZM336.501 128.625L337.998 154.036L332.625 154.352L331.128 128.942L336.501 128.625ZM342.418 153.775L340.921 128.365L346.293 128.048L347.53 149.029L358.423 148.387L358.684 152.817L342.418 153.775ZM367.27 152.311L361.513 152.65L368.788 126.723L375.711 126.315L385.968 151.209L380.211 151.549L372.691 132.32L372.493 132.332L367.27 152.311ZM366.322 142.344L379.921 141.543L380.168 145.737L366.569 146.538L366.322 142.344ZM389.027 151.029L387.53 125.619L397.704 125.019C399.573 124.909 401.149 125.094 402.43 125.575C403.712 126.056 404.696 126.77 405.383 127.717C406.069 128.656 406.45 129.762 406.525 131.036C406.583 132.029 406.436 132.913 406.083 133.689C405.73 134.457 405.22 135.101 404.554 135.622C403.895 136.134 403.129 136.515 402.255 136.766L402.27 137.014C403.24 136.998 404.162 137.218 405.036 137.673C405.917 138.127 406.65 138.794 407.233 139.672C407.815 140.543 408.143 141.603 408.217 142.852C408.296 144.2 408.032 145.423 407.424 146.521C406.825 147.611 405.893 148.5 404.631 149.189C403.368 149.877 401.786 150.278 399.883 150.39L389.027 151.029ZM394.14 146.32L398.52 146.062C400.017 145.974 401.092 145.625 401.745 145.013C402.398 144.394 402.696 143.604 402.639 142.645C402.598 141.942 402.392 141.331 402.021 140.814C401.65 140.296 401.141 139.903 400.495 139.634C399.856 139.364 399.107 139.255 398.247 139.305L393.743 139.571L394.14 146.32ZM393.528 135.935L397.511 135.701C398.247 135.657 398.893 135.491 399.449 135.201C400.012 134.902 400.445 134.503 400.748 134.004C401.059 133.504 401.195 132.919 401.155 132.249C401.101 131.331 400.731 130.61 400.044 130.086C399.366 129.561 398.431 129.334 397.24 129.404L393.158 129.645L393.528 135.935ZM424.844 130.754C424.686 129.759 424.214 129.006 423.429 128.496C422.644 127.986 421.606 127.77 420.315 127.846C419.439 127.897 418.706 128.065 418.116 128.349C417.527 128.624 417.083 128.986 416.786 129.436C416.497 129.884 416.369 130.381 416.401 130.927C416.411 131.383 416.53 131.775 416.756 132.102C416.991 132.428 417.302 132.705 417.689 132.931C418.076 133.149 418.518 133.334 419.017 133.488C419.515 133.632 420.045 133.751 420.606 133.842L422.922 134.253C424.045 134.436 425.082 134.707 426.032 135.066C426.983 135.425 427.815 135.887 428.529 136.451C429.243 137.014 429.81 137.695 430.231 138.492C430.659 139.288 430.909 140.216 430.98 141.274C431.063 142.83 430.746 144.201 430.027 145.389C429.316 146.568 428.243 147.515 426.808 148.231C425.38 148.937 423.633 149.351 421.565 149.473C419.513 149.594 417.708 149.385 416.149 148.846C414.598 148.307 413.361 147.446 412.436 146.263C411.519 145.072 410.986 143.564 410.837 141.739L416.036 141.432C416.144 142.281 416.43 142.978 416.894 143.523C417.365 144.06 417.974 144.451 418.719 144.698C419.471 144.936 420.311 145.028 421.237 144.973C422.147 144.919 422.929 144.741 423.584 144.436C424.246 144.132 424.75 143.733 425.094 143.239C425.439 142.746 425.593 142.193 425.557 141.581C425.523 141.01 425.326 140.54 424.964 140.172C424.61 139.802 424.102 139.5 423.441 139.265C422.788 139.03 421.992 138.828 421.052 138.659L418.244 138.127C416.071 137.732 414.332 137.017 413.026 135.982C411.72 134.947 411.015 133.49 410.913 131.612C410.814 130.074 411.144 128.705 411.904 127.507C412.672 126.308 413.764 125.343 415.182 124.612C416.6 123.881 418.235 123.461 420.088 123.352C421.974 123.241 423.639 123.466 425.083 124.029C426.536 124.591 427.689 125.423 428.542 126.527C429.396 127.63 429.88 128.938 429.994 130.45L424.844 130.754ZM524.895 143.024L515.887 143.555L514.39 118.145L523.472 117.61C526.028 117.459 528.258 117.838 530.163 118.747C532.067 119.647 533.571 121.015 534.675 122.851C535.787 124.686 536.421 126.923 536.577 129.562C536.733 132.209 536.366 134.513 535.478 136.474C534.597 138.435 533.256 139.979 531.455 141.106C529.662 142.233 527.475 142.872 524.895 143.024ZM520.988 138.635L524.4 138.434C525.988 138.341 527.308 137.981 528.358 137.355C529.416 136.719 530.183 135.79 530.659 134.567C531.142 133.335 531.328 131.772 531.217 129.878C531.106 128 530.739 126.482 530.114 125.323C529.498 124.165 528.632 123.336 527.515 122.837C526.398 122.338 525.046 122.136 523.458 122.23L520.033 122.431L520.988 138.635ZM545.182 116.33L546.679 141.741L541.307 142.057L539.809 116.647L545.182 116.33ZM551.099 141.481L549.602 116.07L559.776 115.471C561.646 115.36 563.221 115.546 564.503 116.026C565.784 116.507 566.769 117.221 567.455 118.168C568.141 119.107 568.522 120.214 568.597 121.487C568.656 122.48 568.508 123.364 568.156 124.141C567.803 124.908 567.293 125.553 566.626 126.073C565.967 126.585 565.201 126.967 564.328 127.217L564.343 127.465C565.313 127.45 566.235 127.669 567.108 128.124C567.99 128.579 568.722 129.245 569.305 130.124C569.888 130.994 570.216 132.054 570.289 133.303C570.369 134.651 570.105 135.874 569.497 136.973C568.897 138.062 567.966 138.951 566.703 139.64C565.441 140.328 563.858 140.729 561.956 140.841L551.099 141.481ZM556.213 136.772L560.593 136.514C562.09 136.426 563.165 136.076 563.818 135.465C564.47 134.845 564.768 134.056 564.712 133.096C564.67 132.393 564.464 131.783 564.093 131.265C563.722 130.747 563.214 130.354 562.567 130.085C561.929 129.815 561.179 129.706 560.319 129.757L555.815 130.022L556.213 136.772ZM555.601 126.387L559.584 126.152C560.32 126.109 560.966 125.942 561.521 125.652C562.085 125.353 562.518 124.954 562.821 124.455C563.131 123.955 563.267 123.37 563.228 122.7C563.174 121.782 562.803 121.061 562.117 120.537C561.438 120.013 560.504 119.785 559.312 119.856L555.23 120.096L555.601 126.387ZM578.074 114.393L579.571 139.803L574.199 140.12L572.702 114.709L578.074 114.393ZM583.991 139.543L582.494 114.132L587.867 113.816L589.103 134.797L599.997 134.155L600.258 138.584L583.991 139.543ZM608.843 138.078L603.086 138.418L610.361 112.49L617.285 112.082L627.542 136.977L621.784 137.316L614.264 118.087L614.066 118.099L608.843 138.078ZM607.895 128.112L621.494 127.31L621.741 131.504L608.142 132.305L607.895 128.112ZM630.6 136.797L629.103 111.386L639.277 110.787C641.146 110.677 642.722 110.862 644.004 111.342C645.285 111.823 646.269 112.537 646.956 113.484C647.642 114.423 648.023 115.53 648.098 116.804C648.156 117.796 648.009 118.681 647.657 119.457C647.303 120.224 646.793 120.869 646.127 121.389C645.468 121.901 644.702 122.283 643.829 122.533L643.843 122.781C644.814 122.766 645.735 122.985 646.609 123.44C647.491 123.895 648.223 124.561 648.806 125.44C649.388 126.31 649.716 127.37 649.79 128.619C649.869 129.967 649.605 131.191 648.998 132.289C648.398 133.378 647.467 134.267 646.204 134.956C644.942 135.645 643.359 136.045 641.457 136.157L630.6 136.797ZM635.714 132.088L640.093 131.83C641.591 131.742 642.666 131.392 643.319 130.781C643.971 130.161 644.269 129.372 644.212 128.412C644.171 127.709 643.965 127.099 643.594 126.581C643.223 126.063 642.715 125.67 642.068 125.401C641.429 125.132 640.68 125.022 639.82 125.073L635.316 125.338L635.714 132.088ZM635.102 121.703L639.085 121.468C639.821 121.425 640.467 121.258 641.022 120.968C641.586 120.669 642.019 120.27 642.321 119.771C642.632 119.271 642.768 118.686 642.728 118.016C642.674 117.098 642.304 116.377 641.617 115.853C640.939 115.329 640.004 115.102 638.813 115.172L634.731 115.412L635.102 121.703ZM666.418 116.521C666.26 115.526 665.788 114.774 665.002 114.264C664.217 113.754 663.179 113.537 661.889 113.613C661.012 113.665 660.279 113.832 659.69 114.116C659.1 114.392 658.657 114.754 658.359 115.203C658.07 115.652 657.942 116.149 657.974 116.695C657.984 117.151 658.103 117.542 658.33 117.869C658.565 118.196 658.876 118.472 659.262 118.698C659.649 118.916 660.091 119.102 660.59 119.255C661.088 119.4 661.618 119.518 662.18 119.609L664.495 120.021C665.618 120.204 666.655 120.475 667.606 120.834C668.556 121.193 669.389 121.654 670.103 122.218C670.816 122.782 671.384 123.462 671.804 124.259C672.233 125.056 672.482 125.983 672.553 127.041C672.636 128.597 672.319 129.969 671.6 131.156C670.89 132.335 669.817 133.283 668.381 133.998C666.954 134.705 665.206 135.119 663.138 135.241C661.087 135.362 659.281 135.152 657.722 134.614C656.172 134.074 654.934 133.213 654.009 132.031C653.093 130.84 652.56 129.332 652.411 127.506L657.609 127.2C657.717 128.048 658.003 128.745 658.467 129.291C658.939 129.827 659.547 130.219 660.292 130.466C661.045 130.703 661.884 130.795 662.811 130.74C663.721 130.687 664.503 130.508 665.157 130.204C665.82 129.899 666.323 129.5 666.668 129.007C667.012 128.513 667.166 127.96 667.13 127.348C667.097 126.778 666.899 126.308 666.537 125.939C666.183 125.57 665.676 125.268 665.014 125.033C664.361 124.797 663.565 124.595 662.625 124.426L659.818 123.895C657.645 123.5 655.905 122.785 654.599 121.749C653.293 120.714 652.589 119.257 652.486 117.379C652.387 115.841 652.718 114.473 653.477 113.274C654.245 112.075 655.338 111.11 656.755 110.38C658.173 109.649 659.808 109.228 661.661 109.119C663.547 109.008 665.212 109.234 666.656 109.796C668.109 110.358 669.262 111.191 670.116 112.294C670.969 113.398 671.453 114.705 671.567 116.218L666.418 116.521ZM766.468 128.792L757.46 129.323L755.963 103.912L765.045 103.377C767.601 103.226 769.831 103.605 771.736 104.514C773.64 105.415 775.144 106.783 776.248 108.618C777.361 110.454 777.995 112.691 778.15 115.329C778.306 117.976 777.94 120.28 777.051 122.242C776.17 124.203 774.83 125.747 773.028 126.874C771.235 128 769.049 128.64 766.468 128.792ZM762.561 124.403L765.973 124.202C767.562 124.108 768.881 123.748 769.931 123.122C770.989 122.487 771.756 121.558 772.232 120.334C772.716 119.102 772.902 117.539 772.79 115.645C772.68 113.767 772.312 112.249 771.688 111.091C771.072 109.932 770.205 109.103 769.088 108.605C767.972 108.106 766.619 107.903 765.031 107.997L761.607 108.199L762.561 124.403ZM786.755 102.098L788.252 127.508L782.88 127.825L781.383 102.414L786.755 102.098ZM792.672 127.248L791.175 101.837L801.349 101.238C803.219 101.128 804.794 101.313 806.076 101.794C807.358 102.274 808.342 102.988 809.029 103.936C809.715 104.875 810.095 105.981 810.17 107.255C810.229 108.247 810.082 109.132 809.729 109.908C809.376 110.676 808.866 111.32 808.199 111.841C807.541 112.353 806.775 112.734 805.901 112.985L805.916 113.233C806.886 113.217 807.808 113.437 808.681 113.892C809.563 114.346 810.295 115.012 810.878 115.891C811.461 116.762 811.789 117.821 811.862 119.07C811.942 120.419 811.678 121.642 811.07 122.74C810.47 123.83 809.539 124.719 808.277 125.407C807.014 126.096 805.431 126.496 803.529 126.608L792.672 127.248ZM797.786 122.539L802.166 122.281C803.663 122.193 804.738 121.843 805.391 121.232C806.044 120.613 806.341 119.823 806.285 118.864C806.244 118.16 806.037 117.55 805.667 117.032C805.296 116.515 804.787 116.121 804.14 115.852C803.502 115.583 802.753 115.473 801.892 115.524L797.388 115.79L797.786 122.539ZM797.174 112.154L801.157 111.919C801.893 111.876 802.539 111.709 803.095 111.419C803.658 111.121 804.091 110.722 804.394 110.222C804.705 109.723 804.84 109.138 804.801 108.468C804.747 107.549 804.376 106.828 803.69 106.304C803.012 105.78 802.077 105.553 800.886 105.623L796.804 105.864L797.174 112.154ZM819.647 100.16L821.144 125.57L815.772 125.887L814.275 100.477L819.647 100.16ZM825.565 125.31L824.068 99.8996L829.44 99.583L830.676 120.564L841.57 119.922L841.831 124.352L825.565 125.31ZM850.417 123.846L844.66 124.185L851.935 98.2577L858.858 97.8498L869.115 122.744L863.358 123.083L855.838 103.855L855.639 103.866L850.417 123.846ZM849.469 113.879L863.067 113.078L863.314 117.272L849.716 118.073L849.469 113.879ZM872.173 122.564L870.676 97.1536L880.85 96.5541C882.72 96.444 884.295 96.6292 885.577 97.1098C886.859 97.5905 887.843 98.3044 888.529 99.2517C889.215 100.191 889.596 101.297 889.671 102.571C889.73 103.564 889.583 104.448 889.23 105.224C888.877 105.992 888.367 106.636 887.7 107.157C887.041 107.669 886.275 108.05 885.402 108.301L885.417 108.549C886.387 108.533 887.309 108.753 888.182 109.208C889.064 109.662 889.796 110.329 890.379 111.207C890.962 112.078 891.29 113.137 891.363 114.386C891.443 115.735 891.179 116.958 890.571 118.056C889.971 119.146 889.04 120.035 887.777 120.723C886.515 121.412 884.932 121.812 883.03 121.924L872.173 122.564ZM877.287 117.855L881.667 117.597C883.164 117.509 884.239 117.159 884.892 116.548C885.544 115.929 885.842 115.139 885.786 114.18C885.744 113.477 885.538 112.866 885.167 112.349C884.797 111.831 884.288 111.438 883.641 111.168C883.003 110.899 882.253 110.79 881.393 110.84L876.889 111.106L877.287 117.855ZM876.675 107.47L880.658 107.236C881.394 107.192 882.04 107.025 882.596 106.735C883.159 106.437 883.592 106.038 883.895 105.538C884.205 105.039 884.341 104.454 884.302 103.784C884.248 102.866 883.877 102.145 883.191 101.621C882.512 101.096 881.578 100.869 880.387 100.939L876.304 101.18L876.675 107.47ZM907.991 102.288C907.833 101.293 907.361 100.541 906.576 100.031C905.79 99.5213 904.752 99.3044 903.462 99.3804C902.585 99.4321 901.852 99.5998 901.263 99.8835C900.673 100.159 900.23 100.521 899.933 100.97C899.644 101.419 899.515 101.916 899.547 102.462C899.558 102.918 899.676 103.31 899.903 103.637C900.138 103.963 900.449 104.239 900.836 104.466C901.222 104.684 901.665 104.869 902.163 105.022C902.662 105.167 903.192 105.285 903.753 105.377L906.068 105.788C907.191 105.971 908.228 106.242 909.179 106.601C910.13 106.96 910.962 107.422 911.676 107.985C912.39 108.549 912.957 109.23 913.377 110.027C913.806 110.823 914.056 111.75 914.126 112.809C914.21 114.364 913.892 115.736 913.174 116.924C912.463 118.103 911.39 119.05 909.954 119.765C908.527 120.472 906.779 120.886 904.711 121.008C902.66 121.129 900.855 120.92 899.296 120.381C897.745 119.841 896.507 118.981 895.583 117.798C894.666 116.607 894.133 115.099 893.984 113.273L899.183 112.967C899.291 113.816 899.577 114.513 900.04 115.058C900.512 115.595 901.12 115.986 901.865 116.233C902.618 116.471 903.458 116.562 904.384 116.508C905.294 116.454 906.076 116.275 906.73 115.971C907.393 115.667 907.897 115.267 908.241 114.774C908.585 114.281 908.74 113.728 908.704 113.116C908.67 112.545 908.472 112.075 908.11 111.707C907.756 111.337 907.249 111.035 906.588 110.8C905.935 110.565 905.138 110.363 904.199 110.194L901.391 109.662C899.218 109.267 897.478 108.552 896.172 107.517C894.866 106.481 894.162 105.025 894.06 103.147C893.961 101.609 894.291 100.24 895.05 99.0418C895.818 97.8428 896.911 96.8779 898.329 96.1469C899.746 95.4159 901.382 94.9959 903.235 94.8867C905.121 94.7756 906.786 95.0012 908.23 95.5636C909.682 96.1254 910.835 96.9581 911.689 98.0615C912.542 99.165 913.026 100.473 913.14 101.985L907.991 102.288ZM1008.04 114.559L999.033 115.09L997.536 89.6794L1006.62 89.1443C1009.17 88.9938 1011.4 89.3728 1013.31 90.2816C1015.21 91.182 1016.72 92.5501 1017.82 94.3859C1018.93 96.2211 1019.57 98.458 1019.72 101.097C1019.88 103.744 1019.51 106.048 1018.62 108.009C1017.74 109.97 1016.4 111.514 1014.6 112.641C1012.81 113.768 1010.62 114.407 1008.04 114.559ZM1004.13 110.17L1007.55 109.969C1009.13 109.876 1010.45 109.516 1011.5 108.889C1012.56 108.254 1013.33 107.325 1013.81 106.102C1014.29 104.87 1014.48 103.307 1014.36 101.412C1014.25 99.5348 1013.89 98.0168 1013.26 96.8583C1012.64 95.6993 1011.78 94.8705 1010.66 94.3719C1009.54 93.8733 1008.19 93.6708 1006.6 93.7643L1003.18 93.9661L1004.13 110.17ZM1028.33 87.8653L1029.83 113.276L1024.45 113.592L1022.96 88.1818L1028.33 87.8653ZM1034.25 113.015L1032.75 87.6049L1042.92 87.0054C1044.79 86.8953 1046.37 87.0805 1047.65 87.5611C1048.93 88.0418 1049.92 88.7557 1050.6 89.703C1051.29 90.642 1051.67 91.7484 1051.74 93.0223C1051.8 94.0149 1051.65 94.8992 1051.3 95.6753C1050.95 96.4432 1050.44 97.0874 1049.77 97.6081C1049.11 98.1201 1048.35 98.5014 1047.47 98.752L1047.49 99.0002C1048.46 98.9845 1049.38 99.2041 1050.25 99.659C1051.14 100.113 1051.87 100.78 1052.45 101.659C1053.03 102.529 1053.36 103.589 1053.44 104.838C1053.52 106.186 1053.25 107.409 1052.64 108.508C1052.04 109.597 1051.11 110.486 1049.85 111.175C1048.59 111.863 1047 112.264 1045.1 112.376L1034.25 113.015ZM1039.36 108.307L1043.74 108.049C1045.24 107.96 1046.31 107.611 1046.96 106.999C1047.62 106.38 1047.91 105.59 1047.86 104.631C1047.82 103.928 1047.61 103.317 1047.24 102.8C1046.87 102.282 1046.36 101.889 1045.71 101.62C1045.08 101.35 1044.33 101.241 1043.47 101.292L1038.96 101.557L1039.36 108.307ZM1038.75 97.9215L1042.73 97.6869C1043.47 97.6435 1044.11 97.4768 1044.67 97.1867C1045.23 96.8879 1045.66 96.4889 1045.97 95.9897C1046.28 95.4899 1046.41 94.9051 1046.37 94.2351C1046.32 93.3169 1045.95 92.5958 1045.26 92.0719C1044.58 91.5474 1043.65 91.3203 1042.46 91.3904L1038.38 91.6309L1038.75 97.9215ZM1061.22 85.9274L1062.72 111.338L1057.35 111.654L1055.85 86.2439L1061.22 85.9274ZM1067.14 111.077L1065.64 85.667L1071.01 85.3504L1072.25 106.331L1083.14 105.69L1083.4 110.119L1067.14 111.077ZM1091.99 109.613L1086.23 109.952L1093.51 84.0251L1100.43 83.6172L1110.69 108.512L1104.93 108.851L1097.41 89.622L1097.21 89.6337L1091.99 109.613ZM1091.04 99.6464L1104.64 98.8453L1104.89 103.039L1091.29 103.84L1091.04 99.6464ZM1113.75 108.331L1112.25 82.921L1122.42 82.3215C1124.29 82.2114 1125.87 82.3966 1127.15 82.8773C1128.43 83.3579 1129.42 84.0718 1130.1 85.0191C1130.79 85.9581 1131.17 87.0645 1131.24 88.3384C1131.3 89.331 1131.16 90.2153 1130.8 90.9914C1130.45 91.7593 1129.94 92.4035 1129.27 92.9242C1128.61 93.4362 1127.85 93.8175 1126.98 94.0681L1126.99 94.3163C1127.96 94.3006 1128.88 94.5202 1129.76 94.9751C1130.64 95.4295 1131.37 96.096 1131.95 96.9747C1132.53 97.8451 1132.86 98.9048 1132.94 100.154C1133.02 101.502 1132.75 102.725 1132.14 103.824C1131.54 104.913 1130.61 105.802 1129.35 106.491C1128.09 107.179 1126.51 107.58 1124.6 107.692L1113.75 108.331ZM1118.86 103.623L1123.24 103.365C1124.74 103.276 1125.81 102.927 1126.47 102.316C1127.12 101.696 1127.42 100.907 1127.36 99.9471C1127.32 99.244 1127.11 98.6336 1126.74 98.1159C1126.37 97.5982 1125.86 97.2049 1125.21 96.9359C1124.58 96.6664 1123.83 96.557 1122.97 96.6077L1118.46 96.873L1118.86 103.623ZM1118.25 93.2376L1122.23 93.003C1122.97 92.9596 1123.61 92.7929 1124.17 92.5028C1124.73 92.204 1125.17 91.805 1125.47 91.3058C1125.78 90.806 1125.91 90.2212 1125.88 89.5512C1125.82 88.633 1125.45 87.9119 1124.76 87.388C1124.09 86.8635 1123.15 86.6364 1121.96 86.7065L1117.88 86.947L1118.25 93.2376ZM1149.56 88.0559C1149.41 87.0608 1148.93 86.3084 1148.15 85.7986C1147.36 85.2887 1146.33 85.0718 1145.04 85.1478C1144.16 85.1995 1143.43 85.3672 1142.84 85.6509C1142.25 85.9263 1141.8 86.2886 1141.51 86.7378C1141.22 87.1864 1141.09 87.6837 1141.12 88.2296C1141.13 88.6855 1141.25 89.077 1141.48 89.4039C1141.71 89.7304 1142.02 90.0067 1142.41 90.233C1142.8 90.4509 1143.24 90.6365 1143.74 90.7897C1144.23 90.9347 1144.76 91.0529 1145.33 91.1443L1147.64 91.5557C1148.76 91.7385 1149.8 92.0095 1150.75 92.3685C1151.7 92.7275 1152.54 93.1889 1153.25 93.7528C1153.96 94.3166 1154.53 94.9971 1154.95 95.794C1155.38 96.5905 1155.63 97.5179 1155.7 98.5762C1155.78 100.132 1155.47 101.503 1154.75 102.691C1154.04 103.87 1152.96 104.817 1151.53 105.533C1150.1 106.239 1148.35 106.654 1146.28 106.775C1144.23 106.896 1142.43 106.687 1140.87 106.148C1139.32 105.609 1138.08 104.748 1137.16 103.566C1136.24 102.375 1135.71 100.866 1135.56 99.0407L1140.76 98.7345C1140.86 99.583 1141.15 100.28 1141.61 100.825C1142.09 101.362 1142.69 101.754 1143.44 102C1144.19 102.238 1145.03 102.33 1145.96 102.275C1146.87 102.222 1147.65 102.043 1148.3 101.739C1148.97 101.434 1149.47 101.035 1149.81 100.541C1150.16 100.048 1150.31 99.4953 1150.28 98.8832C1150.24 98.3125 1150.05 97.8427 1149.68 97.4739C1149.33 97.1046 1148.82 96.8025 1148.16 96.5676C1147.51 96.3321 1146.71 96.13 1145.77 95.9613L1142.96 95.4295C1140.79 95.0346 1139.05 94.3195 1137.75 93.2842C1136.44 92.2489 1135.74 90.7922 1135.63 88.914C1135.53 87.376 1135.86 86.0077 1136.62 84.8092C1137.39 83.6102 1138.48 82.6453 1139.9 81.9143C1141.32 81.1833 1142.96 80.7633 1144.81 80.6541C1146.69 80.543 1148.36 80.7686 1149.8 81.331C1151.26 81.8928 1152.41 82.7255 1153.26 83.8289C1154.12 84.9324 1154.6 86.2403 1154.71 87.7525L1149.56 88.0559ZM1249.61 100.327L1240.61 100.857L1239.11 75.4468L1248.19 74.9117C1250.75 74.7612 1252.98 75.1402 1254.88 76.049C1256.79 76.9494 1258.29 78.3175 1259.39 80.1533C1260.51 81.9885 1261.14 84.2254 1261.3 86.8641C1261.45 89.511 1261.09 91.8152 1260.2 93.7766C1259.32 95.7376 1257.98 97.2816 1256.17 98.4087C1254.38 99.5353 1252.2 100.175 1249.61 100.327ZM1245.71 95.9376L1249.12 95.7366C1250.71 95.643 1252.03 95.2831 1253.08 94.6568C1254.14 94.0217 1254.9 93.0925 1255.38 91.8693C1255.86 90.6372 1256.05 89.0741 1255.94 87.1799C1255.83 85.3022 1255.46 83.7842 1254.83 82.6257C1254.22 81.4667 1253.35 80.6379 1252.23 80.1393C1251.12 79.6407 1249.77 79.4382 1248.18 79.5317L1244.75 79.7335L1245.71 95.9376ZM1269.9 73.6327L1271.4 99.0432L1266.03 99.3597L1264.53 73.9492L1269.9 73.6327ZM1275.82 98.7827L1274.32 73.3723L1284.5 72.7728C1286.37 72.6627 1287.94 72.8479 1289.22 73.3285C1290.5 73.8092 1291.49 74.5231 1292.18 75.4704C1292.86 76.4094 1293.24 77.5158 1293.32 78.7897C1293.38 79.7823 1293.23 80.6666 1292.88 81.4427C1292.52 82.2106 1292.01 82.8548 1291.35 83.3755C1290.69 83.8875 1289.92 84.2688 1289.05 84.5194L1289.06 84.7676C1290.03 84.7519 1290.95 84.9715 1291.83 85.4264C1292.71 85.8808 1293.44 86.5473 1294.02 87.426C1294.61 88.2964 1294.94 89.3561 1295.01 90.6051C1295.09 91.9534 1294.82 93.1767 1294.22 94.2749C1293.62 95.3644 1292.69 96.2534 1291.42 96.9421C1290.16 97.6307 1288.58 98.031 1286.68 98.1431L1275.82 98.7827ZM1280.93 94.074L1285.31 93.8159C1286.81 93.7277 1287.88 93.378 1288.54 92.7668C1289.19 92.1474 1289.49 91.3579 1289.43 90.3984C1289.39 89.6953 1289.18 89.0849 1288.81 88.5672C1288.44 88.0495 1287.93 87.6562 1287.29 87.3872C1286.65 87.1177 1285.9 87.0083 1285.04 87.059L1280.54 87.3243L1280.93 94.074ZM1280.32 83.6889L1284.3 83.4543C1285.04 83.4109 1285.69 83.2442 1286.24 82.9541C1286.8 82.6553 1287.24 82.2563 1287.54 81.7571C1287.85 81.2573 1287.99 80.6725 1287.95 80.0025C1287.89 79.0843 1287.52 78.3632 1286.84 77.8393C1286.16 77.3148 1285.22 77.0877 1284.03 77.1578L1279.95 77.3983L1280.32 83.6889ZM1302.79 71.6948L1304.29 97.1053L1298.92 97.4218L1297.42 72.0113L1302.79 71.6948ZM1308.71 96.8449L1307.21 71.4344L1312.59 71.1178L1313.82 92.0989L1324.72 91.457L1324.98 95.8865L1308.71 96.8449ZM1333.56 95.3807L1327.81 95.7198L1335.08 69.7925L1342 69.3846L1352.26 94.279L1346.5 94.6182L1338.98 75.3894L1338.79 75.4011L1333.56 95.3807ZM1332.62 85.4138L1346.21 84.6127L1346.46 88.8064L1332.86 89.6076L1332.62 85.4138ZM1355.32 94.0988L1353.82 68.6884L1364 68.0889C1365.87 67.9788 1367.44 68.164 1368.72 68.6447C1370.01 69.1253 1370.99 69.8392 1371.68 70.7865C1372.36 71.7255 1372.74 72.8319 1372.82 74.1058C1372.88 75.0984 1372.73 75.9827 1372.38 76.7588C1372.02 77.5267 1371.51 78.1709 1370.85 78.6916C1370.19 79.2036 1369.42 79.5849 1368.55 79.8355L1368.56 80.0837C1369.53 80.068 1370.46 80.2876 1371.33 80.7425C1372.21 81.1969 1372.94 81.8634 1373.53 82.7421C1374.11 83.6125 1374.44 84.6722 1374.51 85.9212C1374.59 87.2695 1374.33 88.4928 1373.72 89.591C1373.12 90.6805 1372.19 91.5696 1370.92 92.2582C1369.66 92.9468 1368.08 93.3471 1366.18 93.4592L1355.32 94.0988ZM1360.43 89.3901L1364.81 89.132C1366.31 89.0438 1367.39 88.6941 1368.04 88.0829C1368.69 87.4635 1368.99 86.674 1368.93 85.7145C1368.89 85.0114 1368.68 84.401 1368.31 83.8833C1367.94 83.3657 1367.43 82.9723 1366.79 82.7033C1366.15 82.4338 1365.4 82.3244 1364.54 82.3751L1360.04 82.6404L1360.43 89.3901ZM1359.82 79.005L1363.8 78.7704C1364.54 78.727 1365.19 78.5603 1365.74 78.2703C1366.31 77.9714 1366.74 77.5724 1367.04 77.0732C1367.35 76.5734 1367.49 75.9886 1367.45 75.3186C1367.39 74.4004 1367.02 73.6793 1366.34 73.1554C1365.66 72.6309 1364.72 72.4038 1363.53 72.4739L1359.45 72.7144L1359.82 79.005ZM1391.14 73.8233C1390.98 72.8283 1390.51 72.0758 1389.72 71.566C1388.94 71.0561 1387.9 70.8392 1386.61 70.9152C1385.73 70.9669 1385 71.1346 1384.41 71.4183C1383.82 71.6937 1383.38 72.056 1383.08 72.5052C1382.79 72.9538 1382.66 73.4511 1382.69 73.997C1382.7 74.4529 1382.82 74.8444 1383.05 75.1713C1383.28 75.4978 1383.6 75.7741 1383.98 76.0004C1384.37 76.2183 1384.81 76.4039 1385.31 76.5571C1385.81 76.7021 1386.34 76.8203 1386.9 76.9117L1389.21 77.3231C1390.34 77.506 1391.37 77.7769 1392.33 78.1359C1393.28 78.4949 1394.11 78.9563 1394.82 79.5202C1395.54 80.084 1396.1 80.7645 1396.52 81.5614C1396.95 82.3579 1397.2 83.2853 1397.27 84.3436C1397.36 85.8991 1397.04 87.2708 1396.32 88.4586C1395.61 89.6376 1394.54 90.5848 1393.1 91.3002C1391.67 92.0068 1389.93 92.4211 1387.86 92.5429C1385.81 92.6637 1384 92.4547 1382.44 91.9157C1380.89 91.3763 1379.65 90.5154 1378.73 89.3331C1377.81 88.1421 1377.28 86.6337 1377.13 84.8082L1382.33 84.5019C1382.44 85.3504 1382.72 86.0474 1383.19 86.5928C1383.66 87.1295 1384.27 87.5211 1385.01 87.7677C1385.76 88.0056 1386.6 88.0972 1387.53 88.0426C1388.44 87.989 1389.22 87.8101 1389.88 87.506C1390.54 87.2013 1391.04 86.8023 1391.39 86.3089C1391.73 85.8155 1391.89 85.2627 1391.85 84.6506C1391.82 84.0799 1391.62 83.6101 1391.26 83.2413C1390.9 82.872 1390.4 82.5699 1389.73 82.335C1389.08 82.0995 1388.28 81.8974 1387.35 81.7287L1384.54 81.1969C1382.36 80.802 1380.62 80.0869 1379.32 79.0516C1378.01 78.0163 1377.31 76.5596 1377.21 74.6814C1377.11 73.1434 1377.44 71.7751 1378.2 70.5766C1378.96 69.3776 1380.06 68.4127 1381.48 67.6817C1382.89 66.9507 1384.53 66.5307 1386.38 66.4215C1388.27 66.3104 1389.93 66.536 1391.38 67.0984C1392.83 67.6602 1393.98 68.4929 1394.84 69.5963C1395.69 70.6998 1396.17 72.0077 1396.29 73.5199L1391.14 73.8233ZM1491.19 86.094L1482.18 86.6247L1480.68 61.2142L1489.77 60.6791C1492.32 60.5286 1494.55 60.9076 1496.46 61.8164C1498.36 62.7168 1499.86 64.0849 1500.97 65.9207C1502.08 67.7559 1502.71 69.9928 1502.87 72.6315C1503.03 75.2784 1502.66 77.5826 1501.77 79.5441C1500.89 81.505 1499.55 83.049 1497.75 84.1761C1495.96 85.3027 1493.77 85.942 1491.19 86.094ZM1487.28 81.705L1490.69 81.504C1492.28 81.4104 1493.6 81.0505 1494.65 80.4242C1495.71 79.7891 1496.48 78.8599 1496.95 77.6367C1497.44 76.4046 1497.62 74.8415 1497.51 72.9473C1497.4 71.0696 1497.03 69.5516 1496.41 68.3931C1495.79 67.2341 1494.92 66.4054 1493.81 65.9067C1492.69 65.4081 1491.34 65.2056 1489.75 65.2991L1486.33 65.5009L1487.28 81.705ZM1511.48 59.4001L1512.97 84.8106L1507.6 85.1271L1506.1 59.7166L1511.48 59.4001ZM1517.39 84.5501L1515.9 59.1397L1526.07 58.5402C1527.94 58.4301 1529.51 58.6153 1530.8 59.0959C1532.08 59.5766 1533.06 60.2905 1533.75 61.2378C1534.43 62.1768 1534.82 63.2832 1534.89 64.5571C1534.95 65.5497 1534.8 66.434 1534.45 67.2101C1534.1 67.978 1533.59 68.6222 1532.92 69.1429C1532.26 69.6549 1531.49 70.0362 1530.62 70.2868L1530.64 70.535C1531.61 70.5193 1532.53 70.7389 1533.4 71.1938C1534.28 71.6482 1535.02 72.3147 1535.6 73.1934C1536.18 74.0638 1536.51 75.1235 1536.58 76.3725C1536.66 77.7208 1536.4 78.9441 1535.79 80.0423C1535.19 81.1318 1534.26 82.0209 1533 82.7095C1531.73 83.3981 1530.15 83.7984 1528.25 83.9105L1517.39 84.5501ZM1522.51 79.8414L1526.89 79.5833C1528.38 79.4951 1529.46 79.1454 1530.11 78.5342C1530.76 77.9148 1531.06 77.1253 1531 76.1658C1530.96 75.4627 1530.76 74.8523 1530.39 74.3346C1530.02 73.8169 1529.51 73.4236 1528.86 73.1546C1528.22 72.8851 1527.47 72.7757 1526.61 72.8264L1522.11 73.0917L1522.51 79.8414ZM1521.89 69.4563L1525.88 69.2217C1526.61 69.1783 1527.26 69.0116 1527.81 68.7215C1528.38 68.4227 1528.81 68.0237 1529.11 67.5245C1529.42 67.0247 1529.56 66.4399 1529.52 65.7699C1529.47 64.8517 1529.1 64.1306 1528.41 63.6067C1527.73 63.0822 1526.8 62.8551 1525.61 62.9252L1521.52 63.1657L1521.89 69.4563ZM1544.37 57.4622L1545.86 82.8727L1540.49 83.1892L1538.99 57.7787L1544.37 57.4622ZM1550.28 82.6123L1548.79 57.2018L1554.16 56.8852L1555.4 77.8663L1566.29 77.2244L1566.55 81.6539L1550.28 82.6123ZM1575.14 81.1481L1569.38 81.4872L1576.65 55.5599L1583.58 55.152L1593.83 80.0464L1588.08 80.3856L1580.56 61.1568L1580.36 61.1685L1575.14 81.1481ZM1574.19 71.1813L1587.79 70.3801L1588.03 74.5738L1574.44 75.375L1574.19 71.1813ZM1596.89 79.8662L1595.4 54.4558L1605.57 53.8563C1607.44 53.7462 1609.02 53.9314 1610.3 54.4121C1611.58 54.8927 1612.56 55.6066 1613.25 56.5539C1613.94 57.4929 1614.32 58.5993 1614.39 59.8732C1614.45 60.8658 1614.3 61.7501 1613.95 62.5262C1613.6 63.2941 1613.09 63.9383 1612.42 64.459C1611.76 64.971 1611 65.3523 1610.12 65.6029L1610.14 65.8511C1611.11 65.8354 1612.03 66.055 1612.9 66.5099C1613.78 66.9643 1614.52 67.6308 1615.1 68.5095C1615.68 69.3799 1616.01 70.4396 1616.08 71.6886C1616.16 73.0369 1615.9 74.2602 1615.29 75.3584C1614.69 76.4479 1613.76 77.337 1612.5 78.0256C1611.23 78.7142 1609.65 79.1145 1607.75 79.2266L1596.89 79.8662ZM1602.01 75.1575L1606.39 74.8994C1607.88 74.8112 1608.96 74.4615 1609.61 73.8503C1610.26 73.2309 1610.56 72.4414 1610.51 71.4819C1610.46 70.7788 1610.26 70.1684 1609.89 69.6507C1609.52 69.1331 1609.01 68.7397 1608.36 68.4707C1607.72 68.2012 1606.97 68.0918 1606.11 68.1425L1601.61 68.4078L1602.01 75.1575ZM1601.39 64.7724L1605.38 64.5378C1606.11 64.4944 1606.76 64.3277 1607.32 64.0377C1607.88 63.7388 1608.31 63.3398 1608.61 62.8406C1608.93 62.3408 1609.06 61.756 1609.02 61.086C1608.97 60.1678 1608.6 59.4468 1607.91 58.9228C1607.23 58.3983 1606.3 58.1712 1605.11 58.2414L1601.02 58.4819L1601.39 64.7724ZM1632.71 59.5907C1632.55 58.5957 1632.08 57.8432 1631.3 57.3334C1630.51 56.8235 1629.47 56.6066 1628.18 56.6826C1627.31 56.7343 1626.57 56.902 1625.98 57.1857C1625.39 57.4612 1624.95 57.8234 1624.65 58.2726C1624.36 58.7212 1624.24 59.2185 1624.27 59.7644C1624.28 60.2203 1624.4 60.6118 1624.62 60.9387C1624.86 61.2652 1625.17 61.5415 1625.56 61.7678C1625.94 61.9857 1626.38 62.1713 1626.88 62.3245C1627.38 62.4695 1627.91 62.5877 1628.47 62.6791L1630.79 63.0905C1631.91 63.2734 1632.95 63.5443 1633.9 63.9033C1634.85 64.2623 1635.68 64.7237 1636.4 65.2876C1637.11 65.8514 1637.68 66.5319 1638.1 67.3288C1638.53 68.1253 1638.78 69.0527 1638.85 70.111C1638.93 71.6665 1638.61 73.0382 1637.89 74.226C1637.18 75.405 1636.11 76.3522 1634.67 77.0676C1633.25 77.7742 1631.5 78.1885 1629.43 78.3103C1627.38 78.4312 1625.57 78.2221 1624.02 77.6831C1622.46 77.1437 1621.23 76.2828 1620.3 75.1005C1619.39 73.9095 1618.85 72.4012 1618.7 70.5756L1623.9 70.2693C1624.01 71.1178 1624.3 71.8148 1624.76 72.3602C1625.23 72.8969 1625.84 73.2885 1626.59 73.5351C1627.34 73.773 1628.18 73.8646 1629.1 73.81C1630.01 73.7564 1630.8 73.5775 1631.45 73.2734C1632.11 72.9687 1632.62 72.5697 1632.96 72.0763C1633.31 71.5829 1633.46 71.0301 1633.42 70.418C1633.39 69.8473 1633.19 69.3775 1632.83 69.0087C1632.48 68.6394 1631.97 68.3373 1631.31 68.1024C1630.65 67.8669 1629.86 67.6648 1628.92 67.4961L1626.11 66.9643C1623.94 66.5694 1622.2 65.8543 1620.89 64.819C1619.59 63.7837 1618.88 62.327 1618.78 60.4488C1618.68 58.9108 1619.01 57.5425 1619.77 56.344C1620.54 55.145 1621.63 54.1801 1623.05 53.4491C1624.47 52.7182 1626.1 52.2981 1627.95 52.1889C1629.84 52.0778 1631.51 52.3034 1632.95 52.8658C1634.4 53.4276 1635.56 54.2603 1636.41 55.3637C1637.26 56.4672 1637.75 57.7751 1637.86 59.2873L1632.71 59.5907ZM1732.76 71.8614L1723.75 72.3921L1722.26 46.9816L1731.34 46.4465C1733.89 46.296 1736.12 46.675 1738.03 47.5838C1739.93 48.4842 1741.44 49.8523 1742.54 51.6881C1743.65 53.5233 1744.29 55.7602 1744.44 58.3989C1744.6 61.0458 1744.23 63.35 1743.34 65.3115C1742.46 67.2724 1741.12 68.8164 1739.32 69.9435C1737.53 71.0701 1735.34 71.7094 1732.76 71.8614ZM1728.85 67.4724L1732.27 67.2714C1733.85 67.1778 1735.17 66.8179 1736.22 66.1916C1737.28 65.5565 1738.05 64.6273 1738.53 63.4041C1739.01 62.172 1739.19 60.6089 1739.08 58.7147C1738.97 56.837 1738.61 55.319 1737.98 54.1605C1737.36 53.0015 1736.5 52.1728 1735.38 51.6741C1734.26 51.1755 1732.91 50.973 1731.32 51.0665L1727.9 51.2683L1728.85 67.4724ZM1753.05 45.1675L1754.55 70.578L1749.17 70.8945L1747.68 45.484L1753.05 45.1675ZM1758.97 70.3175L1757.47 44.9071L1767.64 44.3076C1769.51 44.1975 1771.09 44.3827 1772.37 44.8634C1773.65 45.344 1774.64 46.0579 1775.32 47.0052C1776.01 47.9442 1776.39 49.0506 1776.46 50.3245C1776.52 51.3171 1776.37 52.2014 1776.02 52.9775C1775.67 53.7454 1775.16 54.3896 1774.49 54.9103C1773.83 55.4223 1773.07 55.8036 1772.19 56.0542L1772.21 56.3024C1773.18 56.2867 1774.1 56.5063 1774.97 56.9612C1775.86 57.4156 1776.59 58.0821 1777.17 58.9608C1777.75 59.8312 1778.08 60.8909 1778.16 62.1399C1778.24 63.4882 1777.97 64.7115 1777.36 65.8097C1776.76 66.8992 1775.83 67.7883 1774.57 68.4769C1773.31 69.1655 1771.72 69.5658 1769.82 69.6779L1758.97 70.3175ZM1764.08 65.6088L1768.46 65.3507C1769.96 65.2625 1771.03 64.9128 1771.68 64.3016C1772.34 63.6822 1772.63 62.8927 1772.58 61.9332C1772.54 61.2301 1772.33 60.6197 1771.96 60.102C1771.59 59.5843 1771.08 59.191 1770.43 58.922C1769.8 58.6525 1769.05 58.5431 1768.19 58.5938L1763.68 58.8591L1764.08 65.6088ZM1763.47 55.2237L1767.45 54.9891C1768.19 54.9457 1768.83 54.779 1769.39 54.4889C1769.95 54.1901 1770.38 53.7911 1770.69 53.2919C1771 52.7921 1771.13 52.2073 1771.09 51.5373C1771.04 50.6191 1770.67 49.898 1769.98 49.3741C1769.3 48.8496 1768.37 48.6225 1767.18 48.6926L1763.1 48.9331L1763.47 55.2237ZM1785.94 43.2296L1787.44 68.6401L1782.07 68.9566L1780.57 43.5461L1785.94 43.2296ZM1791.86 68.3797L1790.36 42.9692L1795.73 42.6527L1796.97 63.6337L1807.86 62.9919L1808.12 67.4213L1791.86 68.3797ZM1816.71 66.9155L1810.95 67.2546L1818.23 41.3273L1825.15 40.9194L1835.41 65.8138L1829.65 66.153L1822.13 46.9242L1821.93 46.9359L1816.71 66.9155ZM1815.76 56.9487L1829.36 56.1475L1829.61 60.3412L1816.01 61.1424L1815.76 56.9487ZM1838.47 65.6337L1836.97 40.2232L1847.14 39.6237C1849.01 39.5136 1850.59 39.6988 1851.87 40.1795C1853.15 40.6601 1854.14 41.374 1854.82 42.3213C1855.51 43.2603 1855.89 44.3668 1855.96 45.6406C1856.02 46.6332 1855.88 47.5175 1855.52 48.2936C1855.17 49.0615 1854.66 49.7058 1853.99 50.2264C1853.33 50.7384 1852.57 51.1197 1851.7 51.3703L1851.71 51.6185C1852.68 51.6028 1853.6 51.8224 1854.48 52.2773C1855.36 52.7317 1856.09 53.3982 1856.67 54.2769C1857.25 55.1473 1857.58 56.207 1857.66 57.456C1857.74 58.8043 1857.47 60.0276 1856.86 61.1258C1856.26 62.2153 1855.33 63.1044 1854.07 63.793C1852.81 64.4816 1851.23 64.8819 1849.32 64.994L1838.47 65.6337ZM1843.58 60.9249L1847.96 60.6668C1849.46 60.5786 1850.53 60.2289 1851.19 59.6177C1851.84 58.9983 1852.14 58.2088 1852.08 57.2493C1852.04 56.5462 1851.83 55.9358 1851.46 55.4181C1851.09 54.9005 1850.58 54.5071 1849.93 54.2381C1849.3 53.9686 1848.55 53.8592 1847.69 53.9099L1843.18 54.1752L1843.58 60.9249ZM1842.97 50.5398L1846.95 50.3052C1847.69 50.2618 1848.33 50.0951 1848.89 49.8051C1849.45 49.5063 1849.89 49.1072 1850.19 48.608C1850.5 48.1082 1850.63 47.5234 1850.59 46.8534C1850.54 45.9352 1850.17 45.2142 1849.48 44.6902C1848.81 44.1657 1847.87 43.9386 1846.68 44.0088L1842.6 44.2493L1842.97 50.5398ZM1874.28 45.3581C1874.13 44.3631 1873.65 43.6106 1872.87 43.1008C1872.08 42.5909 1871.05 42.374 1869.76 42.45C1868.88 42.5017 1868.15 42.6694 1867.56 42.9531C1866.97 43.2286 1866.52 43.5908 1866.23 44.04C1865.94 44.4886 1865.81 44.9859 1865.84 45.5318C1865.85 45.9878 1865.97 46.3792 1866.2 46.7061C1866.43 47.0326 1866.74 47.3089 1867.13 47.5352C1867.52 47.7531 1867.96 47.9387 1868.46 48.0919C1868.95 48.2369 1869.48 48.3551 1870.05 48.4465L1872.36 48.8579C1873.48 49.0408 1874.52 49.3117 1875.47 49.6707C1876.42 50.0297 1877.26 50.4911 1877.97 51.055C1878.68 51.6189 1879.25 52.2993 1879.67 53.0962C1880.1 53.8927 1880.35 54.8201 1880.42 55.8784C1880.5 57.4339 1880.19 58.8056 1879.47 59.9934C1878.76 61.1724 1877.68 62.1196 1876.25 62.835C1874.82 63.5416 1873.07 63.9559 1871 64.0777C1868.95 64.1986 1867.15 63.9895 1865.59 63.4505C1864.04 62.9111 1862.8 62.0502 1861.88 60.8679C1860.96 59.6769 1860.43 58.1686 1860.28 56.343L1865.48 56.0367C1865.58 56.8852 1865.87 57.5822 1866.33 58.1276C1866.81 58.6643 1867.41 59.0559 1868.16 59.3025C1868.91 59.5404 1869.75 59.632 1870.68 59.5774C1871.59 59.5238 1872.37 59.3449 1873.02 59.0408C1873.69 58.7361 1874.19 58.3371 1874.53 57.8437C1874.88 57.3503 1875.03 56.7975 1875 56.1854C1874.96 55.6147 1874.77 55.1449 1874.4 54.7761C1874.05 54.4068 1873.54 54.1047 1872.88 53.8698C1872.23 53.6343 1871.43 53.4322 1870.49 53.2635L1867.68 52.7317C1865.51 52.3368 1863.77 51.6217 1862.47 50.5864C1861.16 49.5511 1860.46 48.0944 1860.35 46.2162C1860.25 44.6782 1860.58 43.3099 1861.34 42.1114C1862.11 40.9124 1863.2 39.9475 1864.62 39.2165C1866.04 38.4856 1867.67 38.0655 1869.53 37.9563C1871.41 37.8452 1873.08 38.0708 1874.52 38.6332C1875.98 39.195 1877.13 40.0277 1877.98 41.1311C1878.84 42.2346 1879.32 43.5425 1879.43 45.0547L1874.28 45.3581Z" fill="white"/>
<path d="M472.11 112.981C471.429 111.125 468.755 111.277 468.289 113.199L465.302 125.513L454.124 130.228L454.512 131.149L454.124 130.228C452.391 130.958 452.533 133.46 454.338 133.99L454.619 133.03L454.338 133.99L465.979 137.406L470.342 149.302C471.023 151.159 473.698 151.007 474.164 149.085L477.15 136.77L488.329 132.056C490.062 131.325 489.92 128.824 488.115 128.294L476.474 124.878L472.11 112.981Z" fill="white" stroke="white" stroke-width="2"/>
<path d="M716.686 98.5723C716.005 96.7159 713.331 96.868 712.865 98.7896L709.878 111.104L698.7 115.818L699.088 116.74L698.7 115.818C696.967 116.549 697.109 119.051 698.914 119.58L699.195 118.621L698.914 119.58L710.555 122.997L714.918 134.893C715.599 136.75 718.274 136.597 718.74 134.676L721.726 122.361L732.905 117.647C734.638 116.916 734.496 114.415 732.691 113.885L721.05 110.469L716.686 98.5723Z" fill="white" stroke="white" stroke-width="2"/>
<path d="M958.267 84.3389C957.586 82.4825 954.912 82.6346 954.446 84.5562L951.459 96.8708L940.281 101.585L940.669 102.506L940.281 101.585C938.548 102.316 938.69 104.817 940.495 105.347L940.776 104.387L940.495 105.347L952.136 108.763L956.499 120.66C957.18 122.516 959.855 122.364 960.321 120.442L963.307 108.128L974.486 103.414C976.219 102.683 976.077 100.181 974.272 99.6517L962.631 96.2354L958.267 84.3389Z" fill="white" stroke="white" stroke-width="2"/>
<path d="M1199.85 70.1065C1199.17 68.2501 1196.49 68.4022 1196.03 70.3238L1193.04 82.6384L1181.86 87.3526L1182.25 88.274L1181.86 87.3526C1180.13 88.0834 1180.27 90.5849 1182.08 91.1145L1182.36 90.155L1182.08 91.1145L1193.72 94.5308L1198.08 106.427C1198.76 108.284 1201.44 108.132 1201.9 106.21L1204.89 93.8954L1216.07 89.1812C1217.8 88.4503 1217.66 85.9489 1215.85 85.4193L1204.21 82.003L1199.85 70.1065Z" fill="white" stroke="white" stroke-width="2"/>
<path d="M1441.43 55.8731C1440.75 54.0167 1438.07 54.1688 1437.61 56.0904L1434.62 68.405L1423.44 73.1192L1423.83 74.0407L1423.44 73.1192C1421.71 73.85 1421.85 76.3515 1423.66 76.8811L1423.94 75.9216L1423.66 76.8811L1435.3 80.2974L1439.66 92.1939C1440.34 94.0503 1443.02 93.8982 1443.48 91.9766L1446.47 79.662L1457.65 74.9478C1459.38 74.217 1459.24 71.7155 1457.43 71.1859L1445.79 67.7696L1441.43 55.8731Z" fill="white" stroke="white" stroke-width="2"/>
<path d="M231.527 127.156C230.847 125.3 228.172 125.452 227.706 127.374L224.72 139.688L213.541 144.402L213.929 145.324L213.541 144.402C211.808 145.133 211.95 147.635 213.755 148.164L214.036 147.205L213.755 148.164L225.396 151.581L229.76 163.477C230.441 165.333 233.115 165.181 233.581 163.26L236.567 150.945L247.746 146.231C249.479 145.5 249.337 142.999 247.532 142.469L235.891 139.053L231.527 127.156Z" fill="white" stroke="white" stroke-width="2"/>
<path d="M-11.0519 141.448C-11.7328 139.592 -14.4072 139.744 -14.8732 141.666L-17.8597 153.98L-29.0385 158.694L-28.6499 159.616L-29.0385 158.694C-30.7714 159.425 -30.6291 161.927 -28.8245 162.456L-28.5429 161.497L-28.8245 162.456L-17.1833 165.873L-12.8197 177.769C-12.1388 179.625 -9.46439 179.473 -8.99837 177.552L-6.01187 165.237L5.16688 160.523C6.89985 159.792 6.75757 157.291 4.95291 156.761L-6.68829 153.345L-11.0519 141.448Z" fill="white" stroke="white" stroke-width="2"/>
</svg>
