<svg width="1440" height="219" viewBox="0 0 1440 219" fill="none" xmlns="http://www.w3.org/2000/svg">
<rect x="-138.429" y="112.512" width="1668" height="92" transform="rotate(-3.37176 -138.429 112.512)" fill="#231F20"/>
<path d="M-339.39 182.452L-348.398 182.982L-349.895 157.572L-340.812 157.037C-338.256 156.886 -336.026 157.265 -334.122 158.174C-332.218 159.075 -330.714 160.443 -329.609 162.278C-328.497 164.114 -327.863 166.351 -327.707 168.989C-327.552 171.636 -327.918 173.94 -328.807 175.902C-329.687 177.863 -331.028 179.407 -332.829 180.534C-334.622 181.66 -336.809 182.3 -339.39 182.452ZM-343.296 178.063L-339.884 177.862C-338.296 177.768 -336.977 177.408 -335.926 176.782C-334.868 176.147 -334.101 175.218 -333.625 173.994C-333.142 172.762 -332.956 171.199 -333.067 169.305C-333.178 167.427 -333.546 165.909 -334.17 164.751C-334.786 163.592 -335.652 162.763 -336.769 162.264C-337.886 161.766 -339.238 161.563 -340.827 161.657L-344.251 161.859L-343.296 178.063ZM-319.102 155.758L-317.605 181.168L-322.978 181.485L-324.475 156.074L-319.102 155.758ZM-313.185 180.908L-314.682 155.497L-304.508 154.898C-302.639 154.788 -301.063 154.973 -299.782 155.454C-298.5 155.934 -297.516 156.648 -296.829 157.595C-296.143 158.534 -295.762 159.641 -295.687 160.915C-295.629 161.907 -295.776 162.792 -296.129 163.568C-296.482 164.336 -296.992 164.98 -297.658 165.501C-298.317 166.013 -299.083 166.394 -299.956 166.644L-299.942 166.893C-298.972 166.877 -298.05 167.097 -297.176 167.551C-296.295 168.006 -295.562 168.672 -294.979 169.551C-294.397 170.421 -294.069 171.481 -293.995 172.73C-293.916 174.078 -294.18 175.302 -294.787 176.4C-295.387 177.489 -296.318 178.379 -297.581 179.067C-298.844 179.756 -300.426 180.156 -302.329 180.268L-313.185 180.908ZM-308.072 176.199L-303.692 175.941C-302.195 175.853 -301.119 175.503 -300.467 174.892C-299.814 174.272 -299.516 173.483 -299.573 172.523C-299.614 171.82 -299.82 171.21 -300.191 170.692C-300.562 170.175 -301.071 169.781 -301.717 169.512C-302.356 169.243 -303.105 169.133 -303.965 169.184L-308.469 169.449L-308.072 176.199ZM-308.683 165.814L-304.701 165.579C-303.964 165.536 -303.318 165.369 -302.763 165.079C-302.199 164.78 -301.766 164.381 -301.464 163.882C-301.153 163.382 -301.017 162.798 -301.057 162.128C-301.111 161.209 -301.481 160.488 -302.168 159.964C-302.846 159.44 -303.781 159.213 -304.972 159.283L-309.054 159.523L-308.683 165.814ZM-286.21 153.82L-284.713 179.23L-290.086 179.547L-291.583 154.136L-286.21 153.82ZM-280.293 178.97L-281.79 153.559L-276.418 153.243L-275.182 174.224L-264.288 173.582L-264.027 178.012L-280.293 178.97ZM-255.441 177.506L-261.198 177.845L-253.923 151.918L-247 151.51L-236.743 176.404L-242.5 176.743L-250.02 157.515L-250.218 157.526L-255.441 177.506ZM-256.389 167.539L-242.791 166.738L-242.543 170.931L-256.142 171.733L-256.389 167.539ZM-233.684 176.224L-235.181 150.813L-225.007 150.214C-223.138 150.104 -221.562 150.289 -220.281 150.77C-218.999 151.25 -218.015 151.964 -217.328 152.912C-216.642 153.851 -216.262 154.957 -216.186 156.231C-216.128 157.223 -216.275 158.108 -216.628 158.884C-216.981 159.652 -217.491 160.296 -218.157 160.817C-218.816 161.329 -219.582 161.71 -220.456 161.961L-220.441 162.209C-219.471 162.193 -218.549 162.413 -217.675 162.868C-216.794 163.322 -216.061 163.988 -215.478 164.867C-214.896 165.738 -214.568 166.797 -214.494 168.046C-214.415 169.395 -214.679 170.618 -215.287 171.716C-215.886 172.806 -216.818 173.695 -218.08 174.383C-219.343 175.072 -220.925 175.472 -222.828 175.584L-233.684 176.224ZM-228.571 171.515L-224.191 171.257C-222.694 171.169 -221.619 170.819 -220.966 170.208C-220.313 169.589 -220.015 168.799 -220.072 167.84C-220.113 167.136 -220.319 166.526 -220.69 166.008C-221.061 165.491 -221.57 165.097 -222.216 164.828C-222.855 164.559 -223.604 164.449 -224.464 164.5L-228.968 164.765L-228.571 171.515ZM-229.183 161.13L-225.2 160.895C-224.464 160.852 -223.818 160.685 -223.262 160.395C-222.699 160.097 -222.266 159.697 -221.963 159.198C-221.652 158.699 -221.516 158.114 -221.556 157.444C-221.61 156.525 -221.98 155.804 -222.667 155.28C-223.345 154.756 -224.28 154.529 -225.471 154.599L-229.553 154.84L-229.183 161.13ZM-197.867 155.948C-198.025 154.953 -198.497 154.201 -199.282 153.691C-200.067 153.181 -201.105 152.964 -202.396 153.04C-203.272 153.092 -204.005 153.26 -204.595 153.543C-205.184 153.819 -205.628 154.181 -205.925 154.63C-206.214 155.079 -206.342 155.576 -206.31 156.122C-206.3 156.578 -206.181 156.969 -205.955 157.296C-205.72 157.623 -205.409 157.899 -205.022 158.125C-204.636 158.343 -204.193 158.529 -203.694 158.682C-203.196 158.827 -202.666 158.945 -202.105 159.037L-199.789 159.448C-198.666 159.631 -197.63 159.902 -196.679 160.261C-195.728 160.62 -194.896 161.081 -194.182 161.645C-193.468 162.209 -192.901 162.89 -192.48 163.686C-192.052 164.483 -191.802 165.41 -191.731 166.469C-191.648 168.024 -191.965 169.396 -192.684 170.584C-193.395 171.763 -194.468 172.71 -195.903 173.425C-197.331 174.132 -199.078 174.546 -201.146 174.668C-203.198 174.789 -205.003 174.58 -206.562 174.041C-208.113 173.501 -209.35 172.64 -210.275 171.458C-211.192 170.267 -211.725 168.759 -211.874 166.933L-206.675 166.627C-206.567 167.476 -206.281 168.172 -205.817 168.718C-205.346 169.255 -204.737 169.646 -203.992 169.893C-203.24 170.131 -202.4 170.222 -201.474 170.168C-200.564 170.114 -199.782 169.935 -199.127 169.631C-198.465 169.326 -197.961 168.927 -197.617 168.434C-197.272 167.941 -197.118 167.388 -197.154 166.776C-197.188 166.205 -197.385 165.735 -197.747 165.366C-198.101 164.997 -198.609 164.695 -199.27 164.46C-199.923 164.225 -200.719 164.023 -201.659 163.854L-204.467 163.322C-206.64 162.927 -208.379 162.212 -209.685 161.177C-210.991 160.141 -211.696 158.685 -211.798 156.806C-211.897 155.268 -211.567 153.9 -210.807 152.702C-210.04 151.503 -208.947 150.538 -207.529 149.807C-206.111 149.076 -204.476 148.656 -202.623 148.547C-200.737 148.435 -199.072 148.661 -197.628 149.223C-196.175 149.785 -195.022 150.618 -194.169 151.721C-193.315 152.825 -192.831 154.133 -192.717 155.645L-197.867 155.948ZM-97.8164 168.219L-106.824 168.75L-108.321 143.339L-99.2391 142.804C-96.6831 142.654 -94.4529 143.033 -92.5484 143.941C-90.6444 144.842 -89.1402 146.21 -88.0361 148.046C-86.9236 149.881 -86.2896 152.118 -86.1342 154.757C-85.9782 157.403 -86.3446 159.708 -87.2334 161.669C-88.1139 163.63 -89.4548 165.174 -91.2559 166.301C-93.0488 167.428 -95.2357 168.067 -97.8164 168.219ZM-101.723 163.83L-98.311 163.629C-96.7228 163.536 -95.4035 163.176 -94.3531 162.549C-93.2948 161.914 -92.5278 160.985 -92.0521 159.762C-91.5686 158.53 -91.3826 156.967 -91.4942 155.072C-91.6048 153.195 -91.9723 151.677 -92.5967 150.518C-93.2128 149.359 -94.0792 148.53 -95.1959 148.032C-96.3127 147.533 -97.6651 147.331 -99.2532 147.424L-102.678 147.626L-101.723 163.83ZM-77.5291 141.525L-76.032 166.936L-81.4045 167.252L-82.9016 141.842L-77.5291 141.525ZM-71.6119 166.675L-73.109 141.265L-62.9348 140.665C-61.0655 140.555 -59.4899 140.74 -58.2083 141.221C-56.9266 141.702 -55.9424 142.416 -55.2558 143.363C-54.5696 144.302 -54.189 145.408 -54.114 146.682C-54.0555 147.675 -54.2026 148.559 -54.5553 149.335C-54.9085 150.103 -55.4184 150.747 -56.0849 151.268C-56.7437 151.78 -57.5097 152.161 -58.3831 152.412L-58.3685 152.66C-57.3983 152.644 -56.4764 152.864 -55.603 153.319C-54.7213 153.773 -53.989 154.44 -53.406 155.318C-52.8235 156.189 -52.4954 157.249 -52.4218 158.498C-52.3424 159.846 -52.6065 161.069 -53.2141 162.167C-53.8139 163.257 -54.7452 164.146 -56.0077 164.835C-57.2703 165.523 -58.8529 165.924 -60.7553 166.036L-71.6119 166.675ZM-66.4982 161.966L-62.1184 161.708C-60.6212 161.62 -59.5462 161.27 -58.8932 160.659C-58.2408 160.04 -57.9429 159.25 -57.9994 158.291C-58.0408 157.588 -58.2469 156.977 -58.6178 156.46C-58.9886 155.942 -59.4973 155.549 -60.144 155.28C-60.7824 155.01 -61.5317 154.901 -62.392 154.951L-66.8959 155.217L-66.4982 161.966ZM-67.1101 151.581L-63.1273 151.347C-62.3911 151.303 -61.7452 151.137 -61.1895 150.847C-60.6261 150.548 -60.1931 150.149 -59.8905 149.65C-59.5796 149.15 -59.4439 148.565 -59.4834 147.895C-59.5375 146.977 -59.9079 146.256 -60.5945 145.732C-61.2728 145.207 -62.2075 144.98 -63.3986 145.05L-67.4807 145.291L-67.1101 151.581ZM-44.6369 139.587L-43.1398 164.998L-48.5123 165.314L-50.0094 139.904L-44.6369 139.587ZM-38.7197 164.737L-40.2168 139.327L-34.8443 139.01L-33.6082 159.991L-22.7145 159.35L-22.4535 163.779L-38.7197 164.737ZM-13.8675 163.273L-19.6246 163.612L-12.3496 137.685L-5.42625 137.277L4.83051 162.172L-0.926558 162.511L-8.44657 143.282L-8.64509 143.294L-13.8675 163.273ZM-14.8158 153.306L-1.21723 152.505L-0.970156 156.699L-14.5687 157.5L-14.8158 153.306ZM7.88894 161.991L6.39185 136.581L16.566 135.981C18.4354 135.871 20.0109 136.057 21.2926 136.537C22.5742 137.018 23.5584 137.732 24.245 138.679C24.9312 139.618 25.3118 140.724 25.3868 141.998C25.4453 142.991 25.2982 143.875 24.9455 144.651C24.5923 145.419 24.0825 146.063 23.4159 146.584C22.7571 147.096 21.9911 147.477 21.1177 147.728L21.1323 147.976C22.1025 147.96 23.0244 148.18 23.8978 148.635C24.7795 149.089 25.5119 149.756 26.0948 150.635C26.6774 151.505 27.0054 152.565 27.079 153.814C27.1584 155.162 26.8943 156.385 26.2867 157.483C25.6869 158.573 24.7557 159.462 23.4931 160.151C22.2305 160.839 20.648 161.24 18.7455 161.352L7.88894 161.991ZM13.0026 157.283L17.3824 157.025C18.8796 156.936 19.9546 156.587 20.6076 155.975C21.26 155.356 21.558 154.566 21.5014 153.607C21.46 152.904 21.2539 152.293 20.8831 151.776C20.5122 151.258 20.0035 150.865 19.3568 150.596C18.7184 150.326 17.9691 150.217 17.1088 150.268L12.6049 150.533L13.0026 157.283ZM12.3908 146.898L16.3735 146.663C17.1097 146.619 17.7556 146.453 18.3113 146.163C18.8747 145.864 19.3077 145.465 19.6103 144.966C19.9212 144.466 20.0569 143.881 20.0174 143.211C19.9633 142.293 19.593 141.572 18.9064 141.048C18.228 140.523 17.2933 140.296 16.1022 140.366L12.0201 140.607L12.3908 146.898ZM43.7067 141.716C43.5485 140.721 43.0767 139.968 42.2913 139.458C41.5059 138.949 40.4681 138.732 39.1777 138.808C38.3009 138.859 37.5679 139.027 36.9787 139.311C36.389 139.586 35.9455 139.949 35.6482 140.398C35.3593 140.846 35.2309 141.344 35.263 141.89C35.2733 142.345 35.3918 142.737 35.6186 143.064C35.8536 143.39 36.1646 143.667 36.5514 143.893C36.9378 144.111 37.3803 144.296 37.8791 144.45C38.3773 144.595 38.9072 144.713 39.4687 144.804L41.7839 145.216C42.9069 145.398 43.9438 145.669 44.8946 146.028C45.8454 146.387 46.6777 146.849 47.3915 147.413C48.1054 147.977 48.6725 148.657 49.093 149.454C49.5218 150.25 49.7714 151.178 49.8421 152.236C49.9254 153.792 49.6078 155.163 48.8893 156.351C48.1785 157.53 47.1055 158.477 45.6702 159.193C44.2426 159.899 42.4949 160.314 40.427 160.435C38.3756 160.556 36.5704 160.347 35.0114 159.808C33.4607 159.269 32.223 158.408 31.2984 157.226C30.3816 156.035 29.8487 154.526 29.6996 152.701L34.8983 152.394C35.0064 153.243 35.2924 153.94 35.7561 154.485C36.2276 155.022 36.8359 155.414 37.5809 155.66C38.3336 155.898 39.1732 155.99 40.0996 155.935C41.0095 155.882 41.7916 155.703 42.446 155.398C43.1087 155.094 43.6123 154.695 43.9567 154.201C44.3012 153.708 44.4554 153.155 44.4193 152.543C44.3857 151.972 44.1878 151.503 43.8258 151.134C43.472 150.765 42.9645 150.462 42.3032 150.227C41.6502 149.992 40.854 149.79 39.9144 149.621L37.1066 149.089C34.9335 148.694 33.194 147.979 31.8879 146.944C30.5819 145.909 29.8777 144.452 29.7753 142.574C29.6764 141.036 30.0066 139.668 30.7661 138.469C31.5338 137.27 32.6265 136.305 34.0443 135.574C35.4621 134.843 37.0974 134.423 38.9503 134.314C40.8362 134.203 42.5013 134.429 43.9455 134.991C45.3979 135.553 46.5509 136.385 47.4045 137.489C48.258 138.592 48.7418 139.9 48.8558 141.412L43.7067 141.716ZM143.757 153.986L134.749 154.517L133.252 129.107L142.334 128.572C144.89 128.421 147.12 128.8 149.025 129.709C150.929 130.609 152.433 131.977 153.537 133.813C154.65 135.648 155.284 137.885 155.439 140.524C155.595 143.171 155.229 145.475 154.34 147.437C153.459 149.397 152.119 150.941 150.317 152.069C148.524 153.195 146.338 153.834 143.757 153.986ZM139.85 149.598L143.262 149.396C144.85 149.303 146.17 148.943 147.22 148.317C148.278 147.682 149.045 146.752 149.521 145.529C150.005 144.297 150.191 142.734 150.079 140.84C149.968 138.962 149.601 137.444 148.977 136.286C148.36 135.127 147.494 134.298 146.377 133.799C145.261 133.301 143.908 133.098 142.32 133.192L138.896 133.393L139.85 149.598ZM164.044 127.293L165.541 152.703L160.169 153.02L158.672 127.609L164.044 127.293ZM169.961 152.443L168.464 127.032L178.638 126.433C180.508 126.323 182.083 126.508 183.365 126.988C184.647 127.469 185.631 128.183 186.317 129.13C187.004 130.069 187.384 131.176 187.459 132.45C187.518 133.442 187.371 134.327 187.018 135.103C186.665 135.87 186.155 136.515 185.488 137.035C184.83 137.547 184.064 137.929 183.19 138.179L183.205 138.427C184.175 138.412 185.097 138.631 185.97 139.086C186.852 139.541 187.584 140.207 188.167 141.086C188.75 141.956 189.078 143.016 189.151 144.265C189.231 145.613 188.967 146.837 188.359 147.935C187.759 149.024 186.828 149.913 185.566 150.602C184.303 151.291 182.72 151.691 180.818 151.803L169.961 152.443ZM175.075 147.734L179.455 147.476C180.952 147.388 182.027 147.038 182.68 146.427C183.332 145.807 183.63 145.018 183.574 144.058C183.532 143.355 183.326 142.745 182.956 142.227C182.585 141.709 182.076 141.316 181.429 141.047C180.791 140.778 180.042 140.668 179.181 140.719L174.677 140.984L175.075 147.734ZM174.463 137.349L178.446 137.114C179.182 137.071 179.828 136.904 180.384 136.614C180.947 136.315 181.38 135.916 181.683 135.417C181.994 134.917 182.129 134.332 182.09 133.662C182.036 132.744 181.665 132.023 180.979 131.499C180.301 130.975 179.366 130.748 178.175 130.818L174.093 131.058L174.463 137.349ZM196.936 125.355L198.433 150.765L193.061 151.082L191.564 125.671L196.936 125.355ZM202.854 150.505L201.357 125.094L206.729 124.778L207.965 145.759L218.859 145.117L219.12 149.546L202.854 150.505ZM227.706 149.041L221.949 149.38L229.224 123.452L236.147 123.045L246.404 147.939L240.647 148.278L233.127 129.049L232.928 129.061L227.706 149.041ZM226.757 139.074L240.356 138.273L240.603 142.466L227.005 143.267L226.757 139.074ZM249.462 147.759L247.965 122.348L258.139 121.749C260.009 121.639 261.584 121.824 262.866 122.305C264.148 122.785 265.132 123.499 265.818 124.446C266.504 125.385 266.885 126.492 266.96 127.766C267.019 128.758 266.871 129.643 266.519 130.419C266.166 131.187 265.656 131.831 264.989 132.352C264.33 132.863 263.564 133.245 262.691 133.495L262.706 133.744C263.676 133.728 264.598 133.948 265.471 134.402C266.353 134.857 267.085 135.523 267.668 136.402C268.251 137.272 268.579 138.332 268.652 139.581C268.732 140.929 268.468 142.153 267.86 143.251C267.26 144.34 266.329 145.229 265.066 145.918C263.804 146.607 262.221 147.007 260.319 147.119L249.462 147.759ZM254.576 143.05L258.956 142.792C260.453 142.704 261.528 142.354 262.181 141.743C262.833 141.123 263.131 140.334 263.075 139.374C263.033 138.671 262.827 138.061 262.456 137.543C262.086 137.026 261.577 136.632 260.93 136.363C260.292 136.094 259.542 135.984 258.682 136.035L254.178 136.3L254.576 143.05ZM253.964 132.665L257.947 132.43C258.683 132.387 259.329 132.22 259.885 131.93C260.448 131.631 260.881 131.232 261.184 130.733C261.494 130.233 261.63 129.648 261.591 128.978C261.537 128.06 261.166 127.339 260.48 126.815C259.801 126.291 258.867 126.064 257.675 126.134L253.593 126.374L253.964 132.665ZM285.28 127.483C285.122 126.488 284.65 125.736 283.865 125.226C283.079 124.716 282.041 124.499 280.751 124.575C279.874 124.627 279.141 124.794 278.552 125.078C277.962 125.354 277.519 125.716 277.222 126.165C276.933 126.614 276.804 127.111 276.836 127.657C276.847 128.113 276.965 128.504 277.192 128.831C277.427 129.158 277.738 129.434 278.125 129.66C278.511 129.878 278.954 130.064 279.452 130.217C279.951 130.362 280.48 130.48 281.042 130.572L283.357 130.983C284.48 131.166 285.517 131.437 286.468 131.796C287.419 132.155 288.251 132.616 288.965 133.18C289.679 133.744 290.246 134.424 290.666 135.221C291.095 136.018 291.345 136.945 291.415 138.003C291.499 139.559 291.181 140.931 290.463 142.118C289.752 143.297 288.679 144.245 287.243 144.96C285.816 145.667 284.068 146.081 282 146.203C279.949 146.324 278.144 146.115 276.585 145.576C275.034 145.036 273.796 144.175 272.872 142.993C271.955 141.802 271.422 140.294 271.273 138.468L276.472 138.162C276.58 139.01 276.866 139.707 277.329 140.253C277.801 140.789 278.409 141.181 279.154 141.428C279.907 141.665 280.746 141.757 281.673 141.703C282.583 141.649 283.365 141.47 284.019 141.166C284.682 140.861 285.186 140.462 285.53 139.969C285.874 139.475 286.029 138.923 285.993 138.31C285.959 137.74 285.761 137.27 285.399 136.901C285.045 136.532 284.538 136.23 283.877 135.995C283.224 135.759 282.427 135.557 281.488 135.389L278.68 134.857C276.507 134.462 274.767 133.747 273.461 132.711C272.155 131.676 271.451 130.219 271.349 128.341C271.25 126.803 271.58 125.435 272.339 124.236C273.107 123.038 274.2 122.073 275.618 121.342C277.035 120.611 278.671 120.191 280.524 120.081C282.41 119.97 284.075 120.196 285.519 120.758C286.971 121.32 288.124 122.153 288.978 123.256C289.831 124.36 290.315 125.668 290.429 127.18L285.28 127.483ZM385.33 139.754L376.322 140.285L374.825 114.874L383.908 114.339C386.463 114.188 388.694 114.568 390.598 115.476C392.502 116.377 394.006 117.745 395.111 119.581C396.223 121.416 396.857 123.653 397.012 126.291C397.168 128.938 396.802 131.242 395.913 133.204C395.033 135.165 393.692 136.709 391.891 137.836C390.098 138.963 387.911 139.602 385.33 139.754ZM381.424 135.365L384.836 135.164C386.424 135.07 387.743 134.71 388.794 134.084C389.852 133.449 390.619 132.52 391.094 131.297C391.578 130.064 391.764 128.501 391.652 126.607C391.542 124.73 391.174 123.211 390.55 122.053C389.934 120.894 389.067 120.065 387.951 119.567C386.834 119.068 385.481 118.865 383.893 118.959L380.469 119.161L381.424 135.365ZM405.617 113.06L407.115 138.47L401.742 138.787L400.245 113.376L405.617 113.06ZM411.535 138.21L410.038 112.8L420.212 112.2C422.081 112.09 423.657 112.275 424.938 112.756C426.22 113.236 427.204 113.95 427.891 114.898C428.577 115.837 428.958 116.943 429.033 118.217C429.091 119.21 428.944 120.094 428.591 120.87C428.238 121.638 427.728 122.282 427.062 122.803C426.403 123.315 425.637 123.696 424.763 123.947L424.778 124.195C425.748 124.179 426.67 124.399 427.544 124.854C428.425 125.308 429.158 125.975 429.741 126.853C430.323 127.724 430.651 128.783 430.725 130.032C430.804 131.381 430.54 132.604 429.932 133.702C429.333 134.792 428.401 135.681 427.139 136.369C425.876 137.058 424.294 137.458 422.391 137.57L411.535 138.21ZM416.648 133.501L421.028 133.243C422.525 133.155 423.6 132.805 424.253 132.194C424.906 131.575 425.204 130.785 425.147 129.826C425.106 129.123 424.9 128.512 424.529 127.995C424.158 127.477 423.649 127.083 423.003 126.814C422.364 126.545 421.615 126.436 420.755 126.486L416.251 126.752L416.648 133.501ZM416.037 123.116L420.019 122.882C420.755 122.838 421.401 122.671 421.957 122.381C422.52 122.083 422.953 121.684 423.256 121.184C423.567 120.685 423.703 120.1 423.663 119.43C423.609 118.512 423.239 117.791 422.552 117.267C421.874 116.742 420.939 116.515 419.748 116.585L415.666 116.826L416.037 123.116ZM438.51 111.122L440.007 136.533L434.634 136.849L433.137 111.439L438.51 111.122ZM444.427 136.272L442.93 110.862L448.302 110.545L449.538 131.526L460.432 130.884L460.693 135.314L444.427 136.272ZM469.279 134.808L463.522 135.147L470.797 109.22L477.72 108.812L487.977 133.706L482.22 134.046L474.7 114.817L474.501 114.828L469.279 134.808ZM468.331 124.841L481.929 124.04L482.176 128.234L468.578 129.035L468.331 124.841ZM491.036 133.526L489.538 108.116L499.713 107.516C501.582 107.406 503.157 107.591 504.439 108.072C505.721 108.553 506.705 109.266 507.392 110.214C508.078 111.153 508.458 112.259 508.533 113.533C508.592 114.526 508.445 115.41 508.092 116.186C507.739 116.954 507.229 117.598 506.562 118.119C505.904 118.631 505.138 119.012 504.264 119.263L504.279 119.511C505.249 119.495 506.171 119.715 507.044 120.17C507.926 120.624 508.658 121.291 509.241 122.169C509.824 123.04 510.152 124.1 510.226 125.349C510.305 126.697 510.041 127.92 509.433 129.018C508.833 130.108 507.902 130.997 506.64 131.685C505.377 132.374 503.795 132.774 501.892 132.887L491.036 133.526ZM496.149 128.817L500.529 128.559C502.026 128.471 503.101 128.121 503.754 127.51C504.407 126.891 504.705 126.101 504.648 125.142C504.607 124.439 504.4 123.828 504.03 123.311C503.659 122.793 503.15 122.4 502.503 122.131C501.865 121.861 501.116 121.752 500.255 121.802L495.752 122.068L496.149 128.817ZM495.537 118.432L499.52 118.198C500.256 118.154 500.902 117.988 501.458 117.698C502.021 117.399 502.454 117 502.757 116.5C503.068 116.001 503.203 115.416 503.164 114.746C503.11 113.828 502.74 113.107 502.053 112.583C501.375 112.058 500.44 111.831 499.249 111.901L495.167 112.142L495.537 118.432ZM526.853 113.251C526.695 112.256 526.223 111.503 525.438 110.993C524.653 110.483 523.615 110.266 522.324 110.343C521.447 110.394 520.714 110.562 520.125 110.846C519.536 111.121 519.092 111.483 518.795 111.932C518.506 112.381 518.377 112.878 518.41 113.424C518.42 113.88 518.538 114.272 518.765 114.599C519 114.925 519.311 115.201 519.698 115.428C520.084 115.646 520.527 115.831 521.026 115.984C521.524 116.129 522.054 116.248 522.615 116.339L524.93 116.75C526.053 116.933 527.09 117.204 528.041 117.563C528.992 117.922 529.824 118.384 530.538 118.947C531.252 119.511 531.819 120.192 532.24 120.989C532.668 121.785 532.918 122.713 532.989 123.771C533.072 125.326 532.754 126.698 532.036 127.886C531.325 129.065 530.252 130.012 528.817 130.727C527.389 131.434 525.641 131.848 523.574 131.97C521.522 132.091 519.717 131.882 518.158 131.343C516.607 130.804 515.37 129.943 514.445 128.76C513.528 127.569 512.995 126.061 512.846 124.235L518.045 123.929C518.153 124.778 518.439 125.475 518.903 126.02C519.374 126.557 519.982 126.948 520.727 127.195C521.48 127.433 522.32 127.525 523.246 127.47C524.156 127.416 524.938 127.237 525.593 126.933C526.255 126.629 526.759 126.23 527.103 125.736C527.448 125.243 527.602 124.69 527.566 124.078C527.532 123.507 527.334 123.037 526.972 122.669C526.619 122.299 526.111 121.997 525.45 121.762C524.797 121.527 524.001 121.325 523.061 121.156L520.253 120.624C518.08 120.229 516.341 119.514 515.034 118.479C513.728 117.444 513.024 115.987 512.922 114.109C512.823 112.571 513.153 111.202 513.913 110.004C514.68 108.805 515.773 107.84 517.191 107.109C518.609 106.378 520.244 105.958 522.097 105.849C523.983 105.738 525.648 105.963 527.092 106.526C528.545 107.088 529.698 107.92 530.551 109.024C531.405 110.127 531.888 111.435 532.002 112.947L526.853 113.251ZM626.903 125.521L617.896 126.052L616.399 100.642L625.481 100.106C628.037 99.9558 630.267 100.335 632.171 101.244C634.076 102.144 635.58 103.512 636.684 105.348C637.796 107.183 638.43 109.42 638.586 112.059C638.742 114.706 638.375 117.01 637.486 118.971C636.606 120.932 635.265 122.476 633.464 123.603C631.671 124.73 629.484 125.369 626.903 125.521ZM622.997 121.132L626.409 120.931C627.997 120.838 629.316 120.478 630.367 119.851C631.425 119.216 632.192 118.287 632.668 117.064C633.151 115.832 633.337 114.269 633.226 112.375C633.115 110.497 632.748 108.979 632.123 107.82C631.507 106.661 630.641 105.833 629.524 105.334C628.407 104.835 627.055 104.633 625.467 104.726L622.042 104.928L622.997 121.132ZM647.191 98.8274L648.688 124.238L643.315 124.554L641.818 99.1439L647.191 98.8274ZM653.108 123.977L651.611 98.5669L661.785 97.9675C663.654 97.8574 665.23 98.0426 666.512 98.5232C667.793 99.0038 668.777 99.7178 669.464 100.665C670.15 101.604 670.531 102.711 670.606 103.984C670.664 104.977 670.517 105.861 670.165 106.637C669.811 107.405 669.302 108.05 668.635 108.57C667.976 109.082 667.21 109.463 666.337 109.714L666.351 109.962C667.322 109.947 668.243 110.166 669.117 110.621C669.999 111.075 670.731 111.742 671.314 112.621C671.896 113.491 672.224 114.551 672.298 115.8C672.377 117.148 672.113 118.371 671.506 119.47C670.906 120.559 669.975 121.448 668.712 122.137C667.45 122.825 665.867 123.226 663.965 123.338L653.108 123.977ZM658.222 119.269L662.601 119.011C664.099 118.922 665.174 118.573 665.827 117.962C666.479 117.342 666.777 116.553 666.72 115.593C666.679 114.89 666.473 114.28 666.102 113.762C665.731 113.244 665.223 112.851 664.576 112.582C663.937 112.312 663.188 112.203 662.328 112.254L657.824 112.519L658.222 119.269ZM657.61 108.884L661.593 108.649C662.329 108.606 662.975 108.439 663.53 108.149C664.094 107.85 664.527 107.451 664.829 106.952C665.14 106.452 665.276 105.867 665.236 105.197C665.182 104.279 664.812 103.558 664.125 103.034C663.447 102.509 662.512 102.282 661.321 102.353L657.239 102.593L657.61 108.884ZM680.083 96.8895L681.58 122.3L676.208 122.616L674.711 97.206L680.083 96.8895ZM686 122.04L684.503 96.6291L689.876 96.3125L691.112 117.294L702.005 116.652L702.266 121.081L686 122.04ZM710.852 120.575L705.095 120.915L712.37 94.9872L719.294 94.5793L729.55 119.474L723.793 119.813L716.273 100.584L716.075 100.596L710.852 120.575ZM709.904 110.609L723.503 109.807L723.75 114.001L710.151 114.802L709.904 110.609ZM732.609 119.294L731.112 93.883L741.286 93.2836C743.155 93.1735 744.731 93.3587 746.012 93.8393C747.294 94.32 748.278 95.0339 748.965 95.9812C749.651 96.9202 750.032 98.0266 750.107 99.3005C750.165 100.293 750.018 101.177 749.665 101.954C749.312 102.721 748.802 103.366 748.136 103.886C747.477 104.398 746.711 104.78 745.838 105.03L745.852 105.278C746.822 105.263 747.744 105.482 748.618 105.937C749.499 106.392 750.232 107.058 750.815 107.937C751.397 108.807 751.725 109.867 751.799 111.116C751.878 112.464 751.614 113.687 751.007 114.786C750.407 115.875 749.476 116.764 748.213 117.453C746.95 118.141 745.368 118.542 743.465 118.654L732.609 119.294ZM737.722 114.585L742.102 114.327C743.599 114.239 744.675 113.889 745.327 113.278C745.98 112.658 746.278 111.869 746.221 110.909C746.18 110.206 745.974 109.596 745.603 109.078C745.232 108.56 744.723 108.167 744.077 107.898C743.438 107.628 742.689 107.519 741.829 107.57L737.325 107.835L737.722 114.585ZM737.111 104.2L741.093 103.965C741.83 103.922 742.475 103.755 743.031 103.465C743.595 103.166 744.028 102.767 744.33 102.268C744.641 101.768 744.777 101.183 744.737 100.513C744.683 99.5951 744.313 98.874 743.626 98.3501C742.948 97.8256 742.013 97.5985 740.822 97.6686L736.74 97.9091L737.111 104.2ZM768.427 99.018C768.268 98.0229 767.797 97.2705 767.011 96.7606C766.226 96.2508 765.188 96.0339 763.898 96.1099C763.021 96.1616 762.288 96.3293 761.699 96.613C761.109 96.8884 760.665 97.2507 760.368 97.6999C760.079 98.1485 759.951 98.6458 759.983 99.1917C759.993 99.6476 760.112 100.039 760.338 100.366C760.573 100.692 760.884 100.969 761.271 101.195C761.658 101.413 762.1 101.599 762.599 101.752C763.097 101.897 763.627 102.015 764.189 102.106L766.504 102.518C767.627 102.701 768.664 102.972 769.614 103.331C770.565 103.69 771.398 104.151 772.111 104.715C772.825 105.279 773.392 105.959 773.813 106.756C774.242 107.553 774.491 108.48 774.562 109.538C774.645 111.094 774.328 112.465 773.609 113.653C772.898 114.832 771.825 115.779 770.39 116.495C768.963 117.202 767.215 117.616 765.147 117.738C763.096 117.858 761.29 117.649 759.731 117.11C758.181 116.571 756.943 115.71 756.018 114.528C755.101 113.337 754.569 111.828 754.419 110.003L759.618 109.697C759.726 110.545 760.012 111.242 760.476 111.788C760.948 112.324 761.556 112.716 762.301 112.962C763.053 113.2 763.893 113.292 764.819 113.237C765.729 113.184 766.512 113.005 767.166 112.701C767.829 112.396 768.332 111.997 768.677 111.504C769.021 111.01 769.175 110.457 769.139 109.845C769.106 109.275 768.908 108.805 768.546 108.436C768.192 108.067 767.684 107.765 767.023 107.53C766.37 107.294 765.574 107.092 764.634 106.923L761.826 106.392C759.653 105.997 757.914 105.282 756.608 104.246C755.302 103.211 754.598 101.754 754.495 99.8761C754.396 98.3381 754.727 96.9698 755.486 95.7713C756.254 94.5723 757.346 93.6074 758.764 92.8764C760.182 92.1454 761.817 91.7254 763.67 91.6162C765.556 91.5051 767.221 91.7307 768.665 92.2931C770.118 92.8549 771.271 93.6876 772.124 94.791C772.978 95.8945 773.462 97.2023 773.576 98.7146L768.427 99.018ZM868.477 111.289L859.469 111.819L857.972 86.4089L867.054 85.8738C869.61 85.7232 871.84 86.1023 873.745 87.0111C875.649 87.9115 877.153 89.2796 878.257 91.1153C879.37 92.9506 880.004 95.1875 880.159 97.8262C880.315 100.473 879.949 102.777 879.06 104.739C878.179 106.7 876.838 108.244 875.037 109.371C873.244 110.497 871.057 111.137 868.477 111.289ZM864.57 106.9L867.982 106.699C869.57 106.605 870.89 106.245 871.94 105.619C872.998 104.984 873.765 104.055 874.241 102.831C874.725 101.599 874.911 100.036 874.799 98.142C874.688 96.2643 874.321 94.7462 873.696 93.5878C873.08 92.4288 872.214 91.6 871.097 91.1014C869.981 90.6028 868.628 90.4002 867.04 90.4938L863.615 90.6956L864.57 106.9ZM888.764 84.5948L890.261 110.005L884.889 110.322L883.392 84.9113L888.764 84.5948ZM894.681 109.745L893.184 84.3343L903.358 83.7349C905.228 83.6248 906.803 83.81 908.085 84.2906C909.367 84.7712 910.351 85.4852 911.037 86.4325C911.724 87.3715 912.104 88.4779 912.179 89.7518C912.238 90.7444 912.091 91.6287 911.738 92.4048C911.385 93.1727 910.875 93.8169 910.208 94.3376C909.549 94.8495 908.783 95.2308 907.91 95.4815L907.925 95.7297C908.895 95.714 909.817 95.9336 910.69 96.3885C911.572 96.8428 912.304 97.5094 912.887 98.3881C913.47 99.2585 913.798 100.318 913.871 101.567C913.951 102.915 913.687 104.139 913.079 105.237C912.479 106.326 911.548 107.216 910.285 107.904C909.023 108.593 907.44 108.993 905.538 109.105L894.681 109.745ZM899.795 105.036L904.175 104.778C905.672 104.69 906.747 104.34 907.4 103.729C908.052 103.109 908.35 102.32 908.294 101.36C908.252 100.657 908.046 100.047 907.675 99.5293C907.305 99.0116 906.796 98.6183 906.149 98.3493C905.511 98.0798 904.761 97.9704 903.901 98.021L899.397 98.2864L899.795 105.036ZM899.183 94.651L903.166 94.4164C903.902 94.373 904.548 94.2063 905.104 93.9162C905.667 93.6174 906.1 93.2184 906.403 92.7192C906.714 92.2194 906.849 91.6345 906.81 90.9645C906.756 90.0464 906.385 89.3253 905.699 88.8014C905.02 88.2769 904.086 88.0498 902.895 88.1199L898.812 88.3604L899.183 94.651ZM921.656 82.6569L923.153 108.067L917.781 108.384L916.284 82.9734L921.656 82.6569ZM927.573 107.807L926.076 82.3965L931.449 82.0799L932.685 103.061L943.579 102.419L943.84 106.849L927.573 107.807ZM952.426 106.343L946.669 106.682L953.944 80.7546L960.867 80.3467L971.124 105.241L965.367 105.58L957.847 86.3515L957.648 86.3632L952.426 106.343ZM951.477 96.3759L965.076 95.5748L965.323 99.7685L951.724 100.57L951.477 96.3759ZM974.182 105.061L972.685 79.6505L982.859 79.051C984.729 78.9409 986.304 79.1261 987.586 79.6067C988.867 80.0874 989.852 80.8013 990.538 81.7486C991.224 82.6876 991.605 83.794 991.68 85.0679C991.738 86.0605 991.591 86.9448 991.239 87.7209C990.885 88.4888 990.376 89.133 989.709 89.6537C989.05 90.1657 988.284 90.547 987.411 90.7976L987.425 91.0458C988.396 91.0301 989.318 91.2497 990.191 91.7046C991.073 92.1589 991.805 92.8255 992.388 93.7042C992.971 94.5746 993.299 95.6343 993.372 96.8833C993.452 98.2316 993.187 99.4549 992.58 100.553C991.98 101.643 991.049 102.532 989.786 103.22C988.524 103.909 986.941 104.309 985.039 104.421L974.182 105.061ZM979.296 100.352L983.676 100.094C985.173 100.006 986.248 99.6562 986.901 99.045C987.553 98.4256 987.851 97.6361 987.795 96.6766C987.753 95.9735 987.547 95.3631 987.176 94.8454C986.805 94.3277 986.297 93.9344 985.65 93.6654C985.012 93.3959 984.262 93.2865 983.402 93.3372L978.898 93.6025L979.296 100.352ZM978.684 89.9671L982.667 89.7325C983.403 89.6891 984.049 89.5224 984.604 89.2323C985.168 88.9335 985.601 88.5345 985.903 88.0353C986.214 87.5355 986.35 86.9507 986.311 86.2807C986.256 85.3625 985.886 84.6414 985.2 84.1175C984.521 83.593 983.586 83.3659 982.395 83.436L978.313 83.6765L978.684 89.9671ZM1010 84.7854C1009.84 83.7903 1009.37 83.0379 1008.58 82.5281C1007.8 82.0182 1006.76 81.8013 1005.47 81.8773C1004.59 81.929 1003.86 82.0967 1003.27 82.3804C1002.68 82.6558 1002.24 83.0181 1001.94 83.4673C1001.65 83.9159 1001.52 84.4132 1001.56 84.9591C1001.57 85.415 1001.68 85.8065 1001.91 86.1334C1002.15 86.4599 1002.46 86.7362 1002.84 86.9625C1003.23 87.1804 1003.67 87.366 1004.17 87.5192C1004.67 87.6642 1005.2 87.7823 1005.76 87.8738L1008.08 88.2852C1009.2 88.468 1010.24 88.739 1011.19 89.098C1012.14 89.457 1012.97 89.9184 1013.68 90.4823C1014.4 91.0461 1014.97 91.7266 1015.39 92.5235C1015.81 93.32 1016.06 94.2474 1016.14 95.3057C1016.22 96.8612 1015.9 98.2329 1015.18 99.4207C1014.47 100.6 1013.4 101.547 1011.96 102.262C1010.54 102.969 1008.79 103.383 1006.72 103.505C1004.67 103.626 1002.86 103.417 1001.3 102.878C999.754 102.338 998.516 101.477 997.592 100.295C996.675 99.1042 996.142 97.5958 995.993 95.7702L1001.19 95.464C1001.3 96.3125 1001.59 97.0095 1002.05 97.5549C1002.52 98.0915 1003.13 98.4832 1003.87 98.7298C1004.63 98.9677 1005.47 99.0593 1006.39 99.0047C1007.3 98.9511 1008.08 98.7722 1008.74 98.4681C1009.4 98.1634 1009.91 97.7644 1010.25 97.271C1010.59 96.7776 1010.75 96.2248 1010.71 95.6127C1010.68 95.0419 1010.48 94.5722 1010.12 94.2034C1009.77 93.8341 1009.26 93.532 1008.6 93.2971C1007.94 93.0616 1007.15 92.8595 1006.21 92.6908L1003.4 92.159C1001.23 91.7641 999.487 91.049 998.181 90.0137C996.875 88.9784 996.171 87.5216 996.068 85.6435C995.97 84.1055 996.3 82.7372 997.059 81.5387C997.827 80.3397 998.92 79.3748 1000.34 78.6438C1001.76 77.9128 1003.39 77.4928 1005.24 77.3836C1007.13 77.2725 1008.79 77.4981 1010.24 78.0605C1011.69 78.6223 1012.84 79.455 1013.7 80.5584C1014.55 81.6619 1015.03 82.9697 1015.15 84.482L1010 84.7854ZM1110.05 97.0561L1101.04 97.5868L1099.55 72.1763L1108.63 71.6412C1111.18 71.4906 1113.41 71.8697 1115.32 72.7785C1117.22 73.6789 1118.73 75.047 1119.83 76.8827C1120.94 78.718 1121.58 80.9549 1121.73 83.5936C1121.89 86.2405 1121.52 88.5447 1120.63 90.5061C1119.75 92.4671 1118.41 94.0111 1116.61 95.1382C1114.82 96.2647 1112.63 96.9041 1110.05 97.0561ZM1106.14 92.6671L1109.56 92.4661C1111.14 92.3725 1112.46 92.0126 1113.51 91.3863C1114.57 90.7512 1115.34 89.822 1115.81 88.5987C1116.3 87.3667 1116.48 85.8036 1116.37 83.9094C1116.26 82.0317 1115.89 80.5136 1115.27 79.3552C1114.65 78.1962 1113.79 77.3674 1112.67 76.8688C1111.55 76.3702 1110.2 76.1676 1108.61 76.2612L1105.19 76.463L1106.14 92.6671ZM1130.34 70.3622L1131.83 95.7726L1126.46 96.0892L1124.96 70.6787L1130.34 70.3622ZM1136.25 95.5122L1134.76 70.1017L1144.93 69.5023C1146.8 69.3922 1148.38 69.5774 1149.66 70.058C1150.94 70.5386 1151.92 71.2526 1152.61 72.1999C1153.3 73.1389 1153.68 74.2453 1153.75 75.5192C1153.81 76.5118 1153.66 77.3961 1153.31 78.1722C1152.96 78.9401 1152.45 79.5843 1151.78 80.105C1151.12 80.617 1150.36 80.9983 1149.48 81.2489L1149.5 81.4971C1150.47 81.4814 1151.39 81.701 1152.26 82.1559C1153.15 82.6102 1153.88 83.2768 1154.46 84.1555C1155.04 85.0259 1155.37 86.0856 1155.44 87.3346C1155.52 88.6829 1155.26 89.9062 1154.65 91.0044C1154.05 92.0939 1153.12 92.9829 1151.86 93.6716C1150.6 94.3602 1149.01 94.7605 1147.11 94.8726L1136.25 95.5122ZM1141.37 90.8035L1145.75 90.5454C1147.25 90.4572 1148.32 90.1075 1148.97 89.4963C1149.63 88.8769 1149.92 88.0874 1149.87 87.1279C1149.83 86.4248 1149.62 85.8144 1149.25 85.2967C1148.88 84.779 1148.37 84.3857 1147.72 84.1167C1147.08 83.8472 1146.33 83.7378 1145.47 83.7885L1140.97 84.0538L1141.37 90.8035ZM1140.76 80.4184L1144.74 80.1838C1145.48 80.1404 1146.12 79.9737 1146.68 79.6836C1147.24 79.3848 1147.67 78.9858 1147.98 78.4866C1148.29 77.9868 1148.42 77.4019 1148.38 76.7319C1148.33 75.8138 1147.96 75.0927 1147.27 74.5688C1146.59 74.0443 1145.66 73.8172 1144.47 73.8873L1140.39 74.1278L1140.76 80.4184ZM1163.23 68.4243L1164.73 93.8348L1159.35 94.1513L1157.86 68.7408L1163.23 68.4243ZM1169.15 93.5743L1167.65 68.1639L1173.02 67.8473L1174.26 88.8284L1185.15 88.1865L1185.41 92.616L1169.15 93.5743ZM1194 92.1101L1188.24 92.4493L1195.52 66.522L1202.44 66.1141L1212.7 91.0085L1206.94 91.3477L1199.42 72.1189L1199.22 72.1306L1194 92.1101ZM1193.05 82.1433L1206.65 81.3422L1206.9 85.5359L1193.3 86.3371L1193.05 82.1433ZM1215.76 90.8283L1214.26 65.4179L1224.43 64.8184C1226.3 64.7083 1227.88 64.8935 1229.16 65.3741C1230.44 65.8548 1231.42 66.5687 1232.11 67.516C1232.8 68.455 1233.18 69.5614 1233.25 70.8353C1233.31 71.8279 1233.16 72.7122 1232.81 73.4883C1232.46 74.2562 1231.95 74.9004 1231.28 75.4211C1230.62 75.9331 1229.86 76.3144 1228.98 76.565L1229 76.8132C1229.97 76.7975 1230.89 77.0171 1231.76 77.472C1232.65 77.9264 1233.38 78.5929 1233.96 79.4716C1234.54 80.342 1234.87 81.4017 1234.95 82.6507C1235.02 83.999 1234.76 85.2223 1234.15 86.3205C1233.55 87.41 1232.62 88.299 1231.36 88.9877C1230.1 89.6763 1228.51 90.0766 1226.61 90.1887L1215.76 90.8283ZM1220.87 86.1196L1225.25 85.8615C1226.75 85.7733 1227.82 85.4236 1228.47 84.8124C1229.13 84.193 1229.42 83.4035 1229.37 82.444C1229.33 81.7409 1229.12 81.1305 1228.75 80.6128C1228.38 80.0951 1227.87 79.7018 1227.22 79.4328C1226.58 79.1633 1225.84 79.0539 1224.98 79.1046L1220.47 79.3699L1220.87 86.1196ZM1220.26 75.7345L1224.24 75.4999C1224.98 75.4565 1225.62 75.2898 1226.18 74.9997C1226.74 74.7009 1227.17 74.3019 1227.48 73.8027C1227.79 73.3029 1227.92 72.7181 1227.88 72.0481C1227.83 71.1299 1227.46 70.4088 1226.77 69.8849C1226.09 69.3604 1225.16 69.1333 1223.97 69.2034L1219.89 69.4439L1220.26 75.7345ZM1251.57 70.5528C1251.41 69.5577 1250.94 68.8053 1250.16 68.2955C1249.37 67.7856 1248.33 67.5687 1247.04 67.6447C1246.17 67.6964 1245.43 67.8641 1244.85 68.1478C1244.26 68.4232 1243.81 68.7855 1243.51 69.2347C1243.23 69.6833 1243.1 70.1806 1243.13 70.7265C1243.14 71.1824 1243.26 71.5739 1243.49 71.9008C1243.72 72.2273 1244.03 72.5036 1244.42 72.7299C1244.8 72.9478 1245.25 73.1334 1245.75 73.2866C1246.24 73.4316 1246.77 73.5497 1247.34 73.6412L1249.65 74.0526C1250.77 74.2354 1251.81 74.5064 1252.76 74.8654C1253.71 75.2244 1254.54 75.6858 1255.26 76.2497C1255.97 76.8135 1256.54 77.494 1256.96 78.2909C1257.39 79.0874 1257.64 80.0148 1257.71 81.0731C1257.79 82.6286 1257.47 84.0003 1256.76 85.1881C1256.04 86.3671 1254.97 87.3143 1253.54 88.0297C1252.11 88.7363 1250.36 89.1505 1248.29 89.2724C1246.24 89.3932 1244.44 89.1842 1242.88 88.6452C1241.33 88.1057 1240.09 87.2449 1239.16 86.0626C1238.25 84.8716 1237.72 83.3632 1237.57 81.5376L1242.76 81.2314C1242.87 82.0799 1243.16 82.7769 1243.62 83.3223C1244.09 83.859 1244.7 84.2506 1245.45 84.4972C1246.2 84.7351 1247.04 84.8267 1247.97 84.7721C1248.88 84.7185 1249.66 84.5396 1250.31 84.2355C1250.98 83.9308 1251.48 83.5318 1251.82 83.0384C1252.17 82.545 1252.32 81.9922 1252.29 81.3801C1252.25 80.8094 1252.05 80.3396 1251.69 79.9708C1251.34 79.6015 1250.83 79.2994 1250.17 79.0645C1249.52 78.829 1248.72 78.6269 1247.78 78.4582L1244.97 77.9264C1242.8 77.5315 1241.06 76.8164 1239.75 75.7811C1238.45 74.7458 1237.74 73.2891 1237.64 71.4109C1237.54 69.8729 1237.87 68.5046 1238.63 67.3061C1239.4 66.1071 1240.49 65.1422 1241.91 64.4112C1243.33 63.6802 1244.96 63.2602 1246.82 63.151C1248.7 63.0399 1250.37 63.2655 1251.81 63.8279C1253.26 64.3897 1254.42 65.2224 1255.27 66.3258C1256.12 67.4293 1256.61 68.7372 1256.72 70.2494L1251.57 70.5528ZM1351.62 82.8235L1342.62 83.3542L1341.12 57.9437L1350.2 57.4086C1352.76 57.2581 1354.99 57.6371 1356.89 58.5459C1358.8 59.4463 1360.3 60.8144 1361.4 62.6501C1362.52 64.4854 1363.15 66.7223 1363.31 69.361C1363.46 72.0079 1363.1 74.3121 1362.21 76.2735C1361.33 78.2345 1359.98 79.7785 1358.18 80.9056C1356.39 82.0321 1354.2 82.6715 1351.62 82.8235ZM1347.72 78.4345L1351.13 78.2335C1352.72 78.1399 1354.04 77.78 1355.09 77.1537C1356.14 76.5186 1356.91 75.5894 1357.39 74.3661C1357.87 73.1341 1358.06 71.571 1357.95 69.6768C1357.83 67.7991 1357.47 66.2811 1356.84 65.1226C1356.23 63.9636 1355.36 63.1348 1354.24 62.6362C1353.13 62.1376 1351.77 61.9351 1350.19 62.0286L1346.76 62.2304L1347.72 78.4345ZM1371.91 56.1296L1373.41 81.5401L1368.04 81.8566L1366.54 56.4461L1371.91 56.1296ZM1377.83 81.2796L1376.33 55.8691L1386.5 55.2697C1388.37 55.1596 1389.95 55.3448 1391.23 55.8254C1392.51 56.3061 1393.5 57.02 1394.18 57.9673C1394.87 58.9063 1395.25 60.0127 1395.33 61.2866C1395.38 62.2792 1395.24 63.1635 1394.88 63.9396C1394.53 64.7075 1394.02 65.3517 1393.35 65.8724C1392.7 66.3844 1391.93 66.7657 1391.06 67.0163L1391.07 67.2645C1392.04 67.2488 1392.96 67.4684 1393.84 67.9233C1394.72 68.3776 1395.45 69.0442 1396.03 69.9229C1396.62 70.7933 1396.94 71.853 1397.02 73.102C1397.1 74.4503 1396.83 75.6736 1396.23 76.7718C1395.63 77.8613 1394.69 78.7503 1393.43 79.439C1392.17 80.1276 1390.59 80.5279 1388.68 80.64L1377.83 81.2796ZM1382.94 76.5709L1387.32 76.3128C1388.82 76.2246 1389.89 75.8749 1390.55 75.2637C1391.2 74.6443 1391.5 73.8548 1391.44 72.8953C1391.4 72.1922 1391.19 71.5818 1390.82 71.0641C1390.45 70.5464 1389.94 70.1531 1389.3 69.8841C1388.66 69.6146 1387.91 69.5052 1387.05 69.5559L1382.54 69.8212L1382.94 76.5709ZM1382.33 66.1858L1386.31 65.9512C1387.05 65.9078 1387.69 65.7411 1388.25 65.451C1388.81 65.1522 1389.25 64.7532 1389.55 64.254C1389.86 63.7542 1390 63.1694 1389.96 62.4993C1389.9 61.5812 1389.53 60.8601 1388.85 60.3362C1388.17 59.8117 1387.23 59.5846 1386.04 59.6547L1381.96 59.8952L1382.33 66.1858ZM1404.8 54.1917L1406.3 79.6022L1400.93 79.9187L1399.43 54.5082L1404.8 54.1917ZM1410.72 79.3417L1409.22 53.9313L1414.6 53.6147L1415.83 74.5958L1426.73 73.9539L1426.99 78.3834L1410.72 79.3417ZM1435.57 77.8776L1429.82 78.2167L1437.09 52.2894L1444.01 51.8815L1454.27 76.7759L1448.51 77.1151L1440.99 57.8863L1440.79 57.898L1435.57 77.8776ZM1434.62 67.9107L1448.22 67.1096L1448.47 71.3033L1434.87 72.1045L1434.62 67.9107ZM1457.33 76.5957L1455.83 51.1853L1466.01 50.5858C1467.88 50.4757 1469.45 50.6609 1470.73 51.1415C1472.01 51.6222 1473 52.3361 1473.68 53.2834C1474.37 54.2224 1474.75 55.3288 1474.83 56.6027C1474.89 57.5953 1474.74 58.4796 1474.39 59.2557C1474.03 60.0236 1473.52 60.6678 1472.86 61.1885C1472.2 61.7005 1471.43 62.0818 1470.56 62.3324L1470.57 62.5806C1471.54 62.5649 1472.46 62.7845 1473.34 63.2394C1474.22 63.6938 1474.95 64.3603 1475.53 65.239C1476.12 66.1094 1476.45 67.1691 1476.52 68.4181C1476.6 69.7664 1476.33 70.9897 1475.73 72.0879C1475.13 73.1774 1474.2 74.0665 1472.93 74.7551C1471.67 75.4437 1470.09 75.844 1468.19 75.9561L1457.33 76.5957ZM1462.44 71.887L1466.82 71.6289C1468.32 71.5407 1469.39 71.191 1470.05 70.5798C1470.7 69.9604 1471 69.1709 1470.94 68.2114C1470.9 67.5083 1470.69 66.8979 1470.32 66.3802C1469.95 65.8625 1469.44 65.4692 1468.8 65.2002C1468.16 64.9307 1467.41 64.8213 1466.55 64.872L1462.04 65.1373L1462.44 71.887ZM1461.83 61.5019L1465.81 61.2673C1466.55 61.2239 1467.2 61.0572 1467.75 60.7671C1468.31 60.4683 1468.75 60.0693 1469.05 59.5701C1469.36 59.0703 1469.5 58.4855 1469.46 57.8155C1469.4 56.8973 1469.03 56.1762 1468.35 55.6523C1467.67 55.1278 1466.73 54.9007 1465.54 54.9708L1461.46 55.2113L1461.83 61.5019ZM1493.15 56.3202C1492.99 55.3251 1492.52 54.5727 1491.73 54.0629C1490.95 53.553 1489.91 53.3361 1488.62 53.4121C1487.74 53.4638 1487.01 53.6315 1486.42 53.9152C1485.83 54.1906 1485.39 54.5529 1485.09 55.0021C1484.8 55.4507 1484.67 55.948 1484.7 56.4939C1484.71 56.9498 1484.83 57.3413 1485.06 57.6682C1485.29 57.9947 1485.6 58.271 1485.99 58.4973C1486.38 58.7152 1486.82 58.9008 1487.32 59.054C1487.82 59.199 1488.35 59.3172 1488.91 59.4086L1491.22 59.82C1492.35 60.0028 1493.38 60.2738 1494.33 60.6328C1495.29 60.9918 1496.12 61.4532 1496.83 62.0171C1497.55 62.5809 1498.11 63.2614 1498.53 64.0583C1498.96 64.8548 1499.21 65.7822 1499.28 66.8405C1499.37 68.396 1499.05 69.7677 1498.33 70.9555C1497.62 72.1345 1496.55 73.0817 1495.11 73.7971C1493.68 74.5037 1491.93 74.918 1489.87 75.0398C1487.82 75.1606 1486.01 74.9516 1484.45 74.4126C1482.9 73.8731 1481.66 73.0123 1480.74 71.83C1479.82 70.639 1479.29 69.1306 1479.14 67.305L1484.34 66.9988C1484.45 67.8473 1484.73 68.5443 1485.2 69.0897C1485.67 69.6264 1486.28 70.018 1487.02 70.2646C1487.77 70.5025 1488.61 70.5941 1489.54 70.5395C1490.45 70.4859 1491.23 70.307 1491.89 70.0029C1492.55 69.6982 1493.05 69.2992 1493.4 68.8058C1493.74 68.3124 1493.9 67.7596 1493.86 67.1475C1493.83 66.5768 1493.63 66.107 1493.27 65.7382C1492.91 65.3689 1492.4 65.0668 1491.74 64.8319C1491.09 64.5964 1490.29 64.3943 1489.35 64.2256L1486.55 63.6938C1484.37 63.2989 1482.63 62.5838 1481.33 61.5485C1480.02 60.5132 1479.32 59.0565 1479.22 57.1783C1479.12 55.6403 1479.45 54.272 1480.21 53.0735C1480.97 51.8745 1482.07 50.9096 1483.48 50.1786C1484.9 49.4476 1486.54 49.0276 1488.39 48.9184C1490.28 48.8073 1491.94 49.0329 1493.39 49.5953C1494.84 50.1571 1495.99 50.9898 1496.84 52.0932C1497.7 53.1967 1498.18 54.5046 1498.3 56.0168L1493.15 56.3202ZM1593.2 68.5909L1584.19 69.1216L1582.69 43.7111L1591.77 43.176C1594.33 43.0255 1596.56 43.4045 1598.46 44.3133C1600.37 45.2137 1601.87 46.5818 1602.98 48.4176C1604.09 50.2528 1604.72 52.4897 1604.88 55.1284C1605.03 57.7753 1604.67 60.0795 1603.78 62.0409C1602.9 64.0019 1601.56 65.5459 1599.76 66.673C1597.96 67.7995 1595.78 68.4389 1593.2 68.5909ZM1589.29 64.2019L1592.7 64.0009C1594.29 63.9073 1595.61 63.5474 1596.66 62.9211C1597.72 62.286 1598.49 61.3568 1598.96 60.1336C1599.44 58.9015 1599.63 57.3384 1599.52 55.4442C1599.41 53.5665 1599.04 52.0485 1598.42 50.89C1597.8 49.731 1596.93 48.9022 1595.82 48.4036C1594.7 47.905 1593.35 47.7025 1591.76 47.796L1588.34 47.9978L1589.29 64.2019ZM1613.48 41.897L1614.98 67.3075L1609.61 67.624L1608.11 42.2135L1613.48 41.897ZM1619.4 67.047L1617.9 41.6366L1628.08 41.0371C1629.95 40.927 1631.52 41.1122 1632.8 41.5928C1634.09 42.0735 1635.07 42.7874 1635.76 43.7347C1636.44 44.6737 1636.82 45.7801 1636.9 47.054C1636.96 48.0466 1636.81 48.9309 1636.46 49.707C1636.1 50.4749 1635.59 51.1191 1634.93 51.6398C1634.27 52.1518 1633.5 52.5331 1632.63 52.7837L1632.64 53.0319C1633.61 53.0162 1634.54 53.2358 1635.41 53.6907C1636.29 54.145 1637.02 54.8116 1637.61 55.6903C1638.19 56.5607 1638.52 57.6204 1638.59 58.8694C1638.67 60.2177 1638.41 61.441 1637.8 62.5392C1637.2 63.6287 1636.27 64.5177 1635.01 65.2064C1633.74 65.895 1632.16 66.2953 1630.26 66.4074L1619.4 67.047ZM1624.51 62.3383L1628.89 62.0802C1630.39 61.992 1631.47 61.6423 1632.12 61.0311C1632.77 60.4117 1633.07 59.6222 1633.01 58.6627C1632.97 57.9596 1632.77 57.3492 1632.4 56.8315C1632.02 56.3138 1631.52 55.9205 1630.87 55.6515C1630.23 55.382 1629.48 55.2726 1628.62 55.3233L1624.12 55.5886L1624.51 62.3383ZM1623.9 51.9532L1627.89 51.7186C1628.62 51.6752 1629.27 51.5085 1629.82 51.2184C1630.39 50.9196 1630.82 50.5206 1631.12 50.0214C1631.43 49.5216 1631.57 48.9368 1631.53 48.2668C1631.48 47.3486 1631.11 46.6275 1630.42 46.1036C1629.74 45.5791 1628.81 45.352 1627.61 45.4221L1623.53 45.6626L1623.9 51.9532ZM1646.38 39.9591L1647.87 65.3696L1642.5 65.6861L1641 40.2756L1646.38 39.9591ZM1652.29 65.1091L1650.8 39.6987L1656.17 39.3821L1657.4 60.3632L1668.3 59.7213L1668.56 64.1508L1652.29 65.1091ZM1677.15 63.645L1671.39 63.9841L1678.66 38.0568L1685.59 37.6489L1695.84 62.5433L1690.09 62.8825L1682.57 43.6537L1682.37 43.6654L1677.15 63.645ZM1676.2 53.6781L1689.8 52.877L1690.04 57.0707L1676.44 57.8719L1676.2 53.6781ZM1698.9 62.3631L1697.4 36.9527L1707.58 36.3532C1709.45 36.2431 1711.02 36.4283 1712.31 36.909C1713.59 37.3896 1714.57 38.1035 1715.26 39.0508C1715.94 39.9898 1716.32 41.0962 1716.4 42.3701C1716.46 43.3627 1716.31 44.247 1715.96 45.0231C1715.61 45.791 1715.1 46.4352 1714.43 46.9559C1713.77 47.4679 1713 47.8492 1712.13 48.0998L1712.15 48.348C1713.12 48.3323 1714.04 48.5519 1714.91 49.0068C1715.79 49.4612 1716.52 50.1277 1717.11 51.0064C1717.69 51.8768 1718.02 52.9365 1718.09 54.1855C1718.17 55.5338 1717.91 56.7571 1717.3 57.8553C1716.7 58.9448 1715.77 59.8339 1714.51 60.5225C1713.24 61.2111 1711.66 61.6114 1709.76 61.7235L1698.9 62.3631ZM1704.02 57.6544L1708.4 57.3963C1709.89 57.3081 1710.97 56.9584 1711.62 56.3472C1712.27 55.7278 1712.57 54.9383 1712.51 53.9788C1712.47 53.2757 1712.27 52.6653 1711.9 52.1476C1711.53 51.6299 1711.02 51.2366 1710.37 50.9676C1709.73 50.6981 1708.98 50.5887 1708.12 50.6394L1703.62 50.9047L1704.02 57.6544ZM1703.4 47.2693L1707.39 47.0347C1708.12 46.9913 1708.77 46.8246 1709.32 46.5346C1709.89 46.2357 1710.32 45.8367 1710.62 45.3375C1710.93 44.8377 1711.07 44.2529 1711.03 43.5829C1710.98 42.6647 1710.61 41.9436 1709.92 41.4197C1709.24 40.8952 1708.31 40.6681 1707.12 40.7382L1703.03 40.9787L1703.4 47.2693ZM1734.72 42.0876C1734.56 41.0926 1734.09 40.3401 1733.3 39.8303C1732.52 39.3204 1731.48 39.1035 1730.19 39.1795C1729.31 39.2312 1728.58 39.3989 1727.99 39.6826C1727.4 39.958 1726.96 40.3203 1726.66 40.7695C1726.37 41.2181 1726.24 41.7154 1726.28 42.2613C1726.29 42.7172 1726.4 43.1087 1726.63 43.4356C1726.87 43.7621 1727.18 44.0384 1727.56 44.2647C1727.95 44.4826 1728.39 44.6682 1728.89 44.8214C1729.39 44.9664 1729.92 45.0846 1730.48 45.176L1732.8 45.5874C1733.92 45.7702 1734.96 46.0412 1735.91 46.4002C1736.86 46.7592 1737.69 47.2206 1738.4 47.7845C1739.12 48.3483 1739.69 49.0288 1740.11 49.8257C1740.53 50.6222 1740.78 51.5496 1740.86 52.6079C1740.94 54.1634 1740.62 55.5351 1739.9 56.7229C1739.19 57.9019 1738.12 58.8491 1736.68 59.5645C1735.26 60.2711 1733.51 60.6854 1731.44 60.8072C1729.39 60.928 1727.58 60.719 1726.02 60.18C1724.47 59.6406 1723.24 58.7797 1722.31 57.5974C1721.39 56.4064 1720.86 54.898 1720.71 53.0724L1725.91 52.7662C1726.02 53.6147 1726.31 54.3117 1726.77 54.8571C1727.24 55.3938 1727.85 55.7854 1728.59 56.032C1729.35 56.2699 1730.19 56.3615 1731.11 56.3069C1732.02 56.2533 1732.8 56.0744 1733.46 55.7703C1734.12 55.4656 1734.63 55.0666 1734.97 54.5732C1735.31 54.0798 1735.47 53.527 1735.43 52.9149C1735.4 52.3442 1735.2 51.8744 1734.84 51.5056C1734.49 51.1363 1733.98 50.8342 1733.32 50.5993C1732.66 50.3638 1731.87 50.1617 1730.93 49.993L1728.12 49.4612C1725.95 49.0663 1724.21 48.3512 1722.9 47.3159C1721.59 46.2806 1720.89 44.8239 1720.79 42.9457C1720.69 41.4077 1721.02 40.0394 1721.78 38.8409C1722.55 37.6419 1723.64 36.677 1725.06 35.946C1726.48 35.215 1728.11 34.795 1729.96 34.6858C1731.85 34.5747 1733.51 34.8003 1734.96 35.3627C1736.41 35.9245 1737.56 36.7572 1738.42 37.8606C1739.27 38.9641 1739.75 40.272 1739.87 41.7842L1734.72 42.0876Z" fill="white"/>
<path d="M329.696 110.164C329.929 109.203 331.266 109.127 331.607 110.055L335.971 121.952C336.08 122.25 336.324 122.478 336.628 122.567L348.269 125.983C349.171 126.248 349.242 127.499 348.376 127.864L337.197 132.578C336.905 132.702 336.689 132.956 336.614 133.264L333.627 145.579C333.394 146.54 332.057 146.616 331.717 145.687L327.353 133.791C327.244 133.493 327 133.265 326.696 133.176L315.055 129.759C314.152 129.495 314.081 128.244 314.948 127.879L326.127 123.164C326.419 123.041 326.635 122.787 326.71 122.479L329.696 110.164Z" fill="white"/>
<path d="M574.272 95.7548C574.505 94.794 575.842 94.718 576.183 95.6461L580.546 107.543C580.656 107.84 580.899 108.069 581.204 108.158L592.845 111.574C593.747 111.839 593.818 113.09 592.952 113.455L581.773 118.169C581.481 118.292 581.265 118.547 581.19 118.855L578.203 131.17C577.97 132.13 576.633 132.206 576.293 131.278L571.929 119.382C571.82 119.084 571.576 118.856 571.272 118.767L559.631 115.35C558.728 115.086 558.657 113.835 559.524 113.469L570.702 108.755C570.995 108.632 571.211 108.378 571.286 108.069L574.272 95.7548Z" fill="white"/>
<path d="M815.853 81.5214C816.086 80.5606 817.423 80.4846 817.764 81.4127L822.128 93.3093C822.237 93.6069 822.481 93.8352 822.785 93.9245L834.426 97.3407C835.328 97.6055 835.399 98.8563 834.533 99.2217L823.354 103.936C823.062 104.059 822.846 104.314 822.771 104.622L819.784 116.936C819.551 117.897 818.214 117.973 817.874 117.045L813.51 105.148C813.401 104.851 813.157 104.622 812.853 104.533L801.212 101.117C800.309 100.852 800.238 99.6014 801.105 99.236L812.283 94.5217C812.576 94.3986 812.792 94.1441 812.867 93.836L815.853 81.5214Z" fill="white"/>
<path d="M1057.43 67.289C1057.67 66.3282 1059 66.2521 1059.34 67.1803L1063.71 79.0769C1063.82 79.3745 1064.06 79.6028 1064.37 79.692L1076.01 83.1083C1076.91 83.3731 1076.98 84.6238 1076.11 84.9892L1064.94 89.7035C1064.64 89.8267 1064.43 90.0811 1064.35 90.3892L1061.37 102.704C1061.13 103.665 1059.8 103.741 1059.45 102.812L1055.09 90.9159C1054.98 90.6183 1054.74 90.39 1054.43 90.3008L1042.79 86.8845C1041.89 86.6197 1041.82 85.3689 1042.69 85.0035L1053.86 80.2893C1054.16 80.1661 1054.37 79.9117 1054.45 79.6036L1057.43 67.289Z" fill="white"/>
<path d="M1299.02 53.0556C1299.25 52.0948 1300.59 52.0187 1300.93 52.9469L1305.29 64.8435C1305.4 65.1411 1305.64 65.3694 1305.95 65.4586L1317.59 68.8749C1318.49 69.1397 1318.56 70.3904 1317.7 70.7558L1306.52 75.4701C1306.22 75.5933 1306.01 75.8477 1305.93 76.1558L1302.95 88.4704C1302.71 89.4312 1301.38 89.5073 1301.04 88.5791L1296.67 76.6825C1296.56 76.3849 1296.32 76.1566 1296.02 76.0674L1284.37 72.6511C1283.47 72.3863 1283.4 71.1356 1284.27 70.7701L1295.45 66.0559C1295.74 65.9327 1295.95 65.6783 1296.03 65.3702L1299.02 53.0556Z" fill="white"/>
<path d="M89.1133 124.339C89.3463 123.378 90.6835 123.302 91.0239 124.23L95.3875 136.127C95.4967 136.424 95.7406 136.653 96.0448 136.742L107.686 140.158C108.588 140.423 108.659 141.674 107.793 142.039L96.6142 146.753C96.3221 146.876 96.1057 147.131 96.0309 147.439L93.0444 159.754C92.8114 160.714 91.4742 160.79 91.1338 159.862L86.7702 147.966C86.661 147.668 86.4172 147.44 86.1129 147.351L74.4717 143.934C73.5694 143.669 73.4983 142.419 74.3648 142.053L85.5435 137.339C85.8356 137.216 86.052 136.962 86.1268 136.653L89.1133 124.339Z" fill="white"/>
</svg>
