<svg width="143" height="153" viewBox="0 0 143 153" fill="none" xmlns="http://www.w3.org/2000/svg">
<path d="M55.1135 4.68675C53.2362 1.92739 48.9293 3.11129 48.7262 6.44249L45.4199 60.6745L4.54537 91.7159C2.03124 93.6252 3.13071 97.625 6.2675 97.9809L57.2656 103.768L87.8274 148.691C89.7047 151.45 94.0116 150.266 94.2147 146.935L97.521 92.703L138.396 61.6616C140.91 59.7523 139.81 55.7526 136.673 55.3966L85.6753 49.6091L55.1135 4.68675ZM45.9681 60.2582L45.9669 60.2591C45.9673 60.2588 45.9677 60.2585 45.9681 60.2582L45.9681 60.2582ZM96.9728 93.1193L96.9757 93.1171C96.9747 93.1179 96.9738 93.1186 96.9728 93.1193Z" stroke="white" stroke-width="5"/>
</svg>
