<svg width="209" height="188" viewBox="0 0 209 188" fill="none" xmlns="http://www.w3.org/2000/svg">
<g clip-path="url(#clip0_13_29)">
<path d="M45.9681 95.2582L45.9669 95.2591M55.1135 39.6868C53.2362 36.9274 48.9293 38.1113 48.7262 41.4425L45.4199 95.6745L4.54537 126.716C2.03124 128.625 3.13071 132.625 6.2675 132.981L57.2656 138.768L87.8274 183.691C89.7047 186.45 94.0116 185.266 94.2147 181.935L97.521 127.703L138.396 96.6616C140.91 94.7523 139.81 90.7526 136.673 90.3966L85.6753 84.6091L55.1135 39.6868ZM96.9728 128.119L96.9757 128.117C96.9747 128.118 96.9738 128.119 96.9728 128.119Z" stroke="white" stroke-width="5"/>
<path d="M147.091 35.2558L148.262 33.0474M147.091 35.2558L164.431 44.4562L168.99 64.6002C169.727 67.8553 174.169 68.3303 175.577 65.3047L184.294 46.5807L203.188 41.2558C206.226 40.3995 206.668 36.2749 203.879 34.7953L186.538 25.5948L181.979 5.45087C181.242 2.19581 176.801 1.72078 175.392 4.74638L166.676 23.4704L147.782 28.7953C144.743 29.6516 144.302 33.7762 147.091 35.2558ZM201.535 39.2121C201.535 39.2117 201.534 39.2113 201.533 39.2108L201.535 39.2121Z" stroke="white" stroke-width="5"/>
<path d="M177.985 129.025L175.643 129.899M177.985 129.025C176.818 125.898 172.353 126.024 171.363 129.211L167.976 140.12L157.938 144.475C155.042 145.731 155.159 149.878 158.121 150.97L168.388 154.754L172.382 165.455C173.549 168.582 178.014 168.456 179.004 165.269L182.391 154.361L192.429 150.005C195.325 148.749 195.208 144.602 192.246 143.51L181.979 139.726L177.985 129.025Z" stroke="white" stroke-width="5"/>
</g>
<defs>
<clipPath id="clip0_13_29">
<rect width="209" height="188" fill="white"/>
</clipPath>
</defs>
</svg>
