<svg width="273" height="231" viewBox="0 0 273 231" fill="none" xmlns="http://www.w3.org/2000/svg">
<mask id="mask0_328_912" style="mask-type:luminance" maskUnits="userSpaceOnUse" x="0" y="4" width="221" height="227">
<path d="M0.80127 4H220.164V230.723H0.80127V4Z" fill="white"/>
</mask>
<g mask="url(#mask0_328_912)">
<mask id="mask1_328_912" style="mask-type:luminance" maskUnits="userSpaceOnUse" x="0" y="4" width="221" height="227">
<path d="M9.49489 40.3066C-8.28354 74.8992 4.24133 108.569 19.9816 126.439L112.014 230.72L202.103 126.811C216.742 107.588 222.354 87.1968 219.237 64.4906C214.933 33.082 193.016 8.7136 165.944 5.23349C149.34 3.12245 133.3 8.67129 120.782 20.9582C117.412 24.2631 114.401 27.9593 111.776 31.9758C108.661 27.4032 105.01 23.2189 100.88 19.5106C86.484 6.59048 68.1593 1.46022 50.5574 5.44958C33.887 9.25307 18.9234 21.9541 9.49489 40.3066Z" fill="white"/>
</mask>
<g mask="url(#mask1_328_912)">
<path d="M0.801758 4.12646H220.391V230.721H0.801758V4.12646Z" fill="#EC6826"/>
</g>
</g>
<path d="M160.926 69.5562L162.137 66.2722L160.926 69.5562L196.719 82.7496L210.833 120.56C212.333 124.58 218.074 124.418 219.346 120.32L231.313 81.7771L266.308 66.5937C270.032 64.9781 269.882 59.647 266.073 58.2432L264.863 61.5272L266.073 58.2432L230.28 45.0497L216.167 7.23954C214.667 3.21952 208.926 3.38091 207.654 7.47888L195.687 46.0222L160.692 61.2057L162.085 64.4165L160.692 61.2057C156.968 62.8213 157.118 68.1524 160.926 69.5562ZM230.261 82.2337L230.263 82.2326C230.262 82.233 230.261 82.2333 230.261 82.2337L229.265 79.9403L230.261 82.2337Z" fill="#221F1F" stroke="white" stroke-width="7"/>
</svg>
