<svg width="205" height="161" viewBox="0 0 205 161" fill="none" xmlns="http://www.w3.org/2000/svg">
<mask id="mask0_328_911" style="mask-type:luminance" maskUnits="userSpaceOnUse" x="50" y="0" width="155" height="161">
<path d="M50.1606 0.960938H204.209V160.178H50.1606V0.960938Z" fill="white"/>
</mask>
<g mask="url(#mask0_328_911)">
<mask id="mask1_328_911" style="mask-type:luminance" maskUnits="userSpaceOnUse" x="50" y="1" width="155" height="160">
<path d="M56.2654 26.4593C43.7805 50.752 52.5761 74.3964 63.6297 86.946L128.259 160.178L191.525 87.2071C201.805 73.7077 205.746 59.388 203.557 43.4426C200.535 21.3857 185.144 4.27297 166.132 1.82905C154.472 0.346563 143.208 4.24325 134.417 12.8718C132.05 15.1926 129.936 17.7883 128.092 20.6089C125.905 17.3978 123.341 14.4593 120.441 11.8552C110.331 2.78199 97.4626 -0.820746 85.1017 1.9808C73.3948 4.65181 62.8866 13.5711 56.2654 26.4593Z" fill="white"/>
</mask>
<g mask="url(#mask1_328_911)">
<path d="M50.1609 1.05164H204.368V160.178H50.1609V1.05164Z" fill="#EC6826"/>
</g>
</g>
<path d="M5.40361 56.4434L6.57772 59.1495L5.40361 56.4434C2.09379 57.8794 2.227 62.6182 5.61227 63.866L6.64985 61.0512L5.61228 63.866L29.8177 72.7882L39.337 98.2908C40.6708 101.864 45.7736 101.721 46.9045 98.0781L54.976 72.081L78.642 61.813C81.9518 60.377 81.8186 55.6382 78.4333 54.3903L54.2279 45.4681L44.7086 19.9655C43.3748 16.3922 38.272 16.5356 37.141 20.1783L40.0061 21.0678L37.141 20.1783L29.0696 46.1754L5.40361 56.4434ZM29.9115 45.8101L29.909 45.8112L29.9115 45.8101Z" fill="#221F1F" stroke="white" stroke-width="6"/>
</svg>
