<svg width="1440" height="219" viewBox="0 0 1440 219" fill="none" xmlns="http://www.w3.org/2000/svg">
<rect x="-224.429" y="112.512" width="1668" height="92" transform="rotate(-3.37176 -224.429 112.512)" fill="#231F20"/>
<path d="M-425.39 182.452L-434.398 182.983L-435.895 157.572L-426.812 157.037C-424.256 156.887 -422.026 157.266 -420.122 158.174C-418.218 159.075 -416.714 160.443 -415.609 162.279C-414.497 164.114 -413.863 166.351 -413.707 168.99C-413.552 171.637 -413.918 173.941 -414.807 175.902C-415.687 177.863 -417.028 179.407 -418.829 180.534C-420.622 181.661 -422.809 182.3 -425.39 182.452ZM-429.296 178.063L-425.884 177.862C-424.296 177.769 -422.977 177.409 -421.926 176.782C-420.868 176.147 -420.101 175.218 -419.625 173.995C-419.142 172.763 -418.956 171.2 -419.067 169.305C-419.178 167.428 -419.546 165.91 -420.17 164.751C-420.786 163.592 -421.652 162.763 -422.769 162.265C-423.886 161.766 -425.238 161.564 -426.827 161.657L-430.251 161.859L-429.296 178.063ZM-405.102 155.758L-403.605 181.169L-408.978 181.485L-410.475 156.075L-405.102 155.758ZM-399.185 180.908L-400.682 155.498L-390.508 154.898C-388.639 154.788 -387.063 154.973 -385.782 155.454C-384.5 155.935 -383.516 156.649 -382.829 157.596C-382.143 158.535 -381.762 159.641 -381.687 160.915C-381.629 161.908 -381.776 162.792 -382.129 163.568C-382.482 164.336 -382.992 164.98 -383.658 165.501C-384.317 166.013 -385.083 166.394 -385.956 166.645L-385.942 166.893C-384.972 166.877 -384.05 167.097 -383.176 167.552C-382.295 168.006 -381.562 168.673 -380.979 169.551C-380.397 170.422 -380.069 171.482 -379.995 172.731C-379.916 174.079 -380.18 175.302 -380.787 176.4C-381.387 177.49 -382.318 178.379 -383.581 179.068C-384.844 179.756 -386.426 180.157 -388.329 180.269L-399.185 180.908ZM-394.072 176.199L-389.692 175.941C-388.195 175.853 -387.119 175.504 -386.467 174.892C-385.814 174.273 -385.516 173.483 -385.573 172.524C-385.614 171.821 -385.82 171.21 -386.191 170.693C-386.562 170.175 -387.071 169.782 -387.717 169.513C-388.356 169.243 -389.105 169.134 -389.965 169.184L-394.469 169.45L-394.072 176.199ZM-394.683 165.814L-390.701 165.58C-389.964 165.536 -389.318 165.37 -388.763 165.08C-388.199 164.781 -387.766 164.382 -387.464 163.883C-387.153 163.383 -387.017 162.798 -387.057 162.128C-387.111 161.21 -387.481 160.489 -388.168 159.965C-388.846 159.44 -389.781 159.213 -390.972 159.283L-395.054 159.524L-394.683 165.814ZM-372.21 153.82L-370.713 179.231L-376.086 179.547L-377.583 154.137L-372.21 153.82ZM-366.293 178.97L-367.79 153.56L-362.418 153.243L-361.182 174.224L-350.288 173.583L-350.027 178.012L-366.293 178.97ZM-341.441 177.506L-347.198 177.845L-339.923 151.918L-333 151.51L-322.743 176.405L-328.5 176.744L-336.02 157.515L-336.218 157.527L-341.441 177.506ZM-342.389 167.539L-328.791 166.738L-328.543 170.932L-342.142 171.733L-342.389 167.539ZM-319.684 176.224L-321.181 150.814L-311.007 150.214C-309.138 150.104 -307.562 150.29 -306.281 150.77C-304.999 151.251 -304.015 151.965 -303.328 152.912C-302.642 153.851 -302.262 154.957 -302.186 156.231C-302.128 157.224 -302.275 158.108 -302.628 158.884C-302.981 159.652 -303.491 160.296 -304.157 160.817C-304.816 161.329 -305.582 161.71 -306.456 161.961L-306.441 162.209C-305.471 162.194 -304.549 162.413 -303.675 162.868C-302.794 163.322 -302.061 163.989 -301.478 164.868C-300.896 165.738 -300.568 166.798 -300.494 168.047C-300.415 169.395 -300.679 170.618 -301.287 171.717C-301.886 172.806 -302.818 173.695 -304.08 174.384C-305.343 175.072 -306.925 175.473 -308.828 175.585L-319.684 176.224ZM-314.571 171.516L-310.191 171.258C-308.694 171.169 -307.619 170.82 -306.966 170.208C-306.313 169.589 -306.015 168.8 -306.072 167.84C-306.113 167.137 -306.319 166.527 -306.69 166.009C-307.061 165.491 -307.57 165.098 -308.216 164.829C-308.855 164.559 -309.604 164.45 -310.464 164.501L-314.968 164.766L-314.571 171.516ZM-315.183 161.131L-311.2 160.896C-310.464 160.853 -309.818 160.686 -309.262 160.396C-308.699 160.097 -308.266 159.698 -307.963 159.199C-307.652 158.699 -307.516 158.114 -307.556 157.444C-307.61 156.526 -307.98 155.805 -308.667 155.281C-309.345 154.756 -310.28 154.529 -311.471 154.599L-315.553 154.84L-315.183 161.131ZM-283.867 155.949C-284.025 154.954 -284.497 154.201 -285.282 153.691C-286.067 153.182 -287.105 152.965 -288.396 153.041C-289.272 153.092 -290.005 153.26 -290.595 153.544C-291.184 153.819 -291.628 154.182 -291.925 154.631C-292.214 155.079 -292.342 155.577 -292.31 156.123C-292.3 156.578 -292.181 156.97 -291.955 157.297C-291.72 157.623 -291.409 157.9 -291.022 158.126C-290.636 158.344 -290.193 158.529 -289.694 158.683C-289.196 158.828 -288.666 158.946 -288.105 159.037L-285.789 159.449C-284.666 159.631 -283.63 159.902 -282.679 160.261C-281.728 160.62 -280.896 161.082 -280.182 161.646C-279.468 162.21 -278.901 162.89 -278.48 163.687C-278.052 164.483 -277.802 165.411 -277.731 166.469C-277.648 168.025 -277.965 169.396 -278.684 170.584C-279.395 171.763 -280.468 172.71 -281.903 173.426C-283.331 174.132 -285.078 174.547 -287.146 174.668C-289.198 174.789 -291.003 174.58 -292.562 174.041C-294.113 173.502 -295.35 172.641 -296.275 171.459C-297.192 170.268 -297.725 168.759 -297.874 166.934L-292.675 166.627C-292.567 167.476 -292.281 168.173 -291.817 168.718C-291.346 169.255 -290.737 169.647 -289.992 169.893C-289.24 170.131 -288.4 170.223 -287.474 170.168C-286.564 170.115 -285.782 169.936 -285.127 169.631C-284.465 169.327 -283.961 168.928 -283.617 168.434C-283.272 167.941 -283.118 167.388 -283.154 166.776C-283.188 166.205 -283.385 165.736 -283.747 165.367C-284.101 164.998 -284.609 164.695 -285.27 164.46C-285.923 164.225 -286.719 164.023 -287.659 163.854L-290.467 163.322C-292.64 162.927 -294.379 162.212 -295.685 161.177C-296.991 160.142 -297.696 158.685 -297.798 156.807C-297.897 155.269 -297.567 153.901 -296.807 152.702C-296.04 151.503 -294.947 150.538 -293.529 149.807C-292.111 149.076 -290.476 148.656 -288.623 148.547C-286.737 148.436 -285.072 148.662 -283.628 149.224C-282.175 149.786 -281.022 150.618 -280.169 151.722C-279.315 152.825 -278.831 154.133 -278.717 155.645L-283.867 155.949ZM-183.816 168.22L-192.824 168.75L-194.321 143.34L-185.239 142.805C-182.683 142.654 -180.453 143.033 -178.548 143.942C-176.644 144.842 -175.14 146.21 -174.036 148.046C-172.924 149.881 -172.29 152.118 -172.134 154.757C-171.978 157.404 -172.345 159.708 -173.233 161.67C-174.114 163.631 -175.455 165.175 -177.256 166.302C-179.049 167.428 -181.236 168.067 -183.816 168.22ZM-187.723 163.831L-184.311 163.63C-182.723 163.536 -181.404 163.176 -180.353 162.55C-179.295 161.915 -178.528 160.985 -178.052 159.762C-177.569 158.53 -177.383 156.967 -177.494 155.073C-177.605 153.195 -177.972 151.677 -178.597 150.519C-179.213 149.36 -180.079 148.531 -181.196 148.032C-182.313 147.534 -183.665 147.331 -185.253 147.425L-188.678 147.626L-187.723 163.831ZM-163.529 141.526L-162.032 166.936L-167.404 167.253L-168.902 141.842L-163.529 141.526ZM-157.612 166.676L-159.109 141.265L-148.935 140.666C-147.065 140.556 -145.49 140.741 -144.208 141.221C-142.927 141.702 -141.942 142.416 -141.256 143.363C-140.57 144.302 -140.189 145.409 -140.114 146.683C-140.056 147.675 -140.203 148.56 -140.555 149.336C-140.908 150.103 -141.418 150.748 -142.085 151.268C-142.744 151.78 -143.51 152.162 -144.383 152.412L-144.368 152.66C-143.398 152.645 -142.476 152.864 -141.603 153.319C-140.721 153.774 -139.989 154.44 -139.406 155.319C-138.823 156.189 -138.495 157.249 -138.422 158.498C-138.342 159.846 -138.606 161.07 -139.214 162.168C-139.814 163.257 -140.745 164.146 -142.008 164.835C-143.27 165.524 -144.853 165.924 -146.755 166.036L-157.612 166.676ZM-152.498 161.967L-148.118 161.709C-146.621 161.621 -145.546 161.271 -144.893 160.66C-144.241 160.04 -143.943 159.251 -143.999 158.291C-144.041 157.588 -144.247 156.978 -144.618 156.46C-144.989 155.942 -145.497 155.549 -146.144 155.28C-146.782 155.011 -147.532 154.901 -148.392 154.952L-152.896 155.217L-152.498 161.967ZM-153.11 151.582L-149.127 151.347C-148.391 151.304 -147.745 151.137 -147.19 150.847C-146.626 150.548 -146.193 150.149 -145.891 149.65C-145.58 149.15 -145.444 148.565 -145.483 147.895C-145.538 146.977 -145.908 146.256 -146.594 145.732C-147.273 145.208 -148.208 144.981 -149.399 145.051L-153.481 145.291L-153.11 151.582ZM-130.637 139.588L-129.14 164.998L-134.512 165.315L-136.009 139.904L-130.637 139.588ZM-124.72 164.738L-126.217 139.327L-120.844 139.011L-119.608 159.992L-108.714 159.35L-108.454 163.779L-124.72 164.738ZM-99.8675 163.274L-105.625 163.613L-98.3496 137.685L-91.4263 137.278L-81.1695 162.172L-86.9266 162.511L-94.4466 143.282L-94.6451 143.294L-99.8675 163.274ZM-100.816 153.307L-87.2172 152.506L-86.9702 156.699L-100.569 157.5L-100.816 153.307ZM-78.1111 161.992L-79.6081 136.581L-69.434 135.982C-67.5646 135.872 -65.9891 136.057 -64.7074 136.538C-63.4258 137.018 -62.4416 137.732 -61.755 138.679C-61.0688 139.618 -60.6882 140.725 -60.6132 141.999C-60.5547 142.991 -60.7018 143.876 -61.0545 144.652C-61.4077 145.42 -61.9175 146.064 -62.5841 146.585C-63.2429 147.096 -64.0089 147.478 -64.8823 147.728L-64.8677 147.977C-63.8975 147.961 -62.9756 148.181 -62.1022 148.635C-61.2205 149.09 -60.4881 149.756 -59.9052 150.635C-59.3226 151.505 -58.9946 152.565 -58.921 153.814C-58.8416 155.162 -59.1057 156.386 -59.7133 157.484C-60.3131 158.573 -61.2443 159.462 -62.5069 160.151C-63.7695 160.84 -65.352 161.24 -67.2545 161.352L-78.1111 161.992ZM-72.9974 157.283L-68.6176 157.025C-67.1204 156.937 -66.0454 156.587 -65.3924 155.976C-64.74 155.356 -64.442 154.567 -64.4986 153.607C-64.54 152.904 -64.7461 152.294 -65.1169 151.776C-65.4878 151.259 -65.9965 150.865 -66.6432 150.596C-67.2816 150.327 -68.0309 150.217 -68.8912 150.268L-73.3951 150.533L-72.9974 157.283ZM-73.6092 146.898L-69.6265 146.663C-68.8903 146.62 -68.2444 146.453 -67.6887 146.163C-67.1253 145.864 -66.6923 145.465 -66.3897 144.966C-66.0788 144.466 -65.9431 143.881 -65.9826 143.211C-66.0367 142.293 -66.407 141.572 -67.0936 141.048C-67.772 140.524 -68.7067 140.297 -69.8978 140.367L-73.9799 140.607L-73.6092 146.898ZM-42.2933 141.716C-42.4515 140.721 -42.9233 139.969 -43.7087 139.459C-44.4941 138.949 -45.5319 138.732 -46.8223 138.808C-47.6991 138.86 -48.4321 139.027 -49.0213 139.311C-49.611 139.587 -50.0545 139.949 -50.3518 140.398C-50.6407 140.847 -50.7691 141.344 -50.737 141.89C-50.7267 142.346 -50.6082 142.737 -50.3814 143.064C-50.1464 143.391 -49.8354 143.667 -49.4486 143.893C-49.0622 144.111 -48.6197 144.297 -48.1209 144.45C-47.6227 144.595 -47.0928 144.713 -46.5313 144.805L-44.2161 145.216C-43.0931 145.399 -42.0562 145.67 -41.1054 146.029C-40.1546 146.388 -39.3223 146.849 -38.6085 147.413C-37.8946 147.977 -37.3275 148.657 -36.907 149.454C-36.4782 150.251 -36.2286 151.178 -36.1579 152.236C-36.0746 153.792 -36.3922 155.164 -37.1107 156.351C-37.8215 157.531 -38.8945 158.478 -40.3298 159.193C-41.7574 159.9 -43.5051 160.314 -45.573 160.436C-47.6244 160.557 -49.4296 160.348 -50.9886 159.809C-52.5393 159.269 -53.777 158.408 -54.7016 157.226C-55.6184 156.035 -56.1513 154.527 -56.3004 152.701L-51.1017 152.395C-50.9936 153.243 -50.7076 153.94 -50.2439 154.486C-49.7724 155.022 -49.1641 155.414 -48.4191 155.661C-47.6664 155.898 -46.8268 155.99 -45.9004 155.936C-44.9905 155.882 -44.2084 155.703 -43.554 155.399C-42.8913 155.094 -42.3877 154.695 -42.0433 154.202C-41.6988 153.708 -41.5446 153.156 -41.5807 152.544C-41.6143 151.973 -41.8122 151.503 -42.1742 151.134C-42.528 150.765 -43.0355 150.463 -43.6968 150.228C-44.3498 149.992 -45.146 149.79 -46.0856 149.622L-48.8934 149.09C-51.0665 148.695 -52.806 147.98 -54.1121 146.945C-55.4181 145.909 -56.1223 144.452 -56.2247 142.574C-56.3236 141.036 -55.9934 139.668 -55.2339 138.47C-54.4662 137.271 -53.3735 136.306 -51.9557 135.575C-50.5379 134.844 -48.9026 134.424 -47.0497 134.314C-45.1638 134.203 -43.4987 134.429 -42.0545 134.991C-40.6021 135.553 -39.4491 136.386 -38.5955 137.489C-37.742 138.593 -37.2582 139.901 -37.1442 141.413L-42.2933 141.716ZM57.7569 153.987L48.749 154.518L47.252 129.107L56.3342 128.572C58.8902 128.421 61.1204 128.801 63.0249 129.709C64.9289 130.61 66.433 131.978 67.5372 133.814C68.6497 135.649 69.2837 137.886 69.4391 140.524C69.5951 143.171 69.2287 145.476 68.3399 147.437C67.4594 149.398 66.1185 150.942 64.3173 152.069C62.5244 153.196 60.3376 153.835 57.7569 153.987ZM53.8503 149.598L57.2623 149.397C58.8505 149.303 60.1698 148.943 61.2202 148.317C62.2785 147.682 63.0454 146.753 63.5212 145.53C64.0047 144.298 64.1907 142.734 64.0791 140.84C63.9685 138.963 63.601 137.444 62.9766 136.286C62.3605 135.127 61.4941 134.298 60.3774 133.8C59.2606 133.301 57.9082 133.098 56.32 133.192L52.8956 133.394L53.8503 149.598ZM78.0442 127.293L79.5413 152.703L74.1688 153.02L72.6717 127.61L78.0442 127.293ZM83.9614 152.443L82.4643 127.033L92.6384 126.433C94.5078 126.323 96.0834 126.508 97.365 126.989C98.6467 127.469 99.6309 128.183 100.317 129.131C101.004 130.07 101.384 131.176 101.459 132.45C101.518 133.443 101.371 134.327 101.018 135.103C100.665 135.871 100.155 136.515 99.4884 137.036C98.8296 137.548 98.0635 137.929 97.1902 138.18L97.2048 138.428C98.175 138.412 99.0968 138.632 99.9703 139.087C100.852 139.541 101.584 140.208 102.167 141.086C102.75 141.957 103.078 143.016 103.151 144.265C103.231 145.614 102.967 146.837 102.359 147.935C101.759 149.025 100.828 149.914 99.5655 150.602C98.303 151.291 96.7204 151.691 94.8179 151.803L83.9614 152.443ZM89.0751 147.734L93.4549 147.476C94.9521 147.388 96.0271 147.038 96.68 146.427C97.3325 145.808 97.6304 145.018 97.5739 144.059C97.5325 143.356 97.3264 142.745 96.9555 142.228C96.5847 141.71 96.076 141.317 95.4293 141.048C94.7909 140.778 94.0416 140.669 93.1813 140.719L88.6774 140.985L89.0751 147.734ZM88.4632 137.349L92.446 137.115C93.1822 137.071 93.8281 136.905 94.3837 136.614C94.9472 136.316 95.3802 135.917 95.6828 135.417C95.9936 134.918 96.1293 134.333 96.0899 133.663C96.0358 132.745 95.6654 132.024 94.9788 131.5C94.3005 130.975 93.3658 130.748 92.1747 130.818L88.0926 131.059L88.4632 137.349ZM110.936 125.355L112.433 150.766L107.061 151.082L105.564 125.672L110.936 125.355ZM116.854 150.505L115.357 125.095L120.729 124.778L121.965 145.759L132.859 145.117L133.12 149.547L116.854 150.505ZM141.706 149.041L135.949 149.38L143.224 123.453L150.147 123.045L160.404 147.939L154.647 148.279L147.127 129.05L146.928 129.061L141.706 149.041ZM140.757 139.074L154.356 138.273L154.603 142.467L141.005 143.268L140.757 139.074ZM163.462 147.759L161.965 122.349L172.139 121.749C174.009 121.639 175.584 121.824 176.866 122.305C178.148 122.786 179.132 123.5 179.818 124.447C180.504 125.386 180.885 126.492 180.96 127.766C181.019 128.759 180.871 129.643 180.519 130.419C180.166 131.187 179.656 131.831 178.989 132.352C178.33 132.864 177.564 133.245 176.691 133.496L176.706 133.744C177.676 133.728 178.598 133.948 179.471 134.403C180.353 134.857 181.085 135.524 181.668 136.402C182.251 137.273 182.579 138.333 182.652 139.582C182.732 140.93 182.468 142.153 181.86 143.251C181.26 144.341 180.329 145.23 179.066 145.918C177.804 146.607 176.221 147.007 174.319 147.12L163.462 147.759ZM168.576 143.05L172.956 142.792C174.453 142.704 175.528 142.354 176.181 141.743C176.833 141.124 177.131 140.334 177.075 139.375C177.033 138.672 176.827 138.061 176.456 137.544C176.086 137.026 175.577 136.633 174.93 136.364C174.292 136.094 173.542 135.985 172.682 136.035L168.178 136.301L168.576 143.05ZM167.964 132.665L171.947 132.431C172.683 132.387 173.329 132.221 173.885 131.931C174.448 131.632 174.881 131.233 175.184 130.733C175.494 130.234 175.63 129.649 175.591 128.979C175.537 128.061 175.166 127.34 174.48 126.816C173.801 126.291 172.867 126.064 171.675 126.134L167.593 126.375L167.964 132.665ZM199.28 127.484C199.122 126.489 198.65 125.736 197.865 125.226C197.079 124.716 196.041 124.5 194.751 124.576C193.874 124.627 193.141 124.795 192.552 125.079C191.962 125.354 191.519 125.716 191.222 126.165C190.933 126.614 190.804 127.111 190.836 127.657C190.847 128.113 190.965 128.505 191.192 128.832C191.427 129.158 191.738 129.434 192.125 129.661C192.511 129.879 192.954 130.064 193.452 130.217C193.951 130.362 194.48 130.481 195.042 130.572L197.357 130.983C198.48 131.166 199.517 131.437 200.468 131.796C201.419 132.155 202.251 132.617 202.965 133.181C203.679 133.744 204.246 134.425 204.666 135.222C205.095 136.018 205.345 136.946 205.415 138.004C205.499 139.559 205.181 140.931 204.463 142.119C203.752 143.298 202.679 144.245 201.243 144.961C199.816 145.667 198.068 146.081 196 146.203C193.949 146.324 192.144 146.115 190.585 145.576C189.034 145.037 187.796 144.176 186.872 142.993C185.955 141.802 185.422 140.294 185.273 138.468L190.472 138.162C190.58 139.011 190.866 139.708 191.329 140.253C191.801 140.79 192.409 141.181 193.154 141.428C193.907 141.666 194.746 141.758 195.673 141.703C196.583 141.649 197.365 141.47 198.019 141.166C198.682 140.862 199.186 140.463 199.53 139.969C199.874 139.476 200.029 138.923 199.993 138.311C199.959 137.74 199.761 137.27 199.399 136.902C199.045 136.532 198.538 136.23 197.877 135.995C197.224 135.76 196.427 135.558 195.488 135.389L192.68 134.857C190.507 134.462 188.767 133.747 187.461 132.712C186.155 131.677 185.451 130.22 185.349 128.342C185.25 126.804 185.58 125.435 186.339 124.237C187.107 123.038 188.2 122.073 189.618 121.342C191.035 120.611 192.671 120.191 194.524 120.082C196.41 119.971 198.075 120.196 199.519 120.759C200.971 121.321 202.124 122.153 202.978 123.257C203.831 124.36 204.315 125.668 204.429 127.18L199.28 127.484ZM299.33 139.754L290.322 140.285L288.825 114.875L297.908 114.339C300.463 114.189 302.694 114.568 304.598 115.477C306.502 116.377 308.006 117.745 309.111 119.581C310.223 121.416 310.857 123.653 311.012 126.292C311.168 128.939 310.802 131.243 309.913 133.204C309.033 135.165 307.692 136.709 305.891 137.836C304.098 138.963 301.911 139.602 299.33 139.754ZM295.424 135.365L298.836 135.164C300.424 135.071 301.743 134.711 302.794 134.085C303.852 133.449 304.619 132.52 305.094 131.297C305.578 130.065 305.764 128.502 305.652 126.608C305.542 124.73 305.174 123.212 304.55 122.053C303.934 120.894 303.067 120.066 301.951 119.567C300.834 119.068 299.481 118.866 297.893 118.959L294.469 119.161L295.424 135.365ZM319.617 113.06L321.115 138.471L315.742 138.787L314.245 113.377L319.617 113.06ZM325.535 138.21L324.038 112.8L334.212 112.201C336.081 112.09 337.657 112.276 338.938 112.756C340.22 113.237 341.204 113.951 341.891 114.898C342.577 115.837 342.958 116.944 343.033 118.217C343.091 119.21 342.944 120.094 342.591 120.87C342.238 121.638 341.728 122.283 341.062 122.803C340.403 123.315 339.637 123.696 338.763 123.947L338.778 124.195C339.748 124.18 340.67 124.399 341.544 124.854C342.425 125.308 343.158 125.975 343.741 126.854C344.323 127.724 344.651 128.784 344.725 130.033C344.804 131.381 344.54 132.604 343.932 133.703C343.333 134.792 342.401 135.681 341.139 136.37C339.876 137.058 338.294 137.459 336.391 137.571L325.535 138.21ZM330.648 133.502L335.028 133.244C336.525 133.155 337.6 132.806 338.253 132.195C338.906 131.575 339.204 130.786 339.147 129.826C339.106 129.123 338.9 128.513 338.529 127.995C338.158 127.477 337.649 127.084 337.003 126.815C336.364 126.545 335.615 126.436 334.755 126.487L330.251 126.752L330.648 133.502ZM330.037 123.117L334.019 122.882C334.755 122.839 335.401 122.672 335.957 122.382C336.52 122.083 336.953 121.684 337.256 121.185C337.567 120.685 337.703 120.1 337.663 119.43C337.609 118.512 337.239 117.791 336.552 117.267C335.874 116.743 334.939 116.515 333.748 116.586L329.666 116.826L330.037 123.117ZM352.51 111.123L354.007 136.533L348.634 136.85L347.137 111.439L352.51 111.123ZM358.427 136.273L356.93 110.862L362.302 110.546L363.538 131.527L374.432 130.885L374.693 135.314L358.427 136.273ZM383.279 134.808L377.522 135.148L384.797 109.22L391.72 108.812L401.977 133.707L396.22 134.046L388.7 114.817L388.501 114.829L383.279 134.808ZM382.331 124.842L395.929 124.04L396.176 128.234L382.578 129.035L382.331 124.842ZM405.036 133.527L403.538 108.116L413.713 107.517C415.582 107.407 417.157 107.592 418.439 108.072C419.721 108.553 420.705 109.267 421.392 110.214C422.078 111.153 422.458 112.26 422.533 113.534C422.592 114.526 422.445 115.41 422.092 116.187C421.739 116.954 421.229 117.599 420.562 118.119C419.904 118.631 419.138 119.013 418.264 119.263L418.279 119.511C419.249 119.496 420.171 119.715 421.044 120.17C421.926 120.625 422.658 121.291 423.241 122.17C423.824 123.04 424.152 124.1 424.226 125.349C424.305 126.697 424.041 127.921 423.433 129.019C422.833 130.108 421.902 130.997 420.64 131.686C419.377 132.375 417.795 132.775 415.892 132.887L405.036 133.527ZM410.149 128.818L414.529 128.56C416.026 128.472 417.101 128.122 417.754 127.511C418.407 126.891 418.705 126.102 418.648 125.142C418.607 124.439 418.4 123.829 418.03 123.311C417.659 122.793 417.15 122.4 416.503 122.131C415.865 121.862 415.116 121.752 414.255 121.803L409.752 122.068L410.149 128.818ZM409.537 118.433L413.52 118.198C414.256 118.155 414.902 117.988 415.458 117.698C416.021 117.399 416.454 117 416.757 116.501C417.068 116.001 417.203 115.416 417.164 114.746C417.11 113.828 416.74 113.107 416.053 112.583C415.375 112.059 414.44 111.831 413.249 111.902L409.167 112.142L409.537 118.433ZM440.853 113.251C440.695 112.256 440.223 111.504 439.438 110.994C438.653 110.484 437.615 110.267 436.324 110.343C435.447 110.395 434.714 110.562 434.125 110.846C433.536 111.121 433.092 111.484 432.795 111.933C432.506 112.382 432.377 112.879 432.41 113.425C432.42 113.881 432.538 114.272 432.765 114.599C433 114.926 433.311 115.202 433.698 115.428C434.084 115.646 434.527 115.832 435.026 115.985C435.524 116.13 436.054 116.248 436.615 116.339L438.93 116.751C440.053 116.934 441.09 117.205 442.041 117.564C442.992 117.923 443.824 118.384 444.538 118.948C445.252 119.512 445.819 120.192 446.24 120.989C446.668 121.786 446.918 122.713 446.989 123.771C447.072 125.327 446.754 126.699 446.036 127.886C445.325 129.065 444.252 130.013 442.817 130.728C441.389 131.435 439.641 131.849 437.574 131.971C435.522 132.091 433.717 131.882 432.158 131.343C430.607 130.804 429.37 129.943 428.445 128.761C427.528 127.57 426.995 126.061 426.846 124.236L432.045 123.93C432.153 124.778 432.439 125.475 432.903 126.021C433.374 126.557 433.982 126.949 434.727 127.195C435.48 127.433 436.32 127.525 437.246 127.47C438.156 127.417 438.938 127.238 439.593 126.934C440.255 126.629 440.759 126.23 441.103 125.737C441.448 125.243 441.602 124.69 441.566 124.078C441.532 123.508 441.334 123.038 440.972 122.669C440.619 122.3 440.111 121.998 439.45 121.763C438.797 121.527 438.001 121.325 437.061 121.156L434.253 120.625C432.08 120.23 430.341 119.515 429.034 118.479C427.728 117.444 427.024 115.987 426.922 114.109C426.823 112.571 427.153 111.203 427.913 110.004C428.68 108.805 429.773 107.84 431.191 107.109C432.609 106.378 434.244 105.958 436.097 105.849C437.983 105.738 439.648 105.964 441.092 106.526C442.545 107.088 443.698 107.921 444.551 109.024C445.405 110.128 445.888 111.435 446.002 112.948L440.853 113.251ZM540.903 125.522L531.896 126.052L530.399 100.642L539.481 100.107C542.037 99.9563 544.267 100.335 546.171 101.244C548.076 102.145 549.58 103.513 550.684 105.348C551.796 107.184 552.43 109.421 552.586 112.059C552.742 114.706 552.375 117.01 551.486 118.972C550.606 120.933 549.265 122.477 547.464 123.604C545.671 124.73 543.484 125.37 540.903 125.522ZM536.997 121.133L540.409 120.932C541.997 120.838 543.316 120.478 544.367 119.852C545.425 119.217 546.192 118.288 546.668 117.064C547.151 115.832 547.337 114.269 547.226 112.375C547.115 110.497 546.748 108.979 546.123 107.821C545.507 106.662 544.641 105.833 543.524 105.334C542.407 104.836 541.055 104.633 539.467 104.727L536.042 104.929L536.997 121.133ZM561.191 98.8278L562.688 124.238L557.315 124.555L555.818 99.1443L561.191 98.8278ZM567.108 123.978L565.611 98.5674L575.785 97.968C577.654 97.8578 579.23 98.0431 580.512 98.5237C581.793 99.0043 582.777 99.7182 583.464 100.666C584.15 101.605 584.531 102.711 584.606 103.985C584.664 104.977 584.517 105.862 584.165 106.638C583.811 107.406 583.302 108.05 582.635 108.571C581.976 109.083 581.21 109.464 580.337 109.715L580.351 109.963C581.322 109.947 582.243 110.167 583.117 110.622C583.999 111.076 584.731 111.742 585.314 112.621C585.896 113.492 586.224 114.551 586.298 115.8C586.377 117.149 586.113 118.372 585.506 119.47C584.906 120.56 583.975 121.449 582.712 122.137C581.45 122.826 579.867 123.226 577.965 123.338L567.108 123.978ZM572.222 119.269L576.601 119.011C578.099 118.923 579.174 118.573 579.827 117.962C580.479 117.342 580.777 116.553 580.72 115.593C580.679 114.89 580.473 114.28 580.102 113.762C579.731 113.245 579.223 112.851 578.576 112.582C577.937 112.313 577.188 112.203 576.328 112.254L571.824 112.519L572.222 119.269ZM571.61 108.884L575.593 108.649C576.329 108.606 576.975 108.439 577.53 108.149C578.094 107.85 578.527 107.451 578.829 106.952C579.14 106.452 579.276 105.868 579.236 105.198C579.182 104.279 578.812 103.558 578.125 103.034C577.447 102.51 576.512 102.283 575.321 102.353L571.239 102.593L571.61 108.884ZM594.083 96.8899L595.58 122.3L590.208 122.617L588.711 97.2064L594.083 96.8899ZM600 122.04L598.503 96.6295L603.876 96.313L605.112 117.294L616.005 116.652L616.266 121.082L600 122.04ZM624.852 120.576L619.095 120.915L626.37 94.9877L633.294 94.5798L643.55 119.474L637.793 119.813L630.273 100.585L630.075 100.596L624.852 120.576ZM623.904 110.609L637.503 109.808L637.75 114.002L624.151 114.803L623.904 110.609ZM646.609 119.294L645.112 93.8835L655.286 93.2841C657.155 93.1739 658.731 93.3592 660.012 93.8398C661.294 94.3204 662.278 95.0343 662.965 95.9816C663.651 96.9206 664.032 98.0271 664.107 99.3009C664.165 100.294 664.018 101.178 663.665 101.954C663.312 102.722 662.802 103.366 662.136 103.887C661.477 104.399 660.711 104.78 659.838 105.031L659.852 105.279C660.822 105.263 661.744 105.483 662.618 105.938C663.499 106.392 664.232 107.059 664.815 107.937C665.397 108.808 665.725 109.867 665.799 111.116C665.878 112.465 665.614 113.688 665.007 114.786C664.407 115.876 663.476 116.765 662.213 117.453C660.95 118.142 659.368 118.542 657.465 118.654L646.609 119.294ZM651.722 114.585L656.102 114.327C657.599 114.239 658.675 113.889 659.327 113.278C659.98 112.659 660.278 111.869 660.221 110.91C660.18 110.207 659.974 109.596 659.603 109.078C659.232 108.561 658.723 108.167 658.077 107.898C657.438 107.629 656.689 107.52 655.829 107.57L651.325 107.836L651.722 114.585ZM651.111 104.2L655.093 103.966C655.83 103.922 656.475 103.755 657.031 103.465C657.595 103.167 658.028 102.768 658.33 102.268C658.641 101.769 658.777 101.184 658.737 100.514C658.683 99.5955 658.313 98.8745 657.626 98.3505C656.948 97.826 656.013 97.5989 654.822 97.6691L650.74 97.9096L651.111 104.2ZM682.427 99.0184C682.268 98.0234 681.797 97.2709 681.011 96.7611C680.226 96.2512 679.188 96.0343 677.898 96.1103C677.021 96.162 676.288 96.3297 675.699 96.6134C675.109 96.8889 674.665 97.2512 674.368 97.7003C674.079 98.1489 673.951 98.6462 673.983 99.1922C673.993 99.6481 674.112 100.04 674.338 100.366C674.573 100.693 674.884 100.969 675.271 101.195C675.658 101.413 676.1 101.599 676.599 101.752C677.097 101.897 677.627 102.015 678.189 102.107L680.504 102.518C681.627 102.701 682.664 102.972 683.614 103.331C684.565 103.69 685.398 104.151 686.111 104.715C686.825 105.279 687.392 105.96 687.813 106.757C688.242 107.553 688.491 108.48 688.562 109.539C688.645 111.094 688.328 112.466 687.609 113.654C686.898 114.833 685.825 115.78 684.39 116.495C682.963 117.202 681.215 117.616 679.147 117.738C677.096 117.859 675.29 117.65 673.731 117.111C672.181 116.571 670.943 115.711 670.018 114.528C669.101 113.337 668.569 111.829 668.419 110.003L673.618 109.697C673.726 110.546 674.012 111.243 674.476 111.788C674.948 112.325 675.556 112.716 676.301 112.963C677.053 113.201 677.893 113.292 678.819 113.238C679.729 113.184 680.512 113.005 681.166 112.701C681.829 112.396 682.332 111.997 682.677 111.504C683.021 111.011 683.175 110.458 683.139 109.846C683.106 109.275 682.908 108.805 682.546 108.436C682.192 108.067 681.684 107.765 681.023 107.53C680.37 107.295 679.574 107.093 678.634 106.924L675.826 106.392C673.653 105.997 671.914 105.282 670.608 104.247C669.302 103.211 668.598 101.755 668.495 99.8765C668.396 98.3385 668.727 96.9702 669.486 95.7717C670.254 94.5728 671.346 93.6078 672.764 92.8768C674.182 92.1459 675.817 91.7258 677.67 91.6167C679.556 91.5055 681.221 91.7312 682.665 92.2935C684.118 92.8554 685.271 93.688 686.124 94.7915C686.978 95.8949 687.462 97.2028 687.576 98.715L682.427 99.0184ZM782.477 111.289L773.469 111.82L771.972 86.4094L781.054 85.8743C783.61 85.7237 785.84 86.1028 787.745 87.0115C789.649 87.912 791.153 89.2801 792.257 91.1158C793.37 92.951 794.004 95.188 794.159 97.8266C794.315 100.474 793.949 102.778 793.06 104.739C792.179 106.7 790.838 108.244 789.037 109.371C787.244 110.498 785.057 111.137 782.477 111.289ZM778.57 106.9L781.982 106.699C783.57 106.606 784.89 106.246 785.94 105.619C786.998 104.984 787.765 104.055 788.241 102.832C788.725 101.6 788.911 100.037 788.799 98.1424C788.688 96.2648 788.321 94.7467 787.696 93.5882C787.08 92.4293 786.214 91.6005 785.097 91.1018C783.981 90.6032 782.628 90.4007 781.04 90.4943L777.615 90.696L778.57 106.9ZM802.764 84.5952L804.261 110.006L798.889 110.322L797.392 84.9117L802.764 84.5952ZM808.681 109.745L807.184 84.3348L817.358 83.7354C819.228 83.6252 820.803 83.8105 822.085 84.2911C823.367 84.7717 824.351 85.4856 825.037 86.4329C825.724 87.3719 826.104 88.4784 826.179 89.7522C826.238 90.7448 826.091 91.6292 825.738 92.4053C825.385 93.1731 824.875 93.8174 824.208 94.3381C823.549 94.85 822.783 95.2313 821.91 95.482L821.925 95.7301C822.895 95.7144 823.817 95.934 824.69 96.3889C825.572 96.8433 826.304 97.5098 826.887 98.3885C827.47 99.2589 827.798 100.319 827.871 101.568C827.951 102.916 827.687 104.139 827.079 105.237C826.479 106.327 825.548 107.216 824.285 107.905C823.023 108.593 821.44 108.994 819.538 109.106L808.681 109.745ZM813.795 105.037L818.175 104.778C819.672 104.69 820.747 104.341 821.4 103.729C822.052 103.11 822.35 102.32 822.294 101.361C822.252 100.658 822.046 100.047 821.675 99.5298C821.305 99.0121 820.796 98.6187 820.149 98.3497C819.511 98.0802 818.761 97.9708 817.901 98.0215L813.397 98.2868L813.795 105.037ZM813.183 94.6515L817.166 94.4168C817.902 94.3734 818.548 94.2067 819.104 93.9167C819.667 93.6179 820.1 93.2188 820.403 92.7196C820.714 92.2199 820.849 91.635 820.81 90.965C820.756 90.0468 820.385 89.3258 819.699 88.8018C819.02 88.2773 818.086 88.0502 816.895 88.1204L812.812 88.3609L813.183 94.6515ZM835.656 82.6573L837.153 108.068L831.781 108.384L830.284 82.9738L835.656 82.6573ZM841.573 107.807L840.076 82.3969L845.449 82.0804L846.685 103.061L857.579 102.42L857.84 106.849L841.573 107.807ZM866.426 106.343L860.669 106.682L867.944 80.7551L874.867 80.3472L885.124 105.242L879.367 105.581L871.847 86.352L871.648 86.3637L866.426 106.343ZM865.477 96.3764L879.076 95.5752L879.323 99.7689L865.724 100.57L865.477 96.3764ZM888.182 105.061L886.685 79.6509L896.859 79.0515C898.729 78.9413 900.304 79.1266 901.586 79.6072C902.867 80.0878 903.852 80.8017 904.538 81.749C905.224 82.6881 905.605 83.7945 905.68 85.0683C905.738 86.0609 905.591 86.9453 905.239 87.7214C904.885 88.4892 904.376 89.1335 903.709 89.6542C903.05 90.1661 902.284 90.5474 901.411 90.7981L901.425 91.0462C902.396 91.0306 903.318 91.2502 904.191 91.705C905.073 92.1594 905.805 92.8259 906.388 93.7046C906.971 94.575 907.299 95.6348 907.372 96.8838C907.452 98.232 907.187 99.4553 906.58 100.554C905.98 101.643 905.049 102.532 903.786 103.221C902.524 103.909 900.941 104.31 899.039 104.422L888.182 105.061ZM893.296 100.353L897.676 100.095C899.173 100.006 900.248 99.6567 900.901 99.0455C901.553 98.426 901.851 97.6365 901.795 96.677C901.753 95.9739 901.547 95.3635 901.176 94.8459C900.805 94.3282 900.297 93.9348 899.65 93.6658C899.012 93.3963 898.262 93.2869 897.402 93.3376L892.898 93.603L893.296 100.353ZM892.684 89.9676L896.667 89.7329C897.403 89.6895 898.049 89.5228 898.604 89.2328C899.168 88.934 899.601 88.535 899.903 88.0357C900.214 87.536 900.35 86.9511 900.311 86.2811C900.256 85.3629 899.886 84.6419 899.2 84.1179C898.521 83.5934 897.586 83.3663 896.395 83.4365L892.313 83.677L892.684 89.9676ZM924 84.7858C923.842 83.7908 923.37 83.0383 922.584 82.5285C921.799 82.0186 920.761 81.8017 919.471 81.8778C918.594 81.9294 917.861 82.0971 917.272 82.3808C916.682 82.6563 916.239 83.0186 915.941 83.4677C915.652 83.9163 915.524 84.4136 915.556 84.9596C915.566 85.4155 915.685 85.8069 915.912 86.1339C916.147 86.4603 916.458 86.7367 916.845 86.9629C917.231 87.1808 917.673 87.3664 918.172 87.5196C918.67 87.6646 919.2 87.7828 919.762 87.8742L922.077 88.2856C923.2 88.4685 924.237 88.7394 925.188 89.0984C926.139 89.4574 926.971 89.9188 927.685 90.4827C928.399 91.0466 928.966 91.727 929.386 92.524C929.815 93.3204 930.065 94.2478 930.135 95.3061C930.219 96.8616 929.901 98.2333 929.182 99.4211C928.472 100.6 927.399 101.547 925.963 102.263C924.536 102.969 922.788 103.384 920.72 103.505C918.669 103.626 916.864 103.417 915.305 102.878C913.754 102.339 912.516 101.478 911.592 100.296C910.675 99.1046 910.142 97.5963 909.993 95.7707L915.191 95.4644C915.3 96.313 915.586 97.0099 916.049 97.5553C916.521 98.092 917.129 98.4836 917.874 98.7302C918.627 98.9681 919.466 99.0597 920.393 99.0052C921.303 98.9516 922.085 98.7727 922.739 98.4685C923.402 98.1639 923.905 97.7648 924.25 97.2714C924.594 96.778 924.749 96.2252 924.712 95.6131C924.679 95.0424 924.481 94.5726 924.119 94.2038C923.765 93.8346 923.258 93.5325 922.596 93.2975C921.943 93.0621 921.147 92.86 920.208 92.6912L917.4 92.1594C915.227 91.7645 913.487 91.0494 912.181 90.0141C910.875 88.9788 910.171 87.5221 910.068 85.6439C909.97 84.1059 910.3 82.7376 911.059 81.5391C911.827 80.3402 912.92 79.3752 914.337 78.6442C915.755 77.9133 917.391 77.4932 919.243 77.3841C921.129 77.2729 922.794 77.4986 924.239 78.0609C925.691 78.6228 926.844 79.4554 927.698 80.5589C928.551 81.6623 929.035 82.9702 929.149 84.4824L924 84.7858ZM1024.05 97.0565L1015.04 97.5873L1013.55 72.1768L1022.63 71.6417C1025.18 71.4911 1027.41 71.8702 1029.32 72.7789C1031.22 73.6794 1032.73 75.0475 1033.83 76.8832C1034.94 78.7184 1035.58 80.9554 1035.73 83.594C1035.89 86.241 1035.52 88.5451 1034.63 90.5066C1033.75 92.4675 1032.41 94.0115 1030.61 95.1386C1028.82 96.2652 1026.63 96.9045 1024.05 97.0565ZM1020.14 92.6676L1023.56 92.4665C1025.14 92.373 1026.46 92.013 1027.51 91.3867C1028.57 90.7516 1029.34 89.8225 1029.81 88.5992C1030.3 87.3671 1030.48 85.804 1030.37 83.9098C1030.26 82.0322 1029.89 80.5141 1029.27 79.3556C1028.65 78.1967 1027.79 77.3679 1026.67 76.8693C1025.55 76.3706 1024.2 76.1681 1022.61 76.2617L1019.19 76.4634L1020.14 92.6676ZM1044.34 70.3626L1045.83 95.7731L1040.46 96.0896L1038.96 70.6791L1044.34 70.3626ZM1050.25 95.5127L1048.76 70.1022L1058.93 69.5028C1060.8 69.3926 1062.38 69.5779 1063.66 70.0585C1064.94 70.5391 1065.92 71.253 1066.61 72.2003C1067.3 73.1393 1067.68 74.2458 1067.75 75.5196C1067.81 76.5122 1067.66 77.3966 1067.31 78.1727C1066.96 78.9405 1066.45 79.5848 1065.78 80.1055C1065.12 80.6174 1064.36 80.9987 1063.48 81.2494L1063.5 81.4975C1064.47 81.4818 1065.39 81.7014 1066.26 82.1563C1067.15 82.6107 1067.88 83.2772 1068.46 84.1559C1069.04 85.0263 1069.37 86.086 1069.44 87.3351C1069.52 88.6833 1069.26 89.9066 1068.65 91.0048C1068.05 92.0943 1067.12 92.9834 1065.86 93.672C1064.6 94.3606 1063.01 94.761 1061.11 94.873L1050.25 95.5127ZM1055.37 90.8039L1059.75 90.5459C1061.25 90.4577 1062.32 90.108 1062.97 89.4968C1063.63 88.8773 1063.92 88.0878 1063.87 87.1283C1063.83 86.4252 1063.62 85.8148 1063.25 85.2972C1062.88 84.7795 1062.37 84.3861 1061.72 84.1171C1061.08 83.8476 1060.33 83.7382 1059.47 83.7889L1054.97 84.0542L1055.37 90.8039ZM1054.76 80.4189L1058.74 80.1842C1059.48 80.1408 1060.12 79.9741 1060.68 79.6841C1061.24 79.3853 1061.67 78.9862 1061.98 78.487C1062.29 77.9873 1062.42 77.4024 1062.38 76.7324C1062.33 75.8142 1061.96 75.0932 1061.27 74.5692C1060.59 74.0447 1059.66 73.8176 1058.47 73.8878L1054.39 74.1283L1054.76 80.4189ZM1077.23 68.4247L1078.73 93.8352L1073.35 94.1517L1071.86 68.7412L1077.23 68.4247ZM1083.15 93.5748L1081.65 68.1643L1087.02 67.8478L1088.26 88.8288L1099.15 88.187L1099.41 92.6164L1083.15 93.5748ZM1108 92.1106L1102.24 92.4498L1109.52 66.5225L1116.44 66.1146L1126.7 91.009L1120.94 91.3482L1113.42 72.1194L1113.22 72.1311L1108 92.1106ZM1107.05 82.1438L1120.65 81.3426L1120.9 85.5363L1107.3 86.3375L1107.05 82.1438ZM1129.76 90.8288L1128.26 65.4183L1138.43 64.8189C1140.3 64.7087 1141.88 64.894 1143.16 65.3746C1144.44 65.8552 1145.42 66.5692 1146.11 67.5164C1146.8 68.4555 1147.18 69.5619 1147.25 70.8357C1147.31 71.8283 1147.16 72.7127 1146.81 73.4888C1146.46 74.2566 1145.95 74.9009 1145.28 75.4216C1144.62 75.9335 1143.86 76.3148 1142.98 76.5655L1143 76.8136C1143.97 76.798 1144.89 77.0176 1145.76 77.4724C1146.65 77.9268 1147.38 78.5933 1147.96 79.472C1148.54 80.3424 1148.87 81.4022 1148.95 82.6512C1149.02 83.9995 1148.76 85.2227 1148.15 86.321C1147.55 87.4104 1146.62 88.2995 1145.36 88.9881C1144.1 89.6767 1142.51 90.0771 1140.61 90.1892L1129.76 90.8288ZM1134.87 86.12L1139.25 85.862C1140.75 85.7738 1141.82 85.4241 1142.47 84.8129C1143.13 84.1934 1143.42 83.4039 1143.37 82.4444C1143.33 81.7413 1143.12 81.1309 1142.75 80.6133C1142.38 80.0956 1141.87 79.7022 1141.22 79.4332C1140.58 79.1637 1139.84 79.0543 1138.98 79.105L1134.47 79.3704L1134.87 86.12ZM1134.26 75.735L1138.24 75.5003C1138.98 75.4569 1139.62 75.2902 1140.18 75.0002C1140.74 74.7014 1141.17 74.3024 1141.48 73.8031C1141.79 73.3034 1141.92 72.7185 1141.88 72.0485C1141.83 71.1303 1141.46 70.4093 1140.77 69.8853C1140.09 69.3609 1139.16 69.1337 1137.97 69.2039L1133.89 69.4444L1134.26 75.735ZM1165.57 70.5532C1165.41 69.5582 1164.94 68.8058 1164.16 68.2959C1163.37 67.786 1162.33 67.5691 1161.04 67.6452C1160.17 67.6968 1159.43 67.8645 1158.85 68.1482C1158.26 68.4237 1157.81 68.786 1157.51 69.2351C1157.23 69.6837 1157.1 70.181 1157.13 70.727C1157.14 71.1829 1157.26 71.5743 1157.49 71.9013C1157.72 72.2277 1158.03 72.5041 1158.42 72.7303C1158.8 72.9482 1159.25 73.1338 1159.75 73.2871C1160.24 73.432 1160.77 73.5502 1161.34 73.6416L1163.65 74.053C1164.77 74.2359 1165.81 74.5068 1166.76 74.8658C1167.71 75.2248 1168.54 75.6862 1169.26 76.2501C1169.97 76.814 1170.54 77.4944 1170.96 78.2914C1171.39 79.0878 1171.64 80.0152 1171.71 81.0735C1171.79 82.6291 1171.47 84.0007 1170.76 85.1885C1170.04 86.3675 1168.97 87.3147 1167.54 88.0301C1166.11 88.7368 1164.36 89.151 1162.29 89.2728C1160.24 89.3937 1158.44 89.1846 1156.88 88.6456C1155.33 88.1062 1154.09 87.2453 1153.16 86.063C1152.25 84.872 1151.72 83.3637 1151.57 81.5381L1156.76 81.2318C1156.87 82.0804 1157.16 82.7773 1157.62 83.3228C1158.09 83.8594 1158.7 84.251 1159.45 84.4976C1160.2 84.7355 1161.04 84.8272 1161.97 84.7726C1162.88 84.719 1163.66 84.5401 1164.31 84.2359C1164.98 83.9313 1165.48 83.5322 1165.82 83.0388C1166.17 82.5454 1166.32 81.9926 1166.29 81.3805C1166.25 80.8098 1166.05 80.34 1165.69 79.9712C1165.34 79.602 1164.83 79.2999 1164.17 79.0649C1163.52 78.8295 1162.72 78.6274 1161.78 78.4586L1158.97 77.9268C1156.8 77.5319 1155.06 76.8168 1153.75 75.7815C1152.45 74.7462 1151.74 73.2895 1151.64 71.4113C1151.54 69.8733 1151.87 68.505 1152.63 67.3066C1153.4 66.1076 1154.49 65.1426 1155.91 64.4116C1157.33 63.6807 1158.96 63.2606 1160.82 63.1515C1162.7 63.0403 1164.37 63.266 1165.81 63.8283C1167.26 64.3902 1168.42 65.2228 1169.27 66.3263C1170.12 67.4297 1170.61 68.7376 1170.72 70.2498L1165.57 70.5532ZM1265.62 82.8239L1256.62 83.3547L1255.12 57.9442L1264.2 57.4091C1266.76 57.2585 1268.99 57.6376 1270.89 58.5463C1272.8 59.4468 1274.3 60.8149 1275.4 62.6506C1276.52 64.4858 1277.15 66.7228 1277.31 69.3614C1277.46 72.0084 1277.1 74.3125 1276.21 76.274C1275.33 78.2349 1273.98 79.779 1272.18 80.906C1270.39 82.0326 1268.2 82.6719 1265.62 82.8239ZM1261.72 78.435L1265.13 78.2339C1266.72 78.1404 1268.04 77.7804 1269.09 77.1541C1270.14 76.519 1270.91 75.5899 1271.39 74.3666C1271.87 73.1346 1272.06 71.5714 1271.95 69.6772C1271.83 67.7996 1271.47 66.2815 1270.84 65.123C1270.23 63.9641 1269.36 63.1353 1268.24 62.6367C1267.13 62.138 1265.77 61.9355 1264.19 62.0291L1260.76 62.2308L1261.72 78.435ZM1285.91 56.13L1287.41 81.5405L1282.04 81.857L1280.54 56.4465L1285.91 56.13ZM1291.83 81.2801L1290.33 55.8696L1300.5 55.2702C1302.37 55.16 1303.95 55.3453 1305.23 55.8259C1306.51 56.3065 1307.5 57.0204 1308.18 57.9677C1308.87 58.9067 1309.25 60.0132 1309.33 61.287C1309.38 62.2796 1309.24 63.164 1308.88 63.9401C1308.53 64.7079 1308.02 65.3522 1307.35 65.8729C1306.7 66.3848 1305.93 66.7661 1305.06 67.0168L1305.07 67.2649C1306.04 67.2492 1306.96 67.4689 1307.84 67.9237C1308.72 68.3781 1309.45 69.0446 1310.03 69.9233C1310.62 70.7937 1310.94 71.8534 1311.02 73.1025C1311.1 74.4507 1310.83 75.674 1310.23 76.7723C1309.63 77.8617 1308.69 78.7508 1307.43 79.4394C1306.17 80.128 1304.59 80.5284 1302.68 80.6404L1291.83 81.2801ZM1296.94 76.5713L1301.32 76.3133C1302.82 76.2251 1303.89 75.8754 1304.55 75.2642C1305.2 74.6447 1305.5 73.8552 1305.44 72.8957C1305.4 72.1926 1305.19 71.5822 1304.82 71.0646C1304.45 70.5469 1303.94 70.1535 1303.3 69.8845C1302.66 69.615 1301.91 69.5056 1301.05 69.5563L1296.54 69.8216L1296.94 76.5713ZM1296.33 66.1863L1300.31 65.9516C1301.05 65.9082 1301.69 65.7415 1302.25 65.4515C1302.81 65.1527 1303.25 64.7536 1303.55 64.2544C1303.86 63.7547 1304 63.1698 1303.96 62.4998C1303.9 61.5816 1303.53 60.8606 1302.85 60.3366C1302.17 59.8121 1301.23 59.585 1300.04 59.6552L1295.96 59.8957L1296.33 66.1863ZM1318.8 54.1921L1320.3 79.6026L1314.93 79.9191L1313.43 54.5086L1318.8 54.1921ZM1324.72 79.3422L1323.22 53.9317L1328.6 53.6152L1329.83 74.5962L1340.73 73.9544L1340.99 78.3838L1324.72 79.3422ZM1349.57 77.878L1343.82 78.2172L1351.09 52.2899L1358.01 51.882L1368.27 76.7764L1362.51 77.1156L1354.99 57.8868L1354.79 57.8985L1349.57 77.878ZM1348.62 67.9112L1362.22 67.11L1362.47 71.3037L1348.87 72.1049L1348.62 67.9112ZM1371.33 76.5962L1369.83 51.1857L1380.01 50.5863C1381.88 50.4761 1383.45 50.6614 1384.73 51.142C1386.01 51.6226 1387 52.3366 1387.68 53.2838C1388.37 54.2229 1388.75 55.3293 1388.83 56.6031C1388.89 57.5957 1388.74 58.4801 1388.39 59.2562C1388.03 60.024 1387.52 60.6683 1386.86 61.189C1386.2 61.7009 1385.43 62.0822 1384.56 62.3329L1384.57 62.581C1385.54 62.5654 1386.46 62.785 1387.34 63.2398C1388.22 63.6942 1388.95 64.3607 1389.53 65.2394C1390.12 66.1098 1390.45 67.1696 1390.52 68.4186C1390.6 69.7669 1390.33 70.9901 1389.73 72.0884C1389.13 73.1778 1388.2 74.0669 1386.93 74.7555C1385.67 75.4441 1384.09 75.8445 1382.19 75.9566L1371.33 76.5962ZM1376.44 71.8874L1380.82 71.6294C1382.32 71.5412 1383.39 71.1915 1384.05 70.5803C1384.7 69.9608 1385 69.1713 1384.94 68.2118C1384.9 67.5087 1384.69 66.8983 1384.32 66.3807C1383.95 65.863 1383.44 65.4696 1382.8 65.2006C1382.16 64.9311 1381.41 64.8217 1380.55 64.8724L1376.04 65.1378L1376.44 71.8874ZM1375.83 61.5024L1379.81 61.2677C1380.55 61.2243 1381.2 61.0576 1381.75 60.7676C1382.31 60.4688 1382.75 60.0698 1383.05 59.5705C1383.36 59.0708 1383.5 58.4859 1383.46 57.8159C1383.4 56.8977 1383.03 56.1767 1382.35 55.6527C1381.67 55.1283 1380.73 54.9011 1379.54 54.9713L1375.46 55.2118L1375.83 61.5024ZM1407.15 56.3206C1406.99 55.3256 1406.52 54.5732 1405.73 54.0633C1404.95 53.5534 1403.91 53.3365 1402.62 53.4126C1401.74 53.4642 1401.01 53.6319 1400.42 53.9156C1399.83 54.1911 1399.39 54.5534 1399.09 55.0025C1398.8 55.4512 1398.67 55.9484 1398.7 56.4944C1398.71 56.9503 1398.83 57.3417 1399.06 57.6687C1399.29 57.9951 1399.6 58.2715 1399.99 58.4977C1400.38 58.7156 1400.82 58.9012 1401.32 59.0545C1401.82 59.1994 1402.35 59.3176 1402.91 59.409L1405.22 59.8204C1406.35 60.0033 1407.38 60.2742 1408.33 60.6332C1409.29 60.9922 1410.12 61.4536 1410.83 62.0175C1411.55 62.5814 1412.11 63.2618 1412.53 64.0588C1412.96 64.8552 1413.21 65.7826 1413.28 66.8409C1413.37 68.3965 1413.05 69.7681 1412.33 70.9559C1411.62 72.1349 1410.55 73.0821 1409.11 73.7975C1407.68 74.5042 1405.93 74.9184 1403.87 75.0402C1401.82 75.1611 1400.01 74.952 1398.45 74.4131C1396.9 73.8736 1395.66 73.0127 1394.74 71.8304C1393.82 70.6394 1393.29 69.1311 1393.14 67.3055L1398.34 66.9992C1398.45 67.8478 1398.73 68.5448 1399.2 69.0902C1399.67 69.6268 1400.28 70.0184 1401.02 70.2651C1401.77 70.5029 1402.61 70.5946 1403.54 70.54C1404.45 70.4864 1405.23 70.3075 1405.89 70.0033C1406.55 69.6987 1407.05 69.2996 1407.4 68.8062C1407.74 68.3128 1407.9 67.76 1407.86 67.1479C1407.83 66.5772 1407.63 66.1074 1407.27 65.7386C1406.91 65.3694 1406.4 65.0673 1405.74 64.8323C1405.09 64.5969 1404.29 64.3948 1403.35 64.226L1400.55 63.6942C1398.37 63.2993 1396.63 62.5842 1395.33 61.5489C1394.02 60.5136 1393.32 59.0569 1393.22 57.1787C1393.12 55.6407 1393.45 54.2724 1394.21 53.074C1394.97 51.875 1396.07 50.91 1397.48 50.179C1398.9 49.4481 1400.54 49.028 1402.39 48.9189C1404.28 48.8078 1405.94 49.0334 1407.39 49.5957C1408.84 50.1576 1409.99 50.9902 1410.84 52.0937C1411.7 53.1971 1412.18 54.505 1412.3 56.0172L1407.15 56.3206ZM1507.2 68.5914L1498.19 69.1221L1496.69 43.7116L1505.77 43.1765C1508.33 43.0259 1510.56 43.405 1512.46 44.3137C1514.37 45.2142 1515.87 46.5823 1516.98 48.418C1518.09 50.2532 1518.72 52.4902 1518.88 55.1288C1519.03 57.7758 1518.67 60.0799 1517.78 62.0414C1516.9 64.0023 1515.56 65.5464 1513.76 66.6734C1511.96 67.8 1509.78 68.4393 1507.2 68.5914ZM1503.29 64.2024L1506.7 64.0013C1508.29 63.9078 1509.61 63.5478 1510.66 62.9215C1511.72 62.2864 1512.49 61.3573 1512.96 60.134C1513.44 58.902 1513.63 57.3388 1513.52 55.4446C1513.41 53.567 1513.04 52.0489 1512.42 50.8904C1511.8 49.7315 1510.93 48.9027 1509.82 48.4041C1508.7 47.9054 1507.35 47.7029 1505.76 47.7965L1502.34 47.9982L1503.29 64.2024ZM1527.48 41.8974L1528.98 67.3079L1523.61 67.6244L1522.11 42.2139L1527.48 41.8974ZM1533.4 67.0475L1531.9 41.637L1542.08 41.0376C1543.95 40.9274 1545.52 41.1127 1546.8 41.5933C1548.09 42.0739 1549.07 42.7878 1549.76 43.7351C1550.44 44.6742 1550.82 45.7806 1550.9 47.0544C1550.96 48.047 1550.81 48.9314 1550.46 49.7075C1550.1 50.4753 1549.59 51.1196 1548.93 51.6403C1548.27 52.1522 1547.5 52.5335 1546.63 52.7842L1546.64 53.0323C1547.61 53.0167 1548.54 53.2363 1549.41 53.6911C1550.29 54.1455 1551.02 54.812 1551.61 55.6907C1552.19 56.5611 1552.52 57.6209 1552.59 58.8699C1552.67 60.2181 1552.41 61.4414 1551.8 62.5397C1551.2 63.6291 1550.27 64.5182 1549.01 65.2068C1547.74 65.8954 1546.16 66.2958 1544.26 66.4079L1533.4 67.0475ZM1538.51 62.3387L1542.89 62.0807C1544.39 61.9925 1545.47 61.6428 1546.12 61.0316C1546.77 60.4121 1547.07 59.6226 1547.01 58.6631C1546.97 57.96 1546.77 57.3496 1546.4 56.832C1546.02 56.3143 1545.52 55.9209 1544.87 55.6519C1544.23 55.3824 1543.48 55.273 1542.62 55.3237L1538.12 55.5891L1538.51 62.3387ZM1537.9 51.9537L1541.89 51.719C1542.62 51.6756 1543.27 51.5089 1543.82 51.2189C1544.39 50.9201 1544.82 50.5211 1545.12 50.0218C1545.43 49.5221 1545.57 48.9372 1545.53 48.2672C1545.48 47.349 1545.11 46.628 1544.42 46.104C1543.74 45.5795 1542.81 45.3524 1541.61 45.4226L1537.53 45.6631L1537.9 51.9537ZM1560.38 39.9595L1561.87 65.37L1556.5 65.6865L1555 40.2761L1560.38 39.9595ZM1566.29 65.1096L1564.8 39.6991L1570.17 39.3826L1571.4 60.3636L1582.3 59.7218L1582.56 64.1512L1566.29 65.1096ZM1591.15 63.6454L1585.39 63.9846L1592.66 38.0573L1599.59 37.6494L1609.84 62.5438L1604.09 62.883L1596.57 43.6542L1596.37 43.6659L1591.15 63.6454ZM1590.2 53.6786L1603.8 52.8774L1604.04 57.0711L1590.44 57.8723L1590.2 53.6786ZM1612.9 62.3636L1611.4 36.9531L1621.58 36.3537C1623.45 36.2435 1625.02 36.4288 1626.31 36.9094C1627.59 37.39 1628.57 38.104 1629.26 39.0512C1629.94 39.9903 1630.32 41.0967 1630.4 42.3705C1630.46 43.3631 1630.31 44.2475 1629.96 45.0236C1629.61 45.7914 1629.1 46.4357 1628.43 46.9564C1627.77 47.4683 1627 47.8496 1626.13 48.1003L1626.15 48.3484C1627.12 48.3328 1628.04 48.5524 1628.91 49.0072C1629.79 49.4616 1630.52 50.1281 1631.11 51.0068C1631.69 51.8772 1632.02 52.937 1632.09 54.186C1632.17 55.5343 1631.91 56.7575 1631.3 57.8558C1630.7 58.9452 1629.77 59.8343 1628.51 60.5229C1627.24 61.2115 1625.66 61.6119 1623.76 61.724L1612.9 62.3636ZM1618.02 57.6548L1622.4 57.3968C1623.89 57.3086 1624.97 56.9589 1625.62 56.3477C1626.27 55.7282 1626.57 54.9387 1626.51 53.9792C1626.47 53.2761 1626.27 52.6657 1625.9 52.1481C1625.53 51.6304 1625.02 51.237 1624.37 50.968C1623.73 50.6985 1622.98 50.5891 1622.12 50.6398L1617.62 50.9052L1618.02 57.6548ZM1617.4 47.2698L1621.39 47.0351C1622.12 46.9918 1622.77 46.825 1623.32 46.535C1623.89 46.2362 1624.32 45.8372 1624.62 45.3379C1624.93 44.8382 1625.07 44.2533 1625.03 43.5833C1624.98 42.6652 1624.61 41.9441 1623.92 41.4201C1623.24 40.8957 1622.31 40.6685 1621.12 40.7387L1617.03 40.9792L1617.4 47.2698ZM1648.72 42.088C1648.56 41.093 1648.09 40.3406 1647.3 39.8307C1646.52 39.3209 1645.48 39.1039 1644.19 39.18C1643.31 39.2316 1642.58 39.3993 1641.99 39.683C1641.4 39.9585 1640.96 40.3208 1640.66 40.7699C1640.37 41.2186 1640.24 41.7158 1640.28 42.2618C1640.29 42.7177 1640.4 43.1091 1640.63 43.4361C1640.87 43.7625 1641.18 44.0389 1641.56 44.2651C1641.95 44.483 1642.39 44.6686 1642.89 44.8219C1643.39 44.9668 1643.92 45.085 1644.48 45.1764L1646.8 45.5878C1647.92 45.7707 1648.96 46.0416 1649.91 46.4006C1650.86 46.7596 1651.69 47.2211 1652.4 47.7849C1653.12 48.3488 1653.69 49.0292 1654.11 49.8262C1654.53 50.6226 1654.78 51.55 1654.86 52.6083C1654.94 54.1639 1654.62 55.5355 1653.9 56.7233C1653.19 57.9023 1652.12 58.8495 1650.68 59.5649C1649.26 60.2716 1647.51 60.6858 1645.44 60.8076C1643.39 60.9285 1641.58 60.7194 1640.02 60.1805C1638.47 59.641 1637.24 58.7801 1636.31 57.5978C1635.39 56.4068 1634.86 54.8985 1634.71 53.0729L1639.91 52.7666C1640.02 53.6152 1640.31 54.3122 1640.77 54.8576C1641.24 55.3942 1641.85 55.7858 1642.59 56.0325C1643.35 56.2703 1644.19 56.362 1645.11 56.3074C1646.02 56.2538 1646.8 56.0749 1647.46 55.7707C1648.12 55.4661 1648.63 55.067 1648.97 54.5736C1649.31 54.0802 1649.47 53.5274 1649.43 52.9153C1649.4 52.3446 1649.2 51.8748 1648.84 51.506C1648.49 51.1368 1647.98 50.8347 1647.32 50.5997C1646.66 50.3643 1645.87 50.1622 1644.93 49.9934L1642.12 49.4616C1639.95 49.0667 1638.21 48.3516 1636.9 47.3163C1635.59 46.281 1634.89 44.8243 1634.79 42.9461C1634.69 41.4081 1635.02 40.0398 1635.78 38.8414C1636.55 37.6424 1637.64 36.6774 1639.06 35.9464C1640.48 35.2155 1642.11 34.7954 1643.96 34.6863C1645.85 34.5752 1647.51 34.8008 1648.96 35.3631C1650.41 35.925 1651.56 36.7576 1652.42 37.8611C1653.27 38.9645 1653.75 40.2724 1653.87 41.7846L1648.72 42.088Z" fill="white"/>
<path d="M243.696 110.164C243.929 109.204 245.266 109.128 245.607 110.056L249.971 121.952C250.08 122.25 250.324 122.478 250.628 122.567L262.269 125.984C263.171 126.249 263.242 127.499 262.376 127.865L251.197 132.579C250.905 132.702 250.689 132.957 250.614 133.265L247.627 145.579C247.394 146.54 246.057 146.616 245.717 145.688L241.353 133.791C241.244 133.494 241 133.265 240.696 133.176L229.055 129.76C228.152 129.495 228.081 128.244 228.948 127.879L240.127 123.165C240.419 123.042 240.635 122.787 240.71 122.479L243.696 110.164Z" fill="white"/>
<path d="M488.272 95.7549C488.505 94.7941 489.842 94.7181 490.183 95.6463L494.546 107.543C494.656 107.84 494.899 108.069 495.204 108.158L506.845 111.574C507.747 111.839 507.818 113.09 506.952 113.455L495.773 118.169C495.481 118.293 495.265 118.547 495.19 118.855L492.203 131.17C491.97 132.131 490.633 132.207 490.293 131.278L485.929 119.382C485.82 119.084 485.576 118.856 485.272 118.767L473.631 115.35C472.728 115.086 472.657 113.835 473.524 113.469L484.702 108.755C484.995 108.632 485.211 108.378 485.286 108.07L488.272 95.7549Z" fill="white"/>
<path d="M729.853 81.5219C730.086 80.5611 731.423 80.485 731.764 81.4132L736.128 93.3098C736.237 93.6074 736.481 93.8357 736.785 93.9249L748.426 97.3412C749.328 97.606 749.399 98.8567 748.533 99.2222L737.354 103.936C737.062 104.06 736.846 104.314 736.771 104.622L733.784 116.937C733.551 117.898 732.214 117.974 731.874 117.045L727.51 105.149C727.401 104.851 727.157 104.623 726.853 104.534L715.212 101.117C714.309 100.853 714.238 99.6019 715.105 99.2365L726.283 94.5222C726.576 94.399 726.792 94.1446 726.867 93.8365L729.853 81.5219Z" fill="white"/>
<path d="M971.434 67.2888C971.667 66.328 973.005 66.252 973.345 67.1802L977.709 79.0767C977.818 79.3744 978.062 79.6026 978.366 79.6919L990.007 83.1081C990.909 83.3729 990.98 84.6237 990.114 84.9891L978.935 89.7033C978.643 89.8265 978.427 90.0809 978.352 90.389L975.365 102.704C975.132 103.664 973.795 103.74 973.455 102.812L969.091 90.9158C968.982 90.6181 968.738 90.3899 968.434 90.3006L956.793 86.8843C955.89 86.6195 955.819 85.3688 956.686 85.0034L967.865 80.2892C968.157 80.166 968.373 79.9116 968.448 79.6034L971.434 67.2888Z" fill="white"/>
<path d="M1213.02 53.0558C1213.25 52.095 1214.59 52.0189 1214.93 52.9471L1219.29 64.8437C1219.4 65.1413 1219.64 65.3696 1219.95 65.4588L1231.59 68.8751C1232.49 69.1399 1232.56 70.3906 1231.7 70.756L1220.52 75.4703C1220.22 75.5935 1220.01 75.8479 1219.93 76.156L1216.95 88.4706C1216.71 89.4314 1215.38 89.5074 1215.04 88.5793L1210.67 76.6827C1210.56 76.3851 1210.32 76.1568 1210.02 76.0676L1198.37 72.6513C1197.47 72.3865 1197.4 71.1357 1198.27 70.7703L1209.45 66.0561C1209.74 65.9329 1209.95 65.6785 1210.03 65.3704L1213.02 53.0558Z" fill="white"/>
<path d="M3.11351 124.339C3.34652 123.378 4.68373 123.302 5.02417 124.23L9.38776 136.127C9.49694 136.424 9.7408 136.652 10.045 136.742L21.6862 140.158C22.5885 140.423 22.6597 141.674 21.7932 142.039L10.6144 146.753C10.3223 146.876 10.1059 147.131 10.0312 147.439L7.04469 159.754C6.81168 160.714 5.47447 160.79 5.13403 159.862L0.770435 147.966C0.661257 147.668 0.417401 147.44 0.113185 147.35L-11.528 143.934C-12.4303 143.669 -12.5015 142.419 -11.635 142.053L-0.456247 137.339C-0.164117 137.216 0.0522856 136.961 0.127009 136.653L3.11351 124.339Z" fill="white"/>
</svg>
