<svg width="1440" height="220" viewBox="0 0 1440 220" fill="none" xmlns="http://www.w3.org/2000/svg">
<rect x="-211.821" y="120.257" width="1668" height="92" transform="rotate(-3.37176 -211.821 120.257)" fill="#F16923"/>
<path d="M-285.825 185.722L-294.833 186.253L-296.33 160.843L-287.248 160.307C-284.692 160.157 -282.462 160.536 -280.557 161.445C-278.653 162.345 -277.149 163.713 -276.045 165.549C-274.932 167.384 -274.298 169.621 -274.143 172.26C-273.987 174.907 -274.353 177.211 -275.242 179.172C-276.123 181.133 -277.463 182.677 -279.265 183.804C-281.057 184.931 -283.244 185.57 -285.825 185.722ZM-289.732 181.333L-286.32 181.132C-284.731 181.039 -283.412 180.679 -282.362 180.053C-281.303 179.417 -280.536 178.488 -280.061 177.265C-279.577 176.033 -279.391 174.47 -279.503 172.576C-279.613 170.698 -279.981 169.18 -280.605 168.021C-281.221 166.862 -282.088 166.034 -283.205 165.535C-284.321 165.036 -285.674 164.834 -287.262 164.927L-290.686 165.129L-289.732 181.333ZM-265.538 159.028L-264.041 184.439L-269.413 184.755L-270.91 159.345L-265.538 159.028ZM-259.62 184.178L-261.118 158.768L-250.943 158.169C-249.074 158.058 -247.499 158.244 -246.217 158.724C-244.935 159.205 -243.951 159.919 -243.264 160.866C-242.578 161.805 -242.198 162.912 -242.123 164.185C-242.064 165.178 -242.211 166.062 -242.564 166.838C-242.917 167.606 -243.427 168.251 -244.093 168.771C-244.752 169.283 -245.518 169.664 -246.392 169.915L-246.377 170.163C-245.407 170.148 -244.485 170.367 -243.612 170.822C-242.73 171.276 -241.998 171.943 -241.415 172.822C-240.832 173.692 -240.504 174.752 -240.43 176.001C-240.351 177.349 -240.615 178.572 -241.223 179.671C-241.823 180.76 -242.754 181.649 -244.016 182.338C-245.279 183.026 -246.861 183.427 -248.764 183.539L-259.62 184.178ZM-254.507 179.47L-250.127 179.212C-248.63 179.123 -247.555 178.774 -246.902 178.163C-246.249 177.543 -245.951 176.754 -246.008 175.794C-246.049 175.091 -246.256 174.481 -246.626 173.963C-246.997 173.445 -247.506 173.052 -248.153 172.783C-248.791 172.513 -249.54 172.404 -250.401 172.455L-254.904 172.72L-254.507 179.47ZM-255.119 169.085L-251.136 168.85C-250.4 168.807 -249.754 168.64 -249.198 168.35C-248.635 168.051 -248.202 167.652 -247.899 167.153C-247.588 166.653 -247.453 166.068 -247.492 165.398C-247.546 164.48 -247.916 163.759 -248.603 163.235C-249.281 162.711 -250.216 162.483 -251.407 162.554L-255.489 162.794L-255.119 169.085ZM-232.646 157.091L-231.148 182.501L-236.521 182.818L-238.018 157.407L-232.646 157.091ZM-226.728 182.241L-228.225 156.83L-222.853 156.514L-221.617 177.495L-210.723 176.853L-210.462 181.282L-226.728 182.241ZM-201.876 180.776L-207.633 181.116L-200.358 155.188L-193.435 154.78L-183.178 179.675L-188.935 180.014L-196.455 160.785L-196.654 160.797L-201.876 180.776ZM-202.824 170.81L-189.226 170.008L-188.979 174.202L-202.577 175.003L-202.824 170.81ZM-180.12 179.495L-181.617 154.084L-171.443 153.485C-169.573 153.375 -167.998 153.56 -166.716 154.04C-165.434 154.521 -164.45 155.235 -163.764 156.182C-163.077 157.121 -162.697 158.228 -162.622 159.502C-162.563 160.494 -162.71 161.378 -163.063 162.155C-163.416 162.922 -163.926 163.567 -164.593 164.087C-165.251 164.599 -166.018 164.981 -166.891 165.231L-166.876 165.479C-165.906 165.464 -164.984 165.683 -164.111 166.138C-163.229 166.593 -162.497 167.259 -161.914 168.138C-161.331 169.008 -161.003 170.068 -160.93 171.317C-160.85 172.665 -161.114 173.889 -161.722 174.987C-162.322 176.076 -163.253 176.965 -164.516 177.654C-165.778 178.343 -167.361 178.743 -169.263 178.855L-180.12 179.495ZM-175.006 174.786L-170.626 174.528C-169.129 174.44 -168.054 174.09 -167.401 173.479C-166.749 172.859 -166.451 172.07 -166.507 171.11C-166.549 170.407 -166.755 169.797 -167.126 169.279C-167.496 168.761 -168.005 168.368 -168.652 168.099C-169.29 167.83 -170.039 167.72 -170.9 167.771L-175.404 168.036L-175.006 174.786ZM-175.618 164.401L-171.635 164.166C-170.899 164.123 -170.253 163.956 -169.697 163.666C-169.134 163.367 -168.701 162.968 -168.398 162.469C-168.087 161.969 -167.952 161.384 -167.991 160.714C-168.045 159.796 -168.416 159.075 -169.102 158.551C-169.781 158.027 -170.715 157.8 -171.906 157.87L-175.988 158.11L-175.618 164.401ZM-144.302 159.219C-144.46 158.224 -144.932 157.472 -145.717 156.962C-146.503 156.452 -147.541 156.235 -148.831 156.311C-149.708 156.363 -150.441 156.53 -151.03 156.814C-151.62 157.089 -152.063 157.452 -152.36 157.901C-152.649 158.35 -152.778 158.847 -152.746 159.393C-152.735 159.849 -152.617 160.24 -152.39 160.567C-152.155 160.894 -151.844 161.17 -151.457 161.396C-151.071 161.614 -150.628 161.8 -150.13 161.953C-149.631 162.098 -149.101 162.216 -148.54 162.307L-146.225 162.719C-145.102 162.902 -144.065 163.173 -143.114 163.532C-142.163 163.891 -141.331 164.352 -140.617 164.916C-139.903 165.48 -139.336 166.16 -138.916 166.957C-138.487 167.754 -138.237 168.681 -138.166 169.739C-138.083 171.295 -138.401 172.667 -139.119 173.854C-139.83 175.033 -140.903 175.981 -142.338 176.696C-143.766 177.403 -145.514 177.817 -147.582 177.939C-149.633 178.059 -151.438 177.85 -152.997 177.311C-154.548 176.772 -155.786 175.911 -156.71 174.729C-157.627 173.538 -158.16 172.029 -158.309 170.204L-153.11 169.898C-153.002 170.746 -152.716 171.443 -152.252 171.989C-151.781 172.525 -151.173 172.917 -150.428 173.163C-149.675 173.401 -148.835 173.493 -147.909 173.438C-146.999 173.385 -146.217 173.206 -145.563 172.902C-144.9 172.597 -144.396 172.198 -144.052 171.705C-143.707 171.211 -143.553 170.658 -143.589 170.046C-143.623 169.476 -143.821 169.006 -144.183 168.637C-144.537 168.268 -145.044 167.966 -145.705 167.731C-146.358 167.495 -147.155 167.293 -148.094 167.124L-150.902 166.593C-153.075 166.198 -154.815 165.483 -156.121 164.447C-157.427 163.412 -158.131 161.955 -158.233 160.077C-158.332 158.539 -158.002 157.171 -157.243 155.972C-156.475 154.773 -155.382 153.808 -153.964 153.077C-152.546 152.346 -150.911 151.926 -149.058 151.817C-147.172 151.706 -145.507 151.932 -144.063 152.494C-142.611 153.056 -141.458 153.889 -140.604 154.992C-139.751 156.096 -139.267 157.403 -139.153 158.916L-144.302 159.219ZM-44.2517 171.49L-53.2596 172.02L-54.7566 146.61L-45.6744 146.075C-43.1184 145.924 -40.8882 146.303 -38.9837 147.212C-37.0797 148.113 -35.5756 149.481 -34.4714 151.316C-33.3589 153.152 -32.7249 155.389 -32.5695 158.027C-32.4135 160.674 -32.7799 162.978 -33.6687 164.94C-34.5492 166.901 -35.8901 168.445 -37.6912 169.572C-39.4842 170.698 -41.671 171.338 -44.2517 171.49ZM-48.1583 167.101L-44.7463 166.9C-43.1581 166.806 -41.8388 166.446 -40.7884 165.82C-39.7301 165.185 -38.9631 164.256 -38.4874 163.032C-38.0039 161.8 -37.8179 160.237 -37.9295 158.343C-38.0401 156.465 -38.4076 154.947 -39.032 153.789C-39.6481 152.63 -40.5145 151.801 -41.6312 151.302C-42.748 150.804 -44.1004 150.601 -45.6885 150.695L-49.113 150.897L-48.1583 167.101ZM-23.9644 144.796L-22.4673 170.206L-27.8398 170.523L-29.3369 145.112L-23.9644 144.796ZM-18.0472 169.946L-19.5443 144.535L-9.37015 143.936C-7.50075 143.826 -5.92522 144.011 -4.64355 144.492C-3.36188 144.972 -2.37773 145.686 -1.69109 146.634C-1.00494 147.573 -0.624344 148.679 -0.549295 149.953C-0.490815 150.945 -0.63792 151.83 -0.990611 152.606C-1.34379 153.374 -1.85366 154.018 -2.52021 154.539C-3.17898 155.051 -3.94505 155.432 -4.81841 155.683L-4.80379 155.931C-3.83358 155.915 -2.91175 156.135 -2.03831 156.59C-1.15661 157.044 -0.424259 157.71 0.158732 158.589C0.741238 159.46 1.06928 160.519 1.14287 161.768C1.22231 163.117 0.958212 164.34 0.350587 165.438C-0.249252 166.528 -1.18046 167.417 -2.44305 168.105C-3.70563 168.794 -5.28817 169.194 -7.19064 169.306L-18.0472 169.946ZM-12.9335 165.237L-8.55368 164.979C-7.05651 164.891 -5.98147 164.541 -5.32855 163.93C-4.67612 163.311 -4.37817 162.521 -4.4347 161.562C-4.47612 160.858 -4.68224 160.248 -5.05305 159.73C-5.42387 159.213 -5.93261 158.819 -6.57929 158.55C-7.21769 158.281 -7.96702 158.171 -8.82727 158.222L-13.3312 158.487L-12.9335 165.237ZM-13.5454 154.852L-9.56257 154.617C-8.82639 154.574 -8.18049 154.407 -7.62485 154.117C-7.06143 153.818 -6.62842 153.419 -6.32582 152.92C-6.01495 152.42 -5.87925 151.836 -5.91872 151.166C-5.97282 150.247 -6.34316 149.526 -7.02976 149.002C-7.70809 148.478 -8.64281 148.251 -9.83393 148.321L-13.916 148.561L-13.5454 154.852ZM8.92776 142.858L10.4249 168.268L5.05242 168.585L3.55533 143.174L8.92776 142.858ZM14.845 168.008L13.3479 142.598L18.7203 142.281L19.9565 163.262L30.8502 162.62L31.1112 167.05L14.845 168.008ZM39.6972 166.544L33.9401 166.883L41.2151 140.956L48.1384 140.548L58.3952 165.442L52.6381 165.781L45.1181 146.553L44.9196 146.564L39.6972 166.544ZM38.7489 156.577L52.3475 155.776L52.5945 159.97L38.996 160.771L38.7489 156.577ZM61.4536 165.262L59.9566 139.851L70.1307 139.252C72.0001 139.142 73.5756 139.327 74.8573 139.808C76.1389 140.288 77.1231 141.002 77.8097 141.95C78.4959 142.889 78.8765 143.995 78.9515 145.269C79.01 146.262 78.8629 147.146 78.5102 147.922C78.157 148.69 77.6472 149.334 76.9806 149.855C76.3218 150.367 75.5558 150.748 74.6824 150.999L74.697 151.247C75.6672 151.231 76.5891 151.451 77.4625 151.906C78.3442 152.36 79.0766 153.027 79.6595 153.905C80.2421 154.776 80.5701 155.835 80.6437 157.084C80.7231 158.433 80.459 159.656 79.8514 160.754C79.2516 161.844 78.3203 162.733 77.0578 163.421C75.7952 164.11 74.2126 164.51 72.3102 164.622L61.4536 165.262ZM66.5673 160.553L70.9471 160.295C72.4443 160.207 73.5193 159.857 74.1723 159.246C74.8247 158.627 75.1226 157.837 75.0661 156.878C75.0247 156.175 74.8186 155.564 74.4478 155.046C74.0769 154.529 73.5682 154.135 72.9215 153.866C72.2831 153.597 71.5338 153.488 70.6735 153.538L66.1696 153.804L66.5673 160.553ZM65.9554 150.168L69.9382 149.934C70.6744 149.89 71.3203 149.723 71.876 149.433C72.4394 149.135 72.8724 148.736 73.175 148.236C73.4859 147.737 73.6216 147.152 73.5821 146.482C73.528 145.564 73.1577 144.842 72.4711 144.319C71.7927 143.794 70.858 143.567 69.6669 143.637L65.5848 143.878L65.9554 150.168ZM97.2714 144.986C97.1132 143.991 96.6414 143.239 95.856 142.729C95.0706 142.219 94.0328 142.002 92.7424 142.078C91.8656 142.13 91.1326 142.298 90.5434 142.581C89.9537 142.857 89.5102 143.219 89.2129 143.668C88.924 144.117 88.7956 144.614 88.8277 145.16C88.838 145.616 88.9565 146.008 89.1833 146.334C89.4183 146.661 89.7293 146.937 90.1161 147.163C90.5025 147.381 90.945 147.567 91.4438 147.72C91.942 147.865 92.4719 147.983 93.0334 148.075L95.3486 148.486C96.4716 148.669 97.5085 148.94 98.4593 149.299C99.4101 149.658 100.242 150.119 100.956 150.683C101.67 151.247 102.237 151.928 102.658 152.725C103.086 153.521 103.336 154.448 103.407 155.507C103.49 157.062 103.173 158.434 102.454 159.622C101.743 160.801 100.67 161.748 99.2349 162.463C97.8073 163.17 96.0596 163.584 93.9917 163.706C91.9403 163.827 90.1351 163.618 88.5761 163.079C87.0254 162.539 85.7877 161.679 84.8631 160.496C83.9463 159.305 83.4134 157.797 83.2643 155.971L88.463 155.665C88.5711 156.514 88.8571 157.211 89.3208 157.756C89.7923 158.293 90.4006 158.684 91.1456 158.931C91.8983 159.169 92.7379 159.26 93.6643 159.206C94.5742 159.152 95.3563 158.973 96.0107 158.669C96.6734 158.364 97.177 157.965 97.5214 157.472C97.8659 156.979 98.0201 156.426 97.984 155.814C97.9504 155.243 97.7525 154.773 97.3905 154.404C97.0367 154.035 96.5292 153.733 95.8679 153.498C95.2149 153.263 94.4187 153.061 93.4791 152.892L90.6713 152.36C88.4982 151.965 86.7587 151.25 85.4526 150.215C84.1466 149.179 83.4424 147.723 83.34 145.845C83.2411 144.307 83.5713 142.938 84.3308 141.74C85.0985 140.541 86.1912 139.576 87.609 138.845C89.0268 138.114 90.6621 137.694 92.515 137.585C94.4009 137.474 96.066 137.699 97.5102 138.262C98.9626 138.823 100.116 139.656 100.969 140.759C101.823 141.863 102.306 143.171 102.42 144.683L97.2714 144.986ZM197.322 157.257L188.314 157.788L186.817 132.377L195.899 131.842C198.455 131.692 200.685 132.071 202.59 132.98C204.494 133.88 205.998 135.248 207.102 137.084C208.214 138.919 208.848 141.156 209.004 143.795C209.16 146.442 208.793 148.746 207.905 150.707C207.024 152.668 205.683 154.212 203.882 155.339C202.089 156.466 199.902 157.105 197.322 157.257ZM193.415 152.868L196.827 152.667C198.415 152.574 199.734 152.214 200.785 151.587C201.843 150.952 202.61 150.023 203.086 148.8C203.569 147.568 203.755 146.005 203.644 144.11C203.533 142.233 203.166 140.715 202.541 139.556C201.925 138.397 201.059 137.568 199.942 137.07C198.825 136.571 197.473 136.369 195.885 136.462L192.46 136.664L193.415 152.868ZM217.609 130.563L219.106 155.974L213.734 156.29L212.236 130.88L217.609 130.563ZM223.526 155.713L222.029 130.303L232.203 129.703C234.073 129.593 235.648 129.778 236.93 130.259C238.211 130.74 239.196 131.454 239.882 132.401C240.568 133.34 240.949 134.446 241.024 135.72C241.082 136.713 240.935 137.597 240.583 138.373C240.23 139.141 239.72 139.785 239.053 140.306C238.394 140.818 237.628 141.199 236.755 141.45L236.769 141.698C237.74 141.682 238.662 141.902 239.535 142.357C240.417 142.811 241.149 143.478 241.732 144.357C242.315 145.227 242.643 146.287 242.716 147.536C242.796 148.884 242.532 150.107 241.924 151.205C241.324 152.295 240.393 153.184 239.13 153.873C237.868 154.561 236.285 154.962 234.383 155.074L223.526 155.713ZM228.64 151.005L233.02 150.746C234.517 150.658 235.592 150.309 236.245 149.697C236.897 149.078 237.195 148.288 237.139 147.329C237.097 146.626 236.891 146.015 236.52 145.498C236.149 144.98 235.641 144.587 234.994 144.318C234.356 144.048 233.606 143.939 232.746 143.989L228.242 144.255L228.64 151.005ZM228.028 140.619L232.011 140.385C232.747 140.341 233.393 140.175 233.948 139.885C234.512 139.586 234.945 139.187 235.247 138.688C235.558 138.188 235.694 137.603 235.655 136.933C235.6 136.015 235.23 135.294 234.544 134.77C233.865 134.245 232.93 134.018 231.739 134.088L227.657 134.329L228.028 140.619ZM250.501 128.625L251.998 154.036L246.626 154.352L245.129 128.942L250.501 128.625ZM256.418 153.775L254.921 128.365L260.294 128.048L261.53 149.029L272.424 148.388L272.684 152.817L256.418 153.775ZM281.27 152.311L275.513 152.65L282.788 126.723L289.712 126.315L299.968 151.21L294.211 151.549L286.691 132.32L286.493 132.332L281.27 152.311ZM280.322 142.344L293.921 141.543L294.168 145.737L280.569 146.538L280.322 142.344ZM303.027 151.029L301.53 125.619L311.704 125.019C313.573 124.909 315.149 125.095 316.431 125.575C317.712 126.056 318.696 126.77 319.383 127.717C320.069 128.656 320.45 129.762 320.525 131.036C320.583 132.029 320.436 132.913 320.083 133.689C319.73 134.457 319.22 135.101 318.554 135.622C317.895 136.134 317.129 136.515 316.256 136.766L316.27 137.014C317.241 136.999 318.162 137.218 319.036 137.673C319.917 138.127 320.65 138.794 321.233 139.673C321.815 140.543 322.143 141.603 322.217 142.852C322.296 144.2 322.032 145.423 321.425 146.522C320.825 147.611 319.894 148.5 318.631 149.189C317.368 149.877 315.786 150.278 313.883 150.39L303.027 151.029ZM308.141 146.321L312.52 146.063C314.018 145.974 315.093 145.625 315.746 145.013C316.398 144.394 316.696 143.605 316.639 142.645C316.598 141.942 316.392 141.332 316.021 140.814C315.65 140.296 315.141 139.903 314.495 139.634C313.856 139.364 313.107 139.255 312.247 139.306L307.743 139.571L308.141 146.321ZM307.529 135.936L311.512 135.701C312.248 135.658 312.894 135.491 313.449 135.201C314.013 134.902 314.446 134.503 314.748 134.004C315.059 133.504 315.195 132.919 315.155 132.249C315.101 131.331 314.731 130.61 314.044 130.086C313.366 129.561 312.431 129.334 311.24 129.404L307.158 129.645L307.529 135.936ZM338.845 130.754C338.686 129.759 338.215 129.006 337.429 128.497C336.644 127.987 335.606 127.77 334.316 127.846C333.439 127.897 332.706 128.065 332.117 128.349C331.527 128.624 331.083 128.987 330.786 129.436C330.497 129.884 330.369 130.382 330.401 130.928C330.411 131.383 330.53 131.775 330.757 132.102C330.992 132.428 331.303 132.705 331.689 132.931C332.076 133.149 332.518 133.334 333.017 133.488C333.515 133.633 334.045 133.751 334.607 133.842L336.922 134.254C338.045 134.436 339.082 134.707 340.033 135.066C340.983 135.425 341.816 135.887 342.53 136.451C343.243 137.015 343.811 137.695 344.231 138.492C344.66 139.288 344.909 140.216 344.98 141.274C345.063 142.83 344.746 144.201 344.027 145.389C343.317 146.568 342.243 147.515 340.808 148.231C339.381 148.937 337.633 149.352 335.565 149.473C333.514 149.594 331.708 149.385 330.149 148.846C328.599 148.307 327.361 147.446 326.436 146.264C325.52 145.073 324.987 143.564 324.838 141.739L330.036 141.432C330.144 142.281 330.43 142.978 330.894 143.523C331.366 144.06 331.974 144.452 332.719 144.698C333.472 144.936 334.311 145.028 335.238 144.973C336.147 144.92 336.93 144.741 337.584 144.437C338.247 144.132 338.75 143.733 339.095 143.239C339.439 142.746 339.593 142.193 339.557 141.581C339.524 141.01 339.326 140.541 338.964 140.172C338.61 139.803 338.102 139.5 337.441 139.266C336.788 139.03 335.992 138.828 335.052 138.659L332.245 138.127C330.072 137.733 328.332 137.017 327.026 135.982C325.72 134.947 325.016 133.49 324.913 131.612C324.814 130.074 325.145 128.706 325.904 127.507C326.672 126.308 327.765 125.343 329.182 124.612C330.6 123.881 332.235 123.461 334.088 123.352C335.974 123.241 337.639 123.467 339.083 124.029C340.536 124.591 341.689 125.423 342.542 126.527C343.396 127.63 343.88 128.938 343.994 130.45L338.845 130.754ZM438.895 143.025L429.887 143.555L428.39 118.145L437.472 117.61C440.028 117.459 442.258 117.838 444.163 118.747C446.067 119.647 447.571 121.015 448.675 122.851C449.788 124.686 450.422 126.923 450.577 129.562C450.733 132.209 450.367 134.513 449.478 136.475C448.597 138.436 447.257 139.98 445.455 141.107C443.662 142.233 441.476 142.873 438.895 143.025ZM434.988 138.636L438.4 138.435C439.988 138.341 441.308 137.981 442.358 137.355C443.416 136.72 444.183 135.79 444.659 134.567C445.143 133.335 445.329 131.772 445.217 129.878C445.106 128 444.739 126.482 444.115 125.324C443.498 124.165 442.632 123.336 441.515 122.837C440.399 122.339 439.046 122.136 437.458 122.23L434.034 122.431L434.988 138.636ZM459.182 116.331L460.679 141.741L455.307 142.058L453.81 116.647L459.182 116.331ZM465.099 141.481L463.602 116.07L473.776 115.471C475.646 115.361 477.221 115.546 478.503 116.026C479.785 116.507 480.769 117.221 481.455 118.168C482.142 119.107 482.522 120.214 482.597 121.488C482.656 122.48 482.509 123.365 482.156 124.141C481.803 124.909 481.293 125.553 480.626 126.073C479.968 126.585 479.202 126.967 478.328 127.217L478.343 127.466C479.313 127.45 480.235 127.669 481.108 128.124C481.99 128.579 482.722 129.245 483.305 130.124C483.888 130.994 484.216 132.054 484.289 133.303C484.369 134.651 484.105 135.875 483.497 136.973C482.897 138.062 481.966 138.951 480.704 139.64C479.441 140.329 477.858 140.729 475.956 140.841L465.099 141.481ZM470.213 136.772L474.593 136.514C476.09 136.426 477.165 136.076 477.818 135.465C478.47 134.845 478.768 134.056 478.712 133.096C478.67 132.393 478.464 131.783 478.094 131.265C477.723 130.747 477.214 130.354 476.567 130.085C475.929 129.816 475.18 129.706 474.319 129.757L469.815 130.022L470.213 136.772ZM469.601 126.387L473.584 126.152C474.32 126.109 474.966 125.942 475.522 125.652C476.085 125.353 476.518 124.954 476.821 124.455C477.132 123.955 477.267 123.37 477.228 122.7C477.174 121.782 476.803 121.061 476.117 120.537C475.438 120.013 474.504 119.786 473.313 119.856L469.231 120.096L469.601 126.387ZM492.074 114.393L493.571 139.803L488.199 140.12L486.702 114.709L492.074 114.393ZM497.992 139.543L496.494 114.132L501.867 113.816L503.103 134.797L513.997 134.155L514.258 138.584L497.992 139.543ZM522.844 138.079L517.087 138.418L524.362 112.49L531.285 112.083L541.542 136.977L535.785 137.316L528.265 118.087L528.066 118.099L522.844 138.079ZM521.895 128.112L535.494 127.311L535.741 131.504L522.143 132.306L521.895 128.112ZM544.6 136.797L543.103 111.386L553.277 110.787C555.147 110.677 556.722 110.862 558.004 111.343C559.286 111.823 560.27 112.537 560.956 113.484C561.642 114.423 562.023 115.53 562.098 116.804C562.157 117.796 562.009 118.681 561.657 119.457C561.304 120.225 560.794 120.869 560.127 121.39C559.468 121.902 558.702 122.283 557.829 122.533L557.844 122.782C558.814 122.766 559.736 122.986 560.609 123.44C561.491 123.895 562.223 124.561 562.806 125.44C563.389 126.31 563.717 127.37 563.79 128.619C563.87 129.967 563.606 131.191 562.998 132.289C562.398 133.378 561.467 134.268 560.204 134.956C558.942 135.645 557.359 136.045 555.457 136.157L544.6 136.797ZM549.714 132.088L554.094 131.83C555.591 131.742 556.666 131.392 557.319 130.781C557.971 130.161 558.269 129.372 558.213 128.412C558.171 127.709 557.965 127.099 557.594 126.581C557.224 126.064 556.715 125.67 556.068 125.401C555.43 125.132 554.68 125.022 553.82 125.073L549.316 125.338L549.714 132.088ZM549.102 121.703L553.085 121.468C553.821 121.425 554.467 121.258 555.023 120.968C555.586 120.669 556.019 120.27 556.322 119.771C556.632 119.271 556.768 118.687 556.729 118.017C556.675 117.098 556.304 116.377 555.618 115.853C554.939 115.329 554.005 115.102 552.813 115.172L548.731 115.412L549.102 121.703ZM580.418 116.521C580.26 115.526 579.788 114.774 579.003 114.264C578.217 113.754 577.179 113.537 575.889 113.613C575.012 113.665 574.279 113.833 573.69 114.116C573.1 114.392 572.657 114.754 572.36 115.203C572.071 115.652 571.942 116.149 571.974 116.695C571.985 117.151 572.103 117.542 572.33 117.869C572.565 118.196 572.876 118.472 573.263 118.698C573.649 118.916 574.092 119.102 574.59 119.255C575.089 119.4 575.618 119.518 576.18 119.61L578.495 120.021C579.618 120.204 580.655 120.475 581.606 120.834C582.557 121.193 583.389 121.654 584.103 122.218C584.817 122.782 585.384 123.462 585.804 124.259C586.233 125.056 586.483 125.983 586.553 127.042C586.637 128.597 586.319 129.969 585.601 131.157C584.89 132.336 583.817 133.283 582.381 133.998C580.954 134.705 579.206 135.119 577.138 135.241C575.087 135.362 573.282 135.153 571.723 134.614C570.172 134.074 568.934 133.213 568.01 132.031C567.093 130.84 566.56 129.332 566.411 127.506L571.61 127.2C571.718 128.048 572.004 128.745 572.467 129.291C572.939 129.827 573.547 130.219 574.292 130.466C575.045 130.704 575.884 130.795 576.811 130.741C577.721 130.687 578.503 130.508 579.157 130.204C579.82 129.899 580.324 129.5 580.668 129.007C581.012 128.513 581.167 127.961 581.131 127.349C581.097 126.778 580.899 126.308 580.537 125.939C580.183 125.57 579.676 125.268 579.015 125.033C578.362 124.797 577.565 124.595 576.626 124.427L573.818 123.895C571.645 123.5 569.905 122.785 568.599 121.75C567.293 120.714 566.589 119.258 566.487 117.379C566.388 115.841 566.718 114.473 567.477 113.275C568.245 112.076 569.338 111.111 570.756 110.38C572.173 109.649 573.809 109.229 575.662 109.119C577.547 109.008 579.213 109.234 580.657 109.796C582.109 110.358 583.262 111.191 584.116 112.294C584.969 113.398 585.453 114.706 585.567 116.218L580.418 116.521ZM680.468 128.792L671.46 129.323L669.963 103.912L679.045 103.377C681.601 103.227 683.832 103.606 685.736 104.514C687.64 105.415 689.144 106.783 690.249 108.619C691.361 110.454 691.995 112.691 692.15 115.329C692.306 117.976 691.94 120.281 691.051 122.242C690.171 124.203 688.83 125.747 687.029 126.874C685.236 128.001 683.049 128.64 680.468 128.792ZM676.562 124.403L679.974 124.202C681.562 124.108 682.881 123.748 683.932 123.122C684.99 122.487 685.757 121.558 686.232 120.335C686.716 119.103 686.902 117.539 686.79 115.645C686.68 113.768 686.312 112.25 685.688 111.091C685.072 109.932 684.205 109.103 683.089 108.605C681.972 108.106 680.619 107.904 679.031 107.997L675.607 108.199L676.562 124.403ZM700.755 102.098L702.253 127.509L696.88 127.825L695.383 102.415L700.755 102.098ZM706.673 127.248L705.176 101.838L715.35 101.238C717.219 101.128 718.795 101.313 720.076 101.794C721.358 102.275 722.342 102.988 723.029 103.936C723.715 104.875 724.096 105.981 724.171 107.255C724.229 108.248 724.082 109.132 723.729 109.908C723.376 110.676 722.866 111.32 722.2 111.841C721.541 112.353 720.775 112.734 719.901 112.985L719.916 113.233C720.886 113.217 721.808 113.437 722.682 113.892C723.563 114.346 724.296 115.013 724.879 115.891C725.461 116.762 725.789 117.821 725.863 119.07C725.942 120.419 725.678 121.642 725.07 122.74C724.471 123.83 723.539 124.719 722.277 125.407C721.014 126.096 719.432 126.496 717.529 126.608L706.673 127.248ZM711.786 122.539L716.166 122.281C717.663 122.193 718.738 121.843 719.391 121.232C720.044 120.613 720.342 119.823 720.285 118.864C720.244 118.161 720.038 117.55 719.667 117.033C719.296 116.515 718.787 116.122 718.141 115.853C717.502 115.583 716.753 115.474 715.893 115.524L711.389 115.79L711.786 122.539ZM711.175 112.154L715.157 111.92C715.893 111.876 716.539 111.71 717.095 111.419C717.658 111.121 718.091 110.722 718.394 110.222C718.705 109.723 718.841 109.138 718.801 108.468C718.747 107.55 718.377 106.829 717.69 106.305C717.012 105.78 716.077 105.553 714.886 105.623L710.804 105.864L711.175 112.154ZM733.648 100.16L735.145 125.571L729.772 125.887L728.275 100.477L733.648 100.16ZM739.565 125.31L738.068 99.8997L743.44 99.5832L744.676 120.564L755.57 119.922L755.831 124.352L739.565 125.31ZM764.417 123.846L758.66 124.185L765.935 98.2579L772.858 97.85L783.115 122.744L777.358 123.084L769.838 103.855L769.639 103.866L764.417 123.846ZM763.469 113.879L777.067 113.078L777.314 117.272L763.716 118.073L763.469 113.879ZM786.174 122.564L784.676 97.1537L794.851 96.5543C796.72 96.4441 798.295 96.6294 799.577 97.11C800.859 97.5906 801.843 98.3046 802.53 99.2519C803.216 100.191 803.596 101.297 803.671 102.571C803.73 103.564 803.583 104.448 803.23 105.224C802.877 105.992 802.367 106.636 801.7 107.157C801.042 107.669 800.276 108.05 799.402 108.301L799.417 108.549C800.387 108.533 801.309 108.753 802.182 109.208C803.064 109.662 803.796 110.329 804.379 111.207C804.962 112.078 805.29 113.138 805.364 114.387C805.443 115.735 805.179 116.958 804.571 118.056C803.971 119.146 803.04 120.035 801.778 120.724C800.515 121.412 798.933 121.812 797.03 121.925L786.174 122.564ZM791.287 117.855L795.667 117.597C797.164 117.509 798.239 117.159 798.892 116.548C799.545 115.929 799.843 115.139 799.786 114.18C799.745 113.477 799.538 112.866 799.168 112.349C798.797 111.831 798.288 111.438 797.641 111.169C797.003 110.899 796.254 110.79 795.393 110.84L790.89 111.106L791.287 117.855ZM790.675 107.47L794.658 107.236C795.394 107.192 796.04 107.026 796.596 106.736C797.159 106.437 797.592 106.038 797.895 105.539C798.206 105.039 798.341 104.454 798.302 103.784C798.248 102.866 797.878 102.145 797.191 101.621C796.513 101.096 795.578 100.869 794.387 100.939L790.305 101.18L790.675 107.47ZM821.991 102.289C821.833 101.294 821.361 100.541 820.576 100.031C819.79 99.5215 818.753 99.3045 817.462 99.3806C816.585 99.4322 815.852 99.5999 815.263 99.8836C814.674 100.159 814.23 100.521 813.933 100.971C813.644 101.419 813.515 101.916 813.548 102.462C813.558 102.918 813.676 103.31 813.903 103.637C814.138 103.963 814.449 104.239 814.836 104.466C815.222 104.684 815.665 104.869 816.164 105.022C816.662 105.167 817.192 105.286 817.753 105.377L820.068 105.788C821.191 105.971 822.228 106.242 823.179 106.601C824.13 106.96 824.962 107.422 825.676 107.986C826.39 108.549 826.957 109.23 827.378 110.027C827.806 110.823 828.056 111.751 828.127 112.809C828.21 114.364 827.892 115.736 827.174 116.924C826.463 118.103 825.39 119.05 823.955 119.766C822.527 120.472 820.779 120.886 818.712 121.008C816.66 121.129 814.855 120.92 813.296 120.381C811.745 119.842 810.508 118.981 809.583 117.798C808.666 116.607 808.133 115.099 807.984 113.273L813.183 112.967C813.291 113.816 813.577 114.513 814.041 115.058C814.512 115.595 815.12 115.986 815.865 116.233C816.618 116.471 817.458 116.563 818.384 116.508C819.294 116.454 820.076 116.275 820.731 115.971C821.393 115.667 821.897 115.268 822.241 114.774C822.586 114.281 822.74 113.728 822.704 113.116C822.67 112.545 822.472 112.075 822.11 111.707C821.757 111.337 821.249 111.035 820.588 110.8C819.935 110.565 819.139 110.363 818.199 110.194L815.391 109.662C813.218 109.267 811.479 108.552 810.172 107.517C808.866 106.482 808.162 105.025 808.06 103.147C807.961 101.609 808.291 100.24 809.051 99.042C809.818 97.843 810.911 96.878 812.329 96.1471C813.747 95.4161 815.382 94.996 817.235 94.8869C819.121 94.7758 820.786 95.0014 822.23 95.5637C823.682 96.1256 824.836 96.9582 825.689 98.0617C826.543 99.1652 827.026 100.473 827.14 101.985L821.991 102.289ZM922.041 114.559L913.034 115.09L911.537 89.6796L920.619 89.1445C923.175 88.9939 925.405 89.373 927.309 90.2817C929.213 91.1822 930.718 92.5503 931.822 94.386C932.934 96.2212 933.568 98.4582 933.724 101.097C933.88 103.744 933.513 106.048 932.624 108.009C931.744 109.97 930.403 111.514 928.602 112.641C926.809 113.768 924.622 114.407 922.041 114.559ZM918.135 110.17L921.547 109.969C923.135 109.876 924.454 109.516 925.505 108.89C926.563 108.254 927.33 107.325 927.806 106.102C928.289 104.87 928.475 103.307 928.364 101.413C928.253 99.535 927.886 98.0169 927.261 96.8584C926.645 95.6995 925.779 94.8707 924.662 94.3721C923.545 93.8734 922.193 93.6709 920.605 93.7645L917.18 93.9662L918.135 110.17ZM942.329 87.8654L943.826 113.276L938.453 113.592L936.956 88.1819L942.329 87.8654ZM948.246 113.015L946.749 87.605L956.923 87.0056C958.792 86.8954 960.368 87.0807 961.65 87.5613C962.931 88.0419 963.915 88.7559 964.602 89.7031C965.288 90.6422 965.669 91.7486 965.744 93.0224C965.802 94.015 965.655 94.8994 965.303 95.6755C964.949 96.4433 964.44 97.0876 963.773 97.6083C963.114 98.1202 962.348 98.5015 961.475 98.7522L961.489 99.0003C962.46 98.9847 963.381 99.2043 964.255 99.6591C965.137 100.113 965.869 100.78 966.452 101.659C967.034 102.529 967.362 103.589 967.436 104.838C967.515 106.186 967.251 107.409 966.644 108.508C966.044 109.597 965.113 110.486 963.85 111.175C962.588 111.863 961.005 112.264 959.103 112.376L948.246 113.015ZM953.36 108.307L957.739 108.049C959.237 107.96 960.312 107.611 960.965 107C961.617 106.38 961.915 105.591 961.858 104.631C961.817 103.928 961.611 103.318 961.24 102.8C960.869 102.282 960.361 101.889 959.714 101.62C959.075 101.35 958.326 101.241 957.466 101.292L952.962 101.557L953.36 108.307ZM952.748 97.9217L956.731 97.687C957.467 97.6437 958.113 97.4769 958.668 97.1869C959.232 96.8881 959.665 96.4891 959.967 95.9898C960.278 95.4901 960.414 94.9052 960.374 94.2352C960.32 93.3171 959.95 92.596 959.263 92.072C958.585 91.5476 957.65 91.3204 956.459 91.3906L952.377 91.6311L952.748 97.9217ZM975.221 85.9275L976.718 111.338L971.346 111.655L969.848 86.2441L975.221 85.9275ZM981.138 111.078L979.641 85.6671L985.014 85.3506L986.25 106.332L997.143 105.69L997.404 110.119L981.138 111.078ZM1005.99 109.613L1000.23 109.953L1007.51 84.0253L1014.43 83.6174L1024.69 108.512L1018.93 108.851L1011.41 89.6222L1011.21 89.6339L1005.99 109.613ZM1005.04 99.6466L1018.64 98.8454L1018.89 103.039L1005.29 103.84L1005.04 99.6466ZM1027.75 108.332L1026.25 82.9211L1036.42 82.3217C1038.29 82.2116 1039.87 82.3968 1041.15 82.8774C1042.43 83.358 1043.42 84.072 1044.1 85.0193C1044.79 85.9583 1045.17 87.0647 1045.24 88.3385C1045.3 89.3311 1045.16 90.2155 1044.8 90.9916C1044.45 91.7594 1043.94 92.4037 1043.27 92.9244C1042.61 93.4363 1041.85 93.8176 1040.98 94.0683L1040.99 94.3164C1041.96 94.3008 1042.88 94.5204 1043.76 94.9752C1044.64 95.4296 1045.37 96.0961 1045.95 96.9748C1046.54 97.8453 1046.86 98.905 1046.94 100.154C1047.02 101.502 1046.75 102.726 1046.14 103.824C1045.54 104.913 1044.61 105.802 1043.35 106.491C1042.09 107.18 1040.51 107.58 1038.6 107.692L1027.75 108.332ZM1032.86 103.623L1037.24 103.365C1038.74 103.277 1039.81 102.927 1040.47 102.316C1041.12 101.696 1041.42 100.907 1041.36 99.9472C1041.32 99.2441 1041.11 98.6338 1040.74 98.1161C1040.37 97.5984 1039.86 97.2051 1039.21 96.936C1038.58 96.6665 1037.83 96.5571 1036.97 96.6078L1032.46 96.8732L1032.86 103.623ZM1032.25 93.2378L1036.23 93.0031C1036.97 92.9598 1037.61 92.793 1038.17 92.503C1038.73 92.2042 1039.17 91.8052 1039.47 91.3059C1039.78 90.8062 1039.91 90.2213 1039.88 89.5513C1039.82 88.6332 1039.45 87.9121 1038.76 87.3881C1038.09 86.8637 1037.15 86.6365 1035.96 86.7067L1031.88 86.9472L1032.25 93.2378ZM1063.56 88.056C1063.41 87.061 1062.93 86.3086 1062.15 85.7987C1061.36 85.2889 1060.33 85.0719 1059.04 85.148C1058.16 85.1996 1057.43 85.3673 1056.84 85.651C1056.25 85.9265 1055.8 86.2888 1055.51 86.7379C1055.22 87.1866 1055.09 87.6839 1055.12 88.2298C1055.13 88.6857 1055.25 89.0771 1055.48 89.4041C1055.71 89.7305 1056.02 90.0069 1056.41 90.2331C1056.8 90.4511 1057.24 90.6366 1057.74 90.7899C1058.24 90.9348 1058.77 91.053 1059.33 91.1444L1061.64 91.5559C1062.76 91.7387 1063.8 92.0096 1064.75 92.3686C1065.7 92.7276 1066.54 93.1891 1067.25 93.7529C1067.96 94.3168 1068.53 94.9972 1068.95 95.7942C1069.38 96.5906 1069.63 97.518 1069.7 98.5763C1069.78 100.132 1069.47 101.504 1068.75 102.691C1068.04 103.87 1066.96 104.818 1065.53 105.533C1064.1 106.24 1062.35 106.654 1060.28 106.776C1058.23 106.896 1056.43 106.687 1054.87 106.148C1053.32 105.609 1052.08 104.748 1051.16 103.566C1050.24 102.375 1049.71 100.866 1049.56 99.0409L1054.76 98.7346C1054.86 99.5832 1055.15 100.28 1055.61 100.826C1056.09 101.362 1056.69 101.754 1057.44 102C1058.19 102.238 1059.03 102.33 1059.96 102.275C1060.87 102.222 1061.65 102.043 1062.3 101.739C1062.97 101.434 1063.47 101.035 1063.81 100.542C1064.16 100.048 1064.31 99.4955 1064.28 98.8834C1064.24 98.3126 1064.05 97.8428 1063.68 97.4741C1063.33 97.1048 1062.82 96.8027 1062.16 96.5677C1061.51 96.3323 1060.71 96.1302 1059.77 95.9614L1056.96 95.4296C1054.79 95.0347 1053.05 94.3196 1051.75 93.2843C1050.44 92.249 1049.74 90.7923 1049.63 88.9142C1049.53 87.3761 1049.86 86.0079 1050.62 84.8094C1051.39 83.6104 1052.48 82.6454 1053.9 81.9145C1055.32 81.1835 1056.96 80.7634 1058.81 80.6543C1060.69 80.5432 1062.36 80.7688 1063.8 81.3311C1065.26 81.893 1066.41 82.7256 1067.26 83.8291C1068.12 84.9326 1068.6 86.2404 1068.71 87.7527L1063.56 88.056ZM1163.61 100.327L1154.61 100.857L1153.11 75.447L1162.19 74.9119C1164.75 74.7613 1166.98 75.1404 1168.88 76.0491C1170.79 76.9496 1172.29 78.3177 1173.4 80.1534C1174.51 81.9886 1175.14 84.2256 1175.3 86.8642C1175.45 89.5112 1175.09 91.8154 1174.2 93.7768C1173.32 95.7378 1171.98 97.2818 1170.18 98.4088C1168.38 99.5354 1166.2 100.175 1163.61 100.327ZM1159.71 95.9378L1163.12 95.7368C1164.71 95.6432 1166.03 95.2832 1167.08 94.6569C1168.14 94.0219 1168.9 93.0927 1169.38 91.8694C1169.86 90.6374 1170.05 89.0742 1169.94 87.18C1169.83 85.3024 1169.46 83.7843 1168.83 82.6258C1168.22 81.4669 1167.35 80.6381 1166.24 80.1395C1165.12 79.6408 1163.77 79.4383 1162.18 79.5319L1158.75 79.7336L1159.71 95.9378ZM1183.9 73.6328L1185.4 99.0433L1180.03 99.3598L1178.53 73.9493L1183.9 73.6328ZM1189.82 98.7829L1188.32 73.3724L1198.5 72.773C1200.37 72.6628 1201.94 72.8481 1203.22 73.3287C1204.5 73.8093 1205.49 74.5233 1206.18 75.4705C1206.86 76.4096 1207.24 77.516 1207.32 78.7898C1207.38 79.7824 1207.23 80.6668 1206.88 81.4429C1206.52 82.2107 1206.01 82.855 1205.35 83.3757C1204.69 83.8876 1203.92 84.2689 1203.05 84.5196L1203.06 84.7677C1204.03 84.7521 1204.95 84.9717 1205.83 85.4265C1206.71 85.8809 1207.44 86.5474 1208.03 87.4261C1208.61 88.2965 1208.94 89.3563 1209.01 90.6053C1209.09 91.9536 1208.82 93.1768 1208.22 94.2751C1207.62 95.3646 1206.69 96.2536 1205.42 96.9422C1204.16 97.6308 1202.58 98.0312 1200.68 98.1433L1189.82 98.7829ZM1194.93 94.0741L1199.31 93.8161C1200.81 93.7279 1201.88 93.3782 1202.54 92.767C1203.19 92.1475 1203.49 91.358 1203.43 90.3985C1203.39 89.6954 1203.18 89.085 1202.81 88.5674C1202.44 88.0497 1201.93 87.6564 1201.29 87.3873C1200.65 87.1178 1199.9 87.0084 1199.04 87.0591L1194.54 87.3245L1194.93 94.0741ZM1194.32 83.6891L1198.3 83.4544C1199.04 83.4111 1199.69 83.2443 1200.24 82.9543C1200.81 82.6555 1201.24 82.2565 1201.54 81.7572C1201.85 81.2575 1201.99 80.6726 1201.95 80.0026C1201.89 79.0845 1201.52 78.3634 1200.84 77.8394C1200.16 77.315 1199.22 77.0878 1198.03 77.158L1193.95 77.3985L1194.32 83.6891ZM1216.79 71.6949L1218.29 97.1054L1212.92 97.4219L1211.42 72.0115L1216.79 71.6949ZM1222.71 96.845L1221.21 71.4345L1226.59 71.118L1227.82 92.099L1238.72 91.4572L1238.98 95.8867L1222.71 96.845ZM1247.56 95.3808L1241.81 95.72L1249.08 69.7927L1256 69.3848L1266.26 94.2792L1260.5 94.6184L1252.98 75.3896L1252.79 75.4013L1247.56 95.3808ZM1246.62 85.414L1260.21 84.6128L1260.46 88.8065L1246.86 89.6077L1246.62 85.414ZM1269.32 94.099L1267.82 68.6885L1278 68.0891C1279.87 67.979 1281.44 68.1642 1282.72 68.6448C1284.01 69.1254 1284.99 69.8394 1285.68 70.7867C1286.36 71.7257 1286.74 72.8321 1286.82 74.1059C1286.88 75.0985 1286.73 75.9829 1286.38 76.759C1286.02 77.5268 1285.51 78.1711 1284.85 78.6918C1284.19 79.2037 1283.42 79.585 1282.55 79.8357L1282.56 80.0838C1283.53 80.0682 1284.46 80.2878 1285.33 80.7426C1286.21 81.197 1286.94 81.8635 1287.53 82.7422C1288.11 83.6127 1288.44 84.6724 1288.51 85.9214C1288.59 87.2697 1288.33 88.4929 1287.72 89.5912C1287.12 90.6807 1286.19 91.5697 1284.92 92.2583C1283.66 92.9469 1282.08 93.3473 1280.18 93.4594L1269.32 94.099ZM1274.43 89.3902L1278.81 89.1322C1280.31 89.044 1281.39 88.6943 1282.04 88.0831C1282.69 87.4636 1282.99 86.6741 1282.93 85.7146C1282.89 85.0115 1282.69 84.4012 1282.31 83.8835C1281.94 83.3658 1281.43 82.9725 1280.79 82.7034C1280.15 82.4339 1279.4 82.3245 1278.54 82.3752L1274.04 82.6406L1274.43 89.3902ZM1273.82 79.0052L1277.8 78.7705C1278.54 78.7272 1279.19 78.5605 1279.74 78.2704C1280.31 77.9716 1280.74 77.5726 1281.04 77.0733C1281.35 76.5736 1281.49 75.9887 1281.45 75.3187C1281.39 74.4006 1281.02 73.6795 1280.34 73.1555C1279.66 72.6311 1278.72 72.4039 1277.53 72.4741L1273.45 72.7146L1273.82 79.0052ZM1305.14 73.8234C1304.98 72.8284 1304.51 72.076 1303.72 71.5661C1302.94 71.0563 1301.9 70.8393 1300.61 70.9154C1299.73 70.967 1299 71.1347 1298.41 71.4184C1297.82 71.6939 1297.38 72.0562 1297.08 72.5053C1296.79 72.954 1296.66 73.4513 1296.69 73.9972C1296.7 74.4531 1296.82 74.8445 1297.05 75.1715C1297.28 75.498 1297.6 75.7743 1297.98 76.0005C1298.37 76.2185 1298.81 76.404 1299.31 76.5573C1299.81 76.7022 1300.34 76.8204 1300.9 76.9118L1303.21 77.3233C1304.34 77.5061 1305.37 77.777 1306.33 78.136C1307.28 78.495 1308.11 78.9565 1308.82 79.5203C1309.54 80.0842 1310.1 80.7646 1310.52 81.5616C1310.95 82.3581 1311.2 83.2854 1311.27 84.3437C1311.36 85.8993 1311.04 87.2709 1310.32 88.4587C1309.61 89.6377 1308.54 90.585 1307.1 91.3003C1305.67 92.007 1303.93 92.4212 1301.86 92.543C1299.81 92.6639 1298 92.4548 1296.44 91.9159C1294.89 91.3764 1293.65 90.5155 1292.73 89.3333C1291.81 88.1422 1291.28 86.6339 1291.13 84.8083L1296.33 84.502C1296.44 85.3506 1296.72 86.0476 1297.19 86.593C1297.66 87.1296 1298.27 87.5212 1299.01 87.7679C1299.76 88.0057 1300.6 88.0974 1301.53 88.0428C1302.44 87.9892 1303.22 87.8103 1303.88 87.5061C1304.54 87.2015 1305.04 86.8024 1305.39 86.309C1305.73 85.8156 1305.89 85.2629 1305.85 84.6508C1305.82 84.08 1305.62 83.6102 1305.26 83.2415C1304.9 82.8722 1304.4 82.5701 1303.73 82.3351C1303.08 82.0997 1302.29 81.8976 1301.35 81.7288L1298.54 81.197C1296.36 80.8021 1294.63 80.087 1293.32 79.0517C1292.01 78.0164 1291.31 76.5597 1291.21 74.6816C1291.11 73.1435 1291.44 71.7753 1292.2 70.5768C1292.96 69.3778 1294.06 68.4128 1295.48 67.6819C1296.89 66.9509 1298.53 66.5308 1300.38 66.4217C1302.27 66.3106 1303.93 66.5362 1305.38 67.0985C1306.83 67.6604 1307.98 68.493 1308.84 69.5965C1309.69 70.7 1310.17 72.0078 1310.29 73.5201L1305.14 73.8234ZM1405.19 86.0942L1396.18 86.6249L1394.68 61.2144L1403.77 60.6793C1406.32 60.5287 1408.55 60.9078 1410.46 61.8165C1412.36 62.717 1413.86 64.0851 1414.97 65.9208C1416.08 67.756 1416.71 69.993 1416.87 72.6316C1417.03 75.2786 1416.66 77.5828 1415.77 79.5442C1414.89 81.5052 1413.55 83.0492 1411.75 84.1762C1409.96 85.3028 1407.77 85.9421 1405.19 86.0942ZM1401.28 81.7052L1404.69 81.5042C1406.28 81.4106 1407.6 81.0506 1408.65 80.4243C1409.71 79.7893 1410.48 78.8601 1410.95 77.6368C1411.44 76.4048 1411.62 74.8416 1411.51 72.9474C1411.4 71.0698 1411.03 69.5517 1410.41 68.3932C1409.79 67.2343 1408.93 66.4055 1407.81 65.9069C1406.69 65.4082 1405.34 65.2057 1403.75 65.2993L1400.33 65.501L1401.28 81.7052ZM1425.48 59.4002L1426.97 84.8107L1421.6 85.1272L1420.1 59.7168L1425.48 59.4002ZM1431.39 84.5503L1429.9 59.1398L1440.07 58.5404C1441.94 58.4303 1443.51 58.6155 1444.8 59.0961C1446.08 59.5767 1447.06 60.2907 1447.75 61.238C1448.43 62.177 1448.82 63.2834 1448.89 64.5572C1448.95 65.5498 1448.8 66.4342 1448.45 67.2103C1448.1 67.9781 1447.59 68.6224 1446.92 69.1431C1446.26 69.655 1445.49 70.0363 1444.62 70.287L1444.64 70.5351C1445.61 70.5195 1446.53 70.7391 1447.4 71.1939C1448.28 71.6483 1449.02 72.3148 1449.6 73.1935C1450.18 74.0639 1450.51 75.1237 1450.58 76.3727C1450.66 77.721 1450.4 78.9442 1449.79 80.0425C1449.19 81.132 1448.26 82.021 1447 82.7096C1445.73 83.3982 1444.15 83.7986 1442.25 83.9107L1431.39 84.5503ZM1436.51 79.8415L1440.89 79.5835C1442.38 79.4953 1443.46 79.1456 1444.11 78.5344C1444.76 77.9149 1445.06 77.1254 1445.01 76.1659C1444.96 75.4628 1444.76 74.8525 1444.39 74.3348C1444.02 73.8171 1443.51 73.4238 1442.86 73.1547C1442.22 72.8852 1441.47 72.7758 1440.61 72.8265L1436.11 73.0919L1436.51 79.8415ZM1435.89 69.4565L1439.88 69.2218C1440.61 69.1785 1441.26 69.0117 1441.81 68.7217C1442.38 68.4229 1442.81 68.0239 1443.11 67.5246C1443.42 67.0249 1443.56 66.44 1443.52 65.77C1443.47 64.8519 1443.1 64.1308 1442.41 63.6068C1441.73 63.0824 1440.8 62.8552 1439.61 62.9254L1435.52 63.1659L1435.89 69.4565ZM1458.37 57.4623L1459.86 82.8728L1454.49 83.1894L1453 57.7789L1458.37 57.4623ZM1464.28 82.6124L1462.79 57.2019L1468.16 56.8854L1469.4 77.8664L1480.29 77.2246L1480.55 81.6541L1464.28 82.6124ZM1489.14 81.1482L1483.38 81.4874L1490.65 55.5601L1497.58 55.1522L1507.83 80.0466L1502.08 80.3858L1494.56 61.157L1494.36 61.1687L1489.14 81.1482ZM1488.19 71.1814L1501.79 70.3802L1502.03 74.5739L1488.44 75.3751L1488.19 71.1814ZM1510.89 79.8664L1509.4 54.4559L1519.57 53.8565C1521.44 53.7464 1523.02 53.9316 1524.3 54.4122C1525.58 54.8928 1526.56 55.6068 1527.25 56.5541C1527.94 57.4931 1528.32 58.5995 1528.39 59.8733C1528.45 60.8659 1528.3 61.7503 1527.95 62.5264C1527.6 63.2942 1527.09 63.9385 1526.42 64.4592C1525.76 64.9711 1525 65.3524 1524.12 65.6031L1524.14 65.8512C1525.11 65.8356 1526.03 66.0552 1526.9 66.51C1527.78 66.9644 1528.52 67.6309 1529.1 68.5096C1529.68 69.3801 1530.01 70.4398 1530.08 71.6888C1530.16 73.0371 1529.9 74.2603 1529.29 75.3586C1528.69 76.4481 1527.76 77.3371 1526.5 78.0257C1525.23 78.7143 1523.65 79.1147 1521.75 79.2268L1510.89 79.8664ZM1516.01 75.1576L1520.39 74.8996C1521.88 74.8114 1522.96 74.4617 1523.61 73.8505C1524.26 73.231 1524.56 72.4415 1524.51 71.482C1524.46 70.7789 1524.26 70.1686 1523.89 69.6509C1523.52 69.1332 1523.01 68.7399 1522.36 68.4708C1521.72 68.2013 1520.97 68.0919 1520.11 68.1426L1515.61 68.408L1516.01 75.1576ZM1515.4 64.7726L1519.38 64.5379C1520.11 64.4946 1520.76 64.3279 1521.32 64.0378C1521.88 63.739 1522.31 63.34 1522.61 62.8407C1522.93 62.341 1523.06 61.7561 1523.02 61.0861C1522.97 60.168 1522.6 59.4469 1521.91 58.9229C1521.23 58.3985 1520.3 58.1713 1519.11 58.2415L1515.02 58.482L1515.4 64.7726ZM1546.71 59.5908C1546.55 58.5958 1546.08 57.8434 1545.3 57.3335C1544.51 56.8237 1543.47 56.6068 1542.18 56.6828C1541.31 56.7344 1540.57 56.9021 1539.98 57.1858C1539.39 57.4613 1538.95 57.8236 1538.65 58.2727C1538.36 58.7214 1538.24 59.2187 1538.27 59.7646C1538.28 60.2205 1538.4 60.6119 1538.62 60.9389C1538.86 61.2654 1539.17 61.5417 1539.56 61.7679C1539.94 61.9859 1540.38 62.1714 1540.88 62.3247C1541.38 62.4696 1541.91 62.5878 1542.47 62.6792L1544.79 63.0907C1545.91 63.2735 1546.95 63.5444 1547.9 63.9034C1548.85 64.2624 1549.68 64.7239 1550.4 65.2877C1551.11 65.8516 1551.68 66.532 1552.1 67.329C1552.53 68.1255 1552.78 69.0528 1552.85 70.1111C1552.93 71.6667 1552.61 73.0383 1551.89 74.2261C1551.18 75.4052 1550.11 76.3524 1548.67 77.0677C1547.25 77.7744 1545.5 78.1886 1543.43 78.3104C1541.38 78.4313 1539.57 78.2222 1538.02 77.6833C1536.47 77.1438 1535.23 76.2829 1534.3 75.1007C1533.39 73.9096 1532.85 72.4013 1532.7 70.5757L1537.9 70.2694C1538.01 71.118 1538.3 71.815 1538.76 72.3604C1539.23 72.897 1539.84 73.2886 1540.59 73.5353C1541.34 73.7731 1542.18 73.8648 1543.1 73.8102C1544.01 73.7566 1544.8 73.5777 1545.45 73.2735C1546.11 72.9689 1546.62 72.5698 1546.96 72.0764C1547.31 71.583 1547.46 71.0303 1547.42 70.4182C1547.39 69.8474 1547.19 69.3776 1546.83 69.0089C1546.48 68.6396 1545.97 68.3375 1545.31 68.1025C1544.65 67.8671 1543.86 67.665 1542.92 67.4962L1540.11 66.9644C1537.94 66.5695 1536.2 65.8544 1534.89 64.8191C1533.59 63.7838 1532.88 62.3271 1532.78 60.449C1532.68 58.9109 1533.01 57.5427 1533.77 56.3442C1534.54 55.1452 1535.63 54.1802 1537.05 53.4493C1538.47 52.7183 1540.1 52.2982 1541.95 52.1891C1543.84 52.078 1545.51 52.3036 1546.95 52.8659C1548.4 53.4278 1549.56 54.2604 1550.41 55.3639C1551.26 56.4674 1551.75 57.7752 1551.86 59.2875L1546.71 59.5908ZM1646.76 71.8616L1637.75 72.3923L1636.26 46.9818L1645.34 46.4467C1647.89 46.2961 1650.12 46.6752 1652.03 47.5839C1653.93 48.4844 1655.44 49.8525 1656.54 51.6882C1657.65 53.5235 1658.29 55.7604 1658.44 58.3991C1658.6 61.046 1658.23 63.3502 1657.34 65.3116C1656.46 67.2726 1655.12 68.8166 1653.32 69.9436C1651.53 71.0702 1649.34 71.7095 1646.76 71.8616ZM1642.85 67.4726L1646.27 67.2716C1647.85 67.178 1649.17 66.8181 1650.22 66.1917C1651.28 65.5567 1652.05 64.6275 1652.53 63.4042C1653.01 62.1722 1653.2 60.609 1653.08 58.7148C1652.97 56.8372 1652.61 55.3191 1651.98 54.1607C1651.36 53.0017 1650.5 52.1729 1649.38 51.6743C1648.27 51.1756 1646.91 50.9731 1645.32 51.0667L1641.9 51.2684L1642.85 67.4726ZM1667.05 45.1676L1668.55 70.5781L1663.17 70.8946L1661.68 45.4842L1667.05 45.1676ZM1672.97 70.3177L1671.47 44.9072L1681.64 44.3078C1683.51 44.1977 1685.09 44.3829 1686.37 44.8635C1687.65 45.3441 1688.64 46.0581 1689.32 47.0054C1690.01 47.9444 1690.39 49.0508 1690.46 50.3246C1690.52 51.3172 1690.38 52.2016 1690.02 52.9777C1689.67 53.7455 1689.16 54.3898 1688.49 54.9105C1687.83 55.4224 1687.07 55.8037 1686.19 56.0544L1686.21 56.3025C1687.18 56.2869 1688.1 56.5065 1688.97 56.9613C1689.86 57.4157 1690.59 58.0822 1691.17 58.9609C1691.75 59.8314 1692.08 60.8911 1692.16 62.1401C1692.24 63.4884 1691.97 64.7116 1691.36 65.8099C1690.76 66.8994 1689.83 67.7884 1688.57 68.477C1687.31 69.1656 1685.72 69.566 1683.82 69.6781L1672.97 70.3177ZM1678.08 65.6089L1682.46 65.3509C1683.96 65.2627 1685.03 64.913 1685.68 64.3018C1686.34 63.6823 1686.63 62.8928 1686.58 61.9333C1686.54 61.2302 1686.33 60.6199 1685.96 60.1022C1685.59 59.5845 1685.08 59.1912 1684.43 58.9221C1683.8 58.6526 1683.05 58.5432 1682.19 58.5939L1677.68 58.8593L1678.08 65.6089ZM1677.47 55.2239L1681.45 54.9892C1682.19 54.9459 1682.83 54.7791 1683.39 54.4891C1683.95 54.1903 1684.38 53.7913 1684.69 53.292C1685 52.7923 1685.13 52.2074 1685.09 51.5374C1685.04 50.6193 1684.67 49.8982 1683.98 49.3742C1683.3 48.8498 1682.37 48.6226 1681.18 48.6928L1677.1 48.9333L1677.47 55.2239ZM1699.94 43.2297L1701.44 68.6402L1696.07 68.9568L1694.57 43.5463L1699.94 43.2297ZM1705.86 68.3798L1704.36 42.9693L1709.73 42.6528L1710.97 63.6338L1721.86 62.992L1722.12 67.4215L1705.86 68.3798ZM1730.71 66.9156L1724.95 67.2548L1732.23 41.3275L1739.15 40.9196L1749.41 65.814L1743.65 66.1532L1736.13 46.9244L1735.93 46.9361L1730.71 66.9156ZM1729.76 56.9488L1743.36 56.1476L1743.61 60.3414L1730.01 61.1425L1729.76 56.9488ZM1752.47 65.6338L1750.97 40.2233L1761.14 39.6239C1763.01 39.5138 1764.59 39.699 1765.87 40.1796C1767.15 40.6602 1768.14 41.3742 1768.82 42.3215C1769.51 43.2605 1769.89 44.3669 1769.96 45.6407C1770.02 46.6333 1769.88 47.5177 1769.52 48.2938C1769.17 49.0616 1768.66 49.7059 1767.99 50.2266C1767.33 50.7385 1766.57 51.1198 1765.7 51.3705L1765.71 51.6186C1766.68 51.603 1767.6 51.8226 1768.48 52.2774C1769.36 52.7318 1770.09 53.3984 1770.67 54.277C1771.26 55.1475 1771.58 56.2072 1771.66 57.4562C1771.74 58.8045 1771.47 60.0277 1770.86 61.126C1770.26 62.2155 1769.33 63.1045 1768.07 63.7931C1766.81 64.4817 1765.23 64.8821 1763.32 64.9942L1752.47 65.6338ZM1757.58 60.925L1761.96 60.667C1763.46 60.5788 1764.53 60.2291 1765.19 59.6179C1765.84 58.9984 1766.14 58.2089 1766.08 57.2494C1766.04 56.5463 1765.83 55.936 1765.46 55.4183C1765.09 54.9006 1764.58 54.5073 1763.93 54.2383C1763.3 53.9688 1762.55 53.8593 1761.69 53.91L1757.18 54.1754L1757.58 60.925ZM1756.97 50.54L1760.95 50.3053C1761.69 50.262 1762.33 50.0953 1762.89 49.8052C1763.45 49.5064 1763.89 49.1074 1764.19 48.6081C1764.5 48.1084 1764.63 47.5235 1764.6 46.8535C1764.54 45.9354 1764.17 45.2143 1763.48 44.6903C1762.81 44.1659 1761.87 43.9387 1760.68 44.0089L1756.6 44.2494L1756.97 50.54ZM1788.28 45.3582C1788.13 44.3632 1787.65 43.6108 1786.87 43.1009C1786.08 42.5911 1785.05 42.3742 1783.76 42.4502C1782.88 42.5018 1782.15 42.6695 1781.56 42.9533C1780.97 43.2287 1780.52 43.591 1780.23 44.0401C1779.94 44.4888 1779.81 44.9861 1779.84 45.532C1779.85 45.9879 1779.97 46.3793 1780.2 46.7063C1780.43 47.0328 1780.74 47.3091 1781.13 47.5353C1781.52 47.7533 1781.96 47.9389 1782.46 48.0921C1782.96 48.237 1783.48 48.3552 1784.05 48.4466L1786.36 48.8581C1787.48 49.0409 1788.52 49.3118 1789.47 49.6708C1790.42 50.0298 1791.26 50.4913 1791.97 51.0551C1792.68 51.619 1793.25 52.2994 1793.67 53.0964C1794.1 53.8929 1794.35 54.8202 1794.42 55.8785C1794.5 57.4341 1794.19 58.8057 1793.47 59.9935C1792.76 61.1726 1791.68 62.1198 1790.25 62.8352C1788.82 63.5418 1787.07 63.956 1785 64.0778C1782.95 64.1987 1781.15 63.9896 1779.59 63.4507C1778.04 62.9112 1776.8 62.0503 1775.88 60.8681C1774.96 59.677 1774.43 58.1687 1774.28 56.3431L1779.48 56.0368C1779.58 56.8854 1779.87 57.5824 1780.33 58.1278C1780.81 58.6644 1781.41 59.056 1782.16 59.3027C1782.91 59.5405 1783.75 59.6322 1784.68 59.5776C1785.59 59.524 1786.37 59.3451 1787.02 59.0409C1787.69 58.7363 1788.19 58.3372 1788.53 57.8438C1788.88 57.3504 1789.03 56.7977 1789 56.1856C1788.96 55.6148 1788.77 55.1451 1788.4 54.7763C1788.05 54.407 1787.54 54.1049 1786.88 53.8699C1786.23 53.6345 1785.43 53.4324 1784.49 53.2636L1781.68 52.7318C1779.51 52.3369 1777.77 51.6218 1776.47 50.5865C1775.16 49.5512 1774.46 48.0945 1774.35 46.2164C1774.25 44.6783 1774.58 43.3101 1775.34 42.1116C1776.11 40.9126 1777.2 39.9476 1778.62 39.2167C1780.04 38.4857 1781.68 38.0656 1783.53 37.9565C1785.41 37.8454 1787.08 38.071 1788.52 38.6333C1789.98 39.1952 1791.13 40.0278 1791.98 41.1313C1792.84 42.2348 1793.32 43.5426 1793.43 45.0549L1788.28 45.3582Z" fill="white"/>
<path d="M386.11 112.982C385.43 111.125 382.755 111.277 382.289 113.199L379.303 125.514L368.124 130.228L368.512 131.149L368.124 130.228C366.391 130.959 366.533 133.46 368.338 133.99L368.619 133.03L368.338 133.99L379.979 137.406L384.343 149.302C385.024 151.159 387.698 151.007 388.164 149.085L391.15 136.771L402.329 132.056C404.062 131.326 403.92 128.824 402.115 128.294L390.474 124.878L386.11 112.982Z" fill="white" stroke="#F16923" stroke-width="2"/>
<path d="M630.686 98.5721C630.006 96.7158 627.331 96.8679 626.865 98.7895L623.879 111.104L612.7 115.818L613.088 116.74L612.7 115.818C610.967 116.549 611.109 119.051 612.914 119.58L613.195 118.621L612.914 119.58L624.555 122.996L628.919 134.893C629.599 136.749 632.274 136.597 632.74 134.676L635.726 122.361L646.905 117.647C648.638 116.916 648.496 114.415 646.691 113.885L635.05 110.469L630.686 98.5721Z" fill="white" stroke="#F16923" stroke-width="2"/>
<path d="M872.267 84.3391C871.587 82.4827 868.912 82.6348 868.446 84.5564L865.46 96.871L854.281 101.585L854.669 102.507L854.281 101.585C852.548 102.316 852.69 104.818 854.495 105.347L854.776 104.388L854.495 105.347L866.136 108.763L870.5 120.66C871.181 122.516 873.855 122.364 874.321 120.443L877.307 108.128L888.486 103.414C890.219 102.683 890.077 100.181 888.272 99.6519L876.631 96.2356L872.267 84.3391Z" fill="white" stroke="#F16923" stroke-width="2"/>
<path d="M1113.85 70.106C1113.17 68.2496 1110.49 68.4018 1110.03 70.3233L1107.04 82.638L1095.86 87.3522L1096.25 88.2736L1095.86 87.3522C1094.13 88.083 1094.27 90.5845 1096.08 91.1141L1096.36 90.1545L1096.08 91.1141L1107.72 94.5303L1112.08 106.427C1112.76 108.283 1115.44 108.131 1115.9 106.21L1118.89 93.8949L1130.07 89.1807C1131.8 88.4499 1131.66 85.9484 1129.85 85.4188L1118.21 82.0025L1113.85 70.106Z" fill="white" stroke="#F16923" stroke-width="2"/>
<path d="M1355.43 55.8729C1354.75 54.0166 1352.07 54.1687 1351.61 56.0903L1348.62 68.4049L1337.44 73.1191L1337.83 74.0405L1337.44 73.1191C1335.71 73.8499 1335.85 76.3514 1337.66 76.881L1337.94 75.9215L1337.66 76.881L1349.3 80.2973L1353.66 92.1938C1354.34 94.0502 1357.02 93.8981 1357.48 91.9765L1360.47 79.6619L1371.65 74.9477C1373.38 74.2168 1373.24 71.7154 1371.43 71.1858L1359.79 67.7695L1355.43 55.8729Z" fill="white" stroke="#F16923" stroke-width="2"/>
<path d="M145.528 127.156C144.847 125.3 142.172 125.452 141.706 127.373L138.72 139.688L127.541 144.402L127.93 145.323L127.541 144.402C125.808 145.133 125.95 147.634 127.755 148.164L128.037 147.204L127.755 148.164L139.396 151.58L143.76 163.477C144.441 165.333 147.115 165.181 147.581 163.259L150.568 150.945L161.746 146.231C163.479 145.5 163.337 142.998 161.532 142.469L149.891 139.052L145.528 127.156Z" fill="white" stroke="#F16923" stroke-width="2"/>
</svg>
