<svg width="35" height="38" viewBox="0 0 35 38" fill="none" xmlns="http://www.w3.org/2000/svg">
<path d="M15.4343 1.28883C15.6673 0.328036 17.0045 0.251978 17.345 1.18015L21.7086 13.0767C21.8177 13.3744 22.0616 13.6026 22.3658 13.6919L34.007 17.1081C34.9093 17.3729 34.9805 18.6237 34.114 18.9891L22.9352 23.7033C22.6431 23.8265 22.4267 24.0809 22.352 24.389L19.3655 36.7036C19.1325 37.6644 17.7953 37.7405 17.4548 36.8123L13.0912 24.9158C12.9821 24.6181 12.7382 24.3899 12.434 24.3006L0.792791 20.8843C-0.109539 20.6195 -0.180679 19.3688 0.685806 19.0034L11.8646 14.2892C12.1567 14.166 12.3731 13.9116 12.4478 13.6034L15.4343 1.28883Z" fill="white"/>
</svg>
