<svg width="112" height="120" viewBox="0 0 112 120" fill="none" xmlns="http://www.w3.org/2000/svg">
<path d="M6.49127 62.3377L5.62664 64.6834L40.7337 77.624L54.5653 114.68C55.7324 117.806 60.1973 117.681 61.1869 114.493L72.9148 76.7193L107.239 61.8269C110.136 60.5703 110.019 56.4239 107.057 55.332L71.9498 42.3914L58.1182 5.33592C56.9511 2.20924 52.4862 2.33477 51.4966 5.52208L39.7687 43.2961L5.44405 58.1886L6.43911 60.482L5.44405 58.1886C2.54795 59.4451 2.66453 63.5916 5.62663 64.6834L6.49127 62.3377ZM72.2834 76.9933L72.2867 76.9919C72.2856 76.9923 72.2845 76.9928 72.2834 76.9933Z" fill="#F16923" stroke="white" stroke-width="5"/>
</svg>
