<svg width="207" height="274" viewBox="0 0 207 274" fill="none" xmlns="http://www.w3.org/2000/svg">
<path d="M171.453 235.868C171.583 235.861 171.693 235.867 171.828 235.847C185.108 234.653 197.511 223.813 197.588 209.918C197.624 202.836 192.169 198.443 186.49 195.226C197.566 192.02 206.829 182.318 206.907 170.309C206.96 162.247 199.864 157.675 193.446 154.327C190.356 152.718 187.107 151.408 183.77 150.325C189.079 148.911 193.903 146.115 197.57 141.937C201.906 136.965 204.717 129.706 203.717 123.047C202.472 114.821 194.581 110.65 187.61 107.613C180.295 104.418 172.406 102.489 164.471 101.654C156.661 100.824 148.507 100.728 140.685 101.422C136.049 101.823 131.551 102.799 127.288 104.403C133.826 95.2428 138.78 85.0299 141.287 73.9407C145.513 55.204 141.353 34.6007 129.17 19.4932C123.361 12.2734 115.785 6.308 107.015 3.12947C98.7411 0.119322 88.8235 -0.213398 80.8455 3.81753C76.7569 5.88761 73.3371 9.02151 71.3827 13.1904C69.1444 17.8977 69.1312 23.2677 69.9226 28.3305C70.6812 33.1556 71.9278 37.8924 72.5686 42.7303C73.1781 47.4574 73.4623 52.2434 73.4459 57.0179C73.3643 75.8413 68.6494 95.921 58.0484 111.671C56.7585 113.575 55.3935 115.415 53.9383 117.191C53.6215 117.573 53.4236 117.973 53.2863 118.37C50.5897 115.724 47.226 113.834 43.473 112.925L28.707 109.384C17.4339 106.685 6.07683 113.631 3.40614 124.867L-10.5943 183.717C-11.8823 189.134 -10.9615 194.761 -8.01514 199.549C-5.79024 203.16 -2.62498 205.939 1.11753 207.653C2.35681 208.221 3.66187 208.678 5.01643 208.994L19.7824 212.535C25.7825 213.961 31.7966 212.655 36.5259 209.43C37.4322 209.927 38.3272 210.448 39.2109 210.994C39.397 211.109 40.0213 211.521 40.13 211.593C40.5928 211.902 41.0434 212.205 41.5124 212.516C42.5502 213.214 43.5767 213.937 44.6033 214.66C49.3634 218.028 54.0004 221.6 58.6066 225.158C68.3719 232.728 77.9901 240.505 88.0768 247.65C92.2485 250.593 96.5379 253.605 101.174 255.81C104.104 258.712 107.657 261.037 111.414 262.899C117.816 266.069 124.774 268.403 131.592 270.486C138.199 272.51 145.08 273.999 152.019 273.376C165.305 272.17 177.708 261.329 177.784 247.434C177.804 242.408 175.061 238.739 171.432 235.866L171.453 235.868ZM188.877 205.876C192.03 209.577 189.674 215.664 187.339 219.198C184.453 223.579 179.958 226.747 174.868 228.054C163.868 230.85 151.796 225.809 141.649 221.971C135.421 219.608 128.4 216.778 124.267 211.276C121.433 207.498 119.53 201.718 122.549 197.717C131.997 192.593 142.852 192.768 153.326 193.385C159.807 193.762 166.378 194.79 172.544 196.864C175.696 197.929 178.784 199.233 181.703 200.807C184.213 202.15 187.009 203.683 188.877 205.876ZM181.875 157.261C185.027 158.327 188.097 159.636 191.022 161.199C193.532 162.542 196.328 164.075 198.196 166.267C201.349 169.969 198.988 176.068 196.658 179.59C193.772 183.97 189.271 187.151 184.188 188.446C173.2 191.247 161.115 186.201 150.968 182.362C144.753 180.005 137.719 177.17 133.586 171.668C130.752 167.889 128.849 162.109 131.868 158.109C141.316 152.984 152.166 153.172 162.639 153.789C169.12 154.166 175.697 155.181 181.875 157.261ZM124.177 113.864C133.78 108.127 145.001 108.121 155.899 108.302C162.74 108.413 169.612 109.37 176.202 111.186C182.216 112.827 189.04 115.322 193.838 119.406C198.101 123.029 196.832 129.168 194.572 133.583C192.185 138.207 187.821 141.562 182.892 143.121C177.475 144.835 171.564 144.37 166.067 143.374C159.813 142.225 153.718 140.339 147.671 138.378C140.677 136.125 132.928 133.452 127.793 127.906C124.642 124.51 121.342 118.149 124.168 113.868L124.177 113.864ZM118.863 127.796C122.635 134.573 129.483 139.002 136.485 141.972C140.466 143.669 144.629 145.101 148.811 146.378C148.584 146.385 148.357 146.392 148.129 146.4C141 146.802 134.284 148.649 128.017 152.023C127.882 152.073 127.748 152.153 127.603 152.227C127.511 152.281 127.43 152.326 127.347 152.362C126.895 152.615 126.548 152.999 126.294 153.439C125.688 154.209 125.161 155 124.728 155.848C124.899 147.186 121.232 138.712 115.882 131.68C113.836 128.998 111.559 126.381 109.021 124.089C111.419 122.062 113.746 119.913 115.976 117.682C116.004 121.14 117.122 124.659 118.865 127.789L118.863 127.796ZM21.4705 205.511L6.70452 201.97C5.8299 201.762 4.98566 201.472 4.17797 201.102C1.71173 199.973 -0.367812 198.129 -1.83823 195.77C-3.76422 192.63 -4.3761 188.934 -3.53286 185.4L10.4676 126.55C12.2285 119.189 19.6631 114.634 27.0464 116.412L41.8123 119.953C42.687 120.161 43.5435 120.457 44.3512 120.827C46.8051 121.951 48.8841 123.779 50.3427 126.148C52.2872 129.296 52.8801 132.968 52.0374 136.518L38.0425 195.355C36.294 202.722 28.847 207.271 21.4705 205.511ZM94.2837 243.186C94.1346 243.088 94.0069 242.993 93.8702 242.9C88.9873 239.491 84.2275 235.877 79.5093 232.238C69.8083 224.772 60.2921 217.049 50.3596 209.893C47.6084 207.92 44.8163 205.906 41.8943 204.159C43.3594 202.068 44.4744 199.683 45.1045 197.053L59.0994 138.216C60.3214 133.073 59.536 127.753 56.9444 123.135C57.8417 123.13 58.7591 122.756 59.5117 121.846C71.4443 107.293 77.7728 88.494 79.878 69.959C80.9282 60.7943 80.9989 51.4557 79.8205 42.2874C79.2255 37.6264 78.0773 33.0981 77.2899 28.4826C76.5487 24.1407 76.1762 19.5964 78.297 15.5854C81.6566 9.26072 90.4686 7.51274 97.2519 8.20671C105.314 9.04078 112.695 13.2015 118.596 18.6374C130.982 30.0287 137.143 47.9763 135.488 64.5497C133.183 87.5599 118.717 107.546 100.837 121.454C98.0023 123.668 99.8756 127.704 102.558 128.086C103.466 128.822 104.346 129.589 105.182 130.402C105.788 130.999 106.383 131.606 106.966 132.222C106.985 132.246 106.998 132.251 107.01 132.257C107.029 132.281 107.036 132.299 107.073 132.331C107.241 132.519 107.421 132.728 107.601 132.921C107.968 133.342 108.322 133.757 108.68 134.196C111.749 137.918 114.117 141.624 115.759 145.888C117.527 150.463 118.148 155.069 117.052 159.921C115.856 165.217 112.154 170.434 108.547 174.693C103.722 180.39 97.783 185.571 90.9362 188.679C89.1585 189.499 88.0778 191.402 88.8079 193.326C89.4553 195.055 91.6853 196.277 93.463 195.458C100.519 192.252 106.642 187.416 111.916 181.798C116.543 176.892 120.993 170.971 123.209 164.538C123.414 166.778 124 169.014 124.929 171.058C127.988 177.895 133.97 182.506 140.551 185.759L140.878 185.908C140.19 185.943 139.497 185.959 138.822 185.999C131.693 186.401 124.977 188.248 118.715 191.61C118.575 191.672 118.441 191.752 118.292 191.832C118.206 191.874 118.129 191.913 118.037 191.967C117.585 192.221 117.232 192.601 116.989 193.032C112.972 198.008 113.044 204.984 115.597 210.661C118.08 216.217 122.507 220.279 127.597 223.353C124.73 223.31 121.851 223.357 119.034 223.515C111.892 223.912 105.176 225.758 98.9212 229.138C98.7865 229.188 98.6406 229.262 98.5071 229.342C98.415 229.396 98.3348 229.441 98.2512 229.477C97.7871 229.725 97.4462 230.111 97.1983 230.554C94.3036 234.122 93.542 238.748 94.2921 243.168L94.2837 243.186ZM167.551 256.714C164.664 261.094 160.164 264.275 155.068 265.565C144.08 268.365 131.995 263.32 121.861 259.487C116.322 257.395 110.184 254.918 105.976 250.54C105.858 250.374 105.704 250.222 105.547 250.076C105.162 249.662 104.813 249.235 104.473 248.789C101.638 245.011 99.7357 239.231 102.754 235.23C112.191 230.1 123.04 230.288 133.526 230.911C140.007 231.288 146.584 232.303 152.749 234.377C155.902 235.443 158.972 236.752 161.908 238.32C164.406 239.658 167.215 241.197 169.082 243.389C172.235 247.09 169.874 253.189 167.545 256.711L167.551 256.714Z" fill="white"/>
<path d="M167.551 256.714C164.664 261.094 160.164 264.275 155.068 265.565C144.08 268.365 131.995 263.32 121.861 259.487C116.322 257.395 110.184 254.918 105.976 250.54C105.858 250.374 105.704 250.222 105.547 250.076C105.162 249.662 104.813 249.235 104.473 248.789C101.638 245.011 99.7357 239.231 102.754 235.23C112.191 230.1 123.04 230.288 133.526 230.911C140.007 231.288 146.584 232.303 152.749 234.377C155.902 235.443 158.972 236.752 161.908 238.32C164.406 239.658 167.215 241.197 169.082 243.389C172.235 247.09 169.874 253.189 167.545 256.711L167.551 256.714Z" fill="#231F20"/>
<path d="M187.339 219.198C184.453 223.579 179.958 226.747 174.868 228.054C163.868 230.85 151.796 225.809 141.649 221.971C135.421 219.608 128.4 216.778 124.267 211.276C121.433 207.498 119.53 201.718 122.549 197.717C131.997 192.593 142.852 192.768 153.326 193.385C159.807 193.762 166.378 194.79 172.544 196.864C175.696 197.929 178.784 199.233 181.703 200.807C184.213 202.15 187.009 203.683 188.877 205.876C192.03 209.577 189.674 215.664 187.339 219.198Z" fill="#231F20"/>
<path d="M148.811 146.378C148.584 146.385 148.357 146.392 148.129 146.4C141 146.802 134.284 148.649 128.017 152.023C127.882 152.073 127.748 152.153 127.603 152.227C127.511 152.281 127.43 152.326 127.347 152.362C126.895 152.615 126.548 152.999 126.294 153.439C125.688 154.209 125.161 155 124.728 155.848C124.899 147.186 121.232 138.712 115.882 131.68C113.836 128.998 111.559 126.381 109.021 124.089C111.419 122.062 113.746 119.913 115.976 117.682C116.004 121.14 117.122 124.659 118.865 127.789C122.638 134.567 129.486 138.996 136.488 141.965C140.469 143.663 144.632 145.095 148.814 146.372L148.811 146.378Z" fill="#231F20"/>
<path d="M196.658 179.59C193.772 183.97 189.271 187.151 184.188 188.446C173.2 191.247 161.115 186.201 150.968 182.362C144.753 180.005 137.719 177.17 133.586 171.668C130.752 167.889 128.849 162.109 131.868 158.109C141.316 152.984 152.166 153.172 162.639 153.789C169.12 154.166 175.697 155.181 181.875 157.261C185.027 158.327 188.097 159.636 191.022 161.199C193.532 162.542 196.328 164.075 198.196 166.267C201.349 169.969 198.988 176.068 196.658 179.59Z" fill="#231F20"/>
<path d="M194.574 133.577C192.188 138.201 187.824 141.556 182.895 143.115C177.478 144.829 171.567 144.364 166.07 143.368C159.816 142.219 153.721 140.333 147.674 138.372C140.68 136.119 132.931 133.445 127.796 127.9C124.645 124.504 121.345 118.143 124.171 113.862C133.774 108.124 144.995 108.119 155.893 108.299C162.734 108.41 169.606 109.367 176.196 111.183C182.21 112.824 189.034 115.319 193.831 119.403C198.094 123.026 196.826 129.165 194.565 133.58L194.574 133.577Z" fill="#231F20"/>
<path d="M21.4705 205.511L6.70452 201.97C5.8299 201.762 4.98566 201.472 4.17797 201.102C1.71173 199.973 -0.367812 198.129 -1.83823 195.77C-3.76422 192.63 -4.3761 188.934 -3.53286 185.4L10.4676 126.55C12.2285 119.189 19.6631 114.634 27.0464 116.412L41.8123 119.953C42.687 120.161 43.5435 120.457 44.3512 120.827C46.8051 121.951 48.8841 123.779 50.3427 126.148C52.2872 129.296 52.8801 132.968 52.0374 136.518L38.0425 195.355C36.294 202.722 28.847 207.271 21.4705 205.511Z" fill="#231F20"/>
<path d="M127.591 223.365C124.724 223.322 121.845 223.369 119.028 223.527C111.887 223.924 105.17 225.771 98.9155 229.15C98.7809 229.2 98.635 229.274 98.5014 229.354C98.4094 229.408 98.3291 229.453 98.2455 229.489C97.7814 229.737 97.4406 230.123 97.1927 230.566C94.2979 234.134 93.5364 238.76 94.2865 243.18C94.1374 243.082 94.0097 242.987 93.8729 242.894C88.9901 239.484 84.2303 235.871 79.5121 232.232C69.811 224.766 60.2949 217.043 50.3624 209.887C47.6112 207.914 44.8191 205.9 41.8971 204.153C43.3622 202.062 44.4772 199.677 45.1073 197.047L59.1022 138.21C60.3242 133.067 59.5388 127.747 56.9472 123.129C57.8445 123.124 58.7619 122.75 59.5145 121.84C71.4471 107.286 77.7756 88.4879 79.8808 69.9528C80.931 60.7882 81.0017 51.4496 79.8233 42.2813C79.2283 37.6203 78.0801 33.092 77.2927 28.4765C76.5515 24.1346 76.179 19.5903 78.2998 15.5793C81.6594 9.25458 90.4714 7.5066 97.2547 8.20056C105.317 9.03464 112.698 13.1953 118.599 18.6313C130.985 30.0226 137.145 47.9702 135.491 64.5436C133.186 87.5537 118.72 107.54 100.839 121.448C98.0051 123.662 99.8784 127.698 102.56 128.08C103.469 128.816 104.349 129.583 105.184 130.396C105.791 130.993 106.386 131.6 106.969 132.216C106.988 132.24 107 132.245 107.013 132.251C107.032 132.274 107.038 132.292 107.076 132.324C107.243 132.513 107.424 132.721 107.604 132.915C107.97 133.336 108.325 133.75 108.683 134.189C111.752 137.912 114.12 141.618 115.762 145.882C117.53 150.457 118.151 155.063 117.054 159.914C115.859 165.211 112.156 170.428 108.55 174.686C103.724 180.384 97.7858 185.565 90.939 188.673C89.1613 189.493 88.0806 191.396 88.8107 193.319C89.458 195.049 91.6881 196.271 93.4657 195.452C100.521 192.246 106.645 187.41 111.919 181.791C116.546 176.886 120.996 170.965 123.212 164.532C123.416 166.772 124.003 169.008 124.932 171.052C127.991 177.889 133.972 182.5 140.554 185.752L140.88 185.902C140.193 185.936 139.5 185.953 138.825 185.993C131.696 186.395 124.979 188.242 118.718 191.604C118.578 191.666 118.444 191.745 118.295 191.826C118.209 191.868 118.131 191.907 118.039 191.961C117.588 192.215 117.234 192.595 116.992 193.026C112.975 198.002 113.046 204.978 115.6 210.655C118.083 216.211 122.51 220.273 127.599 223.347L127.591 223.365Z" fill="#231F20"/>
<path d="M-3.36237 151.417C-3.70266 151.313 -4.04577 151.215 -4.38606 151.111C-4.77232 150.994 -4.2941 151.139 -4.24813 151.152C-4.44435 151.092 -4.6344 151.035 -4.83061 150.975C-5.56052 150.744 -6.28428 150.517 -7.00856 150.274C-8.4078 149.811 -9.80142 149.336 -11.19 148.834C-13.9115 147.854 -16.6117 146.796 -19.2782 145.664C-24.6049 143.402 -29.8118 140.846 -34.8647 138.019C-36.1521 137.296 -37.4276 136.563 -38.6919 135.805C-39.3022 135.444 -39.913 135.068 -40.5177 134.694C-40.8214 134.511 -41.1223 134.321 -41.4233 134.131C-41.5505 134.05 -41.6839 133.967 -41.8111 133.886C-41.3891 134.154 -41.6962 133.961 -41.9444 133.803C-44.3928 132.243 -46.7889 130.619 -49.1451 128.923C-53.9101 125.5 -58.4842 121.823 -62.8426 117.904C-65.2773 115.712 -67.6446 113.454 -69.9389 111.119C-71.0906 109.952 -72.2158 108.761 -73.3354 107.558C-73.6004 107.273 -73.3007 107.596 -73.2598 107.637C-73.4335 107.446 -73.6071 107.255 -73.7745 107.067C-74.0523 106.762 -74.3239 106.459 -74.6017 106.154C-75.1831 105.501 -75.7555 104.845 -76.3278 104.19C-77.4826 102.851 -79.5019 102.179 -81.0483 103.357C-82.3821 104.379 -83.1077 106.631 -81.8678 108.06C-73.9119 117.251 -65.0099 125.599 -55.2206 132.823C-45.4996 140.001 -34.9698 146.146 -23.904 151.007C-17.5702 153.79 -11.0619 156.11 -4.43312 158.07C-2.72604 158.577 -0.741591 156.932 -0.552285 155.281C-0.321063 153.278 -1.53643 151.942 -3.36292 151.402L-3.36237 151.417Z" fill="#221F1F"/>
</svg>
