<svg width="205" height="149" viewBox="0 0 205 149" fill="none" xmlns="http://www.w3.org/2000/svg">
<path d="M162.644 18.8889C185.878 31.0734 201.279 51.5825 200.558 75.9353C201.891 84.6941 202.971 97.9232 201.865 109.379C201.312 115.1 200.197 120.569 198.171 124.85C196.139 129.142 192.992 132.611 188.261 133.458C181.559 134.658 176.636 129.619 173.248 123.604C169.799 117.478 167.23 109.184 165.393 101.042C165.207 100.971 164.906 100.906 164.532 100.907C164.167 100.909 163.876 100.974 163.694 101.042C161.638 111.019 158.654 121.346 154.555 128.636C152.489 132.312 150.005 135.46 146.992 137.309C143.835 139.246 140.232 139.662 136.434 138.057C128.301 134.62 123.582 127.59 120.99 119.838C120.477 118.305 120.044 116.735 119.681 115.143C119.002 117.486 118.223 119.727 117.332 121.789C115.741 125.468 113.708 128.779 111.072 131.041C108.351 133.377 105 134.569 101.121 133.894C95.3118 132.884 91.3032 127.728 88.5223 121.807C85.7176 115.836 83.7902 108.313 82.5026 100.97C82.2703 100.856 81.8771 100.742 81.3875 100.711C80.8953 100.68 80.488 100.743 80.2421 100.828C77.7329 108.828 74.3673 116.919 70.0884 122.695C65.7862 128.502 59.9621 132.676 52.7953 130.669C48.0392 129.337 44.5434 125.923 42.0098 121.644C39.4848 117.38 37.8007 112.076 36.6928 106.539C34.5181 95.673 34.4577 83.3605 35.0709 74.805L7.11718 74.5687C4.60824 74.5475 2.32657 72.3647 2.79474 69.5392C5.65422 52.2818 27.0125 24.1205 75.9149 11.1517C108.01 2.64006 139.384 6.69096 162.644 18.8889ZM82.6504 101.057C82.6509 101.058 82.648 101.055 82.6406 101.049C82.6463 101.055 82.6498 101.057 82.6504 101.057ZM80.0863 100.895C80.0866 100.895 80.0905 100.893 80.0974 100.888C80.0895 100.893 80.0861 100.895 80.0863 100.895Z" fill="#F16923" stroke="white" stroke-width="5"/>
<path d="M77.9982 52.9179C79.012 59.7808 82.4062 66.5535 83.0383 73.2516" stroke="white" stroke-width="4" stroke-linecap="round"/>
<path d="M117.382 51.2839C120.309 57.9129 121.839 65.4392 122.519 72.6489" stroke="white" stroke-width="4" stroke-linecap="round"/>
<path d="M156.862 50.679C158.836 57.0873 160.911 63.4651 162.836 69.8841" stroke="white" stroke-width="4" stroke-linecap="round"/>
</svg>
