<svg width="911" height="972" viewBox="0 0 911 972" fill="none" xmlns="http://www.w3.org/2000/svg">
<path d="M236.5 848.192L237.418 842.113C237.118 842.069 207.369 837.428 193.141 823.743C190.087 820.807 190.163 818.686 190.486 817.349C193.777 803.686 244.086 782.351 344.285 752.13C360.784 747.151 376.769 742.408 392.082 737.861C492.13 708.166 558.224 688.547 562.789 666.283C563.932 660.717 561.42 655.328 555.33 650.268C520.655 621.471 382.634 611.028 376.775 610.599L376.324 616.73C377.739 616.835 518.232 627.449 551.401 655C557.748 660.27 557.011 663.868 556.768 665.05C552.942 683.705 481.184 705.003 390.333 731.968C375.01 736.517 359.017 741.265 342.508 746.243C208.674 786.614 187.476 803.583 184.508 815.91C183.462 820.257 184.932 824.382 188.878 828.175C204.529 843.22 235.201 847.996 236.5 848.192Z" fill="white" stroke="#263238" stroke-miterlimit="10" stroke-linecap="round" stroke-linejoin="round"/>
<path d="M550.965 647.093L542.097 649.018C497.704 625.9 377.633 616.825 376.324 616.73L376.775 610.599C382.413 611.013 510.425 620.702 550.965 647.093Z" fill="#263238" stroke="#263238" stroke-miterlimit="10" stroke-linecap="round" stroke-linejoin="round"/>
<path d="M220.005 854.765C217.665 847.195 220.559 838.912 227.186 834.565C236.127 828.7 252.404 821.534 280.001 819.563C328.857 816.074 362.01 834.104 377.714 849.227C393.418 864.349 389.928 882.38 367.246 893.431C344.563 904.483 328.276 907.391 309.083 904.483C289.89 901.575 258.481 886.452 247.431 878.89C236.379 871.33 223.003 864.349 220.095 855.043C220.062 854.948 220.034 854.856 220.005 854.765Z" fill="#065097" stroke="#263238" stroke-miterlimit="10" stroke-linecap="round" stroke-linejoin="round"/>
<path d="M295.121 890.521C322.458 909.133 348.632 900.408 348.632 900.408L349.235 900.916C335.071 905.641 322.814 906.561 309.081 904.481C289.888 901.573 258.479 886.45 247.429 878.89C236.378 871.33 223.001 864.349 220.093 855.043C220.064 854.95 220.034 854.858 220.007 854.765C219.774 854.013 219.607 853.251 219.476 852.489C236.691 856.659 270.915 874.04 295.121 890.521Z" fill="white" stroke="#263238" stroke-miterlimit="10" stroke-linecap="round" stroke-linejoin="round"/>
<path d="M335.255 858.531C335.255 862.706 340.333 866.093 346.597 866.093C352.86 866.093 357.938 862.708 357.938 858.531C357.938 854.353 352.86 850.97 346.597 850.97C340.333 850.97 335.255 854.355 335.255 858.531Z" fill="white" stroke="#263238" stroke-miterlimit="10" stroke-linecap="round" stroke-linejoin="round"/>
<path d="M563.794 742.886L565.04 736.867C546.64 733.057 534.471 727.548 532.762 724.817C534.64 722.816 542.526 718.652 548.949 715.26C572.408 702.875 611.669 682.144 599.192 655.404C591.885 639.743 552.138 626.05 477.682 613.542C423.665 604.465 370.959 599.6 370.434 599.551L369.874 605.675C370.399 605.723 422.904 610.572 476.697 619.609C570.174 635.317 590.079 650.406 593.625 658.005C603.628 679.44 569 697.725 546.084 709.824C532.167 717.173 525.814 720.526 526.481 725.192C527.803 734.468 553.014 740.658 563.794 742.886Z" fill="white" stroke="#231F20" stroke-miterlimit="10" stroke-linecap="round" stroke-linejoin="round"/>
<path d="M370.432 599.553C370.959 599.602 423.664 604.467 477.68 613.544C527.575 621.925 561.858 630.842 581.263 640.523L571.072 642.733C554.237 635.846 525.513 627.813 476.693 619.609C422.901 610.572 370.395 605.723 369.87 605.675L370.432 599.553Z" fill="#231F20" stroke="#231F20" stroke-miterlimit="10" stroke-linecap="round" stroke-linejoin="round"/>
<path d="M372.934 786.719L484.113 850.006L889.153 709.533L765.989 665.144L372.934 786.719Z" fill="white" stroke="#231F20" stroke-miterlimit="10" stroke-linecap="round" stroke-linejoin="round"/>
<path d="M551.549 754.568L538.341 758.625L524.517 751.411L537.577 747.499L551.549 754.568Z" fill="#231F20" stroke="#231F20" stroke-miterlimit="10" stroke-linecap="round" stroke-linejoin="round"/>
<path d="M572.058 737.713L583.512 744.752L557.198 752.834L543.277 745.793L571.401 737.371L572.058 737.713Z" fill="#231F20" stroke="#231F20" stroke-miterlimit="10" stroke-linecap="round" stroke-linejoin="round"/>
<path d="M532.766 760.337L518.701 764.655L504.694 757.347L518.889 753.096L532.766 760.337Z" fill="#231F20" stroke="#231F20" stroke-miterlimit="10" stroke-linecap="round" stroke-linejoin="round"/>
<path d="M622.594 732.752L609.874 736.657L596.834 729.754L608.504 726.261L622.594 732.752Z" fill="#231F20" stroke="#231F20" stroke-miterlimit="10" stroke-linecap="round" stroke-linejoin="round"/>
<path d="M604.336 738.359L588.731 743.151L576.727 735.775L591.253 731.426L604.336 738.359Z" fill="#231F20" stroke="#231F20" stroke-miterlimit="10" stroke-linecap="round" stroke-linejoin="round"/>
<path d="M541.032 776.307L554.937 771.908L568.741 779.111L555.021 783.609L541.032 776.307Z" fill="#231F20" stroke="#231F20" stroke-miterlimit="10" stroke-linecap="round" stroke-linejoin="round"/>
<path d="M513.125 766.368L495.363 771.823L481.141 764.4L499.066 759.031L513.125 766.368Z" fill="#231F20" stroke="#231F20" stroke-miterlimit="10" stroke-linecap="round" stroke-linejoin="round"/>
<path d="M656.6 722.309L644.454 726.04L630.967 719.533L643.436 715.799L656.6 722.309Z" fill="#231F20" stroke="#231F20" stroke-miterlimit="10" stroke-linecap="round" stroke-linejoin="round"/>
<path d="M497.904 789.956L512.439 785.357L526.813 792.857L511.64 797.831L497.904 789.956Z" fill="#231F20" stroke="#231F20" stroke-miterlimit="10" stroke-linecap="round" stroke-linejoin="round"/>
<path d="M481.289 780.431L494.959 776.234L507.315 782.682L493.075 787.188L481.289 780.431Z" fill="#231F20" stroke="#231F20" stroke-miterlimit="10" stroke-linecap="round" stroke-linejoin="round"/>
<path d="M489.788 773.535L476.419 777.639L462.869 769.873L475.513 766.086L489.788 773.535Z" fill="#231F20" stroke="#231F20" stroke-miterlimit="10" stroke-linecap="round" stroke-linejoin="round"/>
<path d="M517.954 783.611L535.516 778.053L549.581 785.394L532.254 791.074L517.954 783.611Z" fill="#231F20" stroke="#231F20" stroke-miterlimit="10" stroke-linecap="round" stroke-linejoin="round"/>
<path d="M441.446 776.286L457.459 771.492L471.055 779.288L455.291 784.128L441.446 776.286Z" fill="#231F20" stroke="#231F20" stroke-miterlimit="10" stroke-linecap="round" stroke-linejoin="round"/>
<path d="M460.2 786.908L475.925 782.079L487.768 788.868L472.301 793.763L460.2 786.908Z" fill="#231F20" stroke="#231F20" stroke-miterlimit="10" stroke-linecap="round" stroke-linejoin="round"/>
<path d="M625.341 721.364L638.694 727.808L628.469 730.948L614.437 724.484L625.135 721.279L625.341 721.364Z" fill="#231F20" stroke="#231F20" stroke-miterlimit="10" stroke-linecap="round" stroke-linejoin="round"/>
<path d="M815.604 711.257L804.156 706.242L811.195 703.934L823.221 708.685L815.604 711.257Z" fill="#231F20" stroke="#231F20" stroke-miterlimit="10" stroke-linecap="round" stroke-linejoin="round"/>
<path d="M812.338 699.247L798.526 703.777L786.656 698.577L800.688 694.136L812.338 699.247Z" fill="#231F20" stroke="#231F20" stroke-miterlimit="10" stroke-linecap="round" stroke-linejoin="round"/>
<path d="M794.996 691.638L780.96 696.08L770.661 691.568L784.881 687.202L794.996 691.638Z" fill="#231F20" stroke="#231F20" stroke-miterlimit="10" stroke-linecap="round" stroke-linejoin="round"/>
<path d="M755.531 722.185L763.779 719.48L776.559 724.442L767.296 727.569L755.531 722.185Z" fill="#231F20" stroke="#231F20" stroke-miterlimit="10" stroke-linecap="round" stroke-linejoin="round"/>
<path d="M786.953 711.883L798.314 708.157L809.836 713.205L798.551 717.016L786.953 711.883Z" fill="#231F20" stroke="#231F20" stroke-miterlimit="10" stroke-linecap="round" stroke-linejoin="round"/>
<path d="M775.031 697.958L769.008 699.864L759.156 695.103L764.658 693.413L775.031 697.958Z" fill="#231F20" stroke="#231F20" stroke-miterlimit="10" stroke-linecap="round" stroke-linejoin="round"/>
<path d="M769.92 717.466L781.137 713.788L792.811 718.954L782.616 722.396L769.92 717.466Z" fill="#231F20" stroke="#231F20" stroke-miterlimit="10" stroke-linecap="round" stroke-linejoin="round"/>
<path d="M673.772 717.035L662.304 720.557L649.19 714.076L660.391 710.723L673.772 717.035Z" fill="#231F20" stroke="#231F20" stroke-miterlimit="10" stroke-linecap="round" stroke-linejoin="round"/>
<path d="M706.134 707.097L696.693 709.998L684.376 703.54L693.723 700.74L706.134 707.097Z" fill="#231F20" stroke="#231F20" stroke-miterlimit="10" stroke-linecap="round" stroke-linejoin="round"/>
<path d="M754.339 704.506L744.075 699.733L753.396 696.872L763.318 701.665L754.339 704.506Z" fill="#231F20" stroke="#231F20" stroke-miterlimit="10" stroke-linecap="round" stroke-linejoin="round"/>
<path d="M691.128 711.706L679.588 715.25L666.266 708.963L678.766 705.219L691.128 711.706Z" fill="#231F20" stroke="#231F20" stroke-miterlimit="10" stroke-linecap="round" stroke-linejoin="round"/>
<path d="M710.029 695.981L723.182 701.862L711.75 705.373L699.39 699.043L709.854 695.909L710.029 695.981Z" fill="#231F20" stroke="#231F20" stroke-miterlimit="10" stroke-linecap="round" stroke-linejoin="round"/>
<path d="M740.397 696.576L729.135 700.035L715.875 694.105L727.755 690.548L740.397 696.576Z" fill="#231F20" stroke="#231F20" stroke-miterlimit="10" stroke-linecap="round" stroke-linejoin="round"/>
<path d="M758.903 690.892L746.188 694.798L733.602 688.798L745.791 685.147L758.903 690.892Z" fill="#231F20" stroke="#231F20" stroke-miterlimit="10" stroke-linecap="round" stroke-linejoin="round"/>
<path d="M593.072 755.542L574.295 761.484L562.47 755.503L582.33 749.402L593.072 755.542Z" fill="#231F20" stroke="#231F20" stroke-miterlimit="10" stroke-linecap="round" stroke-linejoin="round"/>
<path d="M568.712 763.252L555.326 767.488L543.514 761.323L556.823 757.237L568.712 763.252Z" fill="#231F20" stroke="#231F20" stroke-miterlimit="10" stroke-linecap="round" stroke-linejoin="round"/>
<path d="M500.534 774.521L518.296 769.068L530.392 775.378L512.828 780.936L500.534 774.521Z" fill="#231F20" stroke="#231F20" stroke-miterlimit="10" stroke-linecap="round" stroke-linejoin="round"/>
<path d="M549.813 769.231L535.905 773.634L523.874 767.353L537.937 763.036L549.813 769.231Z" fill="#231F20" stroke="#231F20" stroke-miterlimit="10" stroke-linecap="round" stroke-linejoin="round"/>
<path d="M738.328 727.824L749.794 724.064L761.629 729.484L750.161 733.357L738.328 727.824Z" fill="#231F20" stroke="#231F20" stroke-miterlimit="10" stroke-linecap="round" stroke-linejoin="round"/>
<path d="M649.089 737.814L635.36 742.159L625.424 736.17L638.776 732.07L649.089 737.814Z" fill="#231F20" stroke="#231F20" stroke-miterlimit="10" stroke-linecap="round" stroke-linejoin="round"/>
<path d="M630.156 743.806L616.791 748.036L606.556 741.963L620.166 737.783L630.156 743.806Z" fill="#231F20" stroke="#231F20" stroke-miterlimit="10" stroke-linecap="round" stroke-linejoin="round"/>
<path d="M611.552 749.694L598.387 753.86L587.701 747.754L601.263 743.59L611.552 749.694Z" fill="#231F20" stroke="#231F20" stroke-miterlimit="10" stroke-linecap="round" stroke-linejoin="round"/>
<path d="M745.393 711.634L754.053 708.893L765.989 714.443L756.802 717.455L745.393 711.634Z" fill="#231F20" stroke="#231F20" stroke-miterlimit="10" stroke-linecap="round" stroke-linejoin="round"/>
<path d="M764.908 689.049L751.856 683.332L771.831 677.35L771.792 677.465L786.417 682.443L764.908 689.049Z" fill="#231F20" stroke="#231F20" stroke-miterlimit="10" stroke-linecap="round" stroke-linejoin="round"/>
<path d="M793.098 680.392L778.392 675.385L782.599 674.125L796.8 679.255L793.098 680.392Z" fill="#231F20" stroke="#231F20" stroke-miterlimit="10" stroke-linecap="round" stroke-linejoin="round"/>
<path d="M406.777 782.392L386.707 788.401L381.489 785.436L401.287 779.383L406.777 782.392Z" fill="#231F20" stroke="#231F20" stroke-miterlimit="10" stroke-linecap="round" stroke-linejoin="round"/>
<path d="M759.838 707.062L768.691 704.261L780.151 709.799L771.691 712.573L759.838 707.062Z" fill="#231F20" stroke="#231F20" stroke-miterlimit="10" stroke-linecap="round" stroke-linejoin="round"/>
<path d="M666.052 732.447L654.46 736.115L644.205 730.402L655.844 726.829L666.052 732.447Z" fill="#231F20" stroke="#231F20" stroke-miterlimit="10" stroke-linecap="round" stroke-linejoin="round"/>
<path d="M792.684 705.692L785.764 707.96L774.382 702.461L780.727 700.453L792.684 705.692Z" fill="#231F20" stroke="#231F20" stroke-miterlimit="10" stroke-linecap="round" stroke-linejoin="round"/>
<path d="M684.194 726.704L671.447 730.738L661.297 725.153L674.324 721.152L684.194 726.704Z" fill="#231F20" stroke="#231F20" stroke-miterlimit="10" stroke-linecap="round" stroke-linejoin="round"/>
<path d="M694.435 727.76L705.867 724.142L717.817 730.236L705.824 734.167L694.435 727.76Z" fill="#231F20" stroke="#231F20" stroke-miterlimit="10" stroke-linecap="round" stroke-linejoin="round"/>
<path d="M676.404 733.467L689.083 729.455L700.543 735.899L688.187 739.951L676.404 733.467Z" fill="#231F20" stroke="#231F20" stroke-miterlimit="10" stroke-linecap="round" stroke-linejoin="round"/>
<path d="M640.034 744.978L654.007 740.555L665.988 747.229L651.597 751.947L640.034 744.978Z" fill="#231F20" stroke="#231F20" stroke-miterlimit="10" stroke-linecap="round" stroke-linejoin="round"/>
<path d="M560.452 770.162L573.938 765.893L587.746 772.88L574.183 777.328L560.452 770.162Z" fill="#231F20" stroke="#231F20" stroke-miterlimit="10" stroke-linecap="round" stroke-linejoin="round"/>
<path d="M621.517 750.837L634.83 746.625L646.455 753.633L633.43 757.904L621.517 750.837Z" fill="#231F20" stroke="#231F20" stroke-miterlimit="10" stroke-linecap="round" stroke-linejoin="round"/>
<path d="M579.521 764.126L616.276 752.495L628.255 759.601L593.255 771.074L579.521 764.126Z" fill="#231F20" stroke="#231F20" stroke-miterlimit="10" stroke-linecap="round" stroke-linejoin="round"/>
<path d="M659.378 738.854L671.009 735.174L682.86 741.696L671.289 745.491L659.378 738.854Z" fill="#231F20" stroke="#231F20" stroke-miterlimit="10" stroke-linecap="round" stroke-linejoin="round"/>
<path d="M716.343 716.531L706.231 719.731L695.98 714.504L706.083 711.401L716.343 716.531Z" fill="#231F20" stroke="#231F20" stroke-miterlimit="10" stroke-linecap="round" stroke-linejoin="round"/>
<path d="M734.631 710.744L721.954 714.755L711.759 709.657L724.708 705.68L734.631 710.744Z" fill="#231F20" stroke="#231F20" stroke-miterlimit="10" stroke-linecap="round" stroke-linejoin="round"/>
<path d="M711.431 722.383L721.635 719.152L733.779 725.003L723.305 728.436L711.431 722.383Z" fill="#231F20" stroke="#231F20" stroke-miterlimit="10" stroke-linecap="round" stroke-linejoin="round"/>
<path d="M700.667 721.492L689.545 725.011L679.734 719.492L690.352 716.232L700.667 721.492Z" fill="#231F20" stroke="#231F20" stroke-miterlimit="10" stroke-linecap="round" stroke-linejoin="round"/>
<path d="M748.554 706.337L740.194 708.983L730.336 703.952L738.219 701.531L748.554 706.337Z" fill="#231F20" stroke="#231F20" stroke-miterlimit="10" stroke-linecap="round" stroke-linejoin="round"/>
<path d="M727.333 717.35L739.829 713.396L751.312 719.255L739.393 723.162L727.333 717.35Z" fill="#231F20" stroke="#231F20" stroke-miterlimit="10" stroke-linecap="round" stroke-linejoin="round"/>
<path d="M818.178 697.332L806.615 692.261L820.573 687.842L833.207 692.406L818.178 697.332Z" fill="#231F20" stroke="#231F20" stroke-miterlimit="10" stroke-linecap="round" stroke-linejoin="round"/>
<path d="M703.81 753.331L767.066 731.973L767.119 731.996L767.142 731.945L798.353 721.407L819.086 730.583L723.491 763.64L703.81 753.331Z" fill="#231F20" stroke="#231F20" stroke-miterlimit="10" stroke-linecap="round" stroke-linejoin="round"/>
<path d="M857.243 717.387L837.437 708.211L846.584 705.122L868.055 713.648L857.243 717.387Z" fill="#231F20" stroke="#231F20" stroke-miterlimit="10" stroke-linecap="round" stroke-linejoin="round"/>
<path d="M821.177 713.699L831.798 710.114L851.663 719.317L841.792 722.731L821.177 713.699Z" fill="#231F20" stroke="#231F20" stroke-miterlimit="10" stroke-linecap="round" stroke-linejoin="round"/>
<path d="M804.094 719.469L815.412 715.647L836.084 724.704L824.768 728.617L804.094 719.469Z" fill="#231F20" stroke="#231F20" stroke-miterlimit="10" stroke-linecap="round" stroke-linejoin="round"/>
<path d="M650.131 771.457L661.896 767.484L682.389 777.853L669.547 782.293L650.131 771.457Z" fill="#231F20" stroke="#231F20" stroke-miterlimit="10" stroke-linecap="round" stroke-linejoin="round"/>
<path d="M686.845 759.06L698.441 755.143L718.173 765.479L707.242 769.258L686.845 759.06Z" fill="#231F20" stroke="#231F20" stroke-miterlimit="10" stroke-linecap="round" stroke-linejoin="round"/>
<path d="M667.339 765.646L681.375 760.907L701.824 771.132L687.782 775.989L667.339 765.646Z" fill="#231F20" stroke="#231F20" stroke-miterlimit="10" stroke-linecap="round" stroke-linejoin="round"/>
<path d="M724.329 687.296L716.242 683.056L730.83 678.594L739.99 682.607L724.329 687.296Z" fill="#231F20" stroke="#231F20" stroke-miterlimit="10" stroke-linecap="round" stroke-linejoin="round"/>
<path d="M718.713 688.979L710.064 691.568L700.801 687.778L710.669 684.76L718.713 688.979Z" fill="#231F20" stroke="#231F20" stroke-miterlimit="10" stroke-linecap="round" stroke-linejoin="round"/>
<path d="M616.474 782.822L644.894 773.226L664.357 784.089L637.405 793.409L616.474 782.822Z" fill="#231F20" stroke="#231F20" stroke-miterlimit="10" stroke-linecap="round" stroke-linejoin="round"/>
<path d="M703.816 693.439L693.999 696.38L685.228 692.54L694.608 689.671L703.816 693.439Z" fill="#231F20" stroke="#231F20" stroke-miterlimit="10" stroke-linecap="round" stroke-linejoin="round"/>
<path d="M846.7 700.758L846.588 700.713L846.551 700.808L829.231 706.656L817.288 701.936L839.465 694.667L851.677 699.078L846.7 700.758Z" fill="#231F20" stroke="#231F20" stroke-miterlimit="10" stroke-linecap="round" stroke-linejoin="round"/>
<path d="M757.389 677.397L746.055 680.791L736.843 676.755L747.78 673.409L757.389 677.397Z" fill="#231F20" stroke="#231F20" stroke-miterlimit="10" stroke-linecap="round" stroke-linejoin="round"/>
<path d="M790.884 685.359L803.215 681.573L814.232 685.552L800.923 689.765L790.884 685.359Z" fill="#231F20" stroke="#231F20" stroke-miterlimit="10" stroke-linecap="round" stroke-linejoin="round"/>
<path d="M473.907 814.515L490.834 808.967L504.059 816.455L487.591 822.017L473.907 814.515Z" fill="#231F20" stroke="#231F20" stroke-miterlimit="10" stroke-linecap="round" stroke-linejoin="round"/>
<path d="M411.824 785.158L426.227 793.053L405.883 799.301L391.635 791.202L411.824 785.158Z" fill="#231F20" stroke="#231F20" stroke-miterlimit="10" stroke-linecap="round" stroke-linejoin="round"/>
<path d="M763.6 675.536L753.936 671.526L765.562 667.97L776.123 671.786L763.6 675.536Z" fill="#231F20" stroke="#231F20" stroke-miterlimit="10" stroke-linecap="round" stroke-linejoin="round"/>
<path d="M431.24 795.8L443.911 802.746L423.377 809.245L410.78 802.085L431.24 795.8Z" fill="#231F20" stroke="#231F20" stroke-miterlimit="10" stroke-linecap="round" stroke-linejoin="round"/>
<path d="M487.196 826.474L508.314 838.049L487.014 845.415L466.176 833.572L487.196 826.474Z" fill="#231F20" stroke="#231F20" stroke-miterlimit="10" stroke-linecap="round" stroke-linejoin="round"/>
<path d="M448.88 805.471L463.649 813.566L442.93 820.358L428.233 812.005L448.88 805.471Z" fill="#231F20" stroke="#231F20" stroke-miterlimit="10" stroke-linecap="round" stroke-linejoin="round"/>
<path d="M851.622 703.069L857.865 701.312L880.296 709.416L873.992 711.596L851.622 703.069Z" fill="#231F20" stroke="#231F20" stroke-miterlimit="10" stroke-linecap="round" stroke-linejoin="round"/>
<path d="M492.472 824.692L508.843 819.165L529.344 830.776L513.541 836.241L492.472 824.692Z" fill="#231F20" stroke="#231F20" stroke-miterlimit="10" stroke-linecap="round" stroke-linejoin="round"/>
<path d="M555.74 803.329L572.868 797.546L593.823 808.481L576.854 814.348L555.74 803.329Z" fill="#231F20" stroke="#231F20" stroke-miterlimit="10" stroke-linecap="round" stroke-linejoin="round"/>
<path d="M514.051 817.406L528.839 812.413L529.21 812.625L529.449 812.207L550.361 805.145L571.525 816.191L534.507 828.992L514.051 817.406Z" fill="#231F20" stroke="#231F20" stroke-miterlimit="10" stroke-linecap="round" stroke-linejoin="round"/>
<path d="M578.247 795.73L591.811 791.15L612.586 801.992L599.149 806.638L578.247 795.73Z" fill="#231F20" stroke="#231F20" stroke-miterlimit="10" stroke-linecap="round" stroke-linejoin="round"/>
<path d="M447.741 823.094L468.571 816.264L482.315 823.797L461.403 830.86L447.741 823.094Z" fill="#231F20" stroke="#231F20" stroke-miterlimit="10" stroke-linecap="round" stroke-linejoin="round"/>
<path d="M687.936 698.195L679.096 700.841L670.504 697.043L679.213 694.379L687.936 698.195Z" fill="#231F20" stroke="#231F20" stroke-miterlimit="10" stroke-linecap="round" stroke-linejoin="round"/>
<path d="M597.188 789.334L611.031 784.659L632.013 795.273L617.913 800.149L597.188 789.334Z" fill="#231F20" stroke="#231F20" stroke-miterlimit="10" stroke-linecap="round" stroke-linejoin="round"/>
<path d="M585.3 728.93L571.813 732.97L564.861 729.354L577.157 725.594L585.3 728.93Z" fill="#231F20" stroke="#231F20" stroke-miterlimit="10" stroke-linecap="round" stroke-linejoin="round"/>
<path d="M516.426 800.574L531.889 795.506L545.33 802.52L529.276 807.94L516.426 800.574Z" fill="#231F20" stroke="#231F20" stroke-miterlimit="10" stroke-linecap="round" stroke-linejoin="round"/>
<path d="M560.096 786.257L573.817 781.758L586.78 788.523L573.216 793.103L560.096 786.257Z" fill="#231F20" stroke="#231F20" stroke-miterlimit="10" stroke-linecap="round" stroke-linejoin="round"/>
<path d="M417.337 783.508L436.009 777.915L449.901 785.784L431.691 791.375L417.337 783.508Z" fill="#231F20" stroke="#231F20" stroke-miterlimit="10" stroke-linecap="round" stroke-linejoin="round"/>
<path d="M496.1 807.239L511.185 802.293L524.092 809.692L509.269 814.698L496.1 807.239Z" fill="#231F20" stroke="#231F20" stroke-miterlimit="10" stroke-linecap="round" stroke-linejoin="round"/>
<path d="M436.703 794.122L454.809 788.562L466.967 795.45L449.316 801.037L436.703 794.122Z" fill="#231F20" stroke="#231F20" stroke-miterlimit="10" stroke-linecap="round" stroke-linejoin="round"/>
<path d="M477.169 796.519L492.597 791.636L506.401 799.55L491.277 804.507L477.169 796.519Z" fill="#231F20" stroke="#231F20" stroke-miterlimit="10" stroke-linecap="round" stroke-linejoin="round"/>
<path d="M454.284 803.761L471.835 798.207L486.011 806.235L468.983 811.817L454.284 803.761Z" fill="#231F20" stroke="#231F20" stroke-miterlimit="10" stroke-linecap="round" stroke-linejoin="round"/>
<path d="M537.328 793.722L554.657 788.042L567.837 794.919L550.709 800.705L537.328 793.722Z" fill="#231F20" stroke="#231F20" stroke-miterlimit="10" stroke-linecap="round" stroke-linejoin="round"/>
<path d="M687.148 744.603L699.547 740.538L711.643 746.362L698.791 750.701L687.148 744.603Z" fill="#231F20" stroke="#231F20" stroke-miterlimit="10" stroke-linecap="round" stroke-linejoin="round"/>
<path d="M669.503 750.388L681.717 746.383L693.422 752.515L681.682 756.479L669.503 750.388Z" fill="#231F20" stroke="#231F20" stroke-miterlimit="10" stroke-linecap="round" stroke-linejoin="round"/>
<path d="M705.167 738.695L715.624 735.268L726.987 741.181L717.197 744.486L705.167 738.695Z" fill="#231F20" stroke="#231F20" stroke-miterlimit="10" stroke-linecap="round" stroke-linejoin="round"/>
<path d="M598.426 773.691L644.382 758.625L656.77 764.89L611.348 780.228L598.426 773.691Z" fill="#231F20" stroke="#231F20" stroke-miterlimit="10" stroke-linecap="round" stroke-linejoin="round"/>
<path d="M579.256 779.976L592.919 775.497L605.905 782.066L592.157 786.708L579.256 779.976Z" fill="#231F20" stroke="#231F20" stroke-miterlimit="10" stroke-linecap="round" stroke-linejoin="round"/>
<path d="M649.89 756.819L663.968 752.204L676.213 758.325L662.213 763.053L649.89 756.819Z" fill="#231F20" stroke="#231F20" stroke-miterlimit="10" stroke-linecap="round" stroke-linejoin="round"/>
<path d="M637.641 713.256L625.343 716.94L616.855 713.452L629.314 709.642L637.641 713.256Z" fill="#231F20" stroke="#231F20" stroke-miterlimit="10" stroke-linecap="round" stroke-linejoin="round"/>
<path d="M619.112 718.806L608.764 721.903L600.594 718.425L610.679 715.342L619.112 718.806Z" fill="#231F20" stroke="#231F20" stroke-miterlimit="10" stroke-linecap="round" stroke-linejoin="round"/>
<path d="M602.625 723.742L591.531 727.064L583.337 723.703L594.507 720.287L602.625 723.742Z" fill="#231F20" stroke="#231F20" stroke-miterlimit="10" stroke-linecap="round" stroke-linejoin="round"/>
<path d="M566.179 734.655L554.945 738.02L554.949 738.009L547.721 734.597L559.27 731.065L566.179 734.655Z" fill="#231F20" stroke="#231F20" stroke-miterlimit="10" stroke-linecap="round" stroke-linejoin="round"/>
<path d="M721.069 733.483L732.64 729.688L744.541 735.252L732.37 739.364L721.069 733.483Z" fill="#231F20" stroke="#231F20" stroke-miterlimit="10" stroke-linecap="round" stroke-linejoin="round"/>
<path d="M654.954 708.071L643.725 711.434L635.349 707.795L647.065 704.212L654.954 708.071Z" fill="#231F20" stroke="#231F20" stroke-miterlimit="10" stroke-linecap="round" stroke-linejoin="round"/>
<path d="M673.058 702.649L660.737 706.341L652.804 702.457L664.514 698.876L673.058 702.649Z" fill="#231F20" stroke="#231F20" stroke-miterlimit="10" stroke-linecap="round" stroke-linejoin="round"/>
<path d="M470.303 763.368L457.968 767.062L452.263 763.792L464.15 760.157L470.303 763.368Z" fill="#231F20" stroke="#231F20" stroke-miterlimit="10" stroke-linecap="round" stroke-linejoin="round"/>
<path d="M493.858 756.313L475.933 761.683L469.735 758.448L487.523 753.007L493.858 756.313Z" fill="#231F20" stroke="#231F20" stroke-miterlimit="10" stroke-linecap="round" stroke-linejoin="round"/>
<path d="M406.759 777.709L425.515 771.972L431.067 775.118L412.29 780.74L406.759 777.709Z" fill="#231F20" stroke="#231F20" stroke-miterlimit="10" stroke-linecap="round" stroke-linejoin="round"/>
<path d="M452.556 768.683L436.507 773.489L430.914 770.322L446.891 765.435L452.556 768.683Z" fill="#231F20" stroke="#231F20" stroke-miterlimit="10" stroke-linecap="round" stroke-linejoin="round"/>
<path d="M549.091 739.774L537.952 743.11L530.843 739.758L541.897 736.378L549.091 739.774Z" fill="#231F20" stroke="#231F20" stroke-miterlimit="10" stroke-linecap="round" stroke-linejoin="round"/>
<path d="M532.077 744.869L519.309 748.693L512.777 745.283L525.017 741.541L532.077 744.869Z" fill="#231F20" stroke="#231F20" stroke-miterlimit="10" stroke-linecap="round" stroke-linejoin="round"/>
<path d="M513.681 750.378L499.486 754.628L493.108 751.3L507.192 746.992L513.681 750.378Z" fill="#231F20" stroke="#231F20" stroke-miterlimit="10" stroke-linecap="round" stroke-linejoin="round"/>
<path d="M484.113 850.006L485.052 862.588L374.106 800.78L372.934 786.719L484.113 850.006Z" fill="white" stroke="#231F20" stroke-miterlimit="10" stroke-linecap="round" stroke-linejoin="round"/>
<path d="M389.079 808.957V824.198L374.874 816.521L374.106 800.78L389.079 808.957Z" fill="white" stroke="#231F20" stroke-miterlimit="10" stroke-linecap="round" stroke-linejoin="round"/>
<path d="M389.079 824.198L408.657 820.36L388.68 808.957L389.079 824.198Z" fill="#231F20" stroke="#231F20" stroke-miterlimit="10" stroke-linecap="round" stroke-linejoin="round"/>
<path d="M485.052 862.588L889.223 720.524L889.153 709.533L484.113 850.006L485.052 862.588Z" fill="white" stroke="#231F20" stroke-miterlimit="10" stroke-linecap="round" stroke-linejoin="round"/>
<path d="M393.488 629.174L511.028 671.559L296.484 726.177L176.757 675.491L393.488 629.174Z" fill="#231F20" stroke="#231F20" stroke-miterlimit="10" stroke-linecap="round" stroke-linejoin="round"/>
<path d="M511.028 671.559V678.213L296.838 734.939L296.484 726.177L511.028 671.559Z" fill="white" stroke="#231F20" stroke-miterlimit="10" stroke-linecap="round" stroke-linejoin="round"/>
<path d="M296.484 726.177L176.757 675.491L177.628 682.82L296.838 734.939L296.484 726.177Z" fill="white" stroke="#231F20" stroke-miterlimit="10" stroke-linecap="round" stroke-linejoin="round"/>
<path d="M379.648 576.305L384.485 651.265L391.256 654.168L268.899 683.186L262.128 680.283L256.807 599.034L379.648 576.305Z" fill="white" stroke="#231F20" stroke-miterlimit="10" stroke-linecap="round" stroke-linejoin="round"/>
<path d="M386.419 579.207L391.256 654.168L268.899 683.186L263.578 601.936L386.419 579.207Z" fill="#231F20" stroke="#231F20" stroke-miterlimit="10" stroke-linecap="round" stroke-linejoin="round"/>
<path d="M-16.0022 106.557L-8.68113 103.775L1.55013 104.405L2.39773 107.206L573.761 141.214C576.881 141.397 579.41 143.809 579.739 146.916L617.512 537.452C617.794 540.123 615.984 542.565 613.346 543.072L80.5427 645.163L86.4544 648.719L62.8309 653.297L60.084 652.931L53.4141 649.712C51.2699 649.098 49.565 647.282 49.2598 644.907L-19.9019 112.752C-20.2654 109.92 -18.5216 107.406 -16.0022 106.557Z" fill="white" stroke="#231F20" stroke-miterlimit="10" stroke-linecap="round" stroke-linejoin="round"/>
<path d="M583.164 143.162L625.238 540.673C625.52 543.344 623.71 545.786 621.072 546.291L63.8128 653.067C60.5372 653.695 57.4131 651.43 56.9874 648.124L-12.1743 109.918C-12.6369 106.323 -9.71709 103.195 -6.10124 103.407L577.186 137.458C580.306 137.641 582.835 140.053 583.164 143.162Z" fill="#231F20" stroke="#231F20" stroke-miterlimit="10" stroke-linecap="round" stroke-linejoin="round"/>
<path d="M570.359 155.16L605.776 484.867L72.6189 566.649L12.5434 124.251L570.359 155.16Z" fill="#065097" stroke="#231F20" stroke-miterlimit="10" stroke-linecap="round" stroke-linejoin="round"/>
<path d="M511.654 373.674C426.314 347.546 330.77 318.775 242.488 293.272C153.03 267.428 81.0694 257.708 30.7509 254.835" stroke="white" stroke-miterlimit="10" stroke-linecap="round" stroke-linejoin="round"/>
<path d="M575.131 204.478C575.131 204.478 402.844 208.453 214.655 285.319" stroke="white" stroke-miterlimit="10" stroke-linecap="round" stroke-linejoin="round"/>
<path d="M438.225 512.172C438.225 512.172 307.419 389.43 183.524 324.805C79.1702 270.375 34.2171 269.065 34.2171 269.065" stroke="white" stroke-miterlimit="10" stroke-linecap="round" stroke-linejoin="round"/>
<path d="M621.074 546.291L63.8126 653.067C60.537 653.695 57.4129 651.43 56.9872 648.124L50.2687 595.842L621.237 502.864L625.238 540.671C625.522 543.344 623.712 545.786 621.074 546.291Z" fill="white" stroke="#231F20" stroke-miterlimit="10" stroke-linecap="round" stroke-linejoin="round"/>
<path d="M605.776 484.867L525.318 497.207L508.326 343.415L589.952 337.554L605.776 484.867Z" fill="#231F20" stroke="#231F20" stroke-miterlimit="10" stroke-linecap="round" stroke-linejoin="round"/>
<path d="M517.251 391.14L534.327 389.177L540.779 439.713L522.875 442.034L517.251 391.14Z" fill="#BABDBF" stroke="#231F20" stroke-miterlimit="10" stroke-linecap="round" stroke-linejoin="round"/>
<path d="M543.57 385.789C543.588 385.917 543.633 386.036 543.695 386.143L517.039 389.208L512.715 350.077L538.533 348.223L543.57 385.789Z" fill="#BABDBF" stroke="#231F20" stroke-miterlimit="10" stroke-linecap="round" stroke-linejoin="round"/>
<path d="M542.707 439.464L536.259 388.954L561.753 386.022L567.983 436.187L542.707 439.464Z" fill="#BABDBF" stroke="#231F20" stroke-miterlimit="10" stroke-linecap="round" stroke-linejoin="round"/>
<path d="M537.344 442.12L568.222 438.115L573.8 483.018L542.715 487.786L537.344 442.12Z" fill="#BABDBF" stroke="#231F20" stroke-miterlimit="10" stroke-linecap="round" stroke-linejoin="round"/>
<path d="M545.462 385.94C545.501 385.812 545.518 385.674 545.499 385.532L540.476 348.085L556.895 346.905L561.514 384.093L545.462 385.94Z" fill="#BABDBF" stroke="#231F20" stroke-miterlimit="10" stroke-linecap="round" stroke-linejoin="round"/>
<path d="M535.415 442.371L540.792 488.082L528.176 490.016L523.088 443.967L535.415 442.371Z" fill="#BABDBF" stroke="#231F20" stroke-miterlimit="10" stroke-linecap="round" stroke-linejoin="round"/>
</svg>
