<svg width="318" height="528" viewBox="0 0 318 528" fill="none" xmlns="http://www.w3.org/2000/svg">
<circle cx="54.1135" cy="329.847" r="43.447" transform="rotate(-11.0265 54.1135 329.847)" stroke="#F16923" stroke-width="5"/>
<circle cx="231.616" cy="397.779" r="61.6632" transform="rotate(-11.0265 231.616 397.779)" stroke="#F16923" stroke-width="5"/>
<circle cx="140.02" cy="108.041" r="89.4468" transform="rotate(-11.0265 140.02 108.041)" stroke="#F16923" stroke-width="5"/>
<circle cx="281.326" cy="188.169" r="32.421" transform="rotate(-11.0265 281.326 188.169)" stroke="#F16923" stroke-width="5"/>
<circle cx="169.537" cy="504.622" r="17.295" transform="rotate(-11.0265 169.537 504.622)" stroke="#F16923" stroke-width="5"/>
<circle cx="241.672" cy="276.348" r="17.295" transform="rotate(-11.0265 241.672 276.348)" stroke="#F16923" stroke-width="5"/>
<circle cx="146.71" cy="259.913" r="17.295" transform="rotate(-11.0265 146.71 259.913)" stroke="#F16923" stroke-width="5"/>
<path d="M274.816 36.3625C276.643 45.738 270.523 54.8193 261.148 56.6462C251.772 58.4731 242.691 52.3538 240.864 42.9783C239.037 33.6029 245.157 24.5216 254.532 22.6947C263.908 20.8678 272.989 26.9871 274.816 36.3625Z" stroke="#F16923" stroke-width="5"/>
</svg>
