<svg width="171" height="279" viewBox="0 0 171 279" fill="none" xmlns="http://www.w3.org/2000/svg">
<circle cx="29.0628" cy="174.104" r="21.7526" transform="rotate(-11.0265 29.0628 174.104)" stroke="#F16923" stroke-width="5"/>
<circle cx="122.756" cy="209.964" r="31.3678" transform="rotate(-11.0265 122.756 209.964)" stroke="#F16923" stroke-width="5"/>
<circle cx="74.408" cy="57.0264" r="46.0331" transform="rotate(-11.0265 74.408 57.0264)" stroke="#F16923" stroke-width="5"/>
<circle cx="148.995" cy="99.3208" r="15.9326" transform="rotate(-11.0265 148.995 99.3208)" stroke="#F16923" stroke-width="5"/>
<circle cx="89.9883" cy="266.359" r="7.94859" transform="rotate(-11.0265 89.9883 266.359)" stroke="#F16923" stroke-width="5"/>
<circle cx="128.064" cy="145.867" r="7.94859" transform="rotate(-11.0265 128.064 145.867)" stroke="#F16923" stroke-width="5"/>
<circle cx="77.9392" cy="137.191" r="7.94859" transform="rotate(-11.0265 77.9392 137.191)" stroke="#F16923" stroke-width="5"/>
<path d="M144.4 19.4167C145.239 23.7255 142.427 27.8992 138.118 28.7388C133.809 29.5784 129.636 26.7661 128.796 22.4572C127.956 18.1484 130.769 13.9747 135.078 13.1351C139.386 12.2955 143.56 15.1079 144.4 19.4167Z" stroke="#F16923" stroke-width="5"/>
</svg>
