<svg width="671" height="453" viewBox="0 0 671 453" fill="none" xmlns="http://www.w3.org/2000/svg">
<path d="M671.025 148.342C663.338 156.325 655.614 164.326 647.02 171.363C642.859 174.769 638.464 177.923 633.835 180.674C628.776 183.678 623.427 186.149 618.022 188.442C596.589 197.528 574.221 206.334 550.721 207.504C537.424 208.168 524.117 206.559 511.353 202.769C508.463 201.908 507.229 206.428 510.109 207.279C521.751 210.733 533.927 212.445 546.074 212.314C558.221 212.183 570.172 210.096 581.805 206.774C593.438 203.452 604.594 199.026 615.712 194.431C621.389 192.091 627.056 189.705 632.479 186.804C637.464 184.137 642.176 181.011 646.656 177.577C656.708 169.857 665.555 160.76 674.335 151.655C676.421 149.484 673.12 146.171 671.025 148.342Z" fill="#F16924"/>
<path d="M427.762 321.326L426.668 316.778C466.102 307.308 460.622 282.256 460.37 281.199L459.799 278.813L462.203 278.345L505.733 270.119C510.782 268.715 514.99 265.412 517.609 260.826C520.236 256.213 520.919 250.86 519.526 245.769L499.093 171.129C496.204 160.573 485.281 154.341 474.743 157.223L456.106 162.351C455.834 162.426 455.348 162.585 454.628 162.903C450.486 164.756 442.537 169.988 436.898 174.564L433.952 170.933C439.208 166.665 447.671 160.901 452.72 158.636C453.506 158.281 454.226 158.019 454.853 157.841L473.499 152.713C486.525 149.138 500.028 156.849 503.591 169.894L524.024 244.534C525.744 250.832 524.903 257.439 521.658 263.138C518.413 268.846 513.158 272.936 506.864 274.658L506.677 274.704L465.26 282.528C465.606 286.159 465.494 293.355 460.921 300.879C455.021 310.574 443.855 317.461 427.734 321.336L427.762 321.326Z" fill="#F16924"/>
<path d="M362.79 169.248V169.267C362.949 169.538 363.145 169.763 363.397 169.922C363.622 170.128 363.884 170.268 364.192 170.343C364.501 170.437 364.809 170.455 365.127 170.381C365.436 170.362 365.726 170.278 365.997 170.1L366.474 169.735C366.764 169.445 366.96 169.099 367.072 168.705L367.157 168.088C367.157 167.667 367.044 167.274 366.839 166.909V166.89C366.68 166.619 366.483 166.394 366.231 166.235C366.006 166.029 365.745 165.889 365.436 165.814C365.127 165.72 364.819 165.702 364.501 165.776C364.192 165.795 363.902 165.879 363.631 166.057L363.154 166.422C362.864 166.712 362.668 167.058 362.556 167.451L362.472 168.069C362.472 168.49 362.584 168.883 362.79 169.248Z" fill="#F16924"/>
<path d="M464.662 279.468C461.174 271.878 457.686 264.289 454.198 256.7C453.702 255.623 453.207 254.547 452.72 253.48C452.374 252.732 451.467 252.348 450.701 252.32C449.251 252.273 447.792 252.123 446.352 251.955C445.903 251.899 445.454 251.843 445.006 251.787C445.819 251.889 445.024 251.786 444.837 251.758C444.51 251.712 444.183 251.665 443.865 251.609C441.34 251.216 438.824 250.71 436.346 250.093C433.317 249.335 430.334 248.408 427.435 247.267C427.107 247.136 426.78 247.005 426.453 246.874C426.406 246.855 425.761 246.583 426.228 246.78C426.032 246.696 425.836 246.611 425.639 246.527C424.854 246.181 424.068 245.816 423.292 245.432C421.787 244.693 420.309 243.879 418.878 242.999C415.858 241.128 413.651 239.415 411.126 236.795C408.601 234.175 406.731 231.489 405.104 228.026C401.289 219.875 401.448 209.844 403.215 200.748C404.188 195.741 405.712 190.978 408.47 186.729C409.013 185.887 409.546 185.166 409.957 184.67C410.556 183.95 411.182 183.267 411.865 182.621C412.183 182.312 412.51 182.013 412.847 181.732C412.996 181.601 413.155 181.479 413.305 181.348C413.408 181.264 413.511 181.18 413.614 181.105C413.427 181.255 413.398 181.273 413.529 181.17C414.212 180.665 414.923 180.197 415.652 179.767C417.625 178.616 416.821 175.35 414.474 175.406C406.74 175.584 399.035 174.929 391.358 174.068C384.671 173.319 378.013 172.383 371.86 169.492C365.67 166.581 360.452 162.099 357.525 155.838C354.944 150.298 354.561 143.598 357.572 138.151C360.321 133.173 365.268 129.879 370.448 127.811C376.508 125.396 382.979 124.245 389.403 123.328C397.614 122.158 405.974 121.531 414.249 122.28C421.431 122.935 428.753 124.666 434.934 128.522C440.143 131.769 444.445 136.355 447.418 141.726C448.905 144.412 450.027 147.266 450.766 150.251C451.355 152.628 451.542 154.799 451.514 157.223C451.514 158.065 451.458 158.917 451.514 159.75C451.673 162.744 456.349 162.763 456.19 159.75C456.096 157.897 456.339 156.025 456.19 154.172C455.919 150.71 454.965 147.219 453.665 144.01C451.075 137.627 446.96 131.891 441.583 127.549C428.519 116.993 410.556 116.263 394.546 117.994C387.14 118.799 379.584 119.828 372.468 122.121C366.343 124.096 360.143 127.146 356.001 132.228C351.39 137.88 349.866 145.048 351.418 152.151C352.971 159.254 357.618 165.739 363.641 170.081C369.906 174.601 377.574 176.959 385.158 178.007C392.742 179.056 400.176 179.795 407.694 180.038C409.967 180.113 412.23 180.122 414.502 180.066L413.324 175.705C406.17 179.888 401.943 187.356 399.755 195.161C398.147 200.879 397.352 207.017 397.361 212.95C397.361 217.555 398.016 222.215 399.54 226.576C404.646 241.212 418.252 249.793 432.54 253.892C438.394 255.567 444.622 256.765 450.719 256.971L448.699 255.81C452.187 263.4 455.675 270.989 459.163 278.579C459.659 279.655 460.155 280.731 460.641 281.798C461.165 282.949 462.829 283.23 463.839 282.64C465.017 281.948 465.204 280.591 464.681 279.44L464.662 279.468Z" fill="#F16924"/>
<path d="M276.581 449.991C269.82 449.991 263.04 449.251 256.447 448.409C251.229 447.745 247.115 443.711 246.442 438.611C246.442 438.574 246.423 438.49 246.423 438.452C245.806 433.605 246.077 426.885 246.357 419.773C246.647 412.54 246.937 405.072 246.423 398.259C245.675 388.377 241.953 381.892 223.727 373.853C217.34 371.037 196.796 345.068 194.86 319.268C193.065 295.348 172.735 289.528 160.597 286.056C157.371 285.129 155.033 284.661 153.154 284.287C146.533 282.968 144.326 282.2 132.777 272.094C125.362 265.599 123.407 261.949 121.986 259.282C120.583 256.643 119.807 255.193 112.354 251.468C106.164 248.371 96.9059 247.987 86.1988 247.547C72.0971 246.967 56.1159 246.303 41.6963 239.144C33.5233 235.092 21.3106 219.641 9.4906 204.706C8.15337 203.012 6.83485 201.346 5.53502 199.718C2.75771 196.228 2.22469 191.567 4.12299 187.534C5.10487 185.466 6.10546 183.407 7.09669 181.348C10.8465 173.609 14.3906 166.291 16.8033 158.842C19.3561 150.972 20.9365 142.334 22.4701 133.978C25.2942 118.574 28.2211 102.647 37.3105 90.135C46.5028 77.4923 60.7728 69.7999 74.5752 62.3603C82.0094 58.355 89.6962 54.2093 96.2981 49.4086C102.788 44.6828 108.735 38.9651 115.038 32.9104C126.39 21.9989 138.136 10.7224 153.21 5.81873C167.62 1.13033 183.536 3.25462 198.928 5.30404C207.494 6.44573 216.349 7.62483 224.859 7.62483C233.369 7.62483 242.224 6.44573 250.79 5.30404C266.182 3.25462 282.098 1.13033 296.508 5.81873C311.582 10.713 323.318 21.9989 334.68 32.9104C340.983 38.9651 346.93 44.6828 353.42 49.4086C360.022 54.2093 367.708 58.355 375.143 62.3603C388.945 69.7999 403.215 77.4923 412.407 90.135C418.71 98.8006 422.628 107.719 425.125 119.042C425.462 120.558 424.498 122.055 422.993 122.392C421.478 122.72 419.982 121.765 419.645 120.259C417.326 109.731 413.698 101.468 407.872 93.4478C399.428 81.8344 385.728 74.4602 372.477 67.32C364.884 63.2212 357.02 58.9913 350.119 53.9661C343.32 49.0156 336.952 42.8954 330.79 36.9718C319.895 26.5001 308.627 15.6728 294.778 11.1715C281.574 6.87619 266.986 8.82267 251.529 10.8814C242.785 12.0512 233.733 13.249 224.859 13.249C215.985 13.249 206.942 12.0419 198.189 10.8814C182.741 8.82267 168.153 6.87619 154.949 11.1715C141.1 15.6728 129.832 26.5001 118.937 36.9718C112.775 42.8861 106.407 49.0063 99.6085 53.9661C92.6979 58.9913 84.8428 63.2305 77.2496 67.32C63.9989 74.4602 50.2994 81.8438 41.8552 93.4478C33.5139 104.921 30.8301 119.529 27.9967 134.998C26.435 143.532 24.8079 152.357 22.1428 160.583C19.6086 168.406 15.812 176.239 12.1463 183.809C11.1551 185.849 10.1639 187.899 9.20071 189.948C8.21883 192.026 8.49937 194.431 9.93011 196.228C11.2299 197.865 12.5578 199.54 13.895 201.234C24.7986 215.009 37.1516 230.628 44.2024 234.128C57.5559 240.763 72.9013 241.399 86.4419 241.951C97.8037 242.419 107.604 242.821 114.879 246.462C123.51 250.776 125.016 253.04 126.951 256.653C128.242 259.067 129.841 262.062 136.48 267.882C147.375 277.418 148.833 277.708 154.257 278.794C156.24 279.187 158.699 279.683 162.15 280.666C174.811 284.287 198.376 291.034 200.471 318.856C202.35 343.889 222.596 367.218 226.009 368.725C244.431 376.848 250.996 384.203 252.034 397.847C252.576 404.978 252.258 412.97 251.987 420.007C251.716 426.876 251.454 433.371 252.024 437.844C252.37 440.464 254.493 442.514 257.186 442.85C269.707 444.441 282.921 445.677 294.797 441.821C308.646 437.32 319.914 426.492 330.808 416.021C336.971 410.097 343.339 403.986 350.137 399.027C357.048 393.992 364.903 389.762 372.506 385.663C385.747 378.523 399.446 371.149 407.891 359.545C416.232 348.062 418.916 333.454 421.749 317.986C423.311 309.451 424.938 300.617 427.603 292.401C430.137 284.577 433.934 276.763 437.59 269.202C440.096 264.036 442.687 258.683 444.865 253.359C449.092 243.065 451.056 234.53 451.056 226.492C451.056 211.594 444.211 197.472 437.59 183.8C436.019 180.562 434.401 177.212 432.905 173.918C432.26 172.505 432.886 170.839 434.298 170.203C435.711 169.557 437.375 170.184 438.011 171.597C439.479 174.835 441.087 178.148 442.64 181.358C449.532 195.591 456.667 210.311 456.667 226.492C456.667 235.288 454.563 244.506 450.046 255.492C447.792 260.976 445.165 266.404 442.63 271.654C438.881 279.383 435.346 286.692 432.924 294.141C430.371 302.011 428.791 310.649 427.257 319.006C424.433 334.409 421.506 350.336 412.417 362.858C403.224 375.491 388.954 383.183 375.152 390.614C367.718 394.619 360.022 398.764 353.42 403.575C346.93 408.3 340.983 414.018 334.68 420.073C323.327 430.984 311.582 442.261 296.508 447.164C290.037 449.27 283.323 450 276.59 450L276.581 449.991Z" fill="#F16924"/>
<path d="M118.601 156.325C125.175 152.675 133.067 156.138 139.314 158.833C143.045 160.442 146.823 162.089 150.853 162.754C154.874 163.418 158.839 163.016 162.86 162.585C166.956 162.155 171.454 161.612 175.297 163.446C176.438 163.989 177.822 163.764 178.495 162.604C179.094 161.584 178.804 159.946 177.654 159.404C169.705 155.623 161.401 159.113 153.116 158.365C144.831 157.616 137.874 152.114 129.785 150.616C125.165 149.755 120.424 149.961 116.235 152.282C113.598 153.742 115.954 157.785 118.591 156.325H118.601Z" fill="#F16924"/>
<path d="M255.007 230.637C259.122 231.947 263.255 233.342 266.977 235.578C270.83 237.899 273.504 241.034 275.318 245.142C277.301 249.634 278.703 254.191 281.761 258.122C284.623 261.79 288.307 264.701 292.141 267.293C296.948 270.54 302.007 273.432 306.953 276.454C309.534 278.027 311.882 273.974 309.31 272.412C304.831 269.689 300.295 267.04 295.9 264.186C292.085 261.706 288.391 258.955 285.511 255.389C282.509 251.674 281.247 247.079 279.339 242.784C277.432 238.489 274.299 234.764 270.212 232.097C265.958 229.327 261.048 227.652 256.242 226.127C253.371 225.21 252.136 229.729 254.998 230.637H255.007Z" fill="#F16924"/>
<path d="M242.009 67.8254C248.518 65.5982 255.325 67.947 260.702 71.8213C266.088 75.6955 269.801 81.432 275.084 85.4373C278.039 87.6832 281.424 89.1244 285.156 89.349C288.157 89.5268 288.148 84.8477 285.156 84.6699C278.937 84.305 274.439 78.793 270.493 74.5913C265.574 69.3601 260.048 64.7653 252.931 62.9872C248.938 61.9859 244.693 61.9859 240.775 63.3242C239.578 63.7359 238.792 64.9337 239.138 66.2064C239.456 67.3668 240.812 68.2465 242.018 67.8441L242.009 67.8254Z" fill="#F16924"/>
<path d="M149.871 117.152C136.209 117.152 125.091 107.354 125.091 95.3007C125.091 83.2475 136.209 73.4496 149.871 73.4496C163.533 73.4496 174.652 83.2475 174.652 95.3007C174.652 107.354 163.533 117.152 149.871 117.152ZM149.871 78.138C138.781 78.138 129.766 85.8397 129.766 95.3101C129.766 104.78 138.781 112.482 149.871 112.482C160.962 112.482 169.976 104.78 169.976 95.3101C169.976 85.8397 160.962 78.138 149.871 78.138Z" fill="#F16924"/>
<path d="M211.907 307.196C198.245 307.196 187.127 297.398 187.127 285.345C187.127 273.291 198.245 263.493 211.907 263.493C225.57 263.493 236.688 273.291 236.688 285.345C236.688 297.398 225.57 307.196 211.907 307.196ZM211.907 268.172C200.817 268.172 191.802 275.874 191.802 285.345C191.802 294.815 200.817 302.517 211.907 302.517C222.998 302.517 232.013 294.815 232.013 285.345C232.013 275.874 222.998 268.172 211.907 268.172Z" fill="#F16924"/>
<path d="M326.217 222.215C312.555 222.215 301.436 212.314 301.436 200.139C301.436 187.964 312.555 178.064 326.217 178.064C339.879 178.064 350.998 187.964 350.998 200.139C350.998 212.314 339.879 222.215 326.217 222.215ZM326.217 182.743C315.126 182.743 306.112 190.547 306.112 200.139C306.112 209.731 315.126 217.536 326.217 217.536C337.307 217.536 346.322 209.731 346.322 200.139C346.322 190.547 337.307 182.743 326.217 182.743Z" fill="#F16924"/>
<path d="M311.741 276.398C320.653 274.639 330.023 278.523 335.961 285.204C339.131 288.77 340.945 293.018 341.787 297.679C342.815 303.378 342.918 309.357 345.789 314.542C348.81 319.998 354.523 323.423 360.667 323.984C361.929 324.096 363.005 322.824 363.005 321.645C363.005 320.288 361.929 319.417 360.667 319.305C355.72 318.856 351.381 315.609 349.296 311.145C346.893 305.988 347.164 299.962 345.892 294.506C343.62 284.708 336.054 276.997 326.843 273.366C321.654 271.317 315.959 270.811 310.497 271.888C309.254 272.131 308.552 273.61 308.861 274.77C309.216 276.061 310.497 276.651 311.741 276.408V276.398Z" fill="#F16924"/>
<path d="M61.5022 289.434C57.6027 289.434 53.1328 286.926 49.8038 285.054C48.4385 284.287 47.148 283.566 46.3906 283.286C40.6396 281.152 41.21 262.792 41.2193 262.614C41.3409 260.723 41.6214 256.297 44.7915 255.558C46.6711 255.118 48.3543 256.175 49.7944 258.693C51.0475 260.892 55.4332 260.873 59.3046 260.864C63.8961 260.854 68.6465 260.826 70.7786 264.401C74.5191 270.662 70.844 282.565 66.636 287.226C65.1959 288.826 63.4192 289.434 61.4928 289.434H61.5022ZM48.7751 278.186C49.8599 278.644 51.1223 279.346 52.553 280.151C55.1153 281.592 61.1188 284.961 62.4747 283.464C65.6728 279.917 68.0574 270.774 65.972 267.274C65.4764 266.441 61.4741 266.46 59.342 266.469C55.1059 266.469 50.0376 266.507 46.7646 263.69C46.6431 268.491 47.5782 276.258 48.7751 278.176V278.186Z" fill="#F16924"/>
<path d="M144.335 338.049C141.633 338.049 138.425 336.374 134.648 334.39C132.123 333.071 129.261 331.573 126.484 330.581C121.574 328.822 114.711 329.898 108.66 330.844C101.928 331.892 96.6161 332.724 93.3712 330.132C88.8826 326.539 82.5144 309.292 86.5541 301.918C87.4425 300.289 90.2292 296.743 96.8311 298.998C99.9919 300.074 104.05 298.343 108.342 296.518C114.636 293.832 121.771 290.791 128.925 295.264C134.479 298.736 148.469 315.421 149.759 328.766C150.021 331.489 150.058 335.317 147.328 337.16C146.411 337.778 145.42 338.04 144.345 338.04L144.335 338.049ZM120.003 324.022C122.921 324.022 125.764 324.358 128.373 325.294C131.515 326.417 134.554 328.008 137.238 329.412C139.482 330.581 142.783 332.313 144.102 332.416C144.204 332.041 144.335 331.152 144.158 329.299C143.036 317.733 130.15 302.648 125.932 300.018C121.257 297.098 116.039 299.316 110.521 301.674C105.444 303.836 100.198 306.073 95.0076 304.304C92.1649 303.331 91.6693 304.229 91.4635 304.613C89.0322 309.049 94.1847 323.591 96.8685 325.743C98.1777 326.791 103.732 325.931 107.781 325.294C111.7 324.677 115.917 324.022 119.994 324.022H120.003Z" fill="#F16924"/>
<path d="M35.805 347.314C35.2907 347.314 34.795 347.276 34.3181 347.183C31.5502 346.659 29.7267 344.665 29.3059 341.708C28.3053 334.727 29.2591 326.951 29.3059 326.623C29.4087 325.8 29.8669 325.06 30.5683 324.611C31.2696 324.162 32.1299 324.04 32.9154 324.284C37.3199 325.64 47.494 329.459 46.7459 335.551C46.4841 337.684 46.6618 338.695 46.7833 339.434C46.9236 340.22 47.12 341.399 46.3999 342.681C45.4367 344.385 40.1065 347.295 35.805 347.295V347.314ZM34.58 330.862C34.4303 333.567 34.3649 337.413 34.8699 340.913C34.954 341.53 35.1036 341.587 35.1784 341.605C36.4409 342.073 39.5829 340.857 41.1819 339.921C41.0323 338.938 40.8734 337.432 41.1726 334.97C40.7985 333.969 37.9651 332.257 34.5893 330.853L34.58 330.862Z" fill="#F16924"/>
<path d="M153.836 407.627C151.872 407.627 149.488 406.766 146.729 405.774C145.626 405.371 144.111 404.829 143.073 404.557C142.662 405.091 142.091 405.484 141.408 405.689C137.35 406.915 129.327 399.644 125.792 394.301C121.481 387.778 121.294 381.555 125.259 376.782C126.241 375.603 129.224 372.01 132.852 372.946C134.414 373.348 135.508 374.49 136.2 375.772H149.853C154.622 375.772 162.851 383.642 162.851 391.69C162.851 396.023 160.737 398.24 159.335 399.71C158.091 401.01 157.811 401.366 158.035 402.639C158.428 404.847 157.408 406.092 156.763 406.625C155.931 407.327 154.949 407.608 153.827 407.608L153.836 407.627ZM142.11 398.774C143.868 398.774 146.009 399.551 148.637 400.496C149.694 400.879 151.209 401.422 152.377 401.74C152.462 398.821 154.061 397.136 155.295 395.845C156.483 394.6 157.259 393.777 157.259 391.699C157.259 386.767 151.508 381.564 149.843 381.396H134.273C132.927 381.396 131.777 380.441 131.515 379.122C131.487 378.981 131.421 378.804 131.356 378.645C131.001 378.888 130.402 379.384 129.57 380.385C127.924 382.369 127.597 384.709 128.597 387.535C130.496 392.953 136.471 398.109 139.342 399.738C139.445 399.654 139.548 399.569 139.66 399.485C140.38 398.98 141.184 398.774 142.1 398.774H142.11Z" fill="#F16924"/>
<path d="M671.025 148.342C663.338 156.325 655.614 164.326 647.02 171.363C642.859 174.769 638.464 177.923 633.835 180.674C628.776 183.678 623.427 186.149 618.022 188.442C596.589 197.528 574.221 206.334 550.721 207.504C537.424 208.168 524.117 206.559 511.353 202.769C508.463 201.908 507.229 206.428 510.109 207.279C521.751 210.733 533.927 212.445 546.074 212.314C558.221 212.183 570.172 210.096 581.805 206.774C593.438 203.452 604.594 199.026 615.712 194.431C621.389 192.091 627.056 189.705 632.479 186.804C637.464 184.137 642.176 181.011 646.656 177.577C656.708 169.857 665.555 160.76 674.335 151.655C676.421 149.484 673.12 146.171 671.025 148.342Z" stroke="#F16924" stroke-width="5" stroke-linecap="round" stroke-linejoin="round"/>
<path d="M427.762 321.326L426.668 316.778C466.102 307.308 460.622 282.256 460.37 281.199L459.799 278.813L462.203 278.345L505.733 270.119C510.782 268.715 514.99 265.412 517.609 260.826C520.236 256.213 520.919 250.86 519.526 245.769L499.093 171.129C496.204 160.573 485.281 154.341 474.743 157.223L456.106 162.351C455.834 162.426 455.348 162.585 454.628 162.903C450.486 164.756 442.537 169.988 436.898 174.564L433.952 170.933C439.208 166.665 447.671 160.901 452.72 158.636C453.506 158.281 454.226 158.019 454.853 157.841L473.499 152.713C486.525 149.138 500.028 156.849 503.591 169.894L524.024 244.534C525.744 250.832 524.903 257.439 521.658 263.138C518.413 268.846 513.158 272.936 506.864 274.658L506.677 274.704L465.26 282.528C465.606 286.159 465.494 293.355 460.921 300.879C455.021 310.574 443.855 317.461 427.734 321.336L427.762 321.326Z" stroke="#F16924" stroke-width="5" stroke-linecap="round" stroke-linejoin="round"/>
<path d="M362.79 169.248V169.267C362.949 169.538 363.145 169.763 363.397 169.922C363.622 170.128 363.884 170.268 364.192 170.343C364.501 170.437 364.809 170.455 365.127 170.381C365.436 170.362 365.726 170.278 365.997 170.1L366.474 169.735C366.764 169.445 366.96 169.099 367.072 168.705L367.157 168.088C367.157 167.667 367.044 167.274 366.839 166.909V166.89C366.68 166.619 366.483 166.394 366.231 166.235C366.006 166.029 365.745 165.889 365.436 165.814C365.127 165.72 364.819 165.702 364.501 165.776C364.192 165.795 363.902 165.879 363.631 166.057L363.154 166.422C362.864 166.712 362.668 167.058 362.556 167.451L362.472 168.069C362.472 168.49 362.584 168.883 362.79 169.248Z" stroke="#F16924" stroke-width="5" stroke-linecap="round" stroke-linejoin="round"/>
<path d="M464.662 279.468C461.174 271.878 457.686 264.289 454.198 256.7C453.702 255.623 453.207 254.547 452.72 253.48C452.374 252.732 451.467 252.348 450.701 252.32C449.251 252.273 447.792 252.123 446.352 251.955C445.903 251.899 445.454 251.843 445.006 251.787C445.819 251.889 445.024 251.786 444.837 251.758C444.51 251.712 444.183 251.665 443.865 251.609C441.34 251.216 438.824 250.71 436.346 250.093C433.317 249.335 430.334 248.408 427.435 247.267C427.107 247.136 426.78 247.005 426.453 246.874C426.406 246.855 425.761 246.583 426.228 246.78C426.032 246.696 425.836 246.611 425.639 246.527C424.854 246.181 424.068 245.816 423.292 245.432C421.787 244.693 420.309 243.879 418.878 242.999C415.858 241.128 413.651 239.415 411.126 236.795C408.601 234.175 406.731 231.489 405.104 228.026C401.289 219.875 401.448 209.844 403.215 200.748C404.188 195.741 405.712 190.978 408.47 186.729C409.013 185.887 409.546 185.166 409.957 184.67C410.556 183.95 411.182 183.267 411.865 182.621C412.183 182.312 412.51 182.013 412.847 181.732C412.996 181.601 413.155 181.479 413.305 181.348C413.408 181.264 413.511 181.18 413.614 181.105C413.427 181.255 413.398 181.273 413.529 181.17C414.212 180.665 414.923 180.197 415.652 179.767C417.625 178.616 416.821 175.35 414.474 175.406C406.74 175.584 399.035 174.929 391.358 174.068C384.671 173.319 378.013 172.383 371.86 169.492C365.67 166.581 360.452 162.099 357.525 155.838C354.944 150.298 354.561 143.598 357.572 138.151C360.321 133.173 365.268 129.879 370.448 127.811C376.508 125.396 382.979 124.245 389.403 123.328C397.614 122.158 405.974 121.531 414.249 122.28C421.431 122.935 428.753 124.666 434.934 128.522C440.143 131.769 444.445 136.355 447.418 141.726C448.905 144.412 450.027 147.266 450.766 150.251C451.355 152.628 451.542 154.799 451.514 157.223C451.514 158.065 451.458 158.917 451.514 159.75C451.673 162.744 456.349 162.763 456.19 159.75C456.096 157.897 456.339 156.025 456.19 154.172C455.919 150.71 454.965 147.219 453.665 144.01C451.075 137.627 446.96 131.891 441.583 127.549C428.519 116.993 410.556 116.263 394.546 117.994C387.14 118.799 379.584 119.828 372.468 122.121C366.343 124.096 360.143 127.146 356.001 132.228C351.39 137.88 349.866 145.048 351.418 152.151C352.971 159.254 357.618 165.739 363.641 170.081C369.906 174.601 377.574 176.959 385.158 178.007C392.742 179.056 400.176 179.795 407.694 180.038C409.967 180.113 412.23 180.122 414.502 180.066L413.324 175.705C406.17 179.888 401.943 187.356 399.755 195.161C398.147 200.879 397.352 207.017 397.361 212.95C397.361 217.555 398.016 222.215 399.54 226.576C404.646 241.212 418.252 249.793 432.54 253.892C438.394 255.567 444.622 256.765 450.719 256.971L448.699 255.81C452.187 263.4 455.675 270.989 459.163 278.579C459.659 279.655 460.155 280.731 460.641 281.798C461.165 282.949 462.829 283.23 463.839 282.64C465.017 281.948 465.204 280.591 464.681 279.44L464.662 279.468Z" stroke="#F16924" stroke-width="5" stroke-linecap="round" stroke-linejoin="round"/>
<path d="M276.581 449.991C269.82 449.991 263.04 449.251 256.447 448.409C251.229 447.745 247.115 443.711 246.442 438.611C246.442 438.574 246.423 438.49 246.423 438.452C245.806 433.605 246.077 426.885 246.357 419.773C246.647 412.54 246.937 405.072 246.423 398.259C245.675 388.377 241.953 381.892 223.727 373.853C217.34 371.037 196.796 345.068 194.86 319.268C193.065 295.348 172.735 289.528 160.597 286.056C157.371 285.129 155.033 284.661 153.154 284.287C146.533 282.968 144.326 282.2 132.777 272.094C125.362 265.599 123.407 261.949 121.986 259.282C120.583 256.643 119.807 255.193 112.354 251.468C106.164 248.371 96.9059 247.987 86.1988 247.547C72.0971 246.967 56.1159 246.303 41.6963 239.144C33.5233 235.092 21.3106 219.641 9.4906 204.706C8.15337 203.012 6.83485 201.346 5.53502 199.718C2.75771 196.228 2.22469 191.567 4.12299 187.534C5.10487 185.466 6.10546 183.407 7.09669 181.348C10.8465 173.609 14.3906 166.291 16.8033 158.842C19.3561 150.972 20.9365 142.334 22.4701 133.978C25.2942 118.574 28.2211 102.647 37.3105 90.135C46.5028 77.4923 60.7728 69.7999 74.5752 62.3603C82.0094 58.355 89.6962 54.2093 96.2981 49.4086C102.788 44.6828 108.735 38.9651 115.038 32.9104C126.39 21.9989 138.136 10.7224 153.21 5.81873C167.62 1.13033 183.536 3.25462 198.928 5.30404C207.494 6.44573 216.349 7.62483 224.859 7.62483C233.369 7.62483 242.224 6.44573 250.79 5.30404C266.182 3.25462 282.098 1.13033 296.508 5.81873C311.582 10.713 323.318 21.9989 334.68 32.9104C340.983 38.9651 346.93 44.6828 353.42 49.4086C360.022 54.2093 367.708 58.355 375.143 62.3603C388.945 69.7999 403.215 77.4923 412.407 90.135C418.71 98.8006 422.628 107.719 425.125 119.042C425.462 120.558 424.498 122.055 422.993 122.392C421.478 122.72 419.982 121.765 419.645 120.259C417.326 109.731 413.698 101.468 407.872 93.4478C399.428 81.8344 385.728 74.4602 372.477 67.32C364.884 63.2212 357.02 58.9913 350.119 53.9661C343.32 49.0156 336.952 42.8954 330.79 36.9718C319.895 26.5001 308.627 15.6728 294.778 11.1715C281.574 6.87619 266.986 8.82267 251.529 10.8814C242.785 12.0512 233.733 13.249 224.859 13.249C215.985 13.249 206.942 12.0419 198.189 10.8814C182.741 8.82267 168.153 6.87619 154.949 11.1715C141.1 15.6728 129.832 26.5001 118.937 36.9718C112.775 42.8861 106.407 49.0063 99.6085 53.9661C92.6979 58.9913 84.8428 63.2305 77.2496 67.32C63.9989 74.4602 50.2994 81.8438 41.8552 93.4478C33.5139 104.921 30.8301 119.529 27.9967 134.998C26.435 143.532 24.8079 152.357 22.1428 160.583C19.6086 168.406 15.812 176.239 12.1463 183.809C11.1551 185.849 10.1639 187.899 9.20071 189.948C8.21883 192.026 8.49937 194.431 9.93011 196.228C11.2299 197.865 12.5578 199.54 13.895 201.234C24.7986 215.009 37.1516 230.628 44.2024 234.128C57.5559 240.763 72.9013 241.399 86.4419 241.951C97.8037 242.419 107.604 242.821 114.879 246.462C123.51 250.776 125.016 253.04 126.951 256.653C128.242 259.067 129.841 262.062 136.48 267.882C147.375 277.418 148.833 277.708 154.257 278.794C156.24 279.187 158.699 279.683 162.15 280.666C174.811 284.287 198.376 291.034 200.471 318.856C202.35 343.889 222.596 367.218 226.009 368.725C244.431 376.848 250.996 384.203 252.034 397.847C252.576 404.978 252.258 412.97 251.987 420.007C251.716 426.876 251.454 433.371 252.024 437.844C252.37 440.464 254.493 442.514 257.186 442.85C269.707 444.441 282.921 445.677 294.797 441.821C308.646 437.32 319.914 426.492 330.808 416.021C336.971 410.097 343.339 403.986 350.137 399.027C357.048 393.992 364.903 389.762 372.506 385.663C385.747 378.523 399.446 371.149 407.891 359.545C416.232 348.062 418.916 333.454 421.749 317.986C423.311 309.451 424.938 300.617 427.603 292.401C430.137 284.577 433.934 276.763 437.59 269.202C440.096 264.036 442.687 258.683 444.865 253.359C449.092 243.065 451.056 234.53 451.056 226.492C451.056 211.594 444.211 197.472 437.59 183.8C436.019 180.562 434.401 177.212 432.905 173.918C432.26 172.505 432.886 170.839 434.298 170.203C435.711 169.557 437.375 170.184 438.011 171.597C439.479 174.835 441.087 178.148 442.64 181.358C449.532 195.591 456.667 210.311 456.667 226.492C456.667 235.288 454.563 244.506 450.046 255.492C447.792 260.976 445.165 266.404 442.63 271.654C438.881 279.383 435.346 286.692 432.924 294.141C430.371 302.011 428.791 310.649 427.257 319.006C424.433 334.409 421.506 350.336 412.417 362.858C403.224 375.491 388.954 383.183 375.152 390.614C367.718 394.619 360.022 398.764 353.42 403.575C346.93 408.3 340.983 414.018 334.68 420.073C323.327 430.984 311.582 442.261 296.508 447.164C290.037 449.27 283.323 450 276.59 450L276.581 449.991Z" stroke="#F16924" stroke-width="5" stroke-linecap="round" stroke-linejoin="round"/>
<path d="M118.601 156.325C125.175 152.675 133.067 156.138 139.314 158.833C143.045 160.442 146.823 162.089 150.853 162.754C154.874 163.418 158.839 163.016 162.86 162.585C166.956 162.155 171.454 161.612 175.297 163.446C176.438 163.989 177.822 163.764 178.495 162.604C179.094 161.584 178.804 159.946 177.654 159.404C169.705 155.623 161.401 159.113 153.116 158.365C144.831 157.616 137.874 152.114 129.785 150.616C125.165 149.755 120.424 149.961 116.235 152.282C113.598 153.742 115.954 157.785 118.591 156.325H118.601Z" stroke="#F16924" stroke-width="5" stroke-linecap="round" stroke-linejoin="round"/>
<path d="M255.007 230.637C259.122 231.947 263.255 233.342 266.977 235.578C270.83 237.899 273.504 241.034 275.318 245.142C277.301 249.634 278.703 254.191 281.761 258.122C284.623 261.79 288.307 264.701 292.141 267.293C296.948 270.54 302.007 273.432 306.953 276.454C309.534 278.027 311.882 273.974 309.31 272.412C304.831 269.689 300.295 267.04 295.9 264.186C292.085 261.706 288.391 258.955 285.511 255.389C282.509 251.674 281.247 247.079 279.339 242.784C277.432 238.489 274.299 234.764 270.212 232.097C265.958 229.327 261.048 227.652 256.242 226.127C253.371 225.21 252.136 229.729 254.998 230.637H255.007Z" stroke="#F16924" stroke-width="5" stroke-linecap="round" stroke-linejoin="round"/>
<path d="M242.009 67.8254C248.518 65.5982 255.325 67.947 260.702 71.8213C266.088 75.6955 269.801 81.432 275.084 85.4373C278.039 87.6832 281.424 89.1244 285.156 89.349C288.157 89.5268 288.148 84.8477 285.156 84.6699C278.937 84.305 274.439 78.793 270.493 74.5913C265.574 69.3601 260.048 64.7653 252.931 62.9872C248.938 61.9859 244.693 61.9859 240.775 63.3242C239.578 63.7359 238.792 64.9337 239.138 66.2064C239.456 67.3668 240.812 68.2465 242.018 67.8441L242.009 67.8254Z" stroke="#F16924" stroke-width="5" stroke-linecap="round" stroke-linejoin="round"/>
<path d="M149.871 117.152C136.209 117.152 125.091 107.354 125.091 95.3007C125.091 83.2475 136.209 73.4496 149.871 73.4496C163.533 73.4496 174.652 83.2475 174.652 95.3007C174.652 107.354 163.533 117.152 149.871 117.152ZM149.871 78.138C138.781 78.138 129.766 85.8397 129.766 95.3101C129.766 104.78 138.781 112.482 149.871 112.482C160.962 112.482 169.976 104.78 169.976 95.3101C169.976 85.8397 160.962 78.138 149.871 78.138Z" stroke="#F16924" stroke-width="5" stroke-linecap="round" stroke-linejoin="round"/>
<path d="M211.907 307.196C198.245 307.196 187.127 297.398 187.127 285.345C187.127 273.291 198.245 263.493 211.907 263.493C225.57 263.493 236.688 273.291 236.688 285.345C236.688 297.398 225.57 307.196 211.907 307.196ZM211.907 268.172C200.817 268.172 191.802 275.874 191.802 285.345C191.802 294.815 200.817 302.517 211.907 302.517C222.998 302.517 232.013 294.815 232.013 285.345C232.013 275.874 222.998 268.172 211.907 268.172Z" stroke="#F16924" stroke-width="5" stroke-linecap="round" stroke-linejoin="round"/>
<path d="M326.217 222.215C312.555 222.215 301.436 212.314 301.436 200.139C301.436 187.964 312.555 178.064 326.217 178.064C339.879 178.064 350.998 187.964 350.998 200.139C350.998 212.314 339.879 222.215 326.217 222.215ZM326.217 182.743C315.126 182.743 306.112 190.547 306.112 200.139C306.112 209.731 315.126 217.536 326.217 217.536C337.307 217.536 346.322 209.731 346.322 200.139C346.322 190.547 337.307 182.743 326.217 182.743Z" stroke="#F16924" stroke-width="5" stroke-linecap="round" stroke-linejoin="round"/>
<path d="M311.741 276.398C320.653 274.639 330.023 278.523 335.961 285.204C339.131 288.77 340.945 293.018 341.787 297.679C342.815 303.378 342.918 309.357 345.789 314.542C348.81 319.998 354.523 323.423 360.667 323.984C361.929 324.096 363.005 322.824 363.005 321.645C363.005 320.288 361.929 319.417 360.667 319.305C355.72 318.856 351.381 315.609 349.296 311.145C346.893 305.988 347.164 299.962 345.892 294.506C343.62 284.708 336.054 276.997 326.843 273.366C321.654 271.317 315.959 270.811 310.497 271.888C309.254 272.131 308.552 273.61 308.861 274.77C309.216 276.061 310.497 276.651 311.741 276.408V276.398Z" stroke="#F16924" stroke-width="5" stroke-linecap="round" stroke-linejoin="round"/>
<path d="M61.5022 289.434C57.6027 289.434 53.1328 286.926 49.8038 285.054C48.4385 284.287 47.148 283.566 46.3906 283.286C40.6396 281.152 41.21 262.792 41.2193 262.614C41.3409 260.723 41.6214 256.297 44.7915 255.558C46.6711 255.118 48.3543 256.175 49.7944 258.693C51.0475 260.892 55.4332 260.873 59.3046 260.864C63.8961 260.854 68.6465 260.826 70.7786 264.401C74.5191 270.662 70.844 282.565 66.636 287.226C65.1959 288.826 63.4192 289.434 61.4928 289.434H61.5022ZM48.7751 278.186C49.8599 278.644 51.1223 279.346 52.553 280.151C55.1153 281.592 61.1188 284.961 62.4747 283.464C65.6728 279.917 68.0574 270.774 65.972 267.274C65.4764 266.441 61.4741 266.46 59.342 266.469C55.1059 266.469 50.0376 266.507 46.7646 263.69C46.6431 268.491 47.5782 276.258 48.7751 278.176V278.186Z" stroke="#F16924" stroke-width="5" stroke-linecap="round" stroke-linejoin="round"/>
<path d="M144.335 338.049C141.633 338.049 138.425 336.374 134.648 334.39C132.123 333.071 129.261 331.573 126.484 330.581C121.574 328.822 114.711 329.898 108.66 330.844C101.928 331.892 96.6161 332.724 93.3712 330.132C88.8826 326.539 82.5144 309.292 86.5541 301.918C87.4425 300.289 90.2292 296.743 96.8311 298.998C99.9919 300.074 104.05 298.343 108.342 296.518C114.636 293.832 121.771 290.791 128.925 295.264C134.479 298.736 148.469 315.421 149.759 328.766C150.021 331.489 150.058 335.317 147.328 337.16C146.411 337.778 145.42 338.04 144.345 338.04L144.335 338.049ZM120.003 324.022C122.921 324.022 125.764 324.358 128.373 325.294C131.515 326.417 134.554 328.008 137.238 329.412C139.482 330.581 142.783 332.313 144.102 332.416C144.204 332.041 144.335 331.152 144.158 329.299C143.036 317.733 130.15 302.648 125.932 300.018C121.257 297.098 116.039 299.316 110.521 301.674C105.444 303.836 100.198 306.073 95.0076 304.304C92.1649 303.331 91.6693 304.229 91.4635 304.613C89.0322 309.049 94.1847 323.591 96.8685 325.743C98.1777 326.791 103.732 325.931 107.781 325.294C111.7 324.677 115.917 324.022 119.994 324.022H120.003Z" stroke="#F16924" stroke-width="5" stroke-linecap="round" stroke-linejoin="round"/>
<path d="M35.805 347.314C35.2907 347.314 34.795 347.276 34.3181 347.183C31.5502 346.659 29.7267 344.665 29.3059 341.708C28.3053 334.727 29.2591 326.951 29.3059 326.623C29.4087 325.8 29.8669 325.06 30.5683 324.611C31.2696 324.162 32.1299 324.04 32.9154 324.284C37.3199 325.64 47.494 329.459 46.7459 335.551C46.4841 337.684 46.6618 338.695 46.7833 339.434C46.9236 340.22 47.12 341.399 46.3999 342.681C45.4367 344.385 40.1065 347.295 35.805 347.295V347.314ZM34.58 330.862C34.4303 333.567 34.3649 337.413 34.8699 340.913C34.954 341.53 35.1036 341.587 35.1784 341.605C36.4409 342.073 39.5829 340.857 41.1819 339.921C41.0323 338.938 40.8734 337.432 41.1726 334.97C40.7985 333.969 37.9651 332.257 34.5893 330.853L34.58 330.862Z" stroke="#F16924" stroke-width="5" stroke-linecap="round" stroke-linejoin="round"/>
<path d="M153.836 407.627C151.872 407.627 149.488 406.766 146.729 405.774C145.626 405.371 144.111 404.829 143.073 404.557C142.662 405.091 142.091 405.484 141.408 405.689C137.35 406.915 129.327 399.644 125.792 394.301C121.481 387.778 121.294 381.555 125.259 376.782C126.241 375.603 129.224 372.01 132.852 372.946C134.414 373.348 135.508 374.49 136.2 375.772H149.853C154.622 375.772 162.851 383.642 162.851 391.69C162.851 396.023 160.737 398.24 159.335 399.71C158.091 401.01 157.811 401.366 158.035 402.639C158.428 404.847 157.408 406.092 156.763 406.625C155.931 407.327 154.949 407.608 153.827 407.608L153.836 407.627ZM142.11 398.774C143.868 398.774 146.009 399.551 148.637 400.496C149.694 400.879 151.209 401.422 152.377 401.74C152.462 398.821 154.061 397.136 155.295 395.845C156.483 394.6 157.259 393.777 157.259 391.699C157.259 386.767 151.508 381.564 149.843 381.396H134.273C132.927 381.396 131.777 380.441 131.515 379.122C131.487 378.981 131.421 378.804 131.356 378.645C131.001 378.888 130.402 379.384 129.57 380.385C127.924 382.369 127.597 384.709 128.597 387.535C130.496 392.953 136.471 398.109 139.342 399.738C139.445 399.654 139.548 399.569 139.66 399.485C140.38 398.98 141.184 398.774 142.1 398.774H142.11Z" stroke="#F16924" stroke-width="5" stroke-linecap="round" stroke-linejoin="round"/>
</svg>
