<svg width="207" height="135" viewBox="0 0 207 135" fill="none" xmlns="http://www.w3.org/2000/svg">
<g clip-path="url(#clip0_11_29)">
<path d="M39.5 135C58.0015 135 73 113.286 73 86.5C73 59.7142 58.0015 38 39.5 38C20.9985 38 6 59.7142 6 86.5C6 113.286 20.9985 135 39.5 135Z" fill="#231F20"/>
<path d="M57 111C66.9411 111 75 100.031 75 86.5C75 72.969 66.9411 62 57 62C47.0589 62 39 72.969 39 86.5C39 100.031 47.0589 111 57 111Z" fill="white"/>
<path d="M39.5 135C58.0015 135 73 113.286 73 86.5C73 59.7142 58.0015 38 39.5 38C20.9985 38 6 59.7142 6 86.5C6 113.286 20.9985 135 39.5 135Z" fill="#231F20"/>
<path d="M69 93C69 100.623 66.7067 107.445 63.0962 112.315C59.4854 117.185 54.6564 120 49.5 120C44.3436 120 39.5146 117.185 35.9038 112.315C32.2933 107.445 30 100.623 30 93C30 85.3774 32.2933 78.5551 35.9038 73.685C39.5146 68.8147 44.3436 66 49.5 66C54.6564 66 59.4854 68.8147 63.0962 73.685C66.7067 78.5551 69 85.3774 69 93Z" fill="white" stroke="#231F20" stroke-width="4"/>
<path d="M169.5 135C150.998 135 136 113.286 136 86.5C136 59.7142 150.998 38 169.5 38C188.002 38 203 59.7142 203 86.5C203 113.286 188.002 135 169.5 135Z" fill="#231F20"/>
<path d="M152 111C142.059 111 134 100.031 134 86.5C134 72.969 142.059 62 152 62C161.941 62 170 72.969 170 86.5C170 100.031 161.941 111 152 111Z" fill="white"/>
<path d="M169.5 135C150.998 135 136 113.286 136 86.5C136 59.7142 150.998 38 169.5 38C188.002 38 203 59.7142 203 86.5C203 113.286 188.002 135 169.5 135Z" fill="#231F20"/>
<path d="M139 92C139 99.6226 141.293 106.445 144.904 111.315C148.515 116.185 153.344 119 158.5 119C163.656 119 168.485 116.185 172.096 111.315C175.707 106.445 178 99.6226 178 92C178 84.3774 175.707 77.5551 172.096 72.685C168.485 67.8147 163.656 65 158.5 65C153.344 65 148.515 67.8147 144.904 72.685C141.293 77.5551 139 84.3774 139 92Z" fill="white" stroke="#231F20" stroke-width="4"/>
<path d="M140.5 17.9998C153.833 9.99974 185.3 -1.20026 204.5 17.9998" stroke="black" stroke-width="5" stroke-linecap="round"/>
<path d="M67 13.6013C53.6667 5.60132 22.2 -5.59868 3 13.6013" stroke="black" stroke-width="5" stroke-linecap="round"/>
</g>
<defs>
<clipPath id="clip0_11_29">
<rect width="207" height="135" fill="white"/>
</clipPath>
</defs>
</svg>
