<svg width="137" height="199" viewBox="0 0 137 199" fill="none" xmlns="http://www.w3.org/2000/svg">
<path d="M92.3372 2.59277H42.0156C31.7411 2.59277 23.412 10.9219 23.412 21.1964V34.3082C23.412 39.4454 27.5765 43.61 32.7138 43.61C37.851 43.61 42.0156 47.7746 42.0156 52.9118V82.916C42.0156 85.3268 41.5797 87.7178 40.729 89.9735L10.9201 169.013C5.98682 182.093 15.6534 196.07 29.6335 196.07H107.976C121.956 196.07 131.623 182.093 126.689 169.013L96.8806 89.9735C96.0299 87.7178 95.594 85.3268 95.594 82.916V51.9816C95.594 47.3581 99.3421 43.61 103.966 43.61C108.589 43.61 112.337 39.8619 112.337 35.2384V22.5928C112.337 11.5471 103.383 2.59277 92.3372 2.59277Z" stroke="#F16923" stroke-width="5"/>
<path d="M83.5203 116.447H55.0177C50.9158 116.447 47.2299 118.952 45.7199 122.766L27.7121 168.25C25.1134 174.814 29.9504 181.931 37.0099 181.931H100.813C107.815 181.931 112.649 174.922 110.161 168.378L92.8675 122.893C91.3921 119.012 87.6721 116.447 83.5203 116.447Z" fill="#F16923"/>
<path d="M57.5 159.5C57.5 163.81 53.8053 167.5 49 167.5C44.1947 167.5 40.5 163.81 40.5 159.5C40.5 155.19 44.1947 151.5 49 151.5C53.8053 151.5 57.5 155.19 57.5 159.5Z" stroke="white" stroke-width="5"/>
<path d="M95.5 167.5C95.5 170.112 93.192 172.5 90 172.5C86.808 172.5 84.5 170.112 84.5 167.5C84.5 164.888 86.808 162.5 90 162.5C93.192 162.5 95.5 164.888 95.5 167.5Z" stroke="white" stroke-width="5"/>
<circle cx="75" cy="140" r="12.5" stroke="white" stroke-width="5"/>
</svg>
