<svg width="127" height="216" viewBox="0 0 127 216" fill="none" xmlns="http://www.w3.org/2000/svg">
<mask id="path-1-inside-1_62_269" fill="white">
<path fill-rule="evenodd" clip-rule="evenodd" d="M32.0397 97.3286C37.4921 94.2128 41.5 88.7441 41.5 82.4642V57.25C41.5 51.8652 37.1348 47.5 31.75 47.5C26.3652 47.5 22 43.1348 22 37.75V15C22 6.71573 28.7157 0 37 0H90C98.2843 0 105 6.71573 105 15V36.75C105 42.6871 100.187 47.5 94.25 47.5C88.3129 47.5 83.5 52.3129 83.5 58.25V81.3843C83.5 87.8495 87.7388 93.4337 93.438 96.4862C113.413 107.185 127 128.256 127 152.5C127 187.57 98.5701 216 63.5 216C28.4299 216 0 187.57 0 152.5C0 128.877 12.8998 108.266 32.0397 97.3286Z"/>
</mask>
<path fill-rule="evenodd" clip-rule="evenodd" d="M32.0397 97.3286C37.4921 94.2128 41.5 88.7441 41.5 82.4642V57.25C41.5 51.8652 37.1348 47.5 31.75 47.5C26.3652 47.5 22 43.1348 22 37.75V15C22 6.71573 28.7157 0 37 0H90C98.2843 0 105 6.71573 105 15V36.75C105 42.6871 100.187 47.5 94.25 47.5C88.3129 47.5 83.5 52.3129 83.5 58.25V81.3843C83.5 87.8495 87.7388 93.4337 93.438 96.4862C113.413 107.185 127 128.256 127 152.5C127 187.57 98.5701 216 63.5 216C28.4299 216 0 187.57 0 152.5C0 128.877 12.8998 108.266 32.0397 97.3286Z" fill="white"/>
<path d="M93.438 96.4862L95.7987 92.0786L93.438 96.4862ZM32.0397 97.3286L29.5589 92.9875L32.0397 97.3286ZM36.5 57.25V82.4642H46.5V57.25H36.5ZM31.75 52.5C34.3734 52.5 36.5 54.6266 36.5 57.25H46.5C46.5 49.1038 39.8962 42.5 31.75 42.5V52.5ZM17 37.75C17 45.8962 23.6038 52.5 31.75 52.5V42.5C29.1266 42.5 27 40.3734 27 37.75H17ZM17 15V37.75H27V15H17ZM37 -5C25.9543 -5 17 3.9543 17 15H27C27 9.47715 31.4772 5 37 5V-5ZM90 -5H37V5H90V-5ZM110 15C110 3.9543 101.046 -5 90 -5V5C95.5229 5 100 9.47715 100 15H110ZM110 36.75V15H100V36.75H110ZM94.25 52.5C102.948 52.5 110 45.4485 110 36.75H100C100 39.9256 97.4256 42.5 94.25 42.5V52.5ZM88.5 58.25C88.5 55.0744 91.0744 52.5 94.25 52.5V42.5C85.5515 42.5 78.5 49.5515 78.5 58.25H88.5ZM88.5 81.3843V58.25H78.5V81.3843H88.5ZM91.0773 100.894C109.492 110.757 122 130.172 122 152.5H132C132 126.34 117.334 103.613 95.7987 92.0786L91.0773 100.894ZM122 152.5C122 184.809 95.8087 211 63.5 211V221C101.332 221 132 190.332 132 152.5H122ZM63.5 211C31.1913 211 5 184.809 5 152.5H-5C-5 190.332 25.6685 221 63.5 221V211ZM5 152.5C5 130.743 16.8747 111.754 34.5205 101.67L29.5589 92.9875C8.925 104.779 -5 127.01 -5 152.5H5ZM78.5 81.3843C78.5 90.1444 84.194 97.2071 91.0773 100.894L95.7987 92.0786C91.2836 89.6603 88.5 85.5546 88.5 81.3843H78.5ZM36.5 82.4642C36.5 86.517 33.8698 90.524 29.5589 92.9875L34.5205 101.67C41.1145 97.9016 46.5 90.9712 46.5 82.4642H36.5Z" fill="#F16923" mask="url(#path-1-inside-1_62_269)"/>
<circle cx="65" cy="152" r="43" fill="#F16923"/>
<path d="M55.5 156.5C55.5 160.81 51.8053 164.5 47 164.5C42.1947 164.5 38.5 160.81 38.5 156.5C38.5 152.19 42.1947 148.5 47 148.5C51.8053 148.5 55.5 152.19 55.5 156.5Z" stroke="white" stroke-width="5"/>
<path d="M92.5 163.5C92.5 166.427 90.3256 168.5 88 168.5C85.6744 168.5 83.5 166.427 83.5 163.5C83.5 160.573 85.6744 158.5 88 158.5C90.3256 158.5 92.5 160.573 92.5 163.5Z" stroke="white" stroke-width="5"/>
<circle cx="73" cy="137" r="12.5" stroke="white" stroke-width="5"/>
</svg>
