<svg width="138" height="199" viewBox="0 0 138 199" fill="none" xmlns="http://www.w3.org/2000/svg">
<path d="M93.1147 3H41.8525C31.4405 3 23 11.4405 23 21.8524V34.4898C23 39.6957 27.2203 43.916 32.4262 43.916C37.6322 43.916 41.8525 48.1363 41.8525 53.3422V83.0618C41.8525 85.5079 41.4038 87.9331 40.5286 90.2173L10.4041 168.845C5.38649 181.941 15.0557 196 29.0803 196H108.92C122.944 196 132.613 181.941 127.596 168.845L97.4714 90.2173C96.5962 87.9331 96.1475 85.5079 96.1475 83.0618V52.3996C96.1475 47.7142 99.9458 43.916 104.631 43.916C109.317 43.916 113.115 40.1178 113.115 35.4324V23C113.115 11.9543 104.16 3 93.1147 3Z" stroke="#065097" stroke-width="5"/>
<path d="M83.4331 116H55.4852C51.3599 116 47.658 118.533 46.164 122.379L28.2922 168.379C25.7455 174.933 30.5811 182 37.6134 182H100.596C107.571 182 112.403 175.039 109.965 168.504L92.8022 122.504C91.343 118.593 87.6077 116 83.4331 116Z" fill="#065097"/>
<path d="M56.5 160C56.5 164.805 52.81 168.5 48.5 168.5C44.19 168.5 40.5 164.805 40.5 160C40.5 155.195 44.19 151.5 48.5 151.5C52.81 151.5 56.5 155.195 56.5 160Z" stroke="white" stroke-width="5"/>
<path d="M94.5 167C94.5 170.192 92.1119 172.5 89.5 172.5C86.8881 172.5 84.5 170.192 84.5 167C84.5 163.808 86.8881 161.5 89.5 161.5C92.1119 161.5 94.5 163.808 94.5 167Z" stroke="white" stroke-width="5"/>
<path d="M87.5 140C87.5 146.827 81.7576 152.5 74.5 152.5C67.2424 152.5 61.5 146.827 61.5 140C61.5 133.173 67.2424 127.5 74.5 127.5C81.7576 127.5 87.5 133.173 87.5 140Z" stroke="white" stroke-width="5"/>
</svg>
