<svg width="257" height="257" viewBox="0 0 257 257" fill="none" xmlns="http://www.w3.org/2000/svg">
<path d="M119.994 12.5228C124.529 7.44698 132.471 7.44698 137.006 12.5228C141.882 17.9809 149.925 19.2548 156.249 15.5707C162.131 12.1446 169.684 14.5989 172.428 20.8276C175.379 27.5253 182.635 31.2224 189.788 29.6729C196.44 28.2319 202.866 32.9002 203.551 39.6721C204.288 46.9539 210.046 52.7122 217.328 53.449C224.1 54.1341 228.768 60.5595 227.327 67.2117C225.778 74.3648 229.475 81.6207 236.172 84.5715C242.401 87.3158 244.855 94.8694 241.429 100.751C237.745 107.075 239.019 115.118 244.477 119.994C249.553 124.529 249.553 132.471 244.477 137.006C239.019 141.882 237.745 149.925 241.429 156.249C244.855 162.131 242.401 169.684 236.172 172.428C229.475 175.379 225.778 182.635 227.327 189.788C228.768 196.44 224.1 202.866 217.328 203.551C210.046 204.288 204.288 210.046 203.551 217.328C202.866 224.1 196.44 228.768 189.788 227.327C182.635 225.778 175.379 229.475 172.428 236.172C169.684 242.401 162.131 244.855 156.249 241.429C149.925 237.745 141.882 239.019 137.006 244.477C132.471 249.553 124.529 249.553 119.994 244.477C115.118 239.019 107.075 237.745 100.751 241.429C94.8694 244.855 87.3158 242.401 84.5715 236.172C81.6207 229.475 74.3648 225.778 67.2117 227.327C60.5595 228.768 54.1341 224.1 53.449 217.328C52.7122 210.046 46.9539 204.288 39.6721 203.551C32.9002 202.866 28.2319 196.44 29.6729 189.788C31.2224 182.635 27.5253 175.379 20.8276 172.428C14.5989 169.684 12.1446 162.131 15.5707 156.249C19.2548 149.925 17.9809 141.882 12.5228 137.006C7.44698 132.471 7.44698 124.529 12.5228 119.994C17.9809 115.118 19.2548 107.075 15.5707 100.751C12.1446 94.8694 14.5989 87.3158 20.8276 84.5715C27.5253 81.6207 31.2224 74.3648 29.6729 67.2117C28.2319 60.5596 32.9002 54.1341 39.6721 53.449C46.9539 52.7122 52.7122 46.9539 53.449 39.6721C54.1341 32.9002 60.5596 28.2319 67.2117 29.6729C74.3648 31.2224 81.6207 27.5253 84.5715 20.8276C87.3158 14.5989 94.8694 12.1446 100.751 15.5707C107.075 19.2548 115.118 17.9809 119.994 12.5228Z" fill="#D9D9D9" stroke="white" stroke-width="4"/>
<path d="M196.476 149.671L197.499 150.391L196.476 149.671L193.35 154.114L188.036 154.632C186.016 154.829 185.269 157.389 186.865 158.641L191.066 161.938L191.31 167.364C191.407 169.508 194.163 170.313 195.398 168.558L198.524 164.115L203.839 163.597C205.858 163.401 206.606 160.841 205.009 159.588L200.809 156.292L200.564 150.865L199.315 150.921L200.564 150.865C200.467 148.722 197.711 147.917 196.476 149.671ZM193.284 154.208C193.284 154.208 193.284 154.208 193.284 154.207L193.284 154.208Z" stroke="#231F20" stroke-width="2.5"/>
<path d="M164.414 182.017C164.471 182.006 164.519 182.002 164.578 181.984C170.372 180.613 175.166 175.033 174.317 168.886C173.883 165.753 171.193 164.158 168.478 163.097C173.171 160.976 176.649 156.099 175.92 150.786C175.431 147.219 172.004 145.649 168.955 144.576C167.487 144.062 165.967 143.689 164.423 143.422C166.68 142.46 168.635 140.918 169.991 138.838C171.591 136.365 172.372 132.977 171.507 130.097C170.434 126.54 166.682 125.198 163.407 124.298C159.97 123.351 156.361 123 152.8 123.135C149.295 123.264 145.685 123.739 142.272 124.543C140.248 125.015 138.322 125.732 136.539 126.712C138.847 122.247 140.388 117.418 140.792 112.357C141.469 103.807 138.321 94.9637 131.976 89.0597C128.95 86.2373 125.222 84.0818 121.144 83.234C117.295 82.4291 112.89 82.9121 109.62 85.2007C107.944 86.3755 106.631 87.9781 106.032 89.945C105.342 92.168 105.677 94.5425 106.349 96.7302C106.991 98.8148 107.843 100.829 108.433 102.927C109.003 104.978 109.433 107.075 109.729 109.187C110.889 117.513 110.08 126.688 106.395 134.323C105.946 135.247 105.459 136.147 104.929 137.025C104.813 137.214 104.751 137.403 104.716 137.587C103.356 136.589 101.749 135.967 100.032 135.804L93.2799 135.176C88.1254 134.7 83.5465 138.492 83.0799 143.628L80.6301 170.531C80.405 173.007 81.1695 175.436 82.7761 177.365C83.9889 178.82 85.5646 179.847 87.3278 180.367C87.9117 180.54 88.5176 180.658 89.1364 180.712L95.8884 181.339C98.6313 181.589 101.207 180.629 103.092 178.903C103.524 179.065 103.953 179.239 104.378 179.424C104.468 179.463 104.77 179.606 104.823 179.63C105.047 179.737 105.265 179.843 105.492 179.951C105.996 180.193 106.495 180.447 106.995 180.702C109.313 181.888 111.59 183.173 113.852 184.453C118.649 187.178 123.395 190.005 128.307 192.522C130.338 193.558 132.426 194.617 134.615 195.297C136.095 196.394 137.813 197.196 139.592 197.78C142.623 198.775 145.847 199.364 148.993 199.852C152.042 200.327 155.179 200.548 158.206 199.832C164.002 198.454 168.796 192.875 167.947 186.728C167.636 184.505 166.191 183.057 164.404 182.018L164.414 182.017ZM170.21 167.653C171.839 169.089 171.184 171.929 170.377 173.639C169.379 175.759 167.593 177.445 165.427 178.346C160.742 180.281 155.085 178.82 150.356 177.768C147.453 177.119 144.17 176.314 141.994 174.145C140.501 172.655 139.293 170.221 140.373 168.261C144.224 165.395 149.033 164.783 153.702 164.39C156.591 164.145 159.56 164.182 162.418 164.707C163.879 164.978 165.327 165.358 166.717 165.868C167.912 166.302 169.245 166.802 170.21 167.653ZM164.026 146.609C165.488 146.879 166.928 147.263 168.32 147.768C169.515 148.202 170.848 148.702 171.813 149.553C173.442 150.989 172.786 153.834 171.98 155.539C170.982 157.659 169.195 159.351 167.03 160.246C162.351 162.182 156.688 160.72 151.959 159.668C149.062 159.021 145.773 158.214 143.597 156.045C142.104 154.555 140.895 152.121 141.976 150.16C145.827 147.295 150.634 146.689 155.303 146.296C158.192 146.051 161.163 146.082 164.026 146.609ZM135.765 131.092C139.645 127.946 144.605 127.23 149.434 126.617C152.465 126.232 155.563 126.219 158.591 126.603C161.354 126.946 164.529 127.615 166.909 129.115C169.024 130.446 168.853 133.24 168.134 135.336C167.373 137.531 165.657 139.291 163.578 140.294C161.292 141.396 158.65 141.565 156.157 141.475C153.319 141.364 150.505 140.917 147.708 140.435C144.473 139.883 140.878 139.194 138.256 137.069C136.647 135.768 134.784 133.166 135.761 131.094L135.765 131.092ZM134.301 137.587C136.399 140.344 139.708 141.866 142.991 142.734C144.859 143.231 146.79 143.6 148.72 143.899C148.62 143.916 148.52 143.934 148.42 143.952C145.294 144.582 142.443 145.825 139.887 147.715C139.83 147.745 139.776 147.789 139.717 147.831C139.679 147.861 139.647 147.886 139.612 147.907C139.428 148.048 139.299 148.24 139.215 148.45C138.996 148.829 138.814 149.212 138.676 149.615C138.201 145.775 136.042 142.262 133.23 139.494C132.156 138.438 130.983 137.426 129.715 136.574C130.646 135.526 131.539 134.428 132.383 133.3C132.614 134.827 133.332 136.312 134.302 137.584L134.301 137.587ZM96.1883 178.127L89.4364 177.5C89.0366 177.464 88.645 177.389 88.2644 177.277C87.1025 176.935 86.0662 176.252 85.2663 175.302C84.2155 174.037 83.7102 172.442 83.8584 170.826L86.3082 143.923C86.6188 140.558 89.6158 138.072 92.9924 138.389L99.7443 139.016C100.144 139.052 100.542 139.129 100.922 139.241C102.078 139.582 103.113 140.258 103.909 141.212C104.968 142.48 105.463 144.066 105.316 145.688L102.868 172.585C102.564 175.953 99.5608 178.437 96.1883 178.127ZM130.767 190.155C130.695 190.121 130.633 190.087 130.567 190.055C128.192 188.858 125.858 187.563 123.541 186.254C118.779 183.57 114.082 180.761 109.237 178.229C107.895 177.532 106.533 176.819 105.13 176.232C105.645 175.215 105.986 174.09 106.098 172.887L108.546 145.99C108.759 143.639 108.074 141.338 106.635 139.461C107.032 139.402 107.413 139.178 107.688 138.728C112.038 131.537 113.641 122.825 113.394 114.499C113.276 110.381 112.714 106.248 111.611 102.271C111.052 100.248 110.256 98.3195 109.615 96.3293C109.012 94.4572 108.558 92.4721 109.241 90.5644C110.324 87.5553 114.108 86.2228 117.151 86.0985C120.767 85.955 124.294 87.3253 127.248 89.3532C133.447 93.6015 137.31 101.144 137.632 108.575C138.075 118.892 132.95 128.646 125.93 135.93C124.818 137.088 125.902 138.753 127.112 138.752C127.561 139.019 127.998 139.302 128.419 139.609C128.725 139.834 129.027 140.065 129.324 140.3C129.334 140.309 129.339 140.311 129.345 140.312C129.355 140.322 129.359 140.329 129.378 140.341C129.464 140.413 129.557 140.494 129.649 140.569C129.837 140.731 130.021 140.892 130.207 141.063C131.8 142.514 133.082 144.001 134.079 145.782C135.151 147.692 135.718 149.688 135.542 151.903C135.35 154.32 134.044 156.861 132.721 158.973C130.95 161.798 128.654 164.465 125.825 166.274C125.091 166.749 124.734 167.659 125.179 168.463C125.575 169.186 126.639 169.585 127.372 169.11C130.287 167.244 132.687 164.718 134.661 161.899C136.395 159.437 137.986 156.537 138.557 153.552C138.789 154.529 139.191 155.481 139.731 156.325C141.518 159.153 144.455 160.811 147.57 161.831L147.724 161.876C147.423 161.935 147.117 161.986 146.821 162.047C143.696 162.678 140.844 163.921 138.29 165.804C138.232 165.841 138.178 165.885 138.117 165.93C138.082 165.954 138.05 165.976 138.013 166.006C137.829 166.146 137.697 166.337 137.618 166.543C136.158 168.998 136.633 172.077 138.122 174.424C139.573 176.722 141.788 178.236 144.233 179.272C142.963 179.435 141.693 179.639 140.458 179.887C137.327 180.516 134.475 181.759 131.925 183.651C131.869 183.681 131.809 183.723 131.755 183.767C131.718 183.797 131.685 183.822 131.65 183.843C131.461 183.982 131.335 184.174 131.253 184.386C130.2 186.147 130.158 188.24 130.77 190.146L130.767 190.155ZM164.013 191.48C163.016 193.599 161.228 195.291 159.058 196.185C154.379 198.121 148.716 196.659 143.993 195.608C141.412 195.036 138.541 194.33 136.403 192.663C136.34 192.597 136.262 192.539 136.184 192.485C135.987 192.326 135.806 192.16 135.627 191.984C134.134 190.494 132.926 188.06 134.006 186.1C137.851 183.233 142.659 182.626 147.334 182.236C150.223 181.991 153.194 182.021 156.051 182.547C157.512 182.817 158.953 183.201 160.35 183.708C161.54 184.14 162.879 184.642 163.844 185.492C165.472 186.928 164.816 189.774 164.01 191.479L164.013 191.48Z" fill="#221F1F"/>
<path d="M164.013 191.48C163.016 193.599 161.228 195.291 159.058 196.185C154.379 198.121 148.716 196.659 143.993 195.608C141.412 195.036 138.541 194.33 136.403 192.663C136.34 192.597 136.262 192.539 136.184 192.485C135.987 192.326 135.806 192.16 135.627 191.984C134.134 190.494 132.926 188.06 134.006 186.1C137.851 183.233 142.659 182.626 147.334 182.236C150.223 181.991 153.194 182.021 156.051 182.547C157.512 182.817 158.953 183.201 160.35 183.708C161.54 184.14 162.879 184.642 163.844 185.492C165.472 186.928 164.816 189.774 164.01 191.479L164.013 191.48Z" fill="white"/>
<path d="M170.377 173.639C169.379 175.759 167.593 177.445 165.427 178.346C160.742 180.281 155.085 178.82 150.356 177.768C147.453 177.119 144.17 176.314 141.994 174.145C140.501 172.655 139.293 170.221 140.373 168.261C144.224 165.395 149.033 164.783 153.702 164.39C156.591 164.145 159.56 164.182 162.418 164.707C163.879 164.978 165.327 165.358 166.717 165.868C167.912 166.302 169.245 166.802 170.21 167.653C171.839 169.089 171.184 171.929 170.377 173.639Z" fill="white"/>
<path d="M148.72 143.899C148.62 143.916 148.52 143.934 148.42 143.952C145.294 144.582 142.443 145.825 139.887 147.715C139.83 147.745 139.776 147.789 139.717 147.831C139.679 147.861 139.647 147.886 139.612 147.907C139.428 148.048 139.299 148.24 139.215 148.45C138.996 148.829 138.814 149.212 138.676 149.615C138.201 145.775 136.042 142.262 133.23 139.494C132.156 138.438 130.983 137.426 129.715 136.574C130.646 135.526 131.539 134.428 132.383 133.3C132.614 134.827 133.332 136.312 134.302 137.584C136.4 140.341 139.709 141.863 142.992 142.731C144.86 143.229 146.791 143.597 148.72 143.896L148.72 143.899Z" fill="white"/>
<path d="M171.98 155.539C170.982 157.659 169.195 159.351 167.03 160.246C162.351 162.182 156.688 160.72 151.959 159.668C149.062 159.021 145.773 158.214 143.597 156.045C142.104 154.555 140.895 152.121 141.976 150.16C145.827 147.295 150.634 146.689 155.303 146.296C158.192 146.051 161.163 146.082 164.026 146.609C165.488 146.879 166.928 147.263 168.32 147.768C169.515 148.202 170.848 148.702 171.813 149.553C173.442 150.989 172.786 153.834 171.98 155.539Z" fill="white"/>
<path d="M168.135 135.333C167.374 137.528 165.658 139.289 163.579 140.291C161.293 141.393 158.65 141.563 156.158 141.472C153.32 141.361 150.506 140.914 147.709 140.432C144.474 139.88 140.879 139.191 138.256 137.066C136.648 135.765 134.785 133.163 135.762 131.091C139.642 127.945 144.602 127.229 149.431 126.617C152.462 126.231 155.56 126.218 158.589 126.602C161.351 126.945 164.526 127.614 166.906 129.115C169.021 130.445 168.85 133.24 168.131 135.335L168.135 135.333Z" fill="white"/>
<path d="M96.1883 178.127L89.4364 177.5C89.0366 177.464 88.645 177.389 88.2644 177.277C87.1025 176.935 86.0662 176.252 85.2663 175.302C84.2155 174.037 83.7102 172.442 83.8584 170.826L86.3082 143.923C86.6188 140.558 89.6158 138.072 92.9924 138.389L99.7443 139.016C100.144 139.052 100.542 139.129 100.922 139.241C102.078 139.582 103.113 140.258 103.909 141.212C104.968 142.48 105.463 144.066 105.316 145.688L102.868 172.585C102.564 175.953 99.5608 178.437 96.1883 178.127Z" fill="white"/>
<path d="M144.231 179.277C142.961 179.44 141.692 179.644 140.456 179.893C137.325 180.522 134.473 181.765 131.923 183.656C131.867 183.687 131.807 183.729 131.753 183.773C131.716 183.803 131.683 183.828 131.649 183.849C131.459 183.988 131.333 184.18 131.252 184.392C130.199 186.153 130.156 188.246 130.768 190.152C130.696 190.118 130.634 190.084 130.567 190.052C128.192 188.855 125.859 187.56 123.542 186.251C118.78 183.567 114.083 180.758 109.237 178.226C107.896 177.529 106.534 176.816 105.131 176.229C105.646 175.212 105.987 174.087 106.099 172.884L108.547 145.987C108.76 143.636 108.075 141.335 106.636 139.458C107.032 139.399 107.414 139.175 107.689 138.725C112.039 131.534 113.642 122.823 113.395 114.496C113.277 110.378 112.715 106.246 111.612 102.268C111.052 100.245 110.257 98.3166 109.616 96.3264C109.012 94.4543 108.559 92.4692 109.242 90.5615C110.325 87.5524 114.109 86.2199 117.152 86.0957C120.768 85.9522 124.295 87.3224 127.249 89.3503C133.448 93.5986 137.311 101.141 137.633 108.572C138.076 118.889 132.951 128.643 125.931 135.927C124.819 137.085 125.903 138.75 127.113 138.749C127.561 139.016 127.999 139.299 128.42 139.606C128.726 139.831 129.028 140.062 129.325 140.297C129.334 140.306 129.34 140.308 129.346 140.31C129.356 140.319 129.36 140.326 129.379 140.338C129.465 140.411 129.558 140.491 129.649 140.566C129.838 140.728 130.021 140.889 130.208 141.06C131.801 142.511 133.083 143.998 134.079 145.779C135.152 147.689 135.719 149.685 135.542 151.9C135.35 154.317 134.045 156.858 132.722 158.97C130.951 161.795 128.655 164.462 125.826 166.271C125.092 166.746 124.735 167.656 125.18 168.46C125.576 169.183 126.64 169.582 127.373 169.107C130.288 167.241 132.688 164.715 134.662 161.896C136.396 159.434 137.987 156.534 138.557 153.55C138.79 154.527 139.192 155.478 139.732 156.322C141.519 159.15 144.455 160.808 147.571 161.828L147.725 161.873C147.424 161.932 147.118 161.983 146.822 162.044C143.697 162.675 140.845 163.918 138.291 165.802C138.233 165.838 138.179 165.882 138.118 165.927C138.083 165.951 138.051 165.973 138.014 166.003C137.83 166.143 137.698 166.334 137.618 166.54C136.159 168.995 136.634 172.074 138.123 174.421C139.574 176.719 141.789 178.233 144.234 179.269L144.231 179.277Z" fill="white"/>
<path d="M81.7748 155.794C81.6177 155.77 81.4599 155.748 81.3029 155.724C81.1246 155.697 81.3452 155.73 81.3664 155.733C81.2759 155.719 81.1882 155.706 81.0977 155.692C80.7604 155.636 80.426 155.582 80.0904 155.52C79.4425 155.405 78.7963 155.283 78.1506 155.149C76.8854 154.889 75.6246 154.593 74.374 154.262C71.8757 153.601 69.4117 152.802 66.9986 151.873C66.3836 151.635 65.7732 151.392 65.1663 151.138C64.8735 151.017 64.5796 150.889 64.2886 150.763C64.1427 150.701 63.9976 150.636 63.8525 150.571C63.7912 150.544 63.7269 150.515 63.6656 150.488C63.8691 150.579 63.7211 150.513 63.6013 150.459C62.42 149.925 61.2576 149.359 60.1084 148.76C57.7846 147.549 55.5292 146.215 53.3536 144.759C52.1381 143.945 50.9483 143.097 49.7857 142.211C49.2026 141.768 48.6295 141.313 48.0582 140.853C47.923 140.743 48.0759 140.867 48.0966 140.883C48.0077 140.809 47.9189 140.736 47.8329 140.663C47.6907 140.546 47.5514 140.43 47.4092 140.312C47.1108 140.061 46.8161 139.807 46.5215 139.554C45.926 139.036 44.9907 138.867 44.3819 139.485C43.8573 140.022 43.6796 141.064 44.3185 141.617C48.4192 145.174 52.8845 148.298 57.6706 150.87C62.4236 153.425 67.4685 155.472 72.6687 156.918C75.6453 157.745 78.6695 158.358 81.7241 158.803C82.5109 158.918 83.2836 158.065 83.2624 157.323C83.2373 156.423 82.6152 155.91 81.7736 155.787L81.7748 155.794Z" fill="#221F1F"/>
<path d="M170.771 57.1297L171.959 57.5196L170.771 57.1297C170.436 58.1515 169.052 58.3887 168.39 57.4886C166.222 54.5379 161.439 55.9817 161.442 59.7338C161.443 60.7857 160.207 61.4524 159.293 60.7957C156.353 58.684 152.198 61.4695 153.383 65.0591C153.71 66.0479 152.749 67.06 151.683 66.7173C148.244 65.6114 145.142 69.5388 147.387 72.5832C148.009 73.4265 147.404 74.6698 146.304 74.6688C142.66 74.6657 140.985 79.3795 144.041 81.5666C144.911 82.1891 144.701 83.5429 143.676 83.8705C140.144 84.9996 140.144 90.0004 143.676 91.1295C144.701 91.4571 144.911 92.8109 144.041 93.4334C140.985 95.6205 142.66 100.334 146.304 100.331C147.404 100.33 148.009 101.573 147.387 102.417C145.142 105.461 148.244 109.389 151.683 108.283C152.749 107.94 153.71 108.952 153.383 109.941C152.198 113.531 156.353 116.316 159.293 114.204C160.207 113.548 161.443 114.214 161.442 115.266C161.439 119.018 166.222 120.462 168.39 117.511C169.052 116.611 170.436 116.848 170.771 117.87C171.93 121.401 176.925 121.401 178.084 117.87C178.419 116.848 179.803 116.611 180.465 117.511C182.633 120.462 187.416 119.018 187.413 115.266C187.412 114.214 188.648 113.548 189.562 114.204C192.502 116.316 196.657 113.531 195.472 109.941C195.145 108.952 196.106 107.94 197.172 108.283C200.61 109.389 203.713 105.461 201.468 102.417C200.846 101.573 201.451 100.33 202.551 100.331C206.195 100.334 207.87 95.6205 204.814 93.4334C203.944 92.8109 204.154 91.4571 205.179 91.1295C208.711 90.0004 208.711 84.9996 205.179 83.8705C204.154 83.5429 203.944 82.1891 204.814 81.5666C207.87 79.3795 206.195 74.6657 202.551 74.6688C201.451 74.6698 200.846 73.4265 201.468 72.5832C203.713 69.5388 200.61 65.6114 197.172 66.7173C196.106 67.06 195.145 66.0479 195.472 65.0591C196.657 61.4695 192.502 58.684 189.562 60.7957C188.648 61.4524 187.412 60.7857 187.413 59.7338C187.416 55.9817 182.633 54.5379 180.465 57.4886L181.472 58.2288L180.465 57.4886C179.803 58.3887 178.419 58.1515 178.084 57.1297L176.896 57.5196L178.084 57.1297C176.925 53.5992 171.93 53.5992 170.771 57.1297Z" fill="#231F20" stroke="#231F20" stroke-width="2.5"/>
<path d="M151.158 84.9716V81.5455H165.911V84.9716H160.618V99H156.459V84.9716H151.158ZM183.649 90.2727C183.649 92.1932 183.279 93.821 182.541 95.1562C181.802 96.4915 180.802 97.5057 179.541 98.1989C178.285 98.892 176.876 99.2386 175.313 99.2386C173.745 99.2386 172.333 98.8892 171.078 98.1903C169.822 97.4915 168.825 96.4773 168.086 95.1477C167.353 93.8125 166.987 92.1875 166.987 90.2727C166.987 88.3523 167.353 86.7244 168.086 85.3892C168.825 84.054 169.822 83.0398 171.078 82.3466C172.333 81.6534 173.745 81.3068 175.313 81.3068C176.876 81.3068 178.285 81.6534 179.541 82.3466C180.802 83.0398 181.802 84.054 182.541 85.3892C183.279 86.7244 183.649 88.3523 183.649 90.2727ZM179.336 90.2727C179.336 89.1364 179.174 88.1761 178.85 87.392C178.532 86.608 178.072 86.0142 177.47 85.6108C176.873 85.2074 176.154 85.0057 175.313 85.0057C174.478 85.0057 173.76 85.2074 173.157 85.6108C172.555 86.0142 172.092 86.608 171.768 87.392C171.45 88.1761 171.291 89.1364 171.291 90.2727C171.291 91.4091 171.45 92.3693 171.768 93.1534C172.092 93.9375 172.555 94.5312 173.157 94.9347C173.76 95.3381 174.478 95.5398 175.313 95.5398C176.154 95.5398 176.873 95.3381 177.47 94.9347C178.072 94.5312 178.532 93.9375 178.85 93.1534C179.174 92.3693 179.336 91.4091 179.336 90.2727ZM186.112 99V81.5455H193.322C194.629 81.5455 195.757 81.8011 196.706 82.3125C197.66 82.8182 198.396 83.5256 198.913 84.4347C199.43 85.3381 199.688 86.3892 199.688 87.5881C199.688 88.7926 199.424 89.8466 198.896 90.75C198.373 91.6477 197.626 92.3437 196.654 92.8381C195.683 93.3324 194.529 93.5795 193.194 93.5795H188.745V90.2557H192.41C193.046 90.2557 193.578 90.1449 194.004 89.9233C194.436 89.7017 194.762 89.392 194.984 88.9943C195.206 88.5909 195.316 88.1222 195.316 87.5881C195.316 87.0483 195.206 86.5824 194.984 86.1903C194.762 85.7926 194.436 85.4858 194.004 85.2699C193.572 85.054 193.041 84.946 192.41 84.946H190.331V99H186.112Z" fill="#F16923"/>
<path d="M78.3104 84.8464L79.5591 84.9047L78.3104 84.8464L78.0571 90.2729L73.8514 93.5622C72.2529 94.8125 72.9962 97.3735 75.0158 97.5736L80.329 98.1L83.4483 102.548C84.6803 104.304 87.4379 103.504 87.538 101.361L87.7913 95.934L91.997 92.6446C93.5956 91.3943 92.8522 88.8334 90.8327 88.6333L85.5194 88.1069L82.4001 83.6593L81.3767 84.3771L82.4001 83.6593C81.1681 81.9028 78.4105 82.7032 78.3104 84.8464ZM78.0518 90.3874C78.0518 90.3873 78.0518 90.3872 78.0518 90.3871L78.0518 90.3874Z" stroke="#231F20" stroke-width="2.5"/>
</svg>
