<svg width="257" height="257" viewBox="0 0 257 257" fill="none" xmlns="http://www.w3.org/2000/svg">
<path d="M120.367 12.8559C124.703 8.00261 132.297 8.00261 136.633 12.8559C141.667 18.4911 149.972 19.8064 156.501 16.0027C162.125 12.7268 169.347 15.0735 171.971 21.0292C175.018 27.9443 182.509 31.7614 189.894 30.1615C196.255 28.7837 202.398 33.2474 203.054 39.7224C203.814 47.2406 209.759 53.1858 217.278 53.9464C223.753 54.6015 228.216 60.7453 226.838 67.1058C225.239 74.4911 229.056 81.9825 235.971 85.0291C241.926 87.653 244.273 94.8755 240.997 100.499C237.194 107.028 238.509 115.333 244.144 120.367C248.997 124.703 248.997 132.297 244.144 136.633C238.509 141.667 237.194 149.972 240.997 156.501C244.273 162.125 241.926 169.347 235.971 171.971C229.056 175.018 225.239 182.509 226.838 189.894C228.216 196.255 223.753 202.398 217.278 203.054C209.759 203.814 203.814 209.759 203.054 217.278C202.398 223.753 196.255 228.216 189.894 226.838C182.509 225.239 175.018 229.056 171.971 235.971C169.347 241.926 162.125 244.273 156.501 240.997C149.972 237.194 141.667 238.509 136.633 244.144C132.297 248.997 124.703 248.997 120.367 244.144C115.333 238.509 107.028 237.194 100.499 240.997C94.8755 244.273 87.653 241.926 85.0291 235.971C81.9825 229.056 74.4911 225.239 67.1058 226.838C60.7453 228.216 54.6015 223.753 53.9464 217.278C53.1858 209.759 47.2406 203.814 39.7224 203.054C33.2474 202.398 28.7837 196.255 30.1615 189.894C31.7614 182.509 27.9443 175.018 21.0292 171.971C15.0735 169.347 12.7268 162.125 16.0027 156.501C19.8064 149.972 18.4911 141.667 12.8559 136.633C8.00261 132.297 8.00261 124.703 12.8559 120.367C18.4911 115.333 19.8064 107.028 16.0027 100.499C12.7268 94.8755 15.0735 87.653 21.0292 85.0291C27.9443 81.9825 31.7614 74.4911 30.1615 67.1058C28.7837 60.7453 33.2474 54.6015 39.7224 53.9464C47.2406 53.1858 53.1858 47.2406 53.9464 39.7224C54.6015 33.2474 60.7453 28.7837 67.1058 30.1615C74.4911 31.7614 81.9825 27.9443 85.0291 21.0292C87.653 15.0735 94.8755 12.7268 100.499 16.0027C107.028 19.8064 115.333 18.4911 120.367 12.8559Z" fill="#D9D9D9" stroke="white" stroke-width="5"/>
<path d="M141.017 49.8862C136.567 49.8862 132.948 46.5461 132.948 42.4409C132.948 38.3356 136.567 35 141.017 35C145.467 35 149.087 38.3379 149.087 42.4409C149.087 46.5439 145.467 49.8862 141.017 49.8862ZM141.017 36.6935C137.582 36.6935 134.787 39.2708 134.787 42.4386C134.787 45.6065 137.582 48.1882 141.017 48.1882C144.453 48.1882 147.247 45.611 147.247 42.4386C147.247 39.2663 144.453 36.6935 141.017 36.6935Z" fill="#221F1F"/>
<path d="M123.908 53.8684C121.018 53.8684 118.669 51.7006 118.669 49.0383C118.669 46.3761 121.018 44.2082 123.908 44.2082C126.797 44.2082 129.143 46.3738 129.143 49.0383C129.143 51.7028 126.795 53.8684 123.908 53.8684ZM123.908 45.9018C122.032 45.9018 120.508 47.3067 120.508 49.0361C120.508 50.7654 122.032 52.1704 123.908 52.1704C125.783 52.1704 127.304 50.7632 127.304 49.0361C127.304 47.309 125.781 45.9018 123.908 45.9018Z" fill="#221F1F"/>
<path d="M74.1876 160.016C74.1561 159.994 74.1294 159.973 74.1027 159.949C71.332 157.376 71.6013 153.275 73.1735 150.213C74.0323 148.541 75.2915 147.013 76.8419 145.837C78.3194 144.718 79.9983 143.973 81.835 143.499C83.5139 143.067 85.319 142.799 87.0755 142.931V127.991C87.0755 127.349 87.3934 126.758 87.9562 126.369C88.5143 125.982 89.2203 125.863 89.8875 126.04L106.051 130.315L111.813 120.545C111.65 120.445 112.626 118.997 112.626 118.997C112.633 118.999 112.652 119.017 112.696 119.044L119.909 106.811C120.259 106.223 120.443 105.554 120.443 104.876V76.7145C120.443 74.4751 118.468 72.6562 116.042 72.6562C114.375 72.6562 112.808 72.0567 111.629 70.9694C110.452 69.8844 109.802 68.4369 109.802 66.9V62.6695C109.802 59.4949 112.599 56.9154 116.042 56.9154H150.477C153.919 56.9154 156.717 59.4949 156.717 62.6695V66.9C156.717 70.0745 153.919 72.6562 150.477 72.6562C149.302 72.6562 148.196 73.0768 147.362 73.8442C146.532 74.6093 146.073 75.6295 146.073 76.7167V104.916C146.073 105.574 146.248 106.227 146.58 106.805L160.33 130.93C165.832 129.056 170.427 127.279 172.732 126.362C173.392 126.096 174.154 126.149 174.765 126.501C175.382 126.856 175.767 127.465 175.801 128.134L176.689 146.376C180.224 147.17 183.196 149.573 184.701 152.609C186.205 155.644 186.52 159.244 185.023 162.334C184.288 163.85 183.019 165.186 181.355 165.866C181.258 165.906 181.153 165.931 181.052 165.94L181.144 169.419C181.192 171.285 179.877 172.909 178.004 173.432L178.38 181.184C178.426 182.146 177.752 182.994 176.735 183.242C172.822 184.186 167.062 185.256 159.582 186.415C159.97 189.815 160.999 193.151 162.938 196.077C164.301 196.066 165.619 195.625 166.977 195.516C168.423 195.397 169.852 195.806 170.842 196.813C173.062 199.068 172.359 202.261 171.327 204.849C170.381 207.223 168.94 209.621 166.477 210.905C165.065 211.643 163.459 211.925 161.865 212.095C160.499 212.238 159.119 212.277 157.748 212.194C154.968 212.021 152.185 211.382 149.776 210.062C147.294 208.699 145.36 206.63 144.224 204.185C143.084 201.728 142.664 198.983 143.188 196.343C143.679 193.887 145.146 191.491 147.59 190.281C149.824 189.178 152.803 188.994 154.931 190.417C157.268 191.981 158.1 194.793 160.528 196.294C160.88 196.516 161.249 196.69 161.637 196.827C159.577 193.744 158.51 190.229 158.076 186.65C157.6 186.721 157.117 186.793 156.625 186.867C144.96 188.618 133.862 189.936 133.382 189.996C133.29 190.005 133.205 190.008 133.122 190.008H133.028C132.979 190.005 132.926 190.005 132.877 190.001V190.115L131.344 190.104V189.94C127.942 189.793 124.466 189.524 120.935 189.14C117.405 188.755 113.822 188.256 110.207 187.641C109.756 191.14 108.69 194.563 106.672 197.578C109.096 196.721 110.299 194.401 111.82 192.592C112.679 191.574 113.749 190.77 115.103 190.399C116.345 190.055 117.696 190.084 118.944 190.381C121.646 191.032 123.595 192.943 124.58 195.299C125.601 197.737 125.548 200.531 124.815 203.028C124.056 205.607 122.491 208.021 120.227 209.713C118.058 211.332 115.413 212.306 112.667 212.715C109.853 213.136 106.793 213.124 104.027 212.453C102.552 212.095 101.211 211.433 100.116 210.447C99.1507 209.574 98.3937 208.502 97.8042 207.384C97.1442 206.135 96.6056 204.795 96.2684 203.442C95.919 202.046 95.8147 200.527 96.4042 199.171C96.9186 197.976 97.8478 196.959 99.1749 196.495C100.645 195.983 102.225 196.368 103.702 196.643C104.258 196.748 104.809 196.824 105.374 196.829C107.278 193.965 108.297 190.71 108.705 187.386C98.6921 185.612 91.3262 183.486 88.5822 182.641C87.6821 182.365 87.0731 181.596 87.0731 180.717V174.309C86.7577 174.083 86.4423 173.855 86.1293 173.629C85.1322 172.913 84.1423 172.193 83.1233 171.515C82.3348 170.992 81.5268 170.461 80.6316 170.11C80.5855 170.092 80.5491 170.068 80.5127 170.043C80.2895 170.077 80.0663 170.094 79.8382 170.094C79.5495 170.094 79.2608 170.065 78.9745 170.016L76.6672 169.596C75.505 169.383 74.503 168.766 73.8407 167.851C73.1783 166.94 72.9405 165.846 73.1686 164.779L74.1852 160.027L74.1876 160.016ZM155.996 193.623C155.3 192.665 154.545 191.726 153.391 191.216C152.483 190.811 151.391 190.726 150.402 190.871C148.048 191.218 146.248 192.708 145.311 194.692C144.3 196.831 144.29 199.33 144.882 201.572C145.498 203.901 146.803 206.059 148.766 207.652C150.63 209.167 152.99 210.057 155.404 210.498C157.898 210.95 160.579 210.952 163.074 210.509C164.381 210.276 165.657 209.863 166.684 209.057C167.623 208.323 168.336 207.404 168.913 206.408C169.534 205.339 169.998 204.189 170.364 203.026C170.75 201.789 171.002 200.446 170.583 199.185C170.27 198.249 169.556 197.337 168.503 197.035C167.237 196.672 165.883 197.113 164.631 197.325C164.027 197.426 163.413 197.5 162.802 197.489C162.913 197.943 162.52 198.522 161.868 198.377C159.155 197.768 157.467 195.65 155.999 193.625L155.996 193.623ZM105.512 198.231C104.187 198.254 102.919 197.86 101.613 197.697C100.405 197.545 99.2987 197.753 98.4811 198.63C96.6687 200.572 97.7459 203.536 98.6339 205.623C99.517 207.701 100.912 209.764 103.2 210.702C104.469 211.221 105.908 211.397 107.276 211.498C108.569 211.592 109.87 211.587 111.16 211.476C113.604 211.263 116.035 210.605 118.111 209.384C120.268 208.118 121.925 206.207 122.85 204.01C123.779 201.818 124.116 199.343 123.548 197.032C123.027 194.9 121.7 192.92 119.465 192.028C117.437 191.22 115.045 191.426 113.492 192.943C112.58 193.835 111.956 194.943 111.151 195.914C110.343 196.889 109.413 197.8 108.261 198.433C107.698 198.744 107.082 198.979 106.444 199.122C105.794 199.265 105.398 198.686 105.512 198.231ZM144.95 107.592C144.482 106.769 144.232 105.845 144.232 104.912V76.7123C144.232 75.1753 144.882 73.7279 146.059 72.6428C147.238 71.5578 148.808 70.9582 150.472 70.9582C152.901 70.9582 154.873 69.1349 154.873 66.8977V62.6672C154.873 60.4278 152.898 58.609 150.472 58.609H116.037C113.608 58.609 111.636 60.43 111.636 62.6672V66.8977C111.636 67.9828 112.092 69.0029 112.924 69.7703C113.759 70.5354 114.865 70.9605 116.039 70.9605C119.482 70.9605 122.28 73.5399 122.28 76.7145V104.876C122.28 105.838 122.015 106.789 121.523 107.623L114.249 119.961C118.174 122.118 128.525 126.751 137.572 121.744C144.035 118.169 147.522 116.31 149.37 115.348L144.95 107.592ZM180.867 159.09L181.008 164.441C183.366 163.242 184.409 160.651 184.473 158.251C184.555 155.121 183.172 151.937 180.629 149.846C179.511 148.924 178.186 148.251 176.757 147.859L177.114 155.143C179.186 155.445 180.816 157.096 180.87 159.092L180.867 159.09ZM179.608 169.448L179.336 159.123C179.3 157.674 177.995 156.506 176.415 156.506H176.354L173.996 156.56C173.88 156.562 173.763 156.571 173.64 156.591L173.543 156.032L173.635 156.591C172.189 156.794 171.124 157.962 171.16 159.309L171.434 169.634C171.454 170.345 171.774 171.014 172.339 171.508C172.907 172.005 173.647 172.267 174.418 172.251L176.772 172.197C176.881 172.195 176.99 172.186 177.107 172.168C178.572 171.983 179.647 170.813 179.61 169.446L179.608 169.448ZM147.502 157.604C147.405 157.645 147.32 157.698 147.235 157.752C147.226 157.759 147.175 157.794 147.15 157.808C147.107 157.841 147.061 157.875 147.019 157.909C146.733 158.13 146.459 158.36 146.19 158.598C145.92 158.835 145.656 159.079 145.396 159.327C145.29 159.432 145.178 159.535 145.074 159.647C145.037 159.683 145.006 159.721 144.969 159.756C144.967 159.759 144.962 159.759 144.96 159.765C144.96 159.765 144.959 159.768 144.957 159.774C144.118 161.369 145.479 163.222 147.022 163.929C147.371 164.09 147.461 164.376 147.386 164.64C147.359 164.855 147.243 165.061 147.022 165.148C146.983 165.166 146.944 165.188 146.908 165.208C146.908 165.215 146.777 165.302 146.755 165.323C146.585 165.464 146.432 165.616 146.282 165.77C145.979 166.081 145.692 166.403 145.413 166.734C145.387 166.766 145.287 166.882 145.185 167.009C145.037 167.202 144.943 167.396 144.906 167.631C144.887 167.745 144.884 167.86 144.887 167.974C144.887 167.994 144.901 168.144 144.899 168.159C144.93 168.332 144.981 168.502 145.04 168.667C145.321 169.461 145.879 170.258 146.474 170.929C147.066 171.591 147.699 172.213 148.507 172.58C148.837 172.732 148.936 173.001 148.88 173.256C148.849 173.537 148.623 173.761 148.322 173.871C148.009 173.987 147.67 174.128 147.439 174.361C147.172 174.629 147.129 175.005 147.133 175.352C147.136 175.976 147.335 176.585 147.679 177.119C148.036 177.67 148.538 178.121 149.137 178.441C149.181 178.464 149.429 178.562 149.46 178.589C149.509 178.607 149.555 178.62 149.608 178.634C149.793 178.685 149.982 178.717 150.176 178.743C150.203 178.746 150.348 178.764 150.385 178.766C150.491 178.775 150.596 178.784 150.702 178.788C150.989 178.806 151.27 178.813 151.554 178.813C152.134 178.815 152.714 178.793 153.291 178.759C154.528 178.681 155.63 178.555 156.829 178.35C157.384 178.256 157.935 178.148 158.473 178.005C158.672 177.951 158.862 177.889 159.058 177.826C159.08 177.819 159.092 177.817 159.104 177.815C159.116 177.806 159.131 177.797 159.158 177.786C159.177 177.777 159.192 177.766 159.209 177.757C159.267 177.712 159.34 177.674 159.422 177.647C159.514 177.605 159.606 177.582 159.691 177.576C161.341 177.198 162.819 176.419 164.347 175.676C166.167 174.795 167.957 173.851 169.818 173.043C170.279 172.846 170.745 172.647 171.223 172.477C170.393 171.725 169.92 170.73 169.894 169.665L169.619 159.34C169.568 157.343 171.095 155.604 173.2 155.222C173.174 155.108 173.166 154.985 173.188 154.864C173.574 152.559 171.415 150.611 169.292 149.821C168.016 149.347 166.64 149.116 165.279 148.987C164.757 148.94 164.233 148.902 163.758 148.989C163.231 149.087 162.712 149.248 162.224 149.454C161.118 149.92 160.017 150.557 159.257 151.452C159.126 151.606 158.908 151.667 158.694 151.653C158.636 151.653 158.578 151.647 158.512 151.633C158.34 151.597 158.165 151.566 157.991 151.537C157.886 151.524 157.784 151.508 157.68 151.495C157.68 151.495 157.619 151.486 157.578 151.481C157.532 151.474 157.418 151.463 157.404 151.461C156.865 151.401 156.324 151.36 155.785 151.322C154.461 151.237 153.131 151.201 151.804 151.204C150.586 151.21 149.363 151.237 148.157 151.367C148.123 151.369 147.946 151.392 147.922 151.396C147.825 151.407 147.728 151.421 147.631 151.439C147.42 151.472 147.209 151.51 147.002 151.564C146.372 151.725 145.755 151.962 145.578 152.591C145.161 154.07 146.129 155.642 147.495 156.383C147.51 156.389 147.519 156.401 147.534 156.407C147.553 156.419 147.573 156.432 147.592 156.448C147.619 156.468 147.643 156.488 147.665 156.508C147.67 156.515 147.677 156.519 147.679 156.526C147.784 156.631 147.839 156.752 147.854 156.877C147.856 156.9 147.856 156.924 147.861 156.949V156.969C147.873 157.228 147.755 157.504 147.493 157.604H147.502ZM133.088 188.587C133.132 188.589 133.173 188.587 133.202 188.585C133.668 188.531 144.739 187.213 156.382 185.464C165.262 184.135 171.98 182.925 176.342 181.869C176.655 181.793 176.864 181.535 176.849 181.242L176.478 173.62L174.455 173.665H174.346C173.86 173.665 173.39 173.589 172.938 173.45C172.88 173.479 172.815 173.504 172.739 173.522C172.002 173.681 171.417 173.92 170.799 174.184C169.901 174.569 169.018 174.992 168.144 175.421C166.308 176.316 164.493 177.265 162.605 178.068C161.778 178.419 160.921 178.764 160.036 178.96C159.272 179.388 158.258 179.538 157.406 179.688C156.021 179.934 154.613 180.097 153.206 180.182C151.988 180.253 150.727 180.289 149.526 180.068C148.097 179.808 146.85 178.737 146.207 177.567C145.726 176.69 145.501 175.69 145.663 174.714C145.78 174.018 146.156 173.52 146.677 173.144C146.364 172.9 146.073 172.631 145.804 172.361C145.156 171.707 144.571 170.98 144.118 170.202C143.72 169.524 143.373 168.757 143.361 167.974C143.349 167.428 143.48 166.837 143.807 166.379C143.996 166.112 144.222 165.864 144.436 165.616C144.727 165.276 145.025 164.942 145.345 164.627C144.695 164.168 144.147 163.582 143.783 162.911C143.237 161.922 142.943 160.618 143.378 159.548C143.669 158.826 144.355 158.271 144.945 157.747C145.229 157.49 145.525 157.24 145.831 156.998C144.727 156.087 144.03 154.797 143.979 153.405C143.945 152.555 144.157 151.627 144.855 151.025C145.416 150.544 146.192 150.278 146.93 150.132C148.131 149.897 149.387 149.846 150.615 149.812C152.097 149.776 153.587 149.799 155.072 149.875C156.188 149.931 157.333 149.991 158.439 150.179C159.196 149.405 160.208 148.803 161.208 148.347C162.38 147.814 163.644 147.434 164.964 147.546C168.033 147.812 171.34 148.49 173.339 150.848C174.384 152.083 174.918 153.571 174.69 155.128L175.578 155.108L174.266 128.19C174.256 127.984 174.139 127.803 173.95 127.695C173.763 127.586 173.54 127.57 173.336 127.653C170.908 128.617 165.961 130.532 160.08 132.514C157.018 133.543 154.084 134.461 151.365 135.244C150.055 135.617 148.875 135.942 147.764 136.23L139.144 138.087C139.144 138.087 134.835 138.646 133.222 138.684L132.887 188.578C132.952 188.58 133.018 188.585 133.086 188.587H133.088ZM149.996 134.154C148.992 131.87 147.153 130.429 145.168 130.429C142.691 130.429 140.563 132.61 139.835 135.649C140.77 134.223 142.165 133.317 143.727 133.317C144.96 133.317 146.09 133.879 146.973 134.819C147.083 134.789 147.194 134.765 147.308 134.734L147.347 134.87C148.186 134.653 149.057 134.418 149.996 134.154ZM132.465 137.277C133.979 137.291 135.759 137.15 137.776 136.866C137.994 134.566 138.894 132.532 140.212 131.074C141.529 129.615 143.271 128.733 145.166 128.733C147.956 128.733 150.482 130.642 151.755 133.649H151.758C153.92 133.015 156.205 132.297 158.58 131.51L150.224 116.852C148.417 117.787 144.964 119.63 138.516 123.196C135.522 124.852 132.14 125.686 128.503 125.686C125.87 125.686 123.104 125.25 120.256 124.378C117.316 123.476 114.899 122.304 113.363 121.458L107.858 130.794L132.278 137.255C132.336 137.268 132.394 137.277 132.462 137.277H132.465ZM88.6089 180.708C88.6089 180.974 88.7933 181.209 89.065 181.294C91.843 182.151 99.4103 184.33 109.678 186.11C117.095 187.401 124.381 188.211 131.351 188.518H131.354L131.688 138.566L89.4629 127.396C89.2615 127.342 89.0456 127.378 88.8733 127.496C88.7035 127.615 88.6065 127.794 88.6065 127.988V145.852C89.5502 145.702 90.5231 145.658 91.4718 145.673C92.236 145.685 93.0318 145.698 93.784 145.828C94.4681 145.946 95.1329 146.228 95.7322 146.548C96.9889 147.217 98.2336 148.17 99.0464 149.316C99.0585 149.336 99.0706 149.351 99.0828 149.369C99.7136 149.36 100.344 149.401 100.978 149.454H100.98C102.875 149.597 105.301 149.92 107.356 150.327C107.358 150.327 107.363 150.327 107.363 150.329C108.072 150.461 108.773 150.62 109.46 150.819C109.557 150.843 109.661 150.873 109.753 150.902C109.862 150.933 109.971 150.967 110.078 151.002C110.161 151.031 110.241 151.058 110.323 151.087C110.542 151.163 110.738 151.242 110.903 151.322C110.947 151.345 110.993 151.365 111.039 151.389C111.189 151.465 111.34 151.544 111.483 151.635C111.483 151.635 111.484 151.636 111.485 151.638C111.485 151.638 111.495 151.64 111.498 151.644C111.629 151.723 111.762 151.814 111.886 151.92C111.888 151.922 111.891 151.926 111.895 151.929C111.898 151.929 111.903 151.931 111.903 151.931H111.905C111.927 151.951 111.944 151.967 111.966 151.984C112.009 152.018 112.051 152.056 112.094 152.101C112.109 152.114 112.121 152.13 112.133 152.141C112.148 152.159 112.165 152.175 112.179 152.188C112.187 152.197 112.191 152.201 112.199 152.208C112.211 152.222 112.225 152.237 112.238 152.253C112.33 152.349 112.41 152.454 112.48 152.564C112.769 153.018 112.885 153.582 112.827 154.235C112.813 154.443 112.771 154.651 112.725 154.857C112.703 154.942 112.682 155.025 112.66 155.103C112.65 155.134 112.645 155.166 112.635 155.193C112.633 155.199 112.628 155.204 112.628 155.21C112.58 155.369 112.521 155.519 112.453 155.669C112.451 155.68 112.446 155.689 112.441 155.7C112.439 155.707 112.434 155.714 112.432 155.721C112.383 155.828 112.33 155.933 112.272 156.036C112.267 156.047 112.262 156.056 112.257 156.067C112.25 156.079 112.245 156.087 112.238 156.099C112.206 156.152 112.172 156.206 112.141 156.26C112.128 156.282 112.116 156.304 112.104 156.325C112.08 156.365 112.053 156.403 112.024 156.441C112.014 156.459 112.002 156.477 111.99 156.495C111.963 156.53 111.934 156.571 111.908 156.609C111.893 156.629 111.874 156.645 111.861 156.665C111.806 156.736 111.752 156.803 111.694 156.868C111.306 157.334 110.83 157.745 110.282 158.061H110.28C110.435 158.242 110.58 158.425 110.721 158.607C110.728 158.615 110.733 158.62 110.741 158.629C110.896 158.824 111.054 159.018 111.197 159.208C111.449 159.522 111.711 159.85 111.908 160.204H111.91C111.942 160.258 111.966 160.3 111.983 160.331C112.148 160.642 112.23 160.987 112.24 161.374C112.242 161.387 112.242 161.405 112.242 161.421C112.242 161.446 112.245 161.472 112.245 161.499C112.245 161.533 112.242 161.571 112.238 161.604C112.225 162.454 111.9 163.264 111.374 163.962C111.354 163.987 111.337 164.018 111.318 164.045C111.311 164.052 111.306 164.059 111.299 164.068C111.284 164.09 111.262 164.11 111.248 164.13C111.236 164.141 111.226 164.155 111.216 164.166C110.731 164.779 110.098 165.293 109.346 165.658H109.343C109.506 165.886 109.649 166.123 109.787 166.354C109.794 166.365 109.799 166.374 109.807 166.385C109.819 166.408 109.831 166.43 109.85 166.457C110.001 166.703 110.136 166.936 110.246 167.13C110.272 167.177 110.299 167.224 110.326 167.271C110.34 167.302 110.36 167.334 110.374 167.361C110.406 167.417 110.432 167.466 110.454 167.508C110.617 167.81 110.709 168.153 110.721 168.535C110.724 168.582 110.721 168.631 110.721 168.678C110.721 168.837 110.709 168.994 110.682 169.15C110.68 169.168 110.68 169.184 110.675 169.202C110.675 169.209 110.673 169.215 110.673 169.222C110.665 169.251 110.661 169.276 110.653 169.305C110.646 169.338 110.641 169.37 110.631 169.403C110.629 169.414 110.624 169.426 110.622 169.437C110.619 169.443 110.619 169.448 110.614 169.455C110.612 169.466 110.612 169.475 110.607 169.486C110.602 169.504 110.595 169.517 110.588 169.533C110.576 169.575 110.566 169.616 110.551 169.654C110.537 169.694 110.52 169.737 110.503 169.775C110.105 170.828 109.207 171.759 108.348 172.499C107.771 172.994 107.135 173.475 106.441 173.844C106.815 174.231 107.077 174.692 107.138 175.271C107.227 176.108 106.919 177.01 106.478 177.732C105.699 179.005 104.207 180.054 102.603 180.209C101.463 180.316 100.259 180.077 99.1507 179.853C97.7993 179.578 96.4649 179.22 95.1669 178.788C94.177 178.459 92.993 178.115 92.1754 177.462C91.2001 177.054 90.3048 176.517 89.4362 175.945C89.1548 175.759 88.8758 175.571 88.5992 175.383V180.71L88.6089 180.708ZM83.8002 170.22C84.8483 170.913 85.8624 171.647 86.8814 172.379C87.9296 173.133 88.9728 173.893 90.05 174.609C90.9113 175.182 91.8867 175.835 92.8305 176.2C92.8426 176.206 92.8523 176.211 92.8644 176.218C92.9688 176.247 93.0731 176.3 93.1677 176.381C93.1823 176.394 93.2017 176.406 93.2186 176.417C93.2041 176.41 93.192 176.403 93.1725 176.394C93.1944 176.406 93.2162 176.417 93.2381 176.43C93.2745 176.455 93.3108 176.482 93.3521 176.504C93.5171 176.6 93.6918 176.685 93.8664 176.764C94.3541 176.989 94.5603 177.063 95.0456 177.236C96.1762 177.64 97.3383 177.974 98.515 178.253C99.0997 178.394 99.6917 178.52 100.289 178.625C100.534 178.667 100.781 178.703 101.031 178.739C101.058 178.741 101.254 178.764 101.298 178.77C101.439 178.781 101.579 178.795 101.72 178.802C101.926 178.815 102.135 178.822 102.341 178.813C102.402 178.811 102.465 178.806 102.526 178.802H102.528C102.528 178.802 102.54 178.802 102.547 178.799C102.559 178.799 102.572 178.799 102.584 178.797C102.618 178.795 102.657 178.788 102.688 178.779C103.336 178.641 103.945 178.309 104.42 177.891C104.986 177.399 105.379 176.777 105.551 176.079C105.631 175.755 105.687 175.379 105.541 175.061C105.393 174.739 105.051 174.522 104.731 174.341C104.639 174.309 104.559 174.256 104.496 174.193C104.27 174.01 104.217 173.757 104.277 173.529C104.314 173.327 104.433 173.146 104.663 173.039C104.714 173.007 104.772 172.987 104.835 172.974C105.733 172.712 106.536 172.119 107.22 171.54C107.87 170.985 108.601 170.309 108.969 169.533H108.96C108.984 169.486 109.006 169.439 109.025 169.394C109.05 169.338 109.076 169.28 109.096 169.224C109.098 169.217 109.098 169.213 109.103 169.206C109.103 169.206 109.105 169.193 109.11 169.184C109.295 168.605 109.108 168.162 108.834 167.683C108.795 167.611 108.754 167.542 108.71 167.47C108.695 167.448 108.683 167.423 108.666 167.399C108.574 167.244 108.479 167.09 108.385 166.94C108.377 166.931 108.373 166.922 108.37 166.918L108.334 166.857C108.242 166.719 108.152 166.58 108.055 166.446C108.009 166.381 107.96 166.314 107.912 166.249C107.912 166.249 107.829 166.15 107.822 166.135C107.788 166.094 107.752 166.056 107.715 166.021C107.693 165.998 107.637 165.958 107.611 165.938H107.608C107.608 165.938 107.601 165.931 107.599 165.929C107.596 165.927 107.591 165.927 107.591 165.927L106.16 165.132L107.735 164.721C107.817 164.676 107.912 164.647 108.011 164.638C108.266 164.562 108.509 164.463 108.741 164.34C108.756 164.331 108.773 164.323 108.788 164.316C108.802 164.307 108.821 164.296 108.836 164.287C108.88 164.264 108.926 164.24 108.967 164.213C109.013 164.182 109.062 164.153 109.105 164.123C109.115 164.117 109.12 164.114 109.127 164.11C109.251 164.027 109.363 163.938 109.474 163.844H109.477C109.537 163.79 109.6 163.734 109.659 163.676C109.707 163.631 109.753 163.58 109.799 163.528C110.263 163.034 110.58 162.437 110.685 161.792C110.733 161.488 110.724 161.244 110.653 161.052C110.653 161.052 110.651 161.041 110.651 161.038C110.639 161.009 110.629 160.982 110.614 160.956C110.614 160.949 110.612 160.944 110.605 160.938C110.449 160.649 109.736 159.723 109.193 159.081C109.142 159.02 109.086 158.96 109.023 158.891C108.926 158.783 108.826 158.678 108.722 158.577C108.683 158.542 108.642 158.506 108.603 158.47C108.601 158.463 108.596 158.463 108.593 158.461C108.593 158.459 108.591 158.459 108.591 158.459H108.589L107.215 157.696L108.64 157.217H108.647C108.707 157.181 108.778 157.157 108.848 157.143C108.851 157.141 108.858 157.141 108.86 157.137C109.166 157.023 109.455 156.875 109.714 156.696C109.787 156.645 109.862 156.591 109.933 156.537C110.073 156.423 110.204 156.304 110.328 156.179C110.389 156.114 110.452 156.049 110.505 155.982C110.554 155.926 110.6 155.866 110.644 155.808C110.663 155.785 110.678 155.765 110.69 155.743C110.724 155.698 110.758 155.649 110.784 155.602C110.799 155.58 110.816 155.56 110.823 155.537C110.85 155.495 110.874 155.452 110.901 155.407C110.937 155.342 110.974 155.275 111.005 155.204C111.027 155.159 111.049 155.114 111.066 155.067C111.092 155 111.117 154.931 111.143 154.864C111.17 154.781 111.194 154.7 111.216 154.618C111.255 154.454 111.286 154.284 111.299 154.114C111.318 153.917 111.308 153.743 111.277 153.591C111.267 153.546 111.255 153.497 111.24 153.452C111.238 153.441 111.233 153.43 111.231 153.418C111.219 153.387 111.204 153.356 111.187 153.329C111.185 153.32 111.177 153.311 111.175 153.304C111.163 153.284 111.148 153.262 111.131 153.242C111.129 153.24 111.129 153.235 111.124 153.233C111.105 153.201 111.085 153.172 111.056 153.146C111.029 153.112 110.998 153.083 110.966 153.052L110.961 153.045C110.925 153.014 110.889 152.98 110.845 152.949C110.806 152.917 110.762 152.886 110.719 152.859C110.639 152.806 110.556 152.759 110.474 152.712C110.442 152.694 110.413 152.682 110.382 152.667C110.287 152.615 110.187 152.566 110.088 152.519C110.056 152.506 110.027 152.495 109.996 152.479C109.974 152.472 109.957 152.465 109.93 152.454C109.904 152.443 109.872 152.434 109.845 152.423C109.671 152.36 109.496 152.298 109.314 152.244C109.103 152.181 108.887 152.125 108.676 152.065C106.048 151.396 101.519 150.812 99.3326 150.776C99.1895 150.776 99.0464 150.77 98.9032 150.776C98.8886 150.776 98.8717 150.776 98.8571 150.779C98.8013 150.779 98.7431 150.781 98.6946 150.785L98.202 150.81L98.0395 150.521C98.0201 150.492 98.0031 150.465 97.9885 150.434C97.9206 150.32 97.8503 150.21 97.775 150.103C97.7678 150.094 97.7629 150.085 97.7556 150.078L97.7192 150.027C97.6731 149.964 97.6246 149.902 97.5761 149.841C97.217 149.414 96.7269 148.953 96.1762 148.541L96.1835 148.535C95.9481 148.36 95.7055 148.199 95.4604 148.049C94.9606 147.741 94.4269 147.459 93.8543 147.291C93.2914 147.128 92.7092 147.119 92.1196 147.094C89.6376 146.987 86.9081 147.226 85.0642 148.937C84.2539 149.689 83.7007 150.658 83.6813 151.732C83.6789 151.839 83.6546 151.935 83.6158 152.018C85.319 152.629 86.452 154.157 86.452 155.839C86.452 156.101 86.4253 156.367 86.3671 156.633L84.1932 166.766C83.97 167.808 83.3222 168.719 82.3687 169.327H82.3663C82.8588 169.598 83.3319 169.9 83.7953 170.206L83.8002 170.22ZM75.112 167.054C75.5463 167.654 76.2038 168.056 76.9632 168.195L79.2705 168.616C80.0275 168.754 80.8038 168.609 81.454 168.209C82.1043 167.81 82.541 167.202 82.6914 166.504L84.8653 156.372C85.1783 154.92 84.152 153.506 82.575 153.217L80.2676 152.797C80.0784 152.763 79.8867 152.745 79.6999 152.745C78.3388 152.745 77.1184 153.633 76.8443 154.911L74.6704 165.041C74.52 165.741 74.6753 166.455 75.112 167.054ZM74.5661 158.253L75.3425 154.636C75.573 153.566 76.2426 152.64 77.2301 152.029C78.2199 151.418 79.4039 151.199 80.5661 151.414L82.1577 151.703C82.1916 150.445 82.7302 149.32 83.5648 148.398C84.3995 147.474 85.5325 146.758 86.7504 146.32C86.8572 146.28 86.9688 146.248 87.078 146.213V144.336C85.7023 144.206 84.2126 144.412 82.8685 144.711C81.2478 145.074 79.7023 145.626 78.3485 146.535C75.6385 148.351 73.6466 151.425 73.5325 154.542C73.484 155.855 73.7776 157.175 74.5685 158.253H74.5661Z" fill="#221F1F"/>
<path d="M139.835 135.649C140.77 134.223 142.165 133.317 143.727 133.317C144.96 133.317 146.09 133.879 146.973 134.819C147.083 134.789 147.194 134.765 147.308 134.734L147.347 134.87C148.186 134.653 149.057 134.418 149.996 134.154C148.992 131.87 147.153 130.429 145.168 130.429C142.691 130.429 140.563 132.61 139.835 135.649Z" fill="white"/>
<path d="M111.638 62.6672V66.8977C111.638 67.9828 112.094 69.0029 112.927 69.7703C113.761 70.5354 114.868 70.9605 116.042 70.9605C119.485 70.9605 122.282 73.5399 122.282 76.7145V104.876C122.282 105.838 122.018 106.789 121.525 107.623L114.251 119.961C118.177 122.118 128.527 126.751 137.574 121.744C144.038 118.169 147.524 116.31 149.373 115.348L144.952 107.592C144.484 106.769 144.234 105.845 144.234 104.912V76.7123C144.234 75.1753 144.884 73.7279 146.061 72.6428C147.24 71.5578 148.81 70.9582 150.474 70.9582C152.903 70.9582 154.875 69.1349 154.875 66.8977V62.6672C154.875 60.4278 152.901 58.609 150.474 58.609H116.039C113.611 58.609 111.638 60.43 111.638 62.6672Z" fill="white"/>
<path d="M107.861 130.794L132.28 137.255C132.339 137.268 132.397 137.277 132.465 137.277C133.979 137.291 135.759 137.15 137.776 136.866C137.994 134.566 138.894 132.532 140.212 131.074C141.529 129.615 143.271 128.733 145.166 128.733C147.956 128.733 150.482 130.642 151.755 133.649H151.758C153.92 133.015 156.205 132.297 158.58 131.51L150.224 116.852C148.417 117.787 144.964 119.63 138.516 123.196C135.522 124.852 132.14 125.686 128.503 125.686C125.87 125.686 123.104 125.25 120.256 124.378C117.316 123.476 114.899 122.304 113.363 121.458L107.858 130.794H107.861Z" fill="#F16924"/>
<path d="M98.6339 205.623C99.517 207.701 100.912 209.764 103.2 210.702C104.469 211.221 105.908 211.397 107.276 211.498C108.569 211.592 109.87 211.587 111.16 211.476C113.604 211.263 116.035 210.605 118.111 209.384C120.268 208.118 121.925 206.207 122.85 204.01C123.779 201.818 124.116 199.343 123.548 197.032C123.027 194.9 121.7 192.92 119.465 192.028C117.437 191.22 115.045 191.426 113.492 192.943C112.58 193.835 111.956 194.943 111.151 195.914C110.343 196.889 109.413 197.8 108.261 198.433C107.698 198.744 107.082 198.979 106.444 199.122C105.794 199.265 105.398 198.686 105.512 198.231C104.187 198.254 102.919 197.86 101.613 197.697C100.405 197.545 99.2987 197.753 98.4811 198.63C96.6687 200.572 97.7459 203.536 98.6339 205.623Z" fill="#221F1F"/>
<path d="M144.882 201.569C145.498 203.898 146.803 206.057 148.766 207.65C150.63 209.165 152.99 210.055 155.404 210.496C157.898 210.948 160.579 210.95 163.074 210.507C164.381 210.274 165.657 209.86 166.684 209.055C167.623 208.321 168.336 207.402 168.913 206.406C169.534 205.337 169.998 204.187 170.364 203.024C170.75 201.786 171.002 200.444 170.583 199.182C170.27 198.247 169.556 197.334 168.503 197.032C167.237 196.67 165.883 197.111 164.631 197.323C164.027 197.424 163.413 197.498 162.802 197.487C162.913 197.941 162.52 198.52 161.868 198.375C159.155 197.766 157.467 195.648 155.999 193.623C155.302 192.665 154.548 191.726 153.393 191.216C152.486 190.811 151.394 190.726 150.404 190.871C148.051 191.218 146.25 192.708 145.314 194.692C144.302 196.831 144.292 199.33 144.884 201.572L144.882 201.569Z" fill="#221F1F"/>
<path d="M171.16 159.309L171.434 169.634C171.454 170.345 171.774 171.014 172.339 171.508C172.907 172.005 173.647 172.267 174.418 172.251L176.772 172.197C176.881 172.195 176.99 172.186 177.107 172.168C178.572 171.983 179.647 170.813 179.61 169.446L179.339 159.121C179.302 157.671 177.997 156.504 176.418 156.504H176.357L173.999 156.557C173.882 156.56 173.766 156.568 173.642 156.589L173.545 156.029L173.637 156.589C172.191 156.792 171.126 157.96 171.162 159.307L171.16 159.309Z" fill="white"/>
<path d="M75.112 167.054C75.5463 167.654 76.2038 168.056 76.9632 168.195L79.2705 168.616C80.0275 168.754 80.8038 168.609 81.454 168.209C82.1043 167.81 82.541 167.202 82.6914 166.504L84.8653 156.372C85.1783 154.92 84.152 153.506 82.575 153.217L80.2676 152.797C80.0784 152.763 79.8867 152.745 79.6999 152.745C78.3388 152.745 77.1184 153.633 76.8443 154.911L74.6704 165.041C74.52 165.741 74.6753 166.455 75.112 167.054Z" fill="white"/>
<path d="M82.3712 169.343C82.8637 169.611 83.3368 169.913 83.8002 170.22C84.8483 170.913 85.8624 171.647 86.8814 172.379C87.9296 173.133 88.9728 173.893 90.05 174.609C90.9113 175.182 91.8867 175.835 92.8305 176.2C92.8426 176.206 92.8523 176.211 92.8644 176.218C92.9688 176.247 93.0731 176.3 93.1677 176.381C93.1823 176.394 93.2017 176.406 93.2186 176.417C93.2332 176.426 93.2453 176.435 93.255 176.439C93.2478 176.437 93.2429 176.432 93.2356 176.43C93.272 176.455 93.3084 176.482 93.3497 176.504C93.5146 176.6 93.6893 176.685 93.864 176.763C94.3517 176.989 94.5579 177.063 95.0431 177.236C96.1738 177.64 97.3359 177.974 98.5126 178.253C99.0973 178.394 99.6893 178.52 100.286 178.625C100.531 178.667 100.779 178.703 101.029 178.739C101.055 178.741 101.252 178.764 101.295 178.77C101.436 178.781 101.577 178.795 101.718 178.802C101.924 178.815 102.132 178.822 102.339 178.813C102.399 178.811 102.462 178.806 102.523 178.802L102.526 178.802C102.526 178.802 102.538 178.802 102.545 178.799C102.557 178.799 102.569 178.799 102.581 178.797C102.615 178.795 102.654 178.788 102.686 178.779C103.333 178.64 103.942 178.309 104.418 177.891C104.983 177.399 105.376 176.777 105.549 176.079C105.629 175.755 105.684 175.379 105.539 175.061C105.391 174.739 105.049 174.522 104.728 174.341C104.636 174.309 104.556 174.256 104.493 174.193C104.268 174.01 104.214 173.757 104.275 173.529C104.311 173.327 104.43 173.146 104.661 173.039C104.712 173.007 104.77 172.987 104.833 172.974C105.731 172.712 106.534 172.119 107.218 171.54C107.868 170.985 108.598 170.309 108.967 169.533H108.957C108.982 169.486 109.003 169.439 109.023 169.394C109.047 169.338 109.074 169.28 109.093 169.224C109.096 169.217 109.096 169.213 109.1 169.206C109.1 169.206 109.103 169.193 109.108 169.184C109.292 168.604 109.105 168.162 108.831 167.683C108.792 167.611 108.751 167.542 108.707 167.47C108.693 167.448 108.681 167.423 108.664 167.399C108.572 167.244 108.477 167.09 108.382 166.94C108.375 166.931 108.37 166.922 108.368 166.918L108.331 166.857C108.239 166.719 108.149 166.58 108.052 166.446C108.006 166.381 107.958 166.314 107.909 166.249C107.909 166.249 107.827 166.15 107.819 166.135C107.785 166.094 107.749 166.056 107.713 166.021C107.691 165.998 107.635 165.958 107.608 165.938L107.606 165.938C107.606 165.938 107.599 165.931 107.596 165.929C107.594 165.927 107.589 165.927 107.589 165.927L106.158 165.132L107.732 164.721C107.815 164.676 107.909 164.647 108.009 164.638C108.263 164.562 108.506 164.463 108.739 164.34C108.754 164.331 108.771 164.323 108.785 164.316C108.8 164.307 108.819 164.296 108.834 164.287C108.877 164.264 108.923 164.24 108.965 164.213C109.011 164.182 109.059 164.152 109.103 164.123C109.113 164.117 109.117 164.114 109.125 164.11C109.248 164.027 109.36 163.938 109.472 163.844L109.474 163.844C109.535 163.79 109.598 163.734 109.656 163.676C109.705 163.631 109.751 163.58 109.797 163.528C110.26 163.034 110.578 162.437 110.682 161.792C110.731 161.488 110.721 161.244 110.651 161.052C110.651 161.052 110.648 161.041 110.648 161.038C110.636 161.009 110.627 160.982 110.612 160.956C110.612 160.949 110.61 160.944 110.602 160.938C110.447 160.649 109.734 159.723 109.19 159.081C109.139 159.02 109.084 158.96 109.02 158.891C108.923 158.783 108.824 158.678 108.72 158.577C108.681 158.542 108.64 158.506 108.601 158.47C108.598 158.463 108.593 158.463 108.591 158.461C108.591 158.459 108.589 158.459 108.589 158.459H108.586L107.213 157.696L108.637 157.217H108.644C108.705 157.181 108.775 157.157 108.846 157.143C108.848 157.141 108.855 157.141 108.858 157.137C109.164 157.023 109.452 156.875 109.712 156.696C109.785 156.645 109.86 156.591 109.93 156.537C110.071 156.423 110.202 156.304 110.326 156.179C110.386 156.114 110.449 156.049 110.503 155.982C110.551 155.926 110.597 155.866 110.641 155.808C110.661 155.785 110.675 155.765 110.687 155.743C110.721 155.698 110.755 155.649 110.782 155.602C110.796 155.58 110.813 155.559 110.821 155.537C110.847 155.495 110.872 155.452 110.898 155.407C110.935 155.342 110.971 155.275 111.003 155.204C111.024 155.159 111.046 155.114 111.063 155.067C111.09 155 111.114 154.931 111.141 154.864C111.168 154.781 111.192 154.7 111.214 154.618C111.253 154.454 111.284 154.284 111.296 154.114C111.316 153.917 111.306 153.743 111.274 153.591C111.265 153.546 111.253 153.497 111.238 153.452C111.236 153.441 111.231 153.43 111.228 153.418C111.216 153.387 111.202 153.356 111.185 153.329C111.182 153.32 111.175 153.311 111.172 153.304C111.16 153.284 111.146 153.262 111.129 153.242C111.126 153.24 111.126 153.235 111.122 153.233C111.102 153.201 111.083 153.172 111.054 153.146C111.027 153.112 110.995 153.083 110.964 153.052L110.959 153.045C110.923 153.014 110.886 152.98 110.842 152.949C110.804 152.917 110.76 152.886 110.716 152.859C110.636 152.806 110.554 152.759 110.471 152.712C110.44 152.694 110.411 152.682 110.379 152.667C110.284 152.615 110.185 152.566 110.086 152.519C110.054 152.506 110.025 152.495 109.993 152.479C109.971 152.472 109.955 152.465 109.928 152.454C109.901 152.443 109.87 152.434 109.843 152.423C109.668 152.36 109.494 152.298 109.312 152.244C109.1 152.181 108.885 152.125 108.673 152.065C106.046 151.396 101.516 150.812 99.3302 150.776C99.1871 150.776 99.0439 150.77 98.9008 150.776C98.8862 150.776 98.8693 150.776 98.8547 150.779C98.7989 150.779 98.7407 150.781 98.6921 150.785L98.1996 150.81L98.0371 150.521C98.0176 150.492 98.0007 150.465 97.9861 150.434C97.9182 150.32 97.8478 150.21 97.7726 150.103C97.7653 150.094 97.7605 150.085 97.7532 150.078L97.7168 150.027C97.6707 149.964 97.6222 149.902 97.5737 149.841C97.2146 149.414 96.7245 148.953 96.1737 148.541L96.181 148.535C95.9457 148.36 95.7031 148.199 95.458 148.049C94.9582 147.741 94.4245 147.459 93.8519 147.291C93.289 147.128 92.7067 147.119 92.1172 147.094C89.6352 146.987 86.9057 147.226 85.0618 148.937C84.2514 149.689 83.6983 150.658 83.6789 151.732C83.6764 151.839 83.6522 151.935 83.6134 152.018C85.3166 152.629 86.4496 154.157 86.4496 155.839C86.4496 156.101 86.4229 156.367 86.3647 156.633L84.1908 166.766C83.9676 167.808 83.3198 168.719 82.3663 169.327L82.3639 169.327L82.3712 169.343Z" fill="white"/>
<path d="M112.483 152.566C112.771 153.02 112.888 153.584 112.83 154.237C112.815 154.445 112.774 154.653 112.728 154.859C112.706 154.944 112.684 155.027 112.662 155.105C112.652 155.137 112.648 155.168 112.638 155.195C112.635 155.202 112.631 155.206 112.631 155.213C112.582 155.372 112.524 155.521 112.456 155.671C112.453 155.683 112.449 155.691 112.444 155.703C112.441 155.709 112.437 155.716 112.434 155.723C112.386 155.83 112.332 155.935 112.274 156.038C112.269 156.049 112.264 156.058 112.259 156.07C112.252 156.081 112.247 156.09 112.24 156.101C112.208 156.155 112.174 156.208 112.143 156.262C112.131 156.284 112.119 156.307 112.107 156.327C112.082 156.367 112.056 156.405 112.026 156.443C112.017 156.461 112.005 156.479 111.993 156.497C111.966 156.533 111.937 156.573 111.91 156.611C111.895 156.631 111.876 156.647 111.864 156.667C111.808 156.738 111.755 156.806 111.697 156.87C111.308 157.336 110.833 157.747 110.284 158.063H110.282C110.437 158.244 110.583 158.428 110.724 158.609C110.731 158.618 110.736 158.622 110.743 158.631C110.898 158.826 111.056 159.02 111.199 159.211C111.451 159.524 111.714 159.853 111.91 160.206H111.912C111.944 160.26 111.968 160.302 111.985 160.334C112.15 160.645 112.233 160.989 112.242 161.376C112.245 161.39 112.245 161.407 112.245 161.423C112.245 161.448 112.247 161.475 112.247 161.501C112.247 161.535 112.245 161.573 112.24 161.607C112.228 162.457 111.903 163.267 111.376 163.965C111.357 163.989 111.34 164.021 111.32 164.047C111.313 164.054 111.308 164.061 111.301 164.07C111.286 164.092 111.265 164.112 111.25 164.132C111.238 164.144 111.228 164.157 111.219 164.168C110.733 164.781 110.1 165.296 109.348 165.66H109.346C109.508 165.889 109.651 166.126 109.79 166.356C109.797 166.367 109.802 166.376 109.809 166.387C109.821 166.41 109.833 166.432 109.853 166.459C110.003 166.705 110.139 166.938 110.248 167.132C110.275 167.179 110.301 167.226 110.328 167.273C110.343 167.305 110.362 167.336 110.377 167.363C110.408 167.419 110.435 167.468 110.457 167.511C110.619 167.813 110.711 168.155 110.724 168.537C110.726 168.584 110.724 168.634 110.724 168.681C110.724 168.839 110.711 168.996 110.685 169.153C110.682 169.171 110.682 169.186 110.678 169.204C110.678 169.211 110.675 169.217 110.675 169.224C110.668 169.253 110.663 169.278 110.656 169.307C110.648 169.341 110.644 169.372 110.634 169.405C110.631 169.417 110.627 169.428 110.624 169.439C110.622 169.446 110.622 169.45 110.617 169.457C110.614 169.468 110.614 169.477 110.61 169.488C110.605 169.506 110.597 169.52 110.59 169.535C110.578 169.578 110.568 169.618 110.554 169.656C110.539 169.696 110.522 169.739 110.505 169.777C110.107 170.83 109.21 171.761 108.351 172.502C107.773 172.996 107.138 173.477 106.444 173.846C106.817 174.233 107.079 174.694 107.14 175.274C107.23 176.11 106.922 177.012 106.48 177.734C105.701 179.007 104.209 180.057 102.606 180.211C101.465 180.318 100.262 180.079 99.1531 179.855C97.8017 179.58 96.4673 179.222 95.1693 178.79C94.1794 178.462 92.9954 178.117 92.1778 177.464C91.2025 177.057 90.3072 176.52 89.4387 175.947C89.1572 175.761 88.8782 175.573 88.6016 175.385V180.712C88.6016 180.978 88.786 181.213 89.0577 181.298C91.8357 182.155 99.403 184.334 109.671 186.115C117.088 187.406 124.373 188.216 131.344 188.522H131.346L131.681 138.57L89.4556 127.4C89.2542 127.346 89.0383 127.382 88.8661 127.501C88.6962 127.619 88.5992 127.798 88.5992 127.993V145.857C89.543 145.707 90.5159 145.662 91.4645 145.678C92.2288 145.689 93.0246 145.702 93.7767 145.832C94.4609 145.951 95.1256 146.233 95.7249 146.553C96.9817 147.222 98.2263 148.175 99.0391 149.32C99.0512 149.34 99.0633 149.356 99.0755 149.374C99.7063 149.365 100.337 149.405 100.97 149.459H100.973C102.868 149.602 105.294 149.924 107.349 150.331C107.351 150.331 107.356 150.331 107.356 150.333C108.065 150.465 108.766 150.624 109.452 150.823C109.549 150.848 109.654 150.877 109.746 150.906C109.855 150.937 109.964 150.971 110.071 151.007C110.153 151.036 110.234 151.063 110.316 151.092C110.534 151.168 110.731 151.246 110.896 151.327C110.94 151.349 110.986 151.369 111.032 151.394C111.182 151.47 111.333 151.548 111.476 151.64C111.476 151.64 111.477 151.641 111.478 151.642C111.478 151.642 111.488 151.644 111.49 151.649C111.621 151.727 111.755 151.819 111.878 151.924C111.881 151.926 111.883 151.931 111.888 151.933C111.891 151.933 111.895 151.935 111.895 151.935H111.898C111.92 151.955 111.937 151.971 111.959 151.989C112.002 152.023 112.043 152.061 112.087 152.105C112.102 152.119 112.114 152.134 112.126 152.146C112.141 152.163 112.157 152.179 112.172 152.193C112.179 152.201 112.184 152.206 112.191 152.213C112.204 152.226 112.218 152.242 112.23 152.257C112.322 152.354 112.403 152.459 112.473 152.568L112.483 152.566Z" fill="#FBBF98"/>
<path d="M132.889 188.58C132.955 188.583 133.02 188.587 133.088 188.589C133.132 188.591 133.173 188.589 133.202 188.587C133.668 188.533 144.739 187.216 156.382 185.466C165.262 184.137 171.98 182.927 176.342 181.871C176.655 181.795 176.864 181.538 176.849 181.245L176.478 173.622L174.455 173.667H174.346C173.86 173.667 173.39 173.591 172.938 173.452C172.88 173.482 172.815 173.506 172.739 173.524C172.002 173.683 171.417 173.922 170.799 174.186C169.901 174.571 169.018 174.994 168.144 175.423C166.308 176.318 164.493 177.267 162.605 178.07C161.778 178.421 160.921 178.766 160.036 178.963C159.272 179.39 158.258 179.54 157.406 179.69C156.021 179.936 154.613 180.099 153.206 180.184C151.988 180.256 150.727 180.292 149.526 180.07C148.097 179.811 146.85 178.739 146.207 177.569C145.726 176.692 145.501 175.692 145.663 174.716C145.78 174.021 146.156 173.522 146.677 173.146C146.364 172.902 146.073 172.634 145.804 172.363C145.156 171.71 144.571 170.983 144.118 170.204C143.72 169.526 143.373 168.759 143.361 167.976C143.349 167.43 143.48 166.839 143.807 166.381C143.996 166.115 144.222 165.866 144.436 165.618C144.727 165.278 145.025 164.944 145.345 164.629C144.695 164.17 144.147 163.584 143.783 162.913C143.237 161.924 142.943 160.62 143.378 159.551C143.669 158.828 144.355 158.273 144.945 157.75C145.229 157.492 145.525 157.242 145.831 157C144.727 156.09 144.03 154.799 143.979 153.407C143.945 152.557 144.157 151.629 144.855 151.027C145.416 150.546 146.192 150.28 146.93 150.134C148.131 149.899 149.387 149.848 150.615 149.814C152.097 149.779 153.587 149.801 155.072 149.877C156.188 149.933 157.333 149.993 158.439 150.181C159.196 149.407 160.208 148.805 161.208 148.349C162.38 147.817 163.644 147.436 164.964 147.548C168.033 147.814 171.34 148.492 173.339 150.85C174.384 152.085 174.918 153.573 174.69 155.13L175.578 155.11L174.266 128.192C174.256 127.986 174.139 127.805 173.95 127.698C173.763 127.588 173.54 127.572 173.336 127.655C170.908 128.619 165.961 130.534 160.08 132.517C157.018 133.546 154.084 134.463 151.365 135.246C150.055 135.619 148.875 135.944 147.764 136.232L139.144 138.089C139.144 138.089 134.835 138.649 133.222 138.687L132.887 188.58H132.889Z" fill="#FBBF98"/>
<path d="M144.911 167.631C144.892 167.745 144.889 167.859 144.892 167.974C144.892 167.994 144.906 168.144 144.904 168.159C144.935 168.332 144.986 168.502 145.045 168.667C145.326 169.461 145.884 170.258 146.478 170.929C147.07 171.591 147.704 172.213 148.512 172.58C148.841 172.732 148.941 173.001 148.885 173.256C148.854 173.537 148.628 173.761 148.327 173.871C148.014 173.987 147.674 174.128 147.444 174.361C147.177 174.629 147.133 175.005 147.138 175.352C147.141 175.976 147.34 176.585 147.684 177.119C148.041 177.67 148.543 178.121 149.142 178.441C149.186 178.464 149.433 178.562 149.465 178.589C149.514 178.607 149.56 178.62 149.613 178.634C149.797 178.685 149.987 178.717 150.181 178.743C150.207 178.746 150.353 178.764 150.389 178.766C150.496 178.775 150.6 178.784 150.707 178.788C150.994 178.806 151.275 178.813 151.559 178.813C152.139 178.815 152.719 178.793 153.296 178.759C154.533 178.681 155.635 178.555 156.833 178.35C157.389 178.256 157.94 178.148 158.478 178.005C158.677 177.951 158.867 177.889 159.063 177.826C159.085 177.819 159.097 177.817 159.109 177.815C159.121 177.806 159.136 177.797 159.163 177.786C159.182 177.777 159.196 177.766 159.213 177.757C159.272 177.712 159.344 177.674 159.427 177.647C159.519 177.605 159.611 177.582 159.696 177.576C161.346 177.198 162.824 176.419 164.352 175.676C166.172 174.795 167.962 173.851 169.823 173.043C170.284 172.846 170.75 172.647 171.228 172.477C170.398 171.725 169.925 170.73 169.898 169.665L169.624 159.34C169.573 157.343 171.099 155.604 173.205 155.222C173.179 155.108 173.171 154.985 173.193 154.864C173.579 152.559 171.42 150.611 169.297 149.821C168.021 149.347 166.645 149.116 165.284 148.987C164.762 148.94 164.238 148.902 163.763 148.989C163.236 149.087 162.717 149.248 162.229 149.454C161.123 149.92 160.021 150.557 159.262 151.452C159.131 151.606 158.913 151.667 158.699 151.653C158.641 151.653 158.583 151.647 158.517 151.633C158.345 151.597 158.17 151.566 157.996 151.537C157.891 151.524 157.789 151.508 157.685 151.495C157.685 151.495 157.624 151.486 157.583 151.481C157.537 151.474 157.423 151.463 157.408 151.461C156.87 151.401 156.329 151.36 155.79 151.322C154.465 151.237 153.136 151.201 151.809 151.204C150.591 151.21 149.368 151.237 148.162 151.367C148.128 151.369 147.951 151.392 147.927 151.396C147.83 151.407 147.733 151.421 147.636 151.439C147.425 151.472 147.214 151.51 147.007 151.564C146.376 151.725 145.76 151.962 145.583 152.591C145.166 154.07 146.134 155.642 147.5 156.383C147.514 156.389 147.524 156.401 147.539 156.407C147.558 156.419 147.577 156.432 147.597 156.448C147.624 156.468 147.648 156.488 147.67 156.508C147.674 156.515 147.682 156.519 147.684 156.526C147.789 156.631 147.844 156.752 147.859 156.877C147.861 156.9 147.861 156.924 147.866 156.949V156.969C147.878 157.228 147.759 157.504 147.497 157.604C147.4 157.645 147.315 157.698 147.231 157.752C147.221 157.759 147.17 157.794 147.146 157.808C147.102 157.841 147.056 157.875 147.015 157.909C146.728 158.13 146.454 158.36 146.185 158.598C145.916 158.835 145.651 159.079 145.391 159.327C145.285 159.432 145.173 159.535 145.069 159.647C145.032 159.683 145.001 159.721 144.964 159.756C144.962 159.759 144.957 159.759 144.955 159.765C144.955 159.765 144.954 159.768 144.952 159.774C144.113 161.369 145.474 163.222 147.017 163.929C147.366 164.09 147.456 164.376 147.381 164.64C147.354 164.855 147.238 165.061 147.017 165.148C146.978 165.166 146.939 165.188 146.903 165.208C146.903 165.215 146.772 165.302 146.75 165.323C146.58 165.463 146.427 165.616 146.277 165.77C145.974 166.081 145.687 166.403 145.408 166.734C145.382 166.766 145.282 166.882 145.18 167.009C145.032 167.202 144.938 167.396 144.901 167.631H144.911Z" fill="white"/>
<path d="M93.2186 176.417C93.2186 176.417 93.2308 176.426 93.2381 176.43C93.2453 176.432 93.2502 176.437 93.2575 176.439C93.2478 176.432 93.2356 176.426 93.2211 176.417H93.2186Z" fill="white"/>
<path d="M121.003 129.138C122.942 130.438 124.878 131.738 126.817 133.038C127.285 133.353 127.755 133.666 128.224 133.982C128.692 134.297 129.277 134.628 129.248 135.255C129.221 135.828 128.609 136.152 128.112 136.378C127.615 136.604 127.134 136.756 126.61 136.841C126.203 136.908 125.785 136.74 125.667 136.347C125.565 136.004 125.793 135.543 126.203 135.476C126.533 135.423 126.865 135.349 127.176 135.228C127.309 135.177 127.438 135.112 127.561 135.047C127.634 135.009 127.707 134.968 127.777 134.926C127.906 134.852 127.918 134.841 127.819 134.895L127.714 135.25C127.792 135.4 127.785 135.438 127.695 135.362L127.45 135.199L125.98 134.212C125.346 133.787 124.715 133.364 124.082 132.939C122.796 132.078 121.513 131.214 120.227 130.353C119.892 130.129 119.727 129.74 119.953 129.387C120.147 129.082 120.664 128.908 121.001 129.134L121.003 129.138Z" fill="#221F1F"/>
<path d="M171.16 159.309C171.124 157.962 172.189 156.794 173.635 156.591L173.543 156.032L173.64 156.591C173.763 156.571 173.88 156.562 173.996 156.56L176.354 156.506H176.415C177.995 156.506 179.3 157.674 179.336 159.123L179.608 169.448L179.61 169.446M171.16 159.309L171.162 159.307C171.126 157.96 172.191 156.792 173.637 156.589L173.545 156.029L173.642 156.589C173.766 156.568 173.882 156.56 173.999 156.557L176.357 156.504H176.418C177.997 156.504 179.302 157.671 179.339 159.121L179.61 169.446M171.16 159.309L171.434 169.634C171.454 170.345 171.774 171.014 172.339 171.508C172.907 172.005 173.647 172.267 174.418 172.251L176.772 172.197C176.881 172.195 176.99 172.186 177.107 172.168C178.572 171.983 179.647 170.813 179.61 169.446M132.465 137.277C133.979 137.291 135.759 137.15 137.776 136.866C137.994 134.566 138.894 132.532 140.212 131.074C141.529 129.615 143.271 128.733 145.166 128.733C147.956 128.733 150.482 130.642 151.755 133.649H151.758C153.92 133.015 156.205 132.297 158.58 131.51L150.224 116.852C148.417 117.787 144.964 119.63 138.516 123.196C135.522 124.852 132.14 125.686 128.503 125.686C125.87 125.686 123.104 125.25 120.256 124.378C117.316 123.476 114.899 122.304 113.363 121.458L107.858 130.794M132.465 137.277H132.462C132.394 137.277 132.336 137.268 132.278 137.255L107.858 130.794M132.465 137.277C132.397 137.277 132.339 137.268 132.28 137.255L107.861 130.794H107.858M83.8002 170.22C84.8483 170.913 85.8624 171.647 86.8814 172.379C87.9296 173.133 88.9728 173.893 90.05 174.609C90.9113 175.182 91.8867 175.835 92.8305 176.2C92.8426 176.206 92.8523 176.211 92.8644 176.218C92.9688 176.247 93.0731 176.3 93.1677 176.381C93.1823 176.394 93.2017 176.406 93.2186 176.417M83.8002 170.22L83.7953 170.206C83.3319 169.9 82.8588 169.598 82.3663 169.327M83.8002 170.22C83.3368 169.913 82.8637 169.611 82.3712 169.343L82.3639 169.327L82.3663 169.327M93.2186 176.417C93.2041 176.41 93.192 176.403 93.1725 176.394C93.1944 176.406 93.2162 176.417 93.2381 176.43M93.2186 176.417C93.2332 176.426 93.2453 176.435 93.255 176.439C93.2478 176.437 93.2429 176.432 93.2356 176.43C93.272 176.455 93.3084 176.482 93.3497 176.504C93.5147 176.6 93.6893 176.685 93.864 176.763C94.3517 176.989 94.5579 177.063 95.0431 177.236C96.1738 177.64 97.3359 177.974 98.5126 178.253C99.0973 178.394 99.6893 178.52 100.286 178.625C100.531 178.667 100.779 178.703 101.029 178.739C101.055 178.741 101.252 178.764 101.295 178.77C101.436 178.781 101.577 178.795 101.718 178.802C101.924 178.815 102.132 178.822 102.339 178.813C102.399 178.811 102.462 178.806 102.523 178.802L102.526 178.802M93.2186 176.417C93.2186 176.417 93.2308 176.426 93.2381 176.43M93.2186 176.417H93.2211C93.2356 176.426 93.2478 176.432 93.2575 176.439C93.2502 176.437 93.2453 176.432 93.2381 176.43M93.2381 176.43C93.2745 176.455 93.3108 176.482 93.3521 176.504C93.5171 176.6 93.6918 176.685 93.8664 176.764C94.3541 176.989 94.5603 177.063 95.0456 177.236C96.1762 177.64 97.3383 177.974 98.515 178.253C99.0997 178.394 99.6917 178.52 100.289 178.625C100.534 178.667 100.781 178.703 101.031 178.739C101.058 178.741 101.254 178.764 101.298 178.77C101.439 178.781 101.579 178.795 101.72 178.802C101.926 178.815 102.135 178.822 102.341 178.813C102.402 178.811 102.465 178.806 102.526 178.802M102.526 178.802H102.528C102.528 178.802 102.54 178.802 102.547 178.799C102.559 178.799 102.572 178.799 102.584 178.797C102.618 178.795 102.657 178.788 102.688 178.779C103.336 178.641 103.945 178.309 104.42 177.891C104.986 177.399 105.379 176.777 105.551 176.079C105.631 175.755 105.687 175.379 105.541 175.061C105.393 174.739 105.051 174.522 104.731 174.341C104.639 174.309 104.559 174.256 104.496 174.193C104.27 174.01 104.217 173.757 104.277 173.529C104.314 173.327 104.433 173.146 104.663 173.039C104.714 173.007 104.772 172.987 104.835 172.974C105.733 172.712 106.536 172.119 107.22 171.54C107.87 170.985 108.601 170.309 108.969 169.533H108.96C108.984 169.486 109.006 169.439 109.025 169.394C109.05 169.338 109.076 169.28 109.096 169.224C109.098 169.217 109.098 169.213 109.103 169.206C109.103 169.206 109.105 169.193 109.11 169.184C109.295 168.605 109.108 168.162 108.834 167.683C108.795 167.611 108.754 167.542 108.71 167.47C108.695 167.448 108.683 167.423 108.666 167.399C108.574 167.244 108.479 167.09 108.385 166.94C108.377 166.931 108.373 166.922 108.37 166.918L108.334 166.857C108.242 166.719 108.152 166.58 108.055 166.446C108.009 166.381 107.96 166.314 107.912 166.249C107.912 166.249 107.829 166.15 107.822 166.135C107.788 166.094 107.752 166.056 107.715 166.021C107.693 165.998 107.637 165.958 107.611 165.938H107.608M102.526 178.802C102.526 178.802 102.538 178.802 102.545 178.799C102.557 178.799 102.569 178.799 102.581 178.797C102.615 178.795 102.654 178.788 102.686 178.779C103.333 178.64 103.942 178.309 104.418 177.891C104.983 177.399 105.376 176.777 105.549 176.079C105.629 175.755 105.684 175.379 105.539 175.061C105.391 174.739 105.049 174.522 104.728 174.341C104.636 174.309 104.556 174.256 104.493 174.193C104.268 174.01 104.214 173.757 104.275 173.529C104.311 173.327 104.43 173.146 104.661 173.039C104.712 173.007 104.77 172.987 104.833 172.974C105.731 172.712 106.534 172.119 107.218 171.54C107.868 170.985 108.598 170.309 108.967 169.533H108.957C108.982 169.486 109.003 169.439 109.023 169.394C109.047 169.338 109.074 169.28 109.093 169.224C109.096 169.217 109.096 169.213 109.1 169.206C109.1 169.206 109.103 169.193 109.108 169.184C109.292 168.604 109.105 168.162 108.831 167.683C108.792 167.611 108.751 167.542 108.707 167.47C108.693 167.448 108.681 167.423 108.664 167.399C108.572 167.244 108.477 167.09 108.382 166.94C108.375 166.931 108.37 166.922 108.368 166.918L108.331 166.857C108.239 166.719 108.149 166.58 108.052 166.446C108.006 166.381 107.958 166.314 107.909 166.249C107.909 166.249 107.827 166.15 107.819 166.135C107.785 166.094 107.749 166.056 107.713 166.021C107.691 165.998 107.635 165.958 107.608 165.938M107.608 165.938C107.608 165.938 107.601 165.931 107.599 165.929C107.596 165.927 107.591 165.927 107.591 165.927L106.16 165.132L107.735 164.721C107.817 164.676 107.912 164.647 108.011 164.638C108.266 164.562 108.509 164.463 108.741 164.34C108.756 164.331 108.773 164.323 108.788 164.316C108.802 164.307 108.821 164.296 108.836 164.287C108.88 164.264 108.926 164.24 108.967 164.213C109.013 164.182 109.062 164.153 109.105 164.123C109.115 164.117 109.12 164.114 109.127 164.11C109.251 164.027 109.363 163.938 109.474 163.844M107.608 165.938L107.606 165.938C107.606 165.938 107.599 165.931 107.596 165.929C107.594 165.927 107.589 165.927 107.589 165.927L106.158 165.132L107.732 164.721C107.815 164.676 107.909 164.647 108.009 164.638C108.263 164.562 108.506 164.463 108.739 164.34C108.754 164.331 108.771 164.323 108.785 164.316C108.8 164.307 108.819 164.296 108.834 164.287C108.877 164.264 108.923 164.24 108.965 164.213C109.011 164.182 109.059 164.153 109.103 164.123C109.113 164.117 109.117 164.114 109.125 164.11C109.248 164.027 109.36 163.938 109.472 163.844L109.474 163.844M109.474 163.844H109.477C109.537 163.79 109.6 163.734 109.659 163.676C109.707 163.631 109.753 163.58 109.799 163.528C110.263 163.034 110.58 162.437 110.685 161.792C110.733 161.488 110.724 161.244 110.653 161.052C110.653 161.052 110.651 161.041 110.651 161.038C110.639 161.009 110.629 160.982 110.614 160.956C110.614 160.949 110.612 160.944 110.605 160.938C110.449 160.649 109.736 159.723 109.193 159.081C109.142 159.02 109.086 158.96 109.023 158.891C108.926 158.783 108.826 158.678 108.722 158.577C108.683 158.542 108.642 158.506 108.603 158.47C108.601 158.463 108.596 158.463 108.593 158.461C108.593 158.459 108.591 158.459 108.591 158.459H108.589M109.474 163.844C109.535 163.79 109.598 163.734 109.656 163.676C109.705 163.631 109.751 163.58 109.797 163.528C110.26 163.034 110.578 162.437 110.682 161.792C110.731 161.488 110.721 161.244 110.651 161.052C110.651 161.052 110.648 161.041 110.648 161.038C110.636 161.009 110.627 160.982 110.612 160.956C110.612 160.949 110.61 160.944 110.602 160.938C110.447 160.649 109.734 159.723 109.19 159.081C109.139 159.02 109.084 158.96 109.02 158.891C108.923 158.783 108.824 158.678 108.72 158.577C108.681 158.542 108.64 158.506 108.601 158.47C108.598 158.463 108.593 158.463 108.591 158.461C108.591 158.459 108.589 158.459 108.589 158.459M108.589 158.459L107.215 157.696L108.64 157.217H108.647C108.707 157.181 108.778 157.157 108.848 157.143C108.851 157.141 108.858 157.141 108.86 157.137C109.166 157.023 109.455 156.875 109.714 156.696C109.787 156.645 109.862 156.591 109.933 156.537C110.073 156.423 110.204 156.304 110.328 156.179C110.389 156.114 110.452 156.049 110.505 155.982C110.554 155.926 110.6 155.866 110.644 155.808C110.663 155.785 110.678 155.765 110.69 155.743C110.724 155.698 110.758 155.649 110.784 155.602C110.799 155.58 110.816 155.559 110.823 155.537C110.85 155.495 110.874 155.452 110.901 155.407C110.937 155.342 110.974 155.275 111.005 155.204C111.027 155.159 111.049 155.114 111.066 155.067C111.092 155 111.117 154.931 111.143 154.864C111.17 154.781 111.194 154.7 111.216 154.618C111.255 154.454 111.286 154.284 111.299 154.114C111.318 153.917 111.308 153.743 111.277 153.591C111.267 153.546 111.255 153.497 111.24 153.452C111.238 153.441 111.233 153.43 111.231 153.418C111.219 153.387 111.204 153.356 111.187 153.329C111.185 153.32 111.177 153.311 111.175 153.304C111.163 153.284 111.148 153.262 111.131 153.242C111.129 153.24 111.129 153.235 111.124 153.233C111.105 153.201 111.085 153.172 111.056 153.146C111.029 153.112 110.998 153.083 110.966 153.052L110.961 153.045C110.925 153.014 110.889 152.98 110.845 152.949C110.806 152.917 110.762 152.886 110.719 152.859C110.639 152.806 110.556 152.759 110.474 152.712C110.442 152.694 110.413 152.682 110.382 152.667C110.287 152.615 110.187 152.566 110.088 152.519C110.056 152.506 110.027 152.495 109.996 152.479C109.974 152.472 109.957 152.465 109.93 152.454C109.904 152.443 109.872 152.434 109.845 152.423C109.671 152.36 109.496 152.298 109.314 152.244C109.103 152.181 108.887 152.125 108.676 152.065C106.048 151.396 101.519 150.812 99.3326 150.776C99.1895 150.776 99.0464 150.77 98.9032 150.776C98.8887 150.776 98.8717 150.776 98.8571 150.779C98.8013 150.779 98.7431 150.781 98.6946 150.785L98.2021 150.81L98.0395 150.521C98.0201 150.492 98.0031 150.465 97.9885 150.434C97.9206 150.32 97.8503 150.21 97.775 150.103C97.7678 150.094 97.7629 150.085 97.7556 150.078L97.7192 150.027C97.6731 149.964 97.6246 149.902 97.5761 149.841C97.217 149.414 96.7269 148.953 96.1762 148.541L96.1835 148.535C95.9481 148.36 95.7055 148.199 95.4604 148.049C94.9606 147.741 94.4269 147.459 93.8543 147.291C93.2914 147.128 92.7092 147.119 92.1196 147.094C89.6376 146.987 86.9081 147.226 85.0642 148.937C84.2539 149.689 83.7007 150.658 83.6813 151.732C83.6789 151.839 83.6546 151.935 83.6158 152.018C85.319 152.629 86.452 154.157 86.452 155.839C86.452 156.101 86.4253 156.367 86.3671 156.633L84.1932 166.766C83.97 167.808 83.3222 168.719 82.3687 169.327H82.3663M108.589 158.459H108.586L107.213 157.696L108.637 157.217H108.644C108.705 157.181 108.775 157.157 108.846 157.143C108.848 157.141 108.855 157.141 108.858 157.137C109.164 157.023 109.452 156.875 109.712 156.696C109.785 156.645 109.86 156.591 109.93 156.537C110.071 156.423 110.202 156.304 110.326 156.179C110.386 156.114 110.449 156.049 110.503 155.982C110.551 155.926 110.597 155.866 110.641 155.808C110.661 155.785 110.675 155.765 110.687 155.743C110.721 155.698 110.755 155.649 110.782 155.602C110.796 155.58 110.813 155.559 110.821 155.537C110.847 155.495 110.872 155.452 110.898 155.407C110.935 155.342 110.971 155.275 111.003 155.204C111.024 155.159 111.046 155.114 111.063 155.067C111.09 155 111.114 154.931 111.141 154.864C111.168 154.781 111.192 154.7 111.214 154.618C111.253 154.454 111.284 154.284 111.296 154.114C111.316 153.917 111.306 153.743 111.274 153.591C111.265 153.546 111.253 153.497 111.238 153.452C111.236 153.441 111.231 153.43 111.228 153.418C111.216 153.387 111.202 153.356 111.185 153.329C111.182 153.32 111.175 153.311 111.172 153.304C111.16 153.284 111.146 153.262 111.129 153.242C111.126 153.24 111.126 153.235 111.122 153.233C111.102 153.201 111.083 153.172 111.054 153.146C111.027 153.112 110.995 153.083 110.964 153.052L110.959 153.045C110.923 153.014 110.886 152.98 110.842 152.949C110.804 152.917 110.76 152.886 110.716 152.859C110.636 152.806 110.554 152.759 110.471 152.712C110.44 152.694 110.411 152.682 110.379 152.667C110.284 152.615 110.185 152.566 110.086 152.519C110.054 152.506 110.025 152.495 109.993 152.479C109.971 152.472 109.955 152.465 109.928 152.454C109.901 152.443 109.87 152.434 109.843 152.423C109.668 152.36 109.494 152.298 109.312 152.244C109.1 152.181 108.885 152.125 108.673 152.065C106.046 151.396 101.516 150.812 99.3302 150.776C99.1871 150.776 99.0439 150.77 98.9008 150.776C98.8862 150.776 98.8693 150.776 98.8547 150.779C98.7989 150.779 98.7407 150.781 98.6921 150.785L98.1996 150.81L98.0371 150.521C98.0176 150.492 98.0007 150.465 97.9861 150.434C97.9182 150.32 97.8478 150.21 97.7726 150.103C97.7653 150.094 97.7605 150.085 97.7532 150.078L97.7168 150.027C97.6707 149.964 97.6222 149.902 97.5737 149.841C97.2146 149.414 96.7245 148.953 96.1737 148.541L96.181 148.535C95.9457 148.36 95.7031 148.199 95.458 148.049C94.9582 147.741 94.4245 147.459 93.8519 147.291C93.289 147.128 92.7067 147.119 92.1172 147.094C89.6352 146.987 86.9057 147.226 85.0618 148.937C84.2514 149.689 83.6983 150.658 83.6789 151.732C83.6764 151.839 83.6522 151.935 83.6134 152.018C85.3166 152.629 86.4496 154.157 86.4496 155.839C86.4496 156.101 86.4229 156.367 86.3647 156.633L84.1908 166.766C83.9676 167.808 83.3198 168.719 82.3663 169.327M141.017 49.8862C136.567 49.8862 132.948 46.5461 132.948 42.4409C132.948 38.3356 136.567 35 141.017 35C145.467 35 149.087 38.3379 149.087 42.4409C149.087 46.5439 145.467 49.8862 141.017 49.8862ZM141.017 36.6935C137.582 36.6935 134.787 39.2708 134.787 42.4386C134.787 45.6065 137.582 48.1882 141.017 48.1882C144.453 48.1882 147.247 45.611 147.247 42.4386C147.247 39.2663 144.453 36.6935 141.017 36.6935ZM123.908 53.8684C121.018 53.8684 118.669 51.7006 118.669 49.0383C118.669 46.3761 121.018 44.2082 123.908 44.2082C126.797 44.2082 129.143 46.3738 129.143 49.0383C129.143 51.7028 126.795 53.8684 123.908 53.8684ZM123.908 45.9018C122.032 45.9018 120.508 47.3067 120.508 49.0361C120.508 50.7654 122.032 52.1704 123.908 52.1704C125.783 52.1704 127.304 50.7632 127.304 49.0361C127.304 47.309 125.781 45.9018 123.908 45.9018ZM74.1876 160.016C74.1561 159.994 74.1294 159.973 74.1027 159.949C71.332 157.376 71.6013 153.275 73.1735 150.213C74.0323 148.541 75.2915 147.013 76.8419 145.837C78.3194 144.718 79.9983 143.973 81.835 143.499C83.5139 143.067 85.319 142.799 87.0755 142.931V127.991C87.0755 127.349 87.3934 126.758 87.9562 126.369C88.5143 125.982 89.2203 125.863 89.8875 126.04L106.051 130.315L111.813 120.545C111.65 120.445 112.626 118.997 112.626 118.997C112.633 118.999 112.652 119.017 112.696 119.044L119.909 106.811C120.259 106.223 120.443 105.554 120.443 104.876V76.7145C120.443 74.4751 118.468 72.6562 116.042 72.6562C114.375 72.6562 112.808 72.0567 111.629 70.9694C110.452 69.8844 109.802 68.4369 109.802 66.9V62.6695C109.802 59.4949 112.599 56.9154 116.042 56.9154H150.477C153.919 56.9154 156.717 59.4949 156.717 62.6695V66.9C156.717 70.0745 153.919 72.6562 150.477 72.6562C149.302 72.6562 148.196 73.0768 147.362 73.8442C146.532 74.6093 146.073 75.6295 146.073 76.7167V104.916C146.073 105.574 146.248 106.227 146.58 106.805L160.33 130.93C165.832 129.056 170.427 127.279 172.732 126.362C173.392 126.096 174.154 126.149 174.765 126.501C175.382 126.856 175.767 127.465 175.801 128.134L176.689 146.376C180.224 147.17 183.196 149.573 184.701 152.609C186.205 155.644 186.52 159.244 185.023 162.334C184.288 163.85 183.019 165.186 181.355 165.866C181.258 165.906 181.153 165.931 181.052 165.94L181.144 169.419C181.192 171.285 179.877 172.909 178.004 173.432L178.38 181.184C178.426 182.146 177.752 182.994 176.735 183.242C172.822 184.186 167.062 185.256 159.582 186.415C159.97 189.815 160.999 193.151 162.938 196.077C164.301 196.066 165.619 195.625 166.977 195.516C168.423 195.397 169.852 195.806 170.842 196.813C173.062 199.068 172.359 202.261 171.327 204.849C170.381 207.223 168.94 209.621 166.477 210.905C165.065 211.643 163.459 211.925 161.865 212.095C160.499 212.238 159.119 212.277 157.748 212.194C154.968 212.021 152.185 211.382 149.776 210.062C147.294 208.699 145.36 206.63 144.224 204.185C143.084 201.728 142.664 198.983 143.188 196.343C143.679 193.887 145.146 191.491 147.59 190.281C149.824 189.178 152.803 188.994 154.931 190.417C157.268 191.981 158.1 194.793 160.528 196.294C160.88 196.516 161.249 196.69 161.637 196.827C159.577 193.744 158.51 190.229 158.076 186.65C157.6 186.721 157.117 186.793 156.625 186.867C144.96 188.618 133.862 189.936 133.382 189.996C133.29 190.005 133.205 190.008 133.122 190.008H133.028C132.979 190.005 132.926 190.005 132.877 190.001V190.115L131.344 190.104V189.94C127.942 189.793 124.466 189.524 120.935 189.14C117.405 188.755 113.822 188.256 110.207 187.641C109.756 191.14 108.69 194.563 106.672 197.578C109.096 196.721 110.299 194.401 111.82 192.592C112.679 191.574 113.749 190.77 115.103 190.399C116.345 190.055 117.696 190.084 118.944 190.381C121.646 191.032 123.595 192.943 124.58 195.299C125.601 197.737 125.548 200.531 124.815 203.028C124.056 205.607 122.491 208.021 120.227 209.713C118.058 211.332 115.413 212.306 112.667 212.715C109.853 213.136 106.793 213.124 104.027 212.453C102.552 212.095 101.211 211.433 100.116 210.447C99.1507 209.574 98.3937 208.502 97.8042 207.384C97.1442 206.135 96.6056 204.795 96.2684 203.442C95.919 202.046 95.8147 200.527 96.4042 199.171C96.9186 197.976 97.8478 196.959 99.1749 196.495C100.645 195.983 102.225 196.368 103.702 196.643C104.258 196.748 104.809 196.824 105.374 196.829C107.278 193.965 108.297 190.71 108.705 187.386C98.6921 185.612 91.3262 183.486 88.5822 182.641C87.6821 182.365 87.0731 181.596 87.0731 180.717V174.309C86.7577 174.083 86.4423 173.855 86.1293 173.629C85.1322 172.913 84.1423 172.193 83.1233 171.515C82.3348 170.992 81.5268 170.461 80.6316 170.11C80.5855 170.092 80.5491 170.068 80.5127 170.043C80.2895 170.077 80.0663 170.094 79.8382 170.094C79.5495 170.094 79.2608 170.065 78.9745 170.016L76.6672 169.596C75.505 169.383 74.503 168.766 73.8407 167.851C73.1783 166.94 72.9405 165.846 73.1686 164.779L74.1852 160.027L74.1876 160.016ZM155.996 193.623C155.3 192.665 154.545 191.726 153.391 191.216C152.483 190.811 151.391 190.726 150.402 190.871C148.048 191.218 146.248 192.708 145.311 194.692C144.3 196.831 144.29 199.33 144.882 201.572C145.498 203.901 146.803 206.059 148.766 207.652C150.63 209.167 152.99 210.057 155.404 210.498C157.898 210.95 160.579 210.952 163.074 210.509C164.381 210.276 165.657 209.863 166.684 209.057C167.623 208.323 168.336 207.404 168.913 206.408C169.534 205.339 169.998 204.189 170.364 203.026C170.75 201.789 171.002 200.446 170.583 199.185C170.27 198.249 169.556 197.337 168.503 197.035C167.237 196.672 165.883 197.113 164.631 197.325C164.027 197.426 163.413 197.5 162.802 197.489C162.913 197.943 162.52 198.522 161.868 198.377C159.155 197.768 157.467 195.65 155.999 193.625L155.996 193.623ZM105.512 198.231C104.187 198.254 102.919 197.86 101.613 197.697C100.405 197.545 99.2987 197.753 98.4811 198.63C96.6687 200.572 97.7459 203.536 98.6339 205.623C99.517 207.701 100.912 209.764 103.2 210.702C104.469 211.221 105.908 211.397 107.276 211.498C108.569 211.592 109.87 211.587 111.16 211.476C113.604 211.263 116.035 210.605 118.111 209.384C120.268 208.118 121.925 206.207 122.85 204.01C123.779 201.818 124.116 199.343 123.548 197.032C123.027 194.9 121.7 192.92 119.465 192.028C117.437 191.22 115.045 191.426 113.492 192.943C112.58 193.835 111.956 194.943 111.151 195.914C110.343 196.889 109.413 197.8 108.261 198.433C107.698 198.744 107.082 198.979 106.444 199.122C105.794 199.265 105.398 198.686 105.512 198.231ZM144.95 107.592C144.482 106.769 144.232 105.845 144.232 104.912V76.7123C144.232 75.1753 144.882 73.7279 146.059 72.6428C147.238 71.5578 148.808 70.9582 150.472 70.9582C152.901 70.9582 154.873 69.1349 154.873 66.8977V62.6672C154.873 60.4278 152.898 58.609 150.472 58.609H116.037C113.608 58.609 111.636 60.43 111.636 62.6672V66.8977C111.636 67.9828 112.092 69.0029 112.924 69.7703C113.759 70.5354 114.865 70.9605 116.039 70.9605C119.482 70.9605 122.28 73.5399 122.28 76.7145V104.876C122.28 105.838 122.015 106.789 121.523 107.623L114.249 119.961C118.174 122.118 128.525 126.751 137.572 121.744C144.035 118.169 147.522 116.31 149.37 115.348L144.95 107.592ZM180.867 159.09L181.008 164.441C183.366 163.242 184.409 160.651 184.473 158.251C184.555 155.121 183.172 151.937 180.629 149.846C179.511 148.924 178.186 148.251 176.757 147.859L177.114 155.143C179.186 155.445 180.816 157.096 180.87 159.092L180.867 159.09ZM147.502 157.604C147.405 157.645 147.32 157.698 147.235 157.752C147.226 157.759 147.175 157.794 147.15 157.808C147.107 157.841 147.061 157.875 147.019 157.909C146.733 158.13 146.459 158.36 146.19 158.598C145.92 158.835 145.656 159.079 145.396 159.327C145.29 159.432 145.178 159.535 145.074 159.647C145.037 159.683 145.006 159.721 144.969 159.756C144.967 159.759 144.962 159.759 144.96 159.765C144.96 159.765 144.959 159.768 144.957 159.774C144.118 161.369 145.479 163.222 147.022 163.929C147.371 164.09 147.461 164.376 147.386 164.64C147.359 164.855 147.243 165.061 147.022 165.148C146.983 165.166 146.944 165.188 146.908 165.208C146.908 165.215 146.777 165.302 146.755 165.323C146.585 165.464 146.432 165.616 146.282 165.77C145.979 166.081 145.692 166.403 145.413 166.734C145.387 166.766 145.287 166.882 145.185 167.009C145.037 167.202 144.943 167.396 144.906 167.631C144.887 167.745 144.884 167.86 144.887 167.974C144.887 167.994 144.901 168.144 144.899 168.159C144.93 168.332 144.981 168.502 145.04 168.667C145.321 169.461 145.879 170.258 146.474 170.929C147.066 171.591 147.699 172.213 148.507 172.58C148.837 172.732 148.936 173.001 148.88 173.256C148.849 173.537 148.623 173.761 148.322 173.871C148.009 173.987 147.67 174.128 147.439 174.361C147.172 174.629 147.129 175.005 147.133 175.352C147.136 175.976 147.335 176.585 147.679 177.119C148.036 177.67 148.538 178.121 149.137 178.441C149.181 178.464 149.429 178.562 149.46 178.589C149.509 178.607 149.555 178.62 149.608 178.634C149.793 178.685 149.982 178.717 150.176 178.743C150.203 178.746 150.348 178.764 150.385 178.766C150.491 178.775 150.596 178.784 150.702 178.788C150.989 178.806 151.27 178.813 151.554 178.813C152.134 178.815 152.714 178.793 153.291 178.759C154.528 178.681 155.63 178.555 156.829 178.35C157.384 178.256 157.935 178.148 158.473 178.005C158.672 177.951 158.862 177.889 159.058 177.826C159.08 177.819 159.092 177.817 159.104 177.815C159.116 177.806 159.131 177.797 159.158 177.786C159.177 177.777 159.192 177.766 159.209 177.757C159.267 177.712 159.34 177.674 159.422 177.647C159.514 177.605 159.606 177.582 159.691 177.576C161.341 177.198 162.819 176.419 164.347 175.676C166.167 174.795 167.957 173.851 169.818 173.043C170.279 172.846 170.745 172.647 171.223 172.477C170.393 171.725 169.92 170.73 169.894 169.665L169.619 159.34C169.568 157.343 171.095 155.604 173.2 155.222C173.174 155.108 173.166 154.985 173.188 154.864C173.574 152.559 171.415 150.611 169.292 149.821C168.016 149.347 166.64 149.116 165.279 148.987C164.757 148.94 164.233 148.902 163.758 148.989C163.231 149.087 162.712 149.248 162.224 149.454C161.118 149.92 160.017 150.557 159.257 151.452C159.126 151.606 158.908 151.667 158.694 151.653C158.636 151.653 158.578 151.647 158.512 151.633C158.34 151.597 158.165 151.566 157.991 151.537C157.886 151.524 157.784 151.508 157.68 151.495C157.68 151.495 157.619 151.486 157.578 151.481C157.532 151.474 157.418 151.463 157.404 151.461C156.865 151.401 156.324 151.36 155.785 151.322C154.461 151.237 153.131 151.201 151.804 151.204C150.586 151.21 149.363 151.237 148.157 151.367C148.123 151.369 147.946 151.392 147.922 151.396C147.825 151.407 147.728 151.421 147.631 151.439C147.42 151.472 147.209 151.51 147.002 151.564C146.372 151.725 145.755 151.962 145.578 152.591C145.161 154.07 146.129 155.642 147.495 156.383C147.51 156.389 147.519 156.401 147.534 156.407C147.553 156.419 147.573 156.432 147.592 156.448C147.619 156.468 147.643 156.488 147.665 156.508C147.67 156.515 147.677 156.519 147.679 156.526C147.784 156.631 147.839 156.752 147.854 156.877C147.856 156.9 147.856 156.924 147.861 156.949V156.969C147.873 157.228 147.755 157.504 147.493 157.604H147.502ZM133.088 188.587C133.132 188.589 133.173 188.587 133.202 188.585C133.668 188.531 144.739 187.213 156.382 185.464C165.262 184.135 171.98 182.925 176.342 181.869C176.655 181.793 176.864 181.535 176.849 181.242L176.478 173.62L174.455 173.665H174.346C173.86 173.665 173.39 173.589 172.938 173.45C172.88 173.479 172.815 173.504 172.739 173.522C172.002 173.681 171.417 173.92 170.799 174.184C169.901 174.569 169.018 174.992 168.144 175.421C166.308 176.316 164.493 177.265 162.605 178.068C161.778 178.419 160.921 178.764 160.036 178.96C159.272 179.388 158.258 179.538 157.406 179.687C156.021 179.934 154.613 180.097 153.206 180.182C151.988 180.253 150.727 180.289 149.526 180.068C148.097 179.808 146.85 178.737 146.207 177.567C145.726 176.69 145.501 175.69 145.663 174.714C145.78 174.018 146.156 173.52 146.677 173.144C146.364 172.9 146.073 172.631 145.804 172.361C145.156 171.707 144.571 170.98 144.118 170.202C143.72 169.524 143.373 168.757 143.361 167.974C143.349 167.428 143.48 166.837 143.807 166.379C143.996 166.112 144.222 165.864 144.436 165.616C144.727 165.276 145.025 164.942 145.345 164.627C144.695 164.168 144.147 163.582 143.783 162.911C143.237 161.922 142.943 160.618 143.378 159.548C143.669 158.826 144.355 158.271 144.945 157.747C145.229 157.49 145.525 157.24 145.831 156.998C144.727 156.087 144.03 154.797 143.979 153.405C143.945 152.555 144.157 151.627 144.855 151.025C145.416 150.544 146.192 150.278 146.93 150.132C148.131 149.897 149.387 149.846 150.615 149.812C152.097 149.776 153.587 149.799 155.072 149.875C156.188 149.931 157.333 149.991 158.439 150.179C159.196 149.405 160.208 148.803 161.208 148.347C162.38 147.814 163.644 147.434 164.964 147.546C168.033 147.812 171.34 148.49 173.339 150.848C174.384 152.083 174.918 153.571 174.69 155.128L175.578 155.108L174.266 128.19C174.256 127.984 174.139 127.803 173.95 127.695C173.763 127.586 173.54 127.57 173.336 127.653C170.908 128.617 165.961 130.532 160.08 132.514C157.018 133.543 154.084 134.461 151.365 135.244C150.055 135.617 148.875 135.942 147.764 136.23L139.144 138.087C139.144 138.087 134.835 138.646 133.222 138.684L132.887 188.578C132.952 188.58 133.018 188.585 133.086 188.587H133.088ZM149.996 134.154C148.992 131.87 147.153 130.429 145.168 130.429C142.691 130.429 140.563 132.61 139.835 135.649C140.77 134.223 142.165 133.317 143.727 133.317C144.96 133.317 146.09 133.879 146.973 134.819C147.083 134.789 147.194 134.765 147.308 134.734L147.347 134.87C148.186 134.653 149.057 134.418 149.996 134.154ZM88.6089 180.708C88.6089 180.974 88.7933 181.209 89.065 181.294C91.843 182.151 99.4103 184.33 109.678 186.11C117.095 187.401 124.381 188.211 131.351 188.518H131.354L131.688 138.566L89.4629 127.396C89.2615 127.342 89.0456 127.378 88.8733 127.496C88.7035 127.615 88.6065 127.794 88.6065 127.988V145.852C89.5502 145.702 90.5231 145.658 91.4718 145.673C92.236 145.685 93.0318 145.698 93.784 145.828C94.4681 145.946 95.1329 146.228 95.7322 146.548C96.9889 147.217 98.2336 148.17 99.0464 149.316C99.0585 149.336 99.0706 149.351 99.0828 149.369C99.7136 149.36 100.344 149.401 100.978 149.454H100.98C102.875 149.597 105.301 149.92 107.356 150.327C107.358 150.327 107.363 150.327 107.363 150.329C108.072 150.461 108.773 150.62 109.46 150.819C109.557 150.844 109.661 150.873 109.753 150.902C109.862 150.933 109.971 150.967 110.078 151.002C110.161 151.031 110.241 151.058 110.323 151.087C110.542 151.163 110.738 151.242 110.903 151.322C110.947 151.345 110.993 151.365 111.039 151.389C111.189 151.465 111.34 151.544 111.483 151.635C111.483 151.635 111.484 151.636 111.485 151.638C111.485 151.638 111.495 151.64 111.498 151.644C111.629 151.723 111.762 151.814 111.886 151.92C111.888 151.922 111.891 151.926 111.895 151.929C111.898 151.929 111.903 151.931 111.903 151.931H111.905C111.927 151.951 111.944 151.967 111.966 151.984C112.009 152.018 112.051 152.056 112.094 152.101C112.109 152.114 112.121 152.13 112.133 152.141C112.148 152.159 112.165 152.175 112.179 152.188C112.187 152.197 112.191 152.201 112.199 152.208C112.211 152.222 112.225 152.237 112.238 152.253C112.33 152.349 112.41 152.454 112.48 152.564C112.769 153.018 112.885 153.582 112.827 154.235C112.813 154.443 112.771 154.651 112.725 154.857C112.703 154.942 112.682 155.025 112.66 155.103C112.65 155.134 112.645 155.166 112.635 155.193C112.633 155.199 112.628 155.204 112.628 155.21C112.58 155.369 112.521 155.519 112.453 155.669C112.451 155.68 112.446 155.689 112.441 155.7C112.439 155.707 112.434 155.714 112.432 155.721C112.383 155.828 112.33 155.933 112.272 156.036C112.267 156.047 112.262 156.056 112.257 156.067C112.25 156.079 112.245 156.087 112.238 156.099C112.206 156.152 112.172 156.206 112.141 156.26C112.128 156.282 112.116 156.304 112.104 156.325C112.08 156.365 112.053 156.403 112.024 156.441C112.014 156.459 112.002 156.477 111.99 156.495C111.963 156.53 111.934 156.571 111.908 156.609C111.893 156.629 111.874 156.645 111.861 156.665C111.806 156.736 111.752 156.803 111.694 156.868C111.306 157.334 110.83 157.745 110.282 158.061H110.28C110.435 158.242 110.58 158.425 110.721 158.607C110.728 158.615 110.733 158.62 110.741 158.629C110.896 158.824 111.054 159.018 111.197 159.208C111.449 159.522 111.711 159.85 111.908 160.204H111.91C111.942 160.258 111.966 160.3 111.983 160.331C112.148 160.642 112.23 160.987 112.24 161.374C112.242 161.387 112.242 161.405 112.242 161.421C112.242 161.446 112.245 161.472 112.245 161.499C112.245 161.533 112.242 161.571 112.238 161.604C112.225 162.454 111.9 163.264 111.374 163.962C111.354 163.987 111.337 164.018 111.318 164.045C111.311 164.052 111.306 164.059 111.299 164.068C111.284 164.09 111.262 164.11 111.248 164.13C111.236 164.141 111.226 164.155 111.216 164.166C110.731 164.779 110.098 165.293 109.346 165.658H109.343C109.506 165.886 109.649 166.123 109.787 166.354C109.794 166.365 109.799 166.374 109.807 166.385C109.819 166.408 109.831 166.43 109.85 166.457C110.001 166.703 110.136 166.936 110.246 167.13C110.272 167.177 110.299 167.224 110.326 167.271C110.34 167.302 110.36 167.334 110.374 167.361C110.406 167.417 110.432 167.466 110.454 167.508C110.617 167.81 110.709 168.153 110.721 168.535C110.724 168.582 110.721 168.631 110.721 168.678C110.721 168.837 110.709 168.994 110.682 169.15C110.68 169.168 110.68 169.184 110.675 169.202C110.675 169.209 110.673 169.215 110.673 169.222C110.665 169.251 110.661 169.276 110.653 169.305C110.646 169.338 110.641 169.37 110.631 169.403C110.629 169.414 110.624 169.426 110.622 169.437C110.619 169.443 110.619 169.448 110.614 169.455C110.612 169.466 110.612 169.475 110.607 169.486C110.602 169.504 110.595 169.517 110.588 169.533C110.576 169.575 110.566 169.616 110.551 169.654C110.537 169.694 110.52 169.737 110.503 169.775C110.105 170.828 109.207 171.759 108.348 172.499C107.771 172.994 107.135 173.475 106.441 173.844C106.815 174.231 107.077 174.692 107.138 175.271C107.227 176.108 106.919 177.01 106.478 177.732C105.699 179.005 104.207 180.054 102.603 180.209C101.463 180.316 100.259 180.077 99.1507 179.853C97.7993 179.578 96.4649 179.22 95.1669 178.788C94.177 178.459 92.993 178.115 92.1754 177.462C91.2001 177.054 90.3048 176.517 89.4362 175.945C89.1548 175.759 88.8758 175.571 88.5992 175.383V180.71L88.6089 180.708ZM75.112 167.054C75.5463 167.654 76.2038 168.056 76.9632 168.195L79.2705 168.616C80.0275 168.754 80.8038 168.609 81.4541 168.209C82.1043 167.81 82.541 167.202 82.6914 166.504L84.8653 156.372C85.1783 154.92 84.152 153.506 82.575 153.217L80.2676 152.797C80.0784 152.763 79.8867 152.745 79.6999 152.745C78.3388 152.745 77.1184 153.633 76.8443 154.911L74.6704 165.041C74.52 165.741 74.6753 166.455 75.112 167.054ZM74.5661 158.253L75.3425 154.636C75.573 153.566 76.2426 152.64 77.2301 152.029C78.2199 151.418 79.4039 151.199 80.5661 151.414L82.1577 151.703C82.1916 150.445 82.7302 149.32 83.5648 148.398C84.3994 147.474 85.5325 146.758 86.7504 146.32C86.8572 146.28 86.9688 146.248 87.078 146.213V144.336C85.7023 144.206 84.2126 144.412 82.8685 144.711C81.2478 145.074 79.7023 145.626 78.3485 146.535C75.6385 148.351 73.6466 151.425 73.5325 154.542C73.484 155.855 73.7776 157.175 74.5685 158.253H74.5661ZM111.638 62.6672V66.8977C111.638 67.9828 112.094 69.0029 112.927 69.7703C113.761 70.5354 114.868 70.9605 116.042 70.9605C119.485 70.9605 122.282 73.5399 122.282 76.7145V104.876C122.282 105.838 122.018 106.789 121.525 107.623L114.251 119.961C118.177 122.118 128.527 126.751 137.574 121.744C144.038 118.169 147.524 116.31 149.373 115.348L144.952 107.592C144.484 106.769 144.234 105.845 144.234 104.912V76.7123C144.234 75.1753 144.884 73.7279 146.061 72.6428C147.24 71.5578 148.81 70.9582 150.474 70.9582C152.903 70.9582 154.875 69.1349 154.875 66.8977V62.6672C154.875 60.4278 152.901 58.609 150.474 58.609H116.039C113.611 58.609 111.638 60.43 111.638 62.6672ZM144.882 201.569C145.498 203.898 146.803 206.057 148.766 207.65C150.63 209.165 152.99 210.055 155.404 210.496C157.898 210.948 160.579 210.95 163.074 210.507C164.381 210.274 165.657 209.86 166.684 209.055C167.623 208.321 168.336 207.402 168.913 206.406C169.534 205.337 169.998 204.187 170.364 203.024C170.75 201.786 171.002 200.444 170.583 199.182C170.27 198.247 169.556 197.334 168.503 197.032C167.237 196.67 165.883 197.111 164.631 197.323C164.027 197.424 163.413 197.498 162.802 197.487C162.913 197.941 162.52 198.52 161.868 198.375C159.155 197.766 157.467 195.648 155.999 193.623C155.302 192.665 154.548 191.726 153.393 191.216C152.486 190.811 151.394 190.726 150.404 190.871C148.051 191.218 146.25 192.708 145.314 194.692C144.302 196.831 144.292 199.33 144.884 201.572L144.882 201.569ZM112.483 152.566C112.771 153.02 112.888 153.584 112.83 154.237C112.815 154.445 112.774 154.653 112.728 154.859C112.706 154.944 112.684 155.027 112.662 155.105C112.652 155.137 112.648 155.168 112.638 155.195C112.635 155.202 112.631 155.206 112.631 155.213C112.582 155.372 112.524 155.521 112.456 155.671C112.453 155.683 112.449 155.691 112.444 155.703C112.441 155.709 112.437 155.716 112.434 155.723C112.386 155.83 112.332 155.935 112.274 156.038C112.269 156.049 112.264 156.058 112.259 156.07C112.252 156.081 112.247 156.09 112.24 156.101C112.208 156.155 112.174 156.208 112.143 156.262C112.131 156.284 112.119 156.307 112.107 156.327C112.082 156.367 112.056 156.405 112.026 156.443C112.017 156.461 112.005 156.479 111.993 156.497C111.966 156.533 111.937 156.573 111.91 156.611C111.895 156.631 111.876 156.647 111.864 156.667C111.808 156.738 111.755 156.806 111.697 156.87C111.308 157.336 110.833 157.747 110.284 158.063H110.282C110.437 158.244 110.583 158.428 110.724 158.609C110.731 158.618 110.736 158.622 110.743 158.631C110.898 158.826 111.056 159.02 111.199 159.211C111.451 159.524 111.714 159.853 111.91 160.206H111.912C111.944 160.26 111.968 160.302 111.985 160.334C112.15 160.645 112.233 160.989 112.242 161.376C112.245 161.39 112.245 161.407 112.245 161.423C112.245 161.448 112.247 161.475 112.247 161.501C112.247 161.535 112.245 161.573 112.24 161.607C112.228 162.457 111.903 163.267 111.376 163.965C111.357 163.989 111.34 164.021 111.32 164.047C111.313 164.054 111.308 164.061 111.301 164.07C111.286 164.092 111.265 164.112 111.25 164.132C111.238 164.144 111.228 164.157 111.219 164.168C110.733 164.781 110.1 165.296 109.348 165.66H109.346C109.508 165.889 109.651 166.126 109.79 166.356C109.797 166.367 109.802 166.376 109.809 166.387C109.821 166.41 109.833 166.432 109.853 166.459C110.003 166.705 110.139 166.938 110.248 167.132C110.275 167.179 110.301 167.226 110.328 167.273C110.343 167.305 110.362 167.336 110.377 167.363C110.408 167.419 110.435 167.468 110.457 167.511C110.619 167.813 110.711 168.155 110.724 168.537C110.726 168.584 110.724 168.634 110.724 168.681C110.724 168.839 110.711 168.996 110.685 169.153C110.682 169.171 110.682 169.186 110.678 169.204C110.678 169.211 110.675 169.217 110.675 169.224C110.668 169.253 110.663 169.278 110.656 169.307C110.648 169.341 110.644 169.372 110.634 169.405C110.631 169.417 110.627 169.428 110.624 169.439C110.622 169.446 110.622 169.45 110.617 169.457C110.614 169.468 110.614 169.477 110.61 169.488C110.605 169.506 110.597 169.52 110.59 169.535C110.578 169.578 110.568 169.618 110.554 169.656C110.539 169.696 110.522 169.739 110.505 169.777C110.107 170.83 109.21 171.761 108.351 172.502C107.773 172.996 107.138 173.477 106.444 173.846C106.817 174.233 107.079 174.694 107.14 175.274C107.23 176.11 106.922 177.012 106.48 177.734C105.701 179.007 104.209 180.057 102.606 180.211C101.465 180.318 100.262 180.079 99.1531 179.855C97.8017 179.58 96.4673 179.222 95.1693 178.79C94.1794 178.462 92.9954 178.117 92.1778 177.464C91.2025 177.057 90.3072 176.52 89.4387 175.947C89.1572 175.761 88.8782 175.573 88.6016 175.385V180.712C88.6016 180.978 88.786 181.213 89.0577 181.298C91.8357 182.155 99.403 184.334 109.671 186.115C117.088 187.406 124.373 188.216 131.344 188.522H131.346L131.681 138.57L89.4556 127.4C89.2542 127.346 89.0383 127.382 88.8661 127.501C88.6962 127.619 88.5992 127.798 88.5992 127.993V145.857C89.543 145.707 90.5159 145.662 91.4645 145.678C92.2288 145.689 93.0245 145.702 93.7767 145.832C94.4609 145.951 95.1256 146.233 95.7249 146.553C96.9817 147.222 98.2263 148.175 99.0391 149.32C99.0512 149.34 99.0633 149.356 99.0755 149.374C99.7063 149.365 100.337 149.405 100.97 149.459H100.973C102.868 149.602 105.294 149.924 107.349 150.331C107.351 150.331 107.356 150.331 107.356 150.333C108.065 150.465 108.766 150.624 109.452 150.823C109.549 150.848 109.654 150.877 109.746 150.906C109.855 150.937 109.964 150.971 110.071 151.007C110.153 151.036 110.234 151.063 110.316 151.092C110.534 151.168 110.731 151.246 110.896 151.327C110.94 151.349 110.986 151.369 111.032 151.394C111.182 151.47 111.333 151.548 111.476 151.64C111.476 151.64 111.477 151.641 111.478 151.642C111.478 151.642 111.488 151.644 111.49 151.649C111.621 151.727 111.755 151.819 111.878 151.924C111.881 151.926 111.883 151.931 111.888 151.933C111.891 151.933 111.895 151.935 111.895 151.935H111.898C111.92 151.955 111.937 151.971 111.959 151.989C112.002 152.023 112.043 152.061 112.087 152.105C112.102 152.119 112.114 152.134 112.126 152.146C112.141 152.163 112.157 152.179 112.172 152.193C112.179 152.201 112.184 152.206 112.191 152.213C112.204 152.226 112.218 152.242 112.23 152.257C112.322 152.354 112.403 152.459 112.473 152.568L112.483 152.566ZM132.889 188.58C132.955 188.583 133.02 188.587 133.088 188.589C133.132 188.591 133.173 188.589 133.202 188.587C133.668 188.533 144.739 187.216 156.382 185.466C165.262 184.137 171.98 182.927 176.342 181.871C176.655 181.795 176.864 181.538 176.849 181.245L176.478 173.622L174.455 173.667H174.346C173.86 173.667 173.39 173.591 172.938 173.452C172.88 173.482 172.815 173.506 172.739 173.524C172.002 173.683 171.417 173.922 170.799 174.186C169.901 174.571 169.018 174.994 168.144 175.423C166.308 176.318 164.493 177.267 162.605 178.07C161.778 178.421 160.921 178.766 160.036 178.963C159.272 179.39 158.258 179.54 157.406 179.69C156.021 179.936 154.613 180.099 153.206 180.184C151.988 180.256 150.727 180.292 149.526 180.07C148.097 179.811 146.85 178.739 146.207 177.569C145.726 176.692 145.501 175.692 145.663 174.716C145.78 174.021 146.156 173.522 146.677 173.146C146.364 172.902 146.073 172.634 145.804 172.363C145.156 171.71 144.571 170.983 144.118 170.204C143.72 169.526 143.373 168.759 143.361 167.976C143.349 167.43 143.48 166.839 143.807 166.381C143.996 166.115 144.222 165.866 144.436 165.618C144.727 165.278 145.025 164.944 145.345 164.629C144.695 164.17 144.147 163.584 143.783 162.913C143.237 161.924 142.943 160.62 143.378 159.551C143.669 158.828 144.355 158.273 144.945 157.75C145.229 157.492 145.525 157.242 145.831 157C144.727 156.09 144.03 154.799 143.979 153.407C143.945 152.557 144.157 151.629 144.855 151.027C145.416 150.546 146.192 150.28 146.93 150.134C148.131 149.899 149.387 149.848 150.615 149.814C152.097 149.779 153.587 149.801 155.072 149.877C156.188 149.933 157.333 149.993 158.439 150.181C159.196 149.407 160.208 148.805 161.208 148.349C162.38 147.817 163.644 147.436 164.964 147.548C168.033 147.814 171.34 148.492 173.339 150.85C174.384 152.085 174.918 153.573 174.69 155.13L175.578 155.11L174.266 128.192C174.256 127.986 174.139 127.805 173.95 127.698C173.763 127.588 173.54 127.572 173.336 127.655C170.908 128.619 165.961 130.534 160.08 132.517C157.018 133.546 154.084 134.463 151.365 135.246C150.055 135.619 148.875 135.944 147.764 136.232L139.144 138.089C139.144 138.089 134.835 138.649 133.222 138.687L132.887 188.58H132.889ZM144.911 167.631C144.892 167.745 144.889 167.86 144.892 167.974C144.892 167.994 144.906 168.144 144.904 168.159C144.935 168.332 144.986 168.502 145.045 168.667C145.326 169.461 145.884 170.258 146.478 170.929C147.07 171.591 147.704 172.213 148.512 172.58C148.841 172.732 148.941 173.001 148.885 173.256C148.854 173.537 148.628 173.761 148.327 173.871C148.014 173.987 147.674 174.128 147.444 174.361C147.177 174.629 147.133 175.005 147.138 175.352C147.141 175.976 147.34 176.585 147.684 177.119C148.041 177.67 148.543 178.121 149.142 178.441C149.186 178.464 149.433 178.562 149.465 178.589C149.514 178.607 149.56 178.62 149.613 178.634C149.797 178.685 149.987 178.717 150.181 178.743C150.207 178.746 150.353 178.764 150.389 178.766C150.496 178.775 150.6 178.784 150.707 178.788C150.994 178.806 151.275 178.813 151.559 178.813C152.139 178.815 152.719 178.793 153.296 178.759C154.533 178.681 155.635 178.555 156.833 178.35C157.389 178.256 157.94 178.148 158.478 178.005C158.677 177.951 158.867 177.889 159.063 177.826C159.085 177.819 159.097 177.817 159.109 177.815C159.121 177.806 159.136 177.797 159.163 177.786C159.182 177.777 159.196 177.766 159.213 177.757C159.272 177.712 159.344 177.674 159.427 177.647C159.519 177.605 159.611 177.582 159.696 177.576C161.346 177.198 162.824 176.419 164.352 175.676C166.172 174.795 167.962 173.851 169.823 173.043C170.284 172.846 170.75 172.647 171.228 172.477C170.398 171.725 169.925 170.73 169.898 169.665L169.624 159.34C169.573 157.343 171.099 155.604 173.205 155.222C173.179 155.108 173.171 154.985 173.193 154.864C173.579 152.559 171.42 150.611 169.297 149.821C168.021 149.347 166.645 149.116 165.284 148.987C164.762 148.94 164.238 148.902 163.763 148.989C163.236 149.087 162.717 149.248 162.229 149.454C161.123 149.92 160.021 150.557 159.262 151.452C159.131 151.606 158.913 151.667 158.699 151.653C158.641 151.653 158.583 151.647 158.517 151.633C158.345 151.597 158.17 151.566 157.996 151.537C157.891 151.524 157.789 151.508 157.685 151.495C157.685 151.495 157.624 151.486 157.583 151.481C157.537 151.474 157.423 151.463 157.408 151.461C156.87 151.401 156.329 151.36 155.79 151.322C154.465 151.237 153.136 151.201 151.809 151.204C150.591 151.21 149.368 151.237 148.162 151.367C148.128 151.369 147.951 151.392 147.927 151.396C147.83 151.407 147.733 151.421 147.636 151.439C147.425 151.472 147.214 151.51 147.007 151.564C146.376 151.725 145.76 151.962 145.583 152.591C145.166 154.07 146.134 155.642 147.5 156.383C147.514 156.389 147.524 156.401 147.539 156.407C147.558 156.419 147.577 156.432 147.597 156.448C147.624 156.468 147.648 156.488 147.67 156.508C147.674 156.515 147.682 156.519 147.684 156.526C147.789 156.631 147.844 156.752 147.859 156.877C147.861 156.9 147.861 156.924 147.866 156.949V156.969C147.878 157.228 147.759 157.504 147.497 157.604C147.4 157.645 147.315 157.698 147.231 157.752C147.221 157.759 147.17 157.794 147.146 157.808C147.102 157.841 147.056 157.875 147.015 157.909C146.728 158.13 146.454 158.36 146.185 158.598C145.916 158.835 145.651 159.079 145.391 159.327C145.285 159.432 145.173 159.535 145.069 159.647C145.032 159.683 145.001 159.721 144.964 159.756C144.962 159.759 144.957 159.759 144.955 159.765C144.955 159.765 144.954 159.768 144.952 159.774C144.113 161.369 145.474 163.222 147.017 163.929C147.366 164.09 147.456 164.376 147.381 164.64C147.354 164.855 147.238 165.061 147.017 165.148C146.978 165.166 146.939 165.188 146.903 165.208C146.903 165.215 146.772 165.302 146.75 165.323C146.58 165.463 146.427 165.616 146.277 165.77C145.974 166.081 145.687 166.403 145.408 166.734C145.382 166.766 145.282 166.882 145.18 167.009C145.032 167.202 144.938 167.396 144.901 167.631H144.911ZM121.003 129.138C122.942 130.438 124.878 131.738 126.817 133.038C127.285 133.353 127.755 133.666 128.224 133.982C128.692 134.297 129.277 134.628 129.248 135.255C129.221 135.828 128.609 136.152 128.112 136.378C127.615 136.604 127.134 136.756 126.61 136.841C126.203 136.908 125.785 136.74 125.667 136.347C125.565 136.004 125.793 135.543 126.203 135.476C126.533 135.423 126.865 135.349 127.176 135.228C127.309 135.177 127.438 135.112 127.561 135.047C127.634 135.009 127.707 134.968 127.777 134.926C127.906 134.852 127.918 134.841 127.819 134.895L127.714 135.25C127.792 135.4 127.785 135.438 127.695 135.362L127.45 135.199L125.98 134.212C125.346 133.787 124.715 133.364 124.082 132.939C122.796 132.078 121.513 131.214 120.227 130.353C119.892 130.129 119.727 129.74 119.953 129.387C120.147 129.082 120.664 128.908 121.001 129.134L121.003 129.138Z" stroke="#221F1F" stroke-miterlimit="10"/>
</svg>
