<svg width="94" height="70" viewBox="0 0 94 70" fill="none" xmlns="http://www.w3.org/2000/svg">
<rect x="7.02319" y="17.3542" width="44.9462" height="12.7742" rx="5" fill="white"/>
<rect x="45.3457" y="17.3542" width="10.4086" height="12.7742" fill="white"/>
<line x1="61.0391" y1="17.8271" x2="61.0391" y2="30.1282" stroke="white" stroke-width="3"/>
<line x1="66.2434" y1="17.8271" x2="66.2434" y2="30.1282" stroke="white" stroke-width="3"/>
<path d="M60.9734 25.7399L36.2132 3.35329C34.1649 1.50132 31.0031 1.6605 29.1511 3.70883L3.3534 32.2418C1.50143 34.2901 1.66061 37.4519 3.70894 39.3039L25.4205 58.9341C27.4688 60.7861 30.6306 60.6269 32.4826 58.5786L52.6593 36.2627C53.4954 35.3378 54.6469 34.7588 55.888 34.6391L58.1002 34.4256C62.4249 34.0084 64.1962 28.6538 60.9734 25.7399Z" stroke="#F16923" stroke-width="4" stroke-linejoin="round"/>
<rect x="22.8567" y="18.0828" width="30.4467" height="24.2331" rx="5" transform="rotate(42.1179 22.8567 18.0828)" fill="#F16923"/>
<path d="M20.4879 37.7412C19.3549 38.9944 17.3093 39.097 15.9105 37.8322C14.5116 36.5674 14.4082 34.5219 15.5412 33.2688C16.6742 32.0157 18.7198 31.9131 20.1187 33.1778C21.5175 34.4426 21.6209 36.4881 20.4879 37.7412Z" stroke="white" stroke-width="2"/>
<mask id="path-8-inside-1_44_203" fill="white">
<ellipse cx="28.1482" cy="48.3858" rx="2.75824" ry="2.95526" transform="rotate(42.1179 28.1482 48.3858)"/>
</mask>
<path d="M27.2271 47.553C27.3613 47.4046 27.5772 47.2819 27.8548 47.2583C28.1389 47.2341 28.5256 47.3185 28.8489 47.6109L23.4836 53.545C26.4417 56.2195 30.7624 55.5715 33.1613 52.9183L27.2271 47.553ZM28.8489 47.6109C29.1722 47.9032 29.295 48.2795 29.2995 48.5645C29.304 48.8431 29.2035 49.0702 29.0693 49.2186L23.1352 43.8533C20.7363 46.5065 20.5255 50.8705 23.4836 53.545L28.8489 47.6109ZM29.0693 49.2186C28.9351 49.367 28.7193 49.4898 28.4417 49.5134C28.1576 49.5375 27.7709 49.4531 27.4476 49.1608L32.8128 43.2266C29.8547 40.5521 25.5341 41.2001 23.1352 43.8533L29.0693 49.2186ZM27.4476 49.1608C27.1242 48.8684 27.0014 48.4922 26.9969 48.2071C26.9925 47.9285 27.0929 47.7014 27.2271 47.553L33.1613 52.9183C35.5601 50.2651 35.7709 45.9012 32.8128 43.2266L27.4476 49.1608Z" fill="white" mask="url(#path-8-inside-1_44_203)"/>
<circle cx="30.7672" cy="36.6764" r="4.91051" transform="rotate(42.1179 30.7672 36.6764)" stroke="white" stroke-width="2"/>
<path d="M62.2634 14.5154C68.5025 17.8259 80.9807 28.878 80.9807 46.6021" stroke="#F16923" stroke-width="4" stroke-linecap="round" stroke-linejoin="round"/>
<path d="M52.7141 6.49367C60.6085 2.92848 79.453 3.81978 91.6765 35.9065" stroke="#F16923" stroke-width="4" stroke-linecap="round" stroke-linejoin="round"/>
</svg>
