<svg width="277" height="211" viewBox="0 0 277 211" fill="none" xmlns="http://www.w3.org/2000/svg">
<path d="M234.159 56.8986C259.047 80.0738 271.188 110.88 261.996 140.908C260.675 152.335 257.505 169.294 252.208 183.259C249.562 190.236 246.32 196.646 242.383 201.242C238.438 205.849 233.506 208.942 227.602 208.414C223.102 208.011 219.683 205.546 217.206 201.975C214.777 198.472 213.188 193.833 212.163 188.715C210.129 178.56 210.174 165.744 211.066 154.003C210.953 153.93 210.778 153.843 210.547 153.781C210.323 153.72 210.135 153.707 210.003 153.712C203.947 166.458 196.256 180.01 188.137 189.02C184.059 193.545 179.681 197.144 175.148 198.778C170.434 200.477 165.633 200.005 161.259 196.565C152.442 189.632 148.974 179.415 148.383 168.909C148.207 165.793 148.283 162.627 148.551 159.475C146.443 163.186 144.171 166.665 141.764 169.675C138.536 173.711 134.928 177.078 130.984 178.948C126.939 180.867 122.556 181.19 118.14 179.118C114.462 177.393 111.84 174.277 110.006 170.496C108.178 166.728 107.063 162.166 106.44 157.262C105.208 147.562 105.848 136.046 107.191 125.542C107.051 125.43 106.818 125.29 106.503 125.183C106.186 125.074 105.913 125.042 105.733 125.046C99.713 135.21 92.242 145.718 84.3439 152.666C76.489 159.576 67.2514 163.72 58.5526 158.51C53.1973 155.303 50.053 149.936 48.381 143.727C46.7131 137.532 46.4453 130.287 46.9871 122.908C48.0549 108.367 52.3139 92.7413 56.039 82.3258L19.5711 72.0377C17.13 71.349 15.5693 68.6439 16.6875 66.0779C25.5821 45.6661 61.8381 17.0962 128.254 17.58C171.368 17.8941 209.249 33.7034 234.159 56.8986ZM209.832 153.735C209.832 153.735 209.832 153.735 209.833 153.735L209.832 153.735Z" fill="#F16923" stroke="white" stroke-width="5"/>
<path d="M116.541 70.0526C115.46 79.0298 117.403 88.7106 115.899 97.3494" stroke="white" stroke-width="4" stroke-linecap="round"/>
<path d="M166.622 81.5157C168.027 90.8556 167.367 100.844 165.747 110.143" stroke="white" stroke-width="4" stroke-linecap="round"/>
<path d="M216.47 94.3087C216.752 103.044 217.171 111.775 217.389 120.507" stroke="white" stroke-width="4" stroke-linecap="round"/>
</svg>
