<svg width="128" height="216" viewBox="0 0 128 216" fill="none" xmlns="http://www.w3.org/2000/svg">
<mask id="path-1-inside-1_434_140" fill="white">
<path fill-rule="evenodd" clip-rule="evenodd" d="M32.6285 97.3286C38.081 94.2128 42.0889 88.7441 42.0889 82.4642V57.25C42.0889 51.8652 37.7236 47.5 32.3389 47.5C26.9541 47.5 22.5889 43.1348 22.5889 37.75V15C22.5889 6.71573 29.3046 0 37.5889 0H90.5889C98.8731 0 105.589 6.71573 105.589 15V36.75C105.589 42.6871 100.776 47.5 94.8389 47.5C88.9018 47.5 84.0889 52.3129 84.0889 58.25V81.3843C84.0889 87.8495 88.3277 93.4337 94.0269 96.4862C114.002 107.185 127.589 128.256 127.589 152.5C127.589 187.57 99.159 216 64.0889 216C29.0188 216 0.588867 187.57 0.588867 152.5C0.588867 128.877 13.4887 108.266 32.6285 97.3286Z"/>
</mask>
<path fill-rule="evenodd" clip-rule="evenodd" d="M32.6285 97.3286C38.081 94.2128 42.0889 88.7441 42.0889 82.4642V57.25C42.0889 51.8652 37.7236 47.5 32.3389 47.5C26.9541 47.5 22.5889 43.1348 22.5889 37.75V15C22.5889 6.71573 29.3046 0 37.5889 0H90.5889C98.8731 0 105.589 6.71573 105.589 15V36.75C105.589 42.6871 100.776 47.5 94.8389 47.5C88.9018 47.5 84.0889 52.3129 84.0889 58.25V81.3843C84.0889 87.8495 88.3277 93.4337 94.0269 96.4862C114.002 107.185 127.589 128.256 127.589 152.5C127.589 187.57 99.159 216 64.0889 216C29.0188 216 0.588867 187.57 0.588867 152.5C0.588867 128.877 13.4887 108.266 32.6285 97.3286Z" fill="white"/>
<path d="M94.0269 96.4862L96.3876 92.0786L94.0269 96.4862ZM32.6285 97.3286L30.1477 92.9875L32.6285 97.3286ZM37.0889 57.25V82.4642H47.0889V57.25H37.0889ZM32.3389 52.5C34.9622 52.5 37.0889 54.6266 37.0889 57.25H47.0889C47.0889 49.1038 40.4851 42.5 32.3389 42.5V52.5ZM17.5889 37.75C17.5889 45.8962 24.1927 52.5 32.3389 52.5V42.5C29.7155 42.5 27.5889 40.3734 27.5889 37.75H17.5889ZM17.5889 15V37.75H27.5889V15H17.5889ZM37.5889 -5C26.5432 -5 17.5889 3.9543 17.5889 15H27.5889C27.5889 9.47715 32.066 5 37.5889 5V-5ZM90.5889 -5H37.5889V5H90.5889V-5ZM110.589 15C110.589 3.9543 101.635 -5 90.5889 -5V5C96.1117 5 100.589 9.47715 100.589 15H110.589ZM110.589 36.75V15H100.589V36.75H110.589ZM94.8389 52.5C103.537 52.5 110.589 45.4485 110.589 36.75H100.589C100.589 39.9256 98.0145 42.5 94.8389 42.5V52.5ZM89.0889 58.25C89.0889 55.0744 91.6632 52.5 94.8389 52.5V42.5C86.1404 42.5 79.0889 49.5515 79.0889 58.25H89.0889ZM89.0889 81.3843V58.25H79.0889V81.3843H89.0889ZM91.6662 100.894C110.081 110.757 122.589 130.172 122.589 152.5H132.589C132.589 126.34 117.923 103.613 96.3876 92.0786L91.6662 100.894ZM122.589 152.5C122.589 184.809 96.3975 211 64.0889 211V221C101.92 221 132.589 190.332 132.589 152.5H122.589ZM64.0889 211C31.7802 211 5.58887 184.809 5.58887 152.5H-4.41113C-4.41113 190.332 26.2574 221 64.0889 221V211ZM5.58887 152.5C5.58887 130.743 17.4636 111.754 35.1093 101.67L30.1477 92.9875C9.51387 104.779 -4.41113 127.01 -4.41113 152.5H5.58887ZM79.0889 81.3843C79.0889 90.1444 84.7829 97.2071 91.6662 100.894L96.3876 92.0786C91.8725 89.6603 89.0889 85.5546 89.0889 81.3843H79.0889ZM37.0889 82.4642C37.0889 86.517 34.4586 90.524 30.1477 92.9875L35.1093 101.67C41.7033 97.9016 47.0889 90.9712 47.0889 82.4642H37.0889Z" fill="black" mask="url(#path-1-inside-1_434_140)"/>
<circle cx="65.5889" cy="152" r="43" fill="#231F20"/>
<path d="M56.0889 156.5C56.0889 160.81 52.3942 164.5 47.5889 164.5C42.7836 164.5 39.0889 160.81 39.0889 156.5C39.0889 152.19 42.7836 148.5 47.5889 148.5C52.3942 148.5 56.0889 152.19 56.0889 156.5Z" stroke="white" stroke-width="5"/>
<path d="M93.0889 163.5C93.0889 166.427 90.9145 168.5 88.5889 168.5C86.2632 168.5 84.0889 166.427 84.0889 163.5C84.0889 160.573 86.2632 158.5 88.5889 158.5C90.9145 158.5 93.0889 160.573 93.0889 163.5Z" stroke="white" stroke-width="5"/>
<circle cx="73.5889" cy="137" r="12.5" stroke="white" stroke-width="5"/>
</svg>
