<svg width="139" height="198" viewBox="0 0 139 198" fill="none" xmlns="http://www.w3.org/2000/svg">
<path d="M93.7036 2.5H42.4413C32.0294 2.5 23.5889 10.9405 23.5889 21.3524V33.9898C23.5889 39.1957 27.8091 43.416 33.0151 43.416C38.2211 43.416 42.4413 47.6363 42.4413 52.8422V82.5618C42.4413 85.0079 41.9926 87.4331 41.1175 89.7173L10.9929 168.345C5.97536 181.441 15.6446 195.5 29.6691 195.5H109.509C123.533 195.5 133.202 181.441 128.185 168.345L98.0602 89.7173C97.1851 87.4331 96.7364 85.0079 96.7364 82.5618V51.8996C96.7364 47.2142 100.535 43.416 105.22 43.416C109.905 43.416 113.704 39.6178 113.704 34.9324V22.5C113.704 11.4543 104.749 2.5 93.7036 2.5Z" stroke="#065097" stroke-width="5"/>
<path d="M84.022 115.5H56.0741C51.9488 115.5 48.2469 118.033 46.7529 121.879L28.8811 167.879C26.3344 174.433 31.17 181.5 38.2023 181.5H101.185C108.16 181.5 112.992 174.539 110.554 168.004L93.3911 122.004C91.9318 118.093 88.1965 115.5 84.022 115.5Z" fill="#065097"/>
<path d="M57.0889 159.5C57.0889 164.305 53.3988 168 49.0889 168C44.7789 168 41.0889 164.305 41.0889 159.5C41.0889 154.695 44.7789 151 49.0889 151C53.3988 151 57.0889 154.695 57.0889 159.5Z" stroke="white" stroke-width="5"/>
<path d="M95.0889 166.5C95.0889 169.692 92.7008 172 90.0889 172C87.477 172 85.0889 169.692 85.0889 166.5C85.0889 163.308 87.477 161 90.0889 161C92.7008 161 95.0889 163.308 95.0889 166.5Z" stroke="white" stroke-width="5"/>
<path d="M88.0889 139.5C88.0889 146.327 82.3465 152 75.0889 152C67.8313 152 62.0889 146.327 62.0889 139.5C62.0889 132.673 67.8313 127 75.0889 127C82.3465 127 88.0889 132.673 88.0889 139.5Z" stroke="white" stroke-width="5"/>
</svg>
