<svg width="207" height="151" viewBox="0 0 207 151" fill="none" xmlns="http://www.w3.org/2000/svg">
<path d="M43.5174 19.0602C20.1182 30.925 4.43814 51.221 4.82437 75.5814C3.37166 84.3212 2.11009 97.5342 3.05962 109.004C3.53387 114.732 4.57336 120.216 6.54071 124.524C8.51373 128.844 11.6133 132.355 16.3315 133.267C23.017 134.559 28.0087 129.588 31.4782 123.62C35.0116 117.542 37.6942 109.284 39.6421 101.168C39.8291 101.1 40.1309 101.038 40.5053 101.045C40.8696 101.052 41.1601 101.12 41.3414 101.192C43.2599 111.195 46.1025 121.563 50.1008 128.908C52.1168 132.612 54.5566 135.794 57.5445 137.684C60.6746 139.664 64.2713 140.129 68.0915 138.576C76.2704 135.251 81.0853 128.286 83.7837 120.57C84.317 119.045 84.7718 117.481 85.1566 115.895C85.8033 118.247 86.5517 120.498 87.4148 122.571C88.9549 126.272 90.9424 129.611 93.5472 131.909C96.2358 134.282 99.5694 135.52 103.458 134.898C109.28 133.968 113.359 128.867 116.221 122.985C119.107 117.053 121.138 109.557 122.526 102.232C122.76 102.122 123.154 102.013 123.644 101.989C124.137 101.964 124.543 102.033 124.788 102.121C127.187 110.155 130.442 118.291 134.641 124.125C138.863 129.991 144.63 134.244 151.823 132.336C156.597 131.069 160.139 127.703 162.731 123.46C165.315 119.23 167.071 113.95 168.255 108.429C170.578 97.5937 170.808 85.2831 170.312 76.72L198.266 76.8669C200.775 76.8801 203.087 74.7288 202.657 71.8972C200.034 54.6022 179.064 26.1507 130.344 12.5127C98.3685 3.56188 66.9423 7.18228 43.5174 19.0602ZM122.377 102.318C122.376 102.318 122.379 102.315 122.387 102.31C122.381 102.315 122.377 102.318 122.377 102.318ZM124.943 102.191C124.943 102.191 124.939 102.189 124.932 102.184C124.94 102.188 124.943 102.191 124.943 102.191Z" fill="#F16923" stroke="white" stroke-width="5"/>
<path d="M127.688 54.2478C126.581 61.0962 123.094 67.8218 122.37 74.5105" stroke="white" stroke-width="4" stroke-linecap="round"/>
<path d="M88.3311 52.0728C85.3133 58.6611 83.6804 66.1657 82.9013 73.3654" stroke="white" stroke-width="4" stroke-linecap="round"/>
<path d="M48.8626 50.9264C46.8015 57.3071 44.6395 63.6558 42.6258 70.0478" stroke="white" stroke-width="4" stroke-linecap="round"/>
</svg>
