<svg width="137" height="200" viewBox="0 0 137 200" fill="none" xmlns="http://www.w3.org/2000/svg">
<path d="M92.0323 3.26123H41.7107C31.4362 3.26123 23.107 11.5904 23.107 21.8649V34.9767C23.107 40.1139 27.2716 44.2785 32.4089 44.2785C37.5461 44.2785 41.7107 48.443 41.7107 53.5803V83.5844C41.7107 85.9953 41.2748 88.3862 40.424 90.642L10.6152 169.681C5.68189 182.762 15.3485 196.739 29.3285 196.739H107.671C121.651 196.739 131.318 182.762 126.385 169.681L96.5757 90.642C95.7249 88.3862 95.2891 85.9953 95.2891 83.5844V52.6501C95.2891 48.0266 99.0372 44.2785 103.661 44.2785C108.284 44.2785 112.032 40.5304 112.032 35.9068V23.2612C112.032 12.2155 103.078 3.26123 92.0323 3.26123Z" stroke="#F16923" stroke-width="5"/>
<path d="M83.2154 117.115H54.7128C50.6109 117.115 46.9249 119.62 45.415 123.434L27.4072 168.919C24.8085 175.483 29.6454 182.6 36.705 182.6H100.508C107.51 182.6 112.344 175.591 109.856 169.046L92.5626 123.561C91.0871 119.681 87.3672 117.115 83.2154 117.115Z" fill="#F16923"/>
<path d="M57.1953 160.168C57.1953 164.478 53.5006 168.168 48.6953 168.168C43.89 168.168 40.1953 164.478 40.1953 160.168C40.1953 155.859 43.89 152.168 48.6953 152.168C53.5006 152.168 57.1953 155.859 57.1953 160.168Z" stroke="white" stroke-width="5"/>
<path d="M95.1953 168.168C95.1953 170.78 92.8873 173.168 89.6953 173.168C86.5033 173.168 84.1953 170.78 84.1953 168.168C84.1953 165.557 86.5033 163.168 89.6953 163.168C92.8873 163.168 95.1953 165.557 95.1953 168.168Z" stroke="white" stroke-width="5"/>
<circle cx="74.6953" cy="140.668" r="12.5" stroke="white" stroke-width="5"/>
</svg>
