<svg width="543" height="452" viewBox="0 0 543 452" fill="none" xmlns="http://www.w3.org/2000/svg">
<path d="M537.318 119.36C531.164 125.751 524.98 132.157 518.1 137.791C514.768 140.518 511.249 143.043 507.544 145.245C503.493 147.65 499.211 149.628 494.884 151.464C477.725 158.738 459.817 165.788 441.003 166.725C430.357 167.257 419.704 165.968 409.485 162.934C407.171 162.245 406.183 165.863 408.489 166.545C417.81 169.31 427.557 170.681 437.282 170.576C447.007 170.471 456.575 168.8 465.888 166.141C475.202 163.481 484.133 159.937 493.035 156.259C497.579 154.386 502.116 152.475 506.458 150.153C510.448 148.017 514.222 145.515 517.808 142.765C525.856 136.585 532.938 129.302 539.968 122.013C541.637 120.274 538.995 117.622 537.318 119.36Z" fill="#F16924"/>
<path d="M342.562 257.851L341.686 254.209C373.257 246.628 368.87 226.571 368.668 225.725L368.211 223.814L370.135 223.44L404.985 216.854C409.028 215.73 412.397 213.086 414.493 209.415C416.597 205.721 417.143 201.436 416.028 197.36L399.67 137.603C397.357 129.152 388.612 124.163 380.175 126.47L365.254 130.576C365.037 130.636 364.648 130.763 364.071 131.018C360.755 132.501 354.391 136.689 349.877 140.353L347.518 137.446C351.726 134.03 358.501 129.415 362.544 127.602C363.173 127.317 363.749 127.107 364.251 126.965L379.179 122.859C389.608 119.997 400.419 126.171 403.271 136.614L419.629 196.371C421.007 201.413 420.333 206.702 417.735 211.265C415.137 215.835 410.93 219.109 405.891 220.488L405.741 220.525L372.584 226.789C372.861 229.696 372.771 235.457 369.11 241.48C364.386 249.242 355.447 254.756 342.54 257.858L342.562 257.851Z" fill="#F16924"/>
<path d="M290.546 136.098V136.113C290.673 136.33 290.83 136.51 291.032 136.637C291.212 136.802 291.422 136.914 291.669 136.974C291.916 137.049 292.163 137.064 292.417 137.004C292.665 136.989 292.897 136.922 293.114 136.779L293.496 136.487C293.728 136.255 293.885 135.978 293.975 135.663L294.042 135.169C294.042 134.831 293.952 134.517 293.788 134.225V134.21C293.66 133.992 293.503 133.812 293.301 133.685C293.121 133.52 292.912 133.408 292.665 133.348C292.417 133.273 292.17 133.258 291.916 133.318C291.669 133.333 291.437 133.4 291.22 133.543L290.838 133.835C290.606 134.067 290.449 134.344 290.359 134.659L290.291 135.154C290.291 135.491 290.381 135.805 290.546 136.098Z" fill="#F16924"/>
<path d="M372.104 224.339C369.312 218.263 366.519 212.187 363.727 206.111C363.33 205.249 362.933 204.387 362.544 203.533C362.267 202.934 361.541 202.627 360.927 202.604C359.767 202.567 358.599 202.447 357.446 202.312C357.086 202.267 356.727 202.222 356.368 202.177C357.019 202.26 356.383 202.177 356.233 202.155C355.971 202.117 355.709 202.08 355.454 202.035C353.433 201.72 351.419 201.316 349.435 200.821C347.009 200.214 344.621 199.473 342.3 198.559C342.038 198.454 341.776 198.349 341.514 198.244C341.477 198.229 340.96 198.012 341.335 198.169C341.177 198.102 341.02 198.034 340.863 197.967C340.234 197.69 339.605 197.397 338.984 197.09C337.779 196.498 336.596 195.847 335.45 195.142C333.032 193.644 331.265 192.273 329.244 190.175C327.222 188.077 325.725 185.927 324.423 183.155C321.368 176.629 321.495 168.598 322.91 161.316C323.689 157.308 324.909 153.494 327.118 150.093C327.552 149.418 327.979 148.842 328.308 148.444C328.787 147.868 329.289 147.321 329.835 146.804C330.09 146.556 330.352 146.317 330.621 146.092C330.741 145.987 330.868 145.89 330.988 145.785C331.071 145.717 331.153 145.65 331.235 145.59C331.086 145.71 331.063 145.725 331.168 145.642C331.714 145.238 332.283 144.863 332.867 144.519C334.447 143.597 333.803 140.982 331.924 141.027C325.733 141.17 319.564 140.645 313.417 139.956C308.064 139.357 302.734 138.607 297.808 136.292C292.852 133.962 288.674 130.374 286.331 125.361C284.265 120.926 283.958 115.562 286.368 111.202C288.569 107.216 292.53 104.579 296.677 102.923C301.529 100.99 306.709 100.068 311.853 99.3342C318.426 98.3977 325.119 97.8957 331.744 98.4951C337.494 99.0195 343.356 100.406 348.305 103.492C352.475 106.092 355.918 109.763 358.299 114.063C359.49 116.214 360.388 118.499 360.979 120.889C361.451 122.792 361.601 124.53 361.578 126.47C361.578 127.145 361.533 127.826 361.578 128.493C361.706 130.891 365.449 130.906 365.322 128.493C365.247 127.01 365.441 125.511 365.322 124.028C365.104 121.256 364.341 118.461 363.3 115.892C361.226 110.782 357.932 106.189 353.628 102.713C343.169 94.262 328.787 93.6777 315.97 95.0637C310.041 95.708 303.992 96.5321 298.294 98.3677C293.391 99.9485 288.427 102.391 285.111 106.459C281.42 110.984 280.199 116.723 281.442 122.41C282.685 128.096 286.406 133.288 291.227 136.764C296.243 140.383 302.382 142.271 308.454 143.11C314.525 143.949 320.477 144.541 326.496 144.736C328.316 144.796 330.127 144.803 331.946 144.758L331.003 141.267C325.276 144.616 321.892 150.595 320.14 156.843C318.853 161.421 318.216 166.335 318.224 171.085C318.224 174.771 318.748 178.502 319.968 181.994C324.056 193.711 334.949 200.582 346.388 203.863C351.075 205.204 356.061 206.163 360.942 206.328L359.325 205.399C362.117 211.475 364.91 217.551 367.702 223.627C368.099 224.489 368.496 225.35 368.885 226.204C369.304 227.126 370.637 227.351 371.446 226.879C372.389 226.324 372.539 225.238 372.119 224.316L372.104 224.339Z" fill="#F16924"/>
<path d="M221.527 360.859C216.115 360.859 210.687 360.267 205.409 359.592C201.231 359.061 197.937 355.831 197.398 351.748C197.398 351.718 197.383 351.651 197.383 351.621C196.889 347.74 197.106 342.361 197.331 336.667C197.563 330.875 197.795 324.897 197.383 319.443C196.784 311.531 193.805 306.339 179.213 299.903C174.1 297.648 157.652 276.858 156.102 256.202C154.665 237.053 138.389 232.393 128.672 229.613C126.089 228.871 124.217 228.497 122.712 228.197C117.412 227.141 115.645 226.526 106.399 218.435C100.462 213.236 98.8976 210.314 97.7596 208.178C96.6366 206.066 96.0152 204.904 90.0484 201.923C85.0923 199.443 77.6806 199.136 69.1086 198.783C57.8188 198.319 45.0243 197.787 33.48 192.056C26.9368 188.812 17.1593 176.442 7.69634 164.485C6.62577 163.129 5.57016 161.795 4.52953 160.492C2.30602 157.697 1.87929 153.966 3.39906 150.737C4.18515 149.081 4.98621 147.433 5.77979 145.785C8.7819 139.589 11.6193 133.73 13.5508 127.766C15.5947 121.466 16.8599 114.55 18.0877 107.86C20.3486 95.5282 22.6919 82.7767 29.9688 72.7599C37.3281 62.6382 48.7526 56.4797 59.8028 50.5235C65.7546 47.317 71.9085 43.998 77.194 40.1545C82.3897 36.3711 87.1511 31.7935 92.1971 26.9461C101.286 18.2104 110.689 9.18248 122.757 5.25666C134.294 1.50315 147.036 3.20385 159.359 4.84461C166.217 5.75863 173.306 6.70262 180.119 6.70262C186.932 6.70262 194.022 5.75863 200.879 4.84461C213.202 3.20385 225.944 1.50315 237.481 5.25666C249.549 9.17499 258.945 18.2104 268.041 26.9461C273.087 31.7935 277.849 36.3711 283.044 40.1545C288.33 43.998 294.484 47.317 300.436 50.5235C311.486 56.4797 322.91 62.6382 330.27 72.7599C335.315 79.6975 338.452 86.8374 340.451 95.9028C340.721 97.1165 339.95 98.3152 338.744 98.5849C337.531 98.8472 336.334 98.083 336.064 96.8768C334.207 88.4482 331.303 81.8328 326.639 75.4121C319.878 66.1145 308.91 60.2107 298.302 54.4943C292.223 51.2128 285.927 47.8264 280.402 43.8032C274.959 39.8399 269.861 34.9401 264.927 30.1976C256.205 21.8141 247.184 13.1458 236.096 9.5421C225.525 6.10326 213.846 7.6616 201.471 9.30985C194.471 10.2464 187.224 11.2053 180.119 11.2053C173.014 11.2053 165.775 10.2389 158.768 9.30985C146.4 7.6616 134.721 6.10326 124.15 9.5421C113.062 13.1458 104.041 21.8141 95.319 30.1976C90.3853 34.9326 85.287 39.8324 79.8443 43.8032C74.3117 47.8264 68.023 51.2203 61.9439 54.4943C51.3355 60.2107 40.3677 66.122 33.6073 75.4121C26.9293 84.5973 24.7807 96.2924 22.5122 108.677C21.262 115.509 19.9593 122.574 17.8257 129.16C15.7968 135.423 12.7573 141.694 9.82252 147.755C9.02895 149.388 8.23538 151.029 7.46426 152.67C6.67817 154.333 6.90277 156.259 8.04821 157.697C9.08884 159.008 10.1519 160.349 11.2225 161.705C19.9518 172.734 29.8416 185.238 35.4864 188.04C46.1772 193.352 58.4627 193.861 69.3032 194.303C78.3994 194.678 86.2453 195 92.0698 197.914C98.9799 201.368 100.185 203.181 101.735 206.073C102.768 208.006 104.048 210.404 109.364 215.064C118.086 222.698 119.253 222.93 123.596 223.799C125.183 224.114 127.152 224.511 129.914 225.298C140.051 228.197 158.917 233.599 160.594 255.873C162.099 275.914 178.307 294.592 181.04 295.798C195.789 302.301 201.044 308.19 201.875 319.113C202.309 324.822 202.055 331.22 201.838 336.854C201.621 342.353 201.411 347.553 201.868 351.134C202.145 353.232 203.844 354.872 206 355.142C216.025 356.416 226.603 357.405 236.111 354.318C247.199 350.714 256.22 342.046 264.942 333.663C269.875 328.92 274.974 324.028 280.417 320.057C285.949 316.026 292.238 312.64 298.324 309.358C308.925 303.642 319.893 297.738 326.653 288.448C333.331 279.255 335.48 267.56 337.749 255.176C338.999 248.343 340.301 241.271 342.435 234.693C344.464 228.429 347.504 222.174 350.431 216.12C352.437 211.984 354.511 207.699 356.255 203.436C359.639 195.195 361.211 188.362 361.211 181.926C361.211 169.999 355.731 158.694 350.431 147.748C349.173 145.155 347.878 142.473 346.68 139.836C346.163 138.705 346.665 137.371 347.796 136.862C348.926 136.345 350.259 136.847 350.768 137.978C351.943 140.57 353.231 143.222 354.474 145.792C359.991 157.188 365.703 168.973 365.703 181.926C365.703 188.969 364.019 196.348 360.403 205.144C358.599 209.534 356.495 213.88 354.466 218.083C351.464 224.271 348.634 230.123 346.695 236.086C344.651 242.387 343.386 249.302 342.158 255.993C339.897 268.324 337.554 281.076 330.277 291.1C322.918 301.215 311.493 307.373 300.443 313.322C294.491 316.528 288.33 319.847 283.044 323.698C277.849 327.482 273.087 332.059 268.041 336.907C258.953 345.642 249.549 354.67 237.481 358.596C232.3 360.282 226.925 360.866 221.535 360.866L221.527 360.859Z" fill="#F16924"/>
<path d="M95.0495 125.751C100.313 122.829 106.631 125.601 111.632 127.759C114.619 129.048 117.644 130.366 120.871 130.898C124.09 131.43 127.264 131.108 130.483 130.763C133.762 130.419 137.363 129.984 140.44 131.452C141.354 131.887 142.462 131.707 143.001 130.778C143.48 129.962 143.248 128.65 142.327 128.216C135.963 125.189 129.315 127.984 122.682 127.384C116.049 126.785 110.479 122.38 104.003 121.181C100.305 120.492 96.5093 120.656 93.1554 122.515C91.0442 123.683 92.9308 126.92 95.042 125.751H95.0495Z" fill="#F16924"/>
<path d="M204.256 185.245C207.55 186.294 210.859 187.411 213.839 189.201C216.923 191.059 219.064 193.569 220.517 196.858C222.104 200.454 223.227 204.103 225.675 207.249C227.966 210.186 230.915 212.516 233.985 214.592C237.833 217.191 241.883 219.506 245.844 221.926C247.91 223.185 249.789 219.941 247.73 218.69C244.144 216.51 240.513 214.389 236.995 212.104C233.94 210.119 230.983 207.916 228.677 205.062C226.274 202.087 225.263 198.409 223.736 194.97C222.209 191.531 219.701 188.549 216.429 186.414C213.023 184.196 209.092 182.855 205.244 181.634C202.946 180.9 201.957 184.519 204.248 185.245H204.256Z" fill="#F16924"/>
<path d="M193.85 54.8989C199.06 53.1158 204.51 54.9963 208.815 58.098C213.127 61.1997 216.1 65.7923 220.329 68.9989C222.695 70.797 225.405 71.9508 228.392 72.1306C230.796 72.2729 230.788 68.5269 228.392 68.3846C223.414 68.0924 219.813 63.6795 216.654 60.3156C212.716 56.1276 208.291 52.449 202.594 51.0255C199.397 50.2239 195.998 50.2239 192.861 51.2952C191.903 51.6249 191.274 52.5839 191.551 53.6028C191.806 54.5318 192.891 55.236 193.857 54.9139L193.85 54.8989Z" fill="#F16924"/>
<path d="M120.084 94.3894C109.147 94.3894 100.245 86.5452 100.245 76.8955C100.245 67.2458 109.147 59.4016 120.084 59.4016C131.022 59.4016 139.924 67.2458 139.924 76.8955C139.924 86.5452 131.022 94.3894 120.084 94.3894ZM120.084 63.1551C111.205 63.1551 103.988 69.3211 103.988 76.903C103.988 84.4849 111.205 90.6509 120.084 90.6509C128.964 90.6509 136.181 84.4849 136.181 76.903C136.181 69.3211 128.964 63.1551 120.084 63.1551Z" fill="#F16924"/>
<path d="M169.75 246.538C158.812 246.538 149.911 238.693 149.911 229.044C149.911 219.394 158.812 211.55 169.75 211.55C180.688 211.55 189.59 219.394 189.59 229.044C189.59 238.693 180.688 246.538 169.75 246.538ZM169.75 215.296C160.871 215.296 153.654 221.462 153.654 229.044C153.654 236.626 160.871 242.792 169.75 242.792C178.629 242.792 185.846 236.626 185.846 229.044C185.846 221.462 178.629 215.296 169.75 215.296Z" fill="#F16924"/>
<path d="M261.266 178.502C250.328 178.502 241.427 170.576 241.427 160.829C241.427 151.082 250.328 143.155 261.266 143.155C272.204 143.155 281.105 151.082 281.105 160.829C281.105 170.576 272.204 178.502 261.266 178.502ZM261.266 146.901C252.387 146.901 245.17 153.149 245.17 160.829C245.17 168.508 252.387 174.756 261.266 174.756C270.145 174.756 277.362 168.508 277.362 160.829C277.362 153.149 270.145 146.901 261.266 146.901Z" fill="#F16924"/>
<path d="M249.677 221.881C256.811 220.473 264.313 223.582 269.067 228.931C271.605 231.786 273.057 235.187 273.731 238.918C274.555 243.481 274.637 248.268 276.935 252.419C279.353 256.787 283.928 259.529 288.846 259.978C289.857 260.068 290.718 259.049 290.718 258.105C290.718 257.019 289.857 256.322 288.846 256.232C284.886 255.873 281.412 253.273 279.743 249.699C277.819 245.571 278.036 240.746 277.018 236.378C275.198 228.534 269.142 222.361 261.768 219.454C257.612 217.813 253.053 217.409 248.681 218.27C247.685 218.465 247.124 219.649 247.371 220.578C247.655 221.612 248.681 222.084 249.677 221.889V221.881Z" fill="#F16924"/>
<path d="M49.3366 232.318C46.2147 232.318 42.6361 230.31 39.9709 228.811C38.8778 228.197 37.8447 227.62 37.2383 227.395C32.634 225.687 33.0907 210.988 33.0982 210.846C33.1955 209.332 33.4201 205.788 35.9581 205.197C37.4629 204.844 38.8105 205.691 39.9634 207.706C40.9666 209.467 44.4778 209.452 47.5772 209.445C51.2531 209.437 55.0563 209.415 56.7632 212.277C59.7578 217.289 56.8156 226.819 53.4467 230.55C52.2937 231.831 50.8713 232.318 49.3291 232.318H49.3366ZM39.1474 223.312C40.0158 223.679 41.0265 224.241 42.1719 224.886C44.2232 226.039 49.0296 228.737 50.1152 227.538C52.6756 224.698 54.5846 217.379 52.9151 214.577C52.5183 213.91 49.3141 213.925 47.6072 213.932C44.2158 213.932 40.158 213.962 37.5377 211.707C37.4404 215.551 38.1891 221.769 39.1474 223.305V223.312Z" fill="#F16924"/>
<path d="M115.652 271.239C113.489 271.239 110.921 269.898 107.896 268.309C105.875 267.253 103.584 266.054 101.361 265.26C97.4302 263.852 91.9351 264.713 87.0913 265.47C81.7009 266.309 77.4486 266.976 74.8507 264.901C71.2572 262.024 66.1589 248.216 69.393 242.312C70.1043 241.008 72.3353 238.169 77.6208 239.975C80.1512 240.836 83.4004 239.45 86.8367 237.989C91.8752 235.839 97.5874 233.404 103.315 236.985C107.762 239.765 118.962 253.123 119.995 263.807C120.204 265.987 120.234 269.051 118.048 270.527C117.314 271.022 116.521 271.231 115.66 271.231L115.652 271.239ZM96.1724 260.008C98.5082 260.008 100.784 260.278 102.873 261.027C105.388 261.926 107.822 263.2 109.97 264.324C111.767 265.26 114.41 266.646 115.465 266.729C115.548 266.429 115.652 265.717 115.51 264.234C114.612 254.974 104.295 242.896 100.919 240.791C97.1756 238.454 92.9981 240.229 88.5811 242.117C84.5159 243.848 80.3159 245.639 76.1609 244.223C73.885 243.443 73.4882 244.163 73.3235 244.47C71.377 248.021 75.5021 259.664 77.6507 261.387C78.6988 262.226 83.1458 261.537 86.3875 261.027C89.5244 260.533 92.9008 260.008 96.165 260.008H96.1724Z" fill="#F16924"/>
<path d="M28.7635 278.656C28.3517 278.656 27.955 278.626 27.5731 278.551C25.3571 278.132 23.8972 276.536 23.5604 274.168C22.7593 268.579 23.5229 262.353 23.5604 262.091C23.6427 261.432 24.0095 260.84 24.571 260.48C25.1325 260.121 25.8213 260.023 26.4502 260.218C29.9763 261.304 38.1217 264.361 37.5228 269.238C37.3132 270.947 37.4554 271.756 37.5527 272.348C37.665 272.977 37.8222 273.921 37.2458 274.947C36.4747 276.311 32.2073 278.641 28.7635 278.641V278.656ZM27.7828 265.485C27.663 267.65 27.6106 270.729 28.0149 273.531C28.0822 274.026 28.202 274.071 28.2619 274.086C29.2726 274.46 31.7881 273.486 33.0683 272.737C32.9485 271.951 32.8212 270.744 33.0608 268.774C32.7613 267.972 30.4929 266.601 27.7903 265.478L27.7828 265.485Z" fill="#F16924"/>
<path d="M123.259 326.942C121.687 326.942 119.778 326.253 117.569 325.459C116.686 325.137 115.473 324.702 114.642 324.485C114.312 324.912 113.856 325.226 113.309 325.391C110.06 326.373 103.637 320.551 100.807 316.273C97.3553 311.052 97.2056 306.069 100.38 302.248C101.166 301.304 103.554 298.427 106.459 299.177C107.709 299.499 108.585 300.413 109.139 301.439H120.07C123.888 301.439 130.476 307.74 130.476 314.183C130.476 317.652 128.784 319.428 127.661 320.604C126.665 321.645 126.441 321.93 126.62 322.949C126.935 324.717 126.119 325.713 125.602 326.141C124.936 326.702 124.15 326.927 123.251 326.927L123.259 326.942ZM113.871 319.855C115.278 319.855 116.993 320.477 119.096 321.233C119.942 321.54 121.155 321.975 122.091 322.23C122.158 319.892 123.438 318.544 124.427 317.51C125.377 316.513 125.999 315.854 125.999 314.191C125.999 310.242 121.395 306.077 120.062 305.942H107.597C106.519 305.942 105.598 305.178 105.388 304.121C105.366 304.009 105.314 303.867 105.261 303.739C104.977 303.934 104.497 304.331 103.831 305.133C102.514 306.721 102.252 308.594 103.053 310.857C104.572 315.195 109.356 319.323 111.655 320.626C111.737 320.559 111.819 320.491 111.909 320.424C112.486 320.02 113.129 319.855 113.863 319.855H113.871Z" fill="#F16924"/>
<path d="M537.318 119.36C531.164 125.751 524.98 132.157 518.1 137.791C514.768 140.518 511.249 143.043 507.544 145.245C503.493 147.65 499.211 149.628 494.884 151.464C477.725 158.738 459.817 165.788 441.003 166.725C430.357 167.257 419.704 165.968 409.485 162.934C407.171 162.245 406.183 165.863 408.489 166.545C417.81 169.31 427.557 170.681 437.282 170.576C447.007 170.471 456.575 168.8 465.888 166.141C475.202 163.481 484.133 159.937 493.035 156.259C497.579 154.386 502.116 152.475 506.458 150.153C510.448 148.017 514.222 145.515 517.808 142.765C525.856 136.585 532.938 129.302 539.968 122.013C541.637 120.274 538.995 117.622 537.318 119.36Z" stroke="#F16924" stroke-width="5" stroke-linecap="round" stroke-linejoin="round"/>
<path d="M342.562 257.851L341.686 254.209C373.257 246.628 368.87 226.571 368.668 225.725L368.211 223.814L370.135 223.44L404.985 216.854C409.028 215.73 412.397 213.086 414.493 209.415C416.597 205.721 417.143 201.436 416.028 197.36L399.67 137.603C397.357 129.152 388.612 124.163 380.175 126.47L365.254 130.576C365.037 130.636 364.648 130.763 364.071 131.018C360.755 132.501 354.391 136.689 349.877 140.353L347.518 137.446C351.726 134.03 358.501 129.415 362.544 127.602C363.173 127.317 363.749 127.107 364.251 126.965L379.179 122.859C389.608 119.997 400.419 126.171 403.271 136.614L419.629 196.371C421.007 201.413 420.333 206.702 417.735 211.265C415.137 215.835 410.93 219.109 405.891 220.488L405.741 220.525L372.584 226.789C372.861 229.696 372.771 235.457 369.11 241.48C364.386 249.242 355.447 254.756 342.54 257.858L342.562 257.851Z" stroke="#F16924" stroke-width="5" stroke-linecap="round" stroke-linejoin="round"/>
<path d="M290.546 136.098V136.113C290.673 136.33 290.83 136.51 291.032 136.637C291.212 136.802 291.422 136.914 291.669 136.974C291.916 137.049 292.163 137.064 292.417 137.004C292.665 136.989 292.897 136.922 293.114 136.779L293.496 136.487C293.728 136.255 293.885 135.978 293.975 135.663L294.042 135.169C294.042 134.831 293.952 134.517 293.788 134.225V134.21C293.66 133.992 293.503 133.812 293.301 133.685C293.121 133.52 292.912 133.408 292.665 133.348C292.417 133.273 292.17 133.258 291.916 133.318C291.669 133.333 291.437 133.4 291.22 133.543L290.838 133.835C290.606 134.067 290.449 134.344 290.359 134.659L290.291 135.154C290.291 135.491 290.381 135.805 290.546 136.098Z" stroke="#F16924" stroke-width="5" stroke-linecap="round" stroke-linejoin="round"/>
<path d="M372.104 224.339C369.312 218.263 366.519 212.187 363.727 206.111C363.33 205.249 362.933 204.387 362.544 203.533C362.267 202.934 361.541 202.627 360.927 202.604C359.767 202.567 358.599 202.447 357.446 202.312C357.086 202.267 356.727 202.222 356.368 202.177C357.019 202.26 356.383 202.177 356.233 202.155C355.971 202.117 355.709 202.08 355.454 202.035C353.433 201.72 351.419 201.316 349.435 200.821C347.009 200.214 344.621 199.473 342.3 198.559C342.038 198.454 341.776 198.349 341.514 198.244C341.477 198.229 340.96 198.012 341.335 198.169C341.177 198.102 341.02 198.034 340.863 197.967C340.234 197.69 339.605 197.397 338.984 197.09C337.779 196.498 336.596 195.847 335.45 195.142C333.032 193.644 331.265 192.273 329.244 190.175C327.222 188.077 325.725 185.927 324.423 183.155C321.368 176.629 321.495 168.598 322.91 161.316C323.689 157.308 324.909 153.494 327.118 150.093C327.552 149.418 327.979 148.842 328.308 148.444C328.787 147.868 329.289 147.321 329.835 146.804C330.09 146.556 330.352 146.317 330.621 146.092C330.741 145.987 330.868 145.89 330.988 145.785C331.071 145.717 331.153 145.65 331.235 145.59C331.086 145.71 331.063 145.725 331.168 145.642C331.714 145.238 332.283 144.863 332.867 144.519C334.447 143.597 333.803 140.982 331.924 141.027C325.733 141.17 319.564 140.645 313.417 139.956C308.064 139.357 302.734 138.607 297.808 136.292C292.852 133.962 288.674 130.374 286.331 125.361C284.265 120.926 283.958 115.562 286.368 111.202C288.569 107.216 292.53 104.579 296.677 102.923C301.529 100.99 306.709 100.068 311.853 99.3342C318.426 98.3977 325.119 97.8957 331.744 98.4951C337.494 99.0195 343.356 100.406 348.305 103.492C352.475 106.092 355.918 109.763 358.299 114.063C359.49 116.214 360.388 118.499 360.979 120.889C361.451 122.792 361.601 124.53 361.578 126.47C361.578 127.145 361.533 127.826 361.578 128.493C361.706 130.891 365.449 130.906 365.322 128.493C365.247 127.01 365.441 125.511 365.322 124.028C365.104 121.256 364.341 118.461 363.3 115.892C361.226 110.782 357.932 106.189 353.628 102.713C343.169 94.262 328.787 93.6777 315.97 95.0637C310.041 95.708 303.992 96.5321 298.294 98.3677C293.391 99.9485 288.427 102.391 285.111 106.459C281.42 110.984 280.199 116.723 281.442 122.41C282.685 128.096 286.406 133.288 291.227 136.764C296.243 140.383 302.382 142.271 308.454 143.11C314.525 143.949 320.477 144.541 326.496 144.736C328.316 144.796 330.127 144.803 331.946 144.758L331.003 141.267C325.276 144.616 321.892 150.595 320.14 156.843C318.853 161.421 318.216 166.335 318.224 171.085C318.224 174.771 318.748 178.502 319.968 181.994C324.056 193.711 334.949 200.582 346.388 203.863C351.075 205.204 356.061 206.163 360.942 206.328L359.325 205.399C362.117 211.475 364.91 217.551 367.702 223.627C368.099 224.489 368.496 225.35 368.885 226.204C369.304 227.126 370.637 227.351 371.446 226.879C372.389 226.324 372.539 225.238 372.119 224.316L372.104 224.339Z" stroke="#F16924" stroke-width="5" stroke-linecap="round" stroke-linejoin="round"/>
<path d="M221.527 360.859C216.115 360.859 210.687 360.267 205.409 359.592C201.231 359.061 197.937 355.831 197.398 351.748C197.398 351.718 197.383 351.651 197.383 351.621C196.889 347.74 197.106 342.361 197.331 336.667C197.563 330.875 197.795 324.897 197.383 319.443C196.784 311.531 193.805 306.339 179.213 299.903C174.1 297.648 157.652 276.858 156.102 256.202C154.665 237.053 138.389 232.393 128.672 229.613C126.089 228.871 124.217 228.497 122.712 228.197C117.412 227.141 115.645 226.526 106.399 218.435C100.462 213.236 98.8976 210.314 97.7596 208.178C96.6366 206.066 96.0152 204.904 90.0484 201.923C85.0923 199.443 77.6806 199.136 69.1086 198.783C57.8188 198.319 45.0243 197.787 33.48 192.056C26.9368 188.812 17.1593 176.442 7.69634 164.485C6.62577 163.129 5.57016 161.795 4.52953 160.492C2.30602 157.697 1.87929 153.966 3.39906 150.737C4.18515 149.081 4.98621 147.433 5.77979 145.785C8.7819 139.589 11.6193 133.73 13.5508 127.766C15.5947 121.466 16.8599 114.55 18.0877 107.86C20.3486 95.5282 22.6919 82.7767 29.9688 72.7599C37.3281 62.6382 48.7526 56.4797 59.8028 50.5235C65.7546 47.317 71.9085 43.998 77.194 40.1545C82.3897 36.3711 87.1511 31.7935 92.1971 26.9461C101.286 18.2104 110.689 9.18248 122.757 5.25666C134.294 1.50315 147.036 3.20385 159.359 4.84461C166.217 5.75863 173.306 6.70262 180.119 6.70262C186.932 6.70262 194.022 5.75863 200.879 4.84461C213.202 3.20385 225.944 1.50315 237.481 5.25666C249.549 9.17499 258.945 18.2104 268.041 26.9461C273.087 31.7935 277.849 36.3711 283.044 40.1545C288.33 43.998 294.484 47.317 300.436 50.5235C311.486 56.4797 322.91 62.6382 330.27 72.7599C335.315 79.6975 338.452 86.8374 340.451 95.9028C340.721 97.1165 339.95 98.3152 338.744 98.5849C337.531 98.8472 336.334 98.083 336.064 96.8768C334.207 88.4482 331.303 81.8328 326.639 75.4121C319.878 66.1145 308.91 60.2107 298.302 54.4943C292.223 51.2128 285.927 47.8264 280.402 43.8032C274.959 39.8399 269.861 34.9401 264.927 30.1976C256.205 21.8141 247.184 13.1458 236.096 9.5421C225.525 6.10326 213.846 7.6616 201.471 9.30985C194.471 10.2464 187.224 11.2053 180.119 11.2053C173.014 11.2053 165.775 10.2389 158.768 9.30985C146.4 7.6616 134.721 6.10326 124.15 9.5421C113.062 13.1458 104.041 21.8141 95.319 30.1976C90.3853 34.9326 85.287 39.8324 79.8443 43.8032C74.3117 47.8264 68.023 51.2203 61.9439 54.4943C51.3355 60.2107 40.3677 66.122 33.6073 75.4121C26.9293 84.5973 24.7807 96.2924 22.5122 108.677C21.262 115.509 19.9593 122.574 17.8257 129.16C15.7968 135.423 12.7573 141.694 9.82252 147.755C9.02895 149.388 8.23538 151.029 7.46426 152.67C6.67817 154.333 6.90277 156.259 8.04821 157.697C9.08884 159.008 10.1519 160.349 11.2225 161.705C19.9518 172.734 29.8416 185.238 35.4864 188.04C46.1772 193.352 58.4627 193.861 69.3032 194.303C78.3994 194.678 86.2453 195 92.0698 197.914C98.9799 201.368 100.185 203.181 101.735 206.073C102.768 208.006 104.048 210.404 109.364 215.064C118.086 222.698 119.253 222.93 123.596 223.799C125.183 224.114 127.152 224.511 129.914 225.298C140.051 228.197 158.917 233.599 160.594 255.873C162.099 275.914 178.307 294.592 181.04 295.798C195.789 302.301 201.044 308.19 201.875 319.113C202.309 324.822 202.055 331.22 201.838 336.854C201.621 342.353 201.411 347.553 201.868 351.134C202.145 353.232 203.844 354.872 206 355.142C216.025 356.416 226.603 357.405 236.111 354.318C247.199 350.714 256.22 342.046 264.942 333.663C269.875 328.92 274.974 324.028 280.417 320.057C285.949 316.026 292.238 312.64 298.324 309.358C308.925 303.642 319.893 297.738 326.653 288.448C333.331 279.255 335.48 267.56 337.749 255.176C338.999 248.343 340.301 241.271 342.435 234.693C344.464 228.429 347.504 222.174 350.431 216.12C352.437 211.984 354.511 207.699 356.255 203.436C359.639 195.195 361.211 188.362 361.211 181.926C361.211 169.999 355.731 158.694 350.431 147.748C349.173 145.155 347.878 142.473 346.68 139.836C346.163 138.705 346.665 137.371 347.796 136.862C348.926 136.345 350.259 136.847 350.768 137.978C351.943 140.57 353.231 143.222 354.474 145.792C359.991 157.188 365.703 168.973 365.703 181.926C365.703 188.969 364.019 196.348 360.403 205.144C358.599 209.534 356.495 213.88 354.466 218.083C351.464 224.271 348.634 230.123 346.695 236.086C344.651 242.387 343.386 249.302 342.158 255.993C339.897 268.324 337.554 281.076 330.277 291.1C322.918 301.215 311.493 307.373 300.443 313.322C294.491 316.528 288.33 319.847 283.044 323.698C277.849 327.482 273.087 332.059 268.041 336.907C258.953 345.642 249.549 354.67 237.481 358.596C232.3 360.282 226.925 360.866 221.535 360.866L221.527 360.859Z" stroke="#F16924" stroke-width="5" stroke-linecap="round" stroke-linejoin="round"/>
<path d="M95.0495 125.751C100.313 122.829 106.631 125.601 111.632 127.759C114.619 129.048 117.644 130.366 120.871 130.898C124.09 131.43 127.264 131.108 130.483 130.763C133.762 130.419 137.363 129.984 140.44 131.452C141.354 131.887 142.462 131.707 143.001 130.778C143.48 129.962 143.248 128.65 142.327 128.216C135.963 125.189 129.315 127.984 122.682 127.384C116.049 126.785 110.479 122.38 104.003 121.181C100.305 120.492 96.5093 120.656 93.1554 122.515C91.0442 123.683 92.9308 126.92 95.042 125.751H95.0495Z" stroke="#F16924" stroke-width="5" stroke-linecap="round" stroke-linejoin="round"/>
<path d="M204.256 185.245C207.55 186.294 210.859 187.411 213.839 189.201C216.923 191.059 219.064 193.569 220.517 196.858C222.104 200.454 223.227 204.103 225.675 207.249C227.966 210.186 230.915 212.516 233.985 214.592C237.833 217.191 241.883 219.506 245.844 221.926C247.91 223.185 249.789 219.941 247.73 218.69C244.144 216.51 240.513 214.389 236.995 212.104C233.94 210.119 230.983 207.916 228.677 205.062C226.274 202.087 225.263 198.409 223.736 194.97C222.209 191.531 219.701 188.549 216.429 186.414C213.023 184.196 209.092 182.855 205.244 181.634C202.946 180.9 201.957 184.519 204.248 185.245H204.256Z" stroke="#F16924" stroke-width="5" stroke-linecap="round" stroke-linejoin="round"/>
<path d="M193.85 54.8989C199.06 53.1158 204.51 54.9963 208.815 58.098C213.127 61.1997 216.1 65.7923 220.329 68.9989C222.695 70.797 225.405 71.9508 228.392 72.1306C230.796 72.2729 230.788 68.5269 228.392 68.3846C223.414 68.0924 219.813 63.6795 216.654 60.3156C212.716 56.1276 208.291 52.449 202.594 51.0255C199.397 50.2239 195.998 50.2239 192.861 51.2952C191.903 51.6249 191.274 52.5839 191.551 53.6028C191.806 54.5318 192.891 55.236 193.857 54.9139L193.85 54.8989Z" stroke="#F16924" stroke-width="5" stroke-linecap="round" stroke-linejoin="round"/>
<path d="M120.084 94.3894C109.147 94.3894 100.245 86.5452 100.245 76.8955C100.245 67.2458 109.147 59.4016 120.084 59.4016C131.022 59.4016 139.924 67.2458 139.924 76.8955C139.924 86.5452 131.022 94.3894 120.084 94.3894ZM120.084 63.1551C111.205 63.1551 103.988 69.3211 103.988 76.903C103.988 84.4849 111.205 90.6509 120.084 90.6509C128.964 90.6509 136.181 84.4849 136.181 76.903C136.181 69.3211 128.964 63.1551 120.084 63.1551Z" stroke="#F16924" stroke-width="5" stroke-linecap="round" stroke-linejoin="round"/>
<path d="M169.75 246.538C158.812 246.538 149.911 238.693 149.911 229.044C149.911 219.394 158.812 211.55 169.75 211.55C180.688 211.55 189.59 219.394 189.59 229.044C189.59 238.693 180.688 246.538 169.75 246.538ZM169.75 215.296C160.871 215.296 153.654 221.462 153.654 229.044C153.654 236.626 160.871 242.792 169.75 242.792C178.629 242.792 185.846 236.626 185.846 229.044C185.846 221.462 178.629 215.296 169.75 215.296Z" stroke="#F16924" stroke-width="5" stroke-linecap="round" stroke-linejoin="round"/>
<path d="M261.266 178.502C250.328 178.502 241.427 170.576 241.427 160.829C241.427 151.082 250.328 143.155 261.266 143.155C272.204 143.155 281.105 151.082 281.105 160.829C281.105 170.576 272.204 178.502 261.266 178.502ZM261.266 146.901C252.387 146.901 245.17 153.149 245.17 160.829C245.17 168.508 252.387 174.756 261.266 174.756C270.145 174.756 277.362 168.508 277.362 160.829C277.362 153.149 270.145 146.901 261.266 146.901Z" stroke="#F16924" stroke-width="5" stroke-linecap="round" stroke-linejoin="round"/>
<path d="M249.677 221.881C256.811 220.473 264.313 223.582 269.067 228.931C271.605 231.786 273.057 235.187 273.731 238.918C274.555 243.481 274.637 248.268 276.935 252.419C279.353 256.787 283.928 259.529 288.846 259.978C289.857 260.068 290.718 259.049 290.718 258.105C290.718 257.019 289.857 256.322 288.846 256.232C284.886 255.873 281.412 253.273 279.743 249.699C277.819 245.571 278.036 240.746 277.018 236.378C275.198 228.534 269.142 222.361 261.768 219.454C257.612 217.813 253.053 217.409 248.681 218.27C247.685 218.465 247.124 219.649 247.371 220.578C247.655 221.612 248.681 222.084 249.677 221.889V221.881Z" stroke="#F16924" stroke-width="5" stroke-linecap="round" stroke-linejoin="round"/>
<path d="M49.3366 232.318C46.2147 232.318 42.6361 230.31 39.9709 228.811C38.8778 228.197 37.8447 227.62 37.2383 227.395C32.634 225.687 33.0907 210.988 33.0982 210.846C33.1955 209.332 33.4201 205.788 35.9581 205.197C37.4629 204.844 38.8105 205.691 39.9634 207.706C40.9666 209.467 44.4778 209.452 47.5772 209.445C51.2531 209.437 55.0563 209.415 56.7632 212.277C59.7578 217.289 56.8156 226.819 53.4467 230.55C52.2937 231.831 50.8713 232.318 49.3291 232.318H49.3366ZM39.1474 223.312C40.0158 223.679 41.0265 224.241 42.1719 224.886C44.2232 226.039 49.0296 228.737 50.1152 227.538C52.6756 224.698 54.5846 217.379 52.9151 214.577C52.5183 213.91 49.3141 213.925 47.6072 213.932C44.2158 213.932 40.158 213.962 37.5377 211.707C37.4404 215.551 38.1891 221.769 39.1474 223.305V223.312Z" stroke="#F16924" stroke-width="5" stroke-linecap="round" stroke-linejoin="round"/>
<path d="M115.652 271.239C113.489 271.239 110.921 269.898 107.896 268.309C105.875 267.253 103.584 266.054 101.361 265.26C97.4302 263.852 91.9351 264.713 87.0913 265.47C81.7009 266.309 77.4486 266.976 74.8507 264.901C71.2572 262.024 66.1589 248.216 69.393 242.312C70.1043 241.008 72.3353 238.169 77.6208 239.975C80.1512 240.836 83.4004 239.45 86.8367 237.989C91.8752 235.839 97.5874 233.404 103.315 236.985C107.762 239.765 118.962 253.123 119.995 263.807C120.204 265.987 120.234 269.051 118.048 270.527C117.314 271.022 116.521 271.231 115.66 271.231L115.652 271.239ZM96.1724 260.008C98.5082 260.008 100.784 260.278 102.873 261.027C105.388 261.926 107.822 263.2 109.97 264.324C111.767 265.26 114.41 266.646 115.465 266.729C115.548 266.429 115.652 265.717 115.51 264.234C114.612 254.974 104.295 242.896 100.919 240.791C97.1756 238.454 92.9981 240.229 88.5811 242.117C84.5159 243.848 80.3159 245.639 76.1609 244.223C73.885 243.443 73.4882 244.163 73.3235 244.47C71.377 248.021 75.5021 259.664 77.6507 261.387C78.6988 262.226 83.1458 261.537 86.3875 261.027C89.5244 260.533 92.9008 260.008 96.165 260.008H96.1724Z" stroke="#F16924" stroke-width="5" stroke-linecap="round" stroke-linejoin="round"/>
<path d="M28.7635 278.656C28.3517 278.656 27.955 278.626 27.5731 278.551C25.3571 278.132 23.8972 276.536 23.5604 274.168C22.7593 268.579 23.5229 262.353 23.5604 262.091C23.6427 261.432 24.0095 260.84 24.571 260.48C25.1325 260.121 25.8213 260.023 26.4502 260.218C29.9763 261.304 38.1217 264.361 37.5228 269.238C37.3132 270.947 37.4554 271.756 37.5527 272.348C37.665 272.977 37.8222 273.921 37.2458 274.947C36.4747 276.311 32.2073 278.641 28.7635 278.641V278.656ZM27.7828 265.485C27.663 267.65 27.6106 270.729 28.0149 273.531C28.0822 274.026 28.202 274.071 28.2619 274.086C29.2726 274.46 31.7881 273.486 33.0683 272.737C32.9485 271.951 32.8212 270.744 33.0608 268.774C32.7613 267.972 30.4929 266.601 27.7903 265.478L27.7828 265.485Z" stroke="#F16924" stroke-width="5" stroke-linecap="round" stroke-linejoin="round"/>
<path d="M123.259 326.942C121.687 326.942 119.778 326.253 117.569 325.459C116.686 325.137 115.473 324.702 114.642 324.485C114.312 324.912 113.856 325.226 113.309 325.391C110.06 326.373 103.637 320.551 100.807 316.273C97.3553 311.052 97.2056 306.069 100.38 302.248C101.166 301.304 103.554 298.427 106.459 299.177C107.709 299.499 108.585 300.413 109.139 301.439H120.07C123.888 301.439 130.476 307.74 130.476 314.183C130.476 317.652 128.784 319.428 127.661 320.604C126.665 321.645 126.441 321.93 126.62 322.949C126.935 324.717 126.119 325.713 125.602 326.141C124.936 326.702 124.15 326.927 123.251 326.927L123.259 326.942ZM113.871 319.855C115.278 319.855 116.993 320.477 119.096 321.233C119.942 321.54 121.155 321.975 122.091 322.23C122.158 319.892 123.438 318.544 124.427 317.51C125.377 316.513 125.999 315.854 125.999 314.191C125.999 310.242 121.395 306.077 120.062 305.942H107.597C106.519 305.942 105.598 305.178 105.388 304.121C105.366 304.009 105.314 303.867 105.261 303.739C104.977 303.934 104.497 304.331 103.831 305.133C102.514 306.721 102.252 308.594 103.053 310.857C104.572 315.195 109.356 319.323 111.655 320.626C111.737 320.559 111.819 320.491 111.909 320.424C112.486 320.02 113.129 319.855 113.863 319.855H113.871Z" stroke="#F16924" stroke-width="5" stroke-linecap="round" stroke-linejoin="round"/>
<path d="M423.896 318.173L427.061 319.668L423.896 318.173C423.489 319.035 422.198 319.136 421.684 318.214C417.873 311.374 407.322 313.156 406.328 321.147C406.217 322.04 405.04 322.578 404.248 321.842C398.579 316.579 388.995 321.374 390.562 329.352C390.731 330.213 389.797 331.083 388.827 330.631C381.829 327.368 374.17 334.876 378.145 341.98C378.582 342.763 377.948 343.837 376.93 343.709C369.194 342.733 364.361 352.305 370.292 357.792C370.988 358.436 370.658 359.613 369.71 359.791C361.895 361.256 360.563 371.892 367.775 375.239C368.65 375.645 368.679 376.868 367.845 377.32C360.745 381.175 363.067 391.643 370.805 392.606C371.823 392.733 372.173 393.93 371.556 394.58C365.951 400.485 371.522 409.65 379.109 408.214C380.16 408.015 380.85 409.088 380.474 409.882C376.988 417.227 385.093 424.237 391.885 420.535C392.834 420.017 393.842 420.829 393.729 421.722C392.721 429.711 402.507 434.041 407.887 428.352C408.613 427.585 409.839 428.001 410.021 428.937C411.54 436.746 422.151 438.075 425.549 430.882C425.956 430.02 427.247 429.919 427.761 430.841C431.573 437.682 442.124 435.9 443.117 427.908C443.228 427.015 444.405 426.478 445.198 427.213C450.866 432.476 460.45 427.682 458.884 419.704C458.715 418.842 459.648 417.973 460.618 418.425C467.617 421.688 475.276 414.18 471.301 407.075C470.863 406.293 471.498 405.219 472.515 405.347C480.252 406.323 485.084 396.751 479.154 391.264C478.457 390.619 478.787 389.442 479.735 389.264C487.55 387.8 488.883 377.163 481.67 373.816C480.795 373.41 480.766 372.188 481.6 371.735C488.701 367.881 486.379 357.412 478.641 356.449C477.623 356.323 477.273 355.125 477.89 354.475C483.494 348.571 477.924 339.405 470.337 340.841C469.285 341.04 468.595 339.967 468.971 339.174L465.809 337.673L468.971 339.174C472.457 331.829 464.352 324.819 457.561 328.521C456.611 329.038 455.603 328.227 455.716 327.334C456.724 319.344 446.939 315.015 441.558 320.704C440.833 321.47 439.606 321.054 439.424 320.119C437.905 312.31 427.294 310.98 423.896 318.173Z" stroke="#F16923" stroke-width="7"/>
<path d="M379.687 357.06L387.334 358.018L390.981 368.896L391.179 368.921L397.397 359.278L405.043 360.236L393.6 376.389L392.605 384.331L385.798 383.479L386.793 375.536L379.687 357.06ZM422.226 362.388L429.083 363.247L427.056 379.428C426.815 381.352 426.146 382.959 425.049 384.249C423.961 385.533 422.551 386.454 420.819 387.014C419.088 387.565 417.142 387.706 414.98 387.435C412.801 387.162 410.941 386.545 409.399 385.583C407.859 384.614 406.72 383.373 405.983 381.861C405.254 380.342 405.011 378.62 405.252 376.696L407.278 360.516L414.135 361.375L412.183 376.963C412.085 377.744 412.17 378.465 412.438 379.125C412.707 379.776 413.124 380.313 413.689 380.735C414.263 381.157 414.94 381.417 415.721 381.515C416.51 381.614 417.231 381.529 417.883 381.26C418.534 380.991 419.071 380.574 419.492 380.008C419.915 379.435 420.175 378.758 420.273 377.977L422.226 362.388ZM432.341 363.656L440.876 364.725L444.954 379.766L445.25 379.803L452.912 366.232L461.446 367.301L458.282 392.559L451.574 391.718L453.403 377.116L453.205 377.092L445.777 390.792L441.732 390.285L437.925 375.077L437.728 375.053L435.886 389.753L429.178 388.913L432.341 363.656ZM472.687 368.71L469.871 385.994L464.247 385.289L465.781 367.844L472.687 368.71ZM466.021 393.929C465.067 393.809 464.291 393.374 463.692 392.622C463.102 391.864 462.872 391.004 463 390.043C463.11 389.105 463.543 388.345 464.301 387.763C465.066 387.183 465.926 386.952 466.88 387.072C467.784 387.185 468.54 387.618 469.147 388.371C469.763 389.124 470.016 389.97 469.907 390.908C469.818 391.549 469.577 392.111 469.182 392.596C468.796 393.074 468.325 393.437 467.768 393.684C467.212 393.923 466.629 394.005 466.021 393.929Z" fill="#F16923"/>
</svg>
